<?xml version="1.0" encoding="UTF-8"?>
<svg width="764px" height="174px" viewBox="0 0 764 174" version="1.1" xmlns="http://www.w3.org/2000/svg" xmlns:xlink="http://www.w3.org/1999/xlink">
    
    <title>Horizontal - PKP</title>
    <desc>An official PKP logotype.</desc>
    <g id="Final" stroke="none" stroke-width="1" fill="none" fill-rule="evenodd">
        <g id="Artboard" transform="translate(-100.000000, -140.000000)" fill="#000000" fill-rule="nonzero">
            <g id="Horizontal---PKP" transform="translate(100.000000, 140.000000)">
                <path d="M18.4126984,98.9803386 L18.4126984,61.7316614 C18.4126984,28.7157884 18.4126984,22.7898624 17.989418,16.0173757 C17.5661376,8.82160847 15.8730159,5.43536508 8.88888889,3.9538836 C7.1957672,3.53060317 3.5978836,3.31896296 1.69312169,3.31896296 C0.846560847,3.31896296 -7.95807864e-13,2.89568254 -7.95807864e-13,2.04912169 C-7.95807864e-13,0.779280423 1.05820106,0.356 3.38624339,0.356 C12.9100529,0.356 25.6084656,0.990920635 27.3015873,0.990920635 C31.957672,0.990920635 44.2328042,0.356 53.968254,0.356 C80.4232804,0.356 89.9470899,9.24488889 93.3333333,12.4194921 C97.989418,16.8639365 103.915344,26.387746 103.915344,40.1443598 C103.915344,67.6575873 81.9047619,87.9750476 51.8518519,87.9750476 C50.7936508,87.9750476 48.4656085,87.9750476 47.4074074,87.7634074 C46.3492063,87.7634074 45.0793651,87.340127 45.0793651,86.2819259 C45.0793651,84.5888042 46.3492063,84.377164 50.7936508,84.377164 C71.3227513,84.377164 87.4074074,70.4089101 87.4074074,48.1866878 C87.4074074,42.8956825 86.7724868,28.7157884 75.5555556,17.2872169 C64.3386243,5.8586455 51.4285714,6.70520635 46.5608466,6.70520635 C42.962963,6.70520635 39.3650794,7.12848677 37.4603175,7.97504762 C36.1904762,8.39832804 35.7671958,9.87980952 35.7671958,11.9962116 L35.7671958,98.9803386 C35.7671958,119.297799 35.7671958,136.017376 36.8253968,144.906265 C37.4603175,151.043831 38.7301587,155.699915 45.0793651,156.546476 C48.042328,156.969757 52.6984127,157.393037 54.6031746,157.393037 C55.8730159,157.393037 56.2962963,158.027958 56.2962963,158.662878 C56.2962963,159.721079 55.2380952,160.356 52.9100529,160.356 C41.2698413,160.356 27.9365079,159.721079 26.8783069,159.721079 C26.2433862,159.721079 12.9100529,160.356 6.56084656,160.356 C4.23280423,160.356 3.17460317,159.93272 3.17460317,158.662878 C3.17460317,158.027958 3.5978836,157.393037 4.86772487,157.393037 C6.77248677,157.393037 9.31216931,156.969757 11.2169312,156.546476 C15.4497354,155.699915 16.5079365,151.043831 17.3544974,144.906265 C18.4126984,136.017376 18.4126984,119.297799 18.4126984,98.9803386 Z M139.830688,61.7316614 L139.830688,75.2766349 C146.391534,68.9274286 175.174603,38.6628783 188.084656,25.329545 C200.783069,12.2078519 201.62963,10.0914497 201.62963,7.5517672 C201.62963,5.8586455 200.571429,4.16552381 198.878307,3.53060317 C197.396825,2.89568254 196.973545,2.47240212 196.973545,1.62584127 C196.973545,0.779280423 198.243386,0.356 200.148148,0.356 C206.285714,0.356 205.650794,0.990920635 212.846561,0.990920635 C219.407407,0.990920635 231.89418,0.356 235.280423,0.356 C238.243386,0.356 238.878307,0.990920635 238.878307,1.83748148 C238.878307,2.68404233 238.455026,3.10732275 236.550265,3.31896296 C232.529101,3.74224339 228.719577,4.58880423 225.756614,5.8586455 C220.465608,7.97504762 216.444444,10.5147302 203.746032,22.7898624 C185.121693,40.7792804 160.994709,64.6946243 155.492063,70.8321905 C168.825397,85.4353651 207.343915,124.588804 217.291005,133.900974 C234.645503,150.19727 242.05291,154.853354 252.21164,156.758116 C254.116402,157.181397 256.232804,157.393037 258.349206,157.393037 C260.042328,157.393037 261.312169,157.816317 261.312169,158.874519 C261.312169,159.93272 260.465608,160.356 258.137566,160.356 L242.47619,160.356 C224.063492,160.356 219.195767,158.027958 209.248677,150.19727 C196.550265,140.25018 158.455026,99.403619 139.830688,77.1813968 L139.830688,98.9803386 C139.830688,119.297799 139.830688,136.017376 140.888889,144.906265 C141.52381,151.043831 142.793651,155.699915 149.142857,156.546476 C152.10582,156.969757 156.338624,157.393037 157.608466,157.393037 C159.513228,157.393037 160.148148,158.239598 160.148148,158.874519 C160.148148,159.93272 159.301587,160.356 156.973545,160.356 C145.333333,160.356 132,159.721079 130.941799,159.721079 C129.883598,159.721079 117.396825,160.356 111.047619,160.356 C108.719577,160.356 107.661376,160.14436 107.661376,158.874519 C107.661376,158.239598 108.084656,157.393037 109.989418,157.393037 C111.259259,157.393037 113.587302,157.181397 115.492063,156.758116 C119.724868,155.911556 120.994709,151.043831 121.84127,144.906265 C122.899471,136.017376 122.899471,119.297799 122.899471,98.9803386 L122.899471,61.7316614 C122.899471,28.7157884 122.899471,22.7898624 122.47619,16.0173757 C122.05291,8.82160847 119.936508,5.22372487 115.280423,4.16552381 C112.952381,3.53060317 109.142857,3.31896296 107.661376,3.31896296 C105.968254,3.31896296 105.333333,2.89568254 105.333333,2.04912169 C105.333333,0.779280423 106.391534,0.356 108.719577,0.356 C115.703704,0.356 129.883598,0.990920635 130.941799,0.990920635 C132,0.990920635 145.333333,0.356 151.68254,0.356 C154.010582,0.356 155.068783,0.779280423 155.068783,1.83748148 C155.068783,2.68404233 154.645503,3.10732275 152.740741,3.31896296 C150.412698,3.53060317 150.201058,3.53060317 148.084656,3.74224339 C142.37037,4.37716402 140.677249,8.60996825 140.253968,16.0173757 C139.830688,22.7898624 139.830688,28.7157884 139.830688,61.7316614 Z M269.079365,98.9803386 L269.079365,61.7316614 C269.079365,28.7157884 269.079365,22.7898624 268.656085,16.0173757 C268.232804,8.82160847 266.539683,5.43536508 259.555556,3.9538836 C257.862434,3.53060317 254.26455,3.31896296 252.359788,3.31896296 C251.513228,3.31896296 250.666667,2.89568254 250.666667,2.04912169 C250.666667,0.779280423 251.724868,0.356 254.05291,0.356 C263.57672,0.356 276.275132,0.990920635 277.968254,0.990920635 C282.624339,0.990920635 294.899471,0.356 304.634921,0.356 C331.089947,0.356 340.613757,9.24488889 344,12.4194921 C348.656085,16.8639365 354.582011,26.387746 354.582011,40.1443598 C354.582011,67.6575873 332.571429,87.9750476 302.518519,87.9750476 C301.460317,87.9750476 299.132275,87.9750476 298.074074,87.7634074 C297.015873,87.7634074 295.746032,87.340127 295.746032,86.2819259 C295.746032,84.5888042 297.015873,84.377164 301.460317,84.377164 C321.989418,84.377164 338.074074,70.4089101 338.074074,48.1866878 C338.074074,42.8956825 337.439153,28.7157884 326.222222,17.2872169 C315.005291,5.8586455 302.095238,6.70520635 297.227513,6.70520635 C293.62963,6.70520635 290.031746,7.12848677 288.126984,7.97504762 C286.857143,8.39832804 286.433862,9.87980952 286.433862,11.9962116 L286.433862,98.9803386 C286.433862,119.297799 286.433862,136.017376 287.492063,144.906265 C288.126984,151.043831 289.396825,155.699915 295.746032,156.546476 C298.708995,156.969757 303.365079,157.393037 305.269841,157.393037 C306.539683,157.393037 306.962963,158.027958 306.962963,158.662878 C306.962963,159.721079 305.904762,160.356 303.57672,160.356 C291.936508,160.356 278.603175,159.721079 277.544974,159.721079 C276.910053,159.721079 263.57672,160.356 257.227513,160.356 C254.899471,160.356 253.84127,159.93272 253.84127,158.662878 C253.84127,158.027958 254.26455,157.393037 255.534392,157.393037 C257.439153,157.393037 259.978836,156.969757 261.883598,156.546476 C266.116402,155.699915 267.174603,151.043831 268.021164,144.906265 C269.079365,136.017376 269.079365,119.297799 269.079365,98.9803386 Z" id="PKP"></path>
                <path d="M388.123652,24.4422177 L388.123652,15.4561083 C388.123652,7.18888757 388.123652,6.11055443 388.003838,4.49305473 C387.884023,2.93546242 387.404764,1.97694408 385.727356,1.6174997 C385.308005,1.55759231 384.349486,1.49768491 383.870227,1.49768491 C383.750412,1.49768491 383.510783,1.37787012 383.510783,1.19814793 C383.510783,0.83870355 383.81032,0.718888757 384.349486,0.718888757 C386.925504,0.718888757 390.220411,0.898610946 390.579856,0.898610946 C391.837911,0.898610946 394.893188,0.718888757 397.349391,0.718888757 C403.939205,0.718888757 406.335501,2.87555503 407.174204,3.59444378 C408.312445,4.61286952 409.81013,6.94925798 409.81013,10.3040722 C409.81013,16.9537932 404.298649,21.8062923 396.810225,21.8062923 C396.570595,21.8062923 395.971521,21.8062923 395.671984,21.7463849 C395.432355,21.7463849 395.132818,21.6265701 395.132818,21.3869405 C395.132818,20.9076813 395.492262,20.9076813 396.630503,20.9076813 C401.363187,20.9076813 405.317075,17.6726819 405.317075,12.4008311 C405.317075,11.6220349 405.496797,8.02759112 402.741057,5.15203609 C399.805595,2.03685148 396.390873,2.33638846 395.31254,2.33638846 C394.533744,2.33638846 393.635133,2.45620325 393.275688,2.63592544 C392.976151,2.75574024 392.916244,3.17509201 392.916244,3.59444378 L392.916244,24.3224029 C392.916244,28.9352725 392.916244,33.248605 393.155874,35.4052713 C393.335596,36.8430488 393.635133,38.0411967 395.252633,38.2209189 C395.971521,38.3407337 397.169669,38.4605485 397.648928,38.4605485 C397.888558,38.4605485 398.008373,38.5803633 398.008373,38.7600855 C398.008373,39.0596225 397.768743,39.2393447 397.169669,39.2393447 C394.054485,39.2393447 390.69967,39.0596225 390.400133,39.0596225 C390.340226,39.0596225 386.80569,39.2393447 385.128283,39.2393447 C384.589116,39.2393447 384.289579,39.1195299 384.289579,38.7600855 C384.289579,38.5803633 384.409394,38.4605485 384.708931,38.4605485 C385.128283,38.4605485 385.787264,38.3407337 386.266523,38.2209189 C387.344856,38.0411967 387.644393,36.8430488 387.824115,35.4052713 C388.123652,33.248605 388.123652,28.9352725 388.123652,24.4422177 Z M430.325314,15.4561083 L430.325314,22.5850884 C430.325314,29.8937908 431.703185,33.0089754 433.979666,35.0458269 C436.555684,37.322308 439.431239,37.8015671 441.887442,37.8015671 C445.002627,37.8015671 447.818274,36.9628636 450.094755,34.3269381 C452.491051,31.5711979 453.030218,27.0182358 453.030218,21.8062923 L453.030218,15.4561083 C453.030218,7.60823934 453.030218,6.23036923 452.910403,4.61286952 C452.790588,2.87555503 452.610866,1.97694408 450.693829,1.6774071 C450.274477,1.6174997 449.555589,1.55759231 449.016422,1.55759231 C448.656978,1.55759231 448.417348,1.37787012 448.417348,1.19814793 C448.417348,0.83870355 448.716885,0.718888757 449.256052,0.718888757 C451.83207,0.718888757 454.82744,0.898610946 455.067069,0.898610946 C455.366606,0.898610946 457.942624,0.718888757 459.620031,0.718888757 C460.219105,0.718888757 460.458735,0.83870355 460.458735,1.13824053 C460.458735,1.37787012 460.219105,1.55759231 459.859661,1.55759231 C459.500216,1.55759231 459.380402,1.55759231 458.781328,1.6174997 C457.103921,1.79722189 456.864291,2.87555503 456.744476,4.61286952 C456.684569,6.23036923 456.684569,7.60823934 456.684569,15.4561083 L456.684569,20.7878666 C456.684569,26.1795322 456.085495,32.649531 451.83207,36.3038822 C447.938089,39.598789 444.104016,39.898326 440.869016,39.898326 C439.191609,39.898326 433.560314,39.898326 429.666333,36.3038822 C427.090315,33.9075864 425.233186,30.3131426 425.233186,22.8846254 L425.233186,15.4561083 C425.233186,7.54833195 425.233186,6.17046183 425.053464,4.55296213 C424.993556,2.93546242 424.694019,1.91703669 422.83689,1.6774071 C422.477446,1.6174997 421.758557,1.55759231 421.279298,1.55759231 C420.859946,1.55759231 420.620316,1.37787012 420.620316,1.19814793 C420.620316,0.83870355 420.859946,0.718888757 421.518927,0.718888757 C424.094945,0.718888757 427.329945,0.898610946 427.749296,0.898610946 C428.228556,0.898610946 431.763092,0.718888757 433.380592,0.718888757 C434.039573,0.718888757 434.219295,0.83870355 434.219295,1.13824053 C434.219295,1.43777751 433.799943,1.55759231 433.500406,1.55759231 C433.140962,1.55759231 432.661703,1.6174997 432.182444,1.6774071 C430.744666,1.85712929 430.505037,2.87555503 430.385222,4.55296213 C430.325314,6.17046183 430.325314,7.54833195 430.325314,15.4561083 Z M476.0925,24.4422177 L476.0925,15.4561083 C476.0925,7.60823934 476.0925,6.11055443 475.972685,4.49305473 C475.85287,2.87555503 475.433518,2.03685148 473.636296,1.6774071 C473.157037,1.6174997 472.318334,1.55759231 472.198519,1.55759231 C471.659352,1.55759231 471.419723,1.37787012 471.419723,1.13824053 C471.419723,0.83870355 471.779167,0.718888757 472.318334,0.718888757 C474.834444,0.718888757 478.428888,0.898610946 478.548703,0.898610946 C479.98648,0.898610946 481.963424,0.718888757 484.299813,0.718888757 C493.285922,0.718888757 495.083144,5.69120266 495.083144,8.26722071 C495.083144,12.700368 492.567034,15.5160157 490.050923,17.4929598 C494.064718,18.6911077 499.216755,22.3454589 499.216755,28.2163837 C499.216755,33.7877716 494.7237,39.3591594 485.617776,39.3591594 C484.659257,39.3591594 483.461109,39.2393447 481.903517,39.2393447 C480.22611,39.1195299 478.788332,39.0596225 478.548703,39.0596225 C476.691573,39.0596225 475.133981,39.2393447 473.157037,39.2393447 C472.617871,39.2393447 472.318334,39.1195299 472.318334,38.8799003 C472.318334,38.7001781 472.378241,38.4006411 473.157037,38.4006411 C473.576389,38.4006411 473.756111,38.4006411 474.23537,38.2808263 C475.253796,38.1011041 475.61324,36.8430488 475.792963,35.4052713 C476.0925,33.1886976 476.0925,29.1149947 476.0925,24.4422177 Z M480.765276,3.17509201 L480.765276,16.5344414 C480.765276,16.9537932 480.885091,17.0137006 481.064813,17.1335154 C481.424258,17.1934228 482.083239,17.3132376 484.060183,17.3132376 C487.11546,17.3132376 488.014071,17.1335154 489.152312,15.87546 C490.11083,14.7372195 490.709904,13.0598124 490.709904,11.0828683 C490.709904,6.94925798 488.852775,2.33638846 483.760646,2.33638846 C483.281387,2.33638846 482.023332,2.45620325 481.484165,2.63592544 C480.944999,2.75574024 480.765276,2.87555503 480.765276,3.17509201 Z M480.765276,19.350089 L480.765276,21.6864775 C480.765276,25.4606435 480.765276,32.0504571 480.825184,32.5297163 C481.004906,35.1656417 480.944999,35.9444378 482.742221,36.723234 C484.179998,37.4421228 486.576294,37.5020302 487.175368,37.5020302 C489.751386,37.5020302 494.244441,36.2439748 494.244441,30.7324944 C494.244441,27.6772171 493.166108,23.0643476 489.092405,20.3086074 C487.295183,19.2302742 486.21685,19.1104595 485.018702,18.9906447 C484.000276,18.8708299 481.903517,18.8708299 481.064813,18.9906447 C480.885091,18.9906447 480.765276,19.0505521 480.765276,19.350089 Z M519.494375,15.4561083 L519.494375,24.5620325 C519.494375,31.4513831 519.734005,34.9260121 520.752431,35.8845305 C521.710949,36.723234 522.909097,37.0826784 527.042707,37.0826784 C529.678633,37.0826784 532.074929,37.0826784 533.392891,35.4052713 C533.991965,34.5066603 534.411317,33.3085124 534.531132,32.4099015 C534.591039,31.9306423 534.710854,31.6910127 535.010391,31.6910127 C535.250021,31.6910127 535.369835,31.8707349 535.369835,32.4698089 C535.369835,33.0688828 535.010391,36.4836044 534.650947,37.8614745 C534.291502,39.0596225 534.35141,39.3591594 531.475855,39.3591594 C527.402152,39.3591594 522.909097,39.0596225 516.918357,39.0596225 C514.941413,39.0596225 513.743265,39.2393447 511.646506,39.2393447 C511.047432,39.2393447 510.687988,39.1195299 510.687988,38.7600855 C510.687988,38.5803633 510.86771,38.4006411 511.346969,38.4006411 C511.826229,38.4006411 512.305488,38.4006411 512.784747,38.2808263 C513.803173,38.1011041 514.162617,36.9029562 514.342339,35.4651787 C514.701784,33.1886976 514.581969,29.0550873 514.581969,24.4422177 L514.581969,15.4561083 C514.581969,7.54833195 514.581969,6.23036923 514.462154,4.61286952 C514.342339,2.93546242 514.10271,1.85712929 512.065858,1.6174997 C511.706414,1.55759231 511.047432,1.55759231 510.568173,1.55759231 C510.148822,1.55759231 509.909192,1.37787012 509.909192,1.13824053 C509.909192,0.83870355 510.208729,0.718888757 510.807803,0.718888757 C513.323914,0.718888757 516.918357,0.898610946 517.038172,0.898610946 C517.876876,0.898610946 521.531227,0.718888757 523.208634,0.718888757 C523.807708,0.718888757 523.98743,0.898610946 523.98743,1.13824053 C523.98743,1.37787012 523.687893,1.55759231 523.328449,1.55759231 C522.909097,1.55759231 522.310023,1.6174997 521.710949,1.6774071 C520.033542,1.91703669 519.674098,2.87555503 519.554283,4.61286952 C519.434468,6.23036923 519.494375,7.54833195 519.494375,15.4561083 Z M551.137875,24.4422177 L551.137875,15.4561083 C551.137875,7.54833195 551.137875,6.11055443 551.01806,4.49305473 C550.898246,2.87555503 550.538801,1.97694408 549.280746,1.7373145 C548.681672,1.6174997 548.26232,1.6174997 547.902876,1.55759231 C547.483524,1.49768491 547.243895,1.37787012 547.243895,1.13824053 C547.243895,0.83870355 547.483524,0.718888757 548.142505,0.718888757 C549.999635,0.718888757 553.414356,0.898610946 553.594079,0.898610946 C553.833708,0.898610946 557.308337,0.718888757 558.985744,0.718888757 C559.584818,0.718888757 559.884355,0.83870355 559.884355,1.13824053 C559.884355,1.37787012 559.704633,1.49768491 559.225374,1.55759231 C558.865929,1.6174997 558.566392,1.6174997 558.147041,1.6774071 C556.409726,1.91703669 556.230004,2.81564763 556.110189,4.55296213 C555.990374,6.17046183 556.050282,7.54833195 556.050282,15.4561083 L556.050282,24.4422177 C556.050282,29.0550873 555.990374,33.248605 556.289911,35.4052713 C556.529541,37.1425858 556.769171,37.8015671 558.326763,38.1610115 C559.105559,38.3407337 560.363614,38.4006411 560.603244,38.4006411 C561.14241,38.4605485 561.262225,38.5803633 561.262225,38.8199929 C561.262225,39.0596225 561.022596,39.2393447 560.423522,39.2393447 C557.368245,39.2393447 553.893616,39.0596225 553.594079,39.0596225 C553.414356,39.0596225 549.87982,39.2393447 548.202413,39.2393447 C547.663246,39.2393447 547.243895,39.1195299 547.243895,38.8199929 C547.243895,38.5803633 547.483524,38.4006411 548.022691,38.4006411 C548.322228,38.4006411 548.981209,38.3407337 549.460468,38.2209189 C550.478894,37.9812893 550.658616,36.7831414 550.838338,35.3453639 C551.137875,33.1886976 551.137875,28.9352725 551.137875,24.4422177 Z M597.758224,39.898326 C589.850448,39.898326 584.458782,38.1011041 580.205357,34.4467529 C575.113228,30.0136056 573.795266,24.1426808 573.795266,19.1703669 C573.795266,15.8155527 575.113228,9.88472041 579.845913,5.33175828 C583.080912,2.21657367 587.933411,2.98427949e-13 595.961002,2.98427949e-13 C598.716743,2.98427949e-13 600.933316,0.239629586 603.868779,0.658981361 C605.785815,0.958518343 607.702852,1.25805532 609.14063,1.31796272 C609.619889,1.31796272 609.679796,1.6174997 609.679796,1.91703669 C609.679796,2.39629586 609.500074,2.93546242 609.380259,4.85249911 C609.320352,6.52990621 609.320352,9.64509082 609.260444,10.3639796 C609.200537,11.2026831 609.080722,11.5022201 608.781185,11.5022201 C608.361833,11.5022201 608.301926,11.1427757 608.301926,10.3639796 C608.301926,8.62666508 607.463223,6.29027662 605.965538,5.15203609 C604.168316,3.59444378 599.974798,2.09675887 595.361928,2.09675887 C588.712207,2.09675887 585.65693,3.95388816 583.859708,5.57138787 C579.965728,9.10592426 579.067117,13.4192568 579.067117,18.6911077 C579.067117,28.6357355 587.154615,37.3822154 597.698317,37.3822154 C601.77202,37.3822154 604.76739,36.9628636 606.864149,34.9260121 C607.942482,33.7877716 608.541556,32.2900867 608.841093,30.6126796 C608.960907,30.0136056 609.14063,29.7140686 609.500074,29.7140686 C609.799611,29.7140686 609.799611,30.1334204 609.799611,30.5527722 C609.799611,31.0320313 609.020815,35.8845305 608.601463,37.2024932 C608.242019,38.1610115 608.062297,38.3407337 607.223593,38.7001781 C605.126834,39.598789 601.113039,39.898326 597.758224,39.898326 Z M392.976151,76.3963908 L392.976151,79.2120385 C395.731892,76.7558352 402.261798,70.525466 404.957631,67.5900036 C407.833186,64.4149116 408.072815,64.1153746 408.072815,63.4563932 C408.072815,63.0370414 407.833186,62.7375045 407.114297,62.4978749 C406.694945,62.3780601 406.455316,62.2582453 406.455316,62.0186157 C406.455316,61.8388935 406.57513,61.6591713 407.05439,61.6591713 C407.413834,61.6591713 409.211056,61.8388935 411.128093,61.8388935 C412.925314,61.8388935 416.220221,61.6591713 416.999017,61.6591713 C417.837721,61.6591713 417.957536,61.7789861 417.957536,62.0186157 C417.957536,62.2582453 417.777814,62.4379675 417.298554,62.4978749 C416.340036,62.5577823 415.081981,62.7974118 414.363092,63.0969488 C412.925314,63.576208 412.146518,64.2351894 409.031334,67.050837 C404.658094,71.0047252 399.44615,76.0968539 396.810225,78.4931497 C400.045224,81.8479639 409.750222,91.4331473 412.266333,93.7096284 C416.459851,97.5437018 418.496702,98.6220349 420.892998,99.1612015 C421.55198,99.2810163 421.252443,99.2211089 422.270868,99.3409237 C422.810035,99.4008311 423.109572,99.5206459 423.109572,99.8201828 C423.109572,100.059812 422.810035,100.179627 422.151053,100.179627 L418.257073,100.179627 C413.584296,100.179627 412.386148,99.6404606 409.989852,97.9630535 C407.294019,96.0460169 397.708836,86.2212038 392.976151,80.649816 L392.976151,85.3825003 C392.976151,89.9953698 392.916244,94.1888876 393.215781,96.3455538 C393.455411,98.0828683 393.69504,98.7418497 395.252633,99.1012941 C396.031429,99.2810163 397.289484,99.3409237 397.529114,99.3409237 C398.06828,99.4008311 398.188095,99.5206459 398.188095,99.7602754 C398.188095,99.999905 397.948465,100.179627 397.349391,100.179627 C394.294114,100.179627 390.819485,99.999905 390.519948,99.999905 C390.340226,99.999905 386.80569,100.179627 385.128283,100.179627 C384.589116,100.179627 384.169764,100.059812 384.169764,99.7602754 C384.169764,99.5206459 384.409394,99.3409237 384.94856,99.3409237 C385.248097,99.3409237 385.907079,99.2810163 386.386338,99.1612015 C387.404764,98.9215719 387.584486,97.723424 387.764208,96.2856464 C388.063745,94.1289802 388.063745,89.875555 388.063745,85.3825003 L388.063745,76.3963908 C388.063745,68.4886145 388.063745,67.050837 387.94393,65.4333373 C387.824115,63.8158376 387.464671,62.9172266 386.206616,62.6775971 C385.607542,62.5577823 385.18819,62.5577823 384.828746,62.4978749 C384.409394,62.4379675 384.169764,62.3181527 384.169764,62.0785231 C384.169764,61.7789861 384.409394,61.6591713 385.068375,61.6591713 C386.925504,61.6591713 390.340226,61.8388935 390.519948,61.8388935 C390.759578,61.8388935 394.234207,61.6591713 395.911614,61.6591713 C396.510688,61.6591713 396.810225,61.7789861 396.810225,62.0785231 C396.810225,62.3181527 396.630503,62.4379675 396.151243,62.4978749 C395.791799,62.5577823 395.492262,62.5577823 395.07291,62.6176897 C393.335596,62.8573192 393.155874,63.7559302 393.036059,65.4932447 C392.916244,67.1107444 392.976151,68.4886145 392.976151,76.3963908 Z M427.662534,92.6912027 C427.662534,64.1153746 427.722441,73.3411136 427.662534,63.3964858 C427.662534,61.5393565 427.842256,60.9402826 428.321515,60.9402826 C428.740867,60.9402826 429.759293,62.1384305 430.178645,62.5577823 C430.717811,63.1568562 439.044939,71.6637065 447.431975,80.2304642 C452.104752,84.7834263 458.095491,90.9538882 459.653084,92.3916657 L458.994102,67.4701888 C458.934195,64.2351894 458.574751,63.1568562 456.957251,62.7375045 C455.938825,62.5577823 455.040214,62.4978749 454.620862,62.4978749 C454.021788,62.4978749 453.901974,62.2582453 453.901974,62.0186157 C453.901974,61.7190787 454.381233,61.6591713 454.980307,61.6591713 C457.556325,61.6591713 460.072435,61.8388935 460.611602,61.8388935 C461.210676,61.8388935 463.067805,61.6591713 465.404194,61.6591713 C466.063175,61.6591713 466.242897,61.7190787 466.242897,62.0186157 C466.242897,62.2582453 466.063175,62.4379675 465.703731,62.4978749 C465.344286,62.5577823 464.865027,62.5577823 464.206046,62.6775971 C462.828176,62.977134 462.408824,63.576208 462.408824,67.1706518 L462.289009,97.2441648 C462.289009,100.239535 462.169194,100.539072 461.749843,100.539072 C461.330491,100.539072 460.731417,100.11972 457.795954,97.3639796 C457.556325,97.2441648 449.229197,88.9769441 444.017253,83.8848154 C437.786884,77.4148166 431.796144,71.1844473 430.298459,69.626855 L431.077256,93.050647 C431.19707,97.1842574 431.556515,98.7418497 433.0542,99.1012941 C434.012718,99.3409237 435.031144,99.3409237 435.510403,99.3409237 C435.989662,99.3409237 436.229292,99.5206459 436.229292,99.7602754 C436.229292,100.059812 435.929755,100.179627 435.270773,100.179627 C432.035774,100.179627 429.879108,99.999905 429.459756,99.999905 C429.040404,99.999905 426.82383,100.179627 424.247812,100.179627 C423.708646,100.179627 423.349201,100.11972 423.349201,99.7602754 C423.349201,99.5206459 423.588831,99.3409237 424.187905,99.3409237 C424.607257,99.3409237 425.266238,99.3409237 426.045034,99.1012941 C427.362997,98.6819423 427.662534,97.0644426 427.662534,92.6912027 Z M494.219651,100.838609 C479.542339,100.838609 473.5516,89.9354624 473.5516,80.8295382 C473.5516,72.8618544 479.722061,60.9402826 494.519188,60.9402826 C506.380853,60.9402826 515.42687,68.0093553 515.42687,80.050742 C515.42687,91.4930547 506.979927,100.838609 494.219651,100.838609 Z M495.717336,98.8017571 C499.731132,98.8017571 509.795574,96.7649056 509.795574,81.5484269 C509.795574,69.5070402 502.367057,62.7974118 494.159744,62.7974118 C485.832616,62.7974118 479.122987,67.9494479 479.122987,79.2719459 C479.122987,91.0137956 485.652894,98.8017571 495.717336,98.8017571 Z M533.039644,96.2856464 L523.813905,66.7513 C522.975202,64.1153746 522.55585,63.2167636 520.878443,62.7375045 C520.219461,62.5577823 519.141128,62.4978749 518.721777,62.4978749 C518.42224,62.4978749 518.002888,62.3780601 518.002888,62.0186157 C518.002888,61.7789861 518.302425,61.6591713 518.901499,61.6591713 C522.016683,61.6591713 524.772424,61.8388935 525.371498,61.8388935 C525.790849,61.8388935 528.426775,61.6591713 531.242422,61.6591713 C531.961311,61.6591713 532.081126,61.8988009 532.081126,62.0785231 C532.081126,62.4379675 531.721682,62.5577823 531.242422,62.5577823 C530.823071,62.5577823 529.984367,62.5577823 529.325386,62.7974118 C528.786219,62.977134 528.726312,63.4563932 528.726312,64.0554672 C528.726312,64.7144485 529.205571,66.3918556 529.744737,68.6683367 C530.523534,71.9033361 535.67557,89.6958328 536.574181,92.5713879 L547.657049,64.4149116 C548.495753,62.1384305 548.79529,61.8388935 549.094826,61.8388935 C549.514178,61.8388935 549.813715,62.5577823 550.532604,64.4748189 L561.136213,92.6312953 C562.573991,87.7188888 567.606212,72.5024101 569.223712,66.5715778 C569.643063,65.0139855 569.702971,64.7144485 569.702971,64.0554672 C569.702971,63.1568562 569.403434,62.4978749 566.827416,62.4978749 C566.288249,62.4978749 566.04862,62.2582453 566.04862,62.0186157 C566.04862,61.7789861 566.288249,61.6591713 566.947231,61.6591713 C569.163804,61.6591713 571.5601,61.8388935 571.979452,61.8388935 C572.338896,61.8388935 575.274359,61.6591713 576.891858,61.6591713 C577.371118,61.6591713 577.610747,61.8388935 577.610747,62.0186157 C577.610747,62.3181527 577.31121,62.4978749 576.831951,62.4978749 C576.652229,62.4978749 575.873433,62.5577823 575.274359,62.6775971 C573.477137,63.0969488 572.878063,65.6130595 571.919545,68.3088923 C569.583156,74.7788911 564.251398,90.8340734 562.454176,95.8063873 C560.896584,99.999905 560.477232,100.838609 559.997973,100.838609 C559.398899,100.838609 559.039454,99.999905 558.260658,97.7833314 L547.956586,70.4655586 C546.039549,75.1383355 538.790754,93.2303692 536.993532,97.7833314 C536.094921,100.11972 535.67557,100.838609 535.136403,100.838609 C534.537329,100.838609 534.237792,100.059812 533.039644,96.2856464 Z M590.850282,76.3963908 L590.850282,85.5023151 C590.850282,92.3916657 591.089911,95.8662947 592.108337,96.824813 C593.066855,97.6635166 594.265003,98.0229609 598.398614,98.0229609 C601.034539,98.0229609 603.430835,98.0229609 604.748798,96.3455538 C605.347872,95.4469429 605.767224,94.248795 605.887038,93.350184 C605.946946,92.8709248 606.06676,92.6312953 606.366297,92.6312953 C606.605927,92.6312953 606.725742,92.8110175 606.725742,93.4100914 C606.725742,94.0091654 606.366297,97.423887 606.006853,98.8017571 C605.647409,99.999905 605.707316,100.299442 602.831761,100.299442 C598.758058,100.299442 594.265003,99.999905 588.274264,99.999905 C586.29732,99.999905 585.099172,100.179627 583.002413,100.179627 C582.403339,100.179627 582.043895,100.059812 582.043895,99.700368 C582.043895,99.5206459 582.223617,99.3409237 582.702876,99.3409237 C583.182135,99.3409237 583.661394,99.3409237 584.140653,99.2211089 C585.159079,99.0413867 585.518524,97.8432388 585.698246,96.4054612 C586.05769,94.1289802 585.937875,89.9953698 585.937875,85.3825003 L585.937875,76.3963908 C585.937875,68.4886145 585.937875,67.1706518 585.81806,65.5531521 C585.698246,63.875745 585.458616,62.7974118 583.421765,62.5577823 C583.06232,62.4978749 582.403339,62.4978749 581.92408,62.4978749 C581.504728,62.4978749 581.265098,62.3181527 581.265098,62.0785231 C581.265098,61.7789861 581.564635,61.6591713 582.163709,61.6591713 C584.67982,61.6591713 588.274264,61.8388935 588.394079,61.8388935 C589.232782,61.8388935 592.887133,61.6591713 594.56454,61.6591713 C595.163614,61.6591713 595.343337,61.8388935 595.343337,62.0785231 C595.343337,62.3181527 595.0438,62.4978749 594.684355,62.4978749 C594.265003,62.4978749 593.665929,62.5577823 593.066855,62.6176897 C591.389448,62.8573192 591.030004,63.8158376 590.910189,65.5531521 C590.790374,67.1706518 590.850282,68.4886145 590.850282,76.3963908 Z M617.329351,85.3825003 L617.329351,76.3963908 C617.329351,68.5485219 617.329351,67.1107444 617.209536,65.4932447 C617.089721,63.8158376 616.67037,62.977134 614.933055,62.6176897 C614.573611,62.5577823 613.974537,62.4978749 613.495278,62.4978749 C613.075926,62.4978749 612.716481,62.3181527 612.716481,62.1384305 C612.716481,61.7789861 613.016018,61.6591713 613.615092,61.6591713 C614.81324,61.6591713 616.43074,61.7789861 619.785554,61.8388935 C620.085091,61.8388935 630.748608,61.8388935 631.946756,61.7789861 C633.144904,61.7190787 633.803885,61.6591713 634.283144,61.4794491 C634.642589,61.3596343 634.702496,61.2997269 634.942126,61.2997269 C635.06194,61.2997269 635.181755,61.4195417 635.181755,61.7190787 C635.181755,62.0785231 634.822311,62.9172266 634.702496,64.4149116 C634.642589,65.4333373 634.582681,66.3918556 634.522774,67.5300962 C634.522774,68.0692627 634.402959,68.4287071 634.103422,68.4287071 C633.803885,68.4287071 633.68407,68.1890775 633.68407,67.7697258 C633.624163,66.8711148 633.444441,66.2720408 633.264718,65.8526891 C632.905274,64.6545411 632.366108,64.2351894 629.370738,64.0554672 C628.591942,63.9955598 622.661109,63.9356524 622.541294,63.9356524 C622.361572,63.9356524 622.241758,64.0554672 622.241758,64.4149116 L622.241758,78.0138905 C622.241758,78.3733349 622.301665,78.6129645 622.601202,78.6129645 C623.320091,78.6129645 629.430645,78.5530571 630.6887,78.4332423 C632.066571,78.3733349 632.965181,78.1936127 633.444441,77.5346314 C633.68407,77.175187 633.863792,77.0553722 634.103422,77.0553722 C634.223237,77.0553722 634.343052,77.1152796 634.343052,77.4148166 C634.343052,77.7143536 634.103422,78.8525941 633.9237,80.5899086 C633.743978,82.2673157 633.743978,83.4654636 633.68407,84.2442598 C633.624163,84.7235189 633.504348,84.9032411 633.264718,84.9032411 C632.965181,84.9032411 632.905274,84.5437967 632.905274,84.124445 C632.905274,83.7650006 632.845367,83.1659266 632.725552,82.6866675 C632.485922,81.9078713 632.126478,81.0691678 629.849997,80.8894456 C628.472127,80.7696308 623.619628,80.649816 622.661109,80.649816 C622.301665,80.649816 622.241758,80.8295382 622.241758,81.0691678 L622.241758,85.4424077 C622.241758,87.299537 622.18185,92.5713879 622.241758,93.5898136 C622.361572,95.8063873 622.661109,96.9446278 623.919165,97.4837944 C624.817776,97.9031461 626.255553,98.0229609 628.292405,98.0229609 C629.430645,98.0229609 631.347682,98.0828683 632.845367,97.6635166 C634.642589,97.12435 635.06194,95.9262021 635.5412,93.7096284 C635.661014,93.1105544 635.840737,92.8709248 636.080366,92.8709248 C636.43981,92.8709248 636.43981,93.4100914 636.43981,93.7695358 C636.43981,94.1888876 635.960551,97.9630535 635.780829,98.9814793 C635.5412,100.179627 635.121848,100.299442 633.144904,100.299442 C629.191016,100.299442 627.513608,100.179627 625.41685,100.179627 C623.320091,100.11972 620.56435,99.999905 618.347777,99.999905 C616.969907,99.999905 615.831666,100.179627 614.393889,100.179627 C613.854722,100.179627 613.555185,100.059812 613.555185,99.7602754 C613.555185,99.5206459 613.794815,99.3409237 614.094352,99.3409237 C614.453796,99.3409237 614.873148,99.2810163 615.2925,99.1612015 C616.370833,98.9215719 617.089721,98.1427757 617.209536,94.4285172 C617.269444,92.3916657 617.329351,89.9354624 617.329351,85.3825003 Z M649.79916,85.2626855 L649.79916,76.3963908 C649.79916,68.4886145 649.79916,66.9909296 649.679345,65.4333373 C649.55953,63.8158376 649.080271,62.977134 647.342957,62.6176897 C646.983512,62.5577823 646.084901,62.4978749 645.605642,62.4978749 C645.306105,62.4978749 645.006568,62.3181527 645.006568,62.1384305 C645.006568,61.7789861 645.366013,61.6591713 645.905179,61.6591713 C648.361382,61.6591713 652.135548,61.8388935 652.315271,61.8388935 C652.734622,61.8388935 655.849807,61.6591713 659.204621,61.6591713 C664.476472,61.6591713 674.301285,61.1200047 680.651469,67.5300962 C683.287394,70.1660216 685.743598,74.3595394 685.743598,80.4101864 C685.743598,86.7603704 682.987857,91.7326843 680.052395,94.7280541 C677.716007,97.0644426 673.163044,100.598979 664.05712,100.598979 C661.780639,100.598979 658.845177,100.479164 656.568696,100.299442 C654.292215,100.179627 652.435085,99.999905 652.255363,99.999905 C652.135548,99.999905 651.356752,99.999905 650.218512,100.059812 C649.080271,100.059812 647.642494,100.179627 646.743883,100.179627 C646.204716,100.179627 645.905179,100.059812 645.905179,99.7602754 C645.905179,99.5805532 646.084901,99.3409237 646.56416,99.3409237 C647.04342,99.3409237 647.462771,99.2810163 647.942031,99.1612015 C648.960456,98.9814793 649.319901,97.723424 649.499623,96.4054612 C649.859067,94.1888876 649.79916,90.1151846 649.79916,85.2626855 Z M654.711566,75.4378725 L654.711566,81.4885195 C654.711566,86.8801852 654.771474,91.5529621 654.771474,92.4515731 C654.831381,94.3087024 654.951196,95.9262021 655.370548,96.4653686 C656.029529,97.4837944 657.946566,98.7418497 664.176935,98.7418497 C669.089342,98.7418497 673.522489,97.1842574 676.637673,94.0690728 C679.273599,91.4331473 680.531654,86.9400926 680.531654,82.1475009 C680.531654,75.3779651 677.41647,71.2443547 675.379618,69.2674107 C670.287489,64.175282 664.416565,63.576208 658.485732,63.576208 C657.647029,63.576208 655.7899,63.7559302 655.430455,63.9955598 C654.951196,64.2351894 654.771474,64.4748189 654.771474,65.0139855 C654.711566,66.7513 654.711566,71.8434287 654.711566,75.4378725 Z M728.098127,90.3548142 L728.098127,95.7464799 C728.098127,98.1427757 728.03822,98.2026831 727.379238,98.5621275 C724.084331,100.239535 719.29174,100.838609 716.356277,100.838609 C712.462297,100.838609 704.913965,100.539072 698.80341,95.4469429 C695.568411,92.7511101 692.333411,87.7188888 692.333411,80.8894456 C692.333411,72.7420397 696.467022,66.9310222 701.379428,63.9955598 C705.992298,61.2997269 711.084426,60.9402826 714.738778,60.9402826 C718.572851,60.9402826 721.148869,61.4195417 723.305535,61.7789861 C724.264054,61.9587083 726.600442,62.2582453 727.858497,62.3181527 C728.337757,62.3181527 728.337757,62.5577823 728.337757,62.7974118 C728.337757,63.5163006 727.918405,65.3135225 727.918405,70.5853734 C727.918405,71.4240769 727.858497,71.6637065 727.439146,71.6637065 C727.139609,71.6637065 727.079701,71.3042621 727.019794,70.9448178 C727.019794,70.4056512 726.780164,68.5485219 725.881553,67.2305592 C724.503683,65.2536151 720.190351,63.0370414 713.480722,63.0370414 C710.245723,63.0370414 706.471557,63.1568562 702.457761,66.2121334 C699.402484,68.5485219 697.42554,73.101484 697.42554,79.0323163 C697.42554,86.1612965 701.319521,91.4331473 702.877113,92.9308322 C706.831001,96.7649056 711.264149,98.5022201 716.476092,98.5022201 C718.153499,98.5022201 720.789425,98.2026831 722.167295,97.4837944 C722.766369,97.12435 723.18572,96.525276 723.18572,95.6865725 L723.18572,87.0599074 C723.18572,83.1060192 722.886183,82.3272231 720.789425,82.0276861 C720.42998,81.9677787 719.830906,81.9078713 719.351647,81.9078713 C718.872388,81.9078713 718.632758,81.6682417 718.632758,81.4885195 C718.632758,81.1889825 718.872388,81.0691678 719.531369,81.0691678 C721.927665,81.0691678 725.402294,81.1889825 725.641924,81.1889825 C725.881553,81.1889825 729.41609,81.0691678 731.033589,81.0691678 C731.632663,81.0691678 731.872293,81.1889825 731.872293,81.4885195 C731.872293,81.6682417 731.692571,81.9078713 731.153404,81.9078713 C730.734052,81.9078713 730.614238,81.9078713 730.134978,81.9677787 C728.697201,82.1475009 728.337757,83.225834 728.217942,84.9631485 C728.098127,86.700463 728.098127,88.1981479 728.098127,90.3548142 Z M743.91368,85.3825003 L743.91368,76.3963908 C743.91368,68.5485219 743.91368,67.1107444 743.793865,65.4932447 C743.67405,63.8158376 743.254698,62.977134 741.517384,62.6176897 C741.157939,62.5577823 740.558865,62.4978749 740.079606,62.4978749 C739.660254,62.4978749 739.30081,62.3181527 739.30081,62.1384305 C739.30081,61.7789861 739.600347,61.6591713 740.199421,61.6591713 C741.397569,61.6591713 743.015069,61.7789861 746.369883,61.8388935 C746.66942,61.8388935 757.332936,61.8388935 758.531084,61.7789861 C759.729232,61.7190787 760.388214,61.6591713 760.867473,61.4794491 C761.226917,61.3596343 761.286825,61.2997269 761.526454,61.2997269 C761.646269,61.2997269 761.766084,61.4195417 761.766084,61.7190787 C761.766084,62.0785231 761.406639,62.9172266 761.286825,64.4149116 C761.226917,65.4333373 761.16701,66.3918556 761.107102,67.5300962 C761.107102,68.0692627 760.987288,68.4287071 760.687751,68.4287071 C760.388214,68.4287071 760.268399,68.1890775 760.268399,67.7697258 C760.208491,66.8711148 760.028769,66.2720408 759.849047,65.8526891 C759.489603,64.6545411 758.950436,64.2351894 755.955066,64.0554672 C755.17627,63.9955598 749.245438,63.9356524 749.125623,63.9356524 C748.945901,63.9356524 748.826086,64.0554672 748.826086,64.4149116 L748.826086,78.0138905 C748.826086,78.3733349 748.885994,78.6129645 749.185531,78.6129645 C749.904419,78.6129645 756.014974,78.5530571 757.273029,78.4332423 C758.650899,78.3733349 759.54951,78.1936127 760.028769,77.5346314 C760.268399,77.175187 760.448121,77.0553722 760.687751,77.0553722 C760.807565,77.0553722 760.92738,77.1152796 760.92738,77.4148166 C760.92738,77.7143536 760.687751,78.8525941 760.508028,80.5899086 C760.328306,82.2673157 760.328306,83.4654636 760.268399,84.2442598 C760.208491,84.7235189 760.088677,84.9032411 759.849047,84.9032411 C759.54951,84.9032411 759.489603,84.5437967 759.489603,84.124445 C759.489603,83.7650006 759.429695,83.1659266 759.309881,82.6866675 C759.070251,81.9078713 758.710807,81.0691678 756.434325,80.8894456 C755.056455,80.7696308 750.203956,80.649816 749.245438,80.649816 C748.885994,80.649816 748.826086,80.8295382 748.826086,81.0691678 L748.826086,85.4424077 C748.826086,87.299537 748.766179,92.5713879 748.826086,93.5898136 C748.945901,95.8063873 749.245438,96.9446278 750.503493,97.4837944 C751.402104,97.9031461 752.839882,98.0229609 754.876733,98.0229609 C756.014974,98.0229609 757.93201,98.0828683 759.429695,97.6635166 C761.226917,97.12435 761.646269,95.9262021 762.125528,93.7096284 C762.245343,93.1105544 762.425065,92.8709248 762.664695,92.8709248 C763.024139,92.8709248 763.024139,93.4100914 763.024139,93.7695358 C763.024139,94.1888876 762.54488,97.9630535 762.365158,98.9814793 C762.125528,100.179627 761.706176,100.299442 759.729232,100.299442 C755.775344,100.299442 754.097937,100.179627 752.001178,100.179627 C749.904419,100.11972 747.148679,99.999905 744.932105,99.999905 C743.554235,99.999905 742.415995,100.179627 740.978217,100.179627 C740.439051,100.179627 740.139514,100.059812 740.139514,99.7602754 C740.139514,99.5206459 740.379143,99.3409237 740.67868,99.3409237 C741.038125,99.3409237 741.457476,99.2810163 741.876828,99.1612015 C742.955161,98.9215719 743.67405,98.1427757 743.793865,94.4285172 C743.853772,92.3916657 743.91368,89.9354624 743.91368,85.3825003 Z M388.123652,146.322783 L388.123652,137.336673 C388.123652,129.069453 388.123652,127.99112 388.003838,126.37362 C387.884023,124.816028 387.404764,123.857509 385.727356,123.498065 C385.308005,123.438157 384.349486,123.37825 383.870227,123.37825 C383.750412,123.37825 383.510783,123.258435 383.510783,123.078713 C383.510783,122.719269 383.81032,122.599454 384.349486,122.599454 C386.925504,122.599454 390.220411,122.779176 390.579856,122.779176 C391.837911,122.779176 394.893188,122.599454 397.349391,122.599454 C403.939205,122.599454 406.335501,124.75612 407.174204,125.475009 C408.312445,126.493435 409.81013,128.829823 409.81013,132.184637 C409.81013,138.834358 404.298649,143.686857 396.810225,143.686857 C396.570595,143.686857 395.971521,143.686857 395.671984,143.62695 C395.432355,143.62695 395.132818,143.507135 395.132818,143.267506 C395.132818,142.788246 395.492262,142.788246 396.630503,142.788246 C401.363187,142.788246 405.317075,139.553247 405.317075,134.281396 C405.317075,133.5026 405.496797,129.908156 402.741057,127.032601 C399.805595,123.917417 396.390873,124.216954 395.31254,124.216954 C394.533744,124.216954 393.635133,124.336768 393.275688,124.516491 C392.976151,124.636305 392.916244,125.055657 392.916244,125.475009 L392.916244,146.202968 C392.916244,150.815838 392.916244,155.12917 393.155874,157.285836 C393.335596,158.723614 393.635133,159.921762 395.252633,160.101484 C395.971521,160.221299 397.169669,160.341114 397.648928,160.341114 C397.888558,160.341114 398.008373,160.460928 398.008373,160.640651 C398.008373,160.940188 397.768743,161.11991 397.169669,161.11991 C394.054485,161.11991 390.69967,160.940188 390.400133,160.940188 C390.340226,160.940188 386.80569,161.11991 385.128283,161.11991 C384.589116,161.11991 384.289579,161.000095 384.289579,160.640651 C384.289579,160.460928 384.409394,160.341114 384.708931,160.341114 C385.128283,160.341114 385.787264,160.221299 386.266523,160.101484 C387.344856,159.921762 387.644393,158.723614 387.824115,157.285836 C388.123652,155.12917 388.123652,150.815838 388.123652,146.322783 Z M423.303754,146.322783 L423.303754,137.336673 C423.303754,129.428897 423.303754,127.99112 423.18394,126.37362 C423.064125,124.75612 422.644773,123.857509 420.787644,123.498065 C420.428199,123.438157 419.829125,123.37825 419.349866,123.37825 C418.930514,123.37825 418.690885,123.258435 418.690885,123.018806 C418.690885,122.779176 418.870607,122.599454 419.409774,122.599454 C421.985792,122.599454 425.640143,122.779176 425.759958,122.779176 C426.299124,122.779176 430.372827,122.599454 432.050234,122.599454 C435.405049,122.599454 439.0594,122.898991 441.875047,124.875935 C443.013288,125.714638 445.469491,128.110934 445.469491,132.184637 C445.469491,135.479544 443.851991,139.673062 439.119307,143.507135 C443.492547,148.898801 447.086991,153.331948 450.142268,156.50704 C453.017823,159.442503 454.815045,159.921762 456.492452,160.161391 C456.911804,160.221299 458.169859,160.281206 458.349581,160.281206 C458.828841,160.281206 459.008563,160.460928 459.008563,160.700558 C459.008563,161.000095 458.768933,161.11991 457.93023,161.11991 L453.736712,161.11991 C450.921064,161.11991 449.603101,160.940188 448.285139,160.401021 C445.769028,159.322688 443.971806,156.626855 440.856622,152.613059 C438.520233,149.737504 436.123937,146.502505 435.105512,145.24445 C434.865882,145.00482 434.746067,144.885005 434.386623,144.885005 L428.216161,144.825098 C427.976531,144.825098 427.916624,144.885005 427.916624,145.124635 L427.916624,145.963338 C427.916624,150.75593 427.916624,155.12917 428.216161,157.285836 C428.395883,158.723614 428.575605,159.921762 430.552549,160.161391 C431.151623,160.221299 431.810605,160.281206 432.289864,160.281206 C432.82903,160.281206 433.06866,160.460928 433.06866,160.640651 C433.06866,160.940188 432.82903,161.11991 432.229956,161.11991 C429.114772,161.11991 425.759958,160.940188 425.520328,160.940188 C424.56181,160.940188 421.925884,161.11991 420.308385,161.11991 C419.709311,161.11991 419.469681,161.000095 419.469681,160.640651 C419.469681,160.460928 419.829125,160.281206 420.18857,160.281206 C420.607922,160.281206 421.027273,160.281206 421.506533,160.161391 C422.524958,159.981669 422.884403,159.322688 423.064125,157.88491 C423.363662,155.728244 423.303754,150.815838 423.303754,146.322783 Z M427.916624,125.295287 L427.916624,141.590099 C427.916624,141.889636 427.976531,142.189173 428.216161,142.308987 C428.994957,142.728339 431.391253,143.087783 433.547919,143.087783 C434.805975,143.087783 436.303659,143.027876 437.561715,142.189173 C439.358937,141.050932 440.557085,138.415007 440.557085,134.580933 C440.557085,128.051027 437.082456,124.456583 431.750697,124.456583 C430.253012,124.456583 428.994957,124.576398 428.276068,124.75612 C428.096346,124.816028 427.916624,124.99575 427.916624,125.295287 Z M478.912279,161.778891 C464.234967,161.778891 458.244227,150.875745 458.244227,141.769821 C458.244227,133.802137 464.414689,121.880565 479.211816,121.880565 C491.07348,121.880565 500.119497,128.949638 500.119497,140.991025 C500.119497,152.433337 491.672554,161.778891 478.912279,161.778891 Z M480.409964,159.74204 C484.423759,159.74204 494.488202,157.705188 494.488202,142.488709 C494.488202,130.447323 487.059685,123.737694 478.852371,123.737694 C470.525243,123.737694 463.815615,128.88973 463.815615,140.212228 C463.815615,151.954078 470.345521,159.74204 480.409964,159.74204 Z M516.699385,137.336673 L516.699385,148.778986 C516.699385,157.405651 516.759293,160.760465 515.081886,164.594539 C514.003553,167.170557 511.607257,169.566853 506.93448,172.682037 C506.275498,173.041482 505.376888,173.700463 504.837721,173.940093 C504.777814,174 504.657999,174 504.478277,174 C504.358462,174 504.058925,173.940093 504.058925,173.700463 C504.058925,173.341019 504.418369,173.221204 504.837721,172.921667 C505.436795,172.62213 506.155684,172.023056 506.515128,171.663612 C510.109572,168.24889 511.846886,165.672872 511.846886,151.954078 L511.846886,137.336673 C511.846886,129.428897 511.846886,128.051027 511.727072,126.433527 C511.607257,124.816028 511.06809,123.977324 509.390683,123.557972 C509.031239,123.498065 508.07272,123.438157 507.593461,123.438157 C507.413739,123.438157 507.174109,123.258435 507.174109,123.078713 C507.174109,122.719269 507.473646,122.599454 508.07272,122.599454 C510.588831,122.599454 514.06346,122.779176 514.243182,122.779176 C514.482812,122.779176 518.017348,122.599454 519.694755,122.599454 C520.293829,122.599454 520.533459,122.719269 520.533459,123.078713 C520.533459,123.258435 520.293829,123.438157 520.174014,123.438157 C519.81457,123.438157 519.455126,123.498065 518.796144,123.557972 C517.418274,123.857509 516.939015,124.75612 516.8192,126.493435 C516.699385,128.110934 516.699385,129.428897 516.699385,137.336673 Z M536.078395,146.322783 L536.078395,137.336673 C536.078395,129.488804 536.078395,128.051027 535.958581,126.433527 C535.838766,124.75612 535.419414,123.917417 533.682099,123.557972 C533.322655,123.498065 532.723581,123.438157 532.244322,123.438157 C531.82497,123.438157 531.465526,123.258435 531.465526,123.078713 C531.465526,122.719269 531.765063,122.599454 532.364137,122.599454 C533.562285,122.599454 535.179784,122.719269 538.534599,122.779176 C538.834136,122.779176 549.497652,122.779176 550.6958,122.719269 C551.893948,122.659361 552.552929,122.599454 553.032188,122.419732 C553.391633,122.299917 553.45154,122.240009 553.69117,122.240009 C553.810985,122.240009 553.930799,122.359824 553.930799,122.659361 C553.930799,123.018806 553.571355,123.857509 553.45154,125.355194 C553.391633,126.37362 553.331725,127.332138 553.271818,128.470379 C553.271818,129.009545 553.152003,129.36899 552.852466,129.36899 C552.552929,129.36899 552.433115,129.12936 552.433115,128.710008 C552.373207,127.811397 552.193485,127.212323 552.013763,126.792972 C551.654318,125.594824 551.115152,125.175472 548.119782,124.99575 C547.340986,124.935842 541.410154,124.875935 541.290339,124.875935 C541.110617,124.875935 540.990802,124.99575 540.990802,125.355194 L540.990802,138.954173 C540.990802,139.313617 541.050709,139.553247 541.350246,139.553247 C542.069135,139.553247 548.179689,139.49334 549.437745,139.373525 C550.815615,139.313617 551.714226,139.133895 552.193485,138.474914 C552.433115,138.11547 552.612837,137.995655 552.852466,137.995655 C552.972281,137.995655 553.092096,138.055562 553.092096,138.355099 C553.092096,138.654636 552.852466,139.792877 552.672744,141.530191 C552.493022,143.207598 552.493022,144.405746 552.433115,145.184542 C552.373207,145.663801 552.253392,145.843524 552.013763,145.843524 C551.714226,145.843524 551.654318,145.484079 551.654318,145.064728 C551.654318,144.705283 551.594411,144.106209 551.474596,143.62695 C551.234967,142.848154 550.875522,142.00945 548.599041,141.829728 C547.221171,141.709913 542.368672,141.590099 541.410154,141.590099 C541.050709,141.590099 540.990802,141.769821 540.990802,142.00945 L540.990802,146.38269 C540.990802,148.23982 540.930894,153.51167 540.990802,154.530096 C541.110617,156.74667 541.410154,157.88491 542.668209,158.424077 C543.56682,158.843429 545.004597,158.963243 547.041449,158.963243 C548.179689,158.963243 550.096726,159.023151 551.594411,158.603799 C553.391633,158.064633 553.810985,156.866485 554.290244,154.649911 C554.410059,154.050837 554.589781,153.811207 554.82941,153.811207 C555.188855,153.811207 555.188855,154.350374 555.188855,154.709818 C555.188855,155.12917 554.709596,158.903336 554.529873,159.921762 C554.290244,161.11991 553.870892,161.239725 551.893948,161.239725 C547.94006,161.239725 546.262653,161.11991 544.165894,161.11991 C542.069135,161.060002 539.313395,160.940188 537.096821,160.940188 C535.718951,160.940188 534.58071,161.11991 533.142933,161.11991 C532.603766,161.11991 532.304229,161.000095 532.304229,160.700558 C532.304229,160.460928 532.543859,160.281206 532.843396,160.281206 C533.20284,160.281206 533.622192,160.221299 534.041544,160.101484 C535.119877,159.861854 535.838766,159.083058 535.958581,155.3688 C536.018488,153.331948 536.078395,150.875745 536.078395,146.322783 Z M589.619082,161.778891 C581.711305,161.778891 576.31964,159.981669 572.066214,156.327318 C566.974086,151.894171 565.656123,146.023246 565.656123,141.050932 C565.656123,137.696118 566.974086,131.765286 571.70677,127.212323 C574.941769,124.097139 579.794268,121.880565 587.82186,121.880565 C590.5776,121.880565 592.794174,122.120195 595.729636,122.539546 C597.646673,122.839083 599.563709,123.13862 601.001487,123.198528 C601.480746,123.198528 601.540653,123.498065 601.540653,123.797602 C601.540653,124.276861 601.360931,124.816028 601.241116,126.733064 C601.181209,128.410471 601.181209,131.525656 601.121302,132.244545 C601.061394,133.083248 600.941579,133.382785 600.642042,133.382785 C600.222691,133.382785 600.162783,133.023341 600.162783,132.244545 C600.162783,130.50723 599.32408,128.170842 597.826395,127.032601 C596.029173,125.475009 591.835655,123.977324 587.222786,123.977324 C580.573065,123.977324 577.517787,125.834453 575.720566,127.451953 C571.826585,130.986489 570.927974,135.299822 570.927974,140.571673 C570.927974,150.516301 579.015472,159.26278 589.559174,159.26278 C593.632877,159.26278 596.628247,158.843429 598.725006,156.806577 C599.803339,155.668337 600.402413,154.170652 600.70195,152.493245 C600.821765,151.894171 601.001487,151.594634 601.360931,151.594634 C601.660468,151.594634 601.660468,152.013986 601.660468,152.433337 C601.660468,152.912596 600.881672,157.765096 600.46232,159.083058 C600.102876,160.041577 599.923154,160.221299 599.08445,160.580743 C596.987691,161.479354 592.973896,161.778891 589.619082,161.778891 Z M630.96758,124.935842 L630.96758,146.322783 C630.96758,150.935652 631.027487,155.189078 631.267117,157.405651 C631.446839,158.843429 631.566654,159.682132 633.064339,160.041577 C633.783227,160.221299 634.921468,160.281206 635.400727,160.281206 C635.879986,160.281206 636.119616,160.460928 636.119616,160.640651 C636.119616,160.940188 635.939894,161.11991 635.34082,161.11991 C632.285542,161.11991 628.751006,160.940188 628.511376,160.940188 C628.271747,160.940188 624.73721,161.11991 623.179618,161.11991 C622.520637,161.11991 622.281007,161.000095 622.281007,160.700558 C622.281007,160.520836 622.460729,160.281206 622.939989,160.281206 C623.419248,160.281206 623.778692,160.281206 624.257951,160.221299 C625.396192,160.041577 625.575914,159.322688 625.815544,157.285836 C626.055173,155.12917 626.055173,150.815838 626.055173,146.322783 L626.055173,124.935842 C624.078229,124.935842 620.903137,124.935842 618.506841,124.99575 C614.672768,125.055657 613.834064,125.654731 612.995361,126.912786 C612.456194,127.75149 612.216565,128.470379 612.09675,128.769916 C611.917028,129.189267 611.797213,129.249175 611.557583,129.249175 C611.317954,129.249175 611.258046,129.009545 611.258046,128.710008 C611.198139,128.350564 612.09675,124.396676 612.456194,122.779176 C612.635916,122.060287 612.815639,121.820658 612.995361,121.820658 C613.414713,121.820658 614.552953,122.359824 615.631286,122.479639 C617.728045,122.719269 619.405452,122.779176 619.46536,122.779176 L639.114986,122.779176 C640.792393,122.779176 642.589615,122.659361 643.428318,122.479639 C644.207114,122.299917 644.386836,122.240009 644.566559,122.240009 C644.806188,122.240009 644.926003,122.539546 644.926003,122.779176 C644.926003,124.456583 644.806188,128.410471 644.806188,128.88973 C644.806188,129.428897 644.566559,129.608619 644.386836,129.608619 C644.087299,129.608619 643.967485,129.36899 643.967485,128.88973 C643.967485,128.710008 643.967485,128.650101 643.907577,128.051027 C643.667948,125.654731 642.889152,125.055657 636.838505,124.99575 C634.562023,124.99575 632.704894,124.935842 630.96758,124.935842 Z" id="public-knowledge-project"></path>
            </g>
        </g>
    </g>
</svg>