<?xml version="1.0" encoding="UTF-8"?>
<svg width="589px" height="389px" viewBox="0 0 589 389" version="1.1" xmlns="http://www.w3.org/2000/svg" xmlns:xlink="http://www.w3.org/1999/xlink">
    <title>Slash - OJS</title>
    <desc>An official PKP logotype.</desc>
    <g id="Final" stroke="none" stroke-width="1" fill="none" fill-rule="evenodd">
        <g id="Artboard" transform="translate(-94.000000, -3489.000000)" fill="#000000" fill-rule="nonzero">
            <g id="Slash---OJS" transform="translate(94.000000, 3489.000000)">
                <path d="M173.759892,32.9246231 L195.348697,32.9246231 C199.715685,32.9246231 203.252277,31.7957902 205.958579,29.5380905 C208.664882,27.2803907 210.018013,23.831179 210.018013,19.1903518 C210.018013,14.5495245 208.664882,11.1003128 205.958579,8.84261307 C203.252277,6.58491333 199.715685,5.4560804 195.348697,5.4560804 L173.759892,5.4560804 L173.759892,32.9246231 Z M167.486222,-1.8189894e-12 L196.732594,-1.8189894e-12 C199.684924,-1.8189894e-12 202.360433,0.42331235 204.759201,1.26994975 C207.157969,2.11658715 209.218419,3.37084596 210.940611,5.03276382 C212.662803,6.69468168 213.985181,8.71717401 214.907785,11.1003015 C215.830388,13.483429 216.291682,16.1800855 216.291682,19.1903518 C216.291682,22.2006181 215.830388,24.8972745 214.907785,27.280402 C213.985181,29.6635295 212.662803,31.6860218 210.940611,33.3479397 C209.218419,35.0098576 207.157969,36.2641164 204.759201,37.1107538 C202.360433,37.9573912 199.684924,38.3807035 196.732594,38.3807035 L173.759892,38.3807035 L173.759892,67.1662312 L167.486222,67.1662312 L167.486222,-1.8189894e-12 Z M226.036629,-1.39266376e-12 L231.848999,-1.39266376e-12 L231.848999,67.1662312 L226.036629,67.1662312 L226.036629,-1.39266376e-12 Z M243.900442,33.4890452 C244.084963,30.6669206 244.669269,28.2211159 245.653379,26.1515578 C246.637489,24.0819997 247.975243,22.3887503 249.666682,21.0717588 C251.358121,19.7547673 253.341688,18.7827167 255.617443,18.1555779 C257.893197,17.5284391 260.414941,17.2148744 263.18275,17.2148744 C265.273984,17.2148744 267.365186,17.4186914 269.45642,17.8263317 C271.547654,18.2339719 273.423585,19.0022054 275.084271,20.1310553 C276.744956,21.2599051 278.098087,22.8434069 279.143704,24.881608 C280.189321,26.9198092 280.712121,29.5694309 280.712121,32.8305528 L280.712121,58.6058291 C280.712121,60.9889566 281.849982,62.1805025 284.125736,62.1805025 C284.802311,62.1805025 285.417371,62.0550766 285.970933,61.8042211 L285.970933,66.7899497 C285.294357,66.9153775 284.694674,67.0094469 284.171866,67.0721608 C283.649057,67.1348747 282.987868,67.1662312 282.188279,67.1662312 C280.712114,67.1662312 279.528125,66.9624141 278.636275,66.5547739 C277.744425,66.1471336 277.052483,65.5670389 276.560428,64.8144724 C276.068373,64.0619058 275.745467,63.1682464 275.5917,62.1334673 C275.437933,61.0986883 275.36105,59.9541771 275.36105,58.6998995 L275.176531,58.6998995 C274.130914,60.2677465 273.069936,61.6631095 271.993566,62.8860302 C270.917195,64.1089508 269.717829,65.1280361 268.395432,65.9433166 C267.073034,66.758597 265.566138,67.3857264 263.874699,67.8247236 C262.18326,68.2637208 260.16894,68.4832161 257.831679,68.4832161 C255.617432,68.4832161 253.541606,68.2166861 251.604139,67.6836181 C249.666673,67.1505501 247.975259,66.3039254 246.529848,65.1437186 C245.084436,63.9835118 243.946576,62.5097577 243.116233,60.7224121 C242.28589,58.9350664 241.870725,56.8185047 241.870725,54.3726633 C241.870725,50.9861137 242.608797,48.336492 244.084962,46.4237186 C245.561127,44.5109452 247.51394,43.0528693 249.943462,42.0494472 C252.372983,41.0460251 255.109998,40.3405046 258.154588,39.9328643 C261.199179,39.5252241 264.289853,39.1332682 267.426703,38.7569849 C268.656841,38.6315572 269.733195,38.4747748 270.655798,38.2866332 C271.578401,38.0984915 272.347225,37.7692486 272.962294,37.2988945 C273.577363,36.8285404 274.054034,36.1857327 274.392322,35.3704523 C274.73061,34.5551718 274.899751,33.4890518 274.899751,32.1720603 C274.899751,30.1652161 274.576845,28.5190014 273.931023,27.2333668 C273.2852,25.9477323 272.393364,24.928647 271.255487,24.1760804 C270.11761,23.4235138 268.795232,22.9061321 267.288313,22.6239196 C265.781395,22.3417071 264.166864,22.200603 262.444671,22.200603 C258.754259,22.200603 255.740467,23.0942714 253.403206,24.881608 C251.065945,26.6689537 249.835826,29.5380707 249.712812,33.4890452 L243.900442,33.4890452 Z M274.899751,40.638392 L274.715231,40.638392 C274.34619,41.3282447 273.638872,41.8299482 272.593255,42.1435176 C271.547638,42.457087 270.625049,42.6765823 269.825459,42.8020101 C267.365184,43.2410072 264.828064,43.6329631 262.214022,43.9778894 C259.59998,44.3228158 257.216624,44.8401976 255.063884,45.5300503 C252.911143,46.2199029 251.142847,47.2076318 249.758942,48.4932663 C248.375038,49.7789009 247.683096,51.6132544 247.683096,53.9963819 C247.683096,55.5015151 247.975249,56.8341651 248.559564,57.9943719 C249.14388,59.1545787 249.92808,60.1579857 250.91219,61.0046231 C251.8963,61.8512605 253.03416,62.4940682 254.325805,62.9330653 C255.617449,63.3720625 256.939827,63.5915578 258.292978,63.5915578 C260.507226,63.5915578 262.629181,63.2466366 264.658908,62.5567839 C266.688635,61.8669312 268.456931,60.8635242 269.963849,59.5465327 C271.470767,58.2295412 272.670138,56.6303612 273.561983,54.7489447 C274.453833,52.8675283 274.899751,50.7352883 274.899751,48.3521608 L274.899751,40.638392 Z M303.004407,18.6259296 L312.691691,18.6259296 L312.691691,23.6116583 L303.004407,23.6116583 L303.004407,56.3481407 C303.004407,58.292271 303.265808,59.8130598 303.788616,60.9105528 C304.311424,62.0080457 305.618426,62.6194969 307.70966,62.7449246 C309.370345,62.7449246 311.031006,62.6508552 312.691691,62.4627136 L312.691691,67.4484422 C311.830595,67.4484422 310.969512,67.4797987 310.108416,67.5425126 C309.247319,67.6052264 308.386236,67.6365829 307.52514,67.6365829 C303.650207,67.6365829 300.943945,66.8683494 299.406273,65.3318593 C297.868601,63.7953692 297.13053,60.9576086 297.192037,56.8184925 L297.192037,23.6116583 L288.888651,23.6116583 L288.888651,18.6259296 L297.192037,18.6259296 L297.192037,4.04502513 L303.004407,4.04502513 L303.004407,18.6259296 Z M340.888608,23.6116583 L331.478103,23.6116583 L331.478103,67.1662312 L325.665733,67.1662312 L325.665733,23.6116583 L317.546866,23.6116583 L317.546866,18.6259296 L325.665733,18.6259296 L325.665733,14.2046231 C325.665733,12.135065 325.819497,10.2223203 326.127032,8.46633166 C326.434566,6.71034298 327.018873,5.2052324 327.879969,3.95095477 C328.741065,2.69667715 329.925055,1.72462656 331.431973,1.03477387 C332.938892,0.344921174 334.860952,-1.39266376e-12 337.198214,-1.39266376e-12 C338.05931,-1.39266376e-12 338.858887,0.0313564704 339.59697,0.0940703518 C340.335052,0.156784233 341.165383,0.250853644 342.087986,0.376281407 L342.087986,5.4560804 C341.288396,5.33065264 340.550325,5.22090499 339.873749,5.12683417 C339.197174,5.03276335 338.520608,4.98572864 337.844033,4.98572864 C336.244854,4.98572864 335.014735,5.23658041 334.153639,5.73829146 C333.292542,6.24000251 332.662106,6.91416662 332.262312,7.76080402 C331.862517,8.60744142 331.63187,9.59517024 331.570363,10.7240201 C331.508856,11.85287 331.478103,13.0757723 331.478103,14.3927638 L331.478103,18.6259296 L340.888608,18.6259296 L340.888608,23.6116583 Z M367.978406,22.200603 C365.210596,22.200603 362.781111,22.796376 360.689878,23.9879397 C358.598644,25.1795034 356.861101,26.747327 355.477196,28.6914573 C354.093291,30.6355876 353.04769,32.8462188 352.340361,35.3234171 C351.633032,37.8006154 351.279373,40.3248113 351.279373,42.8960804 C351.279373,45.4673495 351.633032,47.9915454 352.340361,50.4687437 C353.04769,52.945942 354.093291,55.1565732 355.477196,57.1007035 C356.861101,59.0448338 358.598644,60.6126574 360.689878,61.8042211 C362.781111,62.9957849 365.210596,63.5915578 367.978406,63.5915578 C370.746215,63.5915578 373.1757,62.9957849 375.266934,61.8042211 C377.358167,60.6126574 379.09571,59.0448338 380.479615,57.1007035 C381.86352,55.1565732 382.909121,52.945942 383.61645,50.4687437 C384.323779,47.9915454 384.677438,45.4673495 384.677438,42.8960804 C384.677438,40.3248113 384.323779,37.8006154 383.61645,35.3234171 C382.909121,32.8462188 381.86352,30.6355876 380.479615,28.6914573 C379.09571,26.747327 377.358167,25.1795034 375.266934,23.9879397 C373.1757,22.796376 370.746215,22.200603 367.978406,22.200603 Z M367.978406,17.2148744 C371.607311,17.2148744 374.820997,17.9047167 377.61956,19.2844221 C380.418122,20.6641275 382.770725,22.5141593 384.677438,24.8345729 C386.584151,27.1549865 388.029541,29.8673212 389.013651,32.9716583 C389.997761,36.0759954 390.489809,39.384103 390.489809,42.8960804 C390.489809,46.4080578 389.997761,49.7161654 389.013651,52.8205025 C388.029541,55.9248396 386.584151,58.6371743 384.677438,60.9575879 C382.770725,63.2780016 380.418122,65.1123551 377.61956,66.4607035 C374.820997,67.809052 371.607311,68.4832161 367.978406,68.4832161 C364.3495,68.4832161 361.135814,67.809052 358.337251,66.4607035 C355.538689,65.1123551 353.186086,63.2780016 351.279373,60.9575879 C349.37266,58.6371743 347.92727,55.9248396 346.94316,52.8205025 C345.95905,49.7161654 345.467003,46.4080578 345.467003,42.8960804 C345.467003,39.384103 345.95905,36.0759954 346.94316,32.9716583 C347.92727,29.8673212 349.37266,27.1549865 351.279373,24.8345729 C353.186086,22.5141593 355.538689,20.6641275 358.337251,19.2844221 C361.135814,17.9047167 364.3495,17.2148744 367.978406,17.2148744 Z M400.603795,18.6259296 L405.954866,18.6259296 L405.954866,30.0084422 L406.139385,30.0084422 C407.61555,26.0574677 409.906647,23.0158901 413.012744,20.8836181 C416.118841,18.7513461 419.824575,17.7792955 424.130056,17.9674372 L424.130056,23.8938693 C421.48526,23.7684416 419.086528,24.129041 416.933788,24.9756784 C414.781047,25.8223158 412.920492,27.0295399 411.352067,28.5973869 C409.783642,30.165234 408.568899,32.030944 407.707803,34.1945729 C406.846707,36.3582018 406.416165,38.7256153 406.416165,41.2968844 L406.416165,67.1662312 L400.603795,67.1662312 L400.603795,18.6259296 Z M431.107207,18.6259296 L436.458278,18.6259296 L436.458278,26.8100503 L436.735058,26.8100503 C438.27273,23.7997839 440.287049,21.4480487 442.778078,19.7547739 C445.269106,18.0614991 448.452039,17.2148744 452.326972,17.2148744 C455.463823,17.2148744 458.308473,17.9987861 460.861008,19.5666332 C463.413543,21.1344724 465.120333,23.5175719 465.98143,26.7159799 C467.396088,23.5175719 469.48729,21.1344724 472.255099,19.5666332 C475.022909,17.9987861 477.975194,17.2148744 481.112045,17.2148744 C491.62972,17.2148744 496.888479,22.8903955 496.888479,34.241608 L496.888479,67.1662312 L491.076108,67.1662312 L491.076108,34.5238191 C491.076108,30.5101307 490.245778,27.4528748 488.585093,25.3519598 C486.924407,23.2510448 484.002874,22.200603 479.820407,22.200603 C477.298625,22.200603 475.207423,22.6866283 473.546737,23.6586935 C471.886052,24.6307586 470.563674,25.9320521 469.579564,27.5626131 C468.595454,29.193174 467.903512,31.058884 467.503717,33.159799 C467.103922,35.260714 466.904028,37.4399887 466.904028,39.6976884 L466.904028,67.1662312 L461.091658,67.1662312 L461.091658,34.241608 C461.091658,32.6110471 460.922516,31.0589018 460.584229,29.5851256 C460.245941,28.1113494 459.692387,26.8257341 458.923551,25.7282412 C458.154715,24.6307483 457.124491,23.7684453 455.832846,23.1413065 C454.541202,22.5141677 452.9728,22.200603 451.127594,22.200603 C448.667319,22.200603 446.529987,22.6552718 444.715535,23.5646231 C442.901082,24.4739744 441.424939,25.7282332 440.287062,27.3274372 C439.149185,28.9266412 438.303478,30.8080294 437.749916,32.9716583 C437.196354,35.1352872 436.919577,37.5027007 436.919577,40.0739698 L436.919577,67.1662312 L431.107207,67.1662312 L431.107207,18.6259296 Z M557.157225,4.98572864 C554.758457,4.98572864 552.698007,5.7226057 550.975815,7.19638191 C549.253623,8.67015812 548.392539,10.8180763 548.392539,13.640201 C548.392539,14.8317648 548.638563,16.0389889 549.130618,17.2619095 C549.622673,18.4848302 550.237733,19.6763761 550.975815,20.8365829 C551.713898,21.9967897 552.513475,23.1256227 553.374571,24.2231156 C554.235667,25.3206085 555.035245,26.3083373 555.773327,27.1863317 C556.941958,26.4337651 558.125947,25.6184969 559.325331,24.7405025 C560.524715,23.8625082 561.616446,22.8747794 562.600556,21.7772864 C563.584666,20.6797935 564.384243,19.4568912 564.999312,18.1085427 C565.614381,16.7601943 565.92191,15.2707619 565.92191,13.640201 C565.92191,10.8180763 565.060827,8.67015812 563.338635,7.19638191 C561.616442,5.7226057 559.555993,4.98572864 557.157225,4.98572864 Z M573.856257,58.4176884 C571.457489,61.4906686 568.597463,63.9364733 565.276092,65.7551759 C561.95472,67.5738784 558.356622,68.4832161 554.481689,68.4832161 C551.652373,68.4832161 549.022994,68.075582 546.593472,67.2603015 C544.163963,66.445021 542.057372,65.2534752 540.273673,63.6856281 C538.489973,62.1177811 537.090713,60.1736799 536.07585,57.8532663 C535.060986,55.5328527 534.553562,52.8361963 534.553562,49.7632161 C534.553562,47.3800886 535.04561,45.1851357 536.02972,43.1782915 C537.01383,41.1714473 538.290078,39.352772 539.858503,37.7222111 C541.426929,36.0916501 543.164472,34.617896 545.071185,33.3009045 C546.977898,31.983913 548.853829,30.8237236 550.699035,29.8203015 C549.776432,28.6287378 548.838467,27.4215137 547.88511,26.198593 C546.931754,24.9756723 546.07067,23.7057352 545.301834,22.3887437 C544.532998,21.0717522 543.887186,19.6920675 543.364378,18.2496482 C542.841569,16.807229 542.580169,15.2707619 542.580169,13.640201 C542.580169,11.5706429 542.964581,9.70493293 543.733417,8.04301508 C544.502253,6.38109722 545.547854,4.95437782 546.870252,3.76281407 C548.19265,2.57125032 549.730298,1.64623445 551.483244,0.987738693 C553.23619,0.329242939 555.127498,-2.06057393e-12 557.157225,-2.06057393e-12 C559.186952,-2.06057393e-12 561.07826,0.329242939 562.831206,0.987738693 C564.584151,1.64623445 566.1218,2.57125032 567.444198,3.76281407 C568.766596,4.95437782 569.812197,6.38109722 570.581033,8.04301508 C571.349869,9.70493293 571.734281,11.5706429 571.734281,13.640201 C571.734281,15.7097591 571.365245,17.5911473 570.627163,19.2844221 C569.88908,20.9776969 568.920362,22.514164 567.720978,23.8938693 C566.521594,25.2735747 565.153086,26.5435118 563.615414,27.7037186 C562.077742,28.8639254 560.478588,29.9770801 558.817902,31.0432161 L573.210439,48.7284422 C574.010028,47.0978813 574.532828,45.4516666 574.778856,43.7897487 C575.024883,42.1278309 575.147895,40.0112691 575.147895,37.44 L580.960266,37.44 C580.960266,39.3214164 580.698865,41.7515429 580.176057,44.7304523 C579.653249,47.7093616 578.623024,50.6411916 577.085352,53.5260302 L588.156534,67.1662312 L580.868006,67.1662312 L573.856257,58.4176884 Z M553.83587,33.6771859 C552.236692,34.5551803 550.637537,35.5272309 549.038358,36.5933668 C547.43918,37.6595028 545.99379,38.8824052 544.702145,40.2621106 C543.410501,41.6418159 542.3649,43.1626048 541.56531,44.8245226 C540.765721,46.4864405 540.365932,48.320794 540.365932,50.3276382 C540.365932,52.2717685 540.765721,54.0590873 541.56531,55.6896482 C542.3649,57.3202092 543.425877,58.7312503 544.748275,59.9228141 C546.070673,61.1143719 547.592945,62.0237155 549.315138,62.6508543 C551.03733,63.2779931 552.821003,63.5915578 554.666209,63.5915578 C557.98758,63.5915578 560.955242,62.6665419 563.569284,60.8164824 C566.183326,58.9664229 568.412917,56.6930788 570.258123,53.9963819 L553.83587,33.6771859 Z M98.2913361,124.455075 L104.472746,124.455075 L116.651046,166.034171 L116.835566,166.034171 L128.460307,124.455075 L135.010756,124.455075 L146.635497,166.034171 L146.820016,166.034171 L158.998316,124.455075 L165.179726,124.455075 L149.864591,172.995377 L143.498662,172.995377 L131.781661,132.168844 L131.597141,132.168844 L119.9724,172.995377 L113.606471,172.995377 L98.2913361,124.455075 Z M193.007603,128.029749 C190.239794,128.029749 187.810309,128.625522 185.719075,129.817085 C183.627841,131.008649 181.890298,132.576473 180.506394,134.520603 C179.122489,136.464733 178.076888,138.675364 177.369559,141.152563 C176.66223,143.629761 176.30857,146.153957 176.30857,148.725226 C176.30857,151.296495 176.66223,153.820691 177.369559,156.297889 C178.076888,158.775088 179.122489,160.985719 180.506394,162.929849 C181.890298,164.87398 183.627841,166.441803 185.719075,167.633367 C187.810309,168.824931 190.239794,169.420704 193.007603,169.420704 C195.775412,169.420704 198.204897,168.824931 200.296131,167.633367 C202.387365,166.441803 204.124908,164.87398 205.508812,162.929849 C206.892717,160.985719 207.938318,158.775088 208.645647,156.297889 C209.352976,153.820691 209.706636,151.296495 209.706636,148.725226 C209.706636,146.153957 209.352976,143.629761 208.645647,141.152563 C207.938318,138.675364 206.892717,136.464733 205.508812,134.520603 C204.124908,132.576473 202.387365,131.008649 200.296131,129.817085 C198.204897,128.625522 195.775412,128.029749 193.007603,128.029749 Z M193.007603,123.04402 C196.636509,123.04402 199.850194,123.733862 202.648757,125.113568 C205.44732,126.493273 207.799922,128.343305 209.706636,130.663719 C211.613349,132.984132 213.058738,135.696467 214.042848,138.800804 C215.026958,141.905141 215.519006,145.213249 215.519006,148.725226 C215.519006,152.237203 215.026958,155.545311 214.042848,158.649648 C213.058738,161.753985 211.613349,164.46632 209.706636,166.786734 C207.799922,169.107147 205.44732,170.941501 202.648757,172.289849 C199.850194,173.638198 196.636509,174.312362 193.007603,174.312362 C189.378697,174.312362 186.165012,173.638198 183.366449,172.289849 C180.567886,170.941501 178.215283,169.107147 176.30857,166.786734 C174.401857,164.46632 172.956468,161.753985 171.972358,158.649648 C170.988248,155.545311 170.4962,152.237203 170.4962,148.725226 C170.4962,145.213249 170.988248,141.905141 171.972358,138.800804 C172.956468,135.696467 174.401857,132.984132 176.30857,130.663719 C178.215283,128.343305 180.567886,126.493273 183.366449,125.113568 C186.165012,123.733862 189.378697,123.04402 193.007603,123.04402 Z M225.632992,124.455075 L230.984063,124.455075 L230.984063,135.837588 L231.168583,135.837588 C232.644748,131.886613 234.935844,128.845036 238.041942,126.712764 C241.148039,124.580492 244.853772,123.608441 249.159253,123.796583 L249.159253,129.723015 C246.514458,129.597587 244.115726,129.958187 241.962985,130.804824 C239.810245,131.651462 237.94969,132.858686 236.381264,134.426533 C234.812839,135.99438 233.598096,137.86009 232.737,140.023719 C231.875904,142.187348 231.445362,144.554761 231.445362,147.12603 L231.445362,172.995377 L225.632992,172.995377 L225.632992,124.455075 Z M256.136404,105.829146 L261.948775,105.829146 L261.948775,147.972663 L288.335091,124.455075 L296.084919,124.455075 L275.787752,142.422513 L297.468816,172.995377 L290.180288,172.995377 L271.359279,146.561608 L261.948775,154.557588 L261.948775,172.995377 L256.136404,172.995377 L256.136404,105.829146 Z M327.695449,105.829146 L333.50782,105.829146 L333.50782,172.995377 L327.695449,172.995377 L327.695449,105.829146 Z M306.844724,129.440804 L298.725857,129.440804 L298.725857,124.455075 L306.844724,124.455075 L306.844724,120.033769 C306.844724,117.964211 306.998488,116.051466 307.306023,114.295477 C307.613557,112.539489 308.197864,111.034378 309.05896,109.780101 C309.920056,108.525823 311.104046,107.553772 312.610964,106.86392 C314.117882,106.174067 316.039943,105.829146 318.377205,105.829146 C319.238301,105.829146 320.037878,105.860502 320.775961,105.923216 C321.514043,105.98593 322.344373,106.079999 323.266977,106.205427 L323.266977,111.285226 C322.467387,111.159798 321.729316,111.050051 321.05274,110.95598 C320.376165,110.861909 319.699599,110.814874 319.023024,110.814874 C317.423845,110.814874 316.193726,111.065726 315.33263,111.567437 C314.471533,112.069148 313.841097,112.743312 313.441303,113.58995 C313.041508,114.436587 312.810861,115.424316 312.749354,116.553166 C312.687847,117.682016 312.657094,118.904918 312.657094,120.22191 L312.657094,124.455075 L322.067599,124.455075 L322.067599,129.440804 L312.657094,129.440804 L312.657094,172.995377 L306.844724,172.995377 L306.844724,129.440804 Z M366.225468,128.029749 C363.457659,128.029749 361.028174,128.625522 358.93694,129.817085 C356.845707,131.008649 355.108164,132.576473 353.724259,134.520603 C352.340354,136.464733 351.294753,138.675364 350.587424,141.152563 C349.880095,143.629761 349.526436,146.153957 349.526436,148.725226 C349.526436,151.296495 349.880095,153.820691 350.587424,156.297889 C351.294753,158.775088 352.340354,160.985719 353.724259,162.929849 C355.108164,164.87398 356.845707,166.441803 358.93694,167.633367 C361.028174,168.824931 363.457659,169.420704 366.225468,169.420704 C368.993278,169.420704 371.422763,168.824931 373.513997,167.633367 C375.60523,166.441803 377.342773,164.87398 378.726678,162.929849 C380.110583,160.985719 381.156184,158.775088 381.863513,156.297889 C382.570842,153.820691 382.924501,151.296495 382.924501,148.725226 C382.924501,146.153957 382.570842,143.629761 381.863513,141.152563 C381.156184,138.675364 380.110583,136.464733 378.726678,134.520603 C377.342773,132.576473 375.60523,131.008649 373.513997,129.817085 C371.422763,128.625522 368.993278,128.029749 366.225468,128.029749 Z M366.225468,123.04402 C369.854374,123.04402 373.06806,123.733862 375.866623,125.113568 C378.665185,126.493273 381.017788,128.343305 382.924501,130.663719 C384.831214,132.984132 386.276604,135.696467 387.260714,138.800804 C388.244824,141.905141 388.736872,145.213249 388.736872,148.725226 C388.736872,152.237203 388.244824,155.545311 387.260714,158.649648 C386.276604,161.753985 384.831214,164.46632 382.924501,166.786734 C381.017788,169.107147 378.665185,170.941501 375.866623,172.289849 C373.06806,173.638198 369.854374,174.312362 366.225468,174.312362 C362.596563,174.312362 359.382877,173.638198 356.584314,172.289849 C353.785752,170.941501 351.433149,169.107147 349.526436,166.786734 C347.619723,164.46632 346.174333,161.753985 345.190223,158.649648 C344.206113,155.545311 343.714065,152.237203 343.714065,148.725226 C343.714065,145.213249 344.206113,141.905141 345.190223,138.800804 C346.174333,135.696467 347.619723,132.984132 349.526436,130.663719 C351.433149,128.343305 353.785752,126.493273 356.584314,125.113568 C359.382877,123.733862 362.596563,123.04402 366.225468,123.04402 Z M394.053345,124.455075 L400.234755,124.455075 L412.413055,166.034171 L412.597575,166.034171 L424.222316,124.455075 L430.772765,124.455075 L442.397506,166.034171 L442.582026,166.034171 L454.760326,124.455075 L460.941735,124.455075 L445.626601,172.995377 L439.260671,172.995377 L427.54367,132.168844 L427.359151,132.168844 L415.73441,172.995377 L409.36848,172.995377 L394.053345,124.455075 Z M495.746763,105.829146 L501.559134,105.829146 L501.559134,133.67397 L501.743653,133.67397 C502.358722,131.917981 503.235182,130.381514 504.373059,129.064523 C505.510936,127.747531 506.817938,126.634376 508.294103,125.725025 C509.770268,124.815674 511.369422,124.14151 513.091615,123.702513 C514.813807,123.263515 516.535974,123.04402 518.258166,123.04402 C521.887072,123.04402 525.039252,123.733862 527.714801,125.113568 C530.39035,126.493273 532.61994,128.358983 534.40364,130.710754 C536.187339,133.062524 537.509717,135.790537 538.370813,138.894874 C539.231909,141.999212 539.662451,145.275963 539.662451,148.725226 C539.662451,152.17449 539.231909,155.451241 538.370813,158.555578 C537.509717,161.659915 536.187339,164.387928 534.40364,166.739698 C532.61994,169.091469 530.39035,170.941501 527.714801,172.289849 C525.039252,173.638198 521.887072,174.312362 518.258166,174.312362 C514.383233,174.312362 510.923524,173.403024 507.878933,171.584322 C504.834343,169.765619 502.635505,167.163032 501.282354,163.776482 L501.097834,163.776482 L501.097834,172.995377 L495.746763,172.995377 L495.746763,105.829146 Z M533.850081,148.725226 C533.850081,146.216671 533.557927,143.723831 532.973612,141.246633 C532.389297,138.769435 531.466708,136.558804 530.205817,134.614673 C528.944926,132.670543 527.330395,131.087041 525.362175,129.864121 C523.393955,128.6412 521.025976,128.029749 518.258166,128.029749 C515.182823,128.029749 512.584196,128.6412 510.462209,129.864121 C508.340222,131.087041 506.618055,132.670543 505.295658,134.614673 C503.97326,136.558804 503.019918,138.769435 502.435602,141.246633 C501.851287,143.723831 501.559134,146.216671 501.559134,148.725226 C501.559134,151.233781 501.851287,153.726621 502.435602,156.203819 C503.019918,158.681017 503.97326,160.891649 505.295658,162.835779 C506.618055,164.779909 508.340222,166.363411 510.462209,167.586332 C512.584196,168.809252 515.182823,169.420704 518.258166,169.420704 C521.025976,169.420704 523.393955,168.809252 525.362175,167.586332 C527.330395,166.363411 528.944926,164.779909 530.205817,162.835779 C531.466708,160.891649 532.389297,158.681017 532.973612,156.203819 C533.557927,153.726621 533.850081,151.233781 533.850081,148.725226 Z M544.794405,124.455075 L550.975815,124.455075 L566.659989,165.84603 L581.329305,124.455075 L587.141676,124.455075 L566.47547,180.332864 C565.614373,182.402422 564.814796,184.11135 564.076714,185.459698 C563.338631,186.808047 562.523677,187.874167 561.631828,188.65809 C560.739978,189.442014 559.694377,190.00643 558.494993,190.351357 C557.295609,190.696283 555.773336,190.868744 553.92813,190.868744 C552.7595,190.80603 551.852287,190.758995 551.206465,190.727638 C550.560646,190.696281 549.991712,190.586534 549.499657,190.398392 L549.499657,185.412663 C550.176233,185.538091 550.837422,185.647839 551.483244,185.74191 C552.129066,185.83598 552.790255,185.883015 553.466831,185.883015 C554.758475,185.883015 555.819453,185.694876 556.649796,185.318593 C557.480139,184.94231 558.202833,184.424928 558.817902,183.766432 C559.432971,183.107936 559.955771,182.308346 560.38632,181.367638 C560.816868,180.42693 561.278162,179.392166 561.770217,178.263317 L563.799934,172.807236 L544.794405,124.455075 Z" id="Platform-&amp;-workflow-by"></path>
                <g id="OJS/PKP" transform="translate(0.000000, 235.708945)">
                    <path d="M56.7192845,117.837001 C16.6649444,117.837001 6.96331881e-13,86.0888348 6.96331881e-13,59.2593981 C6.96331881e-13,35.1129051 17.2496793,0.979899497 57.5963868,0.979899497 C90.4877245,0.979899497 115.04659,22.145344 115.04659,56.8745593 C115.04659,90.2623027 91.9495617,117.837001 56.7192845,117.837001 Z M60.666245,112.173009 C73.8227801,112.173009 101.012953,104.422283 101.012953,61.0480272 C101.012953,25.2754449 79.670129,6.04768198 56.5731008,6.04768198 C32.160419,6.04768198 13.8874537,22.4434488 13.8874537,55.0859301 C13.8874537,89.8151454 34.3531749,112.173009 60.666245,112.173009 Z M142.777642,46.291837 L142.777642,82.0644193 C142.777642,106.210912 142.777642,115.452163 138.39213,126.034885 C135.322272,133.487506 128.890189,140.49297 117.049307,148.839906 C115.148919,150.181378 112.809979,151.820955 111.348142,152.566217 C111.055774,152.715269 110.763407,152.864322 110.324856,152.864322 C109.886305,152.864322 109.30157,152.566217 109.30157,151.970007 C109.30157,151.075692 110.032488,150.628535 111.348142,149.734221 C113.102346,148.690854 115.148919,146.902225 116.464572,145.560753 C125.966514,135.723293 130.498209,127.823514 130.498209,89.3679881 L130.498209,46.291837 C130.498209,23.0396585 130.498209,18.8661906 130.205842,14.096513 C129.913475,9.0287305 128.744005,6.64389169 123.919942,5.6005247 C122.750472,5.30241985 120.7039,5.15336743 119.388247,5.15336743 C118.36496,5.15336743 117.780226,4.70621015 117.780226,4.11000044 C117.780226,3.51379074 118.36496,3.06663346 119.972981,3.06663346 C126.551249,3.06663346 135.907007,3.51379074 136.637926,3.51379074 C137.368844,3.51379074 146.578419,3.06663346 150.963931,3.06663346 C152.571952,3.06663346 153.30287,3.36473831 153.30287,4.25905287 C153.30287,4.85526257 152.571952,5.15336743 151.694849,5.15336743 C150.671563,5.15336743 149.502093,5.30241985 148.18644,5.45147228 C144.239479,5.89862956 143.362377,8.87967808 143.07001,14.096513 C142.777642,18.8661906 142.777642,23.0396585 142.777642,46.291837 Z M179.864453,117.837001 C172.993818,117.837001 166.269366,116.793635 160.275834,113.812586 C158.229262,112.769219 158.083078,112.173009 158.083078,108.148594 C158.083078,100.695973 158.667813,94.7338755 158.813997,92.3490366 C158.96018,90.70946 159.252548,89.9641978 159.983466,89.9641978 C160.860569,89.9641978 161.006752,90.4113551 161.006752,91.6037745 C161.006752,92.9452463 161.006752,95.0319803 161.445304,97.1187143 C163.638059,108.148594 173.286185,112.322062 183.080495,112.322062 C197.114132,112.322062 203.984767,102.037444 203.984767,92.4980891 C203.984767,82.2134717 199.745439,76.2513746 187.173639,65.6686524 L180.595371,60.1537126 C165.099897,47.1861516 161.591487,37.9449011 161.591487,27.8093362 C161.591487,11.8607266 173.286185,0.979899497 191.851518,0.979899497 C197.552683,0.979899497 201.792011,1.5761092 205.446604,2.47042376 C208.224095,3.06663346 209.393565,3.21568589 210.563035,3.21568589 C211.732504,3.21568589 212.024872,3.51379074 212.024872,4.25905287 C212.024872,5.004315 211.440137,9.92304506 211.440137,20.05861 C211.440137,22.4434488 211.147769,23.4868158 210.416851,23.4868158 C209.539748,23.4868158 209.393565,22.7415537 209.247381,21.5491343 C209.101197,19.7605052 208.224095,15.7360897 207.346993,14.096513 C206.46989,12.4569363 202.52293,6.19673441 189.074027,6.19673441 C178.98735,6.19673441 171.093429,12.6059887 171.093429,23.4868158 C171.093429,31.9828041 174.894206,37.3486914 188.927844,48.5276234 L193.020988,51.8067768 C210.270667,65.6686524 214.363811,74.9099028 214.363811,86.8340969 C214.363811,92.9452463 212.024872,104.273231 201.938195,111.5768 C195.652295,116.048372 187.758374,117.837001 179.864453,117.837001 Z" id="OJS"></path>
                    <path d="M250.066451,112.590452 L298.935339,2.05778894 C299.800275,0.146984925 300.232743,-3.69482223e-13 300.809367,-3.69482223e-13 C301.530147,-3.69482223e-13 304.413268,1.46984925 305.134048,2.20477387 C305.854828,2.93969849 305.710672,3.38065327 305.134048,4.70351759 L255.976847,116.11809 C255.400223,117.29397 255.111911,117.440955 254.679443,117.440955 C254.246975,117.440955 250.787231,115.677136 250.066451,114.942211 C249.489827,114.354271 249.489827,113.766332 250.066451,112.590452 Z" id="/"></path>
                    <path d="M353.72136,71.0453059 L353.72136,44.5828348 C353.72136,21.1274627 353.72136,16.9175241 353.426438,12.1061657 C353.131516,6.99409747 351.951826,4.58841828 347.085607,3.53593364 C345.905918,3.23522374 343.399078,3.08486879 342.071927,3.08486879 C341.482083,3.08486879 340.892238,2.78415889 340.892238,2.18273909 C340.892238,1.2806094 341.629544,0.979899497 343.251617,0.979899497 C349.88737,0.979899497 358.73504,1.43096435 359.91473,1.43096435 C363.158876,1.43096435 371.711624,0.979899497 378.494838,0.979899497 C396.927485,0.979899497 403.563238,7.29480737 405.922617,9.55013161 C409.166763,12.7075855 413.295676,19.4735583 413.295676,29.24663 C413.295676,48.7927734 397.959714,63.2268485 377.020226,63.2268485 C376.282921,63.2268485 374.660848,63.2268485 373.923542,63.0764936 C373.186236,63.0764936 372.301469,62.7757837 372.301469,62.0240089 C372.301469,60.8211693 373.186236,60.6708144 376.282921,60.6708144 C390.586655,60.6708144 401.793704,50.7473877 401.793704,34.9601181 C401.793704,31.2012443 401.351321,21.1274627 393.535878,13.0082954 C385.720436,4.88912818 376.725304,5.49054798 373.333697,5.49054798 C370.826857,5.49054798 368.320017,5.79125788 366.992866,6.39267767 C366.108099,6.69338757 365.813177,7.74587222 365.813177,9.24942171 L365.813177,71.0453059 C365.813177,85.479381 365.813177,97.357422 366.550483,103.67233 C366.992866,108.032623 367.877633,111.340432 372.301469,111.941852 C374.365925,112.242562 377.610071,112.543272 378.937222,112.543272 C379.821989,112.543272 380.116911,112.994337 380.116911,113.445402 C380.116911,114.197176 379.379605,114.648241 377.757532,114.648241 C369.647168,114.648241 360.357113,114.197176 359.619807,114.197176 C359.177424,114.197176 349.88737,114.648241 345.463534,114.648241 C343.841461,114.648241 343.104156,114.347531 343.104156,113.445402 C343.104156,112.994337 343.399078,112.543272 344.283845,112.543272 C345.610996,112.543272 347.38053,112.242562 348.70768,111.941852 C351.656904,111.340432 352.39421,108.032623 352.984054,103.67233 C353.72136,97.357422 353.72136,85.479381 353.72136,71.0453059 Z M438.319838,44.5828348 L438.319838,54.2055516 C442.891134,49.6949031 462.945855,28.1941453 471.940986,18.7217835 C480.788657,9.39977666 481.378502,7.89622717 481.378502,6.09196778 C481.378502,4.88912818 480.641196,3.68628859 479.461506,3.23522374 C478.429278,2.78415889 478.134356,2.48344899 478.134356,1.88202919 C478.134356,1.2806094 479.019123,0.979899497 480.346274,0.979899497 C484.622648,0.979899497 484.180264,1.43096435 489.193944,1.43096435 C493.765241,1.43096435 502.46545,0.979899497 504.824829,0.979899497 C506.889285,0.979899497 507.331669,1.43096435 507.331669,2.03238414 C507.331669,2.63380394 507.036747,2.93451384 505.709596,3.08486879 C502.907834,3.38557869 500.253532,3.98699848 498.189076,4.88912818 C494.502547,6.39267767 491.700784,8.19693707 482.853114,16.9175241 C469.87653,29.6976948 453.065956,46.6878041 449.231965,51.0480976 C458.522019,61.4225891 485.359954,89.2382548 492.290629,95.8538725 C504.382445,107.431204 509.543587,110.739013 516.621723,112.092207 C517.948874,112.392917 519.423486,112.543272 520.898097,112.543272 C522.077787,112.543272 522.962554,112.843982 522.962554,113.595757 C522.962554,114.347531 522.372709,114.648241 520.750636,114.648241 L509.838509,114.648241 C497.009387,114.648241 493.617779,112.994337 486.687104,107.431204 C477.839433,100.364521 451.296422,71.3460158 438.319838,55.5587461 L438.319838,71.0453059 C438.319838,85.479381 438.319838,97.357422 439.057144,103.67233 C439.499527,108.032623 440.384294,111.340432 444.80813,111.941852 C446.872586,112.242562 449.82181,112.543272 450.706577,112.543272 C452.033727,112.543272 452.476111,113.144692 452.476111,113.595757 C452.476111,114.347531 451.886266,114.648241 450.264193,114.648241 C442.153829,114.648241 432.863774,114.197176 432.126468,114.197176 C431.389163,114.197176 422.688953,114.648241 418.265118,114.648241 C416.643045,114.648241 415.905739,114.497886 415.905739,113.595757 C415.905739,113.144692 416.200661,112.543272 417.527812,112.543272 C418.412579,112.543272 420.034652,112.392917 421.361802,112.092207 C424.311026,111.490787 425.195793,108.032623 425.785638,103.67233 C426.522944,97.357422 426.522944,85.479381 426.522944,71.0453059 L426.522944,44.5828348 C426.522944,21.1274627 426.522944,16.9175241 426.228021,12.1061657 C425.933099,6.99409747 424.458487,4.43806333 421.214341,3.68628859 C419.592268,3.23522374 416.937967,3.08486879 415.905739,3.08486879 C414.726049,3.08486879 414.283666,2.78415889 414.283666,2.18273909 C414.283666,1.2806094 415.020972,0.979899497 416.643045,0.979899497 C421.509264,0.979899497 431.389163,1.43096435 432.126468,1.43096435 C432.863774,1.43096435 442.153829,0.979899497 446.577664,0.979899497 C448.199737,0.979899497 448.937043,1.2806094 448.937043,2.03238414 C448.937043,2.63380394 448.64212,2.93451384 447.31497,3.08486879 C445.692897,3.23522374 445.545436,3.23522374 444.070824,3.38557869 C440.089372,3.83664354 438.909683,6.84374252 438.61476,12.1061657 C438.319838,16.9175241 438.319838,21.1274627 438.319838,44.5828348 Z M528.374379,71.0453059 L528.374379,44.5828348 C528.374379,21.1274627 528.374379,16.9175241 528.079457,12.1061657 C527.784534,6.99409747 526.604845,4.58841828 521.738626,3.53593364 C520.558937,3.23522374 518.052097,3.08486879 516.724946,3.08486879 C516.135101,3.08486879 515.545257,2.78415889 515.545257,2.18273909 C515.545257,1.2806094 516.282562,0.979899497 517.904635,0.979899497 C524.540388,0.979899497 533.388059,1.43096435 534.567748,1.43096435 C537.811894,1.43096435 546.364643,0.979899497 553.147857,0.979899497 C571.580504,0.979899497 578.216257,7.29480737 580.575636,9.55013161 C583.819782,12.7075855 587.948695,19.4735583 587.948695,29.24663 C587.948695,48.7927734 572.612732,63.2268485 551.673245,63.2268485 C550.935939,63.2268485 549.313866,63.2268485 548.57656,63.0764936 C547.839254,63.0764936 546.954487,62.7757837 546.954487,62.0240089 C546.954487,60.8211693 547.839254,60.6708144 550.935939,60.6708144 C565.239673,60.6708144 576.446723,50.7473877 576.446723,34.9601181 C576.446723,31.2012443 576.004339,21.1274627 568.188897,13.0082954 C560.373455,4.88912818 551.378323,5.49054798 547.986716,5.49054798 C545.479876,5.49054798 542.973036,5.79125788 541.645885,6.39267767 C540.761118,6.69338757 540.466196,7.74587222 540.466196,9.24942171 L540.466196,71.0453059 C540.466196,85.479381 540.466196,97.357422 541.203501,103.67233 C541.645885,108.032623 542.530652,111.340432 546.954487,111.941852 C549.018944,112.242562 552.26309,112.543272 553.59024,112.543272 C554.475007,112.543272 554.76993,112.994337 554.76993,113.445402 C554.76993,114.197176 554.032624,114.648241 552.410551,114.648241 C544.300186,114.648241 535.010132,114.197176 534.272826,114.197176 C533.830443,114.197176 524.540388,114.648241 520.116553,114.648241 C518.49448,114.648241 517.757174,114.347531 517.757174,113.445402 C517.757174,112.994337 518.052097,112.543272 518.936864,112.543272 C520.264014,112.543272 522.033548,112.242562 523.360699,111.941852 C526.309923,111.340432 527.047228,108.032623 527.637073,103.67233 C528.374379,97.357422 528.374379,85.479381 528.374379,71.0453059 Z" id="PKP"></path>
                </g>
            </g>
        </g>
    </g>
</svg>
