<?xml version="1.0" encoding="UTF-8"?>
<svg width="588px" height="180px" viewBox="0 0 588 180" version="1.1" xmlns="http://www.w3.org/2000/svg" xmlns:xlink="http://www.w3.org/1999/xlink">
    <title>Horizontal - School</title>
    <desc>An official PKP logotype.</desc>
    <g id="Final" stroke="none" stroke-width="1" fill="none" fill-rule="evenodd">
        <g id="Artboard" transform="translate(-95.000000, -2379.000000)" fill="#000000" fill-rule="nonzero">
            <g id="Horizontal---School" transform="translate(95.000000, 2379.000000)">
                <path d="M18.4126984,118.015751 L18.4126984,80.7670739 C18.4126984,47.7512009 18.4126984,41.8252749 17.989418,35.0527882 C17.5661376,27.857021 15.8730159,24.4707776 8.88888889,22.9892961 C7.1957672,22.5660157 3.5978836,22.3543755 1.69312169,22.3543755 C0.846560847,22.3543755 -9.09494702e-13,21.931095 -9.09494702e-13,21.0845342 C-9.09494702e-13,19.8146929 1.05820106,19.3914125 3.38624339,19.3914125 C12.9100529,19.3914125 25.6084656,20.0263331 27.3015873,20.0263331 C31.957672,20.0263331 44.2328042,19.3914125 53.968254,19.3914125 C80.4232804,19.3914125 89.9470899,28.2803014 93.3333333,31.4549046 C97.989418,35.899349 103.915344,45.4231585 103.915344,59.1797723 C103.915344,86.6929998 81.9047619,107.01046 51.8518519,107.01046 C50.7936508,107.01046 48.4656085,107.01046 47.4074074,106.79882 C46.3492063,106.79882 45.0793651,106.375539 45.0793651,105.317338 C45.0793651,103.624217 46.3492063,103.412577 50.7936508,103.412577 C71.3227513,103.412577 87.4074074,89.4443225 87.4074074,67.2221003 C87.4074074,61.931095 86.7724868,47.7512009 75.5555556,36.3226294 C64.3386243,24.894058 51.4285714,25.7406188 46.5608466,25.7406188 C42.962963,25.7406188 39.3650794,26.1638993 37.4603175,27.0104601 C36.1904762,27.4337405 35.7671958,28.915222 35.7671958,31.0316241 L35.7671958,118.015751 C35.7671958,138.333211 35.7671958,155.052788 36.8253968,163.941677 C37.4603175,170.079243 38.7301587,174.735328 45.0793651,175.581889 C48.042328,176.005169 52.6984127,176.42845 54.6031746,176.42845 C55.8730159,176.42845 56.2962963,177.06337 56.2962963,177.698291 C56.2962963,178.756492 55.2380952,179.391412 52.9100529,179.391412 C41.2698413,179.391412 27.9365079,178.756492 26.8783069,178.756492 C26.2433862,178.756492 12.9100529,179.391412 6.56084656,179.391412 C4.23280423,179.391412 3.17460317,178.968132 3.17460317,177.698291 C3.17460317,177.06337 3.5978836,176.42845 4.86772487,176.42845 C6.77248677,176.42845 9.31216931,176.005169 11.2169312,175.581889 C15.4497354,174.735328 16.5079365,170.079243 17.3544974,163.941677 C18.4126984,155.052788 18.4126984,138.333211 18.4126984,118.015751 Z M139.830688,80.7670739 L139.830688,94.3120474 C146.391534,87.9628411 175.174603,57.6982908 188.084656,44.3649575 C200.783069,31.2432643 201.62963,29.1268622 201.62963,26.5871797 C201.62963,24.894058 200.571429,23.2009363 198.878307,22.5660157 C197.396825,21.931095 196.973545,21.5078146 196.973545,20.6612538 C196.973545,19.8146929 198.243386,19.3914125 200.148148,19.3914125 C206.285714,19.3914125 205.650794,20.0263331 212.846561,20.0263331 C219.407407,20.0263331 231.89418,19.3914125 235.280423,19.3914125 C238.243386,19.3914125 238.878307,20.0263331 238.878307,20.872894 C238.878307,21.7194548 238.455026,22.1427352 236.550265,22.3543755 C232.529101,22.7776559 228.719577,23.6242167 225.756614,24.894058 C220.465608,27.0104601 216.444444,29.5501427 203.746032,41.8252749 C185.121693,59.8146929 160.994709,83.7300368 155.492063,89.867603 C168.825397,104.470778 207.343915,143.624217 217.291005,152.936386 C234.645503,169.232682 242.05291,173.888767 252.21164,175.793529 C254.116402,176.216809 256.232804,176.42845 258.349206,176.42845 C260.042328,176.42845 261.312169,176.85173 261.312169,177.909931 C261.312169,178.968132 260.465608,179.391412 258.137566,179.391412 L242.47619,179.391412 C224.063492,179.391412 219.195767,177.06337 209.248677,169.232682 C196.550265,159.285592 158.455026,118.439032 139.830688,96.2168093 L139.830688,118.015751 C139.830688,138.333211 139.830688,155.052788 140.888889,163.941677 C141.52381,170.079243 142.793651,174.735328 149.142857,175.581889 C152.10582,176.005169 156.338624,176.42845 157.608466,176.42845 C159.513228,176.42845 160.148148,177.27501 160.148148,177.909931 C160.148148,178.968132 159.301587,179.391412 156.973545,179.391412 C145.333333,179.391412 132,178.756492 130.941799,178.756492 C129.883598,178.756492 117.396825,179.391412 111.047619,179.391412 C108.719577,179.391412 107.661376,179.179772 107.661376,177.909931 C107.661376,177.27501 108.084656,176.42845 109.989418,176.42845 C111.259259,176.42845 113.587302,176.216809 115.492063,175.793529 C119.724868,174.946968 120.994709,170.079243 121.84127,163.941677 C122.899471,155.052788 122.899471,138.333211 122.899471,118.015751 L122.899471,80.7670739 C122.899471,47.7512009 122.899471,41.8252749 122.47619,35.0527882 C122.05291,27.857021 119.936508,24.2591374 115.280423,23.2009363 C112.952381,22.5660157 109.142857,22.3543755 107.661376,22.3543755 C105.968254,22.3543755 105.333333,21.931095 105.333333,21.0845342 C105.333333,19.8146929 106.391534,19.3914125 108.719577,19.3914125 C115.703704,19.3914125 129.883598,20.0263331 130.941799,20.0263331 C132,20.0263331 145.333333,19.3914125 151.68254,19.3914125 C154.010582,19.3914125 155.068783,19.8146929 155.068783,20.872894 C155.068783,21.7194548 154.645503,22.1427352 152.740741,22.3543755 C150.412698,22.5660157 150.201058,22.5660157 148.084656,22.7776559 C142.37037,23.4125765 140.677249,27.6453807 140.253968,35.0527882 C139.830688,41.8252749 139.830688,47.7512009 139.830688,80.7670739 Z M269.079365,118.015751 L269.079365,80.7670739 C269.079365,47.7512009 269.079365,41.8252749 268.656085,35.0527882 C268.232804,27.857021 266.539683,24.4707776 259.555556,22.9892961 C257.862434,22.5660157 254.26455,22.3543755 252.359788,22.3543755 C251.513228,22.3543755 250.666667,21.931095 250.666667,21.0845342 C250.666667,19.8146929 251.724868,19.3914125 254.05291,19.3914125 C263.57672,19.3914125 276.275132,20.0263331 277.968254,20.0263331 C282.624339,20.0263331 294.899471,19.3914125 304.634921,19.3914125 C331.089947,19.3914125 340.613757,28.2803014 344,31.4549046 C348.656085,35.899349 354.582011,45.4231585 354.582011,59.1797723 C354.582011,86.6929998 332.571429,107.01046 302.518519,107.01046 C301.460317,107.01046 299.132275,107.01046 298.074074,106.79882 C297.015873,106.79882 295.746032,106.375539 295.746032,105.317338 C295.746032,103.624217 297.015873,103.412577 301.460317,103.412577 C321.989418,103.412577 338.074074,89.4443225 338.074074,67.2221003 C338.074074,61.931095 337.439153,47.7512009 326.222222,36.3226294 C315.005291,24.894058 302.095238,25.7406188 297.227513,25.7406188 C293.62963,25.7406188 290.031746,26.1638993 288.126984,27.0104601 C286.857143,27.4337405 286.433862,28.915222 286.433862,31.0316241 L286.433862,118.015751 C286.433862,138.333211 286.433862,155.052788 287.492063,163.941677 C288.126984,170.079243 289.396825,174.735328 295.746032,175.581889 C298.708995,176.005169 303.365079,176.42845 305.269841,176.42845 C306.539683,176.42845 306.962963,177.06337 306.962963,177.698291 C306.962963,178.756492 305.904762,179.391412 303.57672,179.391412 C291.936508,179.391412 278.603175,178.756492 277.544974,178.756492 C276.910053,178.756492 263.57672,179.391412 257.227513,179.391412 C254.899471,179.391412 253.84127,178.968132 253.84127,177.698291 C253.84127,177.06337 254.26455,176.42845 255.534392,176.42845 C257.439153,176.42845 259.978836,176.005169 261.883598,175.581889 C266.116402,174.735328 267.174603,170.079243 268.021164,163.941677 C269.079365,155.052788 269.079365,138.333211 269.079365,118.015751 Z" id="PKP"></path>
                <path d="M385.14625,34.8950011 C385.099583,37.4616806 385.496246,39.6083258 386.33625,41.3350011 C387.176254,43.0616764 388.331243,44.4383293 389.80125,45.4650011 C391.271257,46.4916729 393.009573,47.2266656 395.01625,47.6700011 C397.022927,48.1133367 399.169572,48.3350011 401.45625,48.3350011 C402.762923,48.3350011 404.186242,48.1483363 405.72625,47.7750011 C407.266258,47.4016659 408.701243,46.8066719 410.03125,45.9900011 C411.361257,45.1733304 412.469579,44.1233409 413.35625,42.8400011 C414.242921,41.5566614 414.68625,40.0050102 414.68625,38.1850011 C414.68625,36.7849941 414.371253,35.5716729 413.74125,34.5450011 C413.111247,33.5183293 412.294588,32.6550046 411.29125,31.9550011 C410.287912,31.2549976 409.179589,30.6833367 407.96625,30.2400011 C406.752911,29.7966656 405.562923,29.4350025 404.39625,29.1550011 L393.26625,26.4250011 C391.819576,26.0516659 390.407924,25.5850039 389.03125,25.0250011 C387.654576,24.4649983 386.452922,23.7183391 385.42625,22.7850011 C384.399578,21.8516631 383.571253,20.7083412 382.94125,19.3550011 C382.311247,18.001661 381.99625,16.3450109 381.99625,14.3850011 C381.99625,13.1716617 382.229581,11.7483426 382.69625,10.1150011 C383.162919,8.48165964 384.03791,6.94167504 385.32125,5.49500114 C386.60459,4.04832724 388.366239,2.82333949 390.60625,1.82000114 C392.846261,0.816662794 395.716232,0.315001144 399.21625,0.315001144 C401.689596,0.315001144 404.046239,0.641664544 406.28625,1.29500114 C408.526261,1.94833774 410.486242,2.92832794 412.16625,4.23500114 C413.846258,5.54167434 415.187912,7.16332479 416.19125,9.10000114 C417.194588,11.0366775 417.69625,13.2883216 417.69625,15.8550011 L412.93625,15.8550011 C412.842916,13.9416582 412.411254,12.2733416 411.64125,10.8500011 C410.871246,9.42666069 409.867923,8.23667259 408.63125,7.28000114 C407.394577,6.32332969 405.971258,5.60000359 404.36125,5.11000114 C402.751242,4.61999869 401.059592,4.37500114 399.28625,4.37500114 C397.652909,4.37500114 396.077924,4.54999939 394.56125,4.90000114 C393.044576,5.25000289 391.714589,5.80999729 390.57125,6.58000114 C389.427911,7.35000499 388.506254,8.36499484 387.80625,9.62500114 C387.106247,10.8850074 386.75625,12.4483251 386.75625,14.3150011 C386.75625,15.4816736 386.954581,16.4966635 387.35125,17.3600011 C387.747919,18.2233388 388.296247,18.9583314 388.99625,19.5650011 C389.696254,20.1716708 390.501245,20.6616659 391.41125,21.0350011 C392.321255,21.4083363 393.289578,21.7116666 394.31625,21.9450011 L406.49625,24.9550011 C408.269592,25.4216701 409.937909,25.9933311 411.50125,26.6700011 C413.064591,27.3466712 414.441244,28.1866628 415.63125,29.1900011 C416.821256,30.1933395 417.75458,31.4183272 418.43125,32.8650011 C419.10792,34.311675 419.44625,36.0616575 419.44625,38.1150011 C419.44625,38.6750039 419.387917,39.4216631 419.27125,40.3550011 C419.154583,41.2883391 418.874586,42.2799959 418.43125,43.3300011 C417.987914,44.3800064 417.357921,45.4416624 416.54125,46.5150011 C415.724579,47.5883398 414.60459,48.5566635 413.18125,49.4200011 C411.75791,50.2833388 409.996261,50.9833318 407.89625,51.5200011 C405.79624,52.0566705 403.276265,52.3250011 400.33625,52.3250011 C397.396235,52.3250011 394.666263,51.9866712 392.14625,51.3100011 C389.626237,50.6333311 387.479592,49.5950081 385.70625,48.1950011 C383.932908,46.7949941 382.567921,44.9983454 381.61125,42.8050011 C380.654579,40.6116568 380.246249,37.9750165 380.38625,34.8950011 L385.14625,34.8950011 Z M452.74,26.5650011 C452.13333,23.8583209 451.013342,21.7350088 449.38,20.1950011 C447.746659,18.6549934 445.460015,17.8850011 442.52,17.8850011 C440.41999,17.8850011 438.576675,18.32833 436.99,19.2150011 C435.403325,20.1016722 434.085005,21.2683272 433.035,22.7150011 C431.984995,24.161675 431.191669,25.8066586 430.655,27.6500011 C430.118331,29.4933437 429.85,31.3716582 429.85,33.2850011 C429.85,35.198344 430.118331,37.0766586 430.655,38.9200011 C431.191669,40.7633437 431.984995,42.4083272 433.035,43.8550011 C434.085005,45.301675 435.403325,46.46833 436.99,47.3550011 C438.576675,48.2416722 440.41999,48.6850011 442.52,48.6850011 C443.87334,48.6850011 445.156661,48.428337 446.37,47.9150011 C447.583339,47.4016652 448.656662,46.6900057 449.59,45.7800011 C450.523338,44.8699966 451.29333,43.7850074 451.9,42.5250011 C452.50667,41.2649948 452.879999,39.8883419 453.02,38.3950011 L457.43,38.3950011 C456.82333,42.7816897 455.213346,46.1999889 452.6,48.6500011 C449.986654,51.1000134 446.626687,52.3250011 442.52,52.3250011 C439.766653,52.3250011 437.328344,51.8233395 435.205,50.8200011 C433.081656,49.8166628 431.296674,48.4516764 429.85,46.7250011 C428.403326,44.9983258 427.30667,42.9800127 426.56,40.6700011 C425.81333,38.3599896 425.44,35.8983475 425.44,33.2850011 C425.44,30.6716547 425.81333,28.2100127 426.56,25.9000011 C427.30667,23.5899896 428.403326,21.5716764 429.85,19.8450011 C431.296674,18.1183258 433.081656,16.7416729 435.205,15.7150011 C437.328344,14.6883293 439.766653,14.1750011 442.52,14.1750011 C446.393353,14.1750011 449.671653,15.2016575 452.355,17.2550011 C455.038347,19.3083447 456.636664,22.411647 457.15,26.5650011 L452.74,26.5650011 Z M464.61375,1.36500114 L469.02375,1.36500114 L469.02375,21.4550011 L469.16375,21.4550011 C470.003754,19.2616568 471.497073,17.5000078 473.64375,16.1700011 C475.790427,14.8399945 478.147071,14.1750011 480.71375,14.1750011 C483.233763,14.1750011 485.345408,14.5016645 487.04875,15.1550011 C488.752092,15.8083377 490.117078,16.7299952 491.14375,17.9200011 C492.170422,19.1100071 492.893748,20.5683258 493.31375,22.2950011 C493.733752,24.0216764 493.94375,25.9583237 493.94375,28.1050011 L493.94375,51.3450011 L489.53375,51.3450011 L489.53375,28.8050011 C489.53375,27.2649934 489.393751,25.8300078 489.11375,24.5000011 C488.833749,23.1699945 488.343754,22.015006 487.64375,21.0350011 C486.943747,20.0549962 485.998756,19.2850039 484.80875,18.7250011 C483.618744,18.1649983 482.137092,17.8850011 480.36375,17.8850011 C478.590408,17.8850011 477.015424,18.199998 475.63875,18.8300011 C474.262076,19.4600043 473.095421,20.323329 472.13875,21.4200011 C471.182079,22.5166733 470.435419,23.8233269 469.89875,25.3400011 C469.362081,26.8566754 469.070417,28.5016589 469.02375,30.2750011 L469.02375,51.3450011 L464.61375,51.3450011 L464.61375,1.36500114 Z M518.6275,17.8850011 C516.52749,17.8850011 514.684175,18.32833 513.0975,19.2150011 C511.510825,20.1016722 510.192505,21.2683272 509.1425,22.7150011 C508.092495,24.161675 507.299169,25.8066586 506.7625,27.6500011 C506.225831,29.4933437 505.9575,31.3716582 505.9575,33.2850011 C505.9575,35.198344 506.225831,37.0766586 506.7625,38.9200011 C507.299169,40.7633437 508.092495,42.4083272 509.1425,43.8550011 C510.192505,45.301675 511.510825,46.46833 513.0975,47.3550011 C514.684175,48.2416722 516.52749,48.6850011 518.6275,48.6850011 C520.72751,48.6850011 522.570825,48.2416722 524.1575,47.3550011 C525.744175,46.46833 527.062495,45.301675 528.1125,43.8550011 C529.162505,42.4083272 529.955831,40.7633437 530.4925,38.9200011 C531.029169,37.0766586 531.2975,35.198344 531.2975,33.2850011 C531.2975,31.3716582 531.029169,29.4933437 530.4925,27.6500011 C529.955831,25.8066586 529.162505,24.161675 528.1125,22.7150011 C527.062495,21.2683272 525.744175,20.1016722 524.1575,19.2150011 C522.570825,18.32833 520.72751,17.8850011 518.6275,17.8850011 Z M518.6275,14.1750011 C521.380847,14.1750011 523.819156,14.6883293 525.9425,15.7150011 C528.065844,16.7416729 529.850826,18.1183258 531.2975,19.8450011 C532.744174,21.5716764 533.84083,23.5899896 534.5875,25.9000011 C535.33417,28.2100127 535.7075,30.6716547 535.7075,33.2850011 C535.7075,35.8983475 535.33417,38.3599896 534.5875,40.6700011 C533.84083,42.9800127 532.744174,44.9983258 531.2975,46.7250011 C529.850826,48.4516764 528.065844,49.8166628 525.9425,50.8200011 C523.819156,51.8233395 521.380847,52.3250011 518.6275,52.3250011 C515.874153,52.3250011 513.435844,51.8233395 511.3125,50.8200011 C509.189156,49.8166628 507.404174,48.4516764 505.9575,46.7250011 C504.510826,44.9983258 503.41417,42.9800127 502.6675,40.6700011 C501.92083,38.3599896 501.5475,35.8983475 501.5475,33.2850011 C501.5475,30.6716547 501.92083,28.2100127 502.6675,25.9000011 C503.41417,23.5899896 504.510826,21.5716764 505.9575,19.8450011 C507.404174,18.1183258 509.189156,16.7416729 511.3125,15.7150011 C513.435844,14.6883293 515.874153,14.1750011 518.6275,14.1750011 Z M558.64125,17.8850011 C556.541239,17.8850011 554.697925,18.32833 553.11125,19.2150011 C551.524575,20.1016722 550.206255,21.2683272 549.15625,22.7150011 C548.106245,24.161675 547.312919,25.8066586 546.77625,27.6500011 C546.239581,29.4933437 545.97125,31.3716582 545.97125,33.2850011 C545.97125,35.198344 546.239581,37.0766586 546.77625,38.9200011 C547.312919,40.7633437 548.106245,42.4083272 549.15625,43.8550011 C550.206255,45.301675 551.524575,46.46833 553.11125,47.3550011 C554.697925,48.2416722 556.541239,48.6850011 558.64125,48.6850011 C560.74126,48.6850011 562.584575,48.2416722 564.17125,47.3550011 C565.757925,46.46833 567.076245,45.301675 568.12625,43.8550011 C569.176255,42.4083272 569.969581,40.7633437 570.50625,38.9200011 C571.042919,37.0766586 571.31125,35.198344 571.31125,33.2850011 C571.31125,31.3716582 571.042919,29.4933437 570.50625,27.6500011 C569.969581,25.8066586 569.176255,24.161675 568.12625,22.7150011 C567.076245,21.2683272 565.757925,20.1016722 564.17125,19.2150011 C562.584575,18.32833 560.74126,17.8850011 558.64125,17.8850011 Z M558.64125,14.1750011 C561.394597,14.1750011 563.832906,14.6883293 565.95625,15.7150011 C568.079594,16.7416729 569.864576,18.1183258 571.31125,19.8450011 C572.757924,21.5716764 573.85458,23.5899896 574.60125,25.9000011 C575.34792,28.2100127 575.72125,30.6716547 575.72125,33.2850011 C575.72125,35.8983475 575.34792,38.3599896 574.60125,40.6700011 C573.85458,42.9800127 572.757924,44.9983258 571.31125,46.7250011 C569.864576,48.4516764 568.079594,49.8166628 565.95625,50.8200011 C563.832906,51.8233395 561.394597,52.3250011 558.64125,52.3250011 C555.887903,52.3250011 553.449594,51.8233395 551.32625,50.8200011 C549.202906,49.8166628 547.417924,48.4516764 545.97125,46.7250011 C544.524576,44.9983258 543.42792,42.9800127 542.68125,40.6700011 C541.93458,38.3599896 541.56125,35.8983475 541.56125,33.2850011 C541.56125,30.6716547 541.93458,28.2100127 542.68125,25.9000011 C543.42792,23.5899896 544.524576,21.5716764 545.97125,19.8450011 C547.417924,18.1183258 549.202906,16.7416729 551.32625,15.7150011 C553.449594,14.6883293 555.887903,14.1750011 558.64125,14.1750011 Z M583.465,1.36500114 L587.875,1.36500114 L587.875,51.3450011 L583.465,51.3450011 L583.465,1.36500114 Z" id="School"></path>
            </g>
        </g>
    </g>
</svg>
