<?xml version="1.0" encoding="UTF-8"?>
<svg width="692px" height="180px" viewBox="0 0 692 180" version="1.1" xmlns="http://www.w3.org/2000/svg" xmlns:xlink="http://www.w3.org/1999/xlink">
    <title>Horizontal - Publishing services</title>
    <desc>An official PKP logotype.</desc>
    <g id="Final" stroke="none" stroke-width="1" fill="none" fill-rule="evenodd">
        <g id="Artboard" transform="translate(-95.000000, -2049.000000)" fill="#000000" fill-rule="nonzero">
            <g id="Horizontal---Publishing-services" transform="translate(95.000000, 2049.000000)">
                <path d="M18.4126984,118.015751 L18.4126984,80.7670739 C18.4126984,47.7512009 18.4126984,41.8252749 17.989418,35.0527882 C17.5661376,27.857021 15.8730159,24.4707776 8.88888889,22.9892961 C7.1957672,22.5660157 3.5978836,22.3543755 1.69312169,22.3543755 C0.846560847,22.3543755 -9.09494702e-13,21.931095 -9.09494702e-13,21.0845342 C-9.09494702e-13,19.8146929 1.05820106,19.3914125 3.38624339,19.3914125 C12.9100529,19.3914125 25.6084656,20.0263331 27.3015873,20.0263331 C31.957672,20.0263331 44.2328042,19.3914125 53.968254,19.3914125 C80.4232804,19.3914125 89.9470899,28.2803014 93.3333333,31.4549046 C97.989418,35.899349 103.915344,45.4231585 103.915344,59.1797723 C103.915344,86.6929998 81.9047619,107.01046 51.8518519,107.01046 C50.7936508,107.01046 48.4656085,107.01046 47.4074074,106.79882 C46.3492063,106.79882 45.0793651,106.375539 45.0793651,105.317338 C45.0793651,103.624217 46.3492063,103.412577 50.7936508,103.412577 C71.3227513,103.412577 87.4074074,89.4443225 87.4074074,67.2221003 C87.4074074,61.931095 86.7724868,47.7512009 75.5555556,36.3226294 C64.3386243,24.894058 51.4285714,25.7406188 46.5608466,25.7406188 C42.962963,25.7406188 39.3650794,26.1638993 37.4603175,27.0104601 C36.1904762,27.4337405 35.7671958,28.915222 35.7671958,31.0316241 L35.7671958,118.015751 C35.7671958,138.333211 35.7671958,155.052788 36.8253968,163.941677 C37.4603175,170.079243 38.7301587,174.735328 45.0793651,175.581889 C48.042328,176.005169 52.6984127,176.42845 54.6031746,176.42845 C55.8730159,176.42845 56.2962963,177.06337 56.2962963,177.698291 C56.2962963,178.756492 55.2380952,179.391412 52.9100529,179.391412 C41.2698413,179.391412 27.9365079,178.756492 26.8783069,178.756492 C26.2433862,178.756492 12.9100529,179.391412 6.56084656,179.391412 C4.23280423,179.391412 3.17460317,178.968132 3.17460317,177.698291 C3.17460317,177.06337 3.5978836,176.42845 4.86772487,176.42845 C6.77248677,176.42845 9.31216931,176.005169 11.2169312,175.581889 C15.4497354,174.735328 16.5079365,170.079243 17.3544974,163.941677 C18.4126984,155.052788 18.4126984,138.333211 18.4126984,118.015751 Z M139.830688,80.7670739 L139.830688,94.3120474 C146.391534,87.9628411 175.174603,57.6982908 188.084656,44.3649575 C200.783069,31.2432643 201.62963,29.1268622 201.62963,26.5871797 C201.62963,24.894058 200.571429,23.2009363 198.878307,22.5660157 C197.396825,21.931095 196.973545,21.5078146 196.973545,20.6612538 C196.973545,19.8146929 198.243386,19.3914125 200.148148,19.3914125 C206.285714,19.3914125 205.650794,20.0263331 212.846561,20.0263331 C219.407407,20.0263331 231.89418,19.3914125 235.280423,19.3914125 C238.243386,19.3914125 238.878307,20.0263331 238.878307,20.872894 C238.878307,21.7194548 238.455026,22.1427352 236.550265,22.3543755 C232.529101,22.7776559 228.719577,23.6242167 225.756614,24.894058 C220.465608,27.0104601 216.444444,29.5501427 203.746032,41.8252749 C185.121693,59.8146929 160.994709,83.7300368 155.492063,89.867603 C168.825397,104.470778 207.343915,143.624217 217.291005,152.936386 C234.645503,169.232682 242.05291,173.888767 252.21164,175.793529 C254.116402,176.216809 256.232804,176.42845 258.349206,176.42845 C260.042328,176.42845 261.312169,176.85173 261.312169,177.909931 C261.312169,178.968132 260.465608,179.391412 258.137566,179.391412 L242.47619,179.391412 C224.063492,179.391412 219.195767,177.06337 209.248677,169.232682 C196.550265,159.285592 158.455026,118.439032 139.830688,96.2168093 L139.830688,118.015751 C139.830688,138.333211 139.830688,155.052788 140.888889,163.941677 C141.52381,170.079243 142.793651,174.735328 149.142857,175.581889 C152.10582,176.005169 156.338624,176.42845 157.608466,176.42845 C159.513228,176.42845 160.148148,177.27501 160.148148,177.909931 C160.148148,178.968132 159.301587,179.391412 156.973545,179.391412 C145.333333,179.391412 132,178.756492 130.941799,178.756492 C129.883598,178.756492 117.396825,179.391412 111.047619,179.391412 C108.719577,179.391412 107.661376,179.179772 107.661376,177.909931 C107.661376,177.27501 108.084656,176.42845 109.989418,176.42845 C111.259259,176.42845 113.587302,176.216809 115.492063,175.793529 C119.724868,174.946968 120.994709,170.079243 121.84127,163.941677 C122.899471,155.052788 122.899471,138.333211 122.899471,118.015751 L122.899471,80.7670739 C122.899471,47.7512009 122.899471,41.8252749 122.47619,35.0527882 C122.05291,27.857021 119.936508,24.2591374 115.280423,23.2009363 C112.952381,22.5660157 109.142857,22.3543755 107.661376,22.3543755 C105.968254,22.3543755 105.333333,21.931095 105.333333,21.0845342 C105.333333,19.8146929 106.391534,19.3914125 108.719577,19.3914125 C115.703704,19.3914125 129.883598,20.0263331 130.941799,20.0263331 C132,20.0263331 145.333333,19.3914125 151.68254,19.3914125 C154.010582,19.3914125 155.068783,19.8146929 155.068783,20.872894 C155.068783,21.7194548 154.645503,22.1427352 152.740741,22.3543755 C150.412698,22.5660157 150.201058,22.5660157 148.084656,22.7776559 C142.37037,23.4125765 140.677249,27.6453807 140.253968,35.0527882 C139.830688,41.8252749 139.830688,47.7512009 139.830688,80.7670739 Z M269.079365,118.015751 L269.079365,80.7670739 C269.079365,47.7512009 269.079365,41.8252749 268.656085,35.0527882 C268.232804,27.857021 266.539683,24.4707776 259.555556,22.9892961 C257.862434,22.5660157 254.26455,22.3543755 252.359788,22.3543755 C251.513228,22.3543755 250.666667,21.931095 250.666667,21.0845342 C250.666667,19.8146929 251.724868,19.3914125 254.05291,19.3914125 C263.57672,19.3914125 276.275132,20.0263331 277.968254,20.0263331 C282.624339,20.0263331 294.899471,19.3914125 304.634921,19.3914125 C331.089947,19.3914125 340.613757,28.2803014 344,31.4549046 C348.656085,35.899349 354.582011,45.4231585 354.582011,59.1797723 C354.582011,86.6929998 332.571429,107.01046 302.518519,107.01046 C301.460317,107.01046 299.132275,107.01046 298.074074,106.79882 C297.015873,106.79882 295.746032,106.375539 295.746032,105.317338 C295.746032,103.624217 297.015873,103.412577 301.460317,103.412577 C321.989418,103.412577 338.074074,89.4443225 338.074074,67.2221003 C338.074074,61.931095 337.439153,47.7512009 326.222222,36.3226294 C315.005291,24.894058 302.095238,25.7406188 297.227513,25.7406188 C293.62963,25.7406188 290.031746,26.1638993 288.126984,27.0104601 C286.857143,27.4337405 286.433862,28.915222 286.433862,31.0316241 L286.433862,118.015751 C286.433862,138.333211 286.433862,155.052788 287.492063,163.941677 C288.126984,170.079243 289.396825,174.735328 295.746032,175.581889 C298.708995,176.005169 303.365079,176.42845 305.269841,176.42845 C306.539683,176.42845 306.962963,177.06337 306.962963,177.698291 C306.962963,178.756492 305.904762,179.391412 303.57672,179.391412 C291.936508,179.391412 278.603175,178.756492 277.544974,178.756492 C276.910053,178.756492 263.57672,179.391412 257.227513,179.391412 C254.899471,179.391412 253.84127,178.968132 253.84127,177.698291 C253.84127,177.06337 254.26455,176.42845 255.534392,176.42845 C257.439153,176.42845 259.978836,176.005169 261.883598,175.581889 C266.116402,174.735328 267.174603,170.079243 268.021164,163.941677 C269.079365,155.052788 269.079365,138.333211 269.079365,118.015751 Z" id="PKP"></path>
                <path d="M387.66625,24.8150011 L404.04625,24.8150011 C407.3596,24.8150011 410.042906,23.9750095 412.09625,22.2950011 C414.149594,20.6149927 415.17625,18.0483517 415.17625,14.5950011 C415.17625,11.1416505 414.149594,8.57500954 412.09625,6.89500114 C410.042906,5.21499274 407.3596,4.37500114 404.04625,4.37500114 L387.66625,4.37500114 L387.66625,24.8150011 Z M382.90625,0.315001144 L405.09625,0.315001144 C407.336261,0.315001144 409.366241,0.629997994 411.18625,1.26000114 C413.006259,1.89000429 414.569577,2.82332829 415.87625,4.06000114 C417.182923,5.29667399 418.186246,6.80165894 418.88625,8.57500114 C419.586254,10.3483433 419.93625,12.3549899 419.93625,14.5950011 C419.93625,16.8350123 419.586254,18.8416589 418.88625,20.6150011 C418.186246,22.3883433 417.182923,23.8933283 415.87625,25.1300011 C414.569577,26.366674 413.006259,27.299998 411.18625,27.9300011 C409.366241,28.5600043 407.336261,28.8750011 405.09625,28.8750011 L387.66625,28.8750011 L387.66625,50.2950011 L382.90625,50.2950011 L382.90625,0.315001144 Z M456.52,50.2950011 L452.46,50.2950011 L452.46,43.7850011 L452.32,43.7850011 C451.153328,46.2116799 449.461678,48.0666614 447.245,49.3500011 C445.028322,50.6333409 442.56668,51.2750011 439.86,51.2750011 C437.573322,51.2750011 435.625008,50.9600043 434.015,50.3300011 C432.404992,49.699998 431.098338,48.8016736 430.095,47.6350011 C429.091662,46.4683286 428.356669,45.0450095 427.89,43.3650011 C427.423331,41.6849927 427.19,39.7716785 427.19,37.6250011 L427.19,14.1750011 L431.6,14.1750011 L431.6,37.6950011 C431.693334,40.9616841 432.45166,43.4349927 433.875,45.1150011 C435.29834,46.7950095 437.759983,47.6350011 441.26,47.6350011 C443.173343,47.6350011 444.80666,47.2266719 446.16,46.4100011 C447.51334,45.5933304 448.633329,44.5083412 449.52,43.1550011 C450.406671,41.801661 451.059998,40.2500099 451.48,38.5000011 C451.900002,36.7499924 452.11,34.9650102 452.11,33.1450011 L452.11,14.1750011 L456.52,14.1750011 L456.52,50.2950011 Z M465.94375,0.315001144 L470.35375,0.315001144 L470.35375,21.0350011 L470.49375,21.0350011 C470.960419,19.7283279 471.625412,18.585006 472.48875,17.6050011 C473.352088,16.6249962 474.343744,15.7966712 475.46375,15.1200011 C476.583756,14.4433311 477.797077,13.9416694 479.10375,13.6150011 C480.410423,13.2883328 481.717077,13.1250011 483.02375,13.1250011 C485.777097,13.1250011 488.16874,13.6383293 490.19875,14.6650011 C492.22876,15.6916729 493.92041,17.0799924 495.27375,18.8300011 C496.62709,20.5800099 497.630413,22.6099896 498.28375,24.9200011 C498.937087,27.2300127 499.26375,29.6683216 499.26375,32.2350011 C499.26375,34.8016806 498.937087,37.2399896 498.28375,39.5500011 C497.630413,41.8600127 496.62709,43.8899924 495.27375,45.6400011 C493.92041,47.3900099 492.22876,48.7666628 490.19875,49.7700011 C488.16874,50.7733395 485.777097,51.2750011 483.02375,51.2750011 C480.083735,51.2750011 477.458762,50.5983412 475.14875,49.2450011 C472.838738,47.891661 471.170422,45.9550137 470.14375,43.4350011 L470.00375,43.4350011 L470.00375,50.2950011 L465.94375,50.2950011 L465.94375,0.315001144 Z M494.85375,32.2350011 C494.85375,30.3683251 494.632086,28.5133437 494.18875,26.6700011 C493.745414,24.8266586 493.045421,23.181675 492.08875,21.7350011 C491.132079,20.2883272 489.907091,19.1100057 488.41375,18.2000011 C486.920409,17.2899966 485.123761,16.8350011 483.02375,16.8350011 C480.690405,16.8350011 478.718758,17.2899966 477.10875,18.2000011 C475.498742,19.1100057 474.192088,20.2883272 473.18875,21.7350011 C472.185412,23.181675 471.462086,24.8266586 471.01875,26.6700011 C470.575414,28.5133437 470.35375,30.3683251 470.35375,32.2350011 C470.35375,34.1016771 470.575414,35.9566586 471.01875,37.8000011 C471.462086,39.6433437 472.185412,41.2883272 473.18875,42.7350011 C474.192088,44.181675 475.498742,45.3599966 477.10875,46.2700011 C478.718758,47.1800057 480.690405,47.6350011 483.02375,47.6350011 C485.123761,47.6350011 486.920409,47.1800057 488.41375,46.2700011 C489.907091,45.3599966 491.132079,44.181675 492.08875,42.7350011 C493.045421,41.2883272 493.745414,39.6433437 494.18875,37.8000011 C494.632086,35.9566586 494.85375,34.1016771 494.85375,32.2350011 Z M507.2875,0.315001144 L511.6975,0.315001144 L511.6975,50.2950011 L507.2875,50.2950011 L507.2875,0.315001144 Z M521.33125,0.315001144 L525.74125,0.315001144 L525.74125,7.38500114 L521.33125,7.38500114 L521.33125,0.315001144 Z M521.33125,14.1750011 L525.74125,14.1750011 L525.74125,50.2950011 L521.33125,50.2950011 L521.33125,14.1750011 Z M556.935,24.7450011 C556.888333,23.391661 556.608336,22.2133395 556.095,21.2100011 C555.581664,20.2066628 554.893338,19.3783377 554.03,18.7250011 C553.166662,18.0716645 552.175006,17.593336 551.055,17.2900011 C549.934994,16.9866663 548.745006,16.8350011 547.485,16.8350011 C546.504995,16.8350011 545.513338,16.9400001 544.51,17.1500011 C543.506662,17.3600022 542.585004,17.7099987 541.745,18.2000011 C540.904996,18.6900036 540.228336,19.3316638 539.715,20.1250011 C539.201664,20.9183384 538.945,21.8983286 538.945,23.0650011 C538.945,24.045006 539.189998,24.8733311 539.68,25.5500011 C540.170002,26.2266712 540.78833,26.7983321 541.535,27.2650011 C542.28167,27.7316701 543.098329,28.1166663 543.985,28.4200011 C544.871671,28.723336 545.68833,28.9683335 546.435,29.1550011 L552.315,30.4850011 C553.575006,30.6716687 554.823327,31.0099987 556.06,31.5000011 C557.296673,31.9900036 558.393329,32.6316638 559.35,33.4250011 C560.306671,34.2183384 561.08833,35.1983286 561.695,36.3650011 C562.30167,37.5316736 562.605,38.9083265 562.605,40.4950011 C562.605,42.4550109 562.161671,44.1233276 561.275,45.5000011 C560.388329,46.8766747 559.256674,47.9966635 557.88,48.8600011 C556.503326,49.7233388 554.951675,50.3416659 553.225,50.7150011 C551.498325,51.0883363 549.795008,51.2750011 548.115,51.2750011 C543.868312,51.2750011 540.42668,50.2716778 537.79,48.2650011 C535.15332,46.2583244 533.648335,43.0383566 533.275,38.6050011 L537.685,38.6050011 C537.871668,41.5916827 538.956657,43.8433269 540.94,45.3600011 C542.923343,46.8766754 545.384985,47.6350011 548.325,47.6350011 C549.398339,47.6350011 550.506661,47.5183356 551.65,47.2850011 C552.793339,47.0516666 553.854995,46.6550039 554.835,46.0950011 C555.815005,45.5349983 556.619997,44.8233388 557.25,43.9600011 C557.880003,43.0966635 558.195,42.0350074 558.195,40.7750011 C558.195,39.7016624 557.973336,38.8033381 557.53,38.0800011 C557.086664,37.3566642 556.49167,36.7500036 555.745,36.2600011 C554.99833,35.7699987 554.146671,35.3616694 553.19,35.0350011 C552.233329,34.7083328 551.265005,34.4283356 550.285,34.1950011 L544.615,32.9350011 C543.168326,32.5616659 541.838339,32.1300036 540.625,31.6400011 C539.411661,31.1499987 538.350005,30.5433381 537.44,29.8200011 C536.529995,29.0966642 535.818336,28.2100064 535.305,27.1600011 C534.791664,26.1099959 534.535,24.8150088 534.535,23.2750011 C534.535,21.454992 534.943329,19.8916743 535.76,18.5850011 C536.576671,17.2783279 537.638327,16.2283384 538.945,15.4350011 C540.251673,14.6416638 541.709992,14.0583363 543.32,13.6850011 C544.930008,13.3116659 546.528325,13.1250011 548.115,13.1250011 C549.935009,13.1250011 551.626659,13.3583321 553.19,13.8250011 C554.753341,14.2916701 556.129994,15.0149962 557.32,15.9950011 C558.510006,16.975006 559.454997,18.1883272 560.155,19.6350011 C560.855003,21.081675 561.251666,22.7849913 561.345,24.7450011 L556.935,24.7450011 Z M569.99875,0.315001144 L574.40875,0.315001144 L574.40875,20.4050011 L574.54875,20.4050011 C575.388754,18.2116568 576.882073,16.4500078 579.02875,15.1200011 C581.175427,13.7899945 583.53207,13.1250011 586.09875,13.1250011 C588.618763,13.1250011 590.730408,13.4516645 592.43375,14.1050011 C594.137092,14.7583377 595.502078,15.6799952 596.52875,16.8700011 C597.555422,18.0600071 598.278748,19.5183258 598.69875,21.2450011 C599.118752,22.9716764 599.32875,24.9083237 599.32875,27.0550011 L599.32875,50.2950011 L594.91875,50.2950011 L594.91875,27.7550011 C594.91875,26.2149934 594.778751,24.7800078 594.49875,23.4500011 C594.218749,22.1199945 593.728754,20.965006 593.02875,19.9850011 C592.328746,19.0049962 591.383756,18.2350039 590.19375,17.6750011 C589.003744,17.1149983 587.522092,16.8350011 585.74875,16.8350011 C583.975408,16.8350011 582.400424,17.149998 581.02375,17.7800011 C579.647076,18.4100043 578.480421,19.273329 577.52375,20.3700011 C576.567079,21.4666733 575.820419,22.7733269 575.28375,24.2900011 C574.747081,25.8066754 574.455417,27.4516589 574.40875,29.2250011 L574.40875,50.2950011 L569.99875,50.2950011 L569.99875,0.315001144 Z M608.8225,0.315001144 L613.2325,0.315001144 L613.2325,7.38500114 L608.8225,7.38500114 L608.8225,0.315001144 Z M608.8225,14.1750011 L613.2325,14.1750011 L613.2325,50.2950011 L608.8225,50.2950011 L608.8225,14.1750011 Z M622.72625,14.1750011 L627.13625,14.1750011 L627.13625,20.4050011 L627.27625,20.4050011 C628.116254,18.2116568 629.609573,16.4500078 631.75625,15.1200011 C633.902927,13.7899945 636.25957,13.1250011 638.82625,13.1250011 C641.346263,13.1250011 643.457908,13.4516645 645.16125,14.1050011 C646.864592,14.7583377 648.229578,15.6799952 649.25625,16.8700011 C650.282922,18.0600071 651.006248,19.5183258 651.42625,21.2450011 C651.846252,22.9716764 652.05625,24.9083237 652.05625,27.0550011 L652.05625,50.2950011 L647.64625,50.2950011 L647.64625,27.7550011 C647.64625,26.2149934 647.506251,24.7800078 647.22625,23.4500011 C646.946249,22.1199945 646.456254,20.965006 645.75625,19.9850011 C645.056246,19.0049962 644.111256,18.2350039 642.92125,17.6750011 C641.731244,17.1149983 640.249592,16.8350011 638.47625,16.8350011 C636.702908,16.8350011 635.127924,17.149998 633.75125,17.7800011 C632.374576,18.4100043 631.207921,19.273329 630.25125,20.3700011 C629.294579,21.4666733 628.547919,22.7733269 628.01125,24.2900011 C627.474581,25.8066754 627.182917,27.4516589 627.13625,29.2250011 L627.13625,50.2950011 L622.72625,50.2950011 L622.72625,14.1750011 Z M692,47.3550011 C692,50.0150144 691.708336,52.4183237 691.125,54.5650011 C690.541664,56.7116785 689.620006,58.5316603 688.36,60.0250011 C687.099994,61.5183419 685.45501,62.6616638 683.425,63.4550011 C681.39499,64.2483384 678.910015,64.6450011 675.97,64.6450011 C674.149991,64.6450011 672.376675,64.4350032 670.65,64.0150011 C668.923325,63.594999 667.371674,62.9416722 665.995,62.0550011 C664.618326,61.16833 663.475005,60.0366747 662.565,58.6600011 C661.654995,57.2833276 661.130001,55.638344 660.99,53.7250011 L665.4,53.7250011 C665.633335,55.0783412 666.08833,56.2099966 666.765,57.1200011 C667.44167,58.0300057 668.258329,58.7649983 669.215,59.3250011 C670.171671,59.8850039 671.233328,60.2933332 672.4,60.5500011 C673.566673,60.8066691 674.756661,60.9350011 675.97,60.9350011 C680.076687,60.9350011 683.039991,59.7683461 684.86,57.4350011 C686.680009,55.1016561 687.59,51.7416897 687.59,47.3550011 L687.59,42.4550011 L687.45,42.4550011 C686.423328,44.6950123 684.918343,46.491661 682.935,47.8450011 C680.951657,49.1983412 678.630013,49.8750011 675.97,49.8750011 C673.076652,49.8750011 670.603344,49.3966726 668.55,48.4400011 C666.496656,47.4833297 664.805007,46.1650095 663.475,44.4850011 C662.144993,42.8049927 661.17667,40.8333458 660.57,38.5700011 C659.96333,36.3066565 659.66,33.8916806 659.66,31.3250011 C659.66,28.8516554 660.021663,26.5066789 660.745,24.2900011 C661.468337,22.0733234 662.518326,20.1366761 663.895,18.4800011 C665.271674,16.8233262 666.97499,15.5166726 669.005,14.5600011 C671.03501,13.6033297 673.356654,13.1250011 675.97,13.1250011 C677.32334,13.1250011 678.594994,13.3116659 679.785,13.6850011 C680.975006,14.0583363 682.059995,14.5833311 683.04,15.2600011 C684.020005,15.9366712 684.894996,16.71833 685.665,17.6050011 C686.435004,18.4916722 687.029998,19.4249962 687.45,20.4050011 L687.59,20.4050011 L687.59,14.1750011 L692,14.1750011 L692,47.3550011 Z M675.97,46.1650011 C677.883343,46.1650011 679.563326,45.7566719 681.01,44.9400011 C682.456674,44.1233304 683.669995,43.0500078 684.65,41.7200011 C685.630005,40.3899945 686.364998,38.8616764 686.855,37.1350011 C687.345002,35.4083258 687.59,33.6350102 687.59,31.8150011 C687.59,30.0416589 687.380002,28.2683433 686.96,26.4950011 C686.539998,24.7216589 685.863338,23.111675 684.93,21.6650011 C683.996662,20.2183272 682.795007,19.0516722 681.325,18.1650011 C679.854993,17.27833 678.070011,16.8350011 675.97,16.8350011 C673.869989,16.8350011 672.073341,17.2666635 670.58,18.1300011 C669.086659,18.9933388 667.850005,20.1249941 666.87,21.5250011 C665.889995,22.9250081 665.178336,24.5233255 664.735,26.3200011 C664.291664,28.1166768 664.07,29.9483251 664.07,31.8150011 C664.07,33.6350102 664.303331,35.4083258 664.77,37.1350011 C665.236669,38.8616764 665.959995,40.3899945 666.94,41.7200011 C667.920005,43.0500078 669.156659,44.1233304 670.65,44.9400011 C672.143341,45.7566719 673.916656,46.1650011 675.97,46.1650011 Z M385.14625,97.8450011 C385.099583,100.411681 385.496246,102.558326 386.33625,104.285001 C387.176254,106.011676 388.331243,107.388329 389.80125,108.415001 C391.271257,109.441673 393.009573,110.176666 395.01625,110.620001 C397.022927,111.063337 399.169572,111.285001 401.45625,111.285001 C402.762923,111.285001 404.186242,111.098336 405.72625,110.725001 C407.266258,110.351666 408.701243,109.756672 410.03125,108.940001 C411.361257,108.12333 412.469579,107.073341 413.35625,105.790001 C414.242921,104.506661 414.68625,102.95501 414.68625,101.135001 C414.68625,99.7349941 414.371253,98.5216729 413.74125,97.4950011 C413.111247,96.4683293 412.294588,95.6050046 411.29125,94.9050011 C410.287912,94.2049976 409.179589,93.6333367 407.96625,93.1900011 C406.752911,92.7466656 405.562923,92.3850025 404.39625,92.1050011 L393.26625,89.3750011 C391.819576,89.0016659 390.407924,88.5350039 389.03125,87.9750011 C387.654576,87.4149983 386.452922,86.6683391 385.42625,85.7350011 C384.399578,84.8016631 383.571253,83.6583412 382.94125,82.3050011 C382.311247,80.951661 381.99625,79.2950109 381.99625,77.3350011 C381.99625,76.1216617 382.229581,74.6983426 382.69625,73.0650011 C383.162919,71.4316596 384.03791,69.891675 385.32125,68.4450011 C386.60459,66.9983272 388.366239,65.7733395 390.60625,64.7700011 C392.846261,63.7666628 395.716232,63.2650011 399.21625,63.2650011 C401.689596,63.2650011 404.046239,63.5916645 406.28625,64.2450011 C408.526261,64.8983377 410.486242,65.8783279 412.16625,67.1850011 C413.846258,68.4916743 415.187912,70.1133248 416.19125,72.0500011 C417.194588,73.9866775 417.69625,76.2383216 417.69625,78.8050011 L412.93625,78.8050011 C412.842916,76.8916582 412.411254,75.2233416 411.64125,73.8000011 C410.871246,72.3766607 409.867923,71.1866726 408.63125,70.2300011 C407.394577,69.2733297 405.971258,68.5500036 404.36125,68.0600011 C402.751242,67.5699987 401.059592,67.3250011 399.28625,67.3250011 C397.652909,67.3250011 396.077924,67.4999994 394.56125,67.8500011 C393.044576,68.2000029 391.714589,68.7599973 390.57125,69.5300011 C389.427911,70.300005 388.506254,71.3149948 387.80625,72.5750011 C387.106247,73.8350074 386.75625,75.3983251 386.75625,77.2650011 C386.75625,78.4316736 386.954581,79.4466635 387.35125,80.3100011 C387.747919,81.1733388 388.296247,81.9083314 388.99625,82.5150011 C389.696254,83.1216708 390.501245,83.6116659 391.41125,83.9850011 C392.321255,84.3583363 393.289578,84.6616666 394.31625,84.8950011 L406.49625,87.9050011 C408.269592,88.3716701 409.937909,88.9433311 411.50125,89.6200011 C413.064591,90.2966712 414.441244,91.1366628 415.63125,92.1400011 C416.821256,93.1433395 417.75458,94.3683272 418.43125,95.8150011 C419.10792,97.261675 419.44625,99.0116575 419.44625,101.065001 C419.44625,101.625004 419.387917,102.371663 419.27125,103.305001 C419.154583,104.238339 418.874586,105.229996 418.43125,106.280001 C417.987914,107.330006 417.357921,108.391662 416.54125,109.465001 C415.724579,110.53834 414.60459,111.506663 413.18125,112.370001 C411.75791,113.233339 409.996261,113.933332 407.89625,114.470001 C405.79624,115.00667 403.276265,115.275001 400.33625,115.275001 C397.396235,115.275001 394.666263,114.936671 392.14625,114.260001 C389.626237,113.583331 387.479592,112.545008 385.70625,111.145001 C383.932908,109.744994 382.567921,107.948345 381.61125,105.755001 C380.654579,103.561657 380.246249,100.925017 380.38625,97.8450011 L385.14625,97.8450011 Z M453.23,93.7150011 C453.183333,92.0349927 452.891669,90.4250088 452.355,88.8850011 C451.818331,87.3449934 451.060005,85.9800071 450.08,84.7900011 C449.099995,83.5999952 447.910007,82.6433381 446.51,81.9200011 C445.109993,81.1966642 443.523342,80.8350011 441.75,80.8350011 C439.929991,80.8350011 438.320007,81.1966642 436.92,81.9200011 C435.519993,82.6433381 434.330005,83.5999952 433.35,84.7900011 C432.369995,85.9800071 431.588336,87.35666 431.005,88.9200011 C430.421664,90.4833423 430.036668,92.0816596 429.85,93.7150011 L453.23,93.7150011 Z M429.85,97.4250011 C429.85,99.0116757 430.071664,100.656659 430.515,102.360001 C430.958336,104.063343 431.669995,105.591661 432.65,106.945001 C433.630005,108.298341 434.866659,109.41833 436.36,110.305001 C437.853341,111.191672 439.64999,111.635001 441.75,111.635001 C444.970016,111.635001 447.489991,110.79501 449.31,109.115001 C451.130009,107.434993 452.389997,105.195015 453.09,102.395001 L457.5,102.395001 C456.566662,106.501688 454.851679,109.67499 452.355,111.915001 C449.858321,114.155012 446.323356,115.275001 441.75,115.275001 C438.903319,115.275001 436.441677,114.773339 434.365,113.770001 C432.288323,112.766663 430.596673,111.39001 429.29,109.640001 C427.983327,107.889992 427.015003,105.860013 426.385,103.550001 C425.754997,101.23999 425.44,98.8016806 425.44,96.2350011 C425.44,93.8549892 425.754997,91.5216792 426.385,89.2350011 C427.015003,86.948323 427.983327,84.9066768 429.29,83.1100011 C430.596673,81.3133255 432.288323,79.8666733 434.365,78.7700011 C436.441677,77.673329 438.903319,77.1250011 441.75,77.1250011 C444.643348,77.1250011 447.116656,77.7083286 449.17,78.8750011 C451.223344,80.0416736 452.89166,81.5699917 454.175,83.4600011 C455.45834,85.3500106 456.379997,87.5199889 456.94,89.9700011 C457.500003,92.4200134 457.733334,94.9049885 457.64,97.4250011 L429.85,97.4250011 Z M464.68375,78.1750011 L468.74375,78.1750011 L468.74375,86.6450011 L468.88375,86.6450011 C470.003756,83.7049864 471.742072,81.4416757 474.09875,79.8550011 C476.455428,78.2683265 479.267067,77.5450004 482.53375,77.6850011 L482.53375,82.0950011 C480.527073,82.0016673 478.707091,82.269998 477.07375,82.9000011 C475.440409,83.5300043 474.028756,84.4283286 472.83875,85.5950011 C471.648744,86.7616736 470.727087,88.1499931 470.07375,89.7600011 C469.420413,91.3700092 469.09375,93.1316582 469.09375,95.0450011 L469.09375,114.295001 L464.68375,114.295001 L464.68375,78.1750011 Z M483.7675,78.1750011 L488.6675,78.1750011 L500.0075,109.885001 L500.1475,109.885001 L511.3475,78.1750011 L515.8975,78.1750011 L502.3875,114.295001 L497.6975,114.295001 L483.7675,78.1750011 Z M521.40125,64.3150011 L525.81125,64.3150011 L525.81125,71.3850011 L521.40125,71.3850011 L521.40125,64.3150011 Z M521.40125,78.1750011 L525.81125,78.1750011 L525.81125,114.295001 L521.40125,114.295001 L521.40125,78.1750011 Z M560.855,89.5150011 C560.24833,86.8083209 559.128341,84.6850088 557.495,83.1450011 C555.861659,81.6049934 553.575015,80.8350011 550.635,80.8350011 C548.53499,80.8350011 546.691675,81.27833 545.105,82.1650011 C543.518325,83.0516722 542.200005,84.2183272 541.15,85.6650011 C540.099995,87.111675 539.306669,88.7566586 538.77,90.6000011 C538.233331,92.4433437 537.965,94.3216582 537.965,96.2350011 C537.965,98.148344 538.233331,100.026659 538.77,101.870001 C539.306669,103.713344 540.099995,105.358327 541.15,106.805001 C542.200005,108.251675 543.518325,109.41833 545.105,110.305001 C546.691675,111.191672 548.53499,111.635001 550.635,111.635001 C551.98834,111.635001 553.271661,111.378337 554.485,110.865001 C555.698339,110.351665 556.771662,109.640006 557.705,108.730001 C558.638338,107.819997 559.40833,106.735007 560.015,105.475001 C560.62167,104.214995 560.994999,102.838342 561.135,101.345001 L565.545,101.345001 C564.93833,105.73169 563.328346,109.149989 560.715,111.600001 C558.101654,114.050013 554.741687,115.275001 550.635,115.275001 C547.881653,115.275001 545.443344,114.773339 543.32,113.770001 C541.196656,112.766663 539.411674,111.401676 537.965,109.675001 C536.518326,107.948326 535.42167,105.930013 534.675,103.620001 C533.92833,101.30999 533.555,98.8483475 533.555,96.2350011 C533.555,93.6216547 533.92833,91.1600127 534.675,88.8500011 C535.42167,86.5399896 536.518326,84.5216764 537.965,82.7950011 C539.411674,81.0683258 541.196656,79.6916729 543.32,78.6650011 C545.443344,77.6383293 547.881653,77.1250011 550.635,77.1250011 C554.508353,77.1250011 557.786653,78.1516575 560.47,80.2050011 C563.153347,82.2583447 564.751664,85.361647 565.265,89.5150011 L560.855,89.5150011 Z M598.76875,93.7150011 C598.722083,92.0349927 598.430419,90.4250088 597.89375,88.8850011 C597.357081,87.3449934 596.598755,85.9800071 595.61875,84.7900011 C594.638745,83.5999952 593.448757,82.6433381 592.04875,81.9200011 C590.648743,81.1966642 589.062092,80.8350011 587.28875,80.8350011 C585.468741,80.8350011 583.858757,81.1966642 582.45875,81.9200011 C581.058743,82.6433381 579.868755,83.5999952 578.88875,84.7900011 C577.908745,85.9800071 577.127086,87.35666 576.54375,88.9200011 C575.960414,90.4833423 575.575418,92.0816596 575.38875,93.7150011 L598.76875,93.7150011 Z M575.38875,97.4250011 C575.38875,99.0116757 575.610414,100.656659 576.05375,102.360001 C576.497086,104.063343 577.208745,105.591661 578.18875,106.945001 C579.168755,108.298341 580.405409,109.41833 581.89875,110.305001 C583.392091,111.191672 585.188739,111.635001 587.28875,111.635001 C590.508766,111.635001 593.028741,110.79501 594.84875,109.115001 C596.668759,107.434993 597.928747,105.195015 598.62875,102.395001 L603.03875,102.395001 C602.105412,106.501688 600.390429,109.67499 597.89375,111.915001 C595.397071,114.155012 591.862106,115.275001 587.28875,115.275001 C584.442069,115.275001 581.980427,114.773339 579.90375,113.770001 C577.827073,112.766663 576.135423,111.39001 574.82875,109.640001 C573.522077,107.889992 572.553753,105.860013 571.92375,103.550001 C571.293747,101.23999 570.97875,98.8016806 570.97875,96.2350011 C570.97875,93.8549892 571.293747,91.5216792 571.92375,89.2350011 C572.553753,86.948323 573.522077,84.9066768 574.82875,83.1100011 C576.135423,81.3133255 577.827073,79.8666733 579.90375,78.7700011 C581.980427,77.673329 584.442069,77.1250011 587.28875,77.1250011 C590.182098,77.1250011 592.655406,77.7083286 594.70875,78.8750011 C596.762094,80.0416736 598.43041,81.5699917 599.71375,83.4600011 C600.99709,85.3500106 601.918747,87.5199889 602.47875,89.9700011 C603.038753,92.4200134 603.272084,94.9049885 603.17875,97.4250011 L575.38875,97.4250011 Z M631.8525,88.7450011 C631.805833,87.391661 631.525836,86.2133395 631.0125,85.2100011 C630.499164,84.2066628 629.810838,83.3783377 628.9475,82.7250011 C628.084162,82.0716645 627.092506,81.593336 625.9725,81.2900011 C624.852494,80.9866663 623.662506,80.8350011 622.4025,80.8350011 C621.422495,80.8350011 620.430838,80.9400001 619.4275,81.1500011 C618.424162,81.3600022 617.502504,81.7099987 616.6625,82.2000011 C615.822496,82.6900036 615.145836,83.3316638 614.6325,84.1250011 C614.119164,84.9183384 613.8625,85.8983286 613.8625,87.0650011 C613.8625,88.045006 614.107498,88.8733311 614.5975,89.5500011 C615.087502,90.2266712 615.70583,90.7983321 616.4525,91.2650011 C617.19917,91.7316701 618.015829,92.1166663 618.9025,92.4200011 C619.789171,92.723336 620.60583,92.9683335 621.3525,93.1550011 L627.2325,94.4850011 C628.492506,94.6716687 629.740827,95.0099987 630.9775,95.5000011 C632.214173,95.9900036 633.310829,96.6316638 634.2675,97.4250011 C635.224171,98.2183384 636.00583,99.1983286 636.6125,100.365001 C637.21917,101.531674 637.5225,102.908327 637.5225,104.495001 C637.5225,106.455011 637.079171,108.123328 636.1925,109.500001 C635.305829,110.876675 634.174174,111.996663 632.7975,112.860001 C631.420826,113.723339 629.869175,114.341666 628.1425,114.715001 C626.415825,115.088336 624.712508,115.275001 623.0325,115.275001 C618.785812,115.275001 615.34418,114.271678 612.7075,112.265001 C610.07082,110.258324 608.565835,107.038357 608.1925,102.605001 L612.6025,102.605001 C612.789168,105.591683 613.874157,107.843327 615.8575,109.360001 C617.840843,110.876675 620.302485,111.635001 623.2425,111.635001 C624.315839,111.635001 625.424161,111.518336 626.5675,111.285001 C627.710839,111.051667 628.772495,110.655004 629.7525,110.095001 C630.732505,109.534998 631.537497,108.823339 632.1675,107.960001 C632.797503,107.096663 633.1125,106.035007 633.1125,104.775001 C633.1125,103.701662 632.890836,102.803338 632.4475,102.080001 C632.004164,101.356664 631.40917,100.750004 630.6625,100.260001 C629.91583,99.7699987 629.064171,99.3616694 628.1075,99.0350011 C627.150829,98.7083328 626.182505,98.4283356 625.2025,98.1950011 L619.5325,96.9350011 C618.085826,96.5616659 616.755839,96.1300036 615.5425,95.6400011 C614.329161,95.1499987 613.267505,94.5433381 612.3575,93.8200011 C611.447495,93.0966642 610.735836,92.2100064 610.2225,91.1600011 C609.709164,90.1099959 609.4525,88.8150088 609.4525,87.2750011 C609.4525,85.454992 609.860829,83.8916743 610.6775,82.5850011 C611.494171,81.2783279 612.555827,80.2283384 613.8625,79.4350011 C615.169173,78.6416638 616.627492,78.0583363 618.2375,77.6850011 C619.847508,77.3116659 621.445825,77.1250011 623.0325,77.1250011 C624.852509,77.1250011 626.544159,77.3583321 628.1075,77.8250011 C629.670841,78.2916701 631.047494,79.0149962 632.2375,79.9950011 C633.427506,80.975006 634.372497,82.1883272 635.0725,83.6350011 C635.772504,85.081675 636.169166,86.7849913 636.2625,88.7450011 L631.8525,88.7450011 Z" id="PublishingServices"></path>
            </g>
        </g>
    </g>
</svg>
