<?xml version="1.0" encoding="UTF-8"?>
<svg width="534px" height="180px" viewBox="0 0 534 180" version="1.1" xmlns="http://www.w3.org/2000/svg" xmlns:xlink="http://www.w3.org/1999/xlink">
    <title>Horizontal - Docs</title>
    <desc>An official PKP logotype.</desc>
    <g id="Final" stroke="none" stroke-width="1" fill="none" fill-rule="evenodd">
        <g id="Artboard" transform="translate(-987.000000, -2379.000000)" fill="#000000" fill-rule="nonzero">
            <g id="Horizontal---Docs" transform="translate(987.000000, 2379.000000)">
                <path d="M18.4126984,118.015751 L18.4126984,80.7670739 C18.4126984,47.7512009 18.4126984,41.8252749 17.989418,35.0527882 C17.5661376,27.857021 15.8730159,24.4707776 8.88888889,22.9892961 C7.1957672,22.5660157 3.5978836,22.3543755 1.69312169,22.3543755 C0.846560847,22.3543755 -9.09494702e-13,21.931095 -9.09494702e-13,21.0845342 C-9.09494702e-13,19.8146929 1.05820106,19.3914125 3.38624339,19.3914125 C12.9100529,19.3914125 25.6084656,20.0263331 27.3015873,20.0263331 C31.957672,20.0263331 44.2328042,19.3914125 53.968254,19.3914125 C80.4232804,19.3914125 89.9470899,28.2803014 93.3333333,31.4549046 C97.989418,35.899349 103.915344,45.4231585 103.915344,59.1797723 C103.915344,86.6929998 81.9047619,107.01046 51.8518519,107.01046 C50.7936508,107.01046 48.4656085,107.01046 47.4074074,106.79882 C46.3492063,106.79882 45.0793651,106.375539 45.0793651,105.317338 C45.0793651,103.624217 46.3492063,103.412577 50.7936508,103.412577 C71.3227513,103.412577 87.4074074,89.4443225 87.4074074,67.2221003 C87.4074074,61.931095 86.7724868,47.7512009 75.5555556,36.3226294 C64.3386243,24.894058 51.4285714,25.7406188 46.5608466,25.7406188 C42.962963,25.7406188 39.3650794,26.1638993 37.4603175,27.0104601 C36.1904762,27.4337405 35.7671958,28.915222 35.7671958,31.0316241 L35.7671958,118.015751 C35.7671958,138.333211 35.7671958,155.052788 36.8253968,163.941677 C37.4603175,170.079243 38.7301587,174.735328 45.0793651,175.581889 C48.042328,176.005169 52.6984127,176.42845 54.6031746,176.42845 C55.8730159,176.42845 56.2962963,177.06337 56.2962963,177.698291 C56.2962963,178.756492 55.2380952,179.391412 52.9100529,179.391412 C41.2698413,179.391412 27.9365079,178.756492 26.8783069,178.756492 C26.2433862,178.756492 12.9100529,179.391412 6.56084656,179.391412 C4.23280423,179.391412 3.17460317,178.968132 3.17460317,177.698291 C3.17460317,177.06337 3.5978836,176.42845 4.86772487,176.42845 C6.77248677,176.42845 9.31216931,176.005169 11.2169312,175.581889 C15.4497354,174.735328 16.5079365,170.079243 17.3544974,163.941677 C18.4126984,155.052788 18.4126984,138.333211 18.4126984,118.015751 Z M139.830688,80.7670739 L139.830688,94.3120474 C146.391534,87.9628411 175.174603,57.6982908 188.084656,44.3649575 C200.783069,31.2432643 201.62963,29.1268622 201.62963,26.5871797 C201.62963,24.894058 200.571429,23.2009363 198.878307,22.5660157 C197.396825,21.931095 196.973545,21.5078146 196.973545,20.6612538 C196.973545,19.8146929 198.243386,19.3914125 200.148148,19.3914125 C206.285714,19.3914125 205.650794,20.0263331 212.846561,20.0263331 C219.407407,20.0263331 231.89418,19.3914125 235.280423,19.3914125 C238.243386,19.3914125 238.878307,20.0263331 238.878307,20.872894 C238.878307,21.7194548 238.455026,22.1427352 236.550265,22.3543755 C232.529101,22.7776559 228.719577,23.6242167 225.756614,24.894058 C220.465608,27.0104601 216.444444,29.5501427 203.746032,41.8252749 C185.121693,59.8146929 160.994709,83.7300368 155.492063,89.867603 C168.825397,104.470778 207.343915,143.624217 217.291005,152.936386 C234.645503,169.232682 242.05291,173.888767 252.21164,175.793529 C254.116402,176.216809 256.232804,176.42845 258.349206,176.42845 C260.042328,176.42845 261.312169,176.85173 261.312169,177.909931 C261.312169,178.968132 260.465608,179.391412 258.137566,179.391412 L242.47619,179.391412 C224.063492,179.391412 219.195767,177.06337 209.248677,169.232682 C196.550265,159.285592 158.455026,118.439032 139.830688,96.2168093 L139.830688,118.015751 C139.830688,138.333211 139.830688,155.052788 140.888889,163.941677 C141.52381,170.079243 142.793651,174.735328 149.142857,175.581889 C152.10582,176.005169 156.338624,176.42845 157.608466,176.42845 C159.513228,176.42845 160.148148,177.27501 160.148148,177.909931 C160.148148,178.968132 159.301587,179.391412 156.973545,179.391412 C145.333333,179.391412 132,178.756492 130.941799,178.756492 C129.883598,178.756492 117.396825,179.391412 111.047619,179.391412 C108.719577,179.391412 107.661376,179.179772 107.661376,177.909931 C107.661376,177.27501 108.084656,176.42845 109.989418,176.42845 C111.259259,176.42845 113.587302,176.216809 115.492063,175.793529 C119.724868,174.946968 120.994709,170.079243 121.84127,163.941677 C122.899471,155.052788 122.899471,138.333211 122.899471,118.015751 L122.899471,80.7670739 C122.899471,47.7512009 122.899471,41.8252749 122.47619,35.0527882 C122.05291,27.857021 119.936508,24.2591374 115.280423,23.2009363 C112.952381,22.5660157 109.142857,22.3543755 107.661376,22.3543755 C105.968254,22.3543755 105.333333,21.931095 105.333333,21.0845342 C105.333333,19.8146929 106.391534,19.3914125 108.719577,19.3914125 C115.703704,19.3914125 129.883598,20.0263331 130.941799,20.0263331 C132,20.0263331 145.333333,19.3914125 151.68254,19.3914125 C154.010582,19.3914125 155.068783,19.8146929 155.068783,20.872894 C155.068783,21.7194548 154.645503,22.1427352 152.740741,22.3543755 C150.412698,22.5660157 150.201058,22.5660157 148.084656,22.7776559 C142.37037,23.4125765 140.677249,27.6453807 140.253968,35.0527882 C139.830688,41.8252749 139.830688,47.7512009 139.830688,80.7670739 Z M269.079365,118.015751 L269.079365,80.7670739 C269.079365,47.7512009 269.079365,41.8252749 268.656085,35.0527882 C268.232804,27.857021 266.539683,24.4707776 259.555556,22.9892961 C257.862434,22.5660157 254.26455,22.3543755 252.359788,22.3543755 C251.513228,22.3543755 250.666667,21.931095 250.666667,21.0845342 C250.666667,19.8146929 251.724868,19.3914125 254.05291,19.3914125 C263.57672,19.3914125 276.275132,20.0263331 277.968254,20.0263331 C282.624339,20.0263331 294.899471,19.3914125 304.634921,19.3914125 C331.089947,19.3914125 340.613757,28.2803014 344,31.4549046 C348.656085,35.899349 354.582011,45.4231585 354.582011,59.1797723 C354.582011,86.6929998 332.571429,107.01046 302.518519,107.01046 C301.460317,107.01046 299.132275,107.01046 298.074074,106.79882 C297.015873,106.79882 295.746032,106.375539 295.746032,105.317338 C295.746032,103.624217 297.015873,103.412577 301.460317,103.412577 C321.989418,103.412577 338.074074,89.4443225 338.074074,67.2221003 C338.074074,61.931095 337.439153,47.7512009 326.222222,36.3226294 C315.005291,24.894058 302.095238,25.7406188 297.227513,25.7406188 C293.62963,25.7406188 290.031746,26.1638993 288.126984,27.0104601 C286.857143,27.4337405 286.433862,28.915222 286.433862,31.0316241 L286.433862,118.015751 C286.433862,138.333211 286.433862,155.052788 287.492063,163.941677 C288.126984,170.079243 289.396825,174.735328 295.746032,175.581889 C298.708995,176.005169 303.365079,176.42845 305.269841,176.42845 C306.539683,176.42845 306.962963,177.06337 306.962963,177.698291 C306.962963,178.756492 305.904762,179.391412 303.57672,179.391412 C291.936508,179.391412 278.603175,178.756492 277.544974,178.756492 C276.910053,178.756492 263.57672,179.391412 257.227513,179.391412 C254.899471,179.391412 253.84127,178.968132 253.84127,177.698291 C253.84127,177.06337 254.26455,176.42845 255.534392,176.42845 C257.439153,176.42845 259.978836,176.005169 261.883598,175.581889 C266.116402,174.735328 267.174603,170.079243 268.021164,163.941677 C269.079365,155.052788 269.079365,138.333211 269.079365,118.015751 Z" id="PKP-"></path>
                <path d="M380.359441,0.840001144 L397.649441,0.840001144 C405.256146,1.02666874 410.984422,3.16164739 414.834441,7.24500114 C418.68446,11.3283549 420.609441,17.5232929 420.609441,25.8300011 C420.609441,34.1367093 418.68446,40.3316474 414.834441,44.4150011 C410.984422,48.4983549 405.256146,50.6333335 397.649441,50.8200011 L380.359441,50.8200011 L380.359441,0.840001144 Z M385.119441,46.7600011 L395.269441,46.7600011 C398.862792,46.7600011 401.954428,46.375005 404.544441,45.6050011 C407.134454,44.8349973 409.269433,43.6100095 410.949441,41.9300011 C412.629449,40.2499927 413.866104,38.0800144 414.659441,35.4200011 C415.452778,32.7599878 415.849441,29.5633531 415.849441,25.8300011 C415.849441,22.0966491 415.452778,18.9000144 414.659441,16.2400011 C413.866104,13.5799878 412.629449,11.4100095 410.949441,9.73000114 C409.269433,8.04999274 407.134454,6.82500499 404.544441,6.05500114 C401.954428,5.28499729 398.862792,4.90000114 395.269441,4.90000114 L385.119441,4.90000114 L385.119441,46.7600011 Z M443.823191,17.3600011 C441.723181,17.3600011 439.879866,17.80333 438.293191,18.6900011 C436.706516,19.5766722 435.388196,20.7433272 434.338191,22.1900011 C433.288186,23.636675 432.49486,25.2816586 431.958191,27.1250011 C431.421522,28.9683437 431.153191,30.8466582 431.153191,32.7600011 C431.153191,34.673344 431.421522,36.5516586 431.958191,38.3950011 C432.49486,40.2383437 433.288186,41.8833272 434.338191,43.3300011 C435.388196,44.776675 436.706516,45.94333 438.293191,46.8300011 C439.879866,47.7166722 441.723181,48.1600011 443.823191,48.1600011 C445.923202,48.1600011 447.766516,47.7166722 449.353191,46.8300011 C450.939866,45.94333 452.258186,44.776675 453.308191,43.3300011 C454.358196,41.8833272 455.151522,40.2383437 455.688191,38.3950011 C456.22486,36.5516586 456.493191,34.673344 456.493191,32.7600011 C456.493191,30.8466582 456.22486,28.9683437 455.688191,27.1250011 C455.151522,25.2816586 454.358196,23.636675 453.308191,22.1900011 C452.258186,20.7433272 450.939866,19.5766722 449.353191,18.6900011 C447.766516,17.80333 445.923202,17.3600011 443.823191,17.3600011 Z M443.823191,13.6500011 C446.576538,13.6500011 449.014847,14.1633293 451.138191,15.1900011 C453.261535,16.2166729 455.046517,17.5933258 456.493191,19.3200011 C457.939865,21.0466764 459.036521,23.0649896 459.783191,25.3750011 C460.529861,27.6850127 460.903191,30.1466547 460.903191,32.7600011 C460.903191,35.3733475 460.529861,37.8349896 459.783191,40.1450011 C459.036521,42.4550127 457.939865,44.4733258 456.493191,46.2000011 C455.046517,47.9266764 453.261535,49.2916628 451.138191,50.2950011 C449.014847,51.2983395 446.576538,51.8000011 443.823191,51.8000011 C441.069844,51.8000011 438.631535,51.2983395 436.508191,50.2950011 C434.384847,49.2916628 432.599865,47.9266764 431.153191,46.2000011 C429.706517,44.4733258 428.609861,42.4550127 427.863191,40.1450011 C427.116521,37.8349896 426.743191,35.3733475 426.743191,32.7600011 C426.743191,30.1466547 427.116521,27.6850127 427.863191,25.3750011 C428.609861,23.0649896 429.706517,21.0466764 431.153191,19.3200011 C432.599865,17.5933258 434.384847,16.2166729 436.508191,15.1900011 C438.631535,14.1633293 441.069844,13.6500011 443.823191,13.6500011 Z M494.056941,26.0400011 C493.450271,23.3333209 492.330283,21.2100088 490.696941,19.6700011 C489.0636,18.1299934 486.776956,17.3600011 483.836941,17.3600011 C481.736931,17.3600011 479.893616,17.80333 478.306941,18.6900011 C476.720266,19.5766722 475.401946,20.7433272 474.351941,22.1900011 C473.301936,23.636675 472.50861,25.2816586 471.971941,27.1250011 C471.435272,28.9683437 471.166941,30.8466582 471.166941,32.7600011 C471.166941,34.673344 471.435272,36.5516586 471.971941,38.3950011 C472.50861,40.2383437 473.301936,41.8833272 474.351941,43.3300011 C475.401946,44.776675 476.720266,45.94333 478.306941,46.8300011 C479.893616,47.7166722 481.736931,48.1600011 483.836941,48.1600011 C485.190281,48.1600011 486.473602,47.903337 487.686941,47.3900011 C488.90028,46.8766652 489.973603,46.1650057 490.906941,45.2550011 C491.840279,44.3449966 492.610271,43.2600074 493.216941,42.0000011 C493.823611,40.7399948 494.19694,39.3633419 494.336941,37.8700011 L498.746941,37.8700011 C498.140271,42.2566897 496.530287,45.6749889 493.916941,48.1250011 C491.303595,50.5750134 487.943628,51.8000011 483.836941,51.8000011 C481.083594,51.8000011 478.645285,51.2983395 476.521941,50.2950011 C474.398597,49.2916628 472.613615,47.9266764 471.166941,46.2000011 C469.720267,44.4733258 468.623611,42.4550127 467.876941,40.1450011 C467.130271,37.8349896 466.756941,35.3733475 466.756941,32.7600011 C466.756941,30.1466547 467.130271,27.6850127 467.876941,25.3750011 C468.623611,23.0649896 469.720267,21.0466764 471.166941,19.3200011 C472.613615,17.5933258 474.398597,16.2166729 476.521941,15.1900011 C478.645285,14.1633293 481.083594,13.6500011 483.836941,13.6500011 C487.710294,13.6500011 490.988594,14.6766575 493.671941,16.7300011 C496.355288,18.7833447 497.953605,21.886647 498.466941,26.0400011 L494.056941,26.0400011 Z M527.630691,25.2700011 C527.584024,23.916661 527.304027,22.7383395 526.790691,21.7350011 C526.277355,20.7316628 525.589029,19.9033377 524.725691,19.2500011 C523.862353,18.5966645 522.870697,18.118336 521.750691,17.8150011 C520.630685,17.5116663 519.440697,17.3600011 518.180691,17.3600011 C517.200686,17.3600011 516.209029,17.4650001 515.205691,17.6750011 C514.202353,17.8850022 513.280695,18.2349987 512.440691,18.7250011 C511.600687,19.2150036 510.924027,19.8566638 510.410691,20.6500011 C509.897355,21.4433384 509.640691,22.4233286 509.640691,23.5900011 C509.640691,24.570006 509.885689,25.3983311 510.375691,26.0750011 C510.865694,26.7516712 511.484021,27.3233321 512.230691,27.7900011 C512.977361,28.2566701 513.79402,28.6416663 514.680691,28.9450011 C515.567362,29.248336 516.384021,29.4933335 517.130691,29.6800011 L523.010691,31.0100011 C524.270697,31.1966687 525.519018,31.5349987 526.755691,32.0250011 C527.992364,32.5150036 529.08902,33.1566638 530.045691,33.9500011 C531.002363,34.7433384 531.784021,35.7233286 532.390691,36.8900011 C532.997361,38.0566736 533.300691,39.4333265 533.300691,41.0200011 C533.300691,42.9800109 532.857362,44.6483276 531.970691,46.0250011 C531.08402,47.4016747 529.952365,48.5216635 528.575691,49.3850011 C527.199018,50.2483388 525.647366,50.8666659 523.920691,51.2400011 C522.194016,51.6133363 520.490699,51.8000011 518.810691,51.8000011 C514.564003,51.8000011 511.122371,50.7966778 508.485691,48.7900011 C505.849011,46.7833244 504.344026,43.5633566 503.970691,39.1300011 L508.380691,39.1300011 C508.567359,42.1166827 509.652348,44.3683269 511.635691,45.8850011 C513.619034,47.4016754 516.080676,48.1600011 519.020691,48.1600011 C520.09403,48.1600011 521.202352,48.0433356 522.345691,47.8100011 C523.48903,47.5766666 524.550686,47.1800039 525.530691,46.6200011 C526.510696,46.0599983 527.315688,45.3483388 527.945691,44.4850011 C528.575694,43.6216635 528.890691,42.5600074 528.890691,41.3000011 C528.890691,40.2266624 528.669027,39.3283381 528.225691,38.6050011 C527.782356,37.8816642 527.187361,37.2750036 526.440691,36.7850011 C525.694021,36.2949987 524.842363,35.8866694 523.885691,35.5600011 C522.92902,35.2333328 521.960696,34.9533356 520.980691,34.7200011 L515.310691,33.4600011 C513.864017,33.0866659 512.53403,32.6550036 511.320691,32.1650011 C510.107352,31.6749987 509.045696,31.0683381 508.135691,30.3450011 C507.225687,29.6216642 506.514027,28.7350064 506.000691,27.6850011 C505.487355,26.6349959 505.230691,25.3400088 505.230691,23.8000011 C505.230691,21.979992 505.63902,20.4166743 506.455691,19.1100011 C507.272362,17.8033279 508.334018,16.7533384 509.640691,15.9600011 C510.947364,15.1666638 512.405683,14.5833363 514.015691,14.2100011 C515.625699,13.8366659 517.224016,13.6500011 518.810691,13.6500011 C520.6307,13.6500011 522.32235,13.8833321 523.885691,14.3500011 C525.449032,14.8166701 526.825685,15.5399962 528.015691,16.5200011 C529.205697,17.500006 530.150688,18.7133272 530.850691,20.1600011 C531.550695,21.606675 531.947357,23.3099913 532.040691,25.2700011 L527.630691,25.2700011 Z" id="Docs"></path>
            </g>
        </g>
    </g>
</svg>
