<?xml version="1.0" encoding="UTF-8"?>
<svg width="343px" height="383px" viewBox="0 0 343 383" version="1.1" xmlns="http://www.w3.org/2000/svg" xmlns:xlink="http://www.w3.org/1999/xlink">
    <title>Vertical - PKP</title>
    <desc>An official PKP logotype.</desc>
    <g id="Final" stroke="none" stroke-width="1" fill="none" fill-rule="evenodd">
        <g id="Artboard" transform="translate(-92.000000, -1126.000000)">
            <g id="Vertical---PKP" transform="translate(95.000000, 1126.000000)">
                <path d="M4.56684777,236.507024 L4.56684777,227.610567 C4.56684777,219.425827 4.56684777,218.358252 4.44822835,216.75689 C4.32960892,215.214837 3.85513123,214.265882 2.19445932,213.910024 C1.77929134,213.850714 0.830335958,213.791404 0.355858268,213.791404 C0.237238845,213.791404 5.96855898e-13,213.672785 5.96855898e-13,213.494856 C5.96855898e-13,213.138997 0.296548556,213.020378 0.830335958,213.020378 C3.38065354,213.020378 6.64268766,213.198307 6.99854593,213.198307 C8.24404987,213.198307 11.2688451,213.020378 13.7005433,213.020378 C20.2246115,213.020378 22.597,215.155528 23.427336,215.867244 C24.5542205,216.875509 26.0369633,219.188588 26.0369633,222.509932 C26.0369633,229.09331 20.5804698,233.897396 13.1667559,233.897396 C12.9295171,233.897396 12.3364199,233.897396 12.0398714,233.838087 C11.8026325,233.838087 11.506084,233.719467 11.506084,233.482228 C11.506084,233.007751 11.8619423,233.007751 12.9888268,233.007751 C17.674294,233.007751 21.5887349,229.805026 21.5887349,224.585772 C21.5887349,223.814745 21.766664,220.256163 19.0384173,217.409297 C16.1322415,214.325192 12.7515879,214.62174 11.6840131,214.62174 C10.9129869,214.62174 10.0233412,214.74036 9.66748294,214.918289 C9.37093438,215.036908 9.31162467,215.452076 9.31162467,215.867244 L9.31162467,236.388404 C9.31162467,240.955252 9.31162467,245.225551 9.54886352,247.360701 C9.72679265,248.784134 10.0233412,249.970328 11.6247034,250.148257 C12.3364199,250.266877 13.5226142,250.385496 13.9970919,250.385496 C14.2343307,250.385496 14.3529501,250.504115 14.3529501,250.682045 C14.3529501,250.978593 14.1157113,251.156522 13.5226142,251.156522 C10.4385092,251.156522 7.11716535,250.978593 6.8206168,250.978593 C6.76130709,250.978593 3.26203412,251.156522 1.6013622,251.156522 C1.0675748,251.156522 0.771026247,251.037903 0.771026247,250.682045 C0.771026247,250.504115 0.889645669,250.385496 1.18619423,250.385496 C1.6013622,250.385496 2.25376903,250.266877 2.72824672,250.148257 C3.79582152,249.970328 4.09237008,248.784134 4.27029921,247.360701 C4.56684777,245.225551 4.56684777,240.955252 4.56684777,236.507024 Z M35.574381,227.610567 L35.574381,234.668423 C35.574381,241.904207 36.9385044,244.988312 39.1922734,247.004843 C41.742591,249.258612 44.5894571,249.733089 47.0211553,249.733089 C50.1052603,249.733089 52.8928167,248.902753 55.1465857,246.293126 C57.5189742,243.564879 58.0527616,239.057341 58.0527616,233.897396 L58.0527616,227.610567 C58.0527616,219.840995 58.0527616,218.476871 57.9341422,216.875509 C57.8155227,215.155528 57.6375936,214.265882 55.7396828,213.969333 C55.3245149,213.910024 54.6127983,213.850714 54.0790109,213.850714 C53.7231527,213.850714 53.4859138,213.672785 53.4859138,213.494856 C53.4859138,213.138997 53.7824624,213.020378 54.3162498,213.020378 C56.8665674,213.020378 59.8320529,213.198307 60.0692918,213.198307 C60.3658403,213.198307 62.9161579,213.020378 64.5768298,213.020378 C65.1699269,213.020378 65.4071658,213.138997 65.4071658,213.435546 C65.4071658,213.672785 65.1699269,213.850714 64.8140687,213.850714 C64.4582104,213.850714 64.339591,213.850714 63.7464939,213.910024 C62.0858219,214.087953 61.8485831,215.155528 61.7299637,216.875509 C61.670654,218.476871 61.670654,219.840995 61.670654,227.610567 L61.670654,232.889131 C61.670654,238.227005 61.0775569,244.632454 56.8665674,248.250346 C53.0114361,251.512381 49.2156146,251.808929 46.0128902,251.808929 C44.3522183,251.808929 38.7771054,251.808929 34.9219742,248.250346 C32.3716566,245.877958 30.5330555,242.319375 30.5330555,234.964971 L30.5330555,227.610567 C30.5330555,219.781685 30.5330555,218.417562 30.3551264,216.816199 C30.2958167,215.214837 29.9992681,214.206572 28.1606671,213.969333 C27.8048088,213.910024 27.0930923,213.850714 26.6186146,213.850714 C26.2034466,213.850714 25.9662078,213.672785 25.9662078,213.494856 C25.9662078,213.138997 26.2034466,213.020378 26.8558534,213.020378 C29.406171,213.020378 32.6088954,213.198307 33.0240634,213.198307 C33.4985411,213.198307 36.9978141,213.020378 38.5991763,213.020378 C39.2515831,213.020378 39.4295122,213.138997 39.4295122,213.435546 C39.4295122,213.732094 39.0143443,213.850714 38.7177957,213.850714 C38.3619374,213.850714 37.8874597,213.910024 37.4129821,213.969333 C35.989549,214.147262 35.7523101,215.155528 35.6336907,216.816199 C35.574381,218.417562 35.574381,219.781685 35.574381,227.610567 Z M71.6232397,236.507024 L71.6232397,227.610567 C71.6232397,219.840995 71.6232397,218.358252 71.5046203,216.75689 C71.3860009,215.155528 70.9708329,214.325192 69.1915415,213.969333 C68.7170638,213.910024 67.8867279,213.850714 67.7681085,213.850714 C67.2343211,213.850714 66.9970822,213.672785 66.9970822,213.435546 C66.9970822,213.138997 67.3529405,213.020378 67.8867279,213.020378 C70.3777358,213.020378 73.9363184,213.198307 74.0549379,213.198307 C75.4783709,213.198307 77.4355914,213.020378 79.7486701,213.020378 C88.6451268,213.020378 90.4244182,217.943084 90.4244182,220.493402 C90.4244182,224.88232 87.9334103,227.669877 85.4424024,229.627097 C89.4161531,230.813291 94.5167883,234.431184 94.5167883,240.243535 C94.5167883,245.759339 90.0685599,251.275142 81.0534838,251.275142 C80.1045284,251.275142 78.9183342,251.156522 77.3762817,251.156522 C75.7156098,251.037903 74.2921767,250.978593 74.0549379,250.978593 C72.2163368,250.978593 70.6742843,251.156522 68.7170638,251.156522 C68.1832764,251.156522 67.8867279,251.037903 67.8867279,250.800664 C67.8867279,250.622735 67.9460376,250.326186 68.7170638,250.326186 C69.1322318,250.326186 69.310161,250.326186 69.7846386,250.207567 C70.7929037,250.029638 71.148762,248.784134 71.3266911,247.360701 C71.6232397,245.166241 71.6232397,241.133181 71.6232397,236.507024 Z M76.2493972,215.452076 L76.2493972,228.678142 C76.2493972,229.09331 76.3680166,229.152619 76.5459457,229.271239 C76.901804,229.330549 77.5542108,229.449168 79.5114313,229.449168 C82.5362266,229.449168 83.4258722,229.271239 84.5527568,228.025735 C85.5017121,226.89885 86.0948092,225.238178 86.0948092,223.280958 C86.0948092,219.188588 84.2562082,214.62174 79.2148827,214.62174 C78.740405,214.62174 77.4949011,214.74036 76.9611137,214.918289 C76.4273263,215.036908 76.2493972,215.155528 76.2493972,215.452076 Z M76.2493972,231.465698 L76.2493972,233.778777 C76.2493972,237.515289 76.2493972,244.039357 76.3087069,244.513835 C76.486636,247.123462 76.4273263,247.894488 78.2066176,248.665514 C79.6300507,249.377231 82.0024392,249.436541 82.5955363,249.436541 C85.1458539,249.436541 89.5940822,248.191037 89.5940822,242.734543 C89.5940822,239.709748 88.5265074,235.1429 84.493447,232.414654 C82.7141557,231.347079 81.6465809,231.228459 80.4603867,231.10984 C79.4521216,230.99122 77.3762817,230.99122 76.5459457,231.10984 C76.3680166,231.10984 76.2493972,231.16915 76.2493972,231.465698 Z M105.418329,227.610567 L105.418329,236.625643 C105.418329,243.44626 105.655568,246.886223 106.663833,247.835178 C107.612789,248.665514 108.798983,249.021373 112.891353,249.021373 C115.50098,249.021373 117.873369,249.021373 119.178182,247.360701 C119.771279,246.471055 120.186447,245.284861 120.305067,244.395215 C120.364377,243.920738 120.482996,243.683499 120.779545,243.683499 C121.016783,243.683499 121.135403,243.861428 121.135403,244.454525 C121.135403,245.047622 120.779545,248.428276 120.423686,249.792399 C120.067828,250.978593 120.127138,251.275142 117.280272,251.275142 C113.247211,251.275142 108.798983,250.978593 102.868012,250.978593 C100.910791,250.978593 99.7245971,251.156522 97.6487572,251.156522 C97.0556601,251.156522 96.6998018,251.037903 96.6998018,250.682045 C96.6998018,250.504115 96.8777309,250.326186 97.3522086,250.326186 C97.8266863,250.326186 98.301164,250.326186 98.7756417,250.207567 C99.7839068,250.029638 100.139765,248.843444 100.317694,247.42001 C100.673552,245.166241 100.554933,241.073871 100.554933,236.507024 L100.554933,227.610567 C100.554933,219.781685 100.554933,218.476871 100.436314,216.875509 C100.317694,215.214837 100.080455,214.147262 98.0639252,213.910024 C97.7080669,213.850714 97.0556601,213.850714 96.5811824,213.850714 C96.1660144,213.850714 95.9287756,213.672785 95.9287756,213.435546 C95.9287756,213.138997 96.2253241,213.020378 96.8184212,213.020378 C99.3094291,213.020378 102.868012,213.198307 102.986631,213.198307 C103.816967,213.198307 107.43486,213.020378 109.095531,213.020378 C109.688629,213.020378 109.866558,213.198307 109.866558,213.435546 C109.866558,213.672785 109.570009,213.850714 109.214151,213.850714 C108.798983,213.850714 108.205886,213.910024 107.612789,213.969333 C105.952117,214.206572 105.596258,215.155528 105.477639,216.875509 C105.35902,218.476871 105.418329,219.781685 105.418329,227.610567 Z M126.461831,236.507024 L126.461831,227.610567 C126.461831,219.781685 126.461831,218.358252 126.343212,216.75689 C126.224592,215.155528 125.868734,214.265882 124.62323,214.028643 C124.030133,213.910024 123.614965,213.910024 123.259107,213.850714 C122.843939,213.791404 122.6067,213.672785 122.6067,213.435546 C122.6067,213.138997 122.843939,213.020378 123.496346,213.020378 C125.334947,213.020378 128.7156,213.198307 128.893529,213.198307 C129.130768,213.198307 132.570731,213.020378 134.231403,213.020378 C134.8245,213.020378 135.121049,213.138997 135.121049,213.435546 C135.121049,213.672785 134.94312,213.791404 134.468642,213.850714 C134.112784,213.910024 133.816235,213.910024 133.401067,213.969333 C131.681086,214.206572 131.503157,215.096218 131.384537,216.816199 C131.265918,218.417562 131.325227,219.781685 131.325227,227.610567 L131.325227,236.507024 C131.325227,241.073871 131.265918,245.225551 131.562466,247.360701 C131.799705,249.080682 132.036944,249.733089 133.578996,250.088948 C134.350023,250.266877 135.595527,250.326186 135.832765,250.326186 C136.366553,250.385496 136.485172,250.504115 136.485172,250.741354 C136.485172,250.978593 136.247933,251.156522 135.654836,251.156522 C132.630041,251.156522 129.190078,250.978593 128.893529,250.978593 C128.7156,250.978593 125.216327,251.156522 123.555655,251.156522 C123.021868,251.156522 122.6067,251.037903 122.6067,250.741354 C122.6067,250.504115 122.843939,250.326186 123.377726,250.326186 C123.674275,250.326186 124.326681,250.266877 124.801159,250.148257 C125.809424,249.911018 125.987353,248.724824 126.165283,247.301391 C126.461831,245.166241 126.461831,240.955252 126.461831,236.507024 Z M161.739664,251.808929 C153.910782,251.808929 148.572908,250.029638 144.361918,246.411745 C139.320593,242.022827 138.015779,236.210475 138.015779,231.287769 C138.015779,227.966425 139.320593,222.094764 144.00606,217.587226 C147.208784,214.503121 152.012871,212.308661 159.960372,212.308661 C162.688619,212.308661 164.883078,212.5459 167.789254,212.961068 C169.687165,213.257617 171.585076,213.554165 173.008509,213.613475 C173.482986,213.613475 173.542296,213.910024 173.542296,214.206572 C173.542296,214.68105 173.364367,215.214837 173.245748,217.112748 C173.186438,218.77342 173.186438,221.857525 173.127128,222.569241 C173.067818,223.399577 172.949199,223.696126 172.65265,223.696126 C172.237482,223.696126 172.178173,223.340268 172.178173,222.569241 C172.178173,220.84926 171.347837,218.536181 169.865094,217.409297 C168.085803,215.867244 163.934123,214.384501 159.367275,214.384501 C152.783897,214.384501 149.759102,216.223102 147.979811,217.824465 C144.124679,221.323738 143.235034,225.594037 143.235034,230.813291 C143.235034,240.658703 151.241845,249.317921 161.680354,249.317921 C165.713414,249.317921 168.6789,248.902753 170.75474,246.886223 C171.822314,245.759339 172.415412,244.276596 172.71196,242.615924 C172.83058,242.022827 173.008509,241.726278 173.364367,241.726278 C173.660916,241.726278 173.660916,242.141446 173.660916,242.556614 C173.660916,243.031092 172.889889,247.835178 172.474721,249.139992 C172.118863,250.088948 171.940934,250.266877 171.110598,250.622735 C169.034758,251.512381 165.061007,251.808929 161.739664,251.808929 Z M9.37093438,286.920278 L9.37093438,289.707835 C12.0991811,287.276136 18.5639396,281.107927 21.2328766,278.201751 C24.0797428,275.058336 24.3169816,274.761787 24.3169816,274.109381 C24.3169816,273.694213 24.0797428,273.397664 23.3680262,273.160425 C22.9528583,273.041806 22.7156194,272.923186 22.7156194,272.685948 C22.7156194,272.508018 22.8342388,272.330089 23.3087165,272.330089 C23.6645748,272.330089 25.4438661,272.508018 27.3417769,272.508018 C29.1210682,272.508018 32.3831024,272.330089 33.1541286,272.330089 C33.9844646,272.330089 34.103084,272.448709 34.103084,272.685948 C34.103084,272.923186 33.9251549,273.101115 33.4506772,273.160425 C32.5017218,273.219735 31.2562178,273.456974 30.5445013,273.753522 C29.1210682,274.228 28.350042,274.880407 25.265937,277.667963 C20.9363281,281.582404 15.7763832,286.62373 13.1667559,288.996118 C16.3694803,292.317462 25.9776535,301.807016 28.4686614,304.060785 C32.6203412,307.856606 34.6368714,308.924181 37.0092598,309.457969 C37.6616667,309.576588 37.3651181,309.517278 38.3733832,309.635898 C38.9071706,309.695207 39.2037192,309.813827 39.2037192,310.110375 C39.2037192,310.347614 38.9071706,310.466234 38.2547638,310.466234 L34.3996325,310.466234 C29.7734751,310.466234 28.5872808,309.932446 26.2148924,308.271774 C23.5459554,306.373864 14.0564016,296.647071 9.37093438,291.131268 L9.37093438,295.816735 C9.37093438,300.383583 9.31162467,304.535262 9.60817323,306.670412 C9.84541207,308.390394 10.0826509,309.042801 11.6247034,309.398659 C12.3957297,309.576588 13.6412336,309.635898 13.8784724,309.635898 C14.4122598,309.695207 14.5308793,309.813827 14.5308793,310.051066 C14.5308793,310.288304 14.2936404,310.466234 13.7005433,310.466234 C10.675748,310.466234 7.23578478,310.288304 6.93923622,310.288304 C6.76130709,310.288304 3.26203412,310.466234 1.6013622,310.466234 C1.0675748,310.466234 0.652406824,310.347614 0.652406824,310.051066 C0.652406824,309.813827 0.889645669,309.635898 1.42343307,309.635898 C1.71998163,309.635898 2.37238845,309.576588 2.84686614,309.457969 C3.85513123,309.22073 4.03306037,308.034535 4.2109895,306.611102 C4.50753806,304.475953 4.50753806,300.264963 4.50753806,295.816735 L4.50753806,286.920278 C4.50753806,279.091396 4.50753806,277.667963 4.38891864,276.066601 C4.27029921,274.465239 3.91444094,273.575593 2.66893701,273.338354 C2.0758399,273.219735 1.66067192,273.219735 1.30481365,273.160425 C0.889645669,273.101115 0.652406824,272.982496 0.652406824,272.745257 C0.652406824,272.448709 0.889645669,272.330089 1.54205249,272.330089 C3.38065354,272.330089 6.76130709,272.508018 6.93923622,272.508018 C7.17647507,272.508018 10.6164383,272.330089 12.2771102,272.330089 C12.8702073,272.330089 13.1667559,272.448709 13.1667559,272.745257 C13.1667559,272.982496 12.9888268,273.101115 12.5143491,273.160425 C12.1584908,273.219735 11.8619423,273.219735 11.4467743,273.279045 C9.72679265,273.516283 9.54886352,274.405929 9.43024409,276.125911 C9.31162467,277.727273 9.37093438,279.091396 9.37093438,286.920278 Z M38.5398666,303.05252 C38.5398666,274.761787 38.5991763,283.895483 38.5398666,274.050071 C38.5398666,272.21147 38.7177957,271.618373 39.1922734,271.618373 C39.6074414,271.618373 40.6157065,272.804567 41.0308744,273.219735 C41.5646618,273.812832 49.8087117,282.234811 58.1120713,290.7161 C62.7382288,295.223638 68.6691999,301.332538 70.2112524,302.755971 L69.5588456,278.083131 C69.4995359,274.880407 69.1436776,273.812832 67.5423154,273.397664 C66.5340503,273.219735 65.6444046,273.160425 65.2292366,273.160425 C64.6361395,273.160425 64.5175201,272.923186 64.5175201,272.685948 C64.5175201,272.389399 64.9919978,272.330089 65.5850949,272.330089 C68.1354125,272.330089 70.6264204,272.508018 71.1602078,272.508018 C71.7533049,272.508018 73.5919059,272.330089 75.9049847,272.330089 C76.5573915,272.330089 76.7353206,272.389399 76.7353206,272.685948 C76.7353206,272.923186 76.5573915,273.101115 76.2015332,273.160425 C75.845675,273.219735 75.3711973,273.219735 74.7187905,273.338354 C73.3546671,273.634903 72.9394991,274.228 72.9394991,277.786583 L72.8208797,307.560058 C72.8208797,310.525543 72.7022603,310.822092 72.2870923,310.822092 C71.8719243,310.822092 71.2788272,310.406924 68.3726513,307.678677 C68.1354125,307.560058 59.8913626,299.375318 54.7314177,294.333992 C48.5632078,287.928543 42.6322366,281.760333 41.1494939,280.218281 L41.9205201,303.408378 C42.0391395,307.500748 42.3949978,309.042801 43.8777406,309.398659 C44.826696,309.635898 45.8349611,309.635898 46.3094387,309.635898 C46.7839164,309.635898 47.0211553,309.813827 47.0211553,310.051066 C47.0211553,310.347614 46.7246067,310.466234 46.0721999,310.466234 C42.8694755,310.466234 40.7343259,310.288304 40.3191579,310.288304 C39.9039899,310.288304 37.7095306,310.466234 35.159213,310.466234 C34.6254256,310.466234 34.2695674,310.406924 34.2695674,310.051066 C34.2695674,309.813827 34.5068062,309.635898 35.0999033,309.635898 C35.5150713,309.635898 36.1674781,309.635898 36.9385044,309.398659 C38.243318,308.983491 38.5398666,307.382129 38.5398666,303.05252 Z M99.2615652,311.11864 C84.7306859,311.11864 78.7997148,300.324273 78.7997148,291.309197 C78.7997148,283.421005 84.908615,271.618373 99.5581137,271.618373 C111.301437,271.618373 120.257203,278.616919 120.257203,290.538171 C120.257203,301.866325 111.894534,311.11864 99.2615652,311.11864 Z M100.744308,309.10211 C104.718059,309.10211 114.68209,307.08558 114.68209,292.020913 C114.68209,280.099661 107.327686,273.456974 99.2022554,273.456974 C90.9582056,273.456974 84.3155179,278.557609 84.3155179,289.767144 C84.3155179,301.391848 90.7802764,309.10211 100.744308,309.10211 Z M132.344938,306.611102 L123.211243,277.371415 C122.380907,274.761787 121.965739,273.872142 120.305067,273.397664 C119.65266,273.219735 118.585085,273.160425 118.169917,273.160425 C117.873369,273.160425 117.458201,273.041806 117.458201,272.685948 C117.458201,272.448709 117.754749,272.330089 118.347846,272.330089 C121.431951,272.330089 124.160198,272.508018 124.753295,272.508018 C125.168463,272.508018 127.778091,272.330089 130.565647,272.330089 C131.277363,272.330089 131.395983,272.567328 131.395983,272.745257 C131.395983,273.101115 131.040125,273.219735 130.565647,273.219735 C130.150479,273.219735 129.320143,273.219735 128.667736,273.456974 C128.133949,273.634903 128.074639,274.109381 128.074639,274.702478 C128.074639,275.354885 128.549117,277.015556 129.082904,279.269325 C129.85393,282.47205 134.954566,300.087034 135.844211,302.9339 L146.816508,275.058336 C147.646844,272.804567 147.943392,272.508018 148.239941,272.508018 C148.655109,272.508018 148.951657,273.219735 149.663374,275.117646 L160.161193,302.99321 C161.584626,298.129814 166.566642,283.065147 168.168004,277.193486 C168.583172,275.651433 168.642482,275.354885 168.642482,274.702478 C168.642482,273.812832 168.345933,273.160425 165.795615,273.160425 C165.261828,273.160425 165.024589,272.923186 165.024589,272.685948 C165.024589,272.448709 165.261828,272.330089 165.914235,272.330089 C168.108694,272.330089 170.481083,272.508018 170.896251,272.508018 C171.252109,272.508018 174.158285,272.330089 175.759647,272.330089 C176.234125,272.330089 176.471363,272.508018 176.471363,272.685948 C176.471363,272.982496 176.174815,273.160425 175.700337,273.160425 C175.522408,273.160425 174.751382,273.219735 174.158285,273.338354 C172.378993,273.753522 171.785896,276.24453 170.836941,278.913467 C168.523862,285.318916 163.245298,301.213919 161.466007,306.136625 C159.923954,310.288304 159.508786,311.11864 159.034308,311.11864 C158.441211,311.11864 158.085353,310.288304 157.314327,308.093845 L147.113056,281.048617 C145.215146,285.674774 138.038671,303.586307 136.259379,308.093845 C135.369734,310.406924 134.954566,311.11864 134.420778,311.11864 C133.827681,311.11864 133.531133,310.347614 132.344938,306.611102 Z M184.407419,286.920278 L184.407419,295.935354 C184.407419,302.755971 184.644658,306.195934 185.652923,307.14489 C186.601878,307.975226 187.788073,308.331084 191.880443,308.331084 C194.49007,308.331084 196.862458,308.331084 198.167272,306.670412 C198.760369,305.780766 199.175537,304.594572 199.294157,303.704927 C199.353466,303.230449 199.472086,302.99321 199.768634,302.99321 C200.005873,302.99321 200.124493,303.171139 200.124493,303.764236 C200.124493,304.357333 199.768634,307.737987 199.412776,309.10211 C199.056918,310.288304 199.116227,310.584853 196.269361,310.584853 C192.236301,310.584853 187.788073,310.288304 181.857101,310.288304 C179.899881,310.288304 178.713687,310.466234 176.637847,310.466234 C176.04475,310.466234 175.688891,310.347614 175.688891,309.991756 C175.688891,309.813827 175.866821,309.635898 176.341298,309.635898 C176.815776,309.635898 177.290254,309.635898 177.764731,309.517278 C178.772996,309.339349 179.128855,308.153155 179.306784,306.729722 C179.662642,304.475953 179.544023,300.383583 179.544023,295.816735 L179.544023,286.920278 C179.544023,279.091396 179.544023,277.786583 179.425403,276.18522 C179.306784,274.524549 179.069545,273.456974 177.053015,273.219735 C176.697157,273.160425 176.04475,273.160425 175.570272,273.160425 C175.155104,273.160425 174.917865,272.982496 174.917865,272.745257 C174.917865,272.448709 175.214414,272.330089 175.807511,272.330089 C178.298519,272.330089 181.857101,272.508018 181.975721,272.508018 C182.806057,272.508018 186.423949,272.330089 188.084621,272.330089 C188.677718,272.330089 188.855647,272.508018 188.855647,272.745257 C188.855647,272.982496 188.559099,273.160425 188.203241,273.160425 C187.788073,273.160425 187.194975,273.219735 186.601878,273.279045 C184.941206,273.516283 184.585348,274.465239 184.466729,276.18522 C184.348109,277.786583 184.407419,279.091396 184.407419,286.920278 Z M205.450921,295.816735 L205.450921,286.920278 C205.450921,279.150706 205.450921,277.727273 205.332301,276.125911 C205.213682,274.465239 204.798514,273.634903 203.078532,273.279045 C202.722674,273.219735 202.129577,273.160425 201.655099,273.160425 C201.239931,273.160425 200.884073,272.982496 200.884073,272.804567 C200.884073,272.448709 201.180622,272.330089 201.773719,272.330089 C202.959913,272.330089 204.561275,272.448709 207.882619,272.508018 C208.179167,272.508018 218.736296,272.508018 219.92249,272.448709 C221.108685,272.389399 221.761091,272.330089 222.235569,272.15216 C222.591427,272.033541 222.650737,271.974231 222.887976,271.974231 C223.006595,271.974231 223.125215,272.09285 223.125215,272.389399 C223.125215,272.745257 222.769356,273.575593 222.650737,275.058336 C222.591427,276.066601 222.532118,277.015556 222.472808,278.142441 C222.472808,278.676228 222.354188,279.032087 222.05764,279.032087 C221.761091,279.032087 221.642472,278.794848 221.642472,278.37968 C221.583162,277.490034 221.405233,276.896937 221.227304,276.481769 C220.871446,275.295575 220.337658,274.880407 217.372173,274.702478 C216.601146,274.643168 210.729485,274.583858 210.610866,274.583858 C210.432937,274.583858 210.314317,274.702478 210.314317,275.058336 L210.314317,288.52164 C210.314317,288.877499 210.373627,289.114738 210.670175,289.114738 C211.381892,289.114738 217.431482,289.055428 218.676986,288.936808 C220.04111,288.877499 220.930755,288.69957 221.405233,288.047163 C221.642472,287.691304 221.820401,287.572685 222.05764,287.572685 C222.176259,287.572685 222.294879,287.631995 222.294879,287.928543 C222.294879,288.225092 222.05764,289.351976 221.879711,291.071958 C221.701782,292.73263 221.701782,293.918824 221.642472,294.68985 C221.583162,295.164328 221.464543,295.342257 221.227304,295.342257 C220.930755,295.342257 220.871446,294.986399 220.871446,294.571231 C220.871446,294.215373 220.812136,293.622276 220.693517,293.147798 C220.456278,292.376772 220.100419,291.546436 217.84665,291.368507 C216.482527,291.249887 211.67844,291.131268 210.729485,291.131268 C210.373627,291.131268 210.314317,291.309197 210.314317,291.546436 L210.314317,295.876045 C210.314317,297.714646 210.255007,302.9339 210.314317,303.942165 C210.432937,306.136625 210.729485,307.263509 211.974989,307.797297 C212.864635,308.212465 214.288068,308.331084 216.304598,308.331084 C217.431482,308.331084 219.329393,308.390394 220.812136,307.975226 C222.591427,307.441438 223.006595,306.255244 223.481073,304.060785 C223.599692,303.467688 223.777622,303.230449 224.01486,303.230449 C224.370719,303.230449 224.370719,303.764236 224.370719,304.120094 C224.370719,304.535262 223.896241,308.271774 223.718312,309.280039 C223.481073,310.466234 223.065905,310.584853 221.108685,310.584853 C217.194244,310.584853 215.533572,310.466234 213.457732,310.466234 C211.381892,310.406924 208.653645,310.288304 206.459186,310.288304 C205.095062,310.288304 203.968178,310.466234 202.544745,310.466234 C202.010958,310.466234 201.714409,310.347614 201.714409,310.051066 C201.714409,309.813827 201.951648,309.635898 202.248196,309.635898 C202.604055,309.635898 203.019223,309.576588 203.434391,309.457969 C204.501965,309.22073 205.213682,308.449703 205.332301,304.772501 C205.391611,302.755971 205.450921,300.324273 205.450921,295.816735 Z M231.17989,295.698115 L231.17989,286.920278 C231.17989,279.091396 231.17989,277.608654 231.06127,276.066601 C230.942651,274.465239 230.468173,273.634903 228.748192,273.279045 C228.392333,273.219735 227.502688,273.160425 227.02821,273.160425 C226.731661,273.160425 226.435113,272.982496 226.435113,272.804567 C226.435113,272.448709 226.790971,272.330089 227.324758,272.330089 C229.756457,272.330089 233.492968,272.508018 233.670898,272.508018 C234.086066,272.508018 237.170171,272.330089 240.491514,272.330089 C245.710769,272.330089 255.437562,271.796302 261.724391,278.142441 C264.334018,280.752068 266.765716,284.903748 266.765716,290.894029 C266.765716,297.180858 264.03747,302.103564 261.131294,305.06905 C258.818215,307.382129 254.310677,310.881402 245.295601,310.881402 C243.041832,310.881402 240.135656,310.762782 237.881887,310.584853 C235.628118,310.466234 233.789517,310.288304 233.611588,310.288304 C233.492968,310.288304 232.721942,310.288304 231.595058,310.347614 C230.468173,310.347614 229.04474,310.466234 228.155094,310.466234 C227.621307,310.466234 227.324758,310.347614 227.324758,310.051066 C227.324758,309.873136 227.502688,309.635898 227.977165,309.635898 C228.451643,309.635898 228.866811,309.576588 229.341289,309.457969 C230.349554,309.280039 230.705412,308.034535 230.883341,306.729722 C231.239199,304.535262 231.17989,300.502202 231.17989,295.698115 Z M236.043286,285.971323 L236.043286,291.961604 C236.043286,297.299478 236.102596,301.925635 236.102596,302.815281 C236.161905,304.653882 236.280525,306.255244 236.695693,306.789031 C237.3481,307.797297 239.24601,309.042801 245.41422,309.042801 C250.277617,309.042801 254.666535,307.500748 257.75064,304.416643 C260.360268,301.807016 261.605772,297.358787 261.605772,292.61401 C261.605772,285.912013 258.521667,281.819643 256.505136,279.862423 C251.463811,274.821097 245.651459,274.228 239.779798,274.228 C238.949462,274.228 237.110861,274.405929 236.755003,274.643168 C236.280525,274.880407 236.102596,275.117646 236.102596,275.651433 C236.043286,277.371415 236.043286,282.41274 236.043286,285.971323 Z M304.415937,300.739441 L304.415937,306.077315 C304.415937,308.449703 304.356628,308.509013 303.704221,308.864871 C300.442187,310.525543 295.69741,311.11864 292.791234,311.11864 C288.936103,311.11864 281.463079,310.822092 275.413489,305.780766 C272.210764,303.111829 269.00804,298.129814 269.00804,291.368507 C269.00804,283.302386 273.10041,277.549344 277.963806,274.643168 C282.530654,271.974231 287.571979,271.618373 291.189872,271.618373 C294.985693,271.618373 297.536011,272.09285 299.67116,272.448709 C300.620116,272.626638 302.933195,272.923186 304.178699,272.982496 C304.653176,272.982496 304.653176,273.219735 304.653176,273.456974 C304.653176,274.16869 304.238008,275.947982 304.238008,281.167236 C304.238008,281.997572 304.178699,282.234811 303.763531,282.234811 C303.466982,282.234811 303.407672,281.878953 303.348363,281.523094 C303.348363,280.989307 303.111124,279.150706 302.221478,277.845892 C300.857355,275.888672 296.587055,273.694213 289.944368,273.694213 C286.741643,273.694213 283.005132,273.812832 279.031381,276.837627 C276.006586,279.150706 274.049365,283.658244 274.049365,289.529906 C274.049365,296.587761 277.904496,301.807016 279.446549,303.289759 C283.36099,307.08558 287.749908,308.805562 292.909853,308.805562 C294.570525,308.805562 297.180153,308.509013 298.544276,307.797297 C299.137373,307.441438 299.552541,306.848341 299.552541,306.018005 L299.552541,297.477407 C299.552541,293.562966 299.255992,292.79194 297.180153,292.495391 C296.824294,292.436081 296.231197,292.376772 295.75672,292.376772 C295.282242,292.376772 295.045003,292.139533 295.045003,291.961604 C295.045003,291.665055 295.282242,291.546436 295.934649,291.546436 C298.307037,291.546436 301.747,291.665055 301.984239,291.665055 C302.221478,291.665055 305.720751,291.546436 307.322113,291.546436 C307.91521,291.546436 308.152449,291.665055 308.152449,291.961604 C308.152449,292.139533 307.97452,292.376772 307.440733,292.376772 C307.025565,292.376772 306.906945,292.376772 306.432468,292.436081 C305.009034,292.61401 304.653176,293.681585 304.534557,295.401567 C304.415937,297.121549 304.415937,298.604291 304.415937,300.739441 Z M314.90231,295.816735 L314.90231,286.920278 C314.90231,279.150706 314.90231,277.727273 314.783691,276.125911 C314.665072,274.465239 314.249904,273.634903 312.529922,273.279045 C312.174064,273.219735 311.580967,273.160425 311.106489,273.160425 C310.691321,273.160425 310.335463,272.982496 310.335463,272.804567 C310.335463,272.448709 310.632011,272.330089 311.225108,272.330089 C312.411303,272.330089 314.012665,272.448709 317.334009,272.508018 C317.630557,272.508018 328.187686,272.508018 329.37388,272.448709 C330.560074,272.389399 331.212481,272.330089 331.686959,272.15216 C332.042817,272.033541 332.102127,271.974231 332.339366,271.974231 C332.457985,271.974231 332.576604,272.09285 332.576604,272.389399 C332.576604,272.745257 332.220746,273.575593 332.102127,275.058336 C332.042817,276.066601 331.983507,277.015556 331.924198,278.142441 C331.924198,278.676228 331.805578,279.032087 331.50903,279.032087 C331.212481,279.032087 331.093862,278.794848 331.093862,278.37968 C331.034552,277.490034 330.856623,276.896937 330.678694,276.481769 C330.322835,275.295575 329.789048,274.880407 326.823562,274.702478 C326.052536,274.643168 320.180875,274.583858 320.062255,274.583858 C319.884326,274.583858 319.765707,274.702478 319.765707,275.058336 L319.765707,288.52164 C319.765707,288.877499 319.825017,289.114738 320.121565,289.114738 C320.833282,289.114738 326.882872,289.055428 328.128376,288.936808 C329.492499,288.877499 330.382145,288.69957 330.856623,288.047163 C331.093862,287.691304 331.271791,287.572685 331.50903,287.572685 C331.627649,287.572685 331.746268,287.631995 331.746268,287.928543 C331.746268,288.225092 331.50903,289.351976 331.331101,291.071958 C331.153171,292.73263 331.153171,293.918824 331.093862,294.68985 C331.034552,295.164328 330.915933,295.342257 330.678694,295.342257 C330.382145,295.342257 330.322835,294.986399 330.322835,294.571231 C330.322835,294.215373 330.263526,293.622276 330.144906,293.147798 C329.907667,292.376772 329.551809,291.546436 327.29804,291.368507 C325.933917,291.249887 321.12983,291.131268 320.180875,291.131268 C319.825017,291.131268 319.765707,291.309197 319.765707,291.546436 L319.765707,295.876045 C319.765707,297.714646 319.706397,302.9339 319.765707,303.942165 C319.884326,306.136625 320.180875,307.263509 321.426379,307.797297 C322.316024,308.212465 323.739457,308.331084 325.755988,308.331084 C326.882872,308.331084 328.780783,308.390394 330.263526,307.975226 C332.042817,307.441438 332.457985,306.255244 332.932463,304.060785 C333.051082,303.467688 333.229011,303.230449 333.46625,303.230449 C333.822108,303.230449 333.822108,303.764236 333.822108,304.120094 C333.822108,304.535262 333.347631,308.271774 333.169702,309.280039 C332.932463,310.466234 332.517295,310.584853 330.560074,310.584853 C326.645633,310.584853 324.984961,310.466234 322.909122,310.466234 C320.833282,310.406924 318.105035,310.288304 315.910576,310.288304 C314.546452,310.288304 313.419568,310.466234 311.996135,310.466234 C311.462347,310.466234 311.165799,310.347614 311.165799,310.051066 C311.165799,309.813827 311.403038,309.635898 311.699586,309.635898 C312.055444,309.635898 312.470612,309.576588 312.88578,309.457969 C313.953355,309.22073 314.665072,308.449703 314.783691,304.772501 C314.843001,302.755971 314.90231,300.324273 314.90231,295.816735 Z M4.56684777,355.126446 L4.56684777,346.22999 C4.56684777,338.045249 4.56684777,336.977675 4.44822835,335.376312 C4.32960892,333.83426 3.85513123,332.885304 2.19445932,332.529446 C1.77929134,332.470136 0.830335958,332.410827 0.355858268,332.410827 C0.237238845,332.410827 5.96855898e-13,332.292207 5.96855898e-13,332.114278 C5.96855898e-13,331.75842 0.296548556,331.639801 0.830335958,331.639801 C3.38065354,331.639801 6.64268766,331.81773 6.99854593,331.81773 C8.24404987,331.81773 11.2688451,331.639801 13.7005433,331.639801 C20.2246115,331.639801 22.597,333.77495 23.427336,334.486667 C24.5542205,335.494932 26.0369633,337.80801 26.0369633,341.129354 C26.0369633,347.712732 20.5804698,352.516819 13.1667559,352.516819 C12.9295171,352.516819 12.3364199,352.516819 12.0398714,352.457509 C11.8026325,352.457509 11.506084,352.33889 11.506084,352.101651 C11.506084,351.627173 11.8619423,351.627173 12.9888268,351.627173 C17.674294,351.627173 21.5887349,348.424449 21.5887349,343.205194 C21.5887349,342.434168 21.766664,338.875585 19.0384173,336.028719 C16.1322415,332.944614 12.7515879,333.241163 11.6840131,333.241163 C10.9129869,333.241163 10.0233412,333.359782 9.66748294,333.537711 C9.37093438,333.656331 9.31162467,334.071499 9.31162467,334.486667 L9.31162467,355.007827 C9.31162467,359.574675 9.31162467,363.844974 9.54886352,365.980123 C9.72679265,367.403556 10.0233412,368.589751 11.6247034,368.76768 C12.3364199,368.886299 13.5226142,369.004919 13.9970919,369.004919 C14.2343307,369.004919 14.3529501,369.123538 14.3529501,369.301467 C14.3529501,369.598016 14.1157113,369.775945 13.5226142,369.775945 C10.4385092,369.775945 7.11716535,369.598016 6.8206168,369.598016 C6.76130709,369.598016 3.26203412,369.775945 1.6013622,369.775945 C1.0675748,369.775945 0.771026247,369.657325 0.771026247,369.301467 C0.771026247,369.123538 0.889645669,369.004919 1.18619423,369.004919 C1.6013622,369.004919 2.25376903,368.886299 2.72824672,368.76768 C3.79582152,368.589751 4.09237008,367.403556 4.27029921,365.980123 C4.56684777,363.844974 4.56684777,359.574675 4.56684777,355.126446 Z M32.6682051,355.126446 L32.6682051,346.22999 C32.6682051,338.401108 32.6682051,336.977675 32.5495857,335.376312 C32.4309663,333.77495 32.0157983,332.885304 30.1771973,332.529446 C29.821339,332.470136 29.2282419,332.410827 28.7537642,332.410827 C28.3385962,332.410827 28.1013574,332.292207 28.1013574,332.054969 C28.1013574,331.81773 28.2792865,331.639801 28.8130739,331.639801 C31.3633915,331.639801 34.9812839,331.81773 35.0999033,331.81773 C35.6336907,331.81773 39.6667511,331.639801 41.327423,331.639801 C44.6487668,331.639801 48.2666592,331.936349 51.0542156,333.89357 C52.1811002,334.723906 54.6127983,337.096294 54.6127983,341.129354 C54.6127983,344.391388 53.0114361,348.543068 48.3259689,352.33889 C52.6555779,357.676764 56.2141605,362.065682 59.2389558,365.209097 C62.0858219,368.115273 63.8651133,368.589751 65.5257852,368.82699 C65.9409532,368.886299 67.1864571,368.945609 67.3643863,368.945609 C67.8388639,368.945609 68.0167931,369.123538 68.0167931,369.360777 C68.0167931,369.657325 67.7795542,369.775945 66.9492183,369.775945 L62.7975385,369.775945 C60.0099821,369.775945 58.7051684,369.598016 57.4003548,369.064228 C54.9093469,367.996654 53.1300555,365.327717 50.0459506,361.353966 C47.7328718,358.5071 45.3604834,355.304375 44.3522183,354.058871 C44.1149794,353.821633 43.99636,353.703013 43.6405017,353.703013 L37.5316015,353.643703 C37.2943626,353.643703 37.2350529,353.703013 37.2350529,353.940252 L37.2350529,354.770588 C37.2350529,359.515365 37.2350529,363.844974 37.5316015,365.980123 C37.7095306,367.403556 37.8874597,368.589751 39.8446802,368.82699 C40.4377773,368.886299 41.0901842,368.945609 41.5646618,368.945609 C42.0984492,368.945609 42.3356881,369.123538 42.3356881,369.301467 C42.3356881,369.598016 42.0984492,369.775945 41.5053521,369.775945 C38.4212471,369.775945 35.0999033,369.598016 34.8626645,369.598016 C33.9137091,369.598016 31.3040818,369.775945 29.7027196,369.775945 C29.1096225,369.775945 28.8723836,369.657325 28.8723836,369.301467 C28.8723836,369.123538 29.2282419,368.945609 29.5841002,368.945609 C29.9992681,368.945609 30.4144361,368.945609 30.8889138,368.82699 C31.8971789,368.64906 32.2530372,367.996654 32.4309663,366.57322 C32.7275149,364.438071 32.6682051,359.574675 32.6682051,355.126446 Z M37.2350529,334.308738 L37.2350529,350.440979 C37.2350529,350.737528 37.2943626,351.034076 37.5316015,351.152696 C38.3026277,351.567864 40.6750162,351.923722 42.8101658,351.923722 C44.0556697,351.923722 45.5384125,351.864412 46.7839164,351.034076 C48.5632078,349.907192 49.749402,347.297564 49.749402,343.501743 C49.749402,337.036984 46.3094387,333.478402 41.0308744,333.478402 C39.5481317,333.478402 38.3026277,333.597021 37.5909112,333.77495 C37.4129821,333.83426 37.2350529,334.012189 37.2350529,334.308738 Z M82.3582974,370.428352 C67.8274182,370.428352 61.896447,359.633984 61.896447,350.618908 C61.896447,342.730717 68.0053473,330.928084 82.654846,330.928084 C94.3981688,330.928084 103.353935,337.92663 103.353935,349.847882 C103.353935,361.176037 94.9912659,370.428352 82.3582974,370.428352 Z M83.8410402,368.411822 C87.8147909,368.411822 97.7788224,366.395291 97.7788224,351.330625 C97.7788224,339.409373 90.4244182,332.766685 82.2989877,332.766685 C74.0549379,332.766685 67.4122502,337.86732 67.4122502,349.076856 C67.4122502,360.701559 73.8770087,368.411822 83.8410402,368.411822 Z M114.907883,346.22999 L114.907883,357.558144 C114.907883,366.098743 114.967193,369.420087 113.306521,373.215908 C112.238946,375.766226 109.866558,378.138614 105.2404,381.222719 C104.587993,381.578577 103.698348,382.230984 103.16456,382.468223 C103.105251,382.527533 102.986631,382.527533 102.808702,382.527533 C102.690083,382.527533 102.393534,382.468223 102.393534,382.230984 C102.393534,381.875126 102.749392,381.756507 103.16456,381.459958 C103.757657,381.163409 104.469374,380.570312 104.825232,380.214454 C108.383815,376.833801 110.103797,374.283483 110.103797,360.701559 L110.103797,346.22999 C110.103797,338.401108 110.103797,337.036984 109.985177,335.435622 C109.866558,333.83426 109.33277,333.003924 107.672098,332.588756 C107.31624,332.529446 106.367285,332.470136 105.892807,332.470136 C105.714878,332.470136 105.477639,332.292207 105.477639,332.114278 C105.477639,331.75842 105.774188,331.639801 106.367285,331.639801 C108.858293,331.639801 112.298256,331.81773 112.476185,331.81773 C112.713424,331.81773 116.212697,331.639801 117.873369,331.639801 C118.466466,331.639801 118.703705,331.75842 118.703705,332.114278 C118.703705,332.292207 118.466466,332.470136 118.347846,332.470136 C117.991988,332.470136 117.63613,332.529446 116.983723,332.588756 C115.6196,332.885304 115.145122,333.77495 115.026503,335.494932 C114.907883,337.096294 114.907883,338.401108 114.907883,346.22999 Z M126.580451,355.126446 L126.580451,346.22999 C126.580451,338.460417 126.580451,337.036984 126.461831,335.435622 C126.343212,333.77495 125.928044,332.944614 124.208062,332.588756 C123.852204,332.529446 123.259107,332.470136 122.784629,332.470136 C122.369461,332.470136 122.013603,332.292207 122.013603,332.114278 C122.013603,331.75842 122.310151,331.639801 122.903248,331.639801 C124.089443,331.639801 125.690805,331.75842 129.012149,331.81773 C129.308697,331.81773 139.865826,331.81773 141.05202,331.75842 C142.238214,331.69911 142.890621,331.639801 143.365099,331.461871 C143.720957,331.343252 143.780267,331.283942 144.017506,331.283942 C144.136125,331.283942 144.254744,331.402562 144.254744,331.69911 C144.254744,332.054969 143.898886,332.885304 143.780267,334.368047 C143.720957,335.376312 143.661647,336.325268 143.602338,337.452152 C143.602338,337.98594 143.483718,338.341798 143.18717,338.341798 C142.890621,338.341798 142.772002,338.104559 142.772002,337.689391 C142.712692,336.799745 142.534763,336.206648 142.356834,335.79148 C142.000975,334.605286 141.467188,334.190118 138.501702,334.012189 C137.730676,333.952879 131.859015,333.89357 131.740395,333.89357 C131.562466,333.89357 131.443847,334.012189 131.443847,334.368047 L131.443847,347.831352 C131.443847,348.18721 131.503157,348.424449 131.799705,348.424449 C132.511422,348.424449 138.561012,348.365139 139.806516,348.24652 C141.170639,348.18721 142.060285,348.009281 142.534763,347.356874 C142.772002,347.001016 142.949931,346.882396 143.18717,346.882396 C143.305789,346.882396 143.424409,346.941706 143.424409,347.238255 C143.424409,347.534803 143.18717,348.661688 143.009241,350.381669 C142.831311,352.042341 142.831311,353.228535 142.772002,353.999562 C142.712692,354.474039 142.594073,354.651969 142.356834,354.651969 C142.060285,354.651969 142.000975,354.29611 142.000975,353.880942 C142.000975,353.525084 141.941666,352.931987 141.823046,352.457509 C141.585807,351.686483 141.229949,350.856147 138.97618,350.678218 C137.612057,350.559598 132.80797,350.440979 131.859015,350.440979 C131.503157,350.440979 131.443847,350.618908 131.443847,350.856147 L131.443847,355.185756 C131.443847,357.024357 131.384537,362.243612 131.443847,363.251877 C131.562466,365.446336 131.859015,366.57322 133.104519,367.107008 C133.994164,367.522176 135.417598,367.640795 137.434128,367.640795 C138.561012,367.640795 140.458923,367.700105 141.941666,367.284937 C143.720957,366.75115 144.136125,365.564955 144.610603,363.370496 C144.729222,362.777399 144.907151,362.54016 145.14439,362.54016 C145.500248,362.54016 145.500248,363.073948 145.500248,363.429806 C145.500248,363.844974 145.025771,367.581486 144.847842,368.589751 C144.610603,369.775945 144.195435,369.894564 142.238214,369.894564 C138.323773,369.894564 136.663101,369.775945 134.587262,369.775945 C132.511422,369.716635 129.783175,369.598016 127.588716,369.598016 C126.224592,369.598016 125.097708,369.775945 123.674275,369.775945 C123.140487,369.775945 122.843939,369.657325 122.843939,369.360777 C122.843939,369.123538 123.081178,368.945609 123.377726,368.945609 C123.733584,368.945609 124.148752,368.886299 124.56392,368.76768 C125.631495,368.530441 126.343212,367.759415 126.461831,364.082213 C126.521141,362.065682 126.580451,359.633984 126.580451,355.126446 Z M171.347837,370.428352 C163.518955,370.428352 158.181081,368.64906 153.970091,365.031168 C148.928766,360.642249 147.623952,354.829898 147.623952,349.907192 C147.623952,346.585848 148.928766,340.714186 153.614233,336.206648 C156.816958,333.122543 161.621044,330.928084 169.568545,330.928084 C172.296792,330.928084 174.491251,331.165323 177.397427,331.580491 C179.295338,331.877039 181.193249,332.173588 182.616682,332.232898 C183.09116,332.232898 183.150469,332.529446 183.150469,332.825995 C183.150469,333.300472 182.97254,333.83426 182.853921,335.732171 C182.794611,337.392843 182.794611,340.476948 182.735301,341.188664 C182.675992,342.019 182.557372,342.315549 182.260824,342.315549 C181.845656,342.315549 181.786346,341.95969 181.786346,341.188664 C181.786346,339.468682 180.95601,337.155604 179.473267,336.028719 C177.693976,334.486667 173.542296,333.003924 168.975448,333.003924 C162.39207,333.003924 159.367275,334.842525 157.587984,336.443887 C153.732853,339.94316 152.843207,344.213459 152.843207,349.432714 C152.843207,359.278126 160.850018,367.937344 171.288527,367.937344 C175.321587,367.937344 178.287073,367.522176 180.362913,365.505646 C181.430488,364.378761 182.023585,362.896018 182.320133,361.235346 C182.438753,360.642249 182.616682,360.345701 182.97254,360.345701 C183.269089,360.345701 183.269089,360.760869 183.269089,361.176037 C183.269089,361.650514 182.498062,366.454601 182.082895,367.759415 C181.727036,368.70837 181.549107,368.886299 180.718771,369.242157 C178.642931,370.131803 174.669181,370.428352 171.347837,370.428352 Z M202.41468,333.952879 L202.41468,355.126446 C202.41468,359.693294 202.473989,363.904283 202.711228,366.098743 C202.889157,367.522176 203.007777,368.352512 204.49052,368.70837 C205.202236,368.886299 206.329121,368.945609 206.803598,368.945609 C207.278076,368.945609 207.515315,369.123538 207.515315,369.301467 C207.515315,369.598016 207.337386,369.775945 206.744289,369.775945 C203.719493,369.775945 200.22022,369.598016 199.982982,369.598016 C199.745743,369.598016 196.24647,369.775945 194.704417,369.775945 C194.05201,369.775945 193.814772,369.657325 193.814772,369.360777 C193.814772,369.182848 193.992701,368.945609 194.467178,368.945609 C194.941656,368.945609 195.297514,368.945609 195.771992,368.886299 C196.898877,368.70837 197.076806,367.996654 197.314045,365.980123 C197.551283,363.844974 197.551283,359.574675 197.551283,355.126446 L197.551283,333.952879 C195.594063,333.952879 192.450648,333.952879 190.07826,334.012189 C186.282438,334.071499 185.452102,334.664596 184.621766,335.9101 C184.087979,336.740436 183.85074,337.452152 183.732121,337.748701 C183.554192,338.163869 183.435572,338.223178 183.198333,338.223178 C182.961094,338.223178 182.901785,337.98594 182.901785,337.689391 C182.842475,337.333533 183.732121,333.419092 184.087979,331.81773 C184.265908,331.106013 184.443837,330.868774 184.621766,330.868774 C185.036934,330.868774 186.163819,331.402562 187.231394,331.521181 C189.307234,331.75842 190.967905,331.81773 191.027215,331.81773 L210.4808,331.81773 C212.141472,331.81773 213.920764,331.69911 214.7511,331.521181 C215.522126,331.343252 215.700055,331.283942 215.877984,331.283942 C216.115223,331.283942 216.233842,331.580491 216.233842,331.81773 C216.233842,333.478402 216.115223,337.392843 216.115223,337.86732 C216.115223,338.401108 215.877984,338.579037 215.700055,338.579037 C215.403506,338.579037 215.284887,338.341798 215.284887,337.86732 C215.284887,337.689391 215.284887,337.630081 215.225577,337.036984 C214.988339,334.664596 214.217312,334.071499 208.227031,334.012189 C205.973262,334.012189 204.134661,333.952879 202.41468,333.952879 Z" id="public-knowledge-project" fill="#000000" fill-rule="nonzero"></path>
                <path d="M17.4913386,93.6892388 L17.4913386,58.3044619 C17.4913386,26.9406824 17.4913386,21.3112861 17.0892388,14.8776903 C16.6871391,8.04199475 15.0787402,4.82519685 8.44409449,3.41784777 C6.83569554,3.01574803 3.41784777,2.81469816 1.60839895,2.81469816 C0.804199475,2.81469816 0,2.41259843 0,1.60839895 C0,0.402099738 1.00524934,-8.52651283e-14 3.2167979,-8.52651283e-14 C12.264042,-8.52651283e-14 24.3270341,0.603149606 25.9354331,0.603149606 C30.3585302,0.603149606 42.0194226,-8.52651283e-14 51.2677165,-8.52651283e-14 C76.3989501,-8.52651283e-14 85.4461942,8.44409449 88.6629921,11.4598425 C93.0860892,15.6818898 98.7154856,24.7291339 98.7154856,37.7973753 C98.7154856,63.9338583 77.8062992,83.2346457 49.2572178,83.2346457 C48.2519685,83.2346457 46.0404199,83.2346457 45.0351706,83.0335958 C44.0299213,83.0335958 42.823622,82.6314961 42.823622,81.6262467 C42.823622,80.0178478 44.0299213,79.8167979 48.2519685,79.8167979 C67.7538058,79.8167979 83.0335958,66.5475066 83.0335958,45.4372703 C83.0335958,40.4110236 82.4304462,26.9406824 71.7748031,16.0839895 C61.1191601,5.22729659 48.8551181,6.03149606 44.2309711,6.03149606 C40.8131234,6.03149606 37.3952756,6.4335958 35.5858268,7.23779528 C34.3795276,7.63989501 33.9774278,9.04724409 33.9774278,11.0577428 L33.9774278,93.6892388 C33.9774278,112.990026 33.9774278,128.872966 34.9826772,137.31706 C35.5858268,143.147507 36.792126,147.570604 42.823622,148.374803 C45.6383202,148.776903 50.0614173,149.179003 51.8708661,149.179003 C53.0771654,149.179003 53.4792651,149.782152 53.4792651,150.385302 C53.4792651,151.390551 52.4740157,151.993701 50.2624672,151.993701 C39.2047244,151.993701 26.5385827,151.390551 25.5333333,151.390551 C24.9301837,151.390551 12.264042,151.993701 6.23254593,151.993701 C4.02099738,151.993701 3.01574803,151.591601 3.01574803,150.385302 C3.01574803,149.782152 3.41784777,149.179003 4.62414698,149.179003 C6.4335958,149.179003 8.84619423,148.776903 10.655643,148.374803 C14.6766404,147.570604 15.6818898,143.147507 16.4860892,137.31706 C17.4913386,128.872966 17.4913386,112.990026 17.4913386,93.6892388 Z M132.833648,58.3044619 L132.833648,71.1716535 C139.066194,65.1401575 166.408976,36.3900262 178.673018,23.7238845 C190.73601,11.2587927 191.54021,9.24829396 191.54021,6.83569554 C191.54021,5.22729659 190.534961,3.61889764 188.926562,3.01574803 C187.519213,2.41259843 187.117113,2.01049869 187.117113,1.20629921 C187.117113,0.402099738 188.323412,-8.52651283e-14 190.132861,-8.52651283e-14 C195.963307,-8.52651283e-14 195.360157,0.603149606 202.195853,0.603149606 C208.428399,0.603149606 220.290341,-8.52651283e-14 223.507139,-8.52651283e-14 C226.321837,-8.52651283e-14 226.924987,0.603149606 226.924987,1.40734908 C226.924987,2.21154856 226.522887,2.61364829 224.713438,2.81469816 C220.893491,3.2167979 217.274593,4.02099738 214.459895,5.22729659 C209.433648,7.23779528 205.613701,9.6503937 193.550709,21.3112861 C175.85832,38.4005249 152.938635,61.1191601 147.711339,66.9496063 C160.37748,80.8220472 196.968556,118.016273 206.4179,126.862467 C222.90399,142.343307 229.940735,146.766404 239.591129,148.575853 C241.400577,148.977953 243.411076,149.179003 245.421575,149.179003 C247.029974,149.179003 248.236273,149.581102 248.236273,150.586352 C248.236273,151.591601 247.432073,151.993701 245.220525,151.993701 L230.342835,151.993701 C212.851496,151.993701 208.227349,149.782152 198.778005,142.343307 C186.715013,132.893963 150.526037,94.0913386 132.833648,72.9811024 L132.833648,93.6892388 C132.833648,112.990026 132.833648,128.872966 133.838898,137.31706 C134.442047,143.147507 135.648346,147.570604 141.679843,148.374803 C144.494541,148.776903 148.515538,149.179003 149.721837,149.179003 C151.531286,149.179003 152.134436,149.983202 152.134436,150.586352 C152.134436,151.591601 151.330236,151.993701 149.118688,151.993701 C138.060945,151.993701 125.394803,151.390551 124.389554,151.390551 C123.384304,151.390551 111.522362,151.993701 105.490866,151.993701 C103.279318,151.993701 102.274068,151.792651 102.274068,150.586352 C102.274068,149.983202 102.676168,149.179003 104.485617,149.179003 C105.691916,149.179003 107.903465,148.977953 109.712913,148.575853 C113.733911,147.771654 114.94021,143.147507 115.744409,137.31706 C116.749659,128.872966 116.749659,112.990026 116.749659,93.6892388 L116.749659,58.3044619 C116.749659,26.9406824 116.749659,21.3112861 116.347559,14.8776903 C115.945459,8.04199475 113.934961,4.62414698 109.511864,3.61889764 C107.300315,3.01574803 103.681417,2.81469816 102.274068,2.81469816 C100.665669,2.81469816 100.06252,2.41259843 100.06252,1.60839895 C100.06252,0.402099738 101.067769,-8.52651283e-14 103.279318,-8.52651283e-14 C109.913963,-8.52651283e-14 123.384304,0.603149606 124.389554,0.603149606 C125.394803,0.603149606 138.060945,-8.52651283e-14 144.092441,-8.52651283e-14 C146.30399,-8.52651283e-14 147.309239,0.402099738 147.309239,1.40734908 C147.309239,2.21154856 146.907139,2.61364829 145.09769,2.81469816 C142.886142,3.01574803 142.685092,3.01574803 140.674593,3.2167979 C135.246247,3.81994751 133.637848,7.84094488 133.235748,14.8776903 C132.833648,21.3112861 132.833648,26.9406824 132.833648,58.3044619 Z M255.614803,93.6892388 L255.614803,58.3044619 C255.614803,26.9406824 255.614803,21.3112861 255.212703,14.8776903 C254.810604,8.04199475 253.202205,4.82519685 246.567559,3.41784777 C244.95916,3.01574803 241.541312,2.81469816 239.731864,2.81469816 C238.927664,2.81469816 238.123465,2.41259843 238.123465,1.60839895 C238.123465,0.402099738 239.128714,-8.52651283e-14 241.340262,-8.52651283e-14 C250.387507,-8.52651283e-14 262.450499,0.603149606 264.058898,0.603149606 C268.481995,0.603149606 280.142887,-8.52651283e-14 289.391181,-8.52651283e-14 C314.522415,-8.52651283e-14 323.569659,8.44409449 326.786457,11.4598425 C331.209554,15.6818898 336.83895,24.7291339 336.83895,37.7973753 C336.83895,63.9338583 315.929764,83.2346457 287.380682,83.2346457 C286.375433,83.2346457 284.163885,83.2346457 283.158635,83.0335958 C282.153386,83.0335958 280.947087,82.6314961 280.947087,81.6262467 C280.947087,80.0178478 282.153386,79.8167979 286.375433,79.8167979 C305.87727,79.8167979 321.15706,66.5475066 321.15706,45.4372703 C321.15706,40.4110236 320.553911,26.9406824 309.898268,16.0839895 C299.242625,5.22729659 286.978583,6.03149606 282.354436,6.03149606 C278.936588,6.03149606 275.51874,6.4335958 273.709291,7.23779528 C272.502992,7.63989501 272.100892,9.04724409 272.100892,11.0577428 L272.100892,93.6892388 C272.100892,112.990026 272.100892,128.872966 273.106142,137.31706 C273.709291,143.147507 274.915591,147.570604 280.947087,148.374803 C283.761785,148.776903 288.184882,149.179003 289.994331,149.179003 C291.20063,149.179003 291.60273,149.782152 291.60273,150.385302 C291.60273,151.390551 290.59748,151.993701 288.385932,151.993701 C277.328189,151.993701 264.662047,151.390551 263.656798,151.390551 C263.053648,151.390551 250.387507,151.993701 244.35601,151.993701 C242.144462,151.993701 241.139213,151.591601 241.139213,150.385302 C241.139213,149.782152 241.541312,149.179003 242.747612,149.179003 C244.55706,149.179003 246.969659,148.776903 248.779108,148.374803 C252.800105,147.570604 253.805354,143.147507 254.609554,137.31706 C255.614803,128.872966 255.614803,112.990026 255.614803,93.6892388 Z" id="PKP" fill="#000000" fill-rule="nonzero"></path>
                <path d="M2.27373675e-13,182.151181 L336.83895,182.151181" id="Line" stroke="#000000" stroke-width="5" stroke-linecap="square"></path>
            </g>
        </g>
    </g>
</svg>
