<svg width="694" height="177" viewBox="0 0 694 177" fill="none" xmlns="http://www.w3.org/2000/svg">
<path d="M18.9881 101.706V63.2936C18.9881 29.246 18.9881 23.1349 18.5516 16.1508C18.1151 8.73016 16.369 5.2381 9.16667 3.71032C7.42064 3.27381 3.71032 3.05556 1.74603 3.05556C0.873016 3.05556 0 2.61905 0 1.74603C0 0.436508 1.09127 0 3.49206 0C13.3135 0 26.4087 0.654762 28.1548 0.654762C32.9563 0.654762 45.6151 0 55.6548 0C82.9365 0 92.7579 9.16667 96.25 12.4405C101.052 17.0238 107.163 26.8452 107.163 41.0317C107.163 69.4048 84.4643 90.3571 53.4722 90.3571C52.381 90.3571 49.9802 90.3571 48.8889 90.1389C47.7976 90.1389 46.4881 89.7024 46.4881 88.6111C46.4881 86.8651 47.7976 86.6468 52.381 86.6468C73.5516 86.6468 90.1389 72.2421 90.1389 49.3254C90.1389 43.869 89.4841 29.246 77.9167 17.4603C66.3492 5.6746 53.0357 6.54762 48.0159 6.54762C44.3056 6.54762 40.5952 6.98413 38.631 7.85714C37.3214 8.29365 36.8849 9.82143 36.8849 12.004V101.706C36.8849 122.659 36.8849 139.901 37.9762 149.067C38.631 155.397 39.9405 160.198 46.4881 161.071C49.5436 161.508 54.3452 161.944 56.3095 161.944C57.619 161.944 58.0556 162.599 58.0556 163.254C58.0556 164.345 56.9643 165 54.5635 165C42.5595 165 28.8095 164.345 27.7183 164.345C27.0635 164.345 13.3135 165 6.76587 165C4.36508 165 3.27381 164.563 3.27381 163.254C3.27381 162.599 3.71032 161.944 5.01984 161.944C6.98413 161.944 9.60317 161.508 11.5675 161.071C15.9325 160.198 17.0238 155.397 17.8968 149.067C18.9881 139.901 18.9881 122.659 18.9881 101.706ZM144.2 63.2936V77.2619C150.966 70.7143 180.649 39.504 193.962 25.754C207.058 12.2222 207.931 10.0397 207.931 7.42064C207.931 5.6746 206.839 3.92857 205.093 3.27381C203.565 2.61905 203.129 2.18254 203.129 1.30952C203.129 0.436508 204.438 0 206.403 0C212.732 0 212.077 0.654762 219.498 0.654762C226.264 0.654762 239.141 0 242.633 0C245.688 0 246.343 0.654762 246.343 1.52778C246.343 2.40079 245.907 2.8373 243.942 3.05556C239.796 3.49206 235.867 4.36508 232.812 5.6746C227.355 7.85714 223.208 10.4762 210.113 23.1349C190.907 41.6865 166.026 66.3492 160.351 72.6786C174.101 87.7381 213.823 128.115 224.081 137.718C241.978 154.524 249.617 159.325 260.093 161.29C262.058 161.726 264.24 161.944 266.423 161.944C268.169 161.944 269.478 162.381 269.478 163.472C269.478 164.563 268.605 165 266.204 165H250.054C231.065 165 226.046 162.599 215.788 154.524C202.692 144.266 163.407 102.143 144.2 79.2262V101.706C144.2 122.659 144.2 139.901 145.292 149.067C145.946 155.397 147.256 160.198 153.804 161.071C156.859 161.508 161.224 161.944 162.534 161.944C164.498 161.944 165.153 162.817 165.153 163.472C165.153 164.563 164.28 165 161.879 165C149.875 165 136.125 164.345 135.034 164.345C133.942 164.345 121.065 165 114.518 165C112.117 165 111.026 164.782 111.026 163.472C111.026 162.817 111.462 161.944 113.427 161.944C114.736 161.944 117.137 161.726 119.101 161.29C123.466 160.417 124.776 155.397 125.649 149.067C126.74 139.901 126.74 122.659 126.74 101.706V63.2936C126.74 29.246 126.74 23.1349 126.304 16.1508C125.867 8.73016 123.685 5.01984 118.883 3.92857C116.482 3.27381 112.554 3.05556 111.026 3.05556C109.28 3.05556 108.625 2.61905 108.625 1.74603C108.625 0.436508 109.716 0 112.117 0C119.319 0 133.942 0.654762 135.034 0.654762C136.125 0.654762 149.875 0 156.423 0C158.823 0 159.915 0.436508 159.915 1.52778C159.915 2.40079 159.478 2.8373 157.514 3.05556C155.113 3.27381 154.895 3.27381 152.712 3.49206C146.819 4.14683 145.073 8.5119 144.637 16.1508C144.2 23.1349 144.2 29.246 144.2 63.2936ZM277.488 101.706V63.2936C277.488 29.246 277.488 23.1349 277.052 16.1508C276.615 8.73016 274.869 5.2381 267.667 3.71032C265.921 3.27381 262.21 3.05556 260.246 3.05556C259.373 3.05556 258.5 2.61905 258.5 1.74603C258.5 0.436508 259.591 0 261.992 0C271.813 0 284.909 0.654762 286.655 0.654762C291.456 0.654762 304.115 0 314.155 0C341.437 0 351.258 9.16667 354.75 12.4405C359.552 17.0238 365.663 26.8452 365.663 41.0317C365.663 69.4048 342.964 90.3571 311.972 90.3571C310.881 90.3571 308.48 90.3571 307.389 90.1389C306.298 90.1389 304.988 89.7024 304.988 88.6111C304.988 86.8651 306.298 86.6468 310.881 86.6468C332.052 86.6468 348.639 72.2421 348.639 49.3254C348.639 43.869 347.984 29.246 336.417 17.4603C324.849 5.6746 311.536 6.54762 306.516 6.54762C302.806 6.54762 299.095 6.98413 297.131 7.85714C295.821 8.29365 295.385 9.82143 295.385 12.004V101.706C295.385 122.659 295.385 139.901 296.476 149.067C297.131 155.397 298.44 160.198 304.988 161.071C308.044 161.508 312.845 161.944 314.81 161.944C316.119 161.944 316.556 162.599 316.556 163.254C316.556 164.345 315.464 165 313.064 165C301.06 165 287.31 164.345 286.218 164.345C285.563 164.345 271.813 165 265.266 165C262.865 165 261.774 164.563 261.774 163.254C261.774 162.599 262.21 161.944 263.52 161.944C265.484 161.944 268.103 161.508 270.067 161.071C274.433 160.198 275.524 155.397 276.397 149.067C277.488 139.901 277.488 122.659 277.488 101.706Z" fill="#272522"/>
<path d="M405.342 24.6106H414.821C417.19 24.6106 419.093 24.2019 420.529 23.3844C421.965 22.5669 423.01 21.459 423.663 20.0607C424.317 18.6623 424.643 17.0811 424.643 15.3171C424.643 13.553 424.317 11.9754 423.663 10.5843C423.01 9.19312 421.958 8.09956 420.507 7.30358C419.057 6.50761 417.133 6.10963 414.734 6.10963H405.342V24.6106ZM405.342 29.3434V45.435H400V1.37682H414.907C418.368 1.37682 421.2 1.9971 423.405 3.23767C425.609 4.47825 427.243 6.15264 428.306 8.2609C429.368 10.3692 429.9 12.7212 429.9 15.3171C429.9 17.913 429.372 20.2722 428.316 22.3948C427.261 24.5174 425.634 26.2061 423.437 27.461C421.24 28.716 418.425 29.3434 414.993 29.3434H405.342ZM456.6 31.9249V12.3914H461.684V45.435H456.6V39.8416H456.256C455.48 41.5196 454.274 42.9431 452.637 44.1119C451 45.2808 448.932 45.8652 446.433 45.8652C444.365 45.8652 442.527 45.4099 440.918 44.4992C439.31 43.5884 438.046 42.2116 437.127 40.3687C436.208 38.5258 435.748 36.1988 435.748 33.3878V12.3914H440.832V33.0436C440.832 35.4531 441.511 37.3748 442.868 38.809C444.225 40.2432 445.959 40.9603 448.07 40.9603C449.334 40.9603 450.623 40.6376 451.937 39.9922C453.251 39.3468 454.357 38.3573 455.254 37.0235C456.152 35.6897 456.6 33.9902 456.6 31.9249ZM469.601 45.435V1.37682H474.685V17.6405H475.116C475.489 17.0668 476.01 16.3318 476.677 15.4354C477.345 14.539 478.307 13.7359 479.564 13.026C480.821 12.3161 482.526 11.9611 484.68 11.9611C487.466 11.9611 489.922 12.6567 492.047 14.0478C494.173 15.439 495.831 17.411 497.023 19.9638C498.215 22.5167 498.811 25.5285 498.811 28.9992C498.811 32.4986 498.215 35.5283 497.023 38.0884C495.831 40.6484 494.18 42.6275 492.069 44.0259C489.958 45.4242 487.523 46.1234 484.766 46.1234C482.641 46.1234 480.939 45.7684 479.661 45.0585C478.383 44.3486 477.399 43.5383 476.71 42.6275C476.02 41.7168 475.489 40.9603 475.116 40.3579H474.512V45.435H469.601ZM474.599 28.9132C474.599 31.4087 474.965 33.6065 475.697 35.5068C476.43 37.4071 477.5 38.8915 478.907 39.96C480.314 41.0284 482.038 41.5627 484.077 41.5627C486.202 41.5627 487.979 40.9998 489.408 39.8739C490.837 38.7481 491.914 37.2279 492.64 35.3132C493.365 33.3986 493.727 31.2652 493.727 28.9132C493.727 26.5898 493.372 24.4923 492.661 22.6207C491.95 20.7491 490.88 19.2647 489.451 18.1675C488.023 17.0704 486.231 16.5218 484.077 16.5218C482.009 16.5218 480.271 17.0417 478.864 18.0815C477.456 19.1213 476.394 20.5698 475.676 22.4271C474.958 24.2843 474.599 26.4463 474.599 28.9132ZM509.571 1.37682V45.435H504.488V1.37682H509.571ZM516.799 45.435V12.3914H521.883V45.435H516.799ZM519.384 6.88409C518.393 6.88409 517.542 6.54706 516.831 5.87299C516.12 5.19892 515.765 4.38861 515.765 3.44204C515.765 2.49548 516.12 1.68517 516.831 1.0111C517.542 0.33703 518.393 0 519.384 0C520.375 0 521.226 0.33703 521.936 1.0111C522.647 1.68517 523.003 2.49548 523.003 3.44204C523.003 4.38861 522.647 5.19892 521.936 5.87299C521.226 6.54706 520.375 6.88409 519.384 6.88409ZM542.552 46.1234C539.45 46.1234 536.779 45.3919 534.538 43.9291C532.298 42.4662 530.575 40.4512 529.369 37.884C528.162 35.3168 527.559 32.3839 527.559 29.0853C527.559 25.7293 528.18 22.7641 529.422 20.1897C530.665 17.6154 532.402 15.6003 534.635 14.1446C536.869 12.6889 539.479 11.9611 542.466 11.9611C544.792 11.9611 546.889 12.3913 548.756 13.2519C550.623 14.1124 552.152 15.3171 553.344 16.866C554.536 18.4149 555.276 20.222 555.563 22.2872H550.479C550.091 20.7813 549.233 19.444 547.905 18.2751C546.577 17.1062 544.792 16.5218 542.552 16.5218C540.57 16.5218 538.836 17.0345 537.35 18.06C535.863 19.0854 534.707 20.5268 533.881 22.384C533.056 24.2413 532.643 26.4177 532.643 28.9132C532.643 31.466 533.048 33.689 533.86 35.5821C534.671 37.4752 535.82 38.9453 537.307 39.9922C538.793 41.0392 540.541 41.5627 542.552 41.5627C543.873 41.5627 545.072 41.3332 546.149 40.8743C547.226 40.4153 548.138 39.7556 548.885 38.8951C549.632 38.0346 550.163 37.002 550.479 35.7972H555.563C555.276 37.7477 554.568 39.501 553.441 41.0571C552.314 42.6132 550.827 43.8466 548.982 44.7573C547.137 45.668 544.993 46.1234 542.552 46.1234ZM400 105.022V60.9636H405.342V82.8206H405.859L425.677 60.9636H432.657L414.131 80.8414L432.657 105.022H426.194L410.857 84.5416L405.342 90.7373V105.022H400ZM441.866 85.144V105.022H436.782V71.9782H441.694V77.1413H442.125C442.9 75.4633 444.078 74.1115 445.657 73.0861C447.237 72.0607 449.276 71.5479 451.775 71.5479C454.015 71.5479 455.976 72.0033 457.656 72.914C459.336 73.8247 460.643 75.2015 461.577 77.0444C462.51 78.8874 462.977 81.2143 462.977 84.0253V105.022H457.893V84.3695C457.893 81.7737 457.218 79.7479 455.868 78.2922C454.518 76.8365 452.666 76.1086 450.31 76.1086C448.688 76.1086 447.241 76.46 445.97 77.1628C444.699 77.8655 443.697 78.891 442.965 80.2391C442.232 81.5872 441.866 83.2222 441.866 85.144ZM483.646 105.71C480.659 105.71 478.042 105 475.794 103.58C473.547 102.161 471.795 100.174 470.538 97.6214C469.281 95.0685 468.653 92.0855 468.653 88.6721C468.653 85.23 469.281 82.2254 470.538 79.6582C471.795 77.091 473.547 75.0976 475.794 73.6777C478.042 72.2579 480.659 71.5479 483.646 71.5479C486.633 71.5479 489.25 72.2579 491.498 73.6777C493.745 75.0976 495.497 77.091 496.754 79.6582C498.011 82.2254 498.639 85.23 498.639 88.6721C498.639 92.0855 498.011 95.0685 496.754 97.6214C495.497 100.174 493.745 102.161 491.498 103.58C489.25 105 486.633 105.71 483.646 105.71ZM483.646 101.15C485.915 101.15 487.782 100.569 489.247 99.407C490.712 98.2453 491.796 96.7179 492.5 94.8247C493.203 92.9316 493.555 90.8808 493.555 88.6721C493.555 86.4634 493.203 84.4054 492.5 82.4979C491.796 80.5905 490.712 79.0487 489.247 77.8727C487.782 76.6967 485.915 76.1086 483.646 76.1086C481.377 76.1086 479.51 76.6967 478.045 77.8727C476.58 79.0487 475.496 80.5905 474.792 82.4979C474.089 84.4054 473.737 86.4634 473.737 88.6721C473.737 90.8808 474.089 92.9316 474.792 94.8247C475.496 96.7179 476.58 98.2453 478.045 99.407C479.51 100.569 481.377 101.15 483.646 101.15ZM510.692 105.022L500.61 71.9782H505.952L513.104 97.2772H513.449L520.514 71.9782H525.943L532.922 97.1912H533.267L540.419 71.9782H545.761L535.68 105.022H530.682L523.444 79.6367H522.927L515.689 105.022H510.692ZM555.487 60.9636V105.022H550.404V60.9636H555.487ZM566.272 85.8324H585.118C585.118 83.968 584.748 82.3043 584.009 80.8414C583.269 79.3786 582.221 78.2241 580.863 77.3779C579.506 76.5317 577.909 76.1086 576.07 76.1086C574.046 76.1086 572.297 76.607 570.825 77.6038C569.353 78.6005 568.222 79.8949 567.432 81.4868C566.755 82.8511 566.369 84.2996 566.272 85.8324ZM566.259 90.221C566.332 92.4188 566.763 94.3011 567.551 95.8681C568.42 97.5963 569.63 98.9086 571.181 99.805C572.732 100.701 574.534 101.15 576.587 101.15C577.923 101.15 579.133 100.959 580.217 100.579C581.301 100.199 582.238 99.6257 583.028 98.8584C583.818 98.0911 584.429 97.1338 584.859 95.9864L589.771 97.3633C589.254 99.0269 588.385 100.486 587.164 101.741C585.944 102.996 584.436 103.971 582.641 104.667C580.845 105.362 578.828 105.71 576.587 105.71C573.399 105.71 570.653 105.004 568.348 103.591C566.043 102.179 564.269 100.199 563.027 97.6537C561.785 95.108 561.164 92.1428 561.164 88.7581C561.164 85.3735 561.785 82.3868 563.027 79.7981C564.269 77.2094 566.007 75.1872 568.24 73.7315C570.473 72.2758 573.083 71.5479 576.07 71.5479C577.794 71.5479 579.496 71.8348 581.176 72.4084C582.856 72.9821 584.385 73.9107 585.764 75.1943C587.143 76.4779 588.241 78.1739 589.06 80.2821C589.879 82.3904 590.288 84.9862 590.288 88.0697V90.221H566.259ZM608.458 105.71C605.701 105.71 603.267 105.011 601.156 103.613C599.045 102.214 597.393 100.235 596.201 97.6752C595.009 95.1152 594.413 92.0855 594.413 88.586C594.413 85.1153 595.009 82.1035 596.201 79.5507C597.393 76.9978 599.052 75.0258 601.177 73.6347C603.303 72.2435 605.758 71.5479 608.544 71.5479C610.699 71.5479 612.404 71.9029 613.661 72.6128C614.917 73.3227 615.879 74.1259 616.547 75.0222C617.215 75.9186 617.735 76.6536 618.109 77.2273H618.54V60.9636H623.623V105.022H618.712V99.9448H618.109C617.735 100.547 617.204 101.304 616.515 102.214C615.825 103.125 614.842 103.935 613.564 104.645C612.286 105.355 610.584 105.71 608.458 105.71ZM609.148 101.15C611.187 101.15 612.91 100.615 614.318 99.5468C615.725 98.4783 616.795 96.994 617.527 95.0937C618.26 93.1934 618.626 90.9955 618.626 88.5C618.626 86.0332 618.267 83.8712 617.549 82.0139C616.831 80.1566 615.768 78.7081 614.361 77.6683C612.953 76.6285 611.216 76.1086 609.148 76.1086C606.993 76.1086 605.202 76.6572 603.773 77.7544C602.344 78.8515 601.274 80.3359 600.563 82.2075C599.852 84.0791 599.497 86.1766 599.497 88.5C599.497 90.8521 599.86 92.9854 600.585 94.9C601.31 96.8147 602.387 98.3349 603.816 99.4607C605.245 100.587 607.022 101.15 609.148 101.15ZM644.896 118.102C642.44 118.102 640.329 117.79 638.563 117.166C636.796 116.542 635.328 115.724 634.157 114.713C632.987 113.702 632.057 112.623 631.368 111.476L635.418 108.636C635.877 109.238 636.459 109.93 637.163 110.712C637.866 111.494 638.832 112.175 640.06 112.756C641.288 113.336 642.9 113.627 644.896 113.627C647.567 113.627 649.771 112.982 651.509 111.691C653.247 110.4 654.116 108.378 654.116 105.624V98.9122H653.685C653.311 99.5145 652.784 100.257 652.102 101.139C651.419 102.021 650.443 102.802 649.172 103.484C647.901 104.165 646.188 104.505 644.034 104.505C641.363 104.505 638.968 103.874 636.85 102.612C634.732 101.35 633.059 99.5145 631.831 97.1051C630.603 94.6957 629.989 91.7699 629.989 88.3279C629.989 84.9432 630.585 81.9924 631.777 79.4754C632.969 76.9584 634.628 75.0079 636.753 73.6239C638.879 72.2399 641.334 71.5479 644.12 71.5479C646.275 71.5479 647.987 71.9029 649.258 72.6128C650.529 73.3227 651.506 74.1259 652.188 75.0222C652.87 75.9186 653.398 76.6536 653.771 77.2273H654.288V71.9782H659.199V105.968C659.199 108.808 658.557 111.121 657.272 112.906C655.986 114.692 654.263 116.004 652.102 116.843C649.94 117.682 647.538 118.102 644.896 118.102ZM644.724 99.9448C646.763 99.9448 648.486 99.4787 649.894 98.5465C651.301 97.6142 652.371 96.2733 653.103 94.5236C653.836 92.7739 654.202 90.68 654.202 88.2418C654.202 85.8611 653.843 83.76 653.125 81.9386C652.407 80.1172 651.344 78.6902 649.937 77.6576C648.529 76.6249 646.792 76.1086 644.724 76.1086C642.569 76.1086 640.778 76.6536 639.349 77.7436C637.92 78.8336 636.85 80.2965 636.139 82.1322C635.428 83.968 635.073 86.0045 635.073 88.2418C635.073 90.5365 635.436 92.5623 636.161 94.3192C636.886 96.0761 637.963 97.4529 639.392 98.4496C640.821 99.4464 642.598 99.9448 644.724 99.9448ZM669.984 85.8324H688.83C688.83 83.968 688.46 82.3043 687.721 80.8414C686.981 79.3786 685.933 78.2241 684.576 77.3779C683.218 76.5317 681.621 76.1086 679.783 76.1086C677.758 76.1086 676.009 76.607 674.537 77.6038C673.065 78.6005 671.934 79.8949 671.144 81.4868C670.468 82.8511 670.081 84.2996 669.984 85.8324ZM669.971 90.221C670.045 92.4188 670.475 94.3011 671.263 95.8681C672.132 97.5963 673.342 98.9086 674.893 99.805C676.444 100.701 678.246 101.15 680.3 101.15C681.635 101.15 682.845 100.959 683.929 100.579C685.014 100.199 685.951 99.6257 686.74 98.8584C687.53 98.0911 688.141 97.1338 688.572 95.9864L693.483 97.3633C692.966 99.0269 692.097 100.486 690.876 101.741C689.656 102.996 688.148 103.971 686.353 104.667C684.558 105.362 682.54 105.71 680.3 105.71C677.111 105.71 674.365 105.004 672.06 103.591C669.755 102.179 667.981 100.199 666.739 97.6537C665.497 95.108 664.876 92.1428 664.876 88.7581C664.876 85.3735 665.497 82.3868 666.739 79.7981C667.981 77.2094 669.719 75.1872 671.952 73.7315C674.185 72.2758 676.796 71.5479 679.783 71.5479C681.506 71.5479 683.208 71.8348 684.888 72.4084C686.568 72.9821 688.098 73.9107 689.476 75.1943C690.855 76.4779 691.954 78.1739 692.772 80.2821C693.591 82.3904 694 84.9862 694 88.0697V90.221H669.971ZM405.342 143.784H414.821C417.19 143.784 419.093 143.376 420.529 142.558C421.965 141.741 423.01 140.633 423.663 139.234C424.317 137.836 424.643 136.255 424.643 134.491C424.643 132.727 424.317 131.149 423.663 129.758C423.01 128.367 421.958 127.273 420.507 126.477C419.057 125.681 417.133 125.283 414.734 125.283H405.342V143.784ZM405.342 148.517V164.609H400V120.55H414.907C418.368 120.55 421.2 121.171 423.405 122.411C425.609 123.652 427.243 125.326 428.306 127.435C429.368 129.543 429.9 131.895 429.9 134.491C429.9 137.087 429.372 139.446 428.316 141.568C427.261 143.691 425.634 145.38 423.437 146.635C421.24 147.89 418.425 148.517 414.993 148.517H405.342ZM435.748 164.609V131.565H440.66V136.556H441.004C441.608 134.921 442.699 133.594 444.279 132.576C445.858 131.558 447.639 131.049 449.621 131.049C449.994 131.049 450.461 131.056 451.021 131.07C451.581 131.085 452.005 131.106 452.292 131.135V136.298C452.12 136.255 451.729 136.187 451.118 136.093C450.508 136 449.865 135.954 449.19 135.954C447.582 135.954 446.149 136.287 444.893 136.954C443.636 137.621 442.645 138.539 441.92 139.708C441.195 140.876 440.832 142.207 440.832 143.698V164.609H435.748ZM468.653 165.297C465.666 165.297 463.049 164.587 460.801 163.167C458.554 161.747 456.802 159.761 455.545 157.208C454.289 154.655 453.66 151.672 453.66 148.259C453.66 144.817 454.289 141.812 455.545 139.245C456.802 136.678 458.554 134.684 460.801 133.265C463.049 131.845 465.666 131.135 468.653 131.135C471.64 131.135 474.258 131.845 476.505 133.265C478.753 134.684 480.505 136.678 481.761 139.245C483.018 141.812 483.646 144.817 483.646 148.259C483.646 151.672 483.018 154.655 481.761 157.208C480.505 159.761 478.753 161.747 476.505 163.167C474.258 164.587 471.64 165.297 468.653 165.297ZM468.653 160.736C470.922 160.736 472.789 160.155 474.254 158.994C475.719 157.832 476.803 156.305 477.507 154.412C478.21 152.518 478.562 150.468 478.562 148.259C478.562 146.05 478.21 143.992 477.507 142.085C476.803 140.177 475.719 138.636 474.254 137.46C472.789 136.283 470.922 135.695 468.653 135.695C466.384 135.695 464.517 136.283 463.052 137.46C461.588 138.636 460.503 140.177 459.8 142.085C459.096 143.992 458.744 146.05 458.744 148.259C458.744 150.468 459.096 152.518 459.8 154.412C460.503 156.305 461.588 157.832 463.052 158.994C464.517 160.155 466.384 160.736 468.653 160.736ZM489.322 131.565H494.406V167.018C494.406 169.055 494.058 170.819 493.361 172.31C492.665 173.802 491.617 174.956 490.216 175.774C488.816 176.591 487.053 177 484.928 177H483.894V172.267H484.842C486.393 172.267 487.527 171.812 488.245 170.901C488.963 169.99 489.322 168.696 489.322 167.018V131.565ZM491.821 126.058C490.83 126.058 489.979 125.721 489.269 125.047C488.558 124.373 488.202 123.562 488.202 122.616C488.202 121.669 488.558 120.859 489.269 120.185C489.979 119.511 490.83 119.174 491.821 119.174C492.812 119.174 493.663 119.511 494.374 120.185C495.085 120.859 495.44 121.669 495.44 122.616C495.44 123.562 495.085 124.373 494.374 125.047C493.663 125.721 492.812 126.058 491.821 126.058ZM505.191 145.419H524.037C524.037 143.555 523.667 141.891 522.927 140.428C522.188 138.965 521.139 137.811 519.782 136.965C518.425 136.119 516.828 135.695 514.989 135.695C512.964 135.695 511.216 136.194 509.744 137.191C508.272 138.187 507.141 139.482 506.351 141.074C505.674 142.438 505.287 143.886 505.191 145.419ZM505.178 149.808C505.251 152.006 505.682 153.888 506.47 155.455C507.338 157.183 508.548 158.495 510.099 159.392C511.65 160.288 513.453 160.736 515.506 160.736C516.842 160.736 518.052 160.546 519.136 160.166C520.22 159.786 521.157 159.213 521.947 158.445C522.737 157.678 523.347 156.721 523.778 155.573L528.69 156.95C528.173 158.614 527.304 160.073 526.083 161.328C524.862 162.583 523.355 163.558 521.559 164.254C519.764 164.949 517.747 165.297 515.506 165.297C512.318 165.297 509.572 164.591 507.267 163.178C504.962 161.765 503.188 159.786 501.946 157.241C500.704 154.695 500.083 151.73 500.083 148.345C500.083 144.96 500.704 141.974 501.946 139.385C503.188 136.796 504.926 134.774 507.159 133.318C509.392 131.863 512.002 131.135 514.989 131.135C516.713 131.135 518.414 131.422 520.095 131.995C521.775 132.569 523.304 133.498 524.683 134.781C526.062 136.065 527.16 137.761 527.979 139.869C528.797 141.977 529.207 144.573 529.207 147.657V149.808H505.178ZM548.325 165.297C545.223 165.297 542.552 164.566 540.312 163.103C538.071 161.64 536.348 159.625 535.142 157.058C533.935 154.49 533.332 151.558 533.332 148.259C533.332 144.903 533.953 141.938 535.196 139.363C536.438 136.789 538.175 134.774 540.409 133.318C542.642 131.863 545.252 131.135 548.239 131.135C550.565 131.135 552.662 131.565 554.529 132.426C556.396 133.286 557.925 134.491 559.117 136.04C560.309 137.589 561.049 139.396 561.336 141.461H556.252C555.865 139.955 555.006 138.618 553.678 137.449C552.35 136.28 550.565 135.695 548.325 135.695C546.343 135.695 544.609 136.208 543.123 137.234C541.636 138.259 540.48 139.7 539.655 141.558C538.829 143.415 538.416 145.591 538.416 148.087C538.416 150.64 538.822 152.863 539.633 154.756C540.444 156.649 541.593 158.119 543.08 159.166C544.566 160.213 546.314 160.736 548.325 160.736C549.646 160.736 550.845 160.507 551.922 160.048C552.999 159.589 553.911 158.929 554.658 158.069C555.405 157.208 555.936 156.176 556.252 154.971H561.336C561.049 156.921 560.342 158.675 559.214 160.231C558.087 161.787 556.601 163.02 554.755 163.931C552.91 164.842 550.766 165.297 548.325 165.297ZM581.058 131.565V135.868H563.91V131.565H581.058ZM568.908 123.648H573.992V155.143C573.992 156.577 574.204 157.649 574.627 158.359C575.051 159.069 575.597 159.542 576.265 159.779C576.932 160.016 577.64 160.134 578.386 160.134C578.946 160.134 579.406 160.102 579.765 160.037C580.124 159.973 580.411 159.919 580.627 159.876L581.661 164.437C581.316 164.566 580.835 164.698 580.217 164.835C579.6 164.971 578.817 165.039 577.869 165.039C576.433 165.039 575.029 164.731 573.658 164.114C572.287 163.497 571.152 162.558 570.254 161.296C569.357 160.034 568.908 158.442 568.908 156.52V123.648Z" fill="#272522"/>
</svg>
