<svg width="989" height="472" viewBox="0 0 989 472" fill="none" xmlns="http://www.w3.org/2000/svg">
<path d="M165.988 248.706V210.294C165.988 176.246 165.988 170.135 165.552 163.151C165.115 155.73 163.369 152.238 156.167 150.71C154.421 150.274 150.71 150.056 148.746 150.056C147.873 150.056 147 149.619 147 148.746C147 147.437 148.091 147 150.492 147C160.313 147 173.409 147.655 175.155 147.655C179.956 147.655 192.615 147 202.655 147C229.937 147 239.758 156.167 243.25 159.44C248.052 164.024 254.163 173.845 254.163 188.032C254.163 216.405 231.464 237.357 200.472 237.357C199.381 237.357 196.98 237.357 195.889 237.139C194.798 237.139 193.488 236.702 193.488 235.611C193.488 233.865 194.798 233.647 199.381 233.647C220.552 233.647 237.139 219.242 237.139 196.325C237.139 190.869 236.484 176.246 224.917 164.46C213.349 152.675 200.036 153.548 195.016 153.548C191.306 153.548 187.595 153.984 185.631 154.857C184.321 155.294 183.885 156.821 183.885 159.004V248.706C183.885 269.659 183.885 286.901 184.976 296.067C185.631 302.397 186.94 307.198 193.488 308.071C196.544 308.508 201.345 308.944 203.31 308.944C204.619 308.944 205.056 309.599 205.056 310.254C205.056 311.345 203.964 312 201.563 312C189.56 312 175.81 311.345 174.718 311.345C174.063 311.345 160.313 312 153.766 312C151.365 312 150.274 311.563 150.274 310.254C150.274 309.599 150.71 308.944 152.02 308.944C153.984 308.944 156.603 308.508 158.567 308.071C162.933 307.198 164.024 302.397 164.897 296.067C165.988 286.901 165.988 269.659 165.988 248.706ZM291.2 210.294V224.262C297.966 217.714 327.649 186.504 340.962 172.754C354.058 159.222 354.931 157.04 354.931 154.421C354.931 152.675 353.839 150.929 352.093 150.274C350.565 149.619 350.129 149.183 350.129 148.31C350.129 147.437 351.438 147 353.403 147C359.732 147 359.077 147.655 366.498 147.655C373.264 147.655 386.141 147 389.633 147C392.688 147 393.343 147.655 393.343 148.528C393.343 149.401 392.907 149.837 390.942 150.056C386.796 150.492 382.867 151.365 379.812 152.675C374.355 154.857 370.208 157.476 357.113 170.135C337.907 188.687 313.026 213.349 307.351 219.679C321.101 234.738 360.823 275.115 371.081 284.718C388.978 301.524 396.617 306.325 407.093 308.29C409.058 308.726 411.24 308.944 413.423 308.944C415.169 308.944 416.478 309.381 416.478 310.472C416.478 311.563 415.605 312 413.204 312H397.054C378.065 312 373.046 309.599 362.788 301.524C349.692 291.266 310.407 249.143 291.2 226.226V248.706C291.2 269.659 291.2 286.901 292.292 296.067C292.946 302.397 294.256 307.198 300.804 308.071C303.859 308.508 308.224 308.944 309.534 308.944C311.498 308.944 312.153 309.817 312.153 310.472C312.153 311.563 311.28 312 308.879 312C296.875 312 283.125 311.345 282.034 311.345C280.942 311.345 268.065 312 261.518 312C259.117 312 258.026 311.782 258.026 310.472C258.026 309.817 258.462 308.944 260.427 308.944C261.736 308.944 264.137 308.726 266.101 308.29C270.466 307.417 271.776 302.397 272.649 296.067C273.74 286.901 273.74 269.659 273.74 248.706V210.294C273.74 176.246 273.74 170.135 273.304 163.151C272.867 155.73 270.685 152.02 265.883 150.929C263.482 150.274 259.554 150.056 258.026 150.056C256.28 150.056 255.625 149.619 255.625 148.746C255.625 147.437 256.716 147 259.117 147C266.319 147 280.942 147.655 282.034 147.655C283.125 147.655 296.875 147 303.423 147C305.823 147 306.915 147.437 306.915 148.528C306.915 149.401 306.478 149.837 304.514 150.056C302.113 150.274 301.895 150.274 299.712 150.492C293.819 151.147 292.073 155.512 291.637 163.151C291.2 170.135 291.2 176.246 291.2 210.294ZM424.488 248.706V210.294C424.488 176.246 424.488 170.135 424.052 163.151C423.615 155.73 421.869 152.238 414.667 150.71C412.921 150.274 409.21 150.056 407.246 150.056C406.373 150.056 405.5 149.619 405.5 148.746C405.5 147.437 406.591 147 408.992 147C418.813 147 431.909 147.655 433.655 147.655C438.456 147.655 451.115 147 461.155 147C488.437 147 498.258 156.167 501.75 159.44C506.552 164.024 512.663 173.845 512.663 188.032C512.663 216.405 489.964 237.357 458.972 237.357C457.881 237.357 455.48 237.357 454.389 237.139C453.298 237.139 451.988 236.702 451.988 235.611C451.988 233.865 453.298 233.647 457.881 233.647C479.052 233.647 495.639 219.242 495.639 196.325C495.639 190.869 494.984 176.246 483.417 164.46C471.849 152.675 458.536 153.548 453.516 153.548C449.806 153.548 446.095 153.984 444.131 154.857C442.821 155.294 442.385 156.821 442.385 159.004V248.706C442.385 269.659 442.385 286.901 443.476 296.067C444.131 302.397 445.44 307.198 451.988 308.071C455.044 308.508 459.845 308.944 461.81 308.944C463.119 308.944 463.556 309.599 463.556 310.254C463.556 311.345 462.464 312 460.064 312C448.06 312 434.31 311.345 433.218 311.345C432.563 311.345 418.813 312 412.266 312C409.865 312 408.774 311.563 408.774 310.254C408.774 309.599 409.21 308.944 410.52 308.944C412.484 308.944 415.103 308.508 417.067 308.071C421.433 307.198 422.524 302.397 423.397 296.067C424.488 286.901 424.488 269.659 424.488 248.706Z" fill="white"/>
<path d="M552.342 171.611H561.821C564.19 171.611 566.093 171.202 567.529 170.384C568.965 169.567 570.01 168.459 570.663 167.061C571.317 165.662 571.643 164.081 571.643 162.317C571.643 160.553 571.317 158.975 570.663 157.584C570.01 156.193 568.958 155.1 567.507 154.304C566.057 153.508 564.133 153.11 561.734 153.11H552.342V171.611ZM552.342 176.343V192.435H547V148.377H561.907C565.368 148.377 568.2 148.997 570.405 150.238C572.609 151.478 574.243 153.153 575.306 155.261C576.368 157.369 576.9 159.721 576.9 162.317C576.9 164.913 576.372 167.272 575.316 169.395C574.261 171.517 572.634 173.206 570.437 174.461C568.24 175.716 565.425 176.343 561.993 176.343H552.342ZM603.6 178.925V159.391H608.684V192.435H603.6V186.842H603.256C602.48 188.52 601.274 189.943 599.637 191.112C598 192.281 595.932 192.865 593.433 192.865C591.365 192.865 589.527 192.41 587.918 191.499C586.31 190.588 585.046 189.212 584.127 187.369C583.208 185.526 582.748 183.199 582.748 180.388V159.391H587.832V180.044C587.832 182.453 588.511 184.375 589.868 185.809C591.225 187.243 592.959 187.96 595.07 187.96C596.334 187.96 597.623 187.638 598.937 186.992C600.251 186.347 601.357 185.357 602.254 184.023C603.152 182.69 603.6 180.99 603.6 178.925ZM616.601 192.435V148.377H621.685V164.64H622.116C622.489 164.067 623.01 163.332 623.677 162.435C624.345 161.539 625.307 160.736 626.564 160.026C627.821 159.316 629.526 158.961 631.68 158.961C634.466 158.961 636.922 159.657 639.047 161.048C641.173 162.439 642.831 164.411 644.023 166.964C645.215 169.517 645.811 172.528 645.811 175.999C645.811 179.499 645.215 182.528 644.023 185.088C642.831 187.648 641.18 189.628 639.069 191.026C636.958 192.424 634.523 193.123 631.766 193.123C629.641 193.123 627.939 192.768 626.661 192.058C625.383 191.349 624.399 190.538 623.71 189.628C623.02 188.717 622.489 187.96 622.116 187.358H621.512V192.435H616.601ZM621.599 175.913C621.599 178.409 621.965 180.607 622.697 182.507C623.43 184.407 624.5 185.891 625.907 186.96C627.314 188.028 629.038 188.563 631.077 188.563C633.202 188.563 634.979 188 636.408 186.874C637.837 185.748 638.914 184.228 639.64 182.313C640.365 180.399 640.727 178.265 640.727 175.913C640.727 173.59 640.372 171.492 639.661 169.621C638.95 167.749 637.88 166.265 636.451 165.168C635.023 164.07 633.231 163.522 631.077 163.522C629.009 163.522 627.271 164.042 625.864 165.081C624.456 166.121 623.394 167.57 622.676 169.427C621.958 171.284 621.599 173.446 621.599 175.913ZM656.571 148.377V192.435H651.488V148.377H656.571ZM663.799 192.435V159.391H668.883V192.435H663.799ZM666.384 153.884C665.393 153.884 664.542 153.547 663.831 152.873C663.12 152.199 662.765 151.389 662.765 150.442C662.765 149.495 663.12 148.685 663.831 148.011C664.542 147.337 665.393 147 666.384 147C667.375 147 668.226 147.337 668.936 148.011C669.647 148.685 670.003 149.495 670.003 150.442C670.003 151.389 669.647 152.199 668.936 152.873C668.226 153.547 667.375 153.884 666.384 153.884ZM689.552 193.123C686.45 193.123 683.779 192.392 681.538 190.929C679.298 189.466 677.575 187.451 676.369 184.884C675.162 182.317 674.559 179.384 674.559 176.085C674.559 172.729 675.18 169.764 676.422 167.19C677.665 164.615 679.402 162.6 681.635 161.145C683.869 159.689 686.479 158.961 689.466 158.961C691.792 158.961 693.889 159.391 695.756 160.252C697.623 161.112 699.152 162.317 700.344 163.866C701.536 165.415 702.276 167.222 702.563 169.287H697.479C697.091 167.781 696.233 166.444 694.905 165.275C693.577 164.106 691.792 163.522 689.552 163.522C687.57 163.522 685.836 164.035 684.35 165.06C682.863 166.085 681.707 167.527 680.881 169.384C680.056 171.241 679.643 173.418 679.643 175.913C679.643 178.466 680.048 180.689 680.86 182.582C681.671 184.475 682.82 185.945 684.307 186.992C685.793 188.039 687.541 188.563 689.552 188.563C690.873 188.563 692.072 188.333 693.149 187.874C694.226 187.415 695.138 186.756 695.885 185.895C696.632 185.035 697.163 184.002 697.479 182.797H702.563C702.276 184.748 701.568 186.501 700.441 188.057C699.314 189.613 697.827 190.847 695.982 191.757C694.137 192.668 691.993 193.123 689.552 193.123ZM547 252.022V207.964H552.342V229.821H552.859L572.677 207.964H579.657L561.131 227.841L579.657 252.022H573.194L557.857 231.542L552.342 237.737V252.022H547ZM588.866 232.144V252.022H583.782V218.978H588.694V224.141H589.125C589.9 222.463 591.078 221.112 592.657 220.086C594.237 219.061 596.276 218.548 598.775 218.548C601.015 218.548 602.976 219.003 604.656 219.914C606.336 220.825 607.643 222.202 608.577 224.044C609.51 225.887 609.977 228.214 609.977 231.025V252.022H604.893V231.37C604.893 228.774 604.218 226.748 602.868 225.292C601.518 223.836 599.666 223.109 597.31 223.109C595.688 223.109 594.241 223.46 592.97 224.163C591.699 224.866 590.697 225.891 589.965 227.239C589.232 228.587 588.866 230.222 588.866 232.144ZM630.646 252.71C627.659 252.71 625.042 252 622.794 250.58C620.547 249.161 618.795 247.174 617.538 244.621C616.281 242.069 615.653 239.085 615.653 235.672C615.653 232.23 616.281 229.225 617.538 226.658C618.795 224.091 620.547 222.098 622.794 220.678C625.042 219.258 627.659 218.548 630.646 218.548C633.633 218.548 636.25 219.258 638.498 220.678C640.745 222.098 642.497 224.091 643.754 226.658C645.011 229.225 645.639 232.23 645.639 235.672C645.639 239.085 645.011 242.069 643.754 244.621C642.497 247.174 640.745 249.161 638.498 250.58C636.25 252 633.633 252.71 630.646 252.71ZM630.646 248.15C632.915 248.15 634.782 247.569 636.247 246.407C637.712 245.245 638.796 243.718 639.5 241.825C640.203 239.932 640.555 237.881 640.555 235.672C640.555 233.463 640.203 231.405 639.5 229.498C638.796 227.59 637.712 226.049 636.247 224.873C634.782 223.697 632.915 223.109 630.646 223.109C628.377 223.109 626.51 223.697 625.045 224.873C623.58 226.049 622.496 227.59 621.792 229.498C621.089 231.405 620.737 233.463 620.737 235.672C620.737 237.881 621.089 239.932 621.792 241.825C622.496 243.718 623.58 245.245 625.045 246.407C626.51 247.569 628.377 248.15 630.646 248.15ZM657.692 252.022L647.61 218.978H652.952L660.104 244.277H660.449L667.514 218.978H672.943L679.922 244.191H680.267L687.419 218.978H692.761L682.68 252.022H677.682L670.444 226.637H669.927L662.689 252.022H657.692ZM702.487 207.964V252.022H697.404V207.964H702.487ZM713.272 232.832H732.118C732.118 230.968 731.748 229.304 731.009 227.841C730.269 226.379 729.221 225.224 727.863 224.378C726.506 223.532 724.909 223.109 723.07 223.109C721.046 223.109 719.297 223.607 717.825 224.604C716.353 225.601 715.222 226.895 714.432 228.487C713.755 229.851 713.369 231.3 713.272 232.832ZM713.259 237.221C713.332 239.419 713.763 241.301 714.551 242.868C715.42 244.596 716.63 245.909 718.181 246.805C719.732 247.701 721.534 248.15 723.587 248.15C724.923 248.15 726.133 247.959 727.217 247.579C728.301 247.199 729.238 246.626 730.028 245.858C730.818 245.091 731.429 244.134 731.859 242.986L736.771 244.363C736.254 246.027 735.385 247.486 734.164 248.741C732.944 249.996 731.436 250.971 729.641 251.667C727.845 252.362 725.828 252.71 723.587 252.71C720.399 252.71 717.653 252.004 715.348 250.591C713.043 249.179 711.269 247.199 710.027 244.654C708.785 242.108 708.164 239.143 708.164 235.758C708.164 232.373 708.785 229.387 710.027 226.798C711.269 224.209 713.007 222.187 715.24 220.731C717.473 219.276 720.083 218.548 723.07 218.548C724.794 218.548 726.496 218.835 728.176 219.408C729.856 219.982 731.385 220.911 732.764 222.194C734.143 223.478 735.241 225.174 736.06 227.282C736.879 229.39 737.288 231.986 737.288 235.07V237.221H713.259ZM755.458 252.71C752.701 252.71 750.267 252.011 748.156 250.613C746.045 249.214 744.393 247.235 743.201 244.675C742.009 242.115 741.413 239.085 741.413 235.586C741.413 232.115 742.009 229.104 743.201 226.551C744.393 223.998 746.052 222.026 748.177 220.635C750.303 219.244 752.758 218.548 755.544 218.548C757.699 218.548 759.404 218.903 760.661 219.613C761.917 220.323 762.879 221.126 763.547 222.022C764.215 222.919 764.735 223.654 765.109 224.227H765.54V207.964H770.623V252.022H765.712V246.945H765.109C764.735 247.547 764.204 248.304 763.515 249.214C762.825 250.125 761.842 250.935 760.564 251.645C759.286 252.355 757.584 252.71 755.458 252.71ZM756.148 248.15C758.187 248.15 759.91 247.615 761.318 246.547C762.725 245.478 763.795 243.994 764.527 242.094C765.26 240.193 765.626 237.995 765.626 235.5C765.626 233.033 765.267 230.871 764.549 229.014C763.831 227.157 762.768 225.708 761.361 224.668C759.953 223.629 758.216 223.109 756.148 223.109C753.993 223.109 752.202 223.657 750.773 224.754C749.344 225.852 748.274 227.336 747.563 229.208C746.852 231.079 746.497 233.177 746.497 235.5C746.497 237.852 746.86 239.985 747.585 241.9C748.31 243.815 749.387 245.335 750.816 246.461C752.245 247.587 754.022 248.15 756.148 248.15ZM791.896 265.102C789.44 265.102 787.329 264.79 785.563 264.166C783.796 263.542 782.328 262.724 781.157 261.713C779.987 260.702 779.057 259.623 778.368 258.476L782.418 255.636C782.877 256.238 783.459 256.93 784.163 257.712C784.866 258.494 785.832 259.175 787.06 259.756C788.288 260.336 789.9 260.627 791.896 260.627C794.567 260.627 796.771 259.982 798.509 258.691C800.247 257.4 801.116 255.378 801.116 252.624V245.912H800.685C800.311 246.515 799.784 247.257 799.102 248.139C798.419 249.021 797.443 249.802 796.172 250.484C794.901 251.165 793.188 251.505 791.034 251.505C788.363 251.505 785.968 250.874 783.85 249.612C781.732 248.35 780.059 246.515 778.831 244.105C777.603 241.696 776.989 238.77 776.989 235.328C776.989 231.943 777.585 228.992 778.777 226.475C779.969 223.958 781.628 222.008 783.753 220.624C785.879 219.24 788.334 218.548 791.12 218.548C793.275 218.548 794.987 218.903 796.258 219.613C797.529 220.323 798.506 221.126 799.188 222.022C799.87 222.919 800.398 223.654 800.771 224.227H801.288V218.978H806.199V252.968C806.199 255.808 805.557 258.121 804.272 259.906C802.986 261.692 801.263 263.004 799.102 263.843C796.94 264.682 794.538 265.102 791.896 265.102ZM791.724 246.945C793.763 246.945 795.486 246.479 796.894 245.546C798.301 244.614 799.371 243.273 800.103 241.524C800.836 239.774 801.202 237.68 801.202 235.242C801.202 232.861 800.843 230.76 800.125 228.939C799.407 227.117 798.344 225.69 796.937 224.658C795.529 223.625 793.792 223.109 791.724 223.109C789.569 223.109 787.778 223.654 786.349 224.744C784.92 225.834 783.85 227.296 783.139 229.132C782.428 230.968 782.073 233.004 782.073 235.242C782.073 237.537 782.436 239.562 783.161 241.319C783.886 243.076 784.963 244.453 786.392 245.45C787.821 246.446 789.598 246.945 791.724 246.945ZM816.984 232.832H835.83C835.83 230.968 835.46 229.304 834.721 227.841C833.981 226.379 832.933 225.224 831.576 224.378C830.218 223.532 828.621 223.109 826.783 223.109C824.758 223.109 823.009 223.607 821.537 224.604C820.065 225.601 818.934 226.895 818.144 228.487C817.468 229.851 817.081 231.3 816.984 232.832ZM816.971 237.221C817.045 239.419 817.475 241.301 818.263 242.868C819.132 244.596 820.342 245.909 821.893 246.805C823.444 247.701 825.246 248.15 827.3 248.15C828.635 248.15 829.845 247.959 830.929 247.579C832.014 247.199 832.951 246.626 833.74 245.858C834.53 245.091 835.141 244.134 835.572 242.986L840.483 244.363C839.966 246.027 839.097 247.486 837.876 248.741C836.656 249.996 835.148 250.971 833.353 251.667C831.558 252.362 829.54 252.71 827.3 252.71C824.111 252.71 821.365 252.004 819.06 250.591C816.755 249.179 814.981 247.199 813.739 244.654C812.497 242.108 811.876 239.143 811.876 235.758C811.876 232.373 812.497 229.387 813.739 226.798C814.981 224.209 816.719 222.187 818.952 220.731C821.185 219.276 823.796 218.548 826.783 218.548C828.506 218.548 830.208 218.835 831.888 219.408C833.568 219.982 835.098 220.911 836.476 222.194C837.855 223.478 838.954 225.174 839.772 227.282C840.591 229.39 841 231.986 841 235.07V237.221H816.971ZM552.342 290.784H561.821C564.19 290.784 566.093 290.376 567.529 289.558C568.965 288.741 570.01 287.633 570.663 286.234C571.317 284.836 571.643 283.255 571.643 281.491C571.643 279.727 571.317 278.149 570.663 276.758C570.01 275.367 568.958 274.273 567.507 273.477C566.057 272.681 564.133 272.283 561.734 272.283H552.342V290.784ZM552.342 295.517V311.609H547V267.55H561.907C565.368 267.55 568.2 268.171 570.405 269.411C572.609 270.652 574.243 272.326 575.306 274.435C576.368 276.543 576.9 278.895 576.9 281.491C576.9 284.087 576.372 286.446 575.316 288.568C574.261 290.691 572.634 292.38 570.437 293.635C568.24 294.89 565.425 295.517 561.993 295.517H552.342ZM582.748 311.609V278.565H587.66V283.556H588.004C588.608 281.921 589.699 280.594 591.279 279.576C592.858 278.558 594.639 278.049 596.621 278.049C596.994 278.049 597.461 278.056 598.021 278.07C598.581 278.085 599.005 278.106 599.292 278.135V283.298C599.12 283.255 598.729 283.187 598.118 283.093C597.508 283 596.865 282.954 596.19 282.954C594.582 282.954 593.149 283.287 591.893 283.954C590.636 284.621 589.645 285.539 588.92 286.708C588.195 287.876 587.832 289.207 587.832 290.698V311.609H582.748ZM615.653 312.297C612.666 312.297 610.049 311.587 607.801 310.167C605.554 308.747 603.802 306.761 602.545 304.208C601.289 301.655 600.66 298.672 600.66 295.259C600.66 291.817 601.289 288.812 602.545 286.245C603.802 283.678 605.554 281.684 607.801 280.265C610.049 278.845 612.666 278.135 615.653 278.135C618.64 278.135 621.258 278.845 623.505 280.265C625.753 281.684 627.505 283.678 628.761 286.245C630.018 288.812 630.646 291.817 630.646 295.259C630.646 298.672 630.018 301.655 628.761 304.208C627.505 306.761 625.753 308.747 623.505 310.167C621.258 311.587 618.64 312.297 615.653 312.297ZM615.653 307.736C617.922 307.736 619.789 307.155 621.254 305.994C622.719 304.832 623.803 303.305 624.507 301.412C625.21 299.518 625.562 297.468 625.562 295.259C625.562 293.05 625.21 290.992 624.507 289.085C623.803 287.177 622.719 285.636 621.254 284.46C619.789 283.283 617.922 282.695 615.653 282.695C613.384 282.695 611.517 283.283 610.052 284.46C608.588 285.636 607.503 287.177 606.8 289.085C606.096 290.992 605.744 293.05 605.744 295.259C605.744 297.468 606.096 299.518 606.8 301.412C607.503 303.305 608.588 304.832 610.052 305.994C611.517 307.155 613.384 307.736 615.653 307.736ZM636.322 278.565H641.406V314.018C641.406 316.055 641.058 317.819 640.361 319.31C639.665 320.802 638.617 321.956 637.216 322.774C635.816 323.591 634.053 324 631.928 324H630.894V319.267H631.842C633.393 319.267 634.527 318.812 635.245 317.901C635.963 316.99 636.322 315.696 636.322 314.018V278.565ZM638.821 273.058C637.83 273.058 636.979 272.721 636.269 272.047C635.558 271.373 635.202 270.562 635.202 269.616C635.202 268.669 635.558 267.859 636.269 267.185C636.979 266.511 637.83 266.174 638.821 266.174C639.812 266.174 640.663 266.511 641.374 267.185C642.085 267.859 642.44 268.669 642.44 269.616C642.44 270.562 642.085 271.373 641.374 272.047C640.663 272.721 639.812 273.058 638.821 273.058ZM652.191 292.419H671.037C671.037 290.555 670.667 288.891 669.927 287.428C669.188 285.965 668.139 284.811 666.782 283.965C665.425 283.119 663.828 282.695 661.989 282.695C659.964 282.695 658.216 283.194 656.744 284.191C655.272 285.187 654.141 286.482 653.351 288.074C652.674 289.438 652.287 290.886 652.191 292.419ZM652.178 296.808C652.251 299.006 652.682 300.888 653.47 302.455C654.338 304.183 655.548 305.495 657.099 306.392C658.65 307.288 660.453 307.736 662.506 307.736C663.842 307.736 665.052 307.546 666.136 307.166C667.22 306.786 668.157 306.213 668.947 305.445C669.737 304.678 670.347 303.721 670.778 302.573L675.69 303.95C675.173 305.614 674.304 307.073 673.083 308.328C671.862 309.583 670.355 310.558 668.559 311.254C666.764 311.949 664.747 312.297 662.506 312.297C659.318 312.297 656.572 311.591 654.267 310.178C651.962 308.765 650.188 306.786 648.946 304.241C647.704 301.695 647.083 298.73 647.083 295.345C647.083 291.96 647.704 288.974 648.946 286.385C650.188 283.796 651.926 281.774 654.159 280.318C656.392 278.863 659.002 278.135 661.989 278.135C663.713 278.135 665.414 278.422 667.095 278.995C668.775 279.569 670.304 280.498 671.683 281.781C673.062 283.065 674.16 284.761 674.979 286.869C675.797 288.977 676.207 291.573 676.207 294.657V296.808H652.178ZM695.325 312.297C692.223 312.297 689.552 311.566 687.312 310.103C685.071 308.64 683.348 306.625 682.142 304.058C680.935 301.49 680.332 298.558 680.332 295.259C680.332 291.903 680.953 288.938 682.196 286.363C683.438 283.789 685.175 281.774 687.409 280.318C689.642 278.863 692.252 278.135 695.239 278.135C697.565 278.135 699.662 278.565 701.529 279.426C703.396 280.286 704.925 281.491 706.117 283.04C707.309 284.589 708.049 286.396 708.336 288.461H703.252C702.865 286.955 702.006 285.618 700.678 284.449C699.35 283.28 697.565 282.695 695.325 282.695C693.343 282.695 691.609 283.208 690.123 284.234C688.636 285.259 687.48 286.7 686.655 288.558C685.829 290.415 685.416 292.591 685.416 295.087C685.416 297.64 685.822 299.863 686.633 301.756C687.444 303.649 688.593 305.119 690.08 306.166C691.566 307.213 693.314 307.736 695.325 307.736C696.646 307.736 697.845 307.507 698.922 307.048C699.999 306.589 700.911 305.929 701.658 305.069C702.405 304.208 702.936 303.176 703.252 301.971H708.336C708.049 303.921 707.342 305.675 706.214 307.231C705.087 308.787 703.601 310.02 701.755 310.931C699.91 311.842 697.766 312.297 695.325 312.297ZM728.058 278.565V282.868H710.91V278.565H728.058ZM715.908 270.648H720.992V302.143C720.992 303.577 721.204 304.649 721.627 305.359C722.051 306.069 722.597 306.542 723.265 306.779C723.932 307.016 724.64 307.134 725.386 307.134C725.946 307.134 726.406 307.102 726.765 307.037C727.124 306.973 727.411 306.919 727.627 306.876L728.661 311.437C728.316 311.566 727.835 311.698 727.217 311.835C726.6 311.971 725.817 312.039 724.869 312.039C723.433 312.039 722.029 311.731 720.658 311.114C719.287 310.497 718.152 309.558 717.254 308.296C716.357 307.034 715.908 305.442 715.908 303.52V270.648Z" fill="white"/>
</svg>
