<svg width="693" height="329" viewBox="0 0 693 329" fill="none" xmlns="http://www.w3.org/2000/svg">
<path d="M57.255 328.475C16.8224 328.475 0 297.043 0 270.482C0 246.576 17.4126 212.784 58.1404 212.784C91.3425 212.784 116.133 233.738 116.133 268.121C116.133 301.175 92.8181 328.475 57.255 328.475ZM61.2393 322.867C74.5201 322.867 101.967 315.194 101.967 272.253C101.967 236.837 80.4227 217.801 57.1075 217.801C32.4642 217.801 14.0186 234.033 14.0186 266.35C14.0186 300.733 34.6777 322.867 61.2393 322.867ZM232.001 216.768L241.888 307.373C242.478 312.685 243.511 320.949 249.856 323.015C254.136 324.343 257.53 324.343 259.005 324.343C259.743 324.343 260.629 324.49 260.629 325.228C260.629 326.114 260.186 326.409 258.415 326.409C255.169 326.409 238.346 325.966 232.886 325.523C229.492 325.228 228.755 324.786 228.755 324.048C228.755 323.457 229.05 323.31 229.788 323.015C230.82 322.572 230.673 320.359 230.378 317.702L223.295 240.674L186.699 318.293C183.6 324.786 183.157 326.114 181.829 326.114C180.796 326.114 180.058 324.638 177.255 319.326C173.418 312.095 160.727 286.566 159.989 285.091C158.661 282.435 141.691 245.986 140.068 242.002L134.018 311.505C133.871 313.866 133.723 315.932 133.723 318.44C133.723 322.129 135.494 323.31 137.707 323.753C140.216 324.343 142.134 324.343 143.02 324.343C143.905 324.343 144.495 324.638 144.495 325.081C144.495 326.114 143.757 326.409 142.282 326.409C136.822 326.409 129.296 325.966 128.116 325.966C126.787 325.966 119.704 326.409 115.72 326.409C114.244 326.409 113.212 326.261 113.212 325.228C113.212 324.638 113.949 324.343 114.687 324.343C115.868 324.343 116.901 324.343 119.114 323.9C123.984 323.015 124.279 317.702 125.017 311.652L135.641 215.735C135.789 214.112 136.379 212.784 137.265 212.784C138.15 212.784 138.74 213.374 139.478 214.998L184.633 307.816L228.017 215.145C228.607 213.817 229.197 212.784 230.23 212.784C231.263 212.784 231.706 213.965 232.001 216.768ZM269.512 283.615V257.644C269.512 234.624 269.512 230.492 269.217 225.77C268.922 220.753 267.741 218.392 262.871 217.359C261.691 217.063 259.182 216.916 257.854 216.916C257.264 216.916 256.674 216.621 256.674 216.03C256.674 215.145 257.412 214.85 259.035 214.85C265.675 214.85 274.529 215.293 275.71 215.293C278.956 215.293 287.515 214.85 294.303 214.85C312.748 214.85 319.389 221.048 321.75 223.261C324.996 226.36 329.128 233 329.128 242.592C329.128 261.775 313.781 275.942 292.827 275.942C292.089 275.942 290.466 275.942 289.728 275.794C288.99 275.794 288.105 275.499 288.105 274.761C288.105 273.581 288.99 273.433 292.089 273.433C306.403 273.433 317.618 263.694 317.618 248.2C317.618 244.51 317.175 234.624 309.354 226.655C301.533 218.687 292.532 219.277 289.138 219.277C286.629 219.277 284.121 219.572 282.793 220.162C281.907 220.457 281.612 221.49 281.612 222.966V283.615C281.612 297.781 281.612 309.439 282.35 315.637C282.793 319.916 283.678 323.162 288.105 323.753C290.171 324.048 293.417 324.343 294.745 324.343C295.631 324.343 295.926 324.786 295.926 325.228C295.926 325.966 295.188 326.409 293.565 326.409C285.449 326.409 276.152 325.966 275.414 325.966C274.972 325.966 265.675 326.409 261.248 326.409C259.625 326.409 258.887 326.114 258.887 325.228C258.887 324.786 259.182 324.343 260.068 324.343C261.396 324.343 263.167 324.048 264.495 323.753C267.446 323.162 268.184 319.916 268.774 315.637C269.512 309.439 269.512 297.781 269.512 283.615Z" fill="#272522"/>
<path d="M358.484 323.702L407.508 214.953C408.376 213.073 408.81 212.929 409.388 212.929C410.111 212.929 413.004 214.375 413.727 215.098C414.45 215.821 414.305 216.255 413.727 217.556L364.414 327.173C363.835 328.33 363.546 328.475 363.112 328.475C362.678 328.475 359.207 326.739 358.484 326.016C357.906 325.438 357.906 324.859 358.484 323.702Z" fill="#272522"/>
<path d="M456.009 282.828V256.792C456.009 233.715 456.009 229.573 455.713 224.84C455.417 219.81 454.234 217.443 449.352 216.408C448.168 216.112 445.654 215.964 444.322 215.964C443.731 215.964 443.139 215.668 443.139 215.076C443.139 214.189 443.879 213.893 445.506 213.893C452.163 213.893 461.038 214.337 462.222 214.337C465.476 214.337 474.056 213.893 480.861 213.893C499.352 213.893 506.009 220.106 508.376 222.325C511.63 225.431 515.772 232.088 515.772 241.703C515.772 260.934 500.387 275.135 479.382 275.135C478.642 275.135 477.015 275.135 476.275 274.987C475.535 274.987 474.648 274.692 474.648 273.952C474.648 272.768 475.535 272.621 478.642 272.621C492.991 272.621 504.234 262.857 504.234 247.325C504.234 243.626 503.79 233.715 495.95 225.727C488.109 217.739 479.086 218.331 475.683 218.331C473.168 218.331 470.654 218.626 469.322 219.218C468.435 219.514 468.139 220.55 468.139 222.029V282.828C468.139 297.029 468.139 308.715 468.879 314.928C469.322 319.218 470.21 322.473 474.648 323.064C476.719 323.36 479.973 323.656 481.305 323.656C482.192 323.656 482.488 324.1 482.488 324.544C482.488 325.283 481.748 325.727 480.121 325.727C471.985 325.727 462.666 325.283 461.926 325.283C461.482 325.283 452.163 325.727 447.725 325.727C446.097 325.727 445.358 325.431 445.358 324.544C445.358 324.1 445.654 323.656 446.541 323.656C447.873 323.656 449.648 323.36 450.979 323.064C453.938 322.473 454.677 319.218 455.269 314.928C456.009 308.715 456.009 297.029 456.009 282.828ZM540.876 256.792V266.26C545.461 261.822 565.58 240.668 574.603 231.348C583.479 222.177 584.071 220.697 584.071 218.922C584.071 217.739 583.331 216.555 582.148 216.112C581.112 215.668 580.816 215.372 580.816 214.78C580.816 214.189 581.704 213.893 583.035 213.893C587.325 213.893 586.881 214.337 591.911 214.337C596.497 214.337 605.225 213.893 607.591 213.893C609.662 213.893 610.106 214.337 610.106 214.928C610.106 215.52 609.81 215.816 608.479 215.964C605.668 216.26 603.006 216.851 600.935 217.739C597.236 219.218 594.426 220.993 585.55 229.573C572.532 242.147 555.668 258.863 551.822 263.153C561.142 273.36 588.065 300.727 595.018 307.236C607.148 318.626 612.325 321.881 619.426 323.212C620.757 323.508 622.236 323.656 623.716 323.656C624.899 323.656 625.787 323.952 625.787 324.692C625.787 325.431 625.195 325.727 623.568 325.727H612.621C599.751 325.727 596.349 324.1 589.396 318.626C580.52 311.674 553.893 283.123 540.876 267.591V282.828C540.876 297.029 540.876 308.715 541.615 314.928C542.059 319.218 542.947 322.473 547.384 323.064C549.455 323.36 552.414 323.656 553.302 323.656C554.633 323.656 555.077 324.248 555.077 324.692C555.077 325.431 554.485 325.727 552.858 325.727C544.722 325.727 535.402 325.283 534.663 325.283C533.923 325.283 525.195 325.727 520.757 325.727C519.13 325.727 518.39 325.579 518.39 324.692C518.39 324.248 518.686 323.656 520.018 323.656C520.905 323.656 522.532 323.508 523.864 323.212C526.822 322.621 527.71 319.218 528.302 314.928C529.041 308.715 529.041 297.029 529.041 282.828V256.792C529.041 233.715 529.041 229.573 528.745 224.84C528.45 219.81 526.97 217.295 523.716 216.555C522.089 216.112 519.426 215.964 518.39 215.964C517.207 215.964 516.763 215.668 516.763 215.076C516.763 214.189 517.503 213.893 519.13 213.893C524.012 213.893 533.923 214.337 534.663 214.337C535.402 214.337 544.722 213.893 549.16 213.893C550.787 213.893 551.526 214.189 551.526 214.928C551.526 215.52 551.231 215.816 549.899 215.964C548.272 216.112 548.124 216.112 546.645 216.26C542.651 216.703 541.467 219.662 541.171 224.84C540.876 229.573 540.876 233.715 540.876 256.792ZM631.216 282.828V256.792C631.216 233.715 631.216 229.573 630.92 224.84C630.624 219.81 629.441 217.443 624.559 216.408C623.375 216.112 620.861 215.964 619.529 215.964C618.938 215.964 618.346 215.668 618.346 215.076C618.346 214.189 619.086 213.893 620.713 213.893C627.37 213.893 636.245 214.337 637.429 214.337C640.683 214.337 649.263 213.893 656.068 213.893C674.559 213.893 681.216 220.106 683.583 222.325C686.837 225.431 690.979 232.088 690.979 241.703C690.979 260.934 675.594 275.135 654.588 275.135C653.849 275.135 652.222 275.135 651.482 274.987C650.742 274.987 649.855 274.692 649.855 273.952C649.855 272.768 650.742 272.621 653.849 272.621C668.198 272.621 679.441 262.857 679.441 247.325C679.441 243.626 678.997 233.715 671.157 225.727C663.316 217.739 654.293 218.331 650.89 218.331C648.375 218.331 645.861 218.626 644.529 219.218C643.642 219.514 643.346 220.55 643.346 222.029V282.828C643.346 297.029 643.346 308.715 644.086 314.928C644.529 319.218 645.417 322.473 649.855 323.064C651.926 323.36 655.18 323.656 656.512 323.656C657.399 323.656 657.695 324.1 657.695 324.544C657.695 325.283 656.955 325.727 655.328 325.727C647.192 325.727 637.873 325.283 637.133 325.283C636.689 325.283 627.37 325.727 622.932 325.727C621.305 325.727 620.565 325.431 620.565 324.544C620.565 324.1 620.861 323.656 621.748 323.656C623.08 323.656 624.855 323.36 626.186 323.064C629.145 322.473 629.884 319.218 630.476 314.928C631.216 308.715 631.216 297.029 631.216 282.828Z" fill="#272522"/>
<path d="M292.685 38.0028H306.904C310.459 38.0028 313.313 37.3889 315.468 36.1609C317.622 34.9329 319.189 33.2687 320.169 31.1681C321.15 29.0676 321.64 26.6925 321.64 24.0426C321.64 21.3927 321.15 19.023 320.169 16.9332C319.189 14.8435 317.611 13.2008 315.435 12.0051C313.259 10.8095 310.372 10.2116 306.775 10.2116H292.685V38.0028ZM292.685 45.1122V69.2841H284.671V3.10227H307.033C312.225 3.10227 316.475 4.03402 319.782 5.89755C323.089 7.76108 325.539 10.2763 327.133 13.4432C328.728 16.6101 329.525 20.1432 329.525 24.0426C329.525 27.942 328.733 31.4859 327.15 34.6744C325.566 37.8628 323.126 40.3996 319.83 42.2846C316.534 44.1697 312.311 45.1122 307.162 45.1122H292.685ZM345.925 3.10227V69.2841H338.299V3.10227H345.925ZM371.374 70.4474C368.228 70.4474 365.374 69.8496 362.81 68.6539C360.247 67.4583 358.211 65.724 356.703 63.4512C355.195 61.1783 354.441 58.4262 354.441 55.1946C354.441 52.3508 355.001 50.0403 356.121 48.263C357.241 46.4856 358.738 45.0907 360.613 44.0781C362.487 43.0656 364.561 42.3062 366.833 41.7999C369.106 41.2936 371.395 40.8897 373.7 40.5881C376.717 40.2003 379.167 39.9041 381.052 39.6994C382.937 39.4947 384.316 39.1447 385.189 38.6491C386.061 38.1536 386.497 37.2919 386.497 36.0639V35.8054C386.497 32.6169 385.63 30.1394 383.896 28.3729C382.162 26.6063 379.539 25.723 376.027 25.723C372.386 25.723 369.532 26.5201 367.464 28.1143C365.395 29.7086 363.941 31.4105 363.101 33.2202L355.862 30.6349C357.155 27.6188 358.884 25.2652 361.049 23.574C363.214 21.8829 365.584 20.698 368.158 20.0194C370.733 19.3407 373.27 19.0014 375.769 19.0014C377.363 19.0014 379.199 19.1899 381.278 19.5669C383.357 19.944 385.372 20.7141 387.321 21.8775C389.271 23.0408 390.892 24.7966 392.185 27.1449C393.477 29.4931 394.124 32.6385 394.124 36.581V69.2841H386.497V62.5625H386.11C385.592 63.6397 384.731 64.7923 383.524 66.0202C382.318 67.2482 380.713 68.2931 378.709 69.1548C376.706 70.0166 374.261 70.4474 371.374 70.4474ZM372.537 63.5966C375.553 63.5966 378.101 63.0041 380.18 61.8192C382.259 60.6343 383.831 59.1048 384.898 57.2305C385.964 55.3562 386.497 53.385 386.497 51.3168V44.3366C386.174 44.7244 385.469 45.0745 384.381 45.3869C383.293 45.6993 382.043 45.9686 380.632 46.1948C379.221 46.421 377.853 46.6149 376.528 46.7765C375.203 46.938 374.131 47.0727 373.313 47.1804C371.331 47.4389 369.483 47.8536 367.771 48.4245C366.058 48.9954 364.679 49.8464 363.634 50.9775C362.589 52.1085 362.067 53.6435 362.067 55.5824C362.067 58.2323 363.053 60.2304 365.024 61.5769C366.995 62.9234 369.499 63.5966 372.537 63.5966ZM426.553 19.6477V26.1108H400.83V19.6477H426.553ZM408.327 7.75568H415.953V55.0653C415.953 57.2197 416.271 58.8301 416.906 59.8965C417.542 60.9629 418.361 61.6738 419.362 62.0293C420.364 62.3848 421.425 62.5625 422.545 62.5625C423.386 62.5625 424.075 62.514 424.614 62.4171C425.152 62.3201 425.583 62.2393 425.906 62.1747L427.457 69.0256C426.94 69.2195 426.219 69.4187 425.292 69.6234C424.366 69.8281 423.192 69.9304 421.77 69.9304C419.616 69.9304 417.51 69.4672 415.452 68.5408C413.395 67.6145 411.693 66.2034 410.346 64.3075C409 62.4117 408.327 60.0204 408.327 57.1335V7.75568ZM457.042 19.6477V26.1108H430.285V19.6477H457.042ZM438.3 69.2841V12.7969C438.3 9.95311 438.967 7.58334 440.303 5.6875C441.639 3.79166 443.373 2.3698 445.506 1.42188C447.639 0.473954 449.89 0 452.26 0C454.134 0 455.664 0.150803 456.849 0.452415C458.033 0.754026 458.917 1.03409 459.498 1.29261L457.301 7.88494C456.913 7.75568 456.38 7.59411 455.701 7.40021C455.023 7.20632 454.134 7.10938 453.035 7.10938C450.515 7.10938 448.7 7.7449 447.59 9.01598C446.481 10.2871 445.926 12.1506 445.926 14.6065V69.2841H438.3ZM482.75 70.3182C478.269 70.3182 474.342 69.2518 470.971 67.119C467.599 64.9861 464.971 62.0024 463.086 58.1676C461.201 54.3328 460.258 49.8518 460.258 44.7244C460.258 39.554 461.201 35.0406 463.086 31.1843C464.971 27.328 467.599 24.3335 470.971 22.2006C474.342 20.0678 478.269 19.0014 482.75 19.0014C487.231 19.0014 491.157 20.0678 494.529 22.2006C497.9 24.3335 500.528 27.328 502.414 31.1843C504.299 35.0406 505.241 39.554 505.241 44.7244C505.241 49.8518 504.299 54.3328 502.414 58.1676C500.528 62.0024 497.9 64.9861 494.529 67.119C491.157 69.2518 487.231 70.3182 482.75 70.3182ZM482.75 63.4673C486.154 63.4673 488.954 62.5948 491.152 60.8498C493.349 59.1048 494.976 56.8104 496.031 53.9666C497.087 51.1229 497.615 48.0422 497.615 44.7244C497.615 41.4067 497.087 38.3152 496.031 35.4499C494.976 32.5846 493.349 30.2687 491.152 28.5021C488.954 26.7355 486.154 25.8523 482.75 25.8523C479.346 25.8523 476.545 26.7355 474.348 28.5021C472.15 30.2687 470.524 32.5846 469.468 35.4499C468.412 38.3152 467.885 41.4067 467.885 44.7244C467.885 48.0422 468.412 51.1229 469.468 53.9666C470.524 56.8104 472.15 59.1048 474.348 60.8498C476.545 62.5948 479.346 63.4673 482.75 63.4673ZM513.757 69.2841V19.6477H521.124V27.1449H521.641C522.546 24.6889 524.184 22.6961 526.553 21.1665C528.923 19.6369 531.595 18.8722 534.568 18.8722C535.128 18.8722 535.828 18.8829 536.668 18.9045C537.508 18.926 538.144 18.9583 538.575 19.0014V26.7571C538.316 26.6925 537.729 26.5901 536.813 26.4501C535.898 26.3101 534.934 26.2401 533.921 26.2401C531.508 26.2401 529.359 26.7409 527.474 27.7427C525.589 28.7445 524.103 30.1233 523.015 31.8791C521.927 33.6349 521.383 35.633 521.383 37.8736V69.2841H513.757ZM544.505 69.2841V19.6477H551.873V27.4034H552.519C553.553 24.7535 555.223 22.6908 557.528 21.215C559.833 19.7393 562.601 19.0014 565.833 19.0014C569.108 19.0014 571.838 19.7393 574.025 21.215C576.212 22.6908 577.919 24.7535 579.147 27.4034H579.664C580.935 24.8397 582.842 22.7985 585.384 21.2797C587.926 19.7608 590.974 19.0014 594.529 19.0014C598.967 19.0014 602.597 20.3856 605.419 23.1539C608.242 25.9223 609.653 30.2256 609.653 36.0639V69.2841H602.026V36.0639C602.026 32.4015 601.024 29.784 599.021 28.2113C597.017 26.6386 594.658 25.8523 591.944 25.8523C588.454 25.8523 585.75 26.9025 583.833 29.003C581.915 31.1035 580.957 33.7587 580.957 36.9688V69.2841H573.201V35.2884C573.201 32.4661 572.285 30.1879 570.454 28.4537C568.623 26.7194 566.264 25.8523 563.377 25.8523C561.395 25.8523 559.548 26.3801 557.835 27.4357C556.122 28.4914 554.743 29.9509 553.699 31.8145C552.654 33.678 552.131 35.8269 552.131 38.2614V69.2841H544.505ZM659.706 28.9442L664.04 25.723C665.914 24.495 667.417 23.1809 668.548 21.7805C669.679 20.3802 670.245 18.549 670.245 16.2869C670.245 14.6065 669.507 12.98 668.031 11.4073C666.555 9.83463 664.622 9.0483 662.23 9.0483C660.55 9.0483 659.069 9.47378 657.787 10.3248C656.505 11.1757 655.503 12.2529 654.782 13.5563C654.06 14.8597 653.699 16.2007 653.699 17.5795C653.699 19.1307 654.125 20.698 654.976 22.2814C655.827 23.8649 656.915 25.4806 658.239 27.1287C658.722 27.7289 659.211 28.334 659.706 28.9442ZM664.364 34.6339L678.755 52.2096C679.132 51.4806 679.479 50.7198 679.794 49.9272C680.925 47.0834 681.49 43.8843 681.49 40.3295H688.858C688.858 44.7245 688.352 48.3114 687.339 51.0906C686.327 53.8697 685.185 56.0456 683.914 57.6183C683.79 57.7712 683.669 57.9203 683.55 58.0657L692.736 69.2841H683.558L678.889 63.6522C676.847 65.7575 674.331 67.3493 671.343 68.4277C668.09 69.6019 664.88 70.1889 661.713 70.1889C657.361 70.1889 653.613 69.3918 650.468 67.7976C647.322 66.2034 644.899 64.0167 643.197 61.2376C641.495 58.4584 640.644 55.2808 640.644 51.7045C640.644 48.947 641.231 46.4964 642.405 44.3528C643.579 42.2092 645.206 40.2165 647.285 38.3745C649.175 36.6991 651.329 35.0193 653.746 33.335C653.197 32.6743 652.665 32.0328 652.148 31.4105C650.252 29.1269 648.744 26.8756 647.624 24.6566C646.504 22.4376 645.943 20.0355 645.943 17.4503C645.943 14.4773 646.606 11.8651 647.931 9.61381C649.256 7.3625 651.119 5.60672 653.521 4.34641C655.923 3.08611 658.74 2.45597 661.972 2.45597C665.29 2.45597 668.144 3.09688 670.535 4.37873C672.927 5.66058 674.769 7.35173 676.061 9.45224C677.354 11.5527 678 13.831 678 16.2869C678 19.4538 677.214 22.2006 675.641 24.5273C674.069 26.8541 671.925 29.0192 669.211 31.0227L664.364 34.6339ZM674.306 58.1244L658.482 39.0369C658.478 39.0328 658.475 39.0286 658.471 39.0244L656.026 40.8466C653.053 43.044 651.038 45.1768 649.983 47.245C648.927 49.3132 648.399 50.7997 648.399 51.7045C648.399 53.7727 648.938 55.7009 650.015 57.489C651.092 59.2771 652.611 60.7205 654.572 61.8192C656.532 62.918 658.826 63.4673 661.455 63.4673C663.954 63.4673 666.388 62.9341 668.758 61.8677C670.766 60.9641 672.616 59.7164 674.306 58.1244ZM221.672 169.284L206.548 119.648H214.563L225.291 157.651H225.808L236.408 119.648H244.551L255.021 157.521H255.538L266.267 119.648H274.281L259.158 169.284H251.661L240.803 131.152H240.027L229.169 169.284H221.672ZM299.73 170.318C295.249 170.318 291.323 169.252 287.951 167.119C284.579 164.986 281.951 162.002 280.066 158.168C278.181 154.333 277.238 149.852 277.238 144.724C277.238 139.554 278.181 135.041 280.066 131.184C281.951 127.328 284.579 124.333 287.951 122.201C291.323 120.068 295.249 119.001 299.73 119.001C304.211 119.001 308.137 120.068 311.509 122.201C314.88 124.333 317.509 127.328 319.394 131.184C321.279 135.041 322.221 139.554 322.221 144.724C322.221 149.852 321.279 154.333 319.394 158.168C317.509 162.002 314.88 164.986 311.509 167.119C308.137 169.252 304.211 170.318 299.73 170.318ZM299.73 163.467C303.134 163.467 305.934 162.595 308.132 160.85C310.329 159.105 311.956 156.81 313.012 153.967C314.067 151.123 314.595 148.042 314.595 144.724C314.595 141.407 314.067 138.315 313.012 135.45C311.956 132.585 310.329 130.269 308.132 128.502C305.934 126.736 303.134 125.852 299.73 125.852C296.326 125.852 293.525 126.736 291.328 128.502C289.131 130.269 287.504 132.585 286.448 135.45C285.393 138.315 284.865 141.407 284.865 144.724C284.865 148.042 285.393 151.123 286.448 153.967C287.504 156.81 289.131 159.105 291.328 160.85C293.525 162.595 296.326 163.467 299.73 163.467ZM330.737 169.284V119.648H338.105V127.145H338.622C339.527 124.689 341.164 122.696 343.534 121.167C345.904 119.637 348.575 118.872 351.548 118.872C352.108 118.872 352.808 118.883 353.648 118.904C354.489 118.926 355.124 118.958 355.555 119.001V126.757C355.297 126.692 354.709 126.59 353.794 126.45C352.878 126.31 351.914 126.24 350.902 126.24C348.489 126.24 346.34 126.741 344.455 127.743C342.57 128.744 341.083 130.123 339.995 131.879C338.907 133.635 338.363 135.633 338.363 137.874V169.284H330.737ZM368.595 151.188L368.465 141.751H370.017L391.732 119.648H401.169L378.031 143.044H377.384L368.595 151.188ZM361.485 169.284V103.102H369.112V169.284H361.485ZM393.025 169.284L373.636 144.724L379.065 139.425L402.72 169.284H393.025ZM429.978 119.648V126.111H403.221V119.648H429.978ZM411.235 169.284V112.797C411.235 109.953 411.903 107.583 413.239 105.688C414.574 103.792 416.309 102.37 418.441 101.422C420.574 100.474 422.825 100 425.195 100C427.07 100 428.599 100.151 429.784 100.452C430.969 100.754 431.852 101.034 432.434 101.293L430.236 107.885C429.849 107.756 429.316 107.594 428.637 107.4C427.958 107.206 427.07 107.109 425.971 107.109C423.45 107.109 421.635 107.745 420.526 109.016C419.416 110.287 418.861 112.151 418.861 114.607V169.284H411.235ZM445.215 103.102V169.284H437.589V103.102H445.215ZM476.222 170.318C471.741 170.318 467.815 169.252 464.443 167.119C461.071 164.986 458.443 162.002 456.558 158.168C454.673 154.333 453.73 149.852 453.73 144.724C453.73 139.554 454.673 135.041 456.558 131.184C458.443 127.328 461.071 124.333 464.443 122.201C467.815 120.068 471.741 119.001 476.222 119.001C480.703 119.001 484.629 120.068 488.001 122.201C491.372 124.333 494.001 127.328 495.886 131.184C497.771 135.041 498.713 139.554 498.713 144.724C498.713 149.852 497.771 154.333 495.886 158.168C494.001 162.002 491.372 164.986 488.001 167.119C484.629 169.252 480.703 170.318 476.222 170.318ZM476.222 163.467C479.626 163.467 482.426 162.595 484.624 160.85C486.821 159.105 488.448 156.81 489.504 153.967C490.559 151.123 491.087 148.042 491.087 144.724C491.087 141.407 490.559 138.315 489.504 135.45C488.448 132.585 486.821 130.269 484.624 128.502C482.426 126.736 479.626 125.852 476.222 125.852C472.818 125.852 470.017 126.736 467.82 128.502C465.622 130.269 463.996 132.585 462.94 135.45C461.885 138.315 461.357 141.407 461.357 144.724C461.357 148.042 461.885 151.123 462.94 153.967C463.996 156.81 465.622 159.105 467.82 160.85C470.017 162.595 472.818 163.467 476.222 163.467ZM516.794 169.284L501.671 119.648H509.685L520.413 157.651H520.93L531.53 119.648H539.673L550.144 157.521H550.661L561.389 119.648H569.404L554.28 169.284H546.783L535.925 131.152H535.149L524.291 169.284H516.794ZM599.878 169.284V103.102H607.504V127.533H608.15C608.71 126.671 609.491 125.567 610.493 124.22C611.495 122.874 612.938 121.667 614.823 120.601C616.708 119.535 619.267 119.001 622.498 119.001C626.678 119.001 630.362 120.046 633.55 122.136C636.739 124.226 639.227 127.188 641.015 131.023C642.803 134.857 643.697 139.382 643.697 144.595C643.697 149.852 642.803 154.403 641.015 158.248C639.227 162.094 636.749 165.067 633.582 167.167C630.416 169.268 626.764 170.318 622.628 170.318C619.439 170.318 616.886 169.785 614.969 168.719C613.051 167.652 611.576 166.435 610.542 165.067C609.508 163.699 608.71 162.563 608.15 161.658H607.245V169.284H599.878ZM607.375 144.466C607.375 148.215 607.924 151.516 609.023 154.371C610.122 157.225 611.727 159.455 613.838 161.06C615.949 162.665 618.534 163.467 621.594 163.467C624.782 163.467 627.448 162.622 629.592 160.931C631.735 159.239 633.351 156.956 634.439 154.08C635.527 151.204 636.071 147.999 636.071 144.466C636.071 140.976 635.538 137.825 634.471 135.014C633.405 132.202 631.8 129.972 629.656 128.324C627.513 126.676 624.825 125.852 621.594 125.852C618.491 125.852 615.884 126.633 613.773 128.195C611.662 129.757 610.068 131.933 608.99 134.723C607.913 137.513 607.375 140.76 607.375 144.466ZM655.315 187.768C654.022 187.768 652.87 187.666 651.857 187.461C650.845 187.257 650.144 187.058 649.757 186.864L651.696 180.142C654.475 180.853 656.791 180.837 658.643 180.094C660.496 179.35 662.101 177.126 663.458 173.42L664.88 169.543L646.525 119.648H654.798L668.5 159.202H669.017L682.718 119.648L691.056 119.777L669.921 176.523C668.973 179.043 667.799 181.138 666.399 182.808C664.999 184.478 663.378 185.722 661.536 186.54C659.694 187.359 657.62 187.768 655.315 187.768Z" fill="#272522"/>
</svg>
