<svg width="738" height="662" viewBox="0 0 738 662" fill="none" xmlns="http://www.w3.org/2000/svg">
<g clip-path="url(#clip0)">
<path d="M204.719 478.83C164.665 478.83 148 447.082 148 420.253C148 396.106 165.25 361.973 205.596 361.973C238.488 361.973 263.047 383.139 263.047 417.868C263.047 451.256 239.95 478.83 204.719 478.83ZM208.666 473.166C221.823 473.166 249.013 465.416 249.013 422.041C249.013 386.269 227.67 367.041 204.573 367.041C180.16 367.041 161.887 383.437 161.887 416.079C161.887 450.808 182.353 473.166 208.666 473.166ZM290.778 407.285V443.058C290.778 467.204 290.778 476.445 286.392 487.028C283.322 494.481 276.89 501.486 265.049 509.833C263.149 511.175 260.81 512.814 259.348 513.559C259.056 513.709 258.763 513.858 258.325 513.858C257.886 513.858 257.302 513.559 257.302 512.963C257.302 512.069 258.032 511.622 259.348 510.727C261.102 509.684 263.149 507.895 264.465 506.554C273.967 496.717 278.498 488.817 278.498 450.361V407.285C278.498 384.033 278.498 379.859 278.206 375.09C277.913 370.022 276.744 367.637 271.92 366.594C270.75 366.296 268.704 366.147 267.388 366.147C266.365 366.147 265.78 365.699 265.78 365.103C265.78 364.507 266.365 364.06 267.973 364.06C274.551 364.06 283.907 364.507 284.638 364.507C285.369 364.507 294.578 364.06 298.964 364.06C300.572 364.06 301.303 364.358 301.303 365.252C301.303 365.849 300.572 366.147 299.695 366.147C298.672 366.147 297.502 366.296 296.186 366.445C292.239 366.892 291.362 369.873 291.07 375.09C290.778 379.859 290.778 384.033 290.778 407.285ZM327.864 478.83C320.994 478.83 314.269 477.787 308.276 474.806C306.229 473.762 306.083 473.166 306.083 469.142C306.083 461.689 306.668 455.727 306.814 453.342C306.96 451.703 307.253 450.957 307.983 450.957C308.861 450.957 309.007 451.405 309.007 452.597C309.007 453.938 309.007 456.025 309.445 458.112C311.638 469.142 321.286 473.315 331.08 473.315C345.114 473.315 351.985 463.031 351.985 453.491C351.985 443.207 347.745 437.245 335.174 426.662L328.595 421.147C313.1 408.179 309.591 398.938 309.591 388.803C309.591 372.854 321.286 361.973 339.852 361.973C345.553 361.973 349.792 362.569 353.447 363.464C356.224 364.06 357.394 364.209 358.563 364.209C359.732 364.209 360.025 364.507 360.025 365.252C360.025 365.998 359.44 370.916 359.44 381.052C359.44 383.437 359.148 384.48 358.417 384.48C357.54 384.48 357.394 383.735 357.247 382.542C357.101 380.754 356.224 376.729 355.347 375.09C354.47 373.45 350.523 367.19 337.074 367.19C326.987 367.19 319.093 373.599 319.093 384.48C319.093 392.976 322.894 398.342 336.928 409.521L341.021 412.8C358.271 426.662 362.364 435.903 362.364 447.827C362.364 453.938 360.025 465.266 349.938 472.57C343.652 477.042 335.758 478.83 327.864 478.83Z" fill="#272522"/>
<path d="M398.067 473.584L446.935 363.051C447.8 361.14 448.233 360.993 448.809 360.993C449.53 360.993 452.413 362.463 453.134 363.198C453.855 363.933 453.711 364.374 453.134 365.697L403.977 477.111C403.4 478.287 403.112 478.434 402.679 478.434C402.247 478.434 398.787 476.67 398.067 475.935C397.49 475.347 397.49 474.759 398.067 473.584Z" fill="#272522"/>
<path d="M501.721 432.039V405.576C501.721 382.121 501.721 377.911 501.427 373.099C501.132 367.987 499.952 365.582 495.086 364.529C493.906 364.228 491.399 364.078 490.072 364.078C489.482 364.078 488.892 363.777 488.892 363.176C488.892 362.274 489.63 361.973 491.252 361.973C497.887 361.973 506.735 362.424 507.915 362.424C511.159 362.424 519.712 361.973 526.495 361.973C544.928 361.973 551.563 368.288 553.923 370.543C557.167 373.701 561.296 380.467 561.296 390.24C561.296 409.786 545.96 424.22 525.02 424.22C524.283 424.22 522.661 424.22 521.924 424.07C521.186 424.07 520.302 423.769 520.302 423.017C520.302 421.814 521.186 421.664 524.283 421.664C538.587 421.664 549.794 411.741 549.794 395.953C549.794 392.194 549.351 382.121 541.536 374.002C533.721 365.882 524.725 366.484 521.334 366.484C518.827 366.484 516.32 366.785 514.993 367.386C514.108 367.687 513.813 368.739 513.813 370.243V432.039C513.813 446.473 513.813 458.351 514.551 464.666C514.993 469.026 515.878 472.334 520.302 472.935C522.366 473.236 525.61 473.537 526.937 473.537C527.822 473.537 528.117 473.988 528.117 474.439C528.117 475.19 527.38 475.641 525.758 475.641C517.647 475.641 508.357 475.19 507.62 475.19C507.178 475.19 497.887 475.641 493.464 475.641C491.842 475.641 491.104 475.341 491.104 474.439C491.104 473.988 491.399 473.537 492.284 473.537C493.611 473.537 495.381 473.236 496.708 472.935C499.657 472.334 500.394 469.026 500.984 464.666C501.721 458.351 501.721 446.473 501.721 432.039ZM586.32 405.576V415.199C590.891 410.688 610.946 389.187 619.941 379.715C628.789 370.393 629.379 368.889 629.379 367.085C629.379 365.882 628.641 364.68 627.462 364.228C626.429 363.777 626.134 363.477 626.134 362.875C626.134 362.274 627.019 361.973 628.346 361.973C632.623 361.973 632.18 362.424 637.194 362.424C641.765 362.424 650.466 361.973 652.825 361.973C654.889 361.973 655.332 362.424 655.332 363.026C655.332 363.627 655.037 363.928 653.71 364.078C650.908 364.379 648.254 364.98 646.189 365.882C642.503 367.386 639.701 369.19 630.853 377.911C617.877 390.691 601.066 407.681 597.232 412.041C606.522 422.416 633.36 450.232 640.291 456.847C652.383 468.424 657.544 471.732 664.622 473.085C665.949 473.386 667.424 473.537 668.898 473.537C670.078 473.537 670.963 473.837 670.963 474.589C670.963 475.341 670.373 475.641 668.751 475.641H657.839C645.009 475.641 641.618 473.988 634.687 468.424C625.84 461.358 599.297 432.339 586.32 416.552V432.039C586.32 446.473 586.32 458.351 587.057 464.666C587.5 469.026 588.384 472.334 592.808 472.935C594.873 473.236 597.822 473.537 598.707 473.537C600.034 473.537 600.476 474.138 600.476 474.589C600.476 475.341 599.886 475.641 598.264 475.641C590.154 475.641 580.864 475.19 580.127 475.19C579.389 475.19 570.689 475.641 566.265 475.641C564.643 475.641 563.906 475.491 563.906 474.589C563.906 474.138 564.201 473.537 565.528 473.537C566.413 473.537 568.035 473.386 569.362 473.085C572.311 472.484 573.196 469.026 573.786 464.666C574.523 458.351 574.523 446.473 574.523 432.039V405.576C574.523 382.121 574.523 377.911 574.228 373.099C573.933 367.987 572.459 365.431 569.214 364.68C567.592 364.228 564.938 364.078 563.906 364.078C562.726 364.078 562.284 363.777 562.284 363.176C562.284 362.274 563.021 361.973 564.643 361.973C569.509 361.973 579.389 362.424 580.127 362.424C580.864 362.424 590.154 361.973 594.578 361.973C596.2 361.973 596.937 362.274 596.937 363.026C596.937 363.627 596.642 363.928 595.315 364.078C593.693 364.228 593.546 364.228 592.071 364.379C588.089 364.83 586.91 367.837 586.615 373.099C586.32 377.911 586.32 382.121 586.32 405.576ZM676.374 432.039V405.576C676.374 382.121 676.374 377.911 676.08 373.099C675.785 367.987 674.605 365.582 669.739 364.529C668.559 364.228 666.052 364.078 664.725 364.078C664.135 364.078 663.545 363.777 663.545 363.176C663.545 362.274 664.283 361.973 665.905 361.973C672.541 361.973 681.388 362.424 682.568 362.424C685.812 362.424 694.365 361.973 701.148 361.973C719.581 361.973 726.216 368.288 728.576 370.543C731.82 373.701 735.949 380.467 735.949 390.24C735.949 409.786 720.613 424.22 699.673 424.22C698.936 424.22 697.314 424.22 696.577 424.07C695.839 424.07 694.955 423.769 694.955 423.017C694.955 421.814 695.839 421.664 698.936 421.664C713.24 421.664 724.447 411.741 724.447 395.953C724.447 392.194 724.004 382.121 716.189 374.002C708.374 365.882 699.378 366.484 695.987 366.484C693.48 366.484 690.973 366.785 689.646 367.386C688.761 367.687 688.466 368.739 688.466 370.243V432.039C688.466 446.473 688.466 458.351 689.204 464.666C689.646 469.026 690.531 472.334 694.955 472.935C697.019 473.236 700.263 473.537 701.59 473.537C702.475 473.537 702.77 473.988 702.77 474.439C702.77 475.19 702.033 475.641 700.411 475.641C692.3 475.641 683.01 475.19 682.273 475.19C681.831 475.19 672.54 475.641 668.117 475.641C666.495 475.641 665.757 475.341 665.757 474.439C665.757 473.988 666.052 473.537 666.937 473.537C668.264 473.537 670.034 473.236 671.361 472.935C674.31 472.334 675.047 469.026 675.637 464.666C676.374 458.351 676.374 446.473 676.374 432.039Z" fill="#272522"/>
<path d="M337.645 185.003H351.864C355.419 185.003 358.273 184.389 360.428 183.161C362.582 181.933 364.149 180.269 365.13 178.168C366.11 176.068 366.6 173.692 366.6 171.043C366.6 168.393 366.11 166.023 365.13 163.933C364.149 161.844 362.571 160.201 360.395 159.005C358.22 157.809 355.333 157.212 351.735 157.212H337.645V185.003ZM337.645 192.112V216.284H329.631V150.102H351.993C357.185 150.102 361.435 151.034 364.742 152.898C368.049 154.761 370.499 157.276 372.094 160.443C373.688 163.61 374.485 167.143 374.485 171.043C374.485 174.942 373.693 178.486 372.11 181.674C370.526 184.863 368.086 187.4 364.79 189.285C361.494 191.17 357.272 192.112 352.123 192.112H337.645ZM390.885 150.102V216.284H383.259V150.102H390.885ZM416.334 217.447C413.189 217.447 410.334 216.85 407.77 215.654C405.207 214.458 403.171 212.724 401.663 210.451C400.155 208.178 399.401 205.426 399.401 202.195C399.401 199.351 399.961 197.04 401.081 195.263C402.201 193.486 403.699 192.091 405.573 191.078C407.447 190.066 409.521 189.306 411.794 188.8C414.067 188.294 416.355 187.89 418.661 187.588C421.677 187.2 424.127 186.904 426.012 186.699C427.897 186.495 429.276 186.145 430.149 185.649C431.021 185.154 431.458 184.292 431.458 183.064V182.805C431.458 179.617 430.59 177.139 428.856 175.373C427.122 173.606 424.499 172.723 420.987 172.723C417.346 172.723 414.492 173.52 412.424 175.114C410.356 176.709 408.901 178.411 408.061 180.22L400.823 177.635C402.115 174.619 403.844 172.265 406.009 170.574C408.174 168.883 410.544 167.698 413.119 167.019C415.693 166.341 418.23 166.001 420.729 166.001C422.323 166.001 424.16 166.19 426.239 166.567C428.318 166.944 430.332 167.714 432.282 168.877C434.231 170.041 435.852 171.797 437.145 174.145C438.438 176.493 439.084 179.638 439.084 183.581V216.284H431.458V209.562H431.07C430.553 210.64 429.691 211.792 428.485 213.02C427.278 214.248 425.673 215.293 423.67 216.155C421.666 217.017 419.221 217.447 416.334 217.447ZM417.497 210.597C420.513 210.597 423.061 210.004 425.14 208.819C427.219 207.634 428.792 206.105 429.858 204.23C430.924 202.356 431.458 200.385 431.458 198.317V191.337C431.134 191.724 430.429 192.075 429.341 192.387C428.253 192.699 427.003 192.969 425.592 193.195C424.181 193.421 422.813 193.615 421.488 193.776C420.163 193.938 419.092 194.073 418.273 194.18C416.291 194.439 414.444 194.854 412.731 195.425C411.018 195.995 409.639 196.846 408.594 197.977C407.55 199.108 407.027 200.643 407.027 202.582C407.027 205.232 408.013 207.23 409.984 208.577C411.955 209.923 414.46 210.597 417.497 210.597ZM471.513 166.648V173.111H445.79V166.648H471.513ZM453.287 154.756H460.913V202.065C460.913 204.22 461.231 205.83 461.867 206.896C462.502 207.963 463.321 208.674 464.323 209.029C465.324 209.385 466.385 209.562 467.506 209.562C468.346 209.562 469.035 209.514 469.574 209.417C470.112 209.32 470.543 209.239 470.866 209.175L472.418 216.026C471.901 216.219 471.179 216.419 470.252 216.623C469.326 216.828 468.152 216.93 466.73 216.93C464.576 216.93 462.47 216.467 460.412 215.541C458.355 214.614 456.653 213.203 455.307 211.308C453.96 209.412 453.287 207.02 453.287 204.134V154.756ZM502.003 166.648V173.111H475.246V166.648H502.003ZM483.26 216.284V159.797C483.26 156.953 483.928 154.583 485.263 152.688C486.599 150.792 488.333 149.37 490.466 148.422C492.599 147.474 494.85 147 497.22 147C499.094 147 500.624 147.151 501.809 147.452C502.994 147.754 503.877 148.034 504.459 148.293L502.261 154.885C501.873 154.756 501.34 154.594 500.662 154.4C499.983 154.206 499.094 154.109 497.996 154.109C495.475 154.109 493.66 154.745 492.55 156.016C491.441 157.287 490.886 159.151 490.886 161.607V216.284H483.26ZM527.71 217.318C523.229 217.318 519.302 216.252 515.931 214.119C512.559 211.986 509.931 209.002 508.046 205.168C506.161 201.333 505.218 196.852 505.218 191.724C505.218 186.554 506.161 182.041 508.046 178.184C509.931 174.328 512.559 171.333 515.931 169.201C519.302 167.068 523.229 166.001 527.71 166.001C532.191 166.001 536.117 167.068 539.489 169.201C542.86 171.333 545.489 174.328 547.374 178.184C549.259 182.041 550.201 186.554 550.201 191.724C550.201 196.852 549.259 201.333 547.374 205.168C545.489 209.002 542.86 211.986 539.489 214.119C536.117 216.252 532.191 217.318 527.71 217.318ZM527.71 210.467C531.114 210.467 533.914 209.595 536.112 207.85C538.309 206.105 539.936 203.81 540.991 200.967C542.047 198.123 542.575 195.042 542.575 191.724C542.575 188.407 542.047 185.315 540.991 182.45C539.936 179.585 538.309 177.269 536.112 175.502C533.914 173.736 531.114 172.852 527.71 172.852C524.306 172.852 521.505 173.736 519.308 175.502C517.11 177.269 515.484 179.585 514.428 182.45C513.373 185.315 512.845 188.407 512.845 191.724C512.845 195.042 513.373 198.123 514.428 200.967C515.484 203.81 517.11 206.105 519.308 207.85C521.505 209.595 524.306 210.467 527.71 210.467ZM558.717 216.284V166.648H566.085V174.145H566.602C567.507 171.689 569.144 169.696 571.514 168.167C573.883 166.637 576.555 165.872 579.528 165.872C580.088 165.872 580.788 165.883 581.628 165.904C582.469 165.926 583.104 165.958 583.535 166.001V173.757C583.276 173.692 582.689 173.59 581.774 173.45C580.858 173.31 579.894 173.24 578.882 173.24C576.469 173.24 574.32 173.741 572.435 174.743C570.55 175.744 569.063 177.123 567.975 178.879C566.887 180.635 566.343 182.633 566.343 184.874V216.284H558.717ZM589.465 216.284V166.648H596.833V174.403H597.479C598.513 171.754 600.183 169.691 602.488 168.215C604.793 166.739 607.562 166.001 610.793 166.001C614.068 166.001 616.799 166.739 618.985 168.215C621.172 169.691 622.879 171.754 624.107 174.403H624.624C625.895 171.84 627.802 169.798 630.344 168.28C632.886 166.761 635.935 166.001 639.489 166.001C643.927 166.001 647.557 167.386 650.38 170.154C653.202 172.922 654.613 177.226 654.613 183.064V216.284H646.986V183.064C646.986 179.402 645.985 176.784 643.981 175.211C641.978 173.639 639.619 172.852 636.904 172.852C633.414 172.852 630.71 173.903 628.793 176.003C626.875 178.104 625.917 180.759 625.917 183.969V216.284H618.161V182.288C618.161 179.466 617.246 177.188 615.414 175.454C613.583 173.719 611.224 172.852 608.337 172.852C606.355 172.852 604.508 173.38 602.795 174.436C601.082 175.491 599.704 176.951 598.659 178.814C597.614 180.678 597.092 182.827 597.092 185.261V216.284H589.465ZM704.666 175.944L709 172.723C710.875 171.495 712.377 170.181 713.508 168.781C714.639 167.38 715.205 165.549 715.205 163.287C715.205 161.607 714.467 159.98 712.991 158.407C711.515 156.835 709.582 156.048 707.191 156.048C705.51 156.048 704.029 156.474 702.747 157.325C701.465 158.176 700.464 159.253 699.742 160.556C699.02 161.86 698.659 163.201 698.659 164.58C698.659 166.131 699.085 167.698 699.936 169.281C700.787 170.865 701.875 172.481 703.2 174.129C703.682 174.729 704.171 175.334 704.666 175.944ZM709.324 181.634L723.715 199.21C724.093 198.481 724.439 197.72 724.754 196.927C725.885 194.083 726.451 190.884 726.451 187.33H733.818C733.818 191.724 733.312 195.311 732.3 198.091C731.287 200.87 730.145 203.046 728.874 204.618C728.751 204.771 728.629 204.92 728.51 205.066L737.696 216.284H728.519L723.85 210.652C721.807 212.758 719.291 214.349 716.304 215.428C713.05 216.602 709.84 217.189 706.674 217.189C702.322 217.189 698.573 216.392 695.428 214.798C692.282 213.203 689.859 211.017 688.157 208.238C686.455 205.458 685.604 202.281 685.604 198.705C685.604 195.947 686.191 193.496 687.365 191.353C688.539 189.209 690.166 187.216 692.245 185.374C694.136 183.699 696.289 182.019 698.706 180.335C698.158 179.674 697.625 179.033 697.108 178.411C695.212 176.127 693.704 173.876 692.584 171.657C691.464 169.438 690.904 167.036 690.904 164.45C690.904 161.477 691.566 158.865 692.891 156.614C694.216 154.363 696.079 152.607 698.482 151.346C700.884 150.086 703.701 149.456 706.932 149.456C710.25 149.456 713.104 150.097 715.496 151.379C717.887 152.661 719.729 154.352 721.022 156.452C722.314 158.553 722.96 160.831 722.96 163.287C722.96 166.454 722.174 169.201 720.601 171.527C719.029 173.854 716.885 176.019 714.171 178.023L709.324 181.634ZM719.267 205.124L703.442 186.037C703.439 186.033 703.435 186.029 703.432 186.024L700.986 187.847C698.013 190.044 695.999 192.177 694.943 194.245C693.887 196.313 693.36 197.8 693.36 198.705C693.36 200.773 693.898 202.701 694.975 204.489C696.053 206.277 697.571 207.721 699.532 208.819C701.492 209.918 703.787 210.467 706.415 210.467C708.914 210.467 711.348 209.934 713.718 208.868C715.726 207.964 717.576 206.716 719.267 205.124ZM266.632 316.284L251.509 266.648H259.523L270.251 304.651H270.768L281.368 266.648H289.511L299.982 304.521H300.499L311.227 266.648H319.242L304.118 316.284H296.621L285.763 278.152H284.987L274.129 316.284H266.632ZM344.69 317.318C340.209 317.318 336.283 316.252 332.911 314.119C329.54 311.986 326.911 309.002 325.026 305.168C323.141 301.333 322.199 296.852 322.199 291.724C322.199 286.554 323.141 282.041 325.026 278.184C326.911 274.328 329.54 271.333 332.911 269.201C336.283 267.068 340.209 266.001 344.69 266.001C349.171 266.001 353.098 267.068 356.469 269.201C359.841 271.333 362.469 274.328 364.354 278.184C366.239 282.041 367.182 286.554 367.182 291.724C367.182 296.852 366.239 301.333 364.354 305.168C362.469 309.002 359.841 311.986 356.469 314.119C353.098 316.252 349.171 317.318 344.69 317.318ZM344.69 310.467C348.094 310.467 350.895 309.595 353.092 307.85C355.29 306.105 356.916 303.81 357.972 300.967C359.027 298.123 359.555 295.042 359.555 291.724C359.555 288.407 359.027 285.315 357.972 282.45C356.916 279.585 355.29 277.269 353.092 275.502C350.895 273.736 348.094 272.852 344.69 272.852C341.286 272.852 338.486 273.736 336.288 275.502C334.091 277.269 332.464 279.585 331.409 282.45C330.353 285.315 329.825 288.407 329.825 291.724C329.825 295.042 330.353 298.123 331.409 300.967C332.464 303.81 334.091 306.105 336.288 307.85C338.486 309.595 341.286 310.467 344.69 310.467ZM375.697 316.284V266.648H383.065V274.145H383.582C384.487 271.689 386.124 269.696 388.494 268.167C390.864 266.637 393.535 265.872 396.508 265.872C397.068 265.872 397.768 265.883 398.609 265.904C399.449 265.926 400.084 265.958 400.515 266.001V273.757C400.257 273.692 399.67 273.59 398.754 273.45C397.838 273.31 396.874 273.24 395.862 273.24C393.449 273.24 391.3 273.741 389.415 274.743C387.53 275.745 386.043 277.123 384.955 278.879C383.867 280.635 383.324 282.633 383.324 284.874V316.284H375.697ZM413.555 298.188L413.426 288.751H414.977L436.693 266.648H446.129L422.991 290.044H422.345L413.555 298.188ZM406.445 316.284V250.102H414.072V316.284H406.445ZM437.985 316.284L418.596 291.724L424.025 286.425L447.68 316.284H437.985ZM474.938 266.648V273.111H448.181V266.648H474.938ZM456.195 316.284V259.797C456.195 256.953 456.863 254.583 458.199 252.688C459.535 250.792 461.269 249.37 463.402 248.422C465.534 247.474 467.786 247 470.156 247C472.03 247 473.559 247.151 474.744 247.452C475.929 247.754 476.812 248.034 477.394 248.293L475.197 254.885C474.809 254.756 474.276 254.594 473.597 254.4C472.918 254.206 472.03 254.109 470.931 254.109C468.41 254.109 466.595 254.745 465.486 256.016C464.376 257.287 463.822 259.151 463.822 261.607V316.284H456.195ZM490.175 250.102V316.284H482.549V250.102H490.175ZM521.182 317.318C516.701 317.318 512.775 316.252 509.403 314.119C506.032 311.986 503.403 309.002 501.518 305.168C499.633 301.333 498.691 296.852 498.691 291.724C498.691 286.554 499.633 282.041 501.518 278.184C503.403 274.328 506.032 271.333 509.403 269.201C512.775 267.068 516.701 266.001 521.182 266.001C525.663 266.001 529.589 267.068 532.961 269.201C536.333 271.333 538.961 274.328 540.846 278.184C542.731 282.041 543.674 286.554 543.674 291.724C543.674 296.852 542.731 301.333 540.846 305.168C538.961 309.002 536.333 311.986 532.961 314.119C529.589 316.252 525.663 317.318 521.182 317.318ZM521.182 310.467C524.586 310.467 527.387 309.595 529.584 307.85C531.782 306.105 533.408 303.81 534.464 300.967C535.519 298.123 536.047 295.042 536.047 291.724C536.047 288.407 535.519 285.315 534.464 282.45C533.408 279.585 531.782 277.269 529.584 275.502C527.387 273.736 524.586 272.852 521.182 272.852C517.778 272.852 514.978 273.736 512.78 275.502C510.583 277.269 508.956 279.585 507.901 282.45C506.845 285.315 506.317 288.407 506.317 291.724C506.317 295.042 506.845 298.123 507.901 300.967C508.956 303.81 510.583 306.105 512.78 307.85C514.978 309.595 517.778 310.467 521.182 310.467ZM561.754 316.284L546.631 266.648H554.645L565.374 304.651H565.891L576.49 266.648H584.634L595.104 304.521H595.621L606.35 266.648H614.364L599.24 316.284H591.743L580.885 278.152H580.109L569.252 316.284H561.754ZM644.838 316.284V250.102H652.464V274.533H653.111C653.671 273.671 654.452 272.567 655.453 271.22C656.455 269.874 657.899 268.667 659.784 267.601C661.669 266.535 664.227 266.001 667.459 266.001C671.638 266.001 675.322 267.046 678.51 269.136C681.699 271.226 684.187 274.188 685.975 278.023C687.763 281.857 688.657 286.382 688.657 291.595C688.657 296.852 687.763 301.403 685.975 305.248C684.187 309.094 681.71 312.067 678.543 314.167C675.376 316.268 671.724 317.318 667.588 317.318C664.399 317.318 661.846 316.785 659.929 315.719C658.012 314.652 656.536 313.435 655.502 312.067C654.468 310.699 653.671 309.562 653.111 308.658H652.206V316.284H644.838ZM652.335 291.466C652.335 295.215 652.884 298.516 653.983 301.371C655.082 304.225 656.687 306.455 658.798 308.06C660.909 309.665 663.495 310.467 666.554 310.467C669.742 310.467 672.408 309.622 674.552 307.931C676.695 306.239 678.311 303.956 679.399 301.08C680.487 298.204 681.031 294.999 681.031 291.466C681.031 287.976 680.498 284.825 679.431 282.014C678.365 279.202 676.76 276.972 674.616 275.324C672.473 273.676 669.785 272.852 666.554 272.852C663.451 272.852 660.845 273.633 658.733 275.195C656.622 276.757 655.028 278.933 653.951 281.723C652.874 284.513 652.335 287.76 652.335 291.466ZM700.275 334.768C698.982 334.768 697.83 334.666 696.817 334.461C695.805 334.257 695.105 334.058 694.717 333.864L696.656 327.142C699.435 327.853 701.751 327.837 703.604 327.094C705.456 326.35 707.061 324.126 708.419 320.42L709.84 316.543L691.485 266.648H699.758L713.46 306.202H713.977L727.679 266.648L736.016 266.777L714.882 323.523C713.934 326.043 712.76 328.138 711.359 329.808C709.959 331.478 708.338 332.722 706.496 333.54C704.654 334.359 702.58 334.768 700.275 334.768Z" fill="#272522"/>
</g>
<defs>
<clipPath id="clip0">
<rect width="737.35" height="661.7" fill="white"/>
</clipPath>
</defs>
</svg>
