<svg width="590" height="367" viewBox="0 0 590 367" fill="none" xmlns="http://www.w3.org/2000/svg">
<path d="M56.7193 331.83C16.6649 331.83 0 300.082 0 273.253C0 249.106 17.2497 214.973 57.5964 214.973C90.4877 214.973 115.047 236.139 115.047 270.868C115.047 304.256 91.9496 331.83 56.7193 331.83ZM60.6662 326.166C73.8228 326.166 101.013 318.416 101.013 275.041C101.013 239.269 79.6701 220.041 56.5731 220.041C32.1604 220.041 13.8875 236.437 13.8875 269.079C13.8875 303.808 34.3532 326.166 60.6662 326.166ZM142.778 260.285V296.058C142.778 320.204 142.778 329.445 138.392 340.028C135.322 347.481 128.89 354.486 117.049 362.833C115.149 364.175 112.81 365.814 111.348 366.559C111.056 366.709 110.763 366.858 110.325 366.858C109.886 366.858 109.302 366.559 109.302 365.963C109.302 365.069 110.032 364.622 111.348 363.727C113.102 362.684 115.149 360.895 116.465 359.554C125.967 349.717 130.498 341.817 130.498 303.361V260.285C130.498 237.033 130.498 232.859 130.206 228.09C129.913 223.022 128.744 220.637 123.92 219.594C122.75 219.296 120.704 219.147 119.388 219.147C118.365 219.147 117.78 218.699 117.78 218.103C117.78 217.507 118.365 217.06 119.973 217.06C126.551 217.06 135.907 217.507 136.638 217.507C137.369 217.507 146.578 217.06 150.964 217.06C152.572 217.06 153.303 217.358 153.303 218.252C153.303 218.849 152.572 219.147 151.695 219.147C150.672 219.147 149.502 219.296 148.186 219.445C144.239 219.892 143.362 222.873 143.07 228.09C142.778 232.859 142.778 237.033 142.778 260.285ZM179.864 331.83C172.994 331.83 166.269 330.787 160.276 327.806C158.229 326.762 158.083 326.166 158.083 322.142C158.083 314.689 158.668 308.727 158.814 306.342C158.96 304.703 159.253 303.957 159.983 303.957C160.861 303.957 161.007 304.405 161.007 305.597C161.007 306.938 161.007 309.025 161.445 311.112C163.638 322.142 173.286 326.315 183.08 326.315C197.114 326.315 203.985 316.031 203.985 306.491C203.985 296.207 199.745 290.245 187.174 279.662L180.595 274.147C165.1 261.179 161.591 251.938 161.591 241.803C161.591 225.854 173.286 214.973 191.852 214.973C197.553 214.973 201.792 215.569 205.447 216.464C208.224 217.06 209.394 217.209 210.563 217.209C211.732 217.209 212.025 217.507 212.025 218.252C212.025 218.998 211.44 223.916 211.44 234.052C211.44 236.437 211.148 237.48 210.417 237.48C209.54 237.48 209.394 236.735 209.247 235.542C209.101 233.754 208.224 229.729 207.347 228.09C206.47 226.45 202.523 220.19 189.074 220.19C178.987 220.19 171.093 226.599 171.093 237.48C171.093 245.976 174.894 251.342 188.928 262.521L193.021 265.8C210.271 279.662 214.364 288.903 214.364 300.827C214.364 306.938 212.025 318.266 201.938 325.57C195.652 330.042 187.758 331.83 179.864 331.83Z" fill="white"/>
<path d="M250.066 326.584L298.935 216.051C299.8 214.14 300.233 213.993 300.809 213.993C301.53 213.993 304.413 215.463 305.134 216.198C305.855 216.933 305.71 217.374 305.134 218.697L255.977 330.111C255.4 331.287 255.112 331.434 254.679 331.434C254.247 331.434 250.787 329.67 250.066 328.935C249.49 328.347 249.49 327.759 250.066 326.584Z" fill="white"/>
<path d="M353.721 285.039V258.576C353.721 235.121 353.721 230.911 353.426 226.099C353.131 220.987 351.952 218.582 347.085 217.529C345.906 217.228 343.399 217.078 342.072 217.078C341.482 217.078 340.892 216.777 340.892 216.176C340.892 215.274 341.629 214.973 343.251 214.973C349.887 214.973 358.735 215.424 359.915 215.424C363.159 215.424 371.711 214.973 378.495 214.973C396.927 214.973 403.563 221.288 405.922 223.543C409.167 226.701 413.296 233.467 413.296 243.24C413.296 262.786 397.96 277.22 377.02 277.22C376.283 277.22 374.661 277.22 373.923 277.07C373.186 277.07 372.301 276.769 372.301 276.017C372.301 274.814 373.186 274.664 376.283 274.664C390.587 274.664 401.794 264.741 401.794 248.953C401.794 245.194 401.351 235.121 393.536 227.002C385.72 218.882 376.725 219.484 373.334 219.484C370.827 219.484 368.32 219.785 366.993 220.386C366.108 220.687 365.813 221.739 365.813 223.243V285.039C365.813 299.473 365.813 311.351 366.55 317.666C366.993 322.026 367.877 325.334 372.301 325.935C374.366 326.236 377.61 326.537 378.937 326.537C379.822 326.537 380.117 326.988 380.117 327.439C380.117 328.19 379.379 328.641 377.757 328.641C369.647 328.641 360.357 328.19 359.62 328.19C359.177 328.19 349.887 328.641 345.463 328.641C343.841 328.641 343.104 328.341 343.104 327.439C343.104 326.988 343.399 326.537 344.284 326.537C345.611 326.537 347.38 326.236 348.708 325.935C351.657 325.334 352.394 322.026 352.984 317.666C353.721 311.351 353.721 299.473 353.721 285.039ZM438.32 258.576V268.199C442.891 263.688 462.946 242.187 471.941 232.715C480.788 223.393 481.378 221.889 481.378 220.085C481.378 218.882 480.641 217.68 479.461 217.228C478.429 216.777 478.134 216.477 478.134 215.875C478.134 215.274 479.019 214.973 480.346 214.973C484.622 214.973 484.18 215.424 489.194 215.424C493.765 215.424 502.465 214.973 504.825 214.973C506.889 214.973 507.332 215.424 507.332 216.026C507.332 216.627 507.037 216.928 505.709 217.078C502.908 217.379 500.253 217.98 498.189 218.882C494.502 220.386 491.701 222.19 482.853 230.911C469.876 243.691 453.066 260.681 449.232 265.041C458.522 275.416 485.36 303.232 492.29 309.847C504.382 321.424 509.543 324.732 516.622 326.085C517.949 326.386 519.423 326.537 520.898 326.537C522.078 326.537 522.962 326.837 522.962 327.589C522.962 328.341 522.373 328.641 520.75 328.641H509.838C497.009 328.641 493.618 326.988 486.687 321.424C477.839 314.358 451.296 285.339 438.32 269.552V285.039C438.32 299.473 438.32 311.351 439.057 317.666C439.499 322.026 440.384 325.334 444.808 325.935C446.872 326.236 449.822 326.537 450.706 326.537C452.034 326.537 452.476 327.138 452.476 327.589C452.476 328.341 451.886 328.641 450.264 328.641C442.154 328.641 432.864 328.19 432.126 328.19C431.389 328.19 422.689 328.641 418.265 328.641C416.643 328.641 415.906 328.491 415.906 327.589C415.906 327.138 416.201 326.537 417.528 326.537C418.412 326.537 420.035 326.386 421.362 326.085C424.311 325.484 425.196 322.026 425.785 317.666C426.523 311.351 426.523 299.473 426.523 285.039V258.576C426.523 235.121 426.523 230.911 426.228 226.099C425.933 220.987 424.458 218.431 421.214 217.68C419.592 217.228 416.938 217.078 415.906 217.078C414.726 217.078 414.284 216.777 414.284 216.176C414.284 215.274 415.021 214.973 416.643 214.973C421.509 214.973 431.389 215.424 432.126 215.424C432.864 215.424 442.154 214.973 446.578 214.973C448.2 214.973 448.937 215.274 448.937 216.026C448.937 216.627 448.642 216.928 447.315 217.078C445.693 217.228 445.545 217.228 444.071 217.379C440.089 217.83 438.91 220.837 438.615 226.099C438.32 230.911 438.32 235.121 438.32 258.576ZM528.374 285.039V258.576C528.374 235.121 528.374 230.911 528.079 226.099C527.784 220.987 526.605 218.582 521.738 217.529C520.559 217.228 518.052 217.078 516.725 217.078C516.135 217.078 515.545 216.777 515.545 216.176C515.545 215.274 516.282 214.973 517.905 214.973C524.54 214.973 533.388 215.424 534.568 215.424C537.812 215.424 546.364 214.973 553.148 214.973C571.58 214.973 578.216 221.288 580.575 223.543C583.82 226.701 587.949 233.467 587.949 243.24C587.949 262.786 572.613 277.22 551.673 277.22C550.936 277.22 549.314 277.22 548.576 277.07C547.839 277.07 546.954 276.769 546.954 276.017C546.954 274.814 547.839 274.664 550.936 274.664C565.24 274.664 576.447 264.741 576.447 248.953C576.447 245.194 576.004 235.121 568.189 227.002C560.373 218.882 551.378 219.484 547.987 219.484C545.48 219.484 542.973 219.785 541.646 220.386C540.761 220.687 540.466 221.739 540.466 223.243V285.039C540.466 299.473 540.466 311.351 541.203 317.666C541.646 322.026 542.53 325.334 546.954 325.935C549.019 326.236 552.263 326.537 553.59 326.537C554.475 326.537 554.77 326.988 554.77 327.439C554.77 328.19 554.032 328.641 552.41 328.641C544.3 328.641 535.01 328.19 534.273 328.19C533.83 328.19 524.54 328.641 520.116 328.641C518.494 328.641 517.757 328.341 517.757 327.439C517.757 326.988 518.052 326.537 518.937 326.537C520.264 326.537 522.033 326.236 523.361 325.935C526.31 325.334 527.047 322.026 527.637 317.666C528.374 311.351 528.374 299.473 528.374 285.039Z" fill="white"/>
<path d="M189.646 38.0028H203.864C207.419 38.0028 210.274 37.3889 212.428 36.1609C214.582 34.9329 216.15 33.2687 217.13 31.1681C218.11 29.0676 218.6 26.6925 218.6 24.0426C218.6 21.3927 218.11 19.023 217.13 16.9332C216.15 14.8435 214.572 13.2008 212.396 12.0051C210.22 10.8095 207.333 10.2116 203.735 10.2116H189.646V38.0028ZM189.646 45.1122V69.2841H181.631V3.10227H203.994C209.186 3.10227 213.435 4.03402 216.742 5.89755C220.049 7.76108 222.5 10.2763 224.094 13.4432C225.688 16.6101 226.485 20.1432 226.485 24.0426C226.485 27.942 225.693 31.4859 224.11 34.6744C222.527 37.8628 220.087 40.3996 216.791 42.2846C213.494 44.1697 209.272 45.1122 204.123 45.1122H189.646ZM242.886 3.10227V69.2841H235.259V3.10227H242.886ZM268.334 70.4474C265.189 70.4474 262.334 69.8496 259.771 68.6539C257.207 67.4583 255.171 65.724 253.663 63.4512C252.155 61.1783 251.401 58.4262 251.401 55.1946C251.401 52.3508 251.961 50.0403 253.081 48.263C254.202 46.4856 255.699 45.0907 257.573 44.0781C259.448 43.0656 261.521 42.3062 263.794 41.7999C266.067 41.2936 268.356 40.8897 270.661 40.5881C273.677 40.2003 276.128 39.9041 278.013 39.6994C279.898 39.4947 281.277 39.1447 282.149 38.6491C283.022 38.1536 283.458 37.2919 283.458 36.0639V35.8054C283.458 32.6169 282.591 30.1394 280.856 28.3729C279.122 26.6063 276.499 25.723 272.988 25.723C269.347 25.723 266.492 26.5201 264.424 28.1143C262.356 29.7086 260.902 31.4105 260.061 33.2202L252.823 30.6349C254.115 27.6188 255.844 25.2652 258.009 23.574C260.175 21.8829 262.544 20.698 265.119 20.0194C267.693 19.3407 270.23 19.0014 272.729 19.0014C274.323 19.0014 276.16 19.1899 278.239 19.5669C280.318 19.944 282.332 20.7141 284.282 21.8775C286.232 23.0408 287.853 24.7966 289.145 27.1449C290.438 29.4931 291.084 32.6385 291.084 36.581V69.2841H283.458V62.5625H283.07C282.553 63.6397 281.691 64.7923 280.485 66.0202C279.278 67.2482 277.673 68.2931 275.67 69.1548C273.666 70.0166 271.221 70.4474 268.334 70.4474ZM269.498 63.5966C272.514 63.5966 275.061 63.0042 277.14 61.8192C279.219 60.6343 280.792 59.1048 281.858 57.2305C282.925 55.3562 283.458 53.385 283.458 51.3168V44.3366C283.135 44.7244 282.429 45.0745 281.341 45.3869C280.253 45.6993 279.004 45.9686 277.593 46.1948C276.181 46.421 274.813 46.6149 273.489 46.7765C272.164 46.938 271.092 47.0727 270.273 47.1804C268.291 47.4389 266.444 47.8536 264.731 48.4245C263.018 48.9954 261.64 49.8464 260.595 50.9775C259.55 52.1085 259.027 53.6435 259.027 55.5824C259.027 58.2323 260.013 60.2304 261.984 61.5769C263.956 62.9234 266.46 63.5966 269.498 63.5966ZM323.513 19.6477V26.1108H297.79V19.6477H323.513ZM305.287 7.75568H312.914V55.0653C312.914 57.2197 313.231 58.8301 313.867 59.8965C314.502 60.9629 315.321 61.6738 316.323 62.0293C317.325 62.3848 318.386 62.5625 319.506 62.5625C320.346 62.5625 321.035 62.514 321.574 62.4171C322.113 62.3201 322.544 62.2393 322.867 62.1747L324.418 69.0256C323.901 69.2195 323.179 69.4187 322.253 69.6234C321.326 69.8281 320.152 69.9304 318.73 69.9304C316.576 69.9304 314.47 69.4672 312.413 68.5408C310.355 67.6145 308.653 66.2034 307.307 64.3075C305.96 62.4117 305.287 60.0204 305.287 57.1335V7.75568ZM354.003 19.6477V26.1108H327.246V19.6477H354.003ZM335.26 69.2841V12.7969C335.26 9.95311 335.928 7.58334 337.264 5.6875C338.599 3.79166 340.333 2.3698 342.466 1.42188C344.599 0.473954 346.85 0 349.22 0C351.094 0 352.624 0.150803 353.809 0.452415C354.994 0.754026 355.877 1.03409 356.459 1.29261L354.261 7.88494C353.874 7.75568 353.34 7.59411 352.662 7.40021C351.983 7.20632 351.094 7.10938 349.996 7.10938C347.475 7.10938 345.66 7.7449 344.551 9.01598C343.441 10.2871 342.886 12.1506 342.886 14.6065V69.2841H335.26ZM379.71 70.3182C375.229 70.3182 371.303 69.2518 367.931 67.119C364.56 64.9861 361.931 62.0024 360.046 58.1676C358.161 54.3328 357.219 49.8518 357.219 44.7244C357.219 39.554 358.161 35.0406 360.046 31.1843C361.931 27.328 364.56 24.3335 367.931 22.2006C371.303 20.0678 375.229 19.0014 379.71 19.0014C384.191 19.0014 388.117 20.0678 391.489 22.2006C394.861 24.3335 397.489 27.328 399.374 31.1843C401.259 35.0406 402.202 39.554 402.202 44.7244C402.202 49.8518 401.259 54.3328 399.374 58.1676C397.489 62.0024 394.861 64.9861 391.489 67.119C388.117 69.2518 384.191 70.3182 379.71 70.3182ZM379.71 63.4673C383.114 63.4673 385.915 62.5948 388.112 60.8498C390.31 59.1048 391.936 56.8104 392.992 53.9666C394.047 51.1229 394.575 48.0422 394.575 44.7244C394.575 41.4067 394.047 38.3152 392.992 35.4499C391.936 32.5846 390.31 30.2687 388.112 28.5021C385.915 26.7355 383.114 25.8523 379.71 25.8523C376.306 25.8523 373.506 26.7355 371.308 28.5021C369.111 30.2687 367.484 32.5846 366.428 35.4499C365.373 38.3152 364.845 41.4067 364.845 44.7244C364.845 48.0422 365.373 51.1229 366.428 53.9666C367.484 56.8104 369.111 59.1048 371.308 60.8498C373.506 62.5948 376.306 63.4673 379.71 63.4673ZM410.717 69.2841V19.6477H418.085V27.1449H418.602C419.507 24.6889 421.144 22.6961 423.514 21.1665C425.884 19.6369 428.555 18.8722 431.528 18.8722C432.088 18.8722 432.788 18.8829 433.629 18.9045C434.469 18.926 435.104 18.9583 435.535 19.0014V26.7571C435.277 26.6925 434.69 26.5901 433.774 26.4501C432.858 26.3101 431.894 26.2401 430.882 26.2401C428.469 26.2401 426.32 26.7409 424.435 27.7427C422.55 28.7445 421.063 30.1233 419.975 31.8791C418.887 33.6349 418.343 35.633 418.343 37.8736V69.2841H410.717ZM441.465 69.2841V19.6477H448.833V27.4034H449.48C450.514 24.7535 452.183 22.6908 454.488 21.215C456.794 19.7393 459.562 19.0014 462.793 19.0014C466.068 19.0014 468.799 19.7393 470.985 21.215C473.172 22.6908 474.879 24.7535 476.107 27.4034H476.624C477.896 24.8397 479.802 22.7985 482.344 21.2797C484.886 19.7608 487.935 19.0014 491.49 19.0014C495.927 19.0014 499.558 20.3856 502.38 23.1539C505.202 25.9223 506.613 30.2256 506.613 36.0639V69.2841H498.987V36.0639C498.987 32.4015 497.985 29.784 495.981 28.2113C493.978 26.6386 491.619 25.8523 488.904 25.8523C485.414 25.8523 482.711 26.9025 480.793 29.003C478.876 31.1035 477.917 33.7587 477.917 36.9688V69.2841H470.161V35.2884C470.161 32.4661 469.246 30.1879 467.415 28.4537C465.583 26.7194 463.224 25.8523 460.338 25.8523C458.355 25.8523 456.508 26.3801 454.795 27.4357C453.083 28.4914 451.704 29.9509 450.659 31.8145C449.614 33.678 449.092 35.8269 449.092 38.2614V69.2841H441.465ZM556.667 28.9442L561 25.723C562.875 24.495 564.377 23.1809 565.508 21.7805C566.64 20.3802 567.205 18.549 567.205 16.2869C567.205 14.6065 566.467 12.98 564.991 11.4073C563.516 9.83463 561.582 9.0483 559.191 9.0483C557.51 9.0483 556.029 9.47378 554.747 10.3248C553.466 11.1757 552.464 12.2529 551.742 13.5563C551.02 14.8597 550.66 16.2007 550.66 17.5795C550.66 19.1307 551.085 20.698 551.936 22.2814C552.787 23.8649 553.875 25.4806 555.2 27.1287C555.682 27.7289 556.171 28.334 556.667 28.9442ZM561.324 34.6339L575.716 52.2096C576.093 51.4806 576.439 50.7198 576.754 49.9272C577.885 47.0834 578.451 43.8843 578.451 40.3295H585.819C585.819 44.7245 585.312 48.3114 584.3 51.0906C583.287 53.8697 582.146 56.0456 580.874 57.6183C580.751 57.7712 580.63 57.9203 580.511 58.0657L589.697 69.2841H580.519L575.85 63.6522C573.807 65.7575 571.292 67.3493 568.304 68.4277C565.051 69.6019 561.841 70.1889 558.674 70.1889C554.322 70.1889 550.573 69.3918 547.428 67.7976C544.283 66.2034 541.859 64.0167 540.157 61.2376C538.455 58.4584 537.604 55.2808 537.604 51.7045C537.604 48.947 538.191 46.4964 539.365 44.3528C540.539 42.2092 542.166 40.2165 544.245 38.3745C546.136 36.6991 548.29 35.0193 550.706 33.335C550.158 32.6743 549.625 32.0328 549.108 31.4105C547.213 29.1269 545.705 26.8756 544.584 24.6566C543.464 22.4376 542.904 20.0355 542.904 17.4503C542.904 14.4773 543.566 11.8651 544.891 9.61381C546.216 7.3625 548.08 5.60672 550.482 4.34641C552.884 3.08611 555.701 2.45597 558.932 2.45597C562.25 2.45597 565.104 3.09688 567.496 4.37873C569.887 5.66058 571.729 7.35173 573.022 9.45224C574.314 11.5527 574.961 13.831 574.961 16.2869C574.961 19.4538 574.174 22.2006 572.602 24.5273C571.029 26.8541 568.885 29.0192 566.171 31.0227L561.324 34.6339ZM571.267 58.1244L555.442 39.0369C555.439 39.0328 555.435 39.0286 555.432 39.0244L552.986 40.8466C550.013 43.044 547.999 45.1768 546.943 47.245C545.888 49.3132 545.36 50.7997 545.36 51.7045C545.36 53.7727 545.898 55.7009 546.976 57.489C548.053 59.2771 549.572 60.7205 551.532 61.8192C553.493 62.918 555.787 63.4673 558.415 63.4673C560.914 63.4673 563.349 62.9341 565.719 61.8677C567.727 60.9641 569.576 59.7164 571.267 58.1244ZM118.632 169.284L103.509 119.648H111.523L122.252 157.651H122.769L133.368 119.648H141.512L151.982 157.521H152.499L163.228 119.648H171.242L156.118 169.284H148.621L137.763 131.152H136.987L126.13 169.284H118.632ZM196.69 170.318C192.209 170.318 188.283 169.252 184.911 167.119C181.54 164.986 178.912 162.002 177.027 158.168C175.141 154.333 174.199 149.852 174.199 144.724C174.199 139.554 175.141 135.041 177.027 131.184C178.912 127.328 181.54 124.333 184.911 122.201C188.283 120.068 192.209 119.001 196.69 119.001C201.171 119.001 205.098 120.068 208.469 122.201C211.841 124.333 214.469 127.328 216.354 131.184C218.239 135.041 219.182 139.554 219.182 144.724C219.182 149.852 218.239 154.333 216.354 158.168C214.469 162.002 211.841 164.986 208.469 167.119C205.098 169.252 201.171 170.318 196.69 170.318ZM196.69 163.467C200.094 163.467 202.895 162.595 205.092 160.85C207.29 159.105 208.916 156.81 209.972 153.967C211.028 151.123 211.555 148.042 211.555 144.724C211.555 141.407 211.028 138.315 209.972 135.45C208.916 132.585 207.29 130.269 205.092 128.502C202.895 126.736 200.094 125.852 196.69 125.852C193.287 125.852 190.486 126.736 188.288 128.502C186.091 130.269 184.464 132.585 183.409 135.45C182.353 138.315 181.825 141.407 181.825 144.724C181.825 148.042 182.353 151.123 183.409 153.967C184.464 156.81 186.091 159.105 188.288 160.85C190.486 162.595 193.287 163.467 196.69 163.467ZM227.697 169.284V119.648H235.065V127.145H235.582C236.487 124.689 238.124 122.696 240.494 121.167C242.864 119.637 245.535 118.872 248.508 118.872C249.069 118.872 249.769 118.883 250.609 118.904C251.449 118.926 252.085 118.958 252.516 119.001V126.757C252.257 126.692 251.67 126.59 250.754 126.45C249.839 126.31 248.875 126.24 247.862 126.24C245.449 126.24 243.3 126.741 241.415 127.743C239.53 128.745 238.044 130.123 236.956 131.879C235.868 133.635 235.324 135.633 235.324 137.874V169.284H227.697ZM265.555 151.188L265.426 141.751H266.977L288.693 119.648H298.129L274.991 143.044H274.345L265.555 151.188ZM258.446 169.284V103.102H266.072V169.284H258.446ZM289.986 169.284L270.596 144.724L276.025 139.425L299.68 169.284H289.986ZM326.938 119.648V126.111H300.181V119.648H326.938ZM308.196 169.284V112.797C308.196 109.953 308.863 107.583 310.199 105.688C311.535 103.792 313.269 102.37 315.402 101.422C317.535 100.474 319.786 100 322.156 100C324.03 100 325.56 100.151 326.745 100.452C327.929 100.754 328.813 101.034 329.394 101.293L327.197 107.885C326.809 107.756 326.276 107.594 325.597 107.4C324.919 107.206 324.03 107.109 322.931 107.109C320.411 107.109 318.596 107.745 317.486 109.016C316.377 110.287 315.822 112.151 315.822 114.607V169.284H308.196ZM342.175 103.102V169.284H334.549V103.102H342.175ZM373.182 170.318C368.701 170.318 364.775 169.252 361.403 167.119C358.032 164.986 355.404 162.002 353.518 158.168C351.633 154.333 350.691 149.852 350.691 144.724C350.691 139.554 351.633 135.041 353.518 131.184C355.404 127.328 358.032 124.333 361.403 122.201C364.775 120.068 368.701 119.001 373.182 119.001C377.663 119.001 381.59 120.068 384.961 122.201C388.333 124.333 390.961 127.328 392.846 131.184C394.731 135.041 395.674 139.554 395.674 144.724C395.674 149.852 394.731 154.333 392.846 158.168C390.961 162.002 388.333 164.986 384.961 167.119C381.59 169.252 377.663 170.318 373.182 170.318ZM373.182 163.467C376.586 163.467 379.387 162.595 381.584 160.85C383.782 159.105 385.408 156.81 386.464 153.967C387.52 151.123 388.047 148.042 388.047 144.724C388.047 141.407 387.52 138.315 386.464 135.45C385.408 132.585 383.782 130.269 381.584 128.502C379.387 126.736 376.586 125.852 373.182 125.852C369.778 125.852 366.978 126.736 364.78 128.502C362.583 130.269 360.956 132.585 359.901 135.45C358.845 138.315 358.317 141.407 358.317 144.724C358.317 148.042 358.845 151.123 359.901 153.967C360.956 156.81 362.583 159.105 364.78 160.85C366.978 162.595 369.778 163.467 373.182 163.467ZM413.755 169.284L398.631 119.648H406.645L417.374 157.651H417.891L428.49 119.648H436.634L447.104 157.521H447.621L458.35 119.648H466.364L451.24 169.284H443.743L432.885 131.152H432.11L421.252 169.284H413.755ZM496.838 169.284V103.102H504.464V127.533H505.111C505.671 126.671 506.452 125.567 507.454 124.22C508.455 122.874 509.899 121.667 511.784 120.601C513.669 119.535 516.227 119.001 519.459 119.001C523.638 119.001 527.322 120.046 530.511 122.136C533.699 124.226 536.187 127.188 537.975 131.023C539.764 134.857 540.658 139.382 540.658 144.595C540.658 149.852 539.764 154.403 537.975 158.248C536.187 162.094 533.71 165.067 530.543 167.167C527.376 169.268 523.724 170.318 519.588 170.318C516.4 170.318 513.847 169.785 511.929 168.719C510.012 167.652 508.536 166.435 507.502 165.067C506.468 163.699 505.671 162.562 505.111 161.658H504.206V169.284H496.838ZM504.335 144.466C504.335 148.215 504.885 151.516 505.983 154.371C507.082 157.225 508.687 159.455 510.798 161.06C512.91 162.665 515.495 163.467 518.554 163.467C521.742 163.467 524.408 162.622 526.552 160.931C528.696 159.239 530.311 156.956 531.399 154.08C532.487 151.204 533.031 147.999 533.031 144.466C533.031 140.976 532.498 137.825 531.432 135.014C530.365 132.202 528.76 129.972 526.617 128.324C524.473 126.676 521.785 125.852 518.554 125.852C515.452 125.852 512.845 126.633 510.734 128.195C508.622 129.757 507.028 131.933 505.951 134.723C504.874 137.513 504.335 140.76 504.335 144.466ZM552.275 187.768C550.983 187.768 549.83 187.666 548.818 187.461C547.805 187.257 547.105 187.058 546.717 186.864L548.656 180.142C551.435 180.853 553.751 180.837 555.604 180.094C557.457 179.35 559.062 177.126 560.419 173.42L561.841 169.543L543.486 119.648H551.758L565.46 159.202H565.977L579.679 119.648L588.016 119.777L566.882 176.523C565.934 179.043 564.76 181.138 563.359 182.808C561.959 184.478 560.338 185.722 558.496 186.54C556.654 187.359 554.581 187.768 552.275 187.768Z" fill="white"/>
</svg>
