<svg width="766" height="625" viewBox="0 0 766 625" fill="none" xmlns="http://www.w3.org/2000/svg">
<g clip-path="url(#clip0)">
<path d="M205.255 475.975C164.822 475.975 148 444.543 148 417.982C148 394.076 165.413 360.284 206.14 360.284C239.342 360.284 264.133 381.238 264.133 415.621C264.133 448.675 240.818 475.975 205.255 475.975ZM209.239 470.367C222.52 470.367 249.967 462.694 249.967 419.753C249.967 384.337 228.423 365.301 205.107 365.301C180.464 365.301 162.019 381.533 162.019 413.85C162.019 448.233 182.678 470.367 209.239 470.367ZM282.512 431.115V405.144C282.512 382.124 282.512 377.992 282.217 373.27C281.922 368.253 280.741 365.892 275.871 364.859C274.691 364.563 272.182 364.416 270.854 364.416C270.264 364.416 269.674 364.121 269.674 363.53C269.674 362.645 270.412 362.35 272.035 362.35C278.675 362.35 287.529 362.793 288.71 362.793C291.956 362.793 300.515 362.35 307.303 362.35C325.748 362.35 332.389 368.548 334.75 370.761C337.996 373.86 342.128 380.5 342.128 390.092C342.128 409.275 326.781 423.442 305.827 423.442C305.089 423.442 303.466 423.442 302.728 423.294C301.99 423.294 301.105 422.999 301.105 422.261C301.105 421.081 301.99 420.933 305.089 420.933C319.403 420.933 330.618 411.194 330.618 395.7C330.618 392.01 330.175 382.124 322.354 374.155C314.533 366.187 305.532 366.777 302.138 366.777C299.629 366.777 297.121 367.072 295.793 367.662C294.907 367.957 294.612 368.99 294.612 370.466V431.115C294.612 445.281 294.612 456.939 295.35 463.137C295.793 467.416 296.678 470.662 301.105 471.253C303.171 471.548 306.417 471.843 307.745 471.843C308.631 471.843 308.926 472.286 308.926 472.728C308.926 473.466 308.188 473.909 306.565 473.909C298.449 473.909 289.152 473.466 288.414 473.466C287.972 473.466 278.675 473.909 274.248 473.909C272.625 473.909 271.887 473.614 271.887 472.728C271.887 472.286 272.182 471.843 273.068 471.843C274.396 471.843 276.167 471.548 277.495 471.253C280.446 470.662 281.184 467.416 281.774 463.137C282.512 456.939 282.512 445.281 282.512 431.115ZM374.268 476.83C367.398 476.83 360.673 475.787 354.68 472.806C352.633 471.762 352.487 471.166 352.487 467.142C352.487 459.689 353.072 453.727 353.218 451.342C353.364 449.702 353.657 448.957 354.388 448.957C355.265 448.957 355.411 449.404 355.411 450.597C355.411 451.938 355.411 454.025 355.849 456.112C358.042 467.142 367.69 471.315 377.485 471.315C391.518 471.315 398.389 461.03 398.389 451.491C398.389 441.206 394.149 435.244 381.578 424.662L374.999 419.147C359.504 406.179 355.996 396.938 355.996 386.802C355.996 370.854 367.69 359.973 386.256 359.973C391.957 359.973 396.196 360.569 399.851 361.463C402.628 362.06 403.798 362.209 404.967 362.209C406.137 362.209 406.429 362.507 406.429 363.252C406.429 363.997 405.844 368.916 405.844 379.052C405.844 381.436 405.552 382.48 404.821 382.48C403.944 382.48 403.798 381.735 403.651 380.542C403.505 378.754 402.628 374.729 401.751 373.09C400.874 371.45 396.927 365.19 383.478 365.19C373.391 365.19 365.497 371.599 365.497 382.48C365.497 390.976 369.298 396.342 383.332 407.521L387.425 410.8C404.675 424.662 408.768 433.903 408.768 445.827C408.768 451.938 406.429 463.266 396.342 470.57C390.056 475.041 382.162 476.83 374.268 476.83Z" fill="#272522"/>
<path d="M431.484 471.202L480.508 362.453C481.376 360.573 481.81 360.429 482.388 360.429C483.111 360.429 486.004 361.875 486.727 362.598C487.45 363.321 487.305 363.755 486.727 365.056L437.414 474.673C436.835 475.83 436.546 475.975 436.112 475.975C435.678 475.975 432.207 474.239 431.484 473.516C430.906 472.938 430.906 472.359 431.484 471.202Z" fill="#272522"/>
<path d="M529.009 430.328V404.292C529.009 381.215 529.009 377.073 528.713 372.34C528.417 367.31 527.234 364.943 522.352 363.908C521.168 363.612 518.654 363.464 517.322 363.464C516.731 363.464 516.139 363.168 516.139 362.576C516.139 361.689 516.879 361.393 518.506 361.393C525.163 361.393 534.038 361.837 535.222 361.837C538.476 361.837 547.056 361.393 553.861 361.393C572.352 361.393 579.009 367.606 581.376 369.825C584.63 372.931 588.772 379.588 588.772 389.203C588.772 408.434 573.387 422.635 552.382 422.635C551.642 422.635 550.015 422.635 549.275 422.487C548.535 422.487 547.648 422.192 547.648 421.452C547.648 420.269 548.535 420.121 551.642 420.121C565.991 420.121 577.234 410.357 577.234 394.825C577.234 391.127 576.79 381.215 568.95 373.227C561.109 365.239 552.086 365.831 548.683 365.831C546.168 365.831 543.654 366.127 542.322 366.718C541.435 367.014 541.139 368.05 541.139 369.529V430.328C541.139 444.529 541.139 456.215 541.879 462.428C542.322 466.718 543.21 469.973 547.648 470.564C549.719 470.86 552.973 471.156 554.305 471.156C555.192 471.156 555.488 471.6 555.488 472.044C555.488 472.783 554.748 473.227 553.121 473.227C544.985 473.227 535.666 472.783 534.926 472.783C534.482 472.783 525.163 473.227 520.725 473.227C519.097 473.227 518.358 472.931 518.358 472.044C518.358 471.6 518.654 471.156 519.541 471.156C520.873 471.156 522.648 470.86 523.979 470.564C526.938 469.973 527.677 466.718 528.269 462.428C529.009 456.215 529.009 444.529 529.009 430.328ZM613.876 404.292V413.76C618.461 409.322 638.58 388.168 647.603 378.848C656.479 369.677 657.071 368.198 657.071 366.422C657.071 365.239 656.331 364.056 655.148 363.612C654.112 363.168 653.816 362.872 653.816 362.28C653.816 361.689 654.704 361.393 656.035 361.393C660.325 361.393 659.881 361.837 664.911 361.837C669.497 361.837 678.225 361.393 680.591 361.393C682.662 361.393 683.106 361.837 683.106 362.428C683.106 363.02 682.81 363.316 681.479 363.464C678.668 363.76 676.006 364.351 673.935 365.239C670.236 366.718 667.426 368.493 658.55 377.073C645.532 389.647 628.668 406.363 624.822 410.653C634.142 420.86 661.065 448.227 668.018 454.736C680.148 466.126 685.325 469.381 692.426 470.712C693.757 471.008 695.236 471.156 696.716 471.156C697.899 471.156 698.787 471.452 698.787 472.192C698.787 472.931 698.195 473.227 696.568 473.227H685.621C672.751 473.227 669.349 471.6 662.396 466.126C653.52 459.174 626.893 430.624 613.876 415.091V430.328C613.876 444.529 613.876 456.215 614.615 462.428C615.059 466.718 615.947 469.973 620.384 470.564C622.455 470.86 625.414 471.156 626.302 471.156C627.633 471.156 628.077 471.748 628.077 472.192C628.077 472.931 627.485 473.227 625.858 473.227C617.722 473.227 608.402 472.783 607.663 472.783C606.923 472.783 598.195 473.227 593.757 473.227C592.13 473.227 591.39 473.079 591.39 472.192C591.39 471.748 591.686 471.156 593.018 471.156C593.905 471.156 595.532 471.008 596.864 470.712C599.822 470.121 600.71 466.718 601.302 462.428C602.041 456.215 602.041 444.529 602.041 430.328V404.292C602.041 381.215 602.041 377.073 601.745 372.34C601.45 367.31 599.97 364.795 596.716 364.056C595.089 363.612 592.426 363.464 591.39 363.464C590.207 363.464 589.763 363.168 589.763 362.576C589.763 361.689 590.503 361.393 592.13 361.393C597.012 361.393 606.923 361.837 607.663 361.837C608.402 361.837 617.722 361.393 622.16 361.393C623.787 361.393 624.526 361.689 624.526 362.428C624.526 363.02 624.231 363.316 622.899 363.464C621.272 363.612 621.124 363.612 619.645 363.76C615.651 364.203 614.467 367.162 614.171 372.34C613.876 377.073 613.876 381.215 613.876 404.292ZM704.216 430.328V404.292C704.216 381.215 704.216 377.073 703.92 372.34C703.624 367.31 702.441 364.943 697.559 363.908C696.376 363.612 693.861 363.464 692.529 363.464C691.938 363.464 691.346 363.168 691.346 362.576C691.346 361.689 692.086 361.393 693.713 361.393C700.37 361.393 709.245 361.837 710.429 361.837C713.683 361.837 722.263 361.393 729.068 361.393C747.559 361.393 754.216 367.606 756.583 369.825C759.837 372.931 763.979 379.588 763.979 389.203C763.979 408.434 748.594 422.635 727.588 422.635C726.849 422.635 725.222 422.635 724.482 422.487C723.742 422.487 722.855 422.192 722.855 421.452C722.855 420.269 723.742 420.121 726.849 420.121C741.198 420.121 752.441 410.357 752.441 394.825C752.441 391.127 751.997 381.215 744.157 373.227C736.316 365.239 727.293 365.831 723.89 365.831C721.376 365.831 718.861 366.127 717.529 366.718C716.642 367.014 716.346 368.05 716.346 369.529V430.328C716.346 444.529 716.346 456.215 717.086 462.428C717.529 466.718 718.417 469.973 722.855 470.564C724.926 470.86 728.18 471.156 729.512 471.156C730.399 471.156 730.695 471.6 730.695 472.044C730.695 472.783 729.955 473.227 728.328 473.227C720.192 473.227 710.873 472.783 710.133 472.783C709.689 472.783 700.37 473.227 695.932 473.227C694.305 473.227 693.565 472.931 693.565 472.044C693.565 471.6 693.861 471.156 694.748 471.156C696.08 471.156 697.855 470.86 699.186 470.564C702.145 469.973 702.884 466.718 703.476 462.428C704.216 456.215 704.216 444.529 704.216 430.328Z" fill="#272522"/>
<path d="M365.645 185.003H379.864C383.419 185.003 386.273 184.389 388.428 183.161C390.582 181.933 392.149 180.269 393.13 178.168C394.11 176.068 394.6 173.692 394.6 171.043C394.6 168.393 394.11 166.023 393.13 163.933C392.149 161.844 390.571 160.201 388.395 159.005C386.22 157.809 383.333 157.212 379.735 157.212H365.645V185.003ZM365.645 192.112V216.284H357.631V150.102H379.993C385.185 150.102 389.435 151.034 392.742 152.898C396.049 154.761 398.499 157.276 400.094 160.443C401.688 163.61 402.485 167.143 402.485 171.043C402.485 174.942 401.693 178.486 400.11 181.674C398.526 184.863 396.086 187.4 392.79 189.285C389.494 191.17 385.272 192.112 380.123 192.112H365.645ZM418.885 150.102V216.284H411.259V150.102H418.885ZM444.334 217.447C441.189 217.447 438.334 216.85 435.77 215.654C433.207 214.458 431.171 212.724 429.663 210.451C428.155 208.178 427.401 205.426 427.401 202.195C427.401 199.351 427.961 197.04 429.081 195.263C430.201 193.486 431.699 192.091 433.573 191.078C435.447 190.066 437.521 189.306 439.794 188.8C442.067 188.294 444.355 187.89 446.661 187.588C449.677 187.2 452.127 186.904 454.012 186.699C455.897 186.495 457.276 186.145 458.149 185.649C459.021 185.154 459.458 184.292 459.458 183.064V182.805C459.458 179.617 458.59 177.139 456.856 175.373C455.122 173.606 452.499 172.723 448.987 172.723C445.347 172.723 442.492 173.52 440.424 175.114C438.356 176.709 436.901 178.411 436.061 180.22L428.823 177.635C430.115 174.619 431.844 172.265 434.009 170.574C436.174 168.883 438.544 167.698 441.119 167.019C443.693 166.341 446.23 166.001 448.729 166.001C450.323 166.001 452.16 166.19 454.239 166.567C456.318 166.944 458.332 167.714 460.282 168.877C462.231 170.041 463.852 171.797 465.145 174.145C466.438 176.493 467.084 179.638 467.084 183.581V216.284H459.458V209.563H459.07C458.553 210.64 457.691 211.792 456.485 213.02C455.278 214.248 453.673 215.293 451.67 216.155C449.666 217.017 447.221 217.447 444.334 217.447ZM445.497 210.597C448.513 210.597 451.061 210.004 453.14 208.819C455.219 207.634 456.792 206.105 457.858 204.23C458.924 202.356 459.458 200.385 459.458 198.317V191.337C459.134 191.724 458.429 192.075 457.341 192.387C456.253 192.699 455.003 192.969 453.592 193.195C452.181 193.421 450.813 193.615 449.488 193.776C448.163 193.938 447.092 194.073 446.273 194.18C444.291 194.439 442.444 194.854 440.731 195.425C439.018 195.995 437.639 196.846 436.594 197.977C435.55 199.108 435.027 200.643 435.027 202.582C435.027 205.232 436.013 207.23 437.984 208.577C439.955 209.923 442.46 210.597 445.497 210.597ZM499.513 166.648V173.111H473.79V166.648H499.513ZM481.287 154.756H488.913V202.065C488.913 204.22 489.231 205.83 489.867 206.896C490.502 207.963 491.321 208.674 492.323 209.029C493.324 209.385 494.385 209.563 495.506 209.563C496.346 209.563 497.035 209.514 497.574 209.417C498.112 209.32 498.543 209.239 498.866 209.175L500.418 216.026C499.901 216.219 499.179 216.419 498.252 216.623C497.326 216.828 496.152 216.93 494.73 216.93C492.576 216.93 490.47 216.467 488.412 215.541C486.355 214.614 484.653 213.203 483.307 211.308C481.96 209.412 481.287 207.02 481.287 204.134V154.756ZM530.003 166.648V173.111H503.246V166.648H530.003ZM511.26 216.284V159.797C511.26 156.953 511.928 154.583 513.263 152.688C514.599 150.792 516.333 149.37 518.466 148.422C520.599 147.474 522.85 147 525.22 147C527.094 147 528.624 147.151 529.809 147.452C530.994 147.754 531.877 148.034 532.459 148.293L530.261 154.885C529.873 154.756 529.34 154.594 528.662 154.4C527.983 154.206 527.094 154.109 525.996 154.109C523.475 154.109 521.66 154.745 520.55 156.016C519.441 157.287 518.886 159.151 518.886 161.607V216.284H511.26ZM555.71 217.318C551.229 217.318 547.302 216.252 543.931 214.119C540.559 211.986 537.931 209.002 536.046 205.168C534.161 201.333 533.218 196.852 533.218 191.724C533.218 186.554 534.161 182.041 536.046 178.184C537.931 174.328 540.559 171.333 543.931 169.201C547.302 167.068 551.229 166.001 555.71 166.001C560.191 166.001 564.117 167.068 567.489 169.201C570.86 171.333 573.489 174.328 575.374 178.184C577.259 182.041 578.201 186.554 578.201 191.724C578.201 196.852 577.259 201.333 575.374 205.168C573.489 209.002 570.86 211.986 567.489 214.119C564.117 216.252 560.191 217.318 555.71 217.318ZM555.71 210.467C559.114 210.467 561.914 209.595 564.112 207.85C566.309 206.105 567.936 203.81 568.991 200.967C570.047 198.123 570.575 195.042 570.575 191.724C570.575 188.407 570.047 185.315 568.991 182.45C567.936 179.585 566.309 177.269 564.112 175.502C561.914 173.736 559.114 172.852 555.71 172.852C552.306 172.852 549.505 173.736 547.308 175.502C545.11 177.269 543.484 179.585 542.428 182.45C541.373 185.315 540.845 188.407 540.845 191.724C540.845 195.042 541.373 198.123 542.428 200.967C543.484 203.81 545.11 206.105 547.308 207.85C549.505 209.595 552.306 210.467 555.71 210.467ZM586.717 216.284V166.648H594.085V174.145H594.602C595.507 171.689 597.144 169.696 599.514 168.167C601.883 166.637 604.555 165.872 607.528 165.872C608.088 165.872 608.788 165.883 609.628 165.904C610.469 165.926 611.104 165.958 611.535 166.001V173.757C611.276 173.692 610.689 173.59 609.774 173.45C608.858 173.31 607.894 173.24 606.882 173.24C604.469 173.24 602.32 173.741 600.435 174.743C598.55 175.745 597.063 177.123 595.975 178.879C594.887 180.635 594.343 182.633 594.343 184.874V216.284H586.717ZM617.465 216.284V166.648H624.833V174.403H625.479C626.513 171.754 628.183 169.691 630.488 168.215C632.793 166.739 635.562 166.001 638.793 166.001C642.068 166.001 644.798 166.739 646.985 168.215C649.172 169.691 650.879 171.754 652.107 174.403H652.624C653.895 171.84 655.802 169.798 658.344 168.28C660.886 166.761 663.935 166.001 667.489 166.001C671.927 166.001 675.557 167.386 678.38 170.154C681.202 172.922 682.613 177.226 682.613 183.064V216.284H674.986V183.064C674.986 179.402 673.985 176.784 671.981 175.211C669.978 173.639 667.619 172.852 664.904 172.852C661.414 172.852 658.71 173.903 656.793 176.003C654.876 178.104 653.917 180.759 653.917 183.969V216.284H646.161V182.288C646.161 179.466 645.246 177.188 643.414 175.454C641.583 173.719 639.224 172.852 636.337 172.852C634.355 172.852 632.508 173.38 630.795 174.436C629.083 175.491 627.704 176.951 626.659 178.814C625.614 180.678 625.092 182.827 625.092 185.261V216.284H617.465ZM732.666 175.944L737 172.723C738.875 171.495 740.377 170.181 741.508 168.781C742.639 167.38 743.205 165.549 743.205 163.287C743.205 161.607 742.467 159.98 740.991 158.407C739.515 156.835 737.582 156.048 735.191 156.048C733.51 156.048 732.029 156.474 730.747 157.325C729.465 158.176 728.464 159.253 727.742 160.556C727.02 161.86 726.659 163.201 726.659 164.58C726.659 166.131 727.085 167.698 727.936 169.281C728.787 170.865 729.875 172.481 731.2 174.129C731.682 174.729 732.171 175.334 732.666 175.944ZM737.324 181.634L751.715 199.21C752.093 198.481 752.439 197.72 752.754 196.927C753.885 194.083 754.451 190.884 754.451 187.33H761.818C761.818 191.724 761.312 195.311 760.3 198.091C759.287 200.87 758.145 203.046 756.874 204.618C756.751 204.771 756.629 204.92 756.51 205.066L765.696 216.284H756.519L751.85 210.652C749.807 212.758 747.291 214.349 744.304 215.428C741.05 216.602 737.841 217.189 734.674 217.189C730.322 217.189 726.573 216.392 723.428 214.798C720.282 213.203 717.859 211.017 716.157 208.238C714.455 205.458 713.604 202.281 713.604 198.705C713.604 195.947 714.191 193.496 715.365 191.353C716.539 189.209 718.166 187.216 720.245 185.374C722.136 183.699 724.289 182.019 726.706 180.335C726.158 179.674 725.625 179.033 725.108 178.411C723.212 176.127 721.704 173.876 720.584 171.657C719.464 169.438 718.904 167.036 718.904 164.45C718.904 161.477 719.566 158.865 720.891 156.614C722.216 154.363 724.079 152.607 726.482 151.346C728.884 150.086 731.701 149.456 734.932 149.456C738.25 149.456 741.104 150.097 743.496 151.379C745.887 152.661 747.729 154.352 749.022 156.452C750.314 158.553 750.961 160.831 750.961 163.287C750.961 166.454 750.174 169.201 748.601 171.527C747.029 173.854 744.885 176.019 742.171 178.023L737.324 181.634ZM747.267 205.124L731.442 186.037C731.439 186.033 731.435 186.029 731.432 186.024L728.986 187.847C726.013 190.044 723.999 192.177 722.943 194.245C721.887 196.313 721.36 197.8 721.36 198.705C721.36 200.773 721.898 202.701 722.975 204.489C724.053 206.277 725.571 207.721 727.532 208.819C729.492 209.918 731.787 210.467 734.415 210.467C736.914 210.467 739.349 209.934 741.718 208.868C743.726 207.964 745.576 206.716 747.267 205.124ZM294.632 316.284L279.509 266.648H287.523L298.251 304.651H298.768L309.368 266.648H317.511L327.982 304.521H328.499L339.227 266.648H347.242L332.118 316.284H324.621L313.763 278.152H312.987L302.129 316.284H294.632ZM372.69 317.318C368.209 317.318 364.283 316.252 360.911 314.119C357.54 311.986 354.911 309.002 353.026 305.168C351.141 301.333 350.199 296.852 350.199 291.724C350.199 286.554 351.141 282.041 353.026 278.184C354.911 274.328 357.54 271.333 360.911 269.201C364.283 267.068 368.209 266.001 372.69 266.001C377.171 266.001 381.098 267.068 384.469 269.201C387.841 271.333 390.469 274.328 392.354 278.184C394.239 282.041 395.182 286.554 395.182 291.724C395.182 296.852 394.239 301.333 392.354 305.168C390.469 309.002 387.841 311.986 384.469 314.119C381.098 316.252 377.171 317.318 372.69 317.318ZM372.69 310.467C376.094 310.467 378.895 309.595 381.092 307.85C383.29 306.105 384.916 303.81 385.972 300.967C387.027 298.123 387.555 295.042 387.555 291.724C387.555 288.407 387.027 285.315 385.972 282.45C384.916 279.585 383.29 277.269 381.092 275.502C378.895 273.736 376.094 272.852 372.69 272.852C369.286 272.852 366.486 273.736 364.288 275.502C362.091 277.269 360.464 279.585 359.409 282.45C358.353 285.315 357.825 288.407 357.825 291.724C357.825 295.042 358.353 298.123 359.409 300.967C360.464 303.81 362.091 306.105 364.288 307.85C366.486 309.595 369.286 310.467 372.69 310.467ZM403.697 316.284V266.648H411.065V274.145H411.582C412.487 271.689 414.124 269.696 416.494 268.167C418.864 266.637 421.535 265.872 424.508 265.872C425.068 265.872 425.768 265.883 426.609 265.904C427.449 265.926 428.084 265.958 428.515 266.001V273.757C428.257 273.692 427.67 273.59 426.754 273.45C425.838 273.31 424.874 273.24 423.862 273.24C421.449 273.24 419.3 273.741 417.415 274.743C415.53 275.745 414.043 277.123 412.955 278.879C411.867 280.635 411.324 282.633 411.324 284.874V316.284H403.697ZM441.555 298.188L441.426 288.751H442.977L464.693 266.648H474.129L450.991 290.044H450.345L441.555 298.188ZM434.445 316.284V250.102H442.072V316.284H434.445ZM465.985 316.284L446.596 291.724L452.025 286.425L475.68 316.284H465.985ZM502.938 266.648V273.111H476.181V266.648H502.938ZM484.195 316.284V259.797C484.195 256.953 484.863 254.583 486.199 252.688C487.535 250.792 489.269 249.37 491.402 248.422C493.534 247.474 495.786 247 498.156 247C500.03 247 501.559 247.151 502.744 247.452C503.929 247.754 504.812 248.034 505.394 248.293L503.197 254.885C502.809 254.756 502.276 254.594 501.597 254.4C500.918 254.206 500.03 254.109 498.931 254.109C496.41 254.109 494.595 254.745 493.486 256.016C492.376 257.287 491.822 259.151 491.822 261.607V316.284H484.195ZM518.175 250.102V316.284H510.549V250.102H518.175ZM549.182 317.318C544.701 317.318 540.775 316.252 537.403 314.119C534.032 311.986 531.403 309.002 529.518 305.168C527.633 301.333 526.691 296.852 526.691 291.724C526.691 286.554 527.633 282.041 529.518 278.184C531.403 274.328 534.032 271.333 537.403 269.201C540.775 267.068 544.701 266.001 549.182 266.001C553.663 266.001 557.589 267.068 560.961 269.201C564.333 271.333 566.961 274.328 568.846 278.184C570.731 282.041 571.674 286.554 571.674 291.724C571.674 296.852 570.731 301.333 568.846 305.168C566.961 309.002 564.333 311.986 560.961 314.119C557.589 316.252 553.663 317.318 549.182 317.318ZM549.182 310.467C552.586 310.467 555.387 309.595 557.584 307.85C559.782 306.105 561.408 303.81 562.464 300.967C563.519 298.123 564.047 295.042 564.047 291.724C564.047 288.407 563.519 285.315 562.464 282.45C561.408 279.585 559.782 277.269 557.584 275.502C555.387 273.736 552.586 272.852 549.182 272.852C545.778 272.852 542.978 273.736 540.78 275.502C538.583 277.269 536.956 279.585 535.901 282.45C534.845 285.315 534.317 288.407 534.317 291.724C534.317 295.042 534.845 298.123 535.901 300.967C536.956 303.81 538.583 306.105 540.78 307.85C542.978 309.595 545.778 310.467 549.182 310.467ZM589.754 316.284L574.631 266.648H582.645L593.374 304.651H593.891L604.49 266.648H612.634L623.104 304.521H623.621L634.35 266.648H642.364L627.24 316.284H619.743L608.885 278.152H608.109L597.252 316.284H589.754ZM672.838 316.284V250.102H680.464V274.533H681.111C681.671 273.671 682.452 272.567 683.453 271.22C684.455 269.874 685.899 268.667 687.784 267.601C689.669 266.535 692.227 266.001 695.459 266.001C699.638 266.001 703.322 267.046 706.51 269.136C709.699 271.226 712.187 274.188 713.975 278.023C715.763 281.857 716.657 286.382 716.657 291.595C716.657 296.852 715.763 301.403 713.975 305.248C712.187 309.094 709.71 312.067 706.543 314.167C703.376 316.268 699.724 317.318 695.588 317.318C692.399 317.318 689.846 316.785 687.929 315.719C686.012 314.652 684.536 313.435 683.502 312.067C682.468 310.699 681.671 309.562 681.111 308.658H680.206V316.284H672.838ZM680.335 291.466C680.335 295.215 680.884 298.516 681.983 301.371C683.082 304.225 684.687 306.455 686.798 308.06C688.909 309.665 691.495 310.467 694.554 310.467C697.742 310.467 700.408 309.622 702.552 307.931C704.695 306.239 706.311 303.956 707.399 301.08C708.487 298.204 709.031 294.999 709.031 291.466C709.031 287.976 708.498 284.825 707.431 282.014C706.365 279.202 704.76 276.972 702.616 275.324C700.473 273.676 697.785 272.852 694.554 272.852C691.451 272.852 688.845 273.633 686.733 275.195C684.622 276.757 683.028 278.933 681.951 281.723C680.874 284.513 680.335 287.76 680.335 291.466ZM728.275 334.768C726.983 334.768 725.83 334.666 724.817 334.461C723.805 334.257 723.105 334.058 722.717 333.864L724.656 327.142C727.435 327.853 729.751 327.837 731.604 327.094C733.456 326.35 735.061 324.126 736.419 320.42L737.84 316.543L719.485 266.648H727.758L741.46 306.202H741.977L755.679 266.648L764.016 266.777L742.882 323.523C741.934 326.043 740.76 328.138 739.359 329.808C737.959 331.478 736.338 332.722 734.496 333.54C732.654 334.359 730.58 334.768 728.275 334.768Z" fill="#272522"/>
</g>
<defs>
<clipPath id="clip0">
<rect width="765.35" height="624.7" fill="white"/>
</clipPath>
</defs>
</svg>
