<svg width="618" height="330" viewBox="0 0 618 330" fill="none" xmlns="http://www.w3.org/2000/svg">
<path d="M57.255 328.975C16.8224 328.975 0 297.543 0 270.982C0 247.076 17.4126 213.284 58.1404 213.284C91.3425 213.284 116.133 234.238 116.133 268.621C116.133 301.675 92.8181 328.975 57.255 328.975ZM61.2393 323.367C74.5201 323.367 101.967 315.694 101.967 272.753C101.967 237.337 80.4227 218.301 57.1075 218.301C32.4642 218.301 14.0186 234.533 14.0186 266.85C14.0186 301.233 34.6777 323.367 61.2393 323.367ZM134.512 284.115V258.144C134.512 235.124 134.512 230.992 134.217 226.27C133.922 221.253 132.741 218.892 127.871 217.859C126.691 217.563 124.182 217.416 122.854 217.416C122.264 217.416 121.674 217.121 121.674 216.53C121.674 215.645 122.412 215.35 124.035 215.35C130.675 215.35 139.529 215.793 140.71 215.793C143.956 215.793 152.515 215.35 159.303 215.35C177.748 215.35 184.389 221.548 186.75 223.761C189.996 226.86 194.128 233.5 194.128 243.092C194.128 262.275 178.781 276.442 157.827 276.442C157.089 276.442 155.466 276.442 154.728 276.294C153.99 276.294 153.105 275.999 153.105 275.261C153.105 274.081 153.99 273.933 157.089 273.933C171.403 273.933 182.618 264.194 182.618 248.7C182.618 245.01 182.175 235.124 174.354 227.155C166.533 219.187 157.532 219.777 154.138 219.777C151.629 219.777 149.121 220.072 147.793 220.662C146.907 220.957 146.612 221.99 146.612 223.466V284.115C146.612 298.281 146.612 309.939 147.35 316.137C147.793 320.416 148.678 323.662 153.105 324.253C155.171 324.548 158.417 324.843 159.745 324.843C160.631 324.843 160.926 325.286 160.926 325.728C160.926 326.466 160.188 326.909 158.565 326.909C150.449 326.909 141.152 326.466 140.414 326.466C139.972 326.466 130.675 326.909 126.248 326.909C124.625 326.909 123.887 326.614 123.887 325.728C123.887 325.286 124.182 324.843 125.068 324.843C126.396 324.843 128.167 324.548 129.495 324.253C132.446 323.662 133.184 320.416 133.774 316.137C134.512 309.939 134.512 298.281 134.512 284.115ZM226.268 329.83C219.398 329.83 212.673 328.787 206.68 325.806C204.633 324.762 204.487 324.166 204.487 320.142C204.487 312.689 205.072 306.727 205.218 304.342C205.364 302.702 205.657 301.957 206.388 301.957C207.265 301.957 207.411 302.404 207.411 303.597C207.411 304.938 207.411 307.025 207.849 309.112C210.042 320.142 219.69 324.315 229.485 324.315C243.518 324.315 250.389 314.03 250.389 304.491C250.389 294.206 246.149 288.244 233.578 277.662L226.999 272.147C211.504 259.179 207.996 249.938 207.996 239.802C207.996 223.854 219.69 212.973 238.256 212.973C243.957 212.973 248.196 213.569 251.851 214.463C254.628 215.06 255.798 215.209 256.967 215.209C258.137 215.209 258.429 215.507 258.429 216.252C258.429 216.997 257.844 221.916 257.844 232.052C257.844 234.436 257.552 235.48 256.821 235.48C255.944 235.48 255.798 234.735 255.651 233.542C255.505 231.754 254.628 227.729 253.751 226.09C252.874 224.45 248.927 218.19 235.478 218.19C225.391 218.19 217.497 224.599 217.497 235.48C217.497 243.976 221.298 249.342 235.332 260.521L239.425 263.8C256.675 277.662 260.768 286.903 260.768 298.827C260.768 304.938 258.429 316.266 248.342 323.57C242.056 328.041 234.162 329.83 226.268 329.83Z" fill="white"/>
<path d="M283.485 324.202L332.509 215.453C333.376 213.573 333.81 213.429 334.388 213.429C335.112 213.429 338.004 214.875 338.727 215.598C339.45 216.321 339.305 216.755 338.727 218.056L289.414 327.673C288.835 328.83 288.546 328.975 288.112 328.975C287.678 328.975 284.208 327.239 283.485 326.516C282.906 325.938 282.906 325.359 283.485 324.202Z" fill="white"/>
<path d="M381.009 283.328V257.292C381.009 234.215 381.009 230.073 380.713 225.34C380.417 220.31 379.234 217.943 374.352 216.908C373.169 216.612 370.654 216.464 369.323 216.464C368.731 216.464 368.139 216.168 368.139 215.576C368.139 214.689 368.879 214.393 370.506 214.393C377.163 214.393 386.039 214.837 387.222 214.837C390.476 214.837 399.056 214.393 405.861 214.393C424.352 214.393 431.009 220.606 433.376 222.825C436.63 225.931 440.772 232.588 440.772 242.203C440.772 261.434 425.388 275.635 404.382 275.635C403.642 275.635 402.015 275.635 401.275 275.487C400.536 275.487 399.648 275.192 399.648 274.452C399.648 273.269 400.536 273.121 403.642 273.121C417.991 273.121 429.234 263.357 429.234 247.825C429.234 244.127 428.79 234.215 420.95 226.227C413.11 218.239 404.086 218.831 400.684 218.831C398.169 218.831 395.654 219.127 394.323 219.718C393.435 220.014 393.139 221.05 393.139 222.529V283.328C393.139 297.529 393.139 309.215 393.879 315.428C394.323 319.718 395.21 322.973 399.648 323.564C401.719 323.86 404.973 324.156 406.305 324.156C407.192 324.156 407.488 324.6 407.488 325.044C407.488 325.783 406.749 326.227 405.121 326.227C396.985 326.227 387.666 325.783 386.926 325.783C386.482 325.783 377.163 326.227 372.725 326.227C371.098 326.227 370.358 325.931 370.358 325.044C370.358 324.6 370.654 324.156 371.542 324.156C372.873 324.156 374.648 323.86 375.979 323.564C378.938 322.973 379.678 319.718 380.269 315.428C381.009 309.215 381.009 297.529 381.009 283.328ZM465.876 257.292V266.76C470.462 262.322 490.58 241.168 499.604 231.848C508.479 222.677 509.071 221.198 509.071 219.422C509.071 218.239 508.331 217.056 507.148 216.612C506.112 216.168 505.817 215.872 505.817 215.28C505.817 214.689 506.704 214.393 508.036 214.393C512.325 214.393 511.882 214.837 516.911 214.837C521.497 214.837 530.225 214.393 532.592 214.393C534.663 214.393 535.107 214.837 535.107 215.428C535.107 216.02 534.811 216.316 533.479 216.464C530.669 216.76 528.006 217.351 525.935 218.239C522.237 219.718 519.426 221.493 510.55 230.073C497.533 242.647 480.669 259.363 476.823 263.653C486.142 273.86 513.065 301.227 520.018 307.736C532.148 319.126 537.325 322.381 544.426 323.712C545.757 324.008 547.237 324.156 548.716 324.156C549.899 324.156 550.787 324.452 550.787 325.192C550.787 325.931 550.195 326.227 548.568 326.227H537.621C524.751 326.227 521.349 324.6 514.396 319.126C505.521 312.174 478.894 283.624 465.876 268.091V283.328C465.876 297.529 465.876 309.215 466.615 315.428C467.059 319.718 467.947 322.973 472.385 323.564C474.456 323.86 477.414 324.156 478.302 324.156C479.633 324.156 480.077 324.748 480.077 325.192C480.077 325.931 479.485 326.227 477.858 326.227C469.722 326.227 460.402 325.783 459.663 325.783C458.923 325.783 450.195 326.227 445.757 326.227C444.13 326.227 443.391 326.079 443.391 325.192C443.391 324.748 443.686 324.156 445.018 324.156C445.905 324.156 447.533 324.008 448.864 323.712C451.823 323.121 452.71 319.718 453.302 315.428C454.041 309.215 454.041 297.529 454.041 283.328V257.292C454.041 234.215 454.041 230.073 453.746 225.34C453.45 220.31 451.97 217.795 448.716 217.056C447.089 216.612 444.426 216.464 443.391 216.464C442.207 216.464 441.763 216.168 441.763 215.576C441.763 214.689 442.503 214.393 444.13 214.393C449.012 214.393 458.923 214.837 459.663 214.837C460.402 214.837 469.722 214.393 474.16 214.393C475.787 214.393 476.527 214.689 476.527 215.428C476.527 216.02 476.231 216.316 474.899 216.464C473.272 216.612 473.124 216.612 471.645 216.76C467.651 217.203 466.468 220.162 466.172 225.34C465.876 230.073 465.876 234.215 465.876 257.292ZM556.216 283.328V257.292C556.216 234.215 556.216 230.073 555.92 225.34C555.624 220.31 554.441 217.943 549.559 216.908C548.376 216.612 545.861 216.464 544.53 216.464C543.938 216.464 543.346 216.168 543.346 215.576C543.346 214.689 544.086 214.393 545.713 214.393C552.37 214.393 561.246 214.837 562.429 214.837C565.683 214.837 574.263 214.393 581.068 214.393C599.559 214.393 606.216 220.606 608.583 222.825C611.837 225.931 615.979 232.588 615.979 242.203C615.979 261.434 600.595 275.635 579.589 275.635C578.849 275.635 577.222 275.635 576.482 275.487C575.743 275.487 574.855 275.192 574.855 274.452C574.855 273.269 575.743 273.121 578.849 273.121C593.198 273.121 604.441 263.357 604.441 247.825C604.441 244.127 603.997 234.215 596.157 226.227C588.317 218.239 579.293 218.831 575.891 218.831C573.376 218.831 570.861 219.127 569.53 219.718C568.642 220.014 568.346 221.05 568.346 222.529V283.328C568.346 297.529 568.346 309.215 569.086 315.428C569.53 319.718 570.417 322.973 574.855 323.564C576.926 323.86 580.18 324.156 581.512 324.156C582.399 324.156 582.695 324.6 582.695 325.044C582.695 325.783 581.956 326.227 580.328 326.227C572.192 326.227 562.873 325.783 562.133 325.783C561.689 325.783 552.37 326.227 547.932 326.227C546.305 326.227 545.565 325.931 545.565 325.044C545.565 324.6 545.861 324.156 546.749 324.156C548.08 324.156 549.855 323.86 551.186 323.564C554.145 322.973 554.885 319.718 555.476 315.428C556.216 309.215 556.216 297.529 556.216 283.328Z" fill="white"/>
<path d="M217.646 38.0028H231.864C235.419 38.0028 238.274 37.3889 240.428 36.1609C242.582 34.9329 244.15 33.2687 245.13 31.1681C246.11 29.0676 246.6 26.6925 246.6 24.0426C246.6 21.3927 246.11 19.023 245.13 16.9332C244.15 14.8435 242.572 13.2008 240.396 12.0051C238.22 10.8095 235.333 10.2116 231.735 10.2116H217.646V38.0028ZM217.646 45.1122V69.2841H209.631V3.10227H231.994C237.186 3.10227 241.435 4.03402 244.742 5.89755C248.049 7.76108 250.5 10.2763 252.094 13.4432C253.688 16.6101 254.485 20.1432 254.485 24.0426C254.485 27.942 253.693 31.4859 252.11 34.6744C250.527 37.8628 248.087 40.3996 244.791 42.2846C241.494 44.1697 237.272 45.1122 232.123 45.1122H217.646ZM270.886 3.10227V69.2841H263.259V3.10227H270.886ZM296.334 70.4474C293.189 70.4474 290.334 69.8496 287.771 68.6539C285.207 67.4583 283.171 65.724 281.663 63.4512C280.155 61.1783 279.401 58.4262 279.401 55.1946C279.401 52.3508 279.961 50.0403 281.081 48.263C282.202 46.4856 283.699 45.0907 285.573 44.0781C287.448 43.0656 289.521 42.3062 291.794 41.7999C294.067 41.2936 296.356 40.8897 298.661 40.5881C301.677 40.2003 304.128 39.9041 306.013 39.6994C307.898 39.4947 309.277 39.1447 310.149 38.6491C311.022 38.1536 311.458 37.2919 311.458 36.0639V35.8054C311.458 32.6169 310.591 30.1395 308.856 28.3729C307.122 26.6063 304.499 25.723 300.988 25.723C297.347 25.723 294.492 26.5201 292.424 28.1143C290.356 29.7086 288.902 31.4105 288.061 33.2202L280.823 30.6349C282.115 27.6188 283.844 25.2652 286.009 23.574C288.175 21.8829 290.544 20.698 293.119 20.0194C295.693 19.3407 298.23 19.0014 300.729 19.0014C302.323 19.0014 304.16 19.1899 306.239 19.5669C308.318 19.944 310.332 20.7141 312.282 21.8775C314.232 23.0408 315.853 24.7966 317.145 27.1449C318.438 29.4931 319.084 32.6385 319.084 36.581V69.2841H311.458V62.5625H311.07C310.553 63.6397 309.691 64.7923 308.485 66.0202C307.278 67.2482 305.673 68.2931 303.67 69.1548C301.666 70.0166 299.221 70.4474 296.334 70.4474ZM297.498 63.5966C300.514 63.5966 303.061 63.0042 305.14 61.8192C307.219 60.6343 308.792 59.1048 309.858 57.2305C310.925 55.3562 311.458 53.385 311.458 51.3168V44.3366C311.135 44.7244 310.429 45.0745 309.341 45.3869C308.253 45.6993 307.004 45.9686 305.593 46.1948C304.181 46.421 302.813 46.6149 301.489 46.7765C300.164 46.938 299.092 47.0727 298.273 47.1804C296.291 47.4389 294.444 47.8536 292.731 48.4245C291.018 48.9954 289.64 49.8464 288.595 50.9775C287.55 52.1085 287.027 53.6435 287.027 55.5824C287.027 58.2323 288.013 60.2304 289.984 61.5769C291.956 62.9234 294.46 63.5966 297.498 63.5966ZM351.513 19.6477V26.1108H325.79V19.6477H351.513ZM333.287 7.75568H340.914V55.0653C340.914 57.2197 341.231 58.8301 341.867 59.8965C342.502 60.9629 343.321 61.6738 344.323 62.0293C345.325 62.3848 346.386 62.5625 347.506 62.5625C348.346 62.5625 349.036 62.514 349.574 62.4171C350.113 62.3201 350.544 62.2393 350.867 62.1747L352.418 69.0256C351.901 69.2195 351.179 69.4187 350.253 69.6234C349.326 69.8281 348.152 69.9304 346.73 69.9304C344.576 69.9304 342.47 69.4672 340.413 68.5408C338.355 67.6145 336.653 66.2034 335.307 64.3075C333.96 62.4117 333.287 60.0204 333.287 57.1335V7.75568ZM382.003 19.6477V26.1108H355.246V19.6477H382.003ZM363.26 69.2841V12.7969C363.26 9.95311 363.928 7.58334 365.264 5.6875C366.599 3.79166 368.333 2.3698 370.466 1.42188C372.599 0.473954 374.85 0 377.22 0C379.095 0 380.624 0.150803 381.809 0.452415C382.994 0.754026 383.877 1.03409 384.459 1.29261L382.261 7.88494C381.874 7.75568 381.34 7.59411 380.662 7.40021C379.983 7.20632 379.095 7.10938 377.996 7.10938C375.475 7.10938 373.66 7.7449 372.551 9.01598C371.441 10.2871 370.886 12.1506 370.886 14.6065V69.2841H363.26ZM407.71 70.3182C403.229 70.3182 399.303 69.2518 395.931 67.119C392.56 64.9861 389.931 62.0024 388.046 58.1676C386.161 54.3328 385.219 49.8518 385.219 44.7244C385.219 39.554 386.161 35.0406 388.046 31.1843C389.931 27.328 392.56 24.3335 395.931 22.2006C399.303 20.0678 403.229 19.0014 407.71 19.0014C412.191 19.0014 416.117 20.0678 419.489 22.2006C422.861 24.3335 425.489 27.328 427.374 31.1843C429.259 35.0406 430.202 39.554 430.202 44.7244C430.202 49.8518 429.259 54.3328 427.374 58.1676C425.489 62.0024 422.861 64.9861 419.489 67.119C416.117 69.2518 412.191 70.3182 407.71 70.3182ZM407.71 63.4673C411.114 63.4673 413.915 62.5948 416.112 60.8498C418.31 59.1048 419.936 56.8104 420.992 53.9666C422.047 51.1229 422.575 48.0422 422.575 44.7244C422.575 41.4067 422.047 38.3152 420.992 35.4499C419.936 32.5846 418.31 30.2687 416.112 28.5021C413.915 26.7356 411.114 25.8523 407.71 25.8523C404.306 25.8523 401.506 26.7356 399.308 28.5021C397.111 30.2687 395.484 32.5846 394.428 35.4499C393.373 38.3152 392.845 41.4067 392.845 44.7244C392.845 48.0422 393.373 51.1229 394.428 53.9666C395.484 56.8104 397.111 59.1048 399.308 60.8498C401.506 62.5948 404.306 63.4673 407.71 63.4673ZM438.717 69.2841V19.6477H446.085V27.1449H446.602C447.507 24.6889 449.144 22.6961 451.514 21.1665C453.884 19.6369 456.555 18.8722 459.528 18.8722C460.088 18.8722 460.788 18.8829 461.629 18.9045C462.469 18.926 463.104 18.9583 463.535 19.0014V26.7571C463.277 26.6925 462.69 26.5901 461.774 26.4501C460.858 26.3101 459.894 26.2401 458.882 26.2401C456.469 26.2401 454.32 26.7409 452.435 27.7427C450.55 28.7445 449.063 30.1233 447.975 31.8791C446.887 33.6349 446.343 35.633 446.343 37.8736V69.2841H438.717ZM469.465 69.2841V19.6477H476.833V27.4034H477.48C478.514 24.7535 480.183 22.6908 482.488 21.215C484.794 19.7393 487.562 19.0014 490.794 19.0014C494.068 19.0014 496.799 19.7393 498.985 21.215C501.172 22.6908 502.879 24.7535 504.107 27.4034H504.624C505.896 24.8397 507.802 22.7985 510.344 21.2797C512.886 19.7608 515.935 19.0014 519.49 19.0014C523.927 19.0014 527.558 20.3856 530.38 23.1539C533.202 25.9223 534.613 30.2256 534.613 36.0639V69.2841H526.987V36.0639C526.987 32.4015 525.985 29.784 523.981 28.2113C521.978 26.6386 519.619 25.8523 516.904 25.8523C513.414 25.8523 510.711 26.9025 508.793 29.003C506.876 31.1035 505.917 33.7587 505.917 36.9688V69.2841H498.161V35.2884C498.161 32.4661 497.246 30.1879 495.415 28.4537C493.583 26.7194 491.224 25.8523 488.338 25.8523C486.355 25.8523 484.508 26.3801 482.795 27.4357C481.083 28.4914 479.704 29.9509 478.659 31.8145C477.614 33.678 477.092 35.8269 477.092 38.2614V69.2841H469.465ZM584.667 28.9442L589 25.723C590.875 24.495 592.377 23.1809 593.508 21.7805C594.64 20.3802 595.205 18.549 595.205 16.2869C595.205 14.6065 594.467 12.98 592.991 11.4073C591.516 9.83463 589.582 9.0483 587.191 9.0483C585.51 9.0483 584.029 9.47378 582.747 10.3248C581.466 11.1757 580.464 12.2529 579.742 13.5563C579.02 14.8597 578.66 16.2007 578.66 17.5795C578.66 19.1307 579.085 20.698 579.936 22.2814C580.787 23.8649 581.875 25.4806 583.2 27.1287C583.682 27.7289 584.171 28.334 584.667 28.9442ZM589.324 34.6339L603.716 52.2096C604.093 51.4806 604.439 50.7198 604.754 49.9272C605.885 47.0834 606.451 43.8843 606.451 40.3295H613.819C613.819 44.7245 613.312 48.3114 612.3 51.0906C611.287 53.8697 610.146 56.0456 608.874 57.6183C608.751 57.7712 608.63 57.9203 608.511 58.0657L617.697 69.2841H608.519L603.85 63.6522C601.807 65.7575 599.292 67.3493 596.304 68.4277C593.051 69.6019 589.841 70.1889 586.674 70.1889C582.322 70.1889 578.573 69.3918 575.428 67.7976C572.283 66.2034 569.859 64.0167 568.157 61.2376C566.455 58.4584 565.604 55.2808 565.604 51.7045C565.604 48.947 566.191 46.4964 567.365 44.3528C568.539 42.2092 570.166 40.2165 572.245 38.3745C574.136 36.6991 576.29 35.0193 578.706 33.335C578.158 32.6743 577.625 32.0328 577.108 31.4105C575.213 29.1269 573.705 26.8756 572.584 24.6566C571.464 22.4376 570.904 20.0355 570.904 17.4503C570.904 14.4773 571.566 11.8651 572.891 9.61381C574.216 7.3625 576.08 5.60672 578.482 4.34641C580.884 3.08611 583.701 2.45597 586.932 2.45597C590.25 2.45597 593.105 3.09688 595.496 4.37873C597.887 5.66058 599.729 7.35173 601.022 9.45224C602.314 11.5527 602.961 13.831 602.961 16.2869C602.961 19.4538 602.174 22.2006 600.602 24.5273C599.029 26.8541 596.885 29.0192 594.171 31.0227L589.324 34.6339ZM599.267 58.1244L583.442 39.0369C583.439 39.0328 583.435 39.0286 583.432 39.0244L580.986 40.8466C578.013 43.044 575.999 45.1768 574.943 47.245C573.888 49.3132 573.36 50.7997 573.36 51.7045C573.36 53.7727 573.898 55.7009 574.976 57.489C576.053 59.2771 577.572 60.7205 579.532 61.8192C581.493 62.918 583.787 63.4673 586.415 63.4673C588.914 63.4673 591.349 62.9341 593.719 61.8677C595.727 60.9641 597.576 59.7164 599.267 58.1244ZM146.632 169.284L131.509 119.648H139.523L150.252 157.651H150.769L161.368 119.648H169.512L179.982 157.521H180.499L191.228 119.648H199.242L184.118 169.284H176.621L165.763 131.152H164.987L154.13 169.284H146.632ZM224.69 170.318C220.209 170.318 216.283 169.252 212.911 167.119C209.54 164.986 206.912 162.002 205.027 158.168C203.141 154.333 202.199 149.852 202.199 144.724C202.199 139.554 203.141 135.041 205.027 131.184C206.912 127.328 209.54 124.333 212.911 122.201C216.283 120.068 220.209 119.001 224.69 119.001C229.172 119.001 233.098 120.068 236.469 122.201C239.841 124.333 242.469 127.328 244.354 131.184C246.239 135.041 247.182 139.554 247.182 144.724C247.182 149.852 246.239 154.333 244.354 158.168C242.469 162.002 239.841 164.986 236.469 167.119C233.098 169.252 229.172 170.318 224.69 170.318ZM224.69 163.467C228.094 163.467 230.895 162.595 233.092 160.85C235.29 159.105 236.916 156.81 237.972 153.967C239.028 151.123 239.555 148.042 239.555 144.724C239.555 141.407 239.028 138.315 237.972 135.45C236.916 132.585 235.29 130.269 233.092 128.502C230.895 126.736 228.094 125.852 224.69 125.852C221.287 125.852 218.486 126.736 216.288 128.502C214.091 130.269 212.464 132.585 211.409 135.45C210.353 138.315 209.825 141.407 209.825 144.724C209.825 148.042 210.353 151.123 211.409 153.967C212.464 156.81 214.091 159.105 216.288 160.85C218.486 162.595 221.287 163.467 224.69 163.467ZM255.697 169.284V119.648H263.065V127.145H263.582C264.487 124.689 266.124 122.696 268.494 121.167C270.864 119.637 273.535 118.872 276.508 118.872C277.069 118.872 277.769 118.883 278.609 118.904C279.449 118.926 280.085 118.958 280.516 119.001V126.757C280.257 126.692 279.67 126.59 278.754 126.45C277.839 126.31 276.875 126.24 275.862 126.24C273.449 126.24 271.3 126.741 269.415 127.743C267.53 128.745 266.044 130.123 264.956 131.879C263.868 133.635 263.324 135.633 263.324 137.874V169.284H255.697ZM293.555 151.188L293.426 141.751H294.977L316.693 119.648H326.129L302.991 143.044H302.345L293.555 151.188ZM286.446 169.284V103.102H294.072V169.284H286.446ZM317.985 169.284L298.596 144.724L304.025 139.425L327.68 169.284H317.985ZM354.938 119.648V126.111H328.181V119.648H354.938ZM336.196 169.284V112.797C336.196 109.953 336.863 107.583 338.199 105.688C339.535 103.792 341.269 102.37 343.402 101.422C345.535 100.474 347.786 100 350.156 100C352.03 100 353.56 100.151 354.745 100.452C355.929 100.754 356.813 101.034 357.394 101.293L355.197 107.885C354.809 107.756 354.276 107.594 353.597 107.4C352.919 107.206 352.03 107.109 350.931 107.109C348.411 107.109 346.596 107.745 345.486 109.016C344.377 110.287 343.822 112.151 343.822 114.607V169.284H336.196ZM370.175 103.102V169.284H362.549V103.102H370.175ZM401.182 170.318C396.701 170.318 392.775 169.252 389.403 167.119C386.032 164.986 383.404 162.002 381.518 158.168C379.633 154.333 378.691 149.852 378.691 144.724C378.691 139.554 379.633 135.041 381.518 131.184C383.404 127.328 386.032 124.333 389.403 122.201C392.775 120.068 396.701 119.001 401.182 119.001C405.663 119.001 409.59 120.068 412.961 122.201C416.333 124.333 418.961 127.328 420.846 131.184C422.731 135.041 423.674 139.554 423.674 144.724C423.674 149.852 422.731 154.333 420.846 158.168C418.961 162.002 416.333 164.986 412.961 167.119C409.59 169.252 405.663 170.318 401.182 170.318ZM401.182 163.467C404.586 163.467 407.387 162.595 409.584 160.85C411.782 159.105 413.408 156.81 414.464 153.967C415.52 151.123 416.047 148.042 416.047 144.724C416.047 141.407 415.52 138.315 414.464 135.45C413.408 132.585 411.782 130.269 409.584 128.502C407.387 126.736 404.586 125.852 401.182 125.852C397.778 125.852 394.978 126.736 392.78 128.502C390.583 130.269 388.956 132.585 387.901 135.45C386.845 138.315 386.317 141.407 386.317 144.724C386.317 148.042 386.845 151.123 387.901 153.967C388.956 156.81 390.583 159.105 392.78 160.85C394.978 162.595 397.778 163.467 401.182 163.467ZM441.755 169.284L426.631 119.648H434.645L445.374 157.651H445.891L456.49 119.648H464.634L475.104 157.521H475.621L486.35 119.648H494.364L479.24 169.284H471.743L460.885 131.152H460.11L449.252 169.284H441.755ZM524.838 169.284V103.102H532.464V127.533H533.111C533.671 126.671 534.452 125.567 535.454 124.22C536.455 122.874 537.899 121.667 539.784 120.601C541.669 119.535 544.227 119.001 547.459 119.001C551.638 119.001 555.322 120.046 558.511 122.136C561.699 124.226 564.187 127.188 565.975 131.023C567.764 134.857 568.658 139.382 568.658 144.595C568.658 149.852 567.764 154.403 565.975 158.248C564.187 162.094 561.71 165.067 558.543 167.167C555.376 169.268 551.724 170.318 547.588 170.318C544.4 170.318 541.847 169.785 539.929 168.719C538.012 167.652 536.536 166.435 535.502 165.067C534.468 163.699 533.671 162.562 533.111 161.658H532.206V169.284H524.838ZM532.335 144.466C532.335 148.215 532.885 151.516 533.983 154.371C535.082 157.225 536.687 159.455 538.798 161.06C540.91 162.665 543.495 163.467 546.554 163.467C549.742 163.467 552.408 162.622 554.552 160.931C556.696 159.239 558.311 156.956 559.399 154.08C560.487 151.204 561.031 147.999 561.031 144.466C561.031 140.976 560.498 137.825 559.432 135.014C558.365 132.202 556.76 129.972 554.617 128.324C552.473 126.676 549.785 125.852 546.554 125.852C543.452 125.852 540.845 126.633 538.734 128.195C536.622 129.757 535.028 131.933 533.951 134.723C532.874 137.513 532.335 140.76 532.335 144.466ZM580.275 187.768C578.983 187.768 577.83 187.666 576.818 187.461C575.805 187.257 575.105 187.058 574.717 186.864L576.656 180.142C579.435 180.853 581.751 180.837 583.604 180.094C585.457 179.35 587.062 177.126 588.419 173.42L589.841 169.543L571.486 119.648H579.758L593.46 159.202H593.977L607.679 119.648L616.016 119.777L594.882 176.523C593.934 179.043 592.76 181.138 591.359 182.808C589.959 184.478 588.338 185.722 586.496 186.54C584.654 187.359 582.581 187.768 580.275 187.768Z" fill="white"/>
</svg>
