<svg width="571" height="171" viewBox="0 0 571 171" fill="none" xmlns="http://www.w3.org/2000/svg">
<path d="M399.599 13.2315C399.305 10.7486 398.113 8.82103 396.022 7.44886C393.931 6.0767 391.366 5.39062 388.328 5.39062C386.107 5.39062 384.167 5.75 382.509 6.46875C380.851 7.1875 379.56 8.17577 378.637 9.43359C377.714 10.6914 377.253 12.1207 377.253 13.7216C377.253 15.0611 377.575 16.2086 378.221 17.1642C378.866 18.1199 379.695 18.9121 380.708 19.541C381.721 20.1699 382.782 20.6845 383.893 21.0847C385.004 21.4849 386.025 21.8075 386.956 22.0526L392.053 23.4247C393.359 23.7678 394.817 24.2415 396.426 24.8459C398.035 25.4503 399.579 26.2711 401.057 27.3084C402.536 28.3457 403.757 29.6729 404.721 31.2901C405.684 32.9073 406.166 34.892 406.166 37.2443C406.166 39.956 405.46 42.4062 404.047 44.5952C402.634 46.7841 400.576 48.5238 397.872 49.8143C395.169 51.1048 391.889 51.75 388.034 51.75C384.44 51.75 381.333 51.1701 378.711 50.0103C376.089 48.8505 374.031 47.2333 372.536 45.1587C371.041 43.0842 370.196 40.6747 370 37.9304H376.273C376.436 39.8253 377.077 41.3894 378.196 42.6227C379.315 43.856 380.736 44.7708 382.46 45.367C384.183 45.9632 386.041 46.2614 388.034 46.2614C390.354 46.2614 392.436 45.8816 394.282 45.122C396.128 44.3624 397.59 43.3006 398.668 41.9366C399.746 40.5726 400.286 38.9759 400.286 37.1463C400.286 35.4801 399.82 34.1243 398.889 33.0788C397.958 32.0334 396.733 31.184 395.213 30.5305C393.694 29.8771 392.053 29.3054 390.288 28.8153L384.114 27.0511C380.193 25.924 377.09 24.315 374.803 22.2241C372.516 20.1332 371.372 17.397 371.372 14.0156C371.372 11.206 372.136 8.75161 373.663 6.65252C375.191 4.55343 377.249 2.91993 379.838 1.75195C382.427 0.583979 385.322 0 388.524 0C391.759 0 394.634 0.575811 397.149 1.72745C399.665 2.87909 401.662 4.45134 403.14 6.44425C404.618 8.43715 405.398 10.6996 405.48 13.2315H399.599ZM428.305 51.652C424.776 51.652 421.738 50.8189 419.19 49.1527C416.641 47.4865 414.681 45.1914 413.309 42.2674C411.937 39.3434 411.251 36.0029 411.251 32.2457C411.251 28.4233 411.957 25.046 413.37 22.1138C414.783 19.1816 416.76 16.8865 419.3 15.2285C421.84 13.5705 424.809 12.7415 428.207 12.7415C430.853 12.7415 433.238 13.2315 435.362 14.2116C437.485 15.1918 439.225 16.5639 440.581 18.3281C441.937 20.0923 442.778 22.1506 443.104 24.5028H437.322C436.881 22.7876 435.905 21.2644 434.394 19.9331C432.883 18.6017 430.853 17.9361 428.305 17.9361C426.051 17.9361 424.078 18.5201 422.387 19.688C420.697 20.856 419.382 22.4977 418.442 24.6131C417.503 26.7285 417.033 29.2074 417.033 32.0497C417.033 34.9574 417.495 37.4893 418.418 39.6456C419.341 41.8019 420.648 43.4762 422.338 44.6687C424.029 45.8612 426.018 46.4574 428.305 46.4574C429.808 46.4574 431.172 46.196 432.397 45.6733C433.622 45.1506 434.659 44.3992 435.509 43.419C436.358 42.4389 436.962 41.2628 437.322 39.8906H443.104C442.778 42.1122 441.973 44.1092 440.691 45.8816C439.409 47.6539 437.718 49.0588 435.619 50.0961C433.52 51.1334 431.082 51.652 428.305 51.652ZM454.952 28.2273V50.8679H449.169V0.68608H454.952V19.1122H455.442C456.324 17.1683 457.651 15.6206 459.424 14.4689C461.196 13.3173 463.561 12.7415 466.517 12.7415C469.082 12.7415 471.328 13.2519 473.255 14.2729C475.183 15.2939 476.682 16.8539 477.752 18.9529C478.822 21.052 479.357 23.7187 479.357 26.9531V50.8679H473.574V27.3452C473.574 24.3558 472.802 22.0403 471.259 20.3986C469.715 18.7569 467.579 17.9361 464.851 17.9361C462.956 17.9361 461.261 18.3363 459.767 19.1367C458.272 19.9371 457.096 21.1051 456.238 22.6406C455.381 24.1761 454.952 26.0383 454.952 28.2273ZM502.867 51.652C499.47 51.652 496.493 50.8434 493.936 49.2262C491.38 47.609 489.387 45.3466 487.957 42.4389C486.528 39.5312 485.813 36.1335 485.813 32.2457C485.813 28.3253 486.528 24.9031 487.957 21.979C489.387 19.055 491.38 16.7845 493.936 15.1673C496.493 13.5501 499.47 12.7415 502.867 12.7415C506.265 12.7415 509.242 13.5501 511.799 15.1673C514.355 16.7845 516.348 19.055 517.777 21.979C519.207 24.9031 519.921 28.3253 519.921 32.2457C519.921 36.1335 519.207 39.5312 517.777 42.4389C516.348 45.3466 514.355 47.609 511.799 49.2262C509.242 50.8434 506.265 51.652 502.867 51.652ZM502.867 46.4574C505.448 46.4574 507.572 45.7958 509.238 44.4727C510.904 43.1495 512.138 41.4098 512.938 39.2536C513.739 37.0973 514.139 34.7614 514.139 32.2457C514.139 29.7301 513.739 27.386 512.938 25.2134C512.138 23.0408 510.904 21.2848 509.238 19.9453C507.572 18.6058 505.448 17.9361 502.867 17.9361C500.286 17.9361 498.163 18.6058 496.497 19.9453C494.831 21.2848 493.597 23.0408 492.797 25.2134C491.996 27.386 491.596 29.7301 491.596 32.2457C491.596 34.7614 491.996 37.0973 492.797 39.2536C493.597 41.4098 494.831 43.1495 496.497 44.4727C498.163 45.7958 500.286 46.4574 502.867 46.4574ZM541.668 51.652C538.27 51.652 535.293 50.8434 532.737 49.2262C530.18 47.609 528.187 45.3466 526.758 42.4389C525.329 39.5312 524.614 36.1335 524.614 32.2457C524.614 28.3253 525.329 24.9031 526.758 21.979C528.187 19.055 530.18 16.7845 532.737 15.1673C535.293 13.5501 538.27 12.7415 541.668 12.7415C545.066 12.7415 548.043 13.5501 550.599 15.1673C553.156 16.7845 555.149 19.055 556.578 21.979C558.007 24.9031 558.722 28.3253 558.722 32.2457C558.722 36.1335 558.007 39.5312 556.578 42.4389C555.149 45.3466 553.156 47.609 550.599 49.2262C548.043 50.8434 545.066 51.652 541.668 51.652ZM541.668 46.4574C544.249 46.4574 546.372 45.7958 548.039 44.4727C549.705 43.1495 550.938 41.4098 551.739 39.2536C552.539 37.0973 552.939 34.7614 552.939 32.2457C552.939 29.7301 552.539 27.386 551.739 25.2134C550.938 23.0408 549.705 21.2848 548.039 19.9453C546.372 18.6058 544.249 17.9361 541.668 17.9361C539.087 17.9361 536.963 18.6058 535.297 19.9453C533.631 21.2848 532.398 23.0408 531.597 25.2134C530.797 27.386 530.397 29.7301 530.397 32.2457C530.397 34.7614 530.797 37.0973 531.597 39.2536C532.398 41.4098 533.631 43.1495 535.297 44.4727C536.963 45.7958 539.087 46.4574 541.668 46.4574ZM570.961 0.68608V50.8679H565.179V0.68608H570.961Z" fill="white"/>
<path d="M17.8632 110.792V74.7077C17.8632 42.7235 17.8632 36.9828 17.4526 30.422C17.0419 23.4511 15.3993 20.1706 8.62361 18.7354C6.98102 18.3254 3.49051 18.1204 1.64259 18.1204C0.821296 18.1204 0 17.7103 0 16.8902C0 15.6601 1.02662 15.25 3.28519 15.25C12.5248 15.25 24.8442 15.8651 26.4868 15.8651C31.0039 15.8651 42.9127 15.25 52.3577 15.25C78.0232 15.25 87.2627 23.8611 90.5479 26.9365C95.0651 31.2421 100.814 40.4683 100.814 53.795C100.814 80.4484 79.4604 100.131 50.3044 100.131C49.2778 100.131 47.0192 100.131 45.9926 99.9259C44.966 99.9259 43.734 99.5159 43.734 98.4907C43.734 96.8505 44.966 96.6455 49.2778 96.6455C69.1942 96.6455 84.7989 83.1138 84.7989 61.586C84.7989 56.4603 84.1829 42.7235 73.3007 31.6521C62.4185 20.5807 49.8938 21.4008 45.1713 21.4008C41.6808 21.4008 38.1903 21.8108 36.3424 22.631C35.1104 23.041 34.6998 24.4762 34.6998 26.5265V110.792C34.6998 130.475 34.6998 146.672 35.7264 155.283C36.3424 161.229 37.5743 165.739 43.734 166.56C46.6086 166.97 51.1257 167.38 52.9736 167.38C54.2056 167.38 54.6162 167.995 54.6162 168.61C54.6162 169.635 53.5896 170.25 51.331 170.25C40.0382 170.25 27.1028 169.635 26.0762 169.635C25.4602 169.635 12.5248 170.25 6.36505 170.25C4.10648 170.25 3.07986 169.84 3.07986 168.61C3.07986 167.995 3.49051 167.38 4.72245 167.38C6.57037 167.38 9.03426 166.97 10.8822 166.56C14.9887 165.739 16.0153 161.229 16.8366 155.283C17.8632 146.672 17.8632 130.475 17.8632 110.792ZM135.658 74.7077V87.8294C142.023 81.6786 169.947 52.3598 182.472 39.4431C194.791 26.7315 195.612 24.6812 195.612 22.2209C195.612 20.5807 194.586 18.9405 192.943 18.3254C191.506 17.7103 191.095 17.3003 191.095 16.4802C191.095 15.6601 192.327 15.25 194.175 15.25C200.129 15.25 199.513 15.8651 206.494 15.8651C212.86 15.8651 224.974 15.25 228.259 15.25C231.133 15.25 231.749 15.8651 231.749 16.6852C231.749 17.5053 231.339 17.9153 229.491 18.1204C225.59 18.5304 221.894 19.3505 219.019 20.5807C213.886 22.631 209.985 25.0913 197.666 36.9828C179.597 54.4101 156.19 77.578 150.852 83.5238C163.787 97.6706 201.156 135.601 210.806 144.622C227.643 160.409 234.829 164.919 244.685 166.765C246.533 167.175 248.586 167.38 250.639 167.38C252.282 167.38 253.514 167.79 253.514 168.815C253.514 169.84 252.692 170.25 250.434 170.25H235.24C217.377 170.25 212.654 167.995 203.004 160.409C190.685 150.772 153.726 111.202 135.658 89.6746V110.792C135.658 130.475 135.658 146.672 136.684 155.283C137.3 161.229 138.532 165.739 144.692 166.56C147.566 166.97 151.673 167.38 152.905 167.38C154.753 167.38 155.369 168.2 155.369 168.815C155.369 169.84 154.547 170.25 152.289 170.25C140.996 170.25 128.061 169.635 127.034 169.635C126.007 169.635 113.893 170.25 107.734 170.25C105.475 170.25 104.448 170.045 104.448 168.815C104.448 168.2 104.859 167.38 106.707 167.38C107.939 167.38 110.197 167.175 112.045 166.765C116.152 165.944 117.384 161.229 118.205 155.283C119.232 146.672 119.232 130.475 119.232 110.792V74.7077C119.232 42.7235 119.232 36.9828 118.821 30.422C118.41 23.4511 116.357 19.9656 111.84 18.9405C109.581 18.3254 105.886 18.1204 104.448 18.1204C102.806 18.1204 102.19 17.7103 102.19 16.8902C102.19 15.6601 103.216 15.25 105.475 15.25C112.251 15.25 126.007 15.8651 127.034 15.8651C128.061 15.8651 140.996 15.25 147.156 15.25C149.414 15.25 150.441 15.6601 150.441 16.6852C150.441 17.5053 150.03 17.9153 148.182 18.1204C145.924 18.3254 145.719 18.3254 143.665 18.5304C138.122 19.1455 136.479 23.246 136.068 30.422C135.658 36.9828 135.658 42.7235 135.658 74.7077ZM261.049 110.792V74.7077C261.049 42.7235 261.049 36.9828 260.638 30.422C260.228 23.4511 258.585 20.1706 251.809 18.7354C250.167 18.3254 246.676 18.1204 244.828 18.1204C244.007 18.1204 243.186 17.7103 243.186 16.8902C243.186 15.6601 244.213 15.25 246.471 15.25C255.711 15.25 268.03 15.8651 269.673 15.8651C274.19 15.8651 286.099 15.25 295.544 15.25C321.209 15.25 330.449 23.8611 333.734 26.9365C338.251 31.2421 344 40.4683 344 53.795C344 80.4484 322.646 100.131 293.49 100.131C292.464 100.131 290.205 100.131 289.178 99.9259C288.152 99.9259 286.92 99.5159 286.92 98.4907C286.92 96.8505 288.152 96.6455 292.464 96.6455C312.38 96.6455 327.985 83.1138 327.985 61.586C327.985 56.4603 327.369 42.7235 316.487 31.6521C305.604 20.5807 293.08 21.4008 288.357 21.4008C284.867 21.4008 281.376 21.8108 279.528 22.631C278.296 23.041 277.886 24.4762 277.886 26.5265V110.792C277.886 130.475 277.886 146.672 278.912 155.283C279.528 161.229 280.76 165.739 286.92 166.56C289.794 166.97 294.312 167.38 296.159 167.38C297.391 167.38 297.802 167.995 297.802 168.61C297.802 169.635 296.775 170.25 294.517 170.25C283.224 170.25 270.289 169.635 269.262 169.635C268.646 169.635 255.711 170.25 249.551 170.25C247.292 170.25 246.266 169.84 246.266 168.61C246.266 167.995 246.676 167.38 247.908 167.38C249.756 167.38 252.22 166.97 254.068 166.56C258.175 165.739 259.201 161.229 260.022 155.283C261.049 146.672 261.049 130.475 261.049 110.792Z" fill="white"/>
</svg>
