<svg width="675" height="171" viewBox="0 0 675 171" fill="none" xmlns="http://www.w3.org/2000/svg">
<path d="M378.233 28.0312H389.014C391.71 28.0312 393.874 27.5657 395.507 26.6346C397.141 25.7035 398.329 24.4416 399.073 22.8489C399.816 21.2562 400.188 19.4553 400.188 17.446C400.188 15.4368 399.816 13.6399 399.073 12.0554C398.329 10.4709 397.133 9.22532 395.483 8.31871C393.833 7.4121 391.644 6.95881 388.916 6.95881H378.233V28.0312ZM378.233 33.4219V51.75H372.156V1.56818H389.112C393.049 1.56818 396.271 2.27467 398.779 3.68768C401.286 5.10068 403.144 7.0078 404.353 9.40909C405.562 11.8104 406.166 14.4893 406.166 17.446C406.166 20.4027 405.566 23.0898 404.365 25.5075C403.165 27.9251 401.315 29.8485 398.815 31.2779C396.316 32.7072 393.114 33.4219 389.21 33.4219H378.233ZM436.538 36.3622V14.1136H442.32V51.75H436.538V45.3793H436.146C435.264 47.2905 433.891 48.9117 432.029 50.2431C430.167 51.5744 427.815 52.2401 424.972 52.2401C422.62 52.2401 420.529 51.7214 418.7 50.6841C416.87 49.6468 415.433 48.0787 414.387 45.9796C413.342 43.8805 412.819 41.2301 412.819 38.0284V14.1136H418.602V37.6364C418.602 40.3807 419.373 42.5696 420.917 44.2031C422.461 45.8367 424.433 46.6534 426.835 46.6534C428.272 46.6534 429.738 46.2859 431.233 45.5508C432.728 44.8157 433.985 43.6886 435.006 42.1694C436.027 40.6502 436.538 38.7145 436.538 36.3622ZM451.325 51.75V1.56818H457.108V20.0923H457.598C458.023 19.4389 458.615 18.6017 459.375 17.5808C460.134 16.5598 461.229 15.6451 462.658 14.8365C464.087 14.0279 466.027 13.6236 468.477 13.6236C471.646 13.6236 474.44 14.4158 476.857 16.0004C479.275 17.5849 481.162 19.831 482.518 22.7386C483.873 25.6463 484.551 29.0767 484.551 33.0298C484.551 37.0156 483.873 40.4664 482.518 43.3823C481.162 46.2981 479.283 48.5524 476.882 50.1451C474.481 51.7378 471.712 52.5341 468.575 52.5341C466.158 52.5341 464.222 52.1298 462.768 51.3212C461.314 50.5126 460.196 49.5897 459.411 48.5524C458.627 47.5151 458.023 46.6534 457.598 45.9673H456.912V51.75H451.325ZM457.01 32.9318C457.01 35.7742 457.427 38.2775 458.26 40.4419C459.093 42.6064 460.31 44.297 461.911 45.514C463.512 46.731 465.472 47.3395 467.791 47.3395C470.209 47.3395 472.23 46.6983 473.856 45.416C475.481 44.1337 476.706 42.4022 477.531 40.2214C478.356 38.0406 478.769 35.6108 478.769 32.9318C478.769 30.2855 478.364 27.8965 477.556 25.7647C476.747 23.633 475.53 21.9423 473.905 20.6926C472.279 19.443 470.242 18.8182 467.791 18.8182C465.439 18.8182 463.463 19.4103 461.862 20.5946C460.261 21.7789 459.052 23.4288 458.235 25.5442C457.418 27.6596 457.01 30.1221 457.01 32.9318ZM496.791 1.56818V51.75H491.008V1.56818H496.791ZM505.012 51.75V14.1136H510.794V51.75H505.012ZM507.952 7.84091C506.825 7.84091 505.857 7.45704 505.048 6.68928C504.24 5.92152 503.836 4.99858 503.836 3.92045C503.836 2.84232 504.24 1.91939 505.048 1.15163C505.857 0.383874 506.825 0 507.952 0C509.079 0 510.047 0.383874 510.856 1.15163C511.664 1.91939 512.069 2.84232 512.069 3.92045C512.069 4.99858 511.664 5.92152 510.856 6.68928C510.047 7.45704 509.079 7.84091 507.952 7.84091ZM545.674 22.5426L540.48 24.0128C540.153 23.147 539.675 22.3017 539.046 21.4767C538.418 20.6518 537.564 19.9698 536.486 19.4308C535.408 18.8917 534.027 18.6222 532.345 18.6222C530.042 18.6222 528.126 19.149 526.599 20.2026C525.072 21.2562 524.308 22.5916 524.308 24.2088C524.308 25.6463 524.831 26.7816 525.876 27.6147C526.922 28.4478 528.555 29.142 530.777 29.6974L536.363 31.0696C539.728 31.8864 542.236 33.1319 543.886 34.8063C545.536 36.4807 546.361 38.6328 546.361 41.2628C546.361 43.419 545.744 45.3466 544.511 47.0455C543.277 48.7443 541.558 50.0838 539.353 51.0639C537.147 52.044 534.583 52.5341 531.659 52.5341C527.82 52.5341 524.643 51.701 522.127 50.0348C519.612 48.3686 518.019 45.9347 517.349 42.733L522.838 41.3608C523.361 43.3864 524.353 44.9055 525.815 45.9183C527.277 46.9311 529.192 47.4375 531.561 47.4375C534.256 47.4375 536.4 46.8617 537.993 45.71C539.585 44.5584 540.382 43.174 540.382 41.5568C540.382 40.25 539.924 39.1515 539.01 38.2612C538.095 37.3709 536.69 36.7053 534.795 36.2642L528.522 34.794C525.076 33.9773 522.548 32.7072 520.939 30.9838C519.33 29.2605 518.525 27.1002 518.525 24.5028C518.525 22.3792 519.126 20.5007 520.326 18.8672C521.527 17.2337 523.169 15.9514 525.251 15.0202C527.334 14.0891 529.699 13.6236 532.345 13.6236C536.069 13.6236 538.997 14.4403 541.129 16.0739C543.261 17.7074 544.776 19.8636 545.674 22.5426ZM558.502 29.1094V51.75H552.719V1.56818H558.502V19.9943H558.992C559.874 18.0504 561.201 16.5027 562.974 15.351C564.746 14.1994 567.111 13.6236 570.067 13.6236C572.632 13.6236 574.878 14.1341 576.806 15.155C578.733 16.176 580.232 17.736 581.302 19.8351C582.372 21.9341 582.907 24.6008 582.907 27.8352V51.75H577.124V28.2273C577.124 25.2379 576.352 22.9224 574.809 21.2807C573.265 19.639 571.129 18.8182 568.401 18.8182C566.506 18.8182 564.811 19.2184 563.317 20.0188C561.822 20.8193 560.646 21.9872 559.788 23.5227C558.931 25.0582 558.502 26.9204 558.502 29.1094ZM591.128 51.75V14.1136H596.91V51.75H591.128ZM594.068 7.84091C592.941 7.84091 591.973 7.45704 591.164 6.68928C590.356 5.92152 589.952 4.99858 589.952 3.92045C589.952 2.84232 590.356 1.91939 591.164 1.15163C591.973 0.383874 592.941 0 594.068 0C595.195 0 596.163 0.383874 596.972 1.15163C597.78 1.91939 598.185 2.84232 598.185 3.92045C598.185 4.99858 597.78 5.92152 596.972 6.68928C596.163 7.45704 595.195 7.84091 594.068 7.84091ZM610.914 29.1094V51.75H605.131V14.1136H610.718V19.9943H611.208C612.09 18.0831 613.43 16.5435 615.227 15.3755C617.023 14.2076 619.343 13.6236 622.185 13.6236C624.734 13.6236 626.963 14.1422 628.875 15.1795C630.786 16.2168 632.272 17.785 633.334 19.8841C634.396 21.9831 634.927 24.6335 634.927 27.8352V51.75H629.144V28.2273C629.144 25.2706 628.376 22.9633 626.841 21.3052C625.305 19.6472 623.198 18.8182 620.519 18.8182C618.673 18.8182 617.027 19.2184 615.582 20.0188C614.136 20.8193 612.997 21.9872 612.164 23.5227C611.331 25.0582 610.914 26.9204 610.914 29.1094ZM658.34 66.6477C655.546 66.6477 653.145 66.2924 651.136 65.5819C649.126 64.8713 647.456 63.9402 646.125 62.7885C644.794 61.6369 643.736 60.4077 642.952 59.1009L647.558 55.8665C648.081 56.5526 648.743 57.3407 649.543 58.231C650.343 59.1213 651.442 59.8972 652.839 60.5588C654.235 61.2204 656.069 61.5511 658.34 61.5511C661.378 61.5511 663.885 60.8161 665.862 59.3459C667.838 57.8757 668.827 55.5725 668.827 52.4361V44.7912H668.337C667.912 45.4773 667.312 46.3226 666.536 47.3272C665.76 48.3319 664.649 49.2221 663.203 49.998C661.758 50.774 659.81 51.1619 657.359 51.1619C654.321 51.1619 651.597 50.4432 649.188 49.0057C646.778 47.5682 644.875 45.4773 643.479 42.733C642.082 39.9886 641.384 36.6563 641.384 32.7358C641.384 28.8807 642.061 25.5197 643.417 22.6529C644.773 19.786 646.66 17.5645 649.077 15.9881C651.495 14.4117 654.288 13.6236 657.457 13.6236C659.908 13.6236 661.856 14.0279 663.301 14.8365C664.747 15.6451 665.858 16.5598 666.634 17.5808C667.41 18.6017 668.01 19.4389 668.435 20.0923H669.023V14.1136H674.609V52.8281C674.609 56.0625 673.878 58.6965 672.416 60.7303C670.954 62.764 668.994 64.2587 666.536 65.2143C664.077 66.1699 661.345 66.6477 658.34 66.6477ZM658.144 45.9673C660.463 45.9673 662.423 45.4364 664.024 44.3746C665.625 43.3129 666.842 41.7855 667.675 39.7926C668.508 37.7997 668.925 35.4148 668.925 32.6378C668.925 29.9261 668.516 27.533 667.7 25.4585C666.883 23.3839 665.674 21.7585 664.073 20.5824C662.472 19.4062 660.496 18.8182 658.144 18.8182C655.693 18.8182 653.655 19.4389 652.03 20.6804C650.405 21.9219 649.188 23.5881 648.379 25.679C647.571 27.7699 647.166 30.0895 647.166 32.6378C647.166 35.2514 647.579 37.5588 648.404 39.5598C649.229 41.5609 650.454 43.1291 652.079 44.2644C653.704 45.3997 655.726 45.9673 658.144 45.9673ZM399.599 80.1136C399.305 77.6307 398.113 75.7031 396.022 74.331C393.931 72.9588 391.366 72.2727 388.328 72.2727C386.107 72.2727 384.167 72.6321 382.509 73.3509C380.851 74.0696 379.56 75.0579 378.637 76.3157C377.714 77.5735 377.253 79.0028 377.253 80.6037C377.253 81.9432 377.575 83.0907 378.221 84.0463C378.866 85.002 379.695 85.7942 380.708 86.4231C381.721 87.052 382.782 87.5666 383.893 87.9668C385.004 88.367 386.025 88.6896 386.956 88.9347L392.053 90.3068C393.359 90.6499 394.817 91.1236 396.426 91.728C398.035 92.3324 399.579 93.1532 401.057 94.1905C402.536 95.2278 403.757 96.555 404.721 98.1722C405.684 99.7894 406.166 101.774 406.166 104.126C406.166 106.838 405.46 109.288 404.047 111.477C402.634 113.666 400.576 115.406 397.872 116.696C395.169 117.987 391.889 118.632 388.034 118.632C384.44 118.632 381.333 118.052 378.711 116.892C376.089 115.733 374.031 114.115 372.536 112.041C371.041 109.966 370.196 107.557 370 104.812H376.273C376.436 106.707 377.077 108.271 378.196 109.505C379.315 110.738 380.736 111.653 382.46 112.249C384.183 112.845 386.041 113.143 388.034 113.143C390.354 113.143 392.436 112.764 394.282 112.004C396.128 111.244 397.59 110.183 398.668 108.819C399.746 107.455 400.286 105.858 400.286 104.028C400.286 102.362 399.82 101.006 398.889 99.9609C397.958 98.9155 396.733 98.0661 395.213 97.4126C393.694 96.7592 392.053 96.1875 390.288 95.6974L384.114 93.9332C380.193 92.8061 377.09 91.1971 374.803 89.1062C372.516 87.0153 371.372 84.2791 371.372 80.8977C371.372 78.0881 372.136 75.6337 373.663 73.5346C375.191 71.4355 377.249 69.802 379.838 68.6341C382.427 67.4661 385.322 66.8821 388.524 66.8821C391.759 66.8821 394.634 67.4579 397.149 68.6096C399.665 69.7612 401.662 71.3334 403.14 73.3263C404.618 75.3193 405.398 77.5817 405.48 80.1136H399.599ZM417.061 95.8935H438.498C438.498 93.7699 438.077 91.875 437.236 90.2088C436.395 88.5426 435.202 87.2276 433.659 86.2638C432.115 85.3001 430.298 84.8182 428.207 84.8182C425.904 84.8182 423.915 85.3858 422.24 86.5211C420.566 87.6564 419.28 89.1307 418.381 90.9439C417.611 92.4978 417.171 94.1476 417.061 95.8935ZM417.046 100.892C417.13 103.395 417.62 105.539 418.516 107.324C419.504 109.292 420.88 110.787 422.645 111.808C424.409 112.829 426.459 113.339 428.795 113.339C430.314 113.339 431.69 113.123 432.924 112.69C434.157 112.257 435.223 111.604 436.121 110.73C437.02 109.856 437.714 108.766 438.204 107.459L443.791 109.027C443.203 110.922 442.214 112.584 440.826 114.013C439.437 115.443 437.722 116.553 435.68 117.346C433.638 118.138 431.343 118.534 428.795 118.534C425.168 118.534 422.044 117.73 419.423 116.121C416.801 114.512 414.783 112.257 413.37 109.358C411.957 106.458 411.251 103.081 411.251 99.2259C411.251 95.3707 411.957 91.9689 413.37 89.0204C414.783 86.0719 416.76 83.7687 419.3 82.1106C421.84 80.4526 424.809 79.6236 428.207 79.6236C430.167 79.6236 432.103 79.9503 434.014 80.6037C435.925 81.2571 437.665 82.3148 439.233 83.7768C440.801 85.2388 442.051 87.1704 442.982 89.5717C443.913 91.973 444.379 94.9297 444.379 98.4418V100.892H417.046ZM450.835 117.75V80.1136H456.422V85.7983H456.814C457.5 83.9361 458.742 82.4251 460.539 81.2653C462.335 80.1055 464.361 79.5256 466.615 79.5256C467.04 79.5256 467.571 79.5337 468.208 79.5501C468.845 79.5664 469.327 79.5909 469.654 79.6236V85.5043C469.458 85.4553 469.012 85.3777 468.318 85.2715C467.624 85.1653 466.893 85.1122 466.125 85.1122C464.296 85.1122 462.666 85.492 461.237 86.2516C459.808 87.0112 458.68 88.0566 457.855 89.388C457.031 90.7193 456.618 92.2344 456.618 93.9332V117.75H450.835ZM506.102 80.1136L492.184 117.75H486.304L472.386 80.1136H478.659L489.048 110.105H489.44L499.829 80.1136H506.102ZM511.382 117.75V80.1136H517.165V117.75H511.382ZM514.323 73.8409C513.196 73.8409 512.228 73.457 511.419 72.6893C510.611 71.9215 510.206 70.9986 510.206 69.9205C510.206 68.8423 510.611 67.9194 511.419 67.1516C512.228 66.3839 513.196 66 514.323 66C515.45 66 516.418 66.3839 517.226 67.1516C518.035 67.9194 518.439 68.8423 518.439 69.9205C518.439 70.9986 518.035 71.9215 517.226 72.6893C516.418 73.457 515.45 73.8409 514.323 73.8409ZM540.676 118.534C537.147 118.534 534.109 117.701 531.561 116.035C529.013 114.369 527.052 112.074 525.68 109.15C524.308 106.225 523.622 102.885 523.622 99.1278C523.622 95.3054 524.328 91.9281 525.741 88.9959C527.154 86.0637 529.131 83.7687 531.671 82.1106C534.211 80.4526 537.18 79.6236 540.578 79.6236C543.224 79.6236 545.609 80.1136 547.733 81.0938C549.856 82.0739 551.596 83.446 552.952 85.2102C554.308 86.9744 555.149 89.0327 555.476 91.3849H549.693C549.252 89.6697 548.276 88.1465 546.765 86.8152C545.254 85.4838 543.224 84.8182 540.676 84.8182C538.422 84.8182 536.449 85.4022 534.758 86.5701C533.068 87.7381 531.753 89.3798 530.813 91.4952C529.874 93.6106 529.405 96.0895 529.405 98.9318C529.405 101.84 529.866 104.371 530.789 106.528C531.712 108.684 533.019 110.358 534.709 111.551C536.4 112.743 538.389 113.339 540.676 113.339C542.179 113.339 543.543 113.078 544.768 112.555C545.993 112.033 547.03 111.281 547.88 110.301C548.729 109.321 549.334 108.145 549.693 106.773H555.476C555.149 108.994 554.344 110.991 553.062 112.764C551.78 114.536 550.089 115.941 547.99 116.978C545.891 118.015 543.453 118.534 540.676 118.534ZM565.586 95.8935H587.023C587.023 93.7699 586.603 91.875 585.761 90.2088C584.92 88.5426 583.728 87.2276 582.184 86.2638C580.64 85.3001 578.823 84.8182 576.732 84.8182C574.429 84.8182 572.44 85.3858 570.766 86.5211C569.091 87.6564 567.805 89.1307 566.906 90.9439C566.136 92.4978 565.696 94.1476 565.586 95.8935ZM565.572 100.892C565.655 103.395 566.145 105.539 567.041 107.324C568.029 109.292 569.406 110.787 571.17 111.808C572.934 112.829 574.984 113.339 577.32 113.339C578.839 113.339 580.215 113.123 581.449 112.69C582.682 112.257 583.748 111.604 584.646 110.73C585.545 109.856 586.239 108.766 586.729 107.459L592.316 109.027C591.728 110.922 590.739 112.584 589.351 114.013C587.962 115.443 586.247 116.553 584.205 117.346C582.163 118.138 579.868 118.534 577.32 118.534C573.694 118.534 570.57 117.73 567.948 116.121C565.326 114.512 563.309 112.257 561.896 109.358C560.483 106.458 559.776 103.081 559.776 99.2259C559.776 95.3707 560.483 91.9689 561.896 89.0204C563.309 86.0719 565.285 83.7687 567.825 82.1106C570.365 80.4526 573.334 79.6236 576.732 79.6236C578.692 79.6236 580.628 79.9503 582.539 80.6037C584.45 81.2571 586.19 82.3148 587.758 83.7768C589.327 85.2388 590.576 87.1704 591.507 89.5717C592.438 91.973 592.904 94.9297 592.904 98.4418V100.892H565.572ZM626.02 88.5426L620.825 90.0128C620.498 89.147 620.021 88.3017 619.392 87.4767C618.763 86.6518 617.909 85.9698 616.831 85.4308C615.753 84.8917 614.373 84.6222 612.69 84.6222C610.387 84.6222 608.472 85.149 606.944 86.2026C605.417 87.2562 604.653 88.5916 604.653 90.2088C604.653 91.6463 605.176 92.7816 606.221 93.6147C607.267 94.4478 608.9 95.142 611.122 95.6974L616.709 97.0696C620.074 97.8864 622.581 99.1319 624.231 100.806C625.881 102.481 626.706 104.633 626.706 107.263C626.706 109.419 626.089 111.347 624.856 113.045C623.623 114.744 621.903 116.084 619.698 117.064C617.493 118.044 614.928 118.534 612.004 118.534C608.165 118.534 604.988 117.701 602.473 116.035C599.957 114.369 598.364 111.935 597.694 108.733L603.183 107.361C603.706 109.386 604.698 110.906 606.16 111.918C607.622 112.931 609.537 113.438 611.906 113.438C614.601 113.438 616.745 112.862 618.338 111.71C619.931 110.558 620.727 109.174 620.727 107.557C620.727 106.25 620.27 105.151 619.355 104.261C618.44 103.371 617.035 102.705 615.14 102.264L608.868 100.794C605.421 99.9773 602.893 98.7072 601.284 96.9838C599.675 95.2605 598.871 93.1002 598.871 90.5028C598.871 88.3792 599.471 86.5007 600.672 84.8672C601.872 83.2337 603.514 81.9514 605.597 81.0202C607.679 80.0891 610.044 79.6236 612.69 79.6236C616.415 79.6236 619.343 80.4403 621.474 82.0739C623.606 83.7074 625.121 85.8636 626.02 88.5426Z" fill="white"/>
<path d="M17.8632 110.792V74.7077C17.8632 42.7235 17.8632 36.9828 17.4526 30.422C17.0419 23.4511 15.3993 20.1706 8.62361 18.7354C6.98102 18.3254 3.49051 18.1204 1.64259 18.1204C0.821296 18.1204 0 17.7103 0 16.8902C0 15.6601 1.02662 15.25 3.28519 15.25C12.5248 15.25 24.8442 15.8651 26.4868 15.8651C31.0039 15.8651 42.9127 15.25 52.3577 15.25C78.0232 15.25 87.2627 23.8611 90.5479 26.9365C95.0651 31.2421 100.814 40.4683 100.814 53.795C100.814 80.4484 79.4604 100.131 50.3044 100.131C49.2778 100.131 47.0192 100.131 45.9926 99.9259C44.966 99.9259 43.734 99.5159 43.734 98.4907C43.734 96.8505 44.966 96.6455 49.2778 96.6455C69.1942 96.6455 84.7989 83.1138 84.7989 61.586C84.7989 56.4603 84.1829 42.7235 73.3007 31.6521C62.4185 20.5807 49.8938 21.4008 45.1713 21.4008C41.6808 21.4008 38.1903 21.8108 36.3424 22.631C35.1104 23.041 34.6998 24.4762 34.6998 26.5265V110.792C34.6998 130.475 34.6998 146.672 35.7264 155.283C36.3424 161.229 37.5743 165.739 43.734 166.56C46.6086 166.97 51.1257 167.38 52.9736 167.38C54.2056 167.38 54.6162 167.995 54.6162 168.61C54.6162 169.635 53.5896 170.25 51.331 170.25C40.0382 170.25 27.1028 169.635 26.0762 169.635C25.4602 169.635 12.5248 170.25 6.36505 170.25C4.10648 170.25 3.07986 169.84 3.07986 168.61C3.07986 167.995 3.49051 167.38 4.72245 167.38C6.57037 167.38 9.03426 166.97 10.8822 166.56C14.9887 165.739 16.0153 161.229 16.8366 155.283C17.8632 146.672 17.8632 130.475 17.8632 110.792ZM135.658 74.7077V87.8294C142.023 81.6786 169.947 52.3598 182.472 39.4431C194.791 26.7315 195.612 24.6812 195.612 22.2209C195.612 20.5807 194.586 18.9405 192.943 18.3254C191.506 17.7103 191.095 17.3003 191.095 16.4802C191.095 15.6601 192.327 15.25 194.175 15.25C200.129 15.25 199.513 15.8651 206.494 15.8651C212.86 15.8651 224.974 15.25 228.259 15.25C231.133 15.25 231.749 15.8651 231.749 16.6852C231.749 17.5053 231.339 17.9153 229.491 18.1204C225.59 18.5304 221.894 19.3505 219.019 20.5807C213.886 22.631 209.985 25.0913 197.666 36.9828C179.597 54.4101 156.19 77.578 150.852 83.5238C163.787 97.6706 201.156 135.601 210.806 144.622C227.643 160.409 234.829 164.919 244.685 166.765C246.533 167.175 248.586 167.38 250.639 167.38C252.282 167.38 253.514 167.79 253.514 168.815C253.514 169.84 252.692 170.25 250.434 170.25H235.24C217.377 170.25 212.654 167.995 203.004 160.409C190.685 150.772 153.726 111.202 135.658 89.6746V110.792C135.658 130.475 135.658 146.672 136.684 155.283C137.3 161.229 138.532 165.739 144.692 166.56C147.566 166.97 151.673 167.38 152.905 167.38C154.753 167.38 155.369 168.2 155.369 168.815C155.369 169.84 154.547 170.25 152.289 170.25C140.996 170.25 128.061 169.635 127.034 169.635C126.007 169.635 113.893 170.25 107.734 170.25C105.475 170.25 104.448 170.045 104.448 168.815C104.448 168.2 104.859 167.38 106.707 167.38C107.939 167.38 110.197 167.175 112.045 166.765C116.152 165.944 117.384 161.229 118.205 155.283C119.232 146.672 119.232 130.475 119.232 110.792V74.7077C119.232 42.7235 119.232 36.9828 118.821 30.422C118.41 23.4511 116.357 19.9656 111.84 18.9405C109.581 18.3254 105.886 18.1204 104.448 18.1204C102.806 18.1204 102.19 17.7103 102.19 16.8902C102.19 15.6601 103.216 15.25 105.475 15.25C112.251 15.25 126.007 15.8651 127.034 15.8651C128.061 15.8651 140.996 15.25 147.156 15.25C149.414 15.25 150.441 15.6601 150.441 16.6852C150.441 17.5053 150.03 17.9153 148.182 18.1204C145.924 18.3254 145.719 18.3254 143.665 18.5304C138.122 19.1455 136.479 23.246 136.068 30.422C135.658 36.9828 135.658 42.7235 135.658 74.7077ZM261.049 110.792V74.7077C261.049 42.7235 261.049 36.9828 260.638 30.422C260.228 23.4511 258.585 20.1706 251.809 18.7354C250.167 18.3254 246.676 18.1204 244.828 18.1204C244.007 18.1204 243.186 17.7103 243.186 16.8902C243.186 15.6601 244.213 15.25 246.471 15.25C255.711 15.25 268.03 15.8651 269.673 15.8651C274.19 15.8651 286.099 15.25 295.544 15.25C321.209 15.25 330.449 23.8611 333.734 26.9365C338.251 31.2421 344 40.4683 344 53.795C344 80.4484 322.646 100.131 293.49 100.131C292.464 100.131 290.205 100.131 289.178 99.9259C288.152 99.9259 286.92 99.5159 286.92 98.4907C286.92 96.8505 288.152 96.6455 292.464 96.6455C312.38 96.6455 327.985 83.1138 327.985 61.586C327.985 56.4603 327.369 42.7235 316.487 31.6521C305.604 20.5807 293.08 21.4008 288.357 21.4008C284.867 21.4008 281.376 21.8108 279.528 22.631C278.296 23.041 277.886 24.4762 277.886 26.5265V110.792C277.886 130.475 277.886 146.672 278.912 155.283C279.528 161.229 280.76 165.739 286.92 166.56C289.794 166.97 294.312 167.38 296.159 167.38C297.391 167.38 297.802 167.995 297.802 168.61C297.802 169.635 296.775 170.25 294.517 170.25C283.224 170.25 270.289 169.635 269.262 169.635C268.646 169.635 255.711 170.25 249.551 170.25C247.292 170.25 246.266 169.84 246.266 168.61C246.266 167.995 246.676 167.38 247.908 167.38C249.756 167.38 252.22 166.97 254.068 166.56C258.175 165.739 259.201 161.229 260.022 155.283C261.049 146.672 261.049 130.475 261.049 110.792Z" fill="white"/>
</svg>
