<svg width="970" height="466" viewBox="0 0 970 466" fill="none" xmlns="http://www.w3.org/2000/svg">
<path d="M526.233 176.031H537.014C539.71 176.031 541.874 175.566 543.507 174.635C545.141 173.703 546.329 172.442 547.073 170.849C547.816 169.256 548.188 167.455 548.188 165.446C548.188 163.437 547.816 161.64 547.073 160.055C546.329 158.471 545.133 157.225 543.483 156.319C541.833 155.412 539.644 154.959 536.916 154.959H526.233V176.031ZM526.233 181.422V199.75H520.156V149.568H537.112C541.049 149.568 544.271 150.275 546.779 151.688C549.286 153.101 551.144 155.008 552.353 157.409C553.562 159.81 554.166 162.489 554.166 165.446C554.166 168.403 553.566 171.09 552.365 173.507C551.165 175.925 549.315 177.849 546.815 179.278C544.316 180.707 541.114 181.422 537.21 181.422H526.233ZM584.538 184.362V162.114H590.32V199.75H584.538V193.379H584.146C583.264 195.29 581.891 196.912 580.029 198.243C578.167 199.574 575.815 200.24 572.972 200.24C570.62 200.24 568.529 199.721 566.7 198.684C564.87 197.647 563.433 196.079 562.387 193.98C561.342 191.88 560.819 189.23 560.819 186.028V162.114H566.602V185.636C566.602 188.381 567.373 190.57 568.917 192.203C570.461 193.837 572.433 194.653 574.835 194.653C576.272 194.653 577.738 194.286 579.233 193.551C580.728 192.816 581.985 191.689 583.006 190.169C584.027 188.65 584.538 186.715 584.538 184.362ZM599.325 199.75V149.568H605.108V168.092H605.598C606.023 167.439 606.615 166.602 607.375 165.581C608.134 164.56 609.229 163.645 610.658 162.836C612.087 162.028 614.027 161.624 616.477 161.624C619.646 161.624 622.44 162.416 624.857 164C627.275 165.585 629.162 167.831 630.518 170.739C631.873 173.646 632.551 177.077 632.551 181.03C632.551 185.016 631.873 188.466 630.518 191.382C629.162 194.298 627.283 196.552 624.882 198.145C622.481 199.738 619.712 200.534 616.575 200.534C614.158 200.534 612.222 200.13 610.768 199.321C609.314 198.513 608.196 197.59 607.411 196.552C606.627 195.515 606.023 194.653 605.598 193.967H604.912V199.75H599.325ZM605.01 180.932C605.01 183.774 605.427 186.278 606.26 188.442C607.093 190.606 608.31 192.297 609.911 193.514C611.512 194.731 613.472 195.339 615.791 195.339C618.209 195.339 620.23 194.698 621.856 193.416C623.481 192.134 624.706 190.402 625.531 188.221C626.356 186.041 626.769 183.611 626.769 180.932C626.769 178.285 626.364 175.896 625.556 173.765C624.747 171.633 623.53 169.942 621.905 168.693C620.279 167.443 618.242 166.818 615.791 166.818C613.439 166.818 611.463 167.41 609.862 168.595C608.261 169.779 607.052 171.429 606.235 173.544C605.418 175.66 605.01 178.122 605.01 180.932ZM644.791 149.568V199.75H639.008V149.568H644.791ZM653.012 199.75V162.114H658.794V199.75H653.012ZM655.952 155.841C654.825 155.841 653.857 155.457 653.048 154.689C652.24 153.922 651.836 152.999 651.836 151.92C651.836 150.842 652.24 149.919 653.048 149.152C653.857 148.384 654.825 148 655.952 148C657.079 148 658.047 148.384 658.856 149.152C659.664 149.919 660.069 150.842 660.069 151.92C660.069 152.999 659.664 153.922 658.856 154.689C658.047 155.457 657.079 155.841 655.952 155.841ZM693.674 170.543L688.48 172.013C688.153 171.147 687.675 170.302 687.046 169.477C686.418 168.652 685.564 167.97 684.486 167.431C683.408 166.892 682.027 166.622 680.345 166.622C678.042 166.622 676.126 167.149 674.599 168.203C673.072 169.256 672.308 170.592 672.308 172.209C672.308 173.646 672.831 174.782 673.876 175.615C674.922 176.448 676.555 177.142 678.777 177.697L684.363 179.07C687.728 179.886 690.236 181.132 691.886 182.806C693.536 184.481 694.361 186.633 694.361 189.263C694.361 191.419 693.744 193.347 692.511 195.045C691.277 196.744 689.558 198.084 687.353 199.064C685.147 200.044 682.583 200.534 679.659 200.534C675.82 200.534 672.643 199.701 670.127 198.035C667.612 196.369 666.019 193.935 665.349 190.733L670.838 189.361C671.361 191.386 672.353 192.906 673.815 193.918C675.277 194.931 677.192 195.438 679.561 195.438C682.256 195.438 684.4 194.862 685.993 193.71C687.585 192.558 688.382 191.174 688.382 189.557C688.382 188.25 687.924 187.151 687.01 186.261C686.095 185.371 684.69 184.705 682.795 184.264L676.522 182.794C673.076 181.977 670.548 180.707 668.939 178.984C667.33 177.26 666.525 175.1 666.525 172.503C666.525 170.379 667.126 168.501 668.326 166.867C669.527 165.234 671.169 163.951 673.251 163.02C675.334 162.089 677.699 161.624 680.345 161.624C684.069 161.624 686.997 162.44 689.129 164.074C691.261 165.707 692.776 167.864 693.674 170.543ZM706.502 177.109V199.75H700.719V149.568H706.502V167.994H706.992C707.874 166.05 709.201 164.503 710.974 163.351C712.746 162.199 715.111 161.624 718.067 161.624C720.632 161.624 722.878 162.134 724.806 163.155C726.733 164.176 728.232 165.736 729.302 167.835C730.372 169.934 730.907 172.601 730.907 175.835V199.75H725.124V176.227C725.124 173.238 724.352 170.922 722.809 169.281C721.265 167.639 719.129 166.818 716.401 166.818C714.506 166.818 712.811 167.218 711.317 168.019C709.822 168.819 708.646 169.987 707.788 171.523C706.931 173.058 706.502 174.92 706.502 177.109ZM739.128 199.75V162.114H744.91V199.75H739.128ZM742.068 155.841C740.941 155.841 739.973 155.457 739.164 154.689C738.356 153.922 737.952 152.999 737.952 151.92C737.952 150.842 738.356 149.919 739.164 149.152C739.973 148.384 740.941 148 742.068 148C743.195 148 744.163 148.384 744.972 149.152C745.78 149.919 746.185 150.842 746.185 151.92C746.185 152.999 745.78 153.922 744.972 154.689C744.163 155.457 743.195 155.841 742.068 155.841ZM758.914 177.109V199.75H753.131V162.114H758.718V167.994H759.208C760.09 166.083 761.43 164.544 763.227 163.376C765.023 162.208 767.343 161.624 770.185 161.624C772.734 161.624 774.963 162.142 776.875 163.18C778.786 164.217 780.272 165.785 781.334 167.884C782.396 169.983 782.927 172.634 782.927 175.835V199.75H777.144V176.227C777.144 173.271 776.376 170.963 774.841 169.305C773.305 167.647 771.198 166.818 768.519 166.818C766.673 166.818 765.027 167.218 763.582 168.019C762.136 168.819 760.997 169.987 760.164 171.523C759.331 173.058 758.914 174.92 758.914 177.109ZM806.34 214.648C803.546 214.648 801.145 214.292 799.136 213.582C797.126 212.871 795.456 211.94 794.125 210.789C792.794 209.637 791.736 208.408 790.952 207.101L795.558 203.866C796.081 204.553 796.743 205.341 797.543 206.231C798.343 207.121 799.442 207.897 800.839 208.559C802.235 209.22 804.069 209.551 806.34 209.551C809.378 209.551 811.885 208.816 813.862 207.346C815.838 205.876 816.827 203.572 816.827 200.436V192.791H816.337C815.912 193.477 815.312 194.323 814.536 195.327C813.76 196.332 812.649 197.222 811.203 197.998C809.758 198.774 807.81 199.162 805.359 199.162C802.321 199.162 799.597 198.443 797.188 197.006C794.778 195.568 792.875 193.477 791.479 190.733C790.082 187.989 789.384 184.656 789.384 180.736C789.384 176.881 790.061 173.52 791.417 170.653C792.773 167.786 794.66 165.564 797.077 163.988C799.495 162.412 802.288 161.624 805.457 161.624C807.908 161.624 809.856 162.028 811.301 162.836C812.747 163.645 813.858 164.56 814.634 165.581C815.41 166.602 816.01 167.439 816.435 168.092H817.023V162.114H822.609V200.828C822.609 204.063 821.878 206.697 820.416 208.73C818.954 210.764 816.994 212.259 814.536 213.214C812.077 214.17 809.345 214.648 806.34 214.648ZM806.144 193.967C808.463 193.967 810.423 193.436 812.024 192.375C813.625 191.313 814.842 189.786 815.675 187.793C816.508 185.8 816.925 183.415 816.925 180.638C816.925 177.926 816.516 175.533 815.7 173.458C814.883 171.384 813.674 169.759 812.073 168.582C810.472 167.406 808.496 166.818 806.144 166.818C803.693 166.818 801.655 167.439 800.03 168.68C798.405 169.922 797.188 171.588 796.379 173.679C795.571 175.77 795.166 178.089 795.166 180.638C795.166 183.251 795.579 185.559 796.404 187.56C797.229 189.561 798.454 191.129 800.079 192.264C801.704 193.4 803.726 193.967 806.144 193.967ZM547.599 228.114C547.305 225.631 546.113 223.703 544.022 222.331C541.931 220.959 539.366 220.273 536.328 220.273C534.107 220.273 532.167 220.632 530.509 221.351C528.851 222.07 527.56 223.058 526.637 224.316C525.714 225.574 525.253 227.003 525.253 228.604C525.253 229.943 525.575 231.091 526.221 232.046C526.866 233.002 527.695 233.794 528.708 234.423C529.721 235.052 530.782 235.567 531.893 235.967C533.004 236.367 534.025 236.69 534.956 236.935L540.053 238.307C541.359 238.65 542.817 239.124 544.426 239.728C546.035 240.332 547.579 241.153 549.057 242.191C550.536 243.228 551.757 244.555 552.721 246.172C553.684 247.789 554.166 249.774 554.166 252.126C554.166 254.838 553.46 257.288 552.047 259.477C550.634 261.666 548.576 263.406 545.872 264.696C543.169 265.987 539.889 266.632 536.034 266.632C532.44 266.632 529.333 266.052 526.711 264.892C524.089 263.733 522.031 262.115 520.536 260.041C519.041 257.966 518.196 255.557 518 252.812H524.273C524.436 254.707 525.077 256.271 526.196 257.505C527.315 258.738 528.736 259.653 530.46 260.249C532.183 260.845 534.041 261.143 536.034 261.143C538.354 261.143 540.436 260.764 542.282 260.004C544.128 259.244 545.59 258.183 546.668 256.819C547.746 255.455 548.286 253.858 548.286 252.028C548.286 250.362 547.82 249.006 546.889 247.961C545.958 246.915 544.733 246.066 543.213 245.413C541.694 244.759 540.053 244.188 538.288 243.697L532.114 241.933C528.193 240.806 525.09 239.197 522.803 237.106C520.516 235.015 519.372 232.279 519.372 228.898C519.372 226.088 520.136 223.634 521.663 221.535C523.191 219.436 525.249 217.802 527.838 216.634C530.427 215.466 533.322 214.882 536.524 214.882C539.759 214.882 542.634 215.458 545.149 216.61C547.665 217.761 549.662 219.333 551.14 221.326C552.618 223.319 553.398 225.582 553.48 228.114H547.599ZM565.061 243.893H586.498C586.498 241.77 586.077 239.875 585.236 238.209C584.395 236.543 583.202 235.228 581.659 234.264C580.115 233.3 578.298 232.818 576.207 232.818C573.904 232.818 571.915 233.386 570.24 234.521C568.566 235.656 567.28 237.131 566.381 238.944C565.611 240.498 565.171 242.148 565.061 243.893ZM565.046 248.892C565.13 251.395 565.62 253.539 566.516 255.324C567.504 257.292 568.88 258.787 570.645 259.808C572.409 260.829 574.459 261.339 576.795 261.339C578.314 261.339 579.69 261.123 580.924 260.69C582.157 260.257 583.223 259.604 584.121 258.73C585.02 257.856 585.714 256.766 586.204 255.459L591.791 257.027C591.203 258.922 590.214 260.584 588.826 262.013C587.437 263.443 585.722 264.553 583.68 265.346C581.638 266.138 579.343 266.534 576.795 266.534C573.168 266.534 570.044 265.73 567.423 264.121C564.801 262.512 562.783 260.257 561.37 257.358C559.957 254.458 559.251 251.081 559.251 247.226C559.251 243.371 559.957 239.969 561.37 237.02C562.783 234.072 564.76 231.769 567.3 230.111C569.84 228.453 572.809 227.624 576.207 227.624C578.167 227.624 580.103 227.95 582.014 228.604C583.925 229.257 585.665 230.315 587.233 231.777C588.801 233.239 590.051 235.17 590.982 237.572C591.913 239.973 592.379 242.93 592.379 246.442V248.892H565.046ZM598.835 265.75V228.114H604.422V233.798H604.814C605.5 231.936 606.742 230.425 608.539 229.265C610.335 228.105 612.361 227.526 614.615 227.526C615.04 227.526 615.571 227.534 616.208 227.55C616.845 227.566 617.327 227.591 617.654 227.624V233.504C617.458 233.455 617.012 233.378 616.318 233.271C615.624 233.165 614.893 233.112 614.125 233.112C612.296 233.112 610.666 233.492 609.237 234.252C607.808 235.011 606.68 236.057 605.855 237.388C605.031 238.719 604.618 240.234 604.618 241.933V265.75H598.835ZM654.102 228.114L640.184 265.75H634.304L620.386 228.114H626.659L637.048 258.105H637.44L647.829 228.114H654.102ZM659.382 265.75V228.114H665.165V265.75H659.382ZM662.323 221.841C661.196 221.841 660.228 221.457 659.419 220.689C658.611 219.922 658.206 218.999 658.206 217.92C658.206 216.842 658.611 215.919 659.419 215.152C660.228 214.384 661.196 214 662.323 214C663.45 214 664.418 214.384 665.226 215.152C666.035 215.919 666.439 216.842 666.439 217.92C666.439 218.999 666.035 219.922 665.226 220.689C664.418 221.457 663.45 221.841 662.323 221.841ZM688.676 266.534C685.147 266.534 682.109 265.701 679.561 264.035C677.013 262.369 675.052 260.074 673.68 257.15C672.308 254.225 671.622 250.885 671.622 247.128C671.622 243.305 672.328 239.928 673.741 236.996C675.154 234.064 677.131 231.769 679.671 230.111C682.211 228.453 685.18 227.624 688.578 227.624C691.224 227.624 693.609 228.114 695.733 229.094C697.856 230.074 699.596 231.446 700.952 233.21C702.308 234.974 703.149 237.033 703.476 239.385H697.693C697.252 237.67 696.276 236.146 694.765 234.815C693.254 233.484 691.224 232.818 688.676 232.818C686.422 232.818 684.449 233.402 682.758 234.57C681.068 235.738 679.753 237.38 678.813 239.495C677.874 241.611 677.405 244.089 677.405 246.932C677.405 249.84 677.866 252.371 678.789 254.528C679.712 256.684 681.019 258.358 682.709 259.551C684.4 260.743 686.389 261.339 688.676 261.339C690.179 261.339 691.543 261.078 692.768 260.555C693.993 260.033 695.03 259.281 695.88 258.301C696.729 257.321 697.334 256.145 697.693 254.773H703.476C703.149 256.994 702.344 258.991 701.062 260.764C699.78 262.536 698.089 263.941 695.99 264.978C693.891 266.015 691.453 266.534 688.676 266.534ZM713.586 243.893H735.023C735.023 241.77 734.603 239.875 733.761 238.209C732.92 236.543 731.728 235.228 730.184 234.264C728.64 233.3 726.823 232.818 724.732 232.818C722.429 232.818 720.44 233.386 718.766 234.521C717.091 235.656 715.805 237.131 714.906 238.944C714.136 240.498 713.696 242.148 713.586 243.893ZM713.572 248.892C713.655 251.395 714.145 253.539 715.041 255.324C716.029 257.292 717.406 258.787 719.17 259.808C720.934 260.829 722.984 261.339 725.32 261.339C726.839 261.339 728.216 261.123 729.449 260.69C730.682 260.257 731.748 259.604 732.646 258.73C733.545 257.856 734.239 256.766 734.729 255.459L740.316 257.027C739.728 258.922 738.739 260.584 737.351 262.013C735.962 263.443 734.247 264.553 732.205 265.346C730.163 266.138 727.868 266.534 725.32 266.534C721.694 266.534 718.57 265.73 715.948 264.121C713.326 262.512 711.309 260.257 709.896 257.358C708.483 254.458 707.776 251.081 707.776 247.226C707.776 243.371 708.483 239.969 709.896 237.02C711.309 234.072 713.285 231.769 715.825 230.111C718.365 228.453 721.334 227.624 724.732 227.624C726.692 227.624 728.628 227.95 730.539 228.604C732.45 229.257 734.19 230.315 735.758 231.777C737.327 233.239 738.576 235.17 739.507 237.572C740.438 239.973 740.904 242.93 740.904 246.442V248.892H713.572ZM774.02 236.543L768.825 238.013C768.498 237.147 768.021 236.302 767.392 235.477C766.763 234.652 765.909 233.97 764.831 233.431C763.753 232.892 762.373 232.622 760.69 232.622C758.387 232.622 756.472 233.149 754.944 234.203C753.417 235.256 752.653 236.592 752.653 238.209C752.653 239.646 753.176 240.782 754.221 241.615C755.267 242.448 756.9 243.142 759.122 243.697L764.709 245.07C768.074 245.886 770.581 247.132 772.231 248.806C773.881 250.481 774.706 252.633 774.706 255.263C774.706 257.419 774.089 259.347 772.856 261.045C771.623 262.744 769.903 264.084 767.698 265.064C765.493 266.044 762.928 266.534 760.004 266.534C756.165 266.534 752.988 265.701 750.473 264.035C747.957 262.369 746.364 259.935 745.694 256.733L751.183 255.361C751.706 257.386 752.698 258.906 754.16 259.918C755.622 260.931 757.537 261.438 759.906 261.438C762.601 261.438 764.745 260.862 766.338 259.71C767.931 258.558 768.727 257.174 768.727 255.557C768.727 254.25 768.27 253.151 767.355 252.261C766.44 251.371 765.035 250.705 763.14 250.264L756.868 248.794C753.421 247.977 750.893 246.707 749.284 244.984C747.675 243.26 746.871 241.1 746.871 238.503C746.871 236.379 747.471 234.501 748.672 232.867C749.872 231.234 751.514 229.951 753.597 229.02C755.679 228.089 758.044 227.624 760.69 227.624C764.415 227.624 767.343 228.44 769.474 230.074C771.606 231.707 773.121 233.864 774.02 236.543Z" fill="white"/>
<path d="M165.863 258.792V222.708C165.863 190.724 165.863 184.983 165.453 178.422C165.042 171.451 163.399 168.171 156.624 166.735C154.981 166.325 151.491 166.12 149.643 166.12C148.821 166.12 148 165.71 148 164.89C148 163.66 149.027 163.25 151.285 163.25C160.525 163.25 172.844 163.865 174.487 163.865C179.004 163.865 190.913 163.25 200.358 163.25C226.023 163.25 235.263 171.861 238.548 174.937C243.065 179.242 248.814 188.468 248.814 201.795C248.814 228.448 227.46 248.131 198.304 248.131C197.278 248.131 195.019 248.131 193.993 247.926C192.966 247.926 191.734 247.516 191.734 246.491C191.734 244.851 192.966 244.646 197.278 244.646C217.194 244.646 232.799 231.114 232.799 209.586C232.799 204.46 232.183 190.724 221.301 179.652C210.419 168.581 197.894 169.401 193.171 169.401C189.681 169.401 186.19 169.811 184.342 170.631C183.11 171.041 182.7 172.476 182.7 174.526V258.792C182.7 278.475 182.7 294.672 183.726 303.283C184.342 309.229 185.574 313.739 191.734 314.56C194.609 314.97 199.126 315.38 200.974 315.38C202.206 315.38 202.616 315.995 202.616 316.61C202.616 317.635 201.59 318.25 199.331 318.25C188.038 318.25 175.103 317.635 174.076 317.635C173.46 317.635 160.525 318.25 154.365 318.25C152.106 318.25 151.08 317.84 151.08 316.61C151.08 315.995 151.491 315.38 152.722 315.38C154.57 315.38 157.034 314.97 158.882 314.56C162.989 313.739 164.015 309.229 164.837 303.283C165.863 294.672 165.863 278.475 165.863 258.792ZM283.658 222.708V235.829C290.023 229.679 317.947 200.36 330.472 187.443C342.791 174.731 343.612 172.681 343.612 170.221C343.612 168.581 342.586 166.94 340.943 166.325C339.506 165.71 339.095 165.3 339.095 164.48C339.095 163.66 340.327 163.25 342.175 163.25C348.129 163.25 347.513 163.865 354.494 163.865C360.86 163.865 372.974 163.25 376.259 163.25C379.133 163.25 379.749 163.865 379.749 164.685C379.749 165.505 379.339 165.915 377.491 166.12C373.59 166.53 369.894 167.351 367.019 168.581C361.886 170.631 357.985 173.091 345.666 184.983C327.597 202.41 304.19 225.578 298.852 231.524C311.787 245.671 349.156 283.601 358.806 292.622C375.643 308.409 382.829 312.919 392.685 314.765C394.533 315.175 396.586 315.38 398.639 315.38C400.282 315.38 401.514 315.79 401.514 316.815C401.514 317.84 400.692 318.25 398.434 318.25H383.24C365.377 318.25 360.654 315.995 351.004 308.409C338.685 298.772 301.726 259.202 283.658 237.675V258.792C283.658 278.475 283.658 294.672 284.684 303.283C285.3 309.229 286.532 313.739 292.692 314.56C295.566 314.97 299.673 315.38 300.905 315.38C302.753 315.38 303.369 316.2 303.369 316.815C303.369 317.84 302.547 318.25 300.289 318.25C288.996 318.25 276.061 317.635 275.034 317.635C274.007 317.635 261.893 318.25 255.734 318.25C253.475 318.25 252.448 318.045 252.448 316.815C252.448 316.2 252.859 315.38 254.707 315.38C255.939 315.38 258.197 315.175 260.045 314.765C264.152 313.944 265.384 309.229 266.205 303.283C267.232 294.672 267.232 278.475 267.232 258.792V222.708C267.232 190.724 267.232 184.983 266.821 178.422C266.41 171.451 264.357 167.966 259.84 166.94C257.581 166.325 253.886 166.12 252.448 166.12C250.806 166.12 250.19 165.71 250.19 164.89C250.19 163.66 251.216 163.25 253.475 163.25C260.251 163.25 274.007 163.865 275.034 163.865C276.061 163.865 288.996 163.25 295.156 163.25C297.414 163.25 298.441 163.66 298.441 164.685C298.441 165.505 298.03 165.915 296.182 166.12C293.924 166.325 293.719 166.325 291.665 166.53C286.122 167.146 284.479 171.246 284.068 178.422C283.658 184.983 283.658 190.724 283.658 222.708ZM409.049 258.792V222.708C409.049 190.724 409.049 184.983 408.638 178.422C408.228 171.451 406.585 168.171 399.809 166.735C398.167 166.325 394.676 166.12 392.828 166.12C392.007 166.12 391.186 165.71 391.186 164.89C391.186 163.66 392.213 163.25 394.471 163.25C403.711 163.25 416.03 163.865 417.673 163.865C422.19 163.865 434.099 163.25 443.544 163.25C469.209 163.25 478.449 171.861 481.734 174.937C486.251 179.242 492 188.468 492 201.795C492 228.448 470.646 248.131 441.49 248.131C440.464 248.131 438.205 248.131 437.178 247.926C436.152 247.926 434.92 247.516 434.92 246.491C434.92 244.851 436.152 244.646 440.464 244.646C460.38 244.646 475.985 231.114 475.985 209.586C475.985 204.46 475.369 190.724 464.487 179.652C453.604 168.581 441.08 169.401 436.357 169.401C432.867 169.401 429.376 169.811 427.528 170.631C426.296 171.041 425.886 172.476 425.886 174.526V258.792C425.886 278.475 425.886 294.672 426.912 303.283C427.528 309.229 428.76 313.739 434.92 314.56C437.794 314.97 442.312 315.38 444.159 315.38C445.391 315.38 445.802 315.995 445.802 316.61C445.802 317.635 444.775 318.25 442.517 318.25C431.224 318.25 418.289 317.635 417.262 317.635C416.646 317.635 403.711 318.25 397.551 318.25C395.292 318.25 394.266 317.84 394.266 316.61C394.266 315.995 394.676 315.38 395.908 315.38C397.756 315.38 400.22 314.97 402.068 314.56C406.175 313.739 407.201 309.229 408.022 303.283C409.049 294.672 409.049 278.475 409.049 258.792Z" fill="white"/>
</svg>
