<svg width="1012" height="466" viewBox="0 0 1012 466" fill="none" xmlns="http://www.w3.org/2000/svg">
<path d="M560.341 165.25H554.264C553.905 163.502 553.28 161.967 552.39 160.643C551.499 159.32 550.421 158.205 549.155 157.299C547.889 156.392 546.489 155.71 544.953 155.253C543.418 154.795 541.817 154.567 540.151 154.567C537.112 154.567 534.364 155.335 531.905 156.87C529.447 158.406 527.495 160.668 526.049 163.657C524.603 166.647 523.881 170.314 523.881 174.659C523.881 179.004 524.603 182.672 526.049 185.661C527.495 188.65 529.447 190.913 531.905 192.448C534.364 193.984 537.112 194.751 540.151 194.751C541.817 194.751 543.418 194.523 544.953 194.065C546.489 193.608 547.889 192.926 549.155 192.019C550.421 191.113 551.499 189.994 552.39 188.662C553.28 187.331 553.905 185.8 554.264 184.068H560.341C559.884 186.633 559.05 188.928 557.842 190.953C556.633 192.979 555.13 194.698 553.333 196.111C551.536 197.524 549.523 198.598 547.293 199.333C545.063 200.069 542.683 200.436 540.151 200.436C535.871 200.436 532.065 199.391 528.732 197.3C525.4 195.209 522.778 192.236 520.867 188.381C518.956 184.526 518 179.952 518 174.659C518 169.366 518.956 164.793 520.867 160.938C522.778 157.082 525.4 154.109 528.732 152.018C532.065 149.928 535.871 148.882 540.151 148.882C542.683 148.882 545.063 149.25 547.293 149.985C549.523 150.72 551.536 151.794 553.333 153.207C555.13 154.62 556.633 156.335 557.842 158.352C559.05 160.37 559.884 162.669 560.341 165.25ZM582.283 200.534C578.886 200.534 575.909 199.726 573.352 198.108C570.796 196.491 568.803 194.229 567.373 191.321C565.944 188.413 565.229 185.016 565.229 181.128C565.229 177.207 565.944 173.785 567.373 170.861C568.803 167.937 570.796 165.667 573.352 164.049C575.909 162.432 578.886 161.624 582.283 161.624C585.681 161.624 588.658 162.432 591.215 164.049C593.771 165.667 595.764 167.937 597.193 170.861C598.623 173.785 599.337 177.207 599.337 181.128C599.337 185.016 598.623 188.413 597.193 191.321C595.764 194.229 593.771 196.491 591.215 198.108C588.658 199.726 585.681 200.534 582.283 200.534ZM582.283 195.339C584.864 195.339 586.988 194.678 588.654 193.355C590.32 192.032 591.554 190.292 592.354 188.136C593.155 185.979 593.555 183.643 593.555 181.128C593.555 178.612 593.155 176.268 592.354 174.096C591.554 171.923 590.32 170.167 588.654 168.827C586.988 167.488 584.864 166.818 582.283 166.818C579.702 166.818 577.579 167.488 575.913 168.827C574.247 170.167 573.013 171.923 572.213 174.096C571.412 176.268 571.012 178.612 571.012 181.128C571.012 183.643 571.412 185.979 572.213 188.136C573.013 190.292 574.247 192.032 575.913 193.355C577.579 194.678 579.702 195.339 582.283 195.339ZM605.794 199.75V162.114H611.381V167.994H611.871C612.655 165.985 613.921 164.421 615.669 163.302C617.417 162.183 619.516 161.624 621.966 161.624C624.449 161.624 626.519 162.183 628.178 163.302C629.836 164.421 631.13 165.985 632.061 167.994H632.453C633.417 166.05 634.863 164.503 636.79 163.351C638.718 162.199 641.029 161.624 643.725 161.624C647.09 161.624 649.842 162.673 651.982 164.772C654.122 166.871 655.192 170.134 655.192 174.561V199.75H649.409V174.561C649.409 171.784 648.65 169.799 647.13 168.607C645.611 167.414 643.823 166.818 641.764 166.818C639.118 166.818 637.068 167.615 635.614 169.207C634.16 170.8 633.433 172.813 633.433 175.247V199.75H627.553V173.973C627.553 171.833 626.858 170.106 625.47 168.791C624.081 167.476 622.293 166.818 620.104 166.818C618.601 166.818 617.2 167.218 615.902 168.019C614.603 168.819 613.558 169.926 612.765 171.339C611.973 172.752 611.577 174.381 611.577 176.227V199.75H605.794ZM663.413 199.75V162.114H669V167.994H669.49C670.274 165.985 671.54 164.421 673.288 163.302C675.035 162.183 677.134 161.624 679.585 161.624C682.068 161.624 684.138 162.183 685.796 163.302C687.454 164.421 688.749 165.985 689.68 167.994H690.072C691.036 166.05 692.481 164.503 694.409 163.351C696.337 162.199 698.648 161.624 701.343 161.624C704.708 161.624 707.461 162.673 709.601 164.772C711.741 166.871 712.811 170.134 712.811 174.561V199.75H707.028V174.561C707.028 171.784 706.268 169.799 704.749 168.607C703.23 167.414 701.441 166.818 699.383 166.818C696.737 166.818 694.687 167.615 693.233 169.207C691.779 170.8 691.052 172.813 691.052 175.247V199.75H685.171V173.973C685.171 171.833 684.477 170.106 683.089 168.791C681.7 167.476 679.911 166.818 677.723 166.818C676.22 166.818 674.819 167.218 673.52 168.019C672.222 168.819 671.176 169.926 670.384 171.339C669.592 172.752 669.196 174.381 669.196 176.227V199.75H663.413ZM744.75 184.362V162.114H750.533V199.75H744.75V193.379H744.358C743.476 195.29 742.104 196.912 740.242 198.243C738.38 199.574 736.027 200.24 733.185 200.24C730.833 200.24 728.742 199.721 726.912 198.684C725.083 197.647 723.645 196.079 722.6 193.98C721.554 191.88 721.032 189.23 721.032 186.028V162.114H726.814V185.636C726.814 188.381 727.586 190.57 729.13 192.203C730.673 193.837 732.646 194.653 735.047 194.653C736.485 194.653 737.951 194.286 739.445 193.551C740.94 192.816 742.198 191.689 743.219 190.169C744.24 188.65 744.75 186.715 744.75 184.362ZM764.537 177.109V199.75H758.754V162.114H764.341V167.994H764.831C765.713 166.083 767.052 164.544 768.849 163.376C770.646 162.208 772.966 161.624 775.808 161.624C778.356 161.624 780.586 162.142 782.497 163.18C784.408 164.217 785.895 165.785 786.957 167.884C788.018 169.983 788.549 172.634 788.549 175.835V199.75H782.767V176.227C782.767 173.271 781.999 170.963 780.463 169.305C778.928 167.647 776.821 166.818 774.142 166.818C772.296 166.818 770.65 167.218 769.204 168.019C767.759 168.819 766.619 169.987 765.786 171.523C764.953 173.058 764.537 174.92 764.537 177.109ZM796.77 199.75V162.114H802.553V199.75H796.77ZM799.711 155.841C798.584 155.841 797.616 155.457 796.807 154.689C795.999 153.922 795.594 152.999 795.594 151.92C795.594 150.842 795.999 149.919 796.807 149.152C797.616 148.384 798.584 148 799.711 148C800.838 148 801.806 148.384 802.614 149.152C803.423 149.919 803.827 150.842 803.827 151.92C803.827 152.999 803.423 153.922 802.614 154.689C801.806 155.457 800.838 155.841 799.711 155.841ZM827.142 162.114V167.014H807.638V162.114H827.142ZM813.322 153.097H819.105V188.969C819.105 190.602 819.346 191.823 819.828 192.632C820.31 193.441 820.93 193.98 821.69 194.249C822.45 194.519 823.254 194.653 824.104 194.653C824.741 194.653 825.263 194.617 825.672 194.543C826.08 194.47 826.407 194.408 826.652 194.359L827.828 199.554C827.436 199.701 826.889 199.852 826.186 200.007C825.484 200.162 824.594 200.24 823.515 200.24C821.882 200.24 820.285 199.889 818.725 199.186C817.165 198.484 815.875 197.414 814.854 195.977C813.833 194.539 813.322 192.726 813.322 190.537V153.097ZM837.225 213.766C836.245 213.766 835.371 213.688 834.603 213.533C833.836 213.378 833.305 213.227 833.011 213.08L834.481 207.983C836.588 208.522 838.344 208.51 839.749 207.946C841.154 207.383 842.371 205.696 843.4 202.886L844.478 199.946L830.56 162.114H836.833L847.222 192.105H847.614L858.004 162.114L864.325 162.212L848.3 205.239C847.582 207.15 846.691 208.738 845.63 210.004C844.568 211.27 843.339 212.214 841.942 212.835C840.545 213.455 838.973 213.766 837.225 213.766ZM519.96 265.75V215.568H550.05V220.959H526.037V237.915H547.795V243.305H526.037V265.75H519.96ZM569.836 266.534C566.438 266.534 563.461 265.726 560.905 264.108C558.348 262.491 556.355 260.229 554.926 257.321C553.497 254.413 552.782 251.016 552.782 247.128C552.782 243.207 553.497 239.785 554.926 236.861C556.355 233.937 558.348 231.667 560.905 230.049C563.461 228.432 566.438 227.624 569.836 227.624C573.234 227.624 576.211 228.432 578.767 230.049C581.324 231.667 583.317 233.937 584.746 236.861C586.175 239.785 586.89 243.207 586.89 247.128C586.89 251.016 586.175 254.413 584.746 257.321C583.317 260.229 581.324 262.491 578.767 264.108C576.211 265.726 573.234 266.534 569.836 266.534ZM569.836 261.339C572.417 261.339 574.541 260.678 576.207 259.355C577.873 258.032 579.106 256.292 579.907 254.136C580.707 251.979 581.107 249.643 581.107 247.128C581.107 244.612 580.707 242.268 579.907 240.096C579.106 237.923 577.873 236.167 576.207 234.827C574.541 233.488 572.417 232.818 569.836 232.818C567.255 232.818 565.131 233.488 563.465 234.827C561.799 236.167 560.566 237.923 559.765 240.096C558.965 242.268 558.565 244.612 558.565 247.128C558.565 249.643 558.965 251.979 559.765 254.136C560.566 256.292 561.799 258.032 563.465 259.355C565.131 260.678 567.255 261.339 569.836 261.339ZM593.347 265.75V228.114H598.933V233.798H599.325C600.012 231.936 601.253 230.425 603.05 229.265C604.847 228.105 606.872 227.526 609.127 227.526C609.551 227.526 610.082 227.534 610.719 227.55C611.356 227.566 611.838 227.591 612.165 227.624V233.504C611.969 233.455 611.524 233.378 610.83 233.271C610.135 233.165 609.404 233.112 608.637 233.112C606.807 233.112 605.178 233.492 603.748 234.252C602.319 235.011 601.192 236.057 600.367 237.388C599.542 238.719 599.129 240.234 599.129 241.933V265.75H593.347ZM640.38 250.362V228.114H646.163V265.75H640.38V259.379H639.988C639.106 261.29 637.734 262.912 635.872 264.243C634.009 265.574 631.657 266.24 628.815 266.24C626.463 266.24 624.372 265.721 622.542 264.684C620.713 263.647 619.275 262.079 618.23 259.98C617.184 257.88 616.661 255.23 616.661 252.028V228.114H622.444V251.636C622.444 254.381 623.216 256.57 624.76 258.203C626.303 259.837 628.276 260.653 630.677 260.653C632.115 260.653 633.581 260.286 635.075 259.551C636.57 258.816 637.828 257.689 638.849 256.169C639.87 254.65 640.38 252.715 640.38 250.362ZM654.384 265.75V228.114H659.97V233.994H660.461C661.245 231.985 662.511 230.421 664.259 229.302C666.006 228.183 668.105 227.624 670.556 227.624C673.039 227.624 675.109 228.183 676.767 229.302C678.425 230.421 679.72 231.985 680.651 233.994H681.043C682.007 232.05 683.452 230.503 685.38 229.351C687.307 228.199 689.619 227.624 692.314 227.624C695.679 227.624 698.432 228.673 700.572 230.772C702.712 232.871 703.782 236.134 703.782 240.561V265.75H697.999V240.561C697.999 237.784 697.239 235.799 695.72 234.607C694.201 233.414 692.412 232.818 690.354 232.818C687.708 232.818 685.658 233.615 684.204 235.207C682.75 236.8 682.023 238.813 682.023 241.247V265.75H676.142V239.973C676.142 237.833 675.448 236.106 674.06 234.791C672.671 233.476 670.882 232.818 668.694 232.818C667.191 232.818 665.79 233.218 664.491 234.019C663.193 234.819 662.147 235.926 661.355 237.339C660.563 238.752 660.167 240.381 660.167 242.227V265.75H654.384Z" fill="#272522"/>
<path d="M165.863 258.792V222.708C165.863 190.724 165.863 184.983 165.453 178.422C165.042 171.451 163.399 168.171 156.624 166.735C154.981 166.325 151.491 166.12 149.643 166.12C148.821 166.12 148 165.71 148 164.89C148 163.66 149.027 163.25 151.285 163.25C160.525 163.25 172.844 163.865 174.487 163.865C179.004 163.865 190.913 163.25 200.358 163.25C226.023 163.25 235.263 171.861 238.548 174.937C243.065 179.242 248.814 188.468 248.814 201.795C248.814 228.448 227.46 248.131 198.304 248.131C197.278 248.131 195.019 248.131 193.993 247.926C192.966 247.926 191.734 247.516 191.734 246.491C191.734 244.851 192.966 244.646 197.278 244.646C217.194 244.646 232.799 231.114 232.799 209.586C232.799 204.46 232.183 190.724 221.301 179.652C210.419 168.581 197.894 169.401 193.171 169.401C189.681 169.401 186.19 169.811 184.342 170.631C183.11 171.041 182.7 172.476 182.7 174.526V258.792C182.7 278.475 182.7 294.672 183.726 303.283C184.342 309.229 185.574 313.739 191.734 314.56C194.609 314.97 199.126 315.38 200.974 315.38C202.206 315.38 202.616 315.995 202.616 316.61C202.616 317.635 201.59 318.25 199.331 318.25C188.038 318.25 175.103 317.635 174.076 317.635C173.46 317.635 160.525 318.25 154.365 318.25C152.106 318.25 151.08 317.84 151.08 316.61C151.08 315.995 151.491 315.38 152.722 315.38C154.57 315.38 157.034 314.97 158.882 314.56C162.989 313.739 164.015 309.229 164.837 303.283C165.863 294.672 165.863 278.475 165.863 258.792ZM283.658 222.708V235.829C290.023 229.679 317.947 200.36 330.472 187.443C342.791 174.731 343.612 172.681 343.612 170.221C343.612 168.581 342.586 166.94 340.943 166.325C339.506 165.71 339.095 165.3 339.095 164.48C339.095 163.66 340.327 163.25 342.175 163.25C348.129 163.25 347.513 163.865 354.494 163.865C360.86 163.865 372.974 163.25 376.259 163.25C379.133 163.25 379.749 163.865 379.749 164.685C379.749 165.505 379.339 165.915 377.491 166.12C373.59 166.53 369.894 167.351 367.019 168.581C361.886 170.631 357.985 173.091 345.666 184.983C327.597 202.41 304.19 225.578 298.852 231.524C311.787 245.671 349.156 283.601 358.806 292.622C375.643 308.409 382.829 312.919 392.685 314.765C394.533 315.175 396.586 315.38 398.639 315.38C400.282 315.38 401.514 315.79 401.514 316.815C401.514 317.84 400.692 318.25 398.434 318.25H383.24C365.377 318.25 360.654 315.995 351.004 308.409C338.685 298.772 301.726 259.202 283.658 237.675V258.792C283.658 278.475 283.658 294.672 284.684 303.283C285.3 309.229 286.532 313.739 292.692 314.56C295.566 314.97 299.673 315.38 300.905 315.38C302.753 315.38 303.369 316.2 303.369 316.815C303.369 317.84 302.547 318.25 300.289 318.25C288.996 318.25 276.061 317.635 275.034 317.635C274.007 317.635 261.893 318.25 255.734 318.25C253.475 318.25 252.448 318.045 252.448 316.815C252.448 316.2 252.859 315.38 254.707 315.38C255.939 315.38 258.197 315.175 260.045 314.765C264.152 313.944 265.384 309.229 266.205 303.283C267.232 294.672 267.232 278.475 267.232 258.792V222.708C267.232 190.724 267.232 184.983 266.821 178.422C266.41 171.451 264.357 167.966 259.84 166.94C257.581 166.325 253.886 166.12 252.448 166.12C250.806 166.12 250.19 165.71 250.19 164.89C250.19 163.66 251.216 163.25 253.475 163.25C260.251 163.25 274.007 163.865 275.034 163.865C276.061 163.865 288.996 163.25 295.156 163.25C297.414 163.25 298.441 163.66 298.441 164.685C298.441 165.505 298.03 165.915 296.182 166.12C293.924 166.325 293.719 166.325 291.665 166.53C286.122 167.146 284.479 171.246 284.068 178.422C283.658 184.983 283.658 190.724 283.658 222.708ZM409.049 258.792V222.708C409.049 190.724 409.049 184.983 408.638 178.422C408.228 171.451 406.585 168.171 399.809 166.735C398.167 166.325 394.676 166.12 392.828 166.12C392.007 166.12 391.186 165.71 391.186 164.89C391.186 163.66 392.213 163.25 394.471 163.25C403.711 163.25 416.03 163.865 417.673 163.865C422.19 163.865 434.099 163.25 443.544 163.25C469.209 163.25 478.449 171.861 481.734 174.937C486.251 179.242 492 188.468 492 201.795C492 228.448 470.646 248.131 441.49 248.131C440.464 248.131 438.205 248.131 437.178 247.926C436.152 247.926 434.92 247.516 434.92 246.491C434.92 244.851 436.152 244.646 440.464 244.646C460.38 244.646 475.985 231.114 475.985 209.586C475.985 204.46 475.369 190.724 464.487 179.652C453.604 168.581 441.08 169.401 436.357 169.401C432.867 169.401 429.376 169.811 427.528 170.631C426.296 171.041 425.886 172.476 425.886 174.526V258.792C425.886 278.475 425.886 294.672 426.912 303.283C427.528 309.229 428.76 313.739 434.92 314.56C437.794 314.97 442.312 315.38 444.159 315.38C445.391 315.38 445.802 315.995 445.802 316.61C445.802 317.635 444.775 318.25 442.517 318.25C431.224 318.25 418.289 317.635 417.262 317.635C416.646 317.635 403.711 318.25 397.551 318.25C395.292 318.25 394.266 317.84 394.266 316.61C394.266 315.995 394.676 315.38 395.908 315.38C397.756 315.38 400.22 314.97 402.068 314.56C406.175 313.739 407.201 309.229 408.022 303.283C409.049 294.672 409.049 278.475 409.049 258.792Z" fill="#272522"/>
</svg>
