<svg width="814" height="466" viewBox="0 0 814 466" fill="none" xmlns="http://www.w3.org/2000/svg">
<path d="M532.486 198.182H517V148H533.172C538.04 148 542.205 149.001 545.668 151.002C549.131 153.003 551.786 155.869 553.632 159.602C555.478 163.335 556.401 167.798 556.401 172.993C556.401 178.22 555.469 182.716 553.607 186.482C551.745 190.247 549.033 193.138 545.472 195.156C541.911 197.173 537.582 198.182 532.486 198.182ZM523.077 192.791H532.094C536.243 192.791 539.681 191.991 542.409 190.39C545.137 188.789 547.171 186.51 548.511 183.554C549.85 180.597 550.52 177.077 550.52 172.993C550.52 168.942 549.858 165.45 548.535 162.518C547.212 159.586 545.235 157.332 542.605 155.755C539.975 154.179 536.7 153.391 532.78 153.391H523.077V192.791ZM578.735 198.966C575.337 198.966 572.36 198.157 569.804 196.54C567.247 194.923 565.255 192.661 563.825 189.753C562.396 186.845 561.681 183.447 561.681 179.56C561.681 175.639 562.396 172.217 563.825 169.293C565.255 166.369 567.247 164.098 569.804 162.481C572.36 160.864 575.337 160.055 578.735 160.055C582.133 160.055 585.11 160.864 587.666 162.481C590.223 164.098 592.216 166.369 593.645 169.293C595.075 172.217 595.789 175.639 595.789 179.56C595.789 183.447 595.075 186.845 593.645 189.753C592.216 192.661 590.223 194.923 587.666 196.54C585.11 198.157 582.133 198.966 578.735 198.966ZM578.735 193.771C581.316 193.771 583.44 193.11 585.106 191.787C586.772 190.463 588.005 188.724 588.806 186.567C589.606 184.411 590.007 182.075 590.007 179.56C590.007 177.044 589.606 174.7 588.806 172.527C588.005 170.355 586.772 168.599 585.106 167.259C583.44 165.92 581.316 165.25 578.735 165.25C576.154 165.25 574.031 165.92 572.364 167.259C570.698 168.599 569.465 170.355 568.665 172.527C567.864 174.7 567.464 177.044 567.464 179.56C567.464 182.075 567.864 184.411 568.665 186.567C569.465 188.724 570.698 190.463 572.364 191.787C574.031 193.11 576.154 193.771 578.735 193.771ZM617.536 198.966C614.007 198.966 610.969 198.133 608.421 196.467C605.872 194.8 603.912 192.505 602.54 189.581C601.168 186.657 600.482 183.317 600.482 179.56C600.482 175.737 601.188 172.36 602.601 169.428C604.014 166.496 605.991 164.2 608.531 162.542C611.071 160.884 614.04 160.055 617.438 160.055C620.084 160.055 622.469 160.545 624.592 161.526C626.716 162.506 628.456 163.878 629.812 165.642C631.167 167.406 632.009 169.464 632.335 171.817H626.553C626.112 170.102 625.136 168.578 623.625 167.247C622.114 165.916 620.084 165.25 617.536 165.25C615.281 165.25 613.309 165.834 611.618 167.002C609.928 168.17 608.613 169.812 607.673 171.927C606.734 174.042 606.264 176.521 606.264 179.364C606.264 182.271 606.726 184.803 607.649 186.96C608.572 189.116 609.879 190.79 611.569 191.983C613.26 193.175 615.249 193.771 617.536 193.771C619.039 193.771 620.403 193.51 621.628 192.987C622.853 192.464 623.89 191.713 624.74 190.733C625.589 189.753 626.193 188.577 626.553 187.205H632.335C632.009 189.426 631.204 191.423 629.922 193.195C628.64 194.968 626.949 196.373 624.85 197.41C622.751 198.447 620.313 198.966 617.536 198.966ZM665.059 168.974L659.865 170.445C659.538 169.579 659.06 168.733 658.431 167.909C657.802 167.084 656.949 166.402 655.871 165.863C654.793 165.324 653.412 165.054 651.73 165.054C649.426 165.054 647.511 165.581 645.984 166.634C644.456 167.688 643.693 169.023 643.693 170.641C643.693 172.078 644.215 173.213 645.261 174.047C646.306 174.88 647.94 175.574 650.161 176.129L655.748 177.501C659.113 178.318 661.621 179.564 663.27 181.238C664.92 182.912 665.745 185.065 665.745 187.695C665.745 189.851 665.129 191.778 663.895 193.477C662.662 195.176 660.943 196.516 658.737 197.496C656.532 198.476 653.968 198.966 651.044 198.966C647.205 198.966 644.028 198.133 641.512 196.467C638.996 194.8 637.404 192.366 636.734 189.165L642.223 187.793C642.745 189.818 643.738 191.337 645.2 192.35C646.662 193.363 648.577 193.869 650.946 193.869C653.641 193.869 655.785 193.294 657.378 192.142C658.97 190.99 659.767 189.606 659.767 187.989C659.767 186.682 659.309 185.583 658.394 184.693C657.48 183.803 656.075 183.137 654.18 182.696L647.907 181.226C644.46 180.409 641.933 179.139 640.324 177.416C638.715 175.692 637.91 173.532 637.91 170.935C637.91 168.811 638.51 166.933 639.711 165.299C640.912 163.665 642.553 162.383 644.636 161.452C646.719 160.521 649.083 160.055 651.73 160.055C655.454 160.055 658.382 160.872 660.514 162.506C662.646 164.139 664.161 166.295 665.059 168.974Z" fill="white"/>
<path d="M164.863 258.792V222.708C164.863 190.724 164.863 184.983 164.453 178.422C164.042 171.451 162.399 168.171 155.624 166.735C153.981 166.325 150.491 166.12 148.643 166.12C147.821 166.12 147 165.71 147 164.89C147 163.66 148.027 163.25 150.285 163.25C159.525 163.25 171.844 163.865 173.487 163.865C178.004 163.865 189.913 163.25 199.358 163.25C225.023 163.25 234.263 171.861 237.548 174.937C242.065 179.242 247.814 188.468 247.814 201.795C247.814 228.448 226.46 248.131 197.304 248.131C196.278 248.131 194.019 248.131 192.993 247.926C191.966 247.926 190.734 247.516 190.734 246.491C190.734 244.851 191.966 244.646 196.278 244.646C216.194 244.646 231.799 231.114 231.799 209.586C231.799 204.46 231.183 190.724 220.301 179.652C209.419 168.581 196.894 169.401 192.171 169.401C188.681 169.401 185.19 169.811 183.342 170.631C182.11 171.041 181.7 172.476 181.7 174.526V258.792C181.7 278.475 181.7 294.672 182.726 303.283C183.342 309.229 184.574 313.739 190.734 314.56C193.609 314.97 198.126 315.38 199.974 315.38C201.206 315.38 201.616 315.995 201.616 316.61C201.616 317.635 200.59 318.25 198.331 318.25C187.038 318.25 174.103 317.635 173.076 317.635C172.46 317.635 159.525 318.25 153.365 318.25C151.106 318.25 150.08 317.84 150.08 316.61C150.08 315.995 150.491 315.38 151.722 315.38C153.57 315.38 156.034 314.97 157.882 314.56C161.989 313.739 163.015 309.229 163.837 303.283C164.863 294.672 164.863 278.475 164.863 258.792ZM282.658 222.708V235.829C289.023 229.679 316.947 200.36 329.472 187.443C341.791 174.731 342.612 172.681 342.612 170.221C342.612 168.581 341.586 166.94 339.943 166.325C338.506 165.71 338.095 165.3 338.095 164.48C338.095 163.66 339.327 163.25 341.175 163.25C347.129 163.25 346.513 163.865 353.494 163.865C359.86 163.865 371.974 163.25 375.259 163.25C378.133 163.25 378.749 163.865 378.749 164.685C378.749 165.505 378.339 165.915 376.491 166.12C372.59 166.53 368.894 167.351 366.019 168.581C360.886 170.631 356.985 173.091 344.666 184.983C326.597 202.41 303.19 225.578 297.852 231.524C310.787 245.671 348.156 283.601 357.806 292.622C374.643 308.409 381.829 312.919 391.685 314.765C393.533 315.175 395.586 315.38 397.639 315.38C399.282 315.38 400.514 315.79 400.514 316.815C400.514 317.84 399.692 318.25 397.434 318.25H382.24C364.377 318.25 359.654 315.995 350.004 308.409C337.685 298.772 300.726 259.202 282.658 237.675V258.792C282.658 278.475 282.658 294.672 283.684 303.283C284.3 309.229 285.532 313.739 291.692 314.56C294.566 314.97 298.673 315.38 299.905 315.38C301.753 315.38 302.369 316.2 302.369 316.815C302.369 317.84 301.547 318.25 299.289 318.25C287.996 318.25 275.061 317.635 274.034 317.635C273.007 317.635 260.893 318.25 254.734 318.25C252.475 318.25 251.448 318.045 251.448 316.815C251.448 316.2 251.859 315.38 253.707 315.38C254.939 315.38 257.197 315.175 259.045 314.765C263.152 313.944 264.384 309.229 265.205 303.283C266.232 294.672 266.232 278.475 266.232 258.792V222.708C266.232 190.724 266.232 184.983 265.821 178.422C265.41 171.451 263.357 167.966 258.84 166.94C256.581 166.325 252.886 166.12 251.448 166.12C249.806 166.12 249.19 165.71 249.19 164.89C249.19 163.66 250.216 163.25 252.475 163.25C259.251 163.25 273.007 163.865 274.034 163.865C275.061 163.865 287.996 163.25 294.156 163.25C296.414 163.25 297.441 163.66 297.441 164.685C297.441 165.505 297.03 165.915 295.182 166.12C292.924 166.325 292.719 166.325 290.665 166.53C285.122 167.146 283.479 171.246 283.068 178.422C282.658 184.983 282.658 190.724 282.658 222.708ZM408.049 258.792V222.708C408.049 190.724 408.049 184.983 407.638 178.422C407.228 171.451 405.585 168.171 398.809 166.735C397.167 166.325 393.676 166.12 391.828 166.12C391.007 166.12 390.186 165.71 390.186 164.89C390.186 163.66 391.213 163.25 393.471 163.25C402.711 163.25 415.03 163.865 416.673 163.865C421.19 163.865 433.099 163.25 442.544 163.25C468.209 163.25 477.449 171.861 480.734 174.937C485.251 179.242 491 188.468 491 201.795C491 228.448 469.646 248.131 440.49 248.131C439.464 248.131 437.205 248.131 436.178 247.926C435.152 247.926 433.92 247.516 433.92 246.491C433.92 244.851 435.152 244.646 439.464 244.646C459.38 244.646 474.985 231.114 474.985 209.586C474.985 204.46 474.369 190.724 463.487 179.652C452.604 168.581 440.08 169.401 435.357 169.401C431.867 169.401 428.376 169.811 426.528 170.631C425.296 171.041 424.886 172.476 424.886 174.526V258.792C424.886 278.475 424.886 294.672 425.912 303.283C426.528 309.229 427.76 313.739 433.92 314.56C436.794 314.97 441.312 315.38 443.159 315.38C444.391 315.38 444.802 315.995 444.802 316.61C444.802 317.635 443.775 318.25 441.517 318.25C430.224 318.25 417.289 317.635 416.262 317.635C415.646 317.635 402.711 318.25 396.551 318.25C394.292 318.25 393.266 317.84 393.266 316.61C393.266 315.995 393.676 315.38 394.908 315.38C396.756 315.38 399.22 314.97 401.068 314.56C405.175 313.739 406.201 309.229 407.022 303.283C408.049 294.672 408.049 278.475 408.049 258.792Z" fill="white"/>
</svg>
