<svg width="717" height="171" viewBox="0 0 717 171" fill="none" xmlns="http://www.w3.org/2000/svg">
<path d="M412.341 18H406.264C405.905 16.2521 405.28 14.7166 404.39 13.3935C403.499 12.0703 402.421 10.9554 401.155 10.0488C399.889 9.14222 398.489 8.46023 396.953 8.00284C395.418 7.54545 393.817 7.31676 392.151 7.31676C389.112 7.31676 386.364 8.08451 383.905 9.62003C381.447 11.1555 379.495 13.418 378.049 16.4073C376.603 19.3967 375.881 23.0639 375.881 27.4091C375.881 31.7543 376.603 35.4215 378.049 38.4109C379.495 41.4002 381.447 43.6626 383.905 45.1982C386.364 46.7337 389.112 47.5014 392.151 47.5014C393.817 47.5014 395.418 47.2727 396.953 46.8153C398.489 46.358 399.889 45.676 401.155 44.7694C402.421 43.8627 403.499 42.7438 404.39 41.4125C405.28 40.0811 405.905 38.5497 406.264 36.8182H412.341C411.884 39.3828 411.05 41.6779 409.842 43.7035C408.633 45.7291 407.13 47.4483 405.333 48.8613C403.536 50.2743 401.523 51.3484 399.293 52.0835C397.063 52.8185 394.683 53.1861 392.151 53.1861C387.871 53.1861 384.065 52.1406 380.732 50.0497C377.4 47.9588 374.778 44.9858 372.867 41.1307C370.956 37.2755 370 32.7017 370 27.4091C370 22.1164 370.956 17.5426 372.867 13.6875C374.778 9.83237 377.4 6.85939 380.732 4.76847C384.065 2.67755 387.871 1.6321 392.151 1.6321C394.683 1.6321 397.063 1.99964 399.293 2.73473C401.523 3.46982 403.536 4.54385 405.333 5.95685C407.13 7.36986 408.633 9.08504 409.842 11.1025C411.05 13.1199 411.884 15.419 412.341 18ZM434.283 53.2841C430.886 53.2841 427.909 52.4755 425.352 50.8583C422.796 49.2411 420.803 46.9787 419.373 44.071C417.944 41.1633 417.229 37.7656 417.229 33.8778C417.229 29.9574 417.944 26.5352 419.373 23.6112C420.803 20.6871 422.796 18.4166 425.352 16.7994C427.909 15.1822 430.886 14.3736 434.283 14.3736C437.681 14.3736 440.658 15.1822 443.215 16.7994C445.771 18.4166 447.764 20.6871 449.193 23.6112C450.623 26.5352 451.337 29.9574 451.337 33.8778C451.337 37.7656 450.623 41.1633 449.193 44.071C447.764 46.9787 445.771 49.2411 443.215 50.8583C440.658 52.4755 437.681 53.2841 434.283 53.2841ZM434.283 48.0895C436.864 48.0895 438.988 47.4279 440.654 46.1048C442.32 44.7816 443.554 43.0419 444.354 40.8857C445.155 38.7294 445.555 36.3935 445.555 33.8778C445.555 31.3622 445.155 29.0181 444.354 26.8455C443.554 24.6729 442.32 22.9169 440.654 21.5774C438.988 20.2379 436.864 19.5682 434.283 19.5682C431.702 19.5682 429.579 20.2379 427.913 21.5774C426.247 22.9169 425.013 24.6729 424.213 26.8455C423.412 29.0181 423.012 31.3622 423.012 33.8778C423.012 36.3935 423.412 38.7294 424.213 40.8857C425.013 43.0419 426.247 44.7816 427.913 46.1048C429.579 47.4279 431.702 48.0895 434.283 48.0895ZM457.794 52.5V14.8636H463.381V20.7443H463.871C464.655 18.7351 465.921 17.171 467.669 16.052C469.417 14.9331 471.516 14.3736 473.966 14.3736C476.449 14.3736 478.519 14.9331 480.178 16.052C481.836 17.171 483.13 18.7351 484.061 20.7443H484.453C485.417 18.8004 486.863 17.2527 488.79 16.101C490.718 14.9494 493.029 14.3736 495.725 14.3736C499.09 14.3736 501.842 15.4231 503.982 17.5222C506.122 19.6213 507.192 22.8842 507.192 27.3111V52.5H501.409V27.3111C501.409 24.5341 500.65 22.5494 499.13 21.3569C497.611 20.1644 495.823 19.5682 493.764 19.5682C491.118 19.5682 489.068 20.3645 487.614 21.9572C486.16 23.5499 485.433 25.5632 485.433 27.9972V52.5H479.553V26.723C479.553 24.5831 478.858 22.8557 477.47 21.5407C476.081 20.2257 474.293 19.5682 472.104 19.5682C470.601 19.5682 469.2 19.9684 467.902 20.7688C466.603 21.5693 465.558 22.676 464.765 24.089C463.973 25.502 463.577 27.1314 463.577 28.9773V52.5H457.794ZM515.413 52.5V14.8636H521V20.7443H521.49C522.274 18.7351 523.54 17.171 525.288 16.052C527.035 14.9331 529.134 14.3736 531.585 14.3736C534.068 14.3736 536.138 14.9331 537.796 16.052C539.454 17.171 540.749 18.7351 541.68 20.7443H542.072C543.036 18.8004 544.481 17.2527 546.409 16.101C548.337 14.9494 550.648 14.3736 553.343 14.3736C556.708 14.3736 559.461 15.4231 561.601 17.5222C563.741 19.6213 564.811 22.8842 564.811 27.3111V52.5H559.028V27.3111C559.028 24.5341 558.268 22.5494 556.749 21.3569C555.23 20.1644 553.441 19.5682 551.383 19.5682C548.737 19.5682 546.687 20.3645 545.233 21.9572C543.779 23.5499 543.052 25.5632 543.052 27.9972V52.5H537.171V26.723C537.171 24.5831 536.477 22.8557 535.089 21.5407C533.7 20.2257 531.911 19.5682 529.723 19.5682C528.22 19.5682 526.819 19.9684 525.52 20.7688C524.222 21.5693 523.176 22.676 522.384 24.089C521.592 25.502 521.196 27.1314 521.196 28.9773V52.5H515.413ZM596.75 37.1122V14.8636H602.533V52.5H596.75V46.1293H596.358C595.476 48.0405 594.104 49.6617 592.242 50.9931C590.38 52.3244 588.027 52.9901 585.185 52.9901C582.833 52.9901 580.742 52.4714 578.912 51.4341C577.083 50.3968 575.645 48.8287 574.6 46.7296C573.554 44.6305 573.032 41.9801 573.032 38.7784V14.8636H578.814V38.3864C578.814 41.1307 579.586 43.3196 581.13 44.9531C582.673 46.5867 584.646 47.4034 587.047 47.4034C588.485 47.4034 589.951 47.0359 591.445 46.3008C592.94 45.5657 594.198 44.4386 595.219 42.9194C596.24 41.4002 596.75 39.4645 596.75 37.1122ZM616.537 29.8594V52.5H610.754V14.8636H616.341V20.7443H616.831C617.713 18.8331 619.052 17.2935 620.849 16.1255C622.646 14.9576 624.966 14.3736 627.808 14.3736C630.356 14.3736 632.586 14.8922 634.497 15.9295C636.408 16.9668 637.895 18.535 638.957 20.6341C640.018 22.7331 640.549 25.3835 640.549 28.5852V52.5H634.767V28.9773C634.767 26.0206 633.999 23.7133 632.463 22.0552C630.928 20.3972 628.821 19.5682 626.142 19.5682C624.296 19.5682 622.65 19.9684 621.204 20.7688C619.759 21.5693 618.619 22.7372 617.786 24.2727C616.953 25.8082 616.537 27.6704 616.537 29.8594ZM648.77 52.5V14.8636H654.553V52.5H648.77ZM651.711 8.59091C650.584 8.59091 649.616 8.20704 648.807 7.43928C647.999 6.67152 647.594 5.74858 647.594 4.67045C647.594 3.59232 647.999 2.66939 648.807 1.90163C649.616 1.13387 650.584 0.75 651.711 0.75C652.838 0.75 653.806 1.13387 654.614 1.90163C655.423 2.66939 655.827 3.59232 655.827 4.67045C655.827 5.74858 655.423 6.67152 654.614 7.43928C653.806 8.20704 652.838 8.59091 651.711 8.59091ZM679.142 14.8636V19.7642H659.638V14.8636H679.142ZM665.322 5.84659H671.105V41.7188C671.105 43.3523 671.346 44.5733 671.828 45.3819C672.31 46.1905 672.93 46.7296 673.69 46.9991C674.45 47.2686 675.254 47.4034 676.104 47.4034C676.741 47.4034 677.263 47.3667 677.672 47.2931C678.08 47.2196 678.407 47.1584 678.652 47.1094L679.828 52.304C679.436 52.451 678.889 52.6021 678.186 52.7573C677.484 52.9125 676.594 52.9901 675.515 52.9901C673.882 52.9901 672.285 52.6389 670.725 51.9364C669.165 51.234 667.875 50.1641 666.854 48.7266C665.833 47.2891 665.322 45.4759 665.322 43.2869V5.84659ZM689.225 66.5156C688.245 66.5156 687.371 66.438 686.603 66.2828C685.836 66.1277 685.305 65.9766 685.011 65.8295L686.481 60.733C688.588 61.272 690.344 61.2598 691.749 60.6962C693.154 60.1326 694.371 58.446 695.4 55.6364L696.478 52.696L682.56 14.8636H688.833L699.222 44.8551H699.614L710.004 14.8636L716.325 14.9616L700.3 57.9886C699.582 59.8999 698.691 61.4885 697.63 62.7544C696.568 64.0204 695.339 64.9638 693.942 65.5845C692.545 66.2053 690.973 66.5156 689.225 66.5156ZM371.96 118.5V68.3182H402.05V73.7088H378.037V90.6648H399.795V96.0554H378.037V118.5H371.96ZM421.836 119.284C418.438 119.284 415.461 118.476 412.905 116.858C410.348 115.241 408.355 112.979 406.926 110.071C405.497 107.163 404.782 103.766 404.782 99.8778C404.782 95.9574 405.497 92.5352 406.926 89.6112C408.355 86.6871 410.348 84.4166 412.905 82.7994C415.461 81.1822 418.438 80.3736 421.836 80.3736C425.234 80.3736 428.211 81.1822 430.767 82.7994C433.324 84.4166 435.317 86.6871 436.746 89.6112C438.175 92.5352 438.89 95.9574 438.89 99.8778C438.89 103.766 438.175 107.163 436.746 110.071C435.317 112.979 433.324 115.241 430.767 116.858C428.211 118.476 425.234 119.284 421.836 119.284ZM421.836 114.089C424.417 114.089 426.541 113.428 428.207 112.105C429.873 110.782 431.106 109.042 431.907 106.886C432.707 104.729 433.107 102.393 433.107 99.8778C433.107 97.3622 432.707 95.0181 431.907 92.8455C431.106 90.6729 429.873 88.9169 428.207 87.5774C426.541 86.2379 424.417 85.5682 421.836 85.5682C419.255 85.5682 417.131 86.2379 415.465 87.5774C413.799 88.9169 412.566 90.6729 411.765 92.8455C410.965 95.0181 410.565 97.3622 410.565 99.8778C410.565 102.393 410.965 104.729 411.765 106.886C412.566 109.042 413.799 110.782 415.465 112.105C417.131 113.428 419.255 114.089 421.836 114.089ZM445.347 118.5V80.8636H450.933V86.5483H451.325C452.012 84.6861 453.253 83.1751 455.05 82.0153C456.847 80.8555 458.872 80.2756 461.127 80.2756C461.551 80.2756 462.082 80.2837 462.719 80.3001C463.356 80.3164 463.838 80.3409 464.165 80.3736V86.2543C463.969 86.2053 463.524 86.1277 462.83 86.0215C462.135 85.9153 461.404 85.8622 460.637 85.8622C458.807 85.8622 457.178 86.242 455.748 87.0016C454.319 87.7612 453.192 88.8066 452.367 90.138C451.542 91.4693 451.129 92.9844 451.129 94.6832V118.5H445.347ZM492.38 103.112V80.8636H498.163V118.5H492.38V112.129H491.988C491.106 114.04 489.734 115.662 487.872 116.993C486.009 118.324 483.657 118.99 480.815 118.99C478.463 118.99 476.372 118.471 474.542 117.434C472.713 116.397 471.275 114.829 470.23 112.73C469.184 110.63 468.661 107.98 468.661 104.778V80.8636H474.444V104.386C474.444 107.131 475.216 109.32 476.76 110.953C478.303 112.587 480.276 113.403 482.677 113.403C484.115 113.403 485.581 113.036 487.075 112.301C488.57 111.566 489.828 110.439 490.849 108.919C491.87 107.4 492.38 105.464 492.38 103.112ZM506.384 118.5V80.8636H511.97V86.7443H512.461C513.245 84.7351 514.511 83.171 516.259 82.052C518.006 80.9331 520.105 80.3736 522.556 80.3736C525.039 80.3736 527.109 80.9331 528.767 82.052C530.425 83.171 531.72 84.7351 532.651 86.7443H533.043C534.007 84.8004 535.452 83.2527 537.38 82.101C539.307 80.9494 541.619 80.3736 544.314 80.3736C547.679 80.3736 550.432 81.4231 552.572 83.5222C554.712 85.6213 555.782 88.8842 555.782 93.3111V118.5H549.999V93.3111C549.999 90.5341 549.239 88.5494 547.72 87.3569C546.201 86.1644 544.412 85.5682 542.354 85.5682C539.708 85.5682 537.658 86.3645 536.204 87.9572C534.75 89.5499 534.023 91.5632 534.023 93.9972V118.5H528.142V92.723C528.142 90.5831 527.448 88.8556 526.06 87.5407C524.671 86.2257 522.882 85.5682 520.694 85.5682C519.191 85.5682 517.79 85.9684 516.491 86.7688C515.193 87.5693 514.147 88.676 513.355 90.089C512.563 91.502 512.167 93.1314 512.167 94.9773V118.5H506.384Z" fill="#272522"/>
<path d="M17.8632 111.542V75.4577C17.8632 43.4735 17.8632 37.7328 17.4526 31.172C17.0419 24.2011 15.3993 20.9206 8.62361 19.4854C6.98102 19.0754 3.49051 18.8704 1.64259 18.8704C0.821296 18.8704 0 18.4603 0 17.6402C0 16.4101 1.02662 16 3.28519 16C12.5248 16 24.8442 16.6151 26.4868 16.6151C31.0039 16.6151 42.9127 16 52.3576 16C78.0232 16 87.2627 24.6111 90.5479 27.6865C95.0651 31.9921 100.814 41.2183 100.814 54.545C100.814 81.1984 79.4604 100.881 50.3044 100.881C49.2778 100.881 47.0192 100.881 45.9926 100.676C44.966 100.676 43.734 100.266 43.734 99.2407C43.734 97.6005 44.966 97.3955 49.2778 97.3955C69.1942 97.3955 84.7989 83.8638 84.7989 62.336C84.7989 57.2103 84.1829 43.4735 73.3007 32.4021C62.4185 21.3307 49.8938 22.1508 45.1713 22.1508C41.6808 22.1508 38.1903 22.5608 36.3424 23.381C35.1104 23.791 34.6998 25.2262 34.6998 27.2765V111.542C34.6998 131.225 34.6998 147.422 35.7264 156.033C36.3424 161.979 37.5743 166.489 43.734 167.31C46.6086 167.72 51.1257 168.13 52.9736 168.13C54.2056 168.13 54.6162 168.745 54.6162 169.36C54.6162 170.385 53.5896 171 51.331 171C40.0382 171 27.1028 170.385 26.0762 170.385C25.4602 170.385 12.5248 171 6.36505 171C4.10648 171 3.07986 170.59 3.07986 169.36C3.07986 168.745 3.49051 168.13 4.72245 168.13C6.57037 168.13 9.03426 167.72 10.8822 167.31C14.9887 166.489 16.0153 161.979 16.8366 156.033C17.8632 147.422 17.8632 131.225 17.8632 111.542ZM135.658 75.4577V88.5794C142.023 82.4286 169.947 53.1098 182.472 40.1931C194.791 27.4815 195.612 25.4312 195.612 22.9709C195.612 21.3307 194.586 19.6905 192.943 19.0754C191.506 18.4603 191.095 18.0503 191.095 17.2302C191.095 16.4101 192.327 16 194.175 16C200.129 16 199.513 16.6151 206.494 16.6151C212.86 16.6151 224.974 16 228.259 16C231.133 16 231.749 16.6151 231.749 17.4352C231.749 18.2553 231.339 18.6653 229.491 18.8704C225.59 19.2804 221.894 20.1005 219.019 21.3307C213.886 23.381 209.985 25.8413 197.666 37.7328C179.597 55.1601 156.19 78.328 150.852 84.2738C163.787 98.4206 201.156 136.351 210.806 145.372C227.643 161.159 234.829 165.669 244.685 167.515C246.533 167.925 248.586 168.13 250.639 168.13C252.282 168.13 253.514 168.54 253.514 169.565C253.514 170.59 252.692 171 250.434 171H235.24C217.377 171 212.654 168.745 203.004 161.159C190.685 151.522 153.726 111.952 135.658 90.4246V111.542C135.658 131.225 135.658 147.422 136.684 156.033C137.3 161.979 138.532 166.489 144.692 167.31C147.566 167.72 151.673 168.13 152.905 168.13C154.753 168.13 155.369 168.95 155.369 169.565C155.369 170.59 154.547 171 152.289 171C140.996 171 128.061 170.385 127.034 170.385C126.007 170.385 113.893 171 107.734 171C105.475 171 104.448 170.795 104.448 169.565C104.448 168.95 104.859 168.13 106.707 168.13C107.939 168.13 110.197 167.925 112.045 167.515C116.152 166.694 117.384 161.979 118.205 156.033C119.232 147.422 119.232 131.225 119.232 111.542V75.4577C119.232 43.4735 119.232 37.7328 118.821 31.172C118.41 24.2011 116.357 20.7156 111.84 19.6905C109.581 19.0754 105.886 18.8704 104.448 18.8704C102.806 18.8704 102.19 18.4603 102.19 17.6402C102.19 16.4101 103.216 16 105.475 16C112.251 16 126.007 16.6151 127.034 16.6151C128.061 16.6151 140.996 16 147.156 16C149.414 16 150.441 16.4101 150.441 17.4352C150.441 18.2553 150.03 18.6653 148.182 18.8704C145.924 19.0754 145.719 19.0754 143.665 19.2804C138.122 19.8955 136.479 23.996 136.068 31.172C135.658 37.7328 135.658 43.4735 135.658 75.4577ZM261.049 111.542V75.4577C261.049 43.4735 261.049 37.7328 260.638 31.172C260.228 24.2011 258.585 20.9206 251.809 19.4854C250.167 19.0754 246.676 18.8704 244.828 18.8704C244.007 18.8704 243.186 18.4603 243.186 17.6402C243.186 16.4101 244.213 16 246.471 16C255.711 16 268.03 16.6151 269.673 16.6151C274.19 16.6151 286.099 16 295.544 16C321.209 16 330.449 24.6111 333.734 27.6865C338.251 31.9921 344 41.2183 344 54.545C344 81.1984 322.646 100.881 293.49 100.881C292.464 100.881 290.205 100.881 289.178 100.676C288.152 100.676 286.92 100.266 286.92 99.2407C286.92 97.6005 288.152 97.3955 292.464 97.3955C312.38 97.3955 327.985 83.8638 327.985 62.336C327.985 57.2103 327.369 43.4735 316.487 32.4021C305.604 21.3307 293.08 22.1508 288.357 22.1508C284.867 22.1508 281.376 22.5608 279.528 23.381C278.296 23.791 277.886 25.2262 277.886 27.2765V111.542C277.886 131.225 277.886 147.422 278.912 156.033C279.528 161.979 280.76 166.489 286.92 167.31C289.794 167.72 294.312 168.13 296.159 168.13C297.391 168.13 297.802 168.745 297.802 169.36C297.802 170.385 296.775 171 294.517 171C283.224 171 270.289 170.385 269.262 170.385C268.646 170.385 255.711 171 249.551 171C247.292 171 246.266 170.59 246.266 169.36C246.266 168.745 246.676 168.13 247.908 168.13C249.756 168.13 252.22 167.72 254.068 167.31C258.175 166.489 259.201 161.979 260.022 156.033C261.049 147.422 261.049 131.225 261.049 111.542Z" fill="#272522"/>
</svg>
