<svg width="717" height="171" viewBox="0 0 717 171" fill="none" xmlns="http://www.w3.org/2000/svg">
<path d="M412.341 17.25H406.264C405.905 15.5021 405.28 13.9666 404.39 12.6435C403.499 11.3203 402.421 10.2054 401.155 9.29883C399.889 8.39222 398.489 7.71023 396.953 7.25284C395.418 6.79545 393.817 6.56676 392.151 6.56676C389.112 6.56676 386.364 7.33451 383.905 8.87003C381.447 10.4055 379.495 12.668 378.049 15.6573C376.603 18.6467 375.881 22.3139 375.881 26.6591C375.881 31.0043 376.603 34.6715 378.049 37.6609C379.495 40.6502 381.447 42.9126 383.905 44.4482C386.364 45.9837 389.112 46.7514 392.151 46.7514C393.817 46.7514 395.418 46.5227 396.953 46.0653C398.489 45.608 399.889 44.926 401.155 44.0194C402.421 43.1127 403.499 41.9938 404.39 40.6625C405.28 39.3311 405.905 37.7997 406.264 36.0682H412.341C411.884 38.6328 411.05 40.9279 409.842 42.9535C408.633 44.9791 407.13 46.6983 405.333 48.1113C403.536 49.5243 401.523 50.5984 399.293 51.3335C397.063 52.0685 394.683 52.4361 392.151 52.4361C387.871 52.4361 384.065 51.3906 380.732 49.2997C377.4 47.2088 374.778 44.2358 372.867 40.3807C370.956 36.5255 370 31.9517 370 26.6591C370 21.3664 370.956 16.7926 372.867 12.9375C374.778 9.08237 377.4 6.10939 380.732 4.01847C384.065 1.92755 387.871 0.882102 392.151 0.882102C394.683 0.882102 397.063 1.24964 399.293 1.98473C401.523 2.71982 403.536 3.79385 405.333 5.20685C407.13 6.61986 408.633 8.33504 409.842 10.3525C411.05 12.3699 411.884 14.669 412.341 17.25ZM434.283 52.5341C430.886 52.5341 427.909 51.7255 425.352 50.1083C422.796 48.4911 420.803 46.2287 419.373 43.321C417.944 40.4133 417.229 37.0156 417.229 33.1278C417.229 29.2074 417.944 25.7852 419.373 22.8612C420.803 19.9371 422.796 17.6666 425.352 16.0494C427.909 14.4322 430.886 13.6236 434.283 13.6236C437.681 13.6236 440.658 14.4322 443.215 16.0494C445.771 17.6666 447.764 19.9371 449.193 22.8612C450.623 25.7852 451.337 29.2074 451.337 33.1278C451.337 37.0156 450.623 40.4133 449.193 43.321C447.764 46.2287 445.771 48.4911 443.215 50.1083C440.658 51.7255 437.681 52.5341 434.283 52.5341ZM434.283 47.3395C436.864 47.3395 438.988 46.6779 440.654 45.3548C442.32 44.0316 443.554 42.2919 444.354 40.1357C445.155 37.9794 445.555 35.6435 445.555 33.1278C445.555 30.6122 445.155 28.2681 444.354 26.0955C443.554 23.9229 442.32 22.1669 440.654 20.8274C438.988 19.4879 436.864 18.8182 434.283 18.8182C431.702 18.8182 429.579 19.4879 427.913 20.8274C426.247 22.1669 425.013 23.9229 424.213 26.0955C423.412 28.2681 423.012 30.6122 423.012 33.1278C423.012 35.6435 423.412 37.9794 424.213 40.1357C425.013 42.2919 426.247 44.0316 427.913 45.3548C429.579 46.6779 431.702 47.3395 434.283 47.3395ZM457.794 51.75V14.1136H463.381V19.9943H463.871C464.655 17.9851 465.921 16.421 467.669 15.302C469.417 14.1831 471.516 13.6236 473.966 13.6236C476.449 13.6236 478.519 14.1831 480.178 15.302C481.836 16.421 483.13 17.9851 484.061 19.9943H484.453C485.417 18.0504 486.863 16.5027 488.79 15.351C490.718 14.1994 493.029 13.6236 495.725 13.6236C499.09 13.6236 501.842 14.6731 503.982 16.7722C506.122 18.8713 507.192 22.1342 507.192 26.5611V51.75H501.409V26.5611C501.409 23.7841 500.65 21.7994 499.13 20.6069C497.611 19.4144 495.823 18.8182 493.764 18.8182C491.118 18.8182 489.068 19.6145 487.614 21.2072C486.16 22.7999 485.433 24.8132 485.433 27.2472V51.75H479.553V25.973C479.553 23.8331 478.858 22.1057 477.47 20.7907C476.081 19.4757 474.293 18.8182 472.104 18.8182C470.601 18.8182 469.2 19.2184 467.902 20.0188C466.603 20.8193 465.558 21.926 464.765 23.339C463.973 24.752 463.577 26.3814 463.577 28.2273V51.75H457.794ZM515.413 51.75V14.1136H521V19.9943H521.49C522.274 17.9851 523.54 16.421 525.288 15.302C527.035 14.1831 529.134 13.6236 531.585 13.6236C534.068 13.6236 536.138 14.1831 537.796 15.302C539.454 16.421 540.749 17.9851 541.68 19.9943H542.072C543.036 18.0504 544.481 16.5027 546.409 15.351C548.337 14.1994 550.648 13.6236 553.343 13.6236C556.708 13.6236 559.461 14.6731 561.601 16.7722C563.741 18.8713 564.811 22.1342 564.811 26.5611V51.75H559.028V26.5611C559.028 23.7841 558.268 21.7994 556.749 20.6069C555.23 19.4144 553.441 18.8182 551.383 18.8182C548.737 18.8182 546.687 19.6145 545.233 21.2072C543.779 22.7999 543.052 24.8132 543.052 27.2472V51.75H537.171V25.973C537.171 23.8331 536.477 22.1057 535.089 20.7907C533.7 19.4757 531.911 18.8182 529.723 18.8182C528.22 18.8182 526.819 19.2184 525.52 20.0188C524.222 20.8193 523.176 21.926 522.384 23.339C521.592 24.752 521.196 26.3814 521.196 28.2273V51.75H515.413ZM596.75 36.3622V14.1136H602.533V51.75H596.75V45.3793H596.358C595.476 47.2905 594.104 48.9117 592.242 50.2431C590.38 51.5744 588.027 52.2401 585.185 52.2401C582.833 52.2401 580.742 51.7214 578.912 50.6841C577.083 49.6468 575.645 48.0787 574.6 45.9796C573.554 43.8805 573.032 41.2301 573.032 38.0284V14.1136H578.814V37.6364C578.814 40.3807 579.586 42.5696 581.13 44.2031C582.673 45.8367 584.646 46.6534 587.047 46.6534C588.485 46.6534 589.951 46.2859 591.445 45.5508C592.94 44.8157 594.198 43.6886 595.219 42.1694C596.24 40.6502 596.75 38.7145 596.75 36.3622ZM616.537 29.1094V51.75H610.754V14.1136H616.341V19.9943H616.831C617.713 18.0831 619.052 16.5435 620.849 15.3755C622.646 14.2076 624.966 13.6236 627.808 13.6236C630.356 13.6236 632.586 14.1422 634.497 15.1795C636.408 16.2168 637.895 17.785 638.957 19.8841C640.018 21.9831 640.549 24.6335 640.549 27.8352V51.75H634.767V28.2273C634.767 25.2706 633.999 22.9633 632.463 21.3052C630.928 19.6472 628.821 18.8182 626.142 18.8182C624.296 18.8182 622.65 19.2184 621.204 20.0188C619.759 20.8193 618.619 21.9872 617.786 23.5227C616.953 25.0582 616.537 26.9204 616.537 29.1094ZM648.77 51.75V14.1136H654.553V51.75H648.77ZM651.711 7.84091C650.584 7.84091 649.616 7.45704 648.807 6.68928C647.999 5.92152 647.594 4.99858 647.594 3.92045C647.594 2.84232 647.999 1.91939 648.807 1.15163C649.616 0.383874 650.584 0 651.711 0C652.838 0 653.806 0.383874 654.614 1.15163C655.423 1.91939 655.827 2.84232 655.827 3.92045C655.827 4.99858 655.423 5.92152 654.614 6.68928C653.806 7.45704 652.838 7.84091 651.711 7.84091ZM679.142 14.1136V19.0142H659.638V14.1136H679.142ZM665.322 5.09659H671.105V40.9688C671.105 42.6023 671.346 43.8233 671.828 44.6319C672.31 45.4405 672.93 45.9796 673.69 46.2491C674.45 46.5186 675.254 46.6534 676.104 46.6534C676.741 46.6534 677.263 46.6167 677.672 46.5431C678.08 46.4696 678.407 46.4084 678.652 46.3594L679.828 51.554C679.436 51.701 678.889 51.8521 678.186 52.0073C677.484 52.1625 676.594 52.2401 675.515 52.2401C673.882 52.2401 672.285 51.8889 670.725 51.1864C669.165 50.484 667.875 49.4141 666.854 47.9766C665.833 46.5391 665.322 44.7259 665.322 42.5369V5.09659ZM689.225 65.7656C688.245 65.7656 687.371 65.688 686.603 65.5328C685.836 65.3777 685.305 65.2266 685.011 65.0795L686.481 59.983C688.588 60.522 690.344 60.5098 691.749 59.9462C693.154 59.3826 694.371 57.696 695.4 54.8864L696.478 51.946L682.56 14.1136H688.833L699.222 44.1051H699.614L710.004 14.1136L716.325 14.2116L700.3 57.2386C699.582 59.1499 698.691 60.7385 697.63 62.0044C696.568 63.2704 695.339 64.2138 693.942 64.8345C692.545 65.4553 690.973 65.7656 689.225 65.7656ZM371.96 117.75V67.5682H402.05V72.9588H378.037V89.9148H399.795V95.3054H378.037V117.75H371.96ZM421.836 118.534C418.438 118.534 415.461 117.726 412.905 116.108C410.348 114.491 408.355 112.229 406.926 109.321C405.497 106.413 404.782 103.016 404.782 99.1278C404.782 95.2074 405.497 91.7852 406.926 88.8612C408.355 85.9371 410.348 83.6666 412.905 82.0494C415.461 80.4322 418.438 79.6236 421.836 79.6236C425.234 79.6236 428.211 80.4322 430.767 82.0494C433.324 83.6666 435.317 85.9371 436.746 88.8612C438.175 91.7852 438.89 95.2074 438.89 99.1278C438.89 103.016 438.175 106.413 436.746 109.321C435.317 112.229 433.324 114.491 430.767 116.108C428.211 117.726 425.234 118.534 421.836 118.534ZM421.836 113.339C424.417 113.339 426.541 112.678 428.207 111.355C429.873 110.032 431.106 108.292 431.907 106.136C432.707 103.979 433.107 101.643 433.107 99.1278C433.107 96.6122 432.707 94.2681 431.907 92.0955C431.106 89.9229 429.873 88.1669 428.207 86.8274C426.541 85.4879 424.417 84.8182 421.836 84.8182C419.255 84.8182 417.131 85.4879 415.465 86.8274C413.799 88.1669 412.566 89.9229 411.765 92.0955C410.965 94.2681 410.565 96.6122 410.565 99.1278C410.565 101.643 410.965 103.979 411.765 106.136C412.566 108.292 413.799 110.032 415.465 111.355C417.131 112.678 419.255 113.339 421.836 113.339ZM445.347 117.75V80.1136H450.933V85.7983H451.325C452.012 83.9361 453.253 82.4251 455.05 81.2653C456.847 80.1055 458.872 79.5256 461.127 79.5256C461.551 79.5256 462.082 79.5337 462.719 79.5501C463.356 79.5664 463.838 79.5909 464.165 79.6236V85.5043C463.969 85.4553 463.524 85.3777 462.83 85.2715C462.135 85.1653 461.404 85.1122 460.637 85.1122C458.807 85.1122 457.178 85.492 455.748 86.2516C454.319 87.0112 453.192 88.0566 452.367 89.388C451.542 90.7193 451.129 92.2344 451.129 93.9332V117.75H445.347ZM492.38 102.362V80.1136H498.163V117.75H492.38V111.379H491.988C491.106 113.29 489.734 114.912 487.872 116.243C486.009 117.574 483.657 118.24 480.815 118.24C478.463 118.24 476.372 117.721 474.542 116.684C472.713 115.647 471.275 114.079 470.23 111.98C469.184 109.88 468.661 107.23 468.661 104.028V80.1136H474.444V103.636C474.444 106.381 475.216 108.57 476.76 110.203C478.303 111.837 480.276 112.653 482.677 112.653C484.115 112.653 485.581 112.286 487.075 111.551C488.57 110.816 489.828 109.689 490.849 108.169C491.87 106.65 492.38 104.715 492.38 102.362ZM506.384 117.75V80.1136H511.97V85.9943H512.461C513.245 83.9851 514.511 82.421 516.259 81.302C518.006 80.1831 520.105 79.6236 522.556 79.6236C525.039 79.6236 527.109 80.1831 528.767 81.302C530.425 82.421 531.72 83.9851 532.651 85.9943H533.043C534.007 84.0504 535.452 82.5027 537.38 81.351C539.307 80.1994 541.619 79.6236 544.314 79.6236C547.679 79.6236 550.432 80.6731 552.572 82.7722C554.712 84.8713 555.782 88.1342 555.782 92.5611V117.75H549.999V92.5611C549.999 89.7841 549.239 87.7994 547.72 86.6069C546.201 85.4144 544.412 84.8182 542.354 84.8182C539.708 84.8182 537.658 85.6145 536.204 87.2072C534.75 88.7999 534.023 90.8132 534.023 93.2472V117.75H528.142V91.973C528.142 89.8331 527.448 88.1057 526.06 86.7907C524.671 85.4757 522.882 84.8182 520.694 84.8182C519.191 84.8182 517.79 85.2184 516.491 86.0188C515.193 86.8193 514.147 87.926 513.355 89.339C512.563 90.752 512.167 92.3814 512.167 94.2273V117.75H506.384Z" fill="white"/>
<path d="M17.8632 110.792V74.7077C17.8632 42.7235 17.8632 36.9828 17.4526 30.422C17.0419 23.4511 15.3993 20.1706 8.62361 18.7354C6.98102 18.3254 3.49051 18.1204 1.64259 18.1204C0.821296 18.1204 0 17.7103 0 16.8902C0 15.6601 1.02662 15.25 3.28519 15.25C12.5248 15.25 24.8442 15.8651 26.4868 15.8651C31.0039 15.8651 42.9127 15.25 52.3577 15.25C78.0232 15.25 87.2627 23.8611 90.5479 26.9365C95.0651 31.2421 100.814 40.4683 100.814 53.795C100.814 80.4484 79.4604 100.131 50.3044 100.131C49.2778 100.131 47.0192 100.131 45.9926 99.9259C44.966 99.9259 43.734 99.5159 43.734 98.4907C43.734 96.8505 44.966 96.6455 49.2778 96.6455C69.1942 96.6455 84.7989 83.1138 84.7989 61.586C84.7989 56.4603 84.1829 42.7235 73.3007 31.6521C62.4185 20.5807 49.8938 21.4008 45.1713 21.4008C41.6808 21.4008 38.1903 21.8108 36.3424 22.631C35.1104 23.041 34.6998 24.4762 34.6998 26.5265V110.792C34.6998 130.475 34.6998 146.672 35.7264 155.283C36.3424 161.229 37.5743 165.739 43.734 166.56C46.6086 166.97 51.1257 167.38 52.9736 167.38C54.2056 167.38 54.6162 167.995 54.6162 168.61C54.6162 169.635 53.5896 170.25 51.331 170.25C40.0382 170.25 27.1028 169.635 26.0762 169.635C25.4602 169.635 12.5248 170.25 6.36505 170.25C4.10648 170.25 3.07986 169.84 3.07986 168.61C3.07986 167.995 3.49051 167.38 4.72245 167.38C6.57037 167.38 9.03426 166.97 10.8822 166.56C14.9887 165.739 16.0153 161.229 16.8366 155.283C17.8632 146.672 17.8632 130.475 17.8632 110.792ZM135.658 74.7077V87.8294C142.023 81.6786 169.947 52.3598 182.472 39.4431C194.791 26.7315 195.612 24.6812 195.612 22.2209C195.612 20.5807 194.586 18.9405 192.943 18.3254C191.506 17.7103 191.095 17.3003 191.095 16.4802C191.095 15.6601 192.327 15.25 194.175 15.25C200.129 15.25 199.513 15.8651 206.494 15.8651C212.86 15.8651 224.974 15.25 228.259 15.25C231.133 15.25 231.749 15.8651 231.749 16.6852C231.749 17.5053 231.339 17.9153 229.491 18.1204C225.59 18.5304 221.894 19.3505 219.019 20.5807C213.886 22.631 209.985 25.0913 197.666 36.9828C179.597 54.4101 156.19 77.578 150.852 83.5238C163.787 97.6706 201.156 135.601 210.806 144.622C227.643 160.409 234.829 164.919 244.685 166.765C246.533 167.175 248.586 167.38 250.639 167.38C252.282 167.38 253.514 167.79 253.514 168.815C253.514 169.84 252.692 170.25 250.434 170.25H235.24C217.377 170.25 212.654 167.995 203.004 160.409C190.685 150.772 153.726 111.202 135.658 89.6746V110.792C135.658 130.475 135.658 146.672 136.684 155.283C137.3 161.229 138.532 165.739 144.692 166.56C147.566 166.97 151.673 167.38 152.905 167.38C154.753 167.38 155.369 168.2 155.369 168.815C155.369 169.84 154.547 170.25 152.289 170.25C140.996 170.25 128.061 169.635 127.034 169.635C126.007 169.635 113.893 170.25 107.734 170.25C105.475 170.25 104.448 170.045 104.448 168.815C104.448 168.2 104.859 167.38 106.707 167.38C107.939 167.38 110.197 167.175 112.045 166.765C116.152 165.944 117.384 161.229 118.205 155.283C119.232 146.672 119.232 130.475 119.232 110.792V74.7077C119.232 42.7235 119.232 36.9828 118.821 30.422C118.41 23.4511 116.357 19.9656 111.84 18.9405C109.581 18.3254 105.886 18.1204 104.448 18.1204C102.806 18.1204 102.19 17.7103 102.19 16.8902C102.19 15.6601 103.216 15.25 105.475 15.25C112.251 15.25 126.007 15.8651 127.034 15.8651C128.061 15.8651 140.996 15.25 147.156 15.25C149.414 15.25 150.441 15.6601 150.441 16.6852C150.441 17.5053 150.03 17.9153 148.182 18.1204C145.924 18.3254 145.719 18.3254 143.665 18.5304C138.122 19.1455 136.479 23.246 136.068 30.422C135.658 36.9828 135.658 42.7235 135.658 74.7077ZM261.049 110.792V74.7077C261.049 42.7235 261.049 36.9828 260.638 30.422C260.228 23.4511 258.585 20.1706 251.809 18.7354C250.167 18.3254 246.676 18.1204 244.828 18.1204C244.007 18.1204 243.186 17.7103 243.186 16.8902C243.186 15.6601 244.213 15.25 246.471 15.25C255.711 15.25 268.03 15.8651 269.673 15.8651C274.19 15.8651 286.099 15.25 295.544 15.25C321.209 15.25 330.449 23.8611 333.734 26.9365C338.251 31.2421 344 40.4683 344 53.795C344 80.4484 322.646 100.131 293.49 100.131C292.464 100.131 290.205 100.131 289.178 99.9259C288.152 99.9259 286.92 99.5159 286.92 98.4907C286.92 96.8505 288.152 96.6455 292.464 96.6455C312.38 96.6455 327.985 83.1138 327.985 61.586C327.985 56.4603 327.369 42.7235 316.487 31.6521C305.604 20.5807 293.08 21.4008 288.357 21.4008C284.867 21.4008 281.376 21.8108 279.528 22.631C278.296 23.041 277.886 24.4762 277.886 26.5265V110.792C277.886 130.475 277.886 146.672 278.912 155.283C279.528 161.229 280.76 165.739 286.92 166.56C289.794 166.97 294.312 167.38 296.159 167.38C297.391 167.38 297.802 167.995 297.802 168.61C297.802 169.635 296.775 170.25 294.517 170.25C283.224 170.25 270.289 169.635 269.262 169.635C268.646 169.635 255.711 170.25 249.551 170.25C247.292 170.25 246.266 169.84 246.266 168.61C246.266 167.995 246.676 167.38 247.908 167.38C249.756 167.38 252.22 166.97 254.068 166.56C258.175 165.739 259.201 161.229 260.022 155.283C261.049 146.672 261.049 130.475 261.049 110.792Z" fill="white"/>
</svg>
