<svg width="866" height="466" viewBox="0 0 866 466" fill="none" xmlns="http://www.w3.org/2000/svg">
<path d="M546.599 161.232C546.305 158.749 545.113 156.821 543.022 155.449C540.931 154.077 538.366 153.391 535.328 153.391C533.107 153.391 531.167 153.75 529.509 154.469C527.851 155.188 526.56 156.176 525.637 157.434C524.714 158.691 524.253 160.121 524.253 161.722C524.253 163.061 524.575 164.209 525.221 165.164C525.866 166.12 526.695 166.912 527.708 167.541C528.721 168.17 529.782 168.684 530.893 169.085C532.004 169.485 533.025 169.808 533.956 170.053L539.053 171.425C540.359 171.768 541.817 172.241 543.426 172.846C545.035 173.45 546.579 174.271 548.057 175.308C549.536 176.346 550.757 177.673 551.721 179.29C552.684 180.907 553.166 182.892 553.166 185.244C553.166 187.956 552.46 190.406 551.047 192.595C549.634 194.784 547.576 196.524 544.872 197.814C542.169 199.105 538.889 199.75 535.034 199.75C531.44 199.75 528.333 199.17 525.711 198.01C523.089 196.85 521.031 195.233 519.536 193.159C518.041 191.084 517.196 188.675 517 185.93H523.273C523.436 187.825 524.077 189.389 525.196 190.623C526.315 191.856 527.736 192.771 529.46 193.367C531.183 193.963 533.041 194.261 535.034 194.261C537.354 194.261 539.436 193.882 541.282 193.122C543.128 192.362 544.59 191.301 545.668 189.937C546.746 188.573 547.286 186.976 547.286 185.146C547.286 183.48 546.82 182.124 545.889 181.079C544.958 180.033 543.733 179.184 542.213 178.531C540.694 177.877 539.053 177.305 537.288 176.815L531.114 175.051C527.193 173.924 524.09 172.315 521.803 170.224C519.516 168.133 518.372 165.397 518.372 162.016C518.372 159.206 519.136 156.752 520.663 154.653C522.191 152.553 524.249 150.92 526.838 149.752C529.427 148.584 532.322 148 535.524 148C538.759 148 541.634 148.576 544.149 149.727C546.665 150.879 548.662 152.451 550.14 154.444C551.618 156.437 552.398 158.7 552.48 161.232H546.599ZM575.305 199.652C571.776 199.652 568.738 198.819 566.19 197.153C563.641 195.486 561.681 193.191 560.309 190.267C558.937 187.343 558.251 184.003 558.251 180.246C558.251 176.423 558.957 173.046 560.37 170.114C561.783 167.182 563.76 164.887 566.3 163.229C568.84 161.57 571.809 160.741 575.207 160.741C577.853 160.741 580.238 161.232 582.362 162.212C584.485 163.192 586.225 164.564 587.581 166.328C588.937 168.092 589.778 170.151 590.104 172.503H584.322C583.881 170.788 582.905 169.264 581.394 167.933C579.883 166.602 577.853 165.936 575.305 165.936C573.051 165.936 571.078 166.52 569.387 167.688C567.697 168.856 566.382 170.498 565.442 172.613C564.503 174.729 564.033 177.207 564.033 180.05C564.033 182.957 564.495 185.489 565.418 187.646C566.341 189.802 567.648 191.476 569.338 192.669C571.029 193.861 573.018 194.457 575.305 194.457C576.808 194.457 578.172 194.196 579.397 193.673C580.622 193.151 581.659 192.399 582.509 191.419C583.358 190.439 583.962 189.263 584.322 187.891H590.104C589.778 190.112 588.973 192.109 587.691 193.882C586.409 195.654 584.718 197.059 582.619 198.096C580.52 199.133 578.082 199.652 575.305 199.652ZM601.952 176.227V198.868H596.169V148.686H601.952V167.112H602.442C603.324 165.168 604.651 163.621 606.424 162.469C608.196 161.317 610.561 160.741 613.517 160.741C616.082 160.741 618.328 161.252 620.255 162.273C622.183 163.294 623.682 164.854 624.752 166.953C625.822 169.052 626.357 171.719 626.357 174.953V198.868H620.574V175.345C620.574 172.356 619.802 170.04 618.259 168.399C616.715 166.757 614.579 165.936 611.851 165.936C609.956 165.936 608.261 166.336 606.767 167.137C605.272 167.937 604.096 169.105 603.238 170.641C602.381 172.176 601.952 174.038 601.952 176.227ZM649.867 199.652C646.47 199.652 643.493 198.843 640.936 197.226C638.38 195.609 636.387 193.347 634.957 190.439C633.528 187.531 632.813 184.134 632.813 180.246C632.813 176.325 633.528 172.903 634.957 169.979C636.387 167.055 638.38 164.784 640.936 163.167C643.493 161.55 646.47 160.741 649.867 160.741C653.265 160.741 656.242 161.55 658.799 163.167C661.355 164.784 663.348 167.055 664.777 169.979C666.207 172.903 666.921 176.325 666.921 180.246C666.921 184.134 666.207 187.531 664.777 190.439C663.348 193.347 661.355 195.609 658.799 197.226C656.242 198.843 653.265 199.652 649.867 199.652ZM649.867 194.457C652.448 194.457 654.572 193.796 656.238 192.473C657.904 191.149 659.138 189.41 659.938 187.254C660.739 185.097 661.139 182.761 661.139 180.246C661.139 177.73 660.739 175.386 659.938 173.213C659.138 171.041 657.904 169.285 656.238 167.945C654.572 166.606 652.448 165.936 649.867 165.936C647.286 165.936 645.163 166.606 643.497 167.945C641.831 169.285 640.597 171.041 639.797 173.213C638.996 175.386 638.596 177.73 638.596 180.246C638.596 182.761 638.996 185.097 639.797 187.254C640.597 189.41 641.831 191.149 643.497 192.473C645.163 193.796 647.286 194.457 649.867 194.457ZM688.668 199.652C685.27 199.652 682.293 198.843 679.737 197.226C677.18 195.609 675.187 193.347 673.758 190.439C672.329 187.531 671.614 184.134 671.614 180.246C671.614 176.325 672.329 172.903 673.758 169.979C675.187 167.055 677.18 164.784 679.737 163.167C682.293 161.55 685.27 160.741 688.668 160.741C692.066 160.741 695.043 161.55 697.599 163.167C700.156 164.784 702.149 167.055 703.578 169.979C705.007 172.903 705.722 176.325 705.722 180.246C705.722 184.134 705.007 187.531 703.578 190.439C702.149 193.347 700.156 195.609 697.599 197.226C695.043 198.843 692.066 199.652 688.668 199.652ZM688.668 194.457C691.249 194.457 693.372 193.796 695.039 192.473C696.705 191.149 697.938 189.41 698.739 187.254C699.539 185.097 699.939 182.761 699.939 180.246C699.939 177.73 699.539 175.386 698.739 173.213C697.938 171.041 696.705 169.285 695.039 167.945C693.372 166.606 691.249 165.936 688.668 165.936C686.087 165.936 683.963 166.606 682.297 167.945C680.631 169.285 679.398 171.041 678.597 173.213C677.797 175.386 677.397 177.73 677.397 180.246C677.397 182.761 677.797 185.097 678.597 187.254C679.398 189.41 680.631 191.149 682.297 192.473C683.963 193.796 686.087 194.457 688.668 194.457ZM717.961 148.686V198.868H712.179V148.686H717.961Z" fill="#272522"/>
<path d="M164.863 258.792V222.708C164.863 190.724 164.863 184.983 164.453 178.422C164.042 171.451 162.399 168.171 155.624 166.735C153.981 166.325 150.491 166.12 148.643 166.12C147.821 166.12 147 165.71 147 164.89C147 163.66 148.027 163.25 150.285 163.25C159.525 163.25 171.844 163.865 173.487 163.865C178.004 163.865 189.913 163.25 199.358 163.25C225.023 163.25 234.263 171.861 237.548 174.937C242.065 179.242 247.814 188.468 247.814 201.795C247.814 228.448 226.46 248.131 197.304 248.131C196.278 248.131 194.019 248.131 192.993 247.926C191.966 247.926 190.734 247.516 190.734 246.491C190.734 244.851 191.966 244.646 196.278 244.646C216.194 244.646 231.799 231.114 231.799 209.586C231.799 204.46 231.183 190.724 220.301 179.652C209.419 168.581 196.894 169.401 192.171 169.401C188.681 169.401 185.19 169.811 183.342 170.631C182.11 171.041 181.7 172.476 181.7 174.526V258.792C181.7 278.475 181.7 294.672 182.726 303.283C183.342 309.229 184.574 313.739 190.734 314.56C193.609 314.97 198.126 315.38 199.974 315.38C201.206 315.38 201.616 315.995 201.616 316.61C201.616 317.635 200.59 318.25 198.331 318.25C187.038 318.25 174.103 317.635 173.076 317.635C172.46 317.635 159.525 318.25 153.365 318.25C151.106 318.25 150.08 317.84 150.08 316.61C150.08 315.995 150.491 315.38 151.722 315.38C153.57 315.38 156.034 314.97 157.882 314.56C161.989 313.739 163.015 309.229 163.837 303.283C164.863 294.672 164.863 278.475 164.863 258.792ZM282.658 222.708V235.829C289.023 229.679 316.947 200.36 329.472 187.443C341.791 174.731 342.612 172.681 342.612 170.221C342.612 168.581 341.586 166.94 339.943 166.325C338.506 165.71 338.095 165.3 338.095 164.48C338.095 163.66 339.327 163.25 341.175 163.25C347.129 163.25 346.513 163.865 353.494 163.865C359.86 163.865 371.974 163.25 375.259 163.25C378.133 163.25 378.749 163.865 378.749 164.685C378.749 165.505 378.339 165.915 376.491 166.12C372.59 166.53 368.894 167.351 366.019 168.581C360.886 170.631 356.985 173.091 344.666 184.983C326.597 202.41 303.19 225.578 297.852 231.524C310.787 245.671 348.156 283.601 357.806 292.622C374.643 308.409 381.829 312.919 391.685 314.765C393.533 315.175 395.586 315.38 397.639 315.38C399.282 315.38 400.514 315.79 400.514 316.815C400.514 317.84 399.692 318.25 397.434 318.25H382.24C364.377 318.25 359.654 315.995 350.004 308.409C337.685 298.772 300.726 259.202 282.658 237.675V258.792C282.658 278.475 282.658 294.672 283.684 303.283C284.3 309.229 285.532 313.739 291.692 314.56C294.566 314.97 298.673 315.38 299.905 315.38C301.753 315.38 302.369 316.2 302.369 316.815C302.369 317.84 301.547 318.25 299.289 318.25C287.996 318.25 275.061 317.635 274.034 317.635C273.007 317.635 260.893 318.25 254.734 318.25C252.475 318.25 251.448 318.045 251.448 316.815C251.448 316.2 251.859 315.38 253.707 315.38C254.939 315.38 257.197 315.175 259.045 314.765C263.152 313.944 264.384 309.229 265.205 303.283C266.232 294.672 266.232 278.475 266.232 258.792V222.708C266.232 190.724 266.232 184.983 265.821 178.422C265.41 171.451 263.357 167.966 258.84 166.94C256.581 166.325 252.886 166.12 251.448 166.12C249.806 166.12 249.19 165.71 249.19 164.89C249.19 163.66 250.216 163.25 252.475 163.25C259.251 163.25 273.007 163.865 274.034 163.865C275.061 163.865 287.996 163.25 294.156 163.25C296.414 163.25 297.441 163.66 297.441 164.685C297.441 165.505 297.03 165.915 295.182 166.12C292.924 166.325 292.719 166.325 290.665 166.53C285.122 167.146 283.479 171.246 283.068 178.422C282.658 184.983 282.658 190.724 282.658 222.708ZM408.049 258.792V222.708C408.049 190.724 408.049 184.983 407.638 178.422C407.228 171.451 405.585 168.171 398.809 166.735C397.167 166.325 393.676 166.12 391.828 166.12C391.007 166.12 390.186 165.71 390.186 164.89C390.186 163.66 391.213 163.25 393.471 163.25C402.711 163.25 415.03 163.865 416.673 163.865C421.19 163.865 433.099 163.25 442.544 163.25C468.209 163.25 477.449 171.861 480.734 174.937C485.251 179.242 491 188.468 491 201.795C491 228.448 469.646 248.131 440.49 248.131C439.464 248.131 437.205 248.131 436.178 247.926C435.152 247.926 433.92 247.516 433.92 246.491C433.92 244.851 435.152 244.646 439.464 244.646C459.38 244.646 474.985 231.114 474.985 209.586C474.985 204.46 474.369 190.724 463.487 179.652C452.604 168.581 440.08 169.401 435.357 169.401C431.867 169.401 428.376 169.811 426.528 170.631C425.296 171.041 424.886 172.476 424.886 174.526V258.792C424.886 278.475 424.886 294.672 425.912 303.283C426.528 309.229 427.76 313.739 433.92 314.56C436.794 314.97 441.312 315.38 443.159 315.38C444.391 315.38 444.802 315.995 444.802 316.61C444.802 317.635 443.775 318.25 441.517 318.25C430.224 318.25 417.289 317.635 416.262 317.635C415.646 317.635 402.711 318.25 396.551 318.25C394.292 318.25 393.266 317.84 393.266 316.61C393.266 315.995 393.676 315.38 394.908 315.38C396.756 315.38 399.22 314.97 401.068 314.56C405.175 313.739 406.201 309.229 407.022 303.283C408.049 294.672 408.049 278.475 408.049 258.792Z" fill="#272522"/>
</svg>
