<svg width="519" height="171" viewBox="0 0 519 171" fill="none" xmlns="http://www.w3.org/2000/svg">
<path d="M385.486 50.9318H370V0.75H386.172C391.04 0.75 395.205 1.75052 398.668 3.7516C402.131 5.75267 404.786 8.61948 406.632 12.3521C408.478 16.0847 409.401 20.5483 409.401 25.7429C409.401 30.9702 408.469 35.4664 406.607 39.2317C404.745 42.997 402.033 45.8883 398.472 47.9057C394.911 49.9231 390.582 50.9318 385.486 50.9318ZM376.077 45.5412H385.094C389.243 45.5412 392.681 44.7408 395.409 43.1399C398.137 41.5391 400.171 39.2603 401.511 36.3036C402.85 33.3469 403.52 29.8267 403.52 25.7429C403.52 21.6917 402.858 18.2001 401.535 15.2679C400.212 12.3357 398.235 10.0815 395.605 8.50515C392.975 6.92879 389.7 6.14062 385.78 6.14062H376.077V45.5412ZM431.735 51.7159C428.337 51.7159 425.36 50.9073 422.804 49.2901C420.247 47.6729 418.255 45.4105 416.825 42.5028C415.396 39.5952 414.681 36.1975 414.681 32.3097C414.681 28.3892 415.396 24.967 416.825 22.043C418.255 19.1189 420.247 16.8484 422.804 15.2312C425.36 13.614 428.337 12.8054 431.735 12.8054C435.133 12.8054 438.11 13.614 440.666 15.2312C443.223 16.8484 445.216 19.1189 446.645 22.043C448.075 24.967 448.789 28.3892 448.789 32.3097C448.789 36.1975 448.075 39.5952 446.645 42.5028C445.216 45.4105 443.223 47.6729 440.666 49.2901C438.11 50.9073 435.133 51.7159 431.735 51.7159ZM431.735 46.5213C434.316 46.5213 436.44 45.8597 438.106 44.5366C439.772 43.2134 441.005 41.4737 441.806 39.3175C442.606 37.1612 443.007 34.8253 443.007 32.3097C443.007 29.794 442.606 27.4499 441.806 25.2773C441.005 23.1047 439.772 21.3487 438.106 20.0092C436.44 18.6697 434.316 18 431.735 18C429.154 18 427.031 18.6697 425.364 20.0092C423.698 21.3487 422.465 23.1047 421.665 25.2773C420.864 27.4499 420.464 29.794 420.464 32.3097C420.464 34.8253 420.864 37.1612 421.665 39.3175C422.465 41.4737 423.698 43.2134 425.364 44.5366C427.031 45.8597 429.154 46.5213 431.735 46.5213ZM470.536 51.7159C467.007 51.7159 463.969 50.8828 461.421 49.2166C458.872 47.5504 456.912 45.2553 455.54 42.3313C454.168 39.4073 453.482 36.0668 453.482 32.3097C453.482 28.4872 454.188 25.1099 455.601 22.1777C457.014 19.2455 458.991 16.9505 461.531 15.2924C464.071 13.6344 467.04 12.8054 470.438 12.8054C473.084 12.8054 475.469 13.2954 477.592 14.2756C479.716 15.2557 481.456 16.6278 482.812 18.392C484.167 20.1563 485.009 22.2145 485.335 24.5668H479.553C479.112 22.8516 478.136 21.3283 476.625 19.997C475.114 18.6657 473.084 18 470.536 18C468.281 18 466.309 18.584 464.618 19.752C462.928 20.9199 461.613 22.5616 460.673 24.677C459.734 26.7924 459.264 29.2713 459.264 32.1136C459.264 35.0213 459.726 37.5533 460.649 39.7095C461.572 41.8658 462.879 43.5401 464.569 44.7326C466.26 45.9251 468.249 46.5213 470.536 46.5213C472.039 46.5213 473.403 46.2599 474.628 45.7372C475.853 45.2145 476.89 44.4631 477.74 43.483C478.589 42.5028 479.193 41.3267 479.553 39.9545H485.335C485.009 42.1761 484.204 44.1731 482.922 45.9455C481.64 47.7179 479.949 49.1227 477.85 50.16C475.751 51.1973 473.313 51.7159 470.536 51.7159ZM518.059 21.7244L512.865 23.1946C512.538 22.3288 512.06 21.4835 511.431 20.6586C510.802 19.8336 509.949 19.1516 508.871 18.6126C507.793 18.0735 506.412 17.804 504.73 17.804C502.426 17.804 500.511 18.3308 498.984 19.3844C497.456 20.438 496.693 21.7734 496.693 23.3906C496.693 24.8281 497.215 25.9634 498.261 26.7965C499.306 27.6296 500.94 28.3239 503.161 28.8793L508.748 30.2514C512.113 31.0682 514.621 32.3137 516.27 33.9881C517.92 35.6625 518.745 37.8146 518.745 40.4446C518.745 42.6009 518.129 44.5284 516.895 46.2273C515.662 47.9261 513.943 49.2656 511.737 50.2457C509.532 51.2259 506.968 51.7159 504.044 51.7159C500.205 51.7159 497.028 50.8828 494.512 49.2166C491.996 47.5504 490.404 45.1165 489.734 41.9148L495.223 40.5426C495.745 42.5682 496.738 44.0874 498.2 45.1001C499.662 46.1129 501.577 46.6193 503.946 46.6193C506.641 46.6193 508.785 46.0435 510.378 44.8919C511.97 43.7402 512.767 42.3558 512.767 40.7386C512.767 39.4318 512.309 38.3333 511.394 37.443C510.48 36.5527 509.075 35.8871 507.18 35.446L500.907 33.9759C497.46 33.1591 494.933 31.889 493.324 30.1657C491.715 28.4423 490.91 26.282 490.91 23.6847C490.91 21.5611 491.51 19.6825 492.711 18.049C493.912 16.4155 495.553 15.1332 497.636 14.2021C499.719 13.2709 502.083 12.8054 504.73 12.8054C508.454 12.8054 511.382 13.6222 513.514 15.2557C515.646 16.8892 517.161 19.0454 518.059 21.7244Z" fill="#272522"/>
<path d="M17.8632 111.542V75.4577C17.8632 43.4735 17.8632 37.7328 17.4526 31.172C17.0419 24.2011 15.3993 20.9206 8.62361 19.4854C6.98102 19.0754 3.49051 18.8704 1.64259 18.8704C0.821296 18.8704 0 18.4603 0 17.6402C0 16.4101 1.02662 16 3.28519 16C12.5248 16 24.8442 16.6151 26.4868 16.6151C31.0039 16.6151 42.9127 16 52.3576 16C78.0232 16 87.2627 24.6111 90.5479 27.6865C95.0651 31.9921 100.814 41.2183 100.814 54.545C100.814 81.1984 79.4604 100.881 50.3044 100.881C49.2778 100.881 47.0192 100.881 45.9926 100.676C44.966 100.676 43.734 100.266 43.734 99.2407C43.734 97.6005 44.966 97.3955 49.2778 97.3955C69.1942 97.3955 84.7989 83.8638 84.7989 62.336C84.7989 57.2103 84.1829 43.4735 73.3007 32.4021C62.4185 21.3307 49.8938 22.1508 45.1713 22.1508C41.6808 22.1508 38.1903 22.5608 36.3424 23.381C35.1104 23.791 34.6998 25.2262 34.6998 27.2765V111.542C34.6998 131.225 34.6998 147.422 35.7264 156.033C36.3424 161.979 37.5743 166.489 43.734 167.31C46.6086 167.72 51.1257 168.13 52.9736 168.13C54.2056 168.13 54.6162 168.745 54.6162 169.36C54.6162 170.385 53.5896 171 51.331 171C40.0382 171 27.1028 170.385 26.0762 170.385C25.4602 170.385 12.5248 171 6.36505 171C4.10648 171 3.07986 170.59 3.07986 169.36C3.07986 168.745 3.49051 168.13 4.72245 168.13C6.57037 168.13 9.03426 167.72 10.8822 167.31C14.9887 166.489 16.0153 161.979 16.8366 156.033C17.8632 147.422 17.8632 131.225 17.8632 111.542ZM135.658 75.4577V88.5794C142.023 82.4286 169.947 53.1098 182.472 40.1931C194.791 27.4815 195.612 25.4312 195.612 22.9709C195.612 21.3307 194.586 19.6905 192.943 19.0754C191.506 18.4603 191.095 18.0503 191.095 17.2302C191.095 16.4101 192.327 16 194.175 16C200.129 16 199.513 16.6151 206.494 16.6151C212.86 16.6151 224.974 16 228.259 16C231.133 16 231.749 16.6151 231.749 17.4352C231.749 18.2553 231.339 18.6653 229.491 18.8704C225.59 19.2804 221.894 20.1005 219.019 21.3307C213.886 23.381 209.985 25.8413 197.666 37.7328C179.597 55.1601 156.19 78.328 150.852 84.2738C163.787 98.4206 201.156 136.351 210.806 145.372C227.643 161.159 234.829 165.669 244.685 167.515C246.533 167.925 248.586 168.13 250.639 168.13C252.282 168.13 253.514 168.54 253.514 169.565C253.514 170.59 252.692 171 250.434 171H235.24C217.377 171 212.654 168.745 203.004 161.159C190.685 151.522 153.726 111.952 135.658 90.4246V111.542C135.658 131.225 135.658 147.422 136.684 156.033C137.3 161.979 138.532 166.489 144.692 167.31C147.566 167.72 151.673 168.13 152.905 168.13C154.753 168.13 155.369 168.95 155.369 169.565C155.369 170.59 154.547 171 152.289 171C140.996 171 128.061 170.385 127.034 170.385C126.007 170.385 113.893 171 107.734 171C105.475 171 104.448 170.795 104.448 169.565C104.448 168.95 104.859 168.13 106.707 168.13C107.939 168.13 110.197 167.925 112.045 167.515C116.152 166.694 117.384 161.979 118.205 156.033C119.232 147.422 119.232 131.225 119.232 111.542V75.4577C119.232 43.4735 119.232 37.7328 118.821 31.172C118.41 24.2011 116.357 20.7156 111.84 19.6905C109.581 19.0754 105.886 18.8704 104.448 18.8704C102.806 18.8704 102.19 18.4603 102.19 17.6402C102.19 16.4101 103.216 16 105.475 16C112.251 16 126.007 16.6151 127.034 16.6151C128.061 16.6151 140.996 16 147.156 16C149.414 16 150.441 16.4101 150.441 17.4352C150.441 18.2553 150.03 18.6653 148.182 18.8704C145.924 19.0754 145.719 19.0754 143.665 19.2804C138.122 19.8955 136.479 23.996 136.068 31.172C135.658 37.7328 135.658 43.4735 135.658 75.4577ZM261.049 111.542V75.4577C261.049 43.4735 261.049 37.7328 260.638 31.172C260.228 24.2011 258.585 20.9206 251.809 19.4854C250.167 19.0754 246.676 18.8704 244.828 18.8704C244.007 18.8704 243.186 18.4603 243.186 17.6402C243.186 16.4101 244.213 16 246.471 16C255.711 16 268.03 16.6151 269.673 16.6151C274.19 16.6151 286.099 16 295.544 16C321.209 16 330.449 24.6111 333.734 27.6865C338.251 31.9921 344 41.2183 344 54.545C344 81.1984 322.646 100.881 293.49 100.881C292.464 100.881 290.205 100.881 289.178 100.676C288.152 100.676 286.92 100.266 286.92 99.2407C286.92 97.6005 288.152 97.3955 292.464 97.3955C312.38 97.3955 327.985 83.8638 327.985 62.336C327.985 57.2103 327.369 43.4735 316.487 32.4021C305.604 21.3307 293.08 22.1508 288.357 22.1508C284.867 22.1508 281.376 22.5608 279.528 23.381C278.296 23.791 277.886 25.2262 277.886 27.2765V111.542C277.886 131.225 277.886 147.422 278.912 156.033C279.528 161.979 280.76 166.489 286.92 167.31C289.794 167.72 294.312 168.13 296.159 168.13C297.391 168.13 297.802 168.745 297.802 169.36C297.802 170.385 296.775 171 294.517 171C283.224 171 270.289 170.385 269.262 170.385C268.646 170.385 255.711 171 249.551 171C247.292 171 246.266 170.59 246.266 169.36C246.266 168.745 246.676 168.13 247.908 168.13C249.756 168.13 252.22 167.72 254.068 167.31C258.175 166.489 259.201 161.979 260.022 156.033C261.049 147.422 261.049 131.225 261.049 111.542Z" fill="#272522"/>
</svg>
