<svg width="519" height="171" viewBox="0 0 519 171" fill="none" xmlns="http://www.w3.org/2000/svg">
<path d="M385.486 50.1818H370V0H386.172C391.04 0 395.205 1.00052 398.668 3.0016C402.131 5.00267 404.786 7.86948 406.632 11.6021C408.478 15.3347 409.401 19.7983 409.401 24.9929C409.401 30.2202 408.469 34.7164 406.607 38.4817C404.745 42.247 402.033 45.1383 398.472 47.1557C394.911 49.1731 390.582 50.1818 385.486 50.1818ZM376.077 44.7912H385.094C389.243 44.7912 392.681 43.9908 395.409 42.3899C398.137 40.7891 400.171 38.5103 401.511 35.5536C402.85 32.5969 403.52 29.0767 403.52 24.9929C403.52 20.9417 402.858 17.4501 401.535 14.5179C400.212 11.5857 398.235 9.33151 395.605 7.75515C392.975 6.17879 389.7 5.39062 385.78 5.39062H376.077V44.7912ZM431.735 50.9659C428.337 50.9659 425.36 50.1573 422.804 48.5401C420.247 46.9229 418.255 44.6605 416.825 41.7528C415.396 38.8452 414.681 35.4475 414.681 31.5597C414.681 27.6392 415.396 24.217 416.825 21.293C418.255 18.3689 420.247 16.0984 422.804 14.4812C425.36 12.864 428.337 12.0554 431.735 12.0554C435.133 12.0554 438.11 12.864 440.666 14.4812C443.223 16.0984 445.216 18.3689 446.645 21.293C448.075 24.217 448.789 27.6392 448.789 31.5597C448.789 35.4475 448.075 38.8452 446.645 41.7528C445.216 44.6605 443.223 46.9229 440.666 48.5401C438.11 50.1573 435.133 50.9659 431.735 50.9659ZM431.735 45.7713C434.316 45.7713 436.44 45.1097 438.106 43.7866C439.772 42.4634 441.005 40.7237 441.806 38.5675C442.606 36.4112 443.007 34.0753 443.007 31.5597C443.007 29.044 442.606 26.6999 441.806 24.5273C441.005 22.3547 439.772 20.5987 438.106 19.2592C436.44 17.9197 434.316 17.25 431.735 17.25C429.154 17.25 427.031 17.9197 425.364 19.2592C423.698 20.5987 422.465 22.3547 421.665 24.5273C420.864 26.6999 420.464 29.044 420.464 31.5597C420.464 34.0753 420.864 36.4112 421.665 38.5675C422.465 40.7237 423.698 42.4634 425.364 43.7866C427.031 45.1097 429.154 45.7713 431.735 45.7713ZM470.536 50.9659C467.007 50.9659 463.969 50.1328 461.421 48.4666C458.872 46.8004 456.912 44.5053 455.54 41.5813C454.168 38.6573 453.482 35.3168 453.482 31.5597C453.482 27.7372 454.188 24.3599 455.601 21.4277C457.014 18.4955 458.991 16.2005 461.531 14.5424C464.071 12.8844 467.04 12.0554 470.438 12.0554C473.084 12.0554 475.469 12.5454 477.592 13.5256C479.716 14.5057 481.456 15.8778 482.812 17.642C484.167 19.4063 485.009 21.4645 485.335 23.8168H479.553C479.112 22.1016 478.136 20.5783 476.625 19.247C475.114 17.9157 473.084 17.25 470.536 17.25C468.281 17.25 466.309 17.834 464.618 19.002C462.928 20.1699 461.613 21.8116 460.673 23.927C459.734 26.0424 459.264 28.5213 459.264 31.3636C459.264 34.2713 459.726 36.8033 460.649 38.9595C461.572 41.1158 462.879 42.7901 464.569 43.9826C466.26 45.1751 468.249 45.7713 470.536 45.7713C472.039 45.7713 473.403 45.5099 474.628 44.9872C475.853 44.4645 476.89 43.7131 477.74 42.733C478.589 41.7528 479.193 40.5767 479.553 39.2045H485.335C485.009 41.4261 484.204 43.4231 482.922 45.1955C481.64 46.9679 479.949 48.3727 477.85 49.41C475.751 50.4473 473.313 50.9659 470.536 50.9659ZM518.059 20.9744L512.865 22.4446C512.538 21.5788 512.06 20.7335 511.431 19.9086C510.802 19.0836 509.949 18.4016 508.871 17.8626C507.793 17.3235 506.412 17.054 504.73 17.054C502.426 17.054 500.511 17.5808 498.984 18.6344C497.456 19.688 496.693 21.0234 496.693 22.6406C496.693 24.0781 497.215 25.2134 498.261 26.0465C499.306 26.8796 500.94 27.5739 503.161 28.1293L508.748 29.5014C512.113 30.3182 514.621 31.5637 516.27 33.2381C517.92 34.9125 518.745 37.0646 518.745 39.6946C518.745 41.8509 518.129 43.7784 516.895 45.4773C515.662 47.1761 513.943 48.5156 511.737 49.4957C509.532 50.4759 506.968 50.9659 504.044 50.9659C500.205 50.9659 497.028 50.1328 494.512 48.4666C491.996 46.8004 490.404 44.3665 489.734 41.1648L495.223 39.7926C495.745 41.8182 496.738 43.3374 498.2 44.3501C499.662 45.3629 501.577 45.8693 503.946 45.8693C506.641 45.8693 508.785 45.2935 510.378 44.1419C511.97 42.9902 512.767 41.6058 512.767 39.9886C512.767 38.6818 512.309 37.5833 511.394 36.693C510.48 35.8027 509.075 35.1371 507.18 34.696L500.907 33.2259C497.46 32.4091 494.933 31.139 493.324 29.4157C491.715 27.6923 490.91 25.532 490.91 22.9347C490.91 20.8111 491.51 18.9325 492.711 17.299C493.912 15.6655 495.553 14.3832 497.636 13.4521C499.719 12.5209 502.083 12.0554 504.73 12.0554C508.454 12.0554 511.382 12.8722 513.514 14.5057C515.646 16.1392 517.161 18.2954 518.059 20.9744Z" fill="white"/>
<path d="M17.8632 110.792V74.7077C17.8632 42.7235 17.8632 36.9828 17.4526 30.422C17.0419 23.4511 15.3993 20.1706 8.62361 18.7354C6.98102 18.3254 3.49051 18.1204 1.64259 18.1204C0.821296 18.1204 0 17.7103 0 16.8902C0 15.6601 1.02662 15.25 3.28519 15.25C12.5248 15.25 24.8442 15.8651 26.4868 15.8651C31.0039 15.8651 42.9127 15.25 52.3577 15.25C78.0232 15.25 87.2627 23.8611 90.5479 26.9365C95.0651 31.2421 100.814 40.4683 100.814 53.795C100.814 80.4484 79.4604 100.131 50.3044 100.131C49.2778 100.131 47.0192 100.131 45.9926 99.9259C44.966 99.9259 43.734 99.5159 43.734 98.4907C43.734 96.8505 44.966 96.6455 49.2778 96.6455C69.1942 96.6455 84.7989 83.1138 84.7989 61.586C84.7989 56.4603 84.1829 42.7235 73.3007 31.6521C62.4185 20.5807 49.8938 21.4008 45.1713 21.4008C41.6808 21.4008 38.1903 21.8108 36.3424 22.631C35.1104 23.041 34.6998 24.4762 34.6998 26.5265V110.792C34.6998 130.475 34.6998 146.672 35.7264 155.283C36.3424 161.229 37.5743 165.739 43.734 166.56C46.6086 166.97 51.1257 167.38 52.9736 167.38C54.2056 167.38 54.6162 167.995 54.6162 168.61C54.6162 169.635 53.5896 170.25 51.331 170.25C40.0382 170.25 27.1028 169.635 26.0762 169.635C25.4602 169.635 12.5248 170.25 6.36505 170.25C4.10648 170.25 3.07986 169.84 3.07986 168.61C3.07986 167.995 3.49051 167.38 4.72245 167.38C6.57037 167.38 9.03426 166.97 10.8822 166.56C14.9887 165.739 16.0153 161.229 16.8366 155.283C17.8632 146.672 17.8632 130.475 17.8632 110.792ZM135.658 74.7077V87.8294C142.023 81.6786 169.947 52.3598 182.472 39.4431C194.791 26.7315 195.612 24.6812 195.612 22.2209C195.612 20.5807 194.586 18.9405 192.943 18.3254C191.506 17.7103 191.095 17.3003 191.095 16.4802C191.095 15.6601 192.327 15.25 194.175 15.25C200.129 15.25 199.513 15.8651 206.494 15.8651C212.86 15.8651 224.974 15.25 228.259 15.25C231.133 15.25 231.749 15.8651 231.749 16.6852C231.749 17.5053 231.339 17.9153 229.491 18.1204C225.59 18.5304 221.894 19.3505 219.019 20.5807C213.886 22.631 209.985 25.0913 197.666 36.9828C179.597 54.4101 156.19 77.578 150.852 83.5238C163.787 97.6706 201.156 135.601 210.806 144.622C227.643 160.409 234.829 164.919 244.685 166.765C246.533 167.175 248.586 167.38 250.639 167.38C252.282 167.38 253.514 167.79 253.514 168.815C253.514 169.84 252.692 170.25 250.434 170.25H235.24C217.377 170.25 212.654 167.995 203.004 160.409C190.685 150.772 153.726 111.202 135.658 89.6746V110.792C135.658 130.475 135.658 146.672 136.684 155.283C137.3 161.229 138.532 165.739 144.692 166.56C147.566 166.97 151.673 167.38 152.905 167.38C154.753 167.38 155.369 168.2 155.369 168.815C155.369 169.84 154.547 170.25 152.289 170.25C140.996 170.25 128.061 169.635 127.034 169.635C126.007 169.635 113.893 170.25 107.734 170.25C105.475 170.25 104.448 170.045 104.448 168.815C104.448 168.2 104.859 167.38 106.707 167.38C107.939 167.38 110.197 167.175 112.045 166.765C116.152 165.944 117.384 161.229 118.205 155.283C119.232 146.672 119.232 130.475 119.232 110.792V74.7077C119.232 42.7235 119.232 36.9828 118.821 30.422C118.41 23.4511 116.357 19.9656 111.84 18.9405C109.581 18.3254 105.886 18.1204 104.448 18.1204C102.806 18.1204 102.19 17.7103 102.19 16.8902C102.19 15.6601 103.216 15.25 105.475 15.25C112.251 15.25 126.007 15.8651 127.034 15.8651C128.061 15.8651 140.996 15.25 147.156 15.25C149.414 15.25 150.441 15.6601 150.441 16.6852C150.441 17.5053 150.03 17.9153 148.182 18.1204C145.924 18.3254 145.719 18.3254 143.665 18.5304C138.122 19.1455 136.479 23.246 136.068 30.422C135.658 36.9828 135.658 42.7235 135.658 74.7077ZM261.049 110.792V74.7077C261.049 42.7235 261.049 36.9828 260.638 30.422C260.228 23.4511 258.585 20.1706 251.809 18.7354C250.167 18.3254 246.676 18.1204 244.828 18.1204C244.007 18.1204 243.186 17.7103 243.186 16.8902C243.186 15.6601 244.213 15.25 246.471 15.25C255.711 15.25 268.03 15.8651 269.673 15.8651C274.19 15.8651 286.099 15.25 295.544 15.25C321.209 15.25 330.449 23.8611 333.734 26.9365C338.251 31.2421 344 40.4683 344 53.795C344 80.4484 322.646 100.131 293.49 100.131C292.464 100.131 290.205 100.131 289.178 99.9259C288.152 99.9259 286.92 99.5159 286.92 98.4907C286.92 96.8505 288.152 96.6455 292.464 96.6455C312.38 96.6455 327.985 83.1138 327.985 61.586C327.985 56.4603 327.369 42.7235 316.487 31.6521C305.604 20.5807 293.08 21.4008 288.357 21.4008C284.867 21.4008 281.376 21.8108 279.528 22.631C278.296 23.041 277.886 24.4762 277.886 26.5265V110.792C277.886 130.475 277.886 146.672 278.912 155.283C279.528 161.229 280.76 165.739 286.92 166.56C289.794 166.97 294.312 167.38 296.159 167.38C297.391 167.38 297.802 167.995 297.802 168.61C297.802 169.635 296.775 170.25 294.517 170.25C283.224 170.25 270.289 169.635 269.262 169.635C268.646 169.635 255.711 170.25 249.551 170.25C247.292 170.25 246.266 169.84 246.266 168.61C246.266 167.995 246.676 167.38 247.908 167.38C249.756 167.38 252.22 166.97 254.068 166.56C258.175 165.739 259.201 161.229 260.022 155.283C261.049 146.672 261.049 130.475 261.049 110.792Z" fill="white"/>
</svg>
