<svg width="582" height="698" viewBox="0 0 582 698" fill="none" xmlns="http://www.w3.org/2000/svg">
<path d="M223.818 301.2C170.277 301.2 148 259.578 148 224.405C148 192.748 171.058 148 224.991 148C268.958 148 301.786 175.748 301.786 221.278C301.786 265.049 270.912 301.2 223.818 301.2ZM229.094 293.774C246.681 293.774 283.027 283.613 283.027 226.749C283.027 179.852 254.497 154.644 223.623 154.644C190.99 154.644 166.564 176.139 166.564 218.933C166.564 264.463 193.921 293.774 229.094 293.774ZM338.855 207.404V254.302C338.855 285.958 338.855 298.073 332.993 311.947C328.889 321.718 320.291 330.902 304.463 341.845C301.923 343.604 298.796 345.753 296.842 346.73C296.452 346.926 296.061 347.121 295.475 347.121C294.888 347.121 294.107 346.73 294.107 345.948C294.107 344.776 295.084 344.19 296.842 343.017C299.187 341.649 301.923 339.305 303.682 337.546C316.383 324.649 322.441 314.292 322.441 263.877V207.404C322.441 176.92 322.441 171.449 322.05 165.196C321.659 158.552 320.096 155.426 313.648 154.058C312.084 153.667 309.349 153.471 307.59 153.471C306.222 153.471 305.44 152.885 305.44 152.104C305.44 151.322 306.222 150.736 308.371 150.736C317.165 150.736 329.671 151.322 330.648 151.322C331.625 151.322 343.936 150.736 349.798 150.736C351.947 150.736 352.925 151.127 352.925 152.299C352.925 153.081 351.948 153.471 350.775 153.471C349.407 153.471 347.844 153.667 346.085 153.862C340.809 154.448 339.637 158.357 339.246 165.196C338.855 171.449 338.855 176.92 338.855 207.404ZM388.43 301.2C379.246 301.2 370.257 299.832 362.246 295.924C359.51 294.556 359.314 293.774 359.314 288.498C359.314 278.728 360.096 270.912 360.291 267.785C360.487 265.636 360.878 264.659 361.855 264.659C363.027 264.659 363.223 265.245 363.223 266.808C363.223 268.567 363.223 271.303 363.809 274.038C366.74 288.498 379.637 293.97 392.729 293.97C411.488 293.97 420.673 280.487 420.673 267.981C420.673 254.497 415.006 246.681 398.201 232.807L389.407 225.577C368.694 208.577 364.004 196.461 364.004 183.173C364.004 162.265 379.637 148 404.454 148C412.075 148 417.741 148.782 422.627 149.954C426.339 150.736 427.903 150.931 429.466 150.931C431.029 150.931 431.42 151.322 431.42 152.299C431.42 153.276 430.638 159.724 430.638 173.012C430.638 176.139 430.248 177.507 429.271 177.507C428.098 177.507 427.903 176.53 427.707 174.966C427.512 172.621 426.339 167.345 425.167 165.196C423.994 163.046 418.718 154.839 400.741 154.839C387.258 154.839 376.706 163.242 376.706 177.507C376.706 188.645 381.786 195.68 400.546 210.335L406.017 214.634C429.075 232.807 434.547 244.922 434.547 260.555C434.547 268.567 431.42 283.418 417.937 292.993C409.534 298.855 398.982 301.2 388.43 301.2Z" fill="white"/>
<path d="M196.418 379.024C196.418 384.317 195.462 388.891 193.551 392.746C191.64 396.601 189.018 399.574 185.685 401.665C182.353 403.756 178.547 404.801 174.267 404.801C169.987 404.801 166.181 403.756 162.849 401.665C159.516 399.574 156.895 396.601 154.983 392.746C153.072 388.891 152.116 384.317 152.116 379.024C152.116 373.731 153.072 369.158 154.983 365.302C156.895 361.447 159.516 358.474 162.849 356.383C166.181 354.293 169.987 353.247 174.267 353.247C178.547 353.247 182.353 354.293 185.685 356.383C189.018 358.474 191.64 361.447 193.551 365.302C195.462 369.158 196.418 373.731 196.418 379.024ZM190.537 379.024C190.537 374.679 189.814 371.012 188.368 368.022C186.923 365.033 184.971 362.771 182.512 361.235C180.054 359.699 177.305 358.932 174.267 358.932C171.229 358.932 168.48 359.699 166.022 361.235C163.563 362.771 161.611 365.033 160.166 368.022C158.72 371.012 157.997 374.679 157.997 379.024C157.997 383.369 158.72 387.036 160.166 390.026C161.611 393.015 163.563 395.278 166.022 396.813C168.48 398.349 171.229 399.116 174.267 399.116C177.305 399.116 180.054 398.349 182.512 396.813C184.971 395.278 186.923 393.015 188.368 390.026C189.814 387.036 190.537 383.369 190.537 379.024ZM203.462 418.229V366.479H209.049V372.457H209.735C210.16 371.804 210.752 370.967 211.512 369.946C212.271 368.925 213.366 368.01 214.795 367.201C216.224 366.393 218.164 365.989 220.614 365.989C223.783 365.989 226.577 366.781 228.994 368.365C231.412 369.95 233.299 372.196 234.655 375.104C236.01 378.011 236.688 381.442 236.688 385.395C236.688 389.381 236.01 392.831 234.655 395.747C233.299 398.663 231.42 400.917 229.019 402.51C226.618 404.103 223.849 404.899 220.712 404.899C218.295 404.899 216.359 404.495 214.905 403.686C213.451 402.878 212.332 401.955 211.548 400.917C210.764 399.88 210.16 399.018 209.735 398.332H209.245V418.229H203.462ZM209.147 385.297C209.147 388.139 209.564 390.642 210.397 392.807C211.23 394.971 212.447 396.662 214.048 397.879C215.649 399.096 217.609 399.704 219.928 399.704C222.346 399.704 224.367 399.063 225.993 397.781C227.618 396.499 228.843 394.767 229.668 392.586C230.493 390.406 230.906 387.976 230.906 385.297C230.906 382.65 230.501 380.261 229.693 378.13C228.884 375.998 227.667 374.307 226.042 373.058C224.416 371.808 222.379 371.183 219.928 371.183C217.576 371.183 215.6 371.775 213.999 372.96C212.398 374.144 211.189 375.794 210.372 377.909C209.555 380.025 209.147 382.487 209.147 385.297ZM247.191 382.258H268.628C268.628 380.135 268.207 378.24 267.366 376.574C266.525 374.908 265.332 373.593 263.789 372.629C262.245 371.665 260.428 371.183 258.337 371.183C256.034 371.183 254.045 371.751 252.37 372.886C250.696 374.021 249.41 375.496 248.511 377.309C247.741 378.863 247.301 380.513 247.191 382.258ZM247.176 387.257C247.26 389.76 247.75 391.904 248.646 393.689C249.634 395.657 251.01 397.152 252.775 398.173C254.539 399.194 256.589 399.704 258.925 399.704C260.444 399.704 261.82 399.488 263.054 399.055C264.287 398.622 265.353 397.969 266.251 397.095C267.15 396.221 267.844 395.131 268.334 393.824L273.921 395.392C273.333 397.287 272.344 398.949 270.956 400.378C269.567 401.808 267.852 402.918 265.81 403.711C263.768 404.503 261.473 404.899 258.925 404.899C255.298 404.899 252.174 404.095 249.553 402.486C246.931 400.876 244.913 398.622 243.5 395.723C242.087 392.823 241.381 389.446 241.381 385.591C241.381 381.736 242.087 378.334 243.5 375.385C244.913 372.437 246.89 370.134 249.43 368.476C251.97 366.818 254.939 365.989 258.337 365.989C260.297 365.989 262.233 366.315 264.144 366.969C266.055 367.622 267.795 368.68 269.363 370.142C270.931 371.604 272.181 373.535 273.112 375.937C274.043 378.338 274.509 381.295 274.509 384.807V387.257H247.176ZM286.748 381.474V404.115H280.965V366.479H286.552V372.359H287.042C287.924 370.448 289.264 368.908 291.061 367.74C292.857 366.573 295.177 365.989 298.019 365.989C300.568 365.989 302.797 366.507 304.709 367.544C306.62 368.582 308.106 370.15 309.168 372.249C310.23 374.348 310.761 376.998 310.761 380.2V404.115H304.978V380.592C304.978 377.636 304.21 375.328 302.675 373.67C301.139 372.012 299.032 371.183 296.353 371.183C294.507 371.183 292.862 371.583 291.416 372.384C289.97 373.184 288.831 374.352 287.998 375.888C287.165 377.423 286.748 379.285 286.748 381.474ZM173.287 419.933H179.364V455.805C179.364 459.007 178.776 461.727 177.599 463.965C176.423 466.203 174.765 467.902 172.625 469.061C170.485 470.221 167.962 470.801 165.054 470.801C162.31 470.801 159.868 470.299 157.728 469.294C155.588 468.29 153.905 466.856 152.68 464.994C151.455 463.132 150.842 460.918 150.842 458.354H156.821C156.821 459.775 157.176 461.012 157.887 462.066C158.597 463.119 159.574 463.94 160.815 464.528C162.056 465.116 163.469 465.41 165.054 465.41C166.802 465.41 168.288 465.043 169.513 464.308C170.739 463.573 171.674 462.49 172.319 461.061C172.964 459.632 173.287 457.88 173.287 455.805V419.933ZM203.658 470.899C200.261 470.899 197.284 470.09 194.727 468.473C192.171 466.856 190.178 464.594 188.748 461.686C187.319 458.778 186.604 455.381 186.604 451.493C186.604 447.572 187.319 444.15 188.748 441.226C190.178 438.302 192.171 436.032 194.727 434.414C197.284 432.797 200.261 431.989 203.658 431.989C207.056 431.989 210.033 432.797 212.59 434.414C215.146 436.032 217.139 438.302 218.568 441.226C219.998 444.15 220.712 447.572 220.712 451.493C220.712 455.381 219.998 458.778 218.568 461.686C217.139 464.594 215.146 466.856 212.59 468.473C210.033 470.09 207.056 470.899 203.658 470.899ZM203.658 465.704C206.239 465.704 208.363 465.043 210.029 463.72C211.695 462.397 212.929 460.657 213.729 458.501C214.53 456.344 214.93 454.008 214.93 451.493C214.93 448.977 214.53 446.633 213.729 444.46C212.929 442.288 211.695 440.532 210.029 439.192C208.363 437.853 206.239 437.183 203.658 437.183C201.077 437.183 198.954 437.853 197.288 439.192C195.622 440.532 194.388 442.288 193.588 444.46C192.787 446.633 192.387 448.977 192.387 451.493C192.387 454.008 192.787 456.344 193.588 458.501C194.388 460.657 195.622 462.397 197.288 463.72C198.954 465.043 201.077 465.704 203.658 465.704ZM250.888 454.727V432.479H256.671V470.115H250.888V463.744H250.496C249.614 465.655 248.242 467.277 246.379 468.608C244.517 469.939 242.165 470.605 239.323 470.605C236.97 470.605 234.879 470.086 233.05 469.049C231.22 468.012 229.783 466.444 228.737 464.345C227.692 462.245 227.169 459.595 227.169 456.393V432.479H232.952V456.001C232.952 458.746 233.724 460.935 235.267 462.568C236.811 464.202 238.784 465.018 241.185 465.018C242.622 465.018 244.088 464.651 245.583 463.916C247.078 463.181 248.336 462.054 249.357 460.534C250.377 459.015 250.888 457.079 250.888 454.727ZM264.892 470.115V432.479H270.478V438.163H270.87C271.556 436.301 272.798 434.79 274.595 433.63C276.392 432.47 278.417 431.891 280.671 431.891C281.096 431.891 281.627 431.899 282.264 431.915C282.901 431.931 283.383 431.956 283.71 431.989V437.869C283.514 437.82 283.069 437.743 282.374 437.636C281.68 437.53 280.949 437.477 280.181 437.477C278.352 437.477 276.722 437.857 275.293 438.617C273.864 439.376 272.737 440.422 271.912 441.753C271.087 443.084 270.674 444.599 270.674 446.298V470.115H264.892ZM293.989 447.474V470.115H288.206V432.479H293.793V438.359H294.283C295.165 436.448 296.505 434.908 298.301 433.741C300.098 432.573 302.418 431.989 305.26 431.989C307.809 431.989 310.038 432.507 311.95 433.544C313.861 434.582 315.347 436.15 316.409 438.249C317.471 440.348 318.002 442.998 318.002 446.2V470.115H312.219V446.592C312.219 443.636 311.451 441.328 309.916 439.67C308.38 438.012 306.273 437.183 303.594 437.183C301.748 437.183 300.102 437.583 298.657 438.384C297.211 439.184 296.072 440.352 295.239 441.888C294.406 443.423 293.989 445.285 293.989 447.474ZM337.298 470.997C334.913 470.997 332.749 470.544 330.805 469.637C328.861 468.731 327.317 467.416 326.174 465.692C325.03 463.969 324.459 461.882 324.459 459.432C324.459 457.275 324.883 455.524 325.733 454.176C326.582 452.828 327.717 451.771 329.139 451.003C330.56 450.235 332.132 449.659 333.855 449.275C335.579 448.891 337.314 448.585 339.062 448.356C341.349 448.062 343.207 447.838 344.637 447.683C346.066 447.527 347.111 447.262 347.773 446.886C348.435 446.511 348.765 445.857 348.765 444.926V444.73C348.765 442.312 348.108 440.434 346.793 439.094C345.478 437.755 343.489 437.085 340.826 437.085C338.066 437.085 335.901 437.69 334.333 438.898C332.765 440.107 331.662 441.398 331.025 442.77L325.537 440.81C326.517 438.523 327.828 436.738 329.469 435.456C331.111 434.173 332.908 433.275 334.86 432.76C336.812 432.246 338.735 431.989 340.63 431.989C341.839 431.989 343.232 432.131 344.808 432.417C346.384 432.703 347.912 433.287 349.39 434.169C350.868 435.051 352.098 436.383 353.078 438.163C354.058 439.944 354.548 442.329 354.548 445.318V470.115H348.765V465.018H348.471C348.079 465.835 347.426 466.709 346.511 467.64C345.596 468.571 344.379 469.364 342.86 470.017C341.341 470.67 339.487 470.997 337.298 470.997ZM338.18 465.802C340.467 465.802 342.399 465.353 343.975 464.455C345.551 463.556 346.744 462.397 347.552 460.975C348.361 459.554 348.765 458.06 348.765 456.491V451.199C348.52 451.493 347.985 451.758 347.16 451.995C346.335 452.232 345.388 452.436 344.318 452.608C343.248 452.779 342.211 452.926 341.206 453.049C340.202 453.171 339.389 453.273 338.768 453.355C337.265 453.551 335.865 453.865 334.566 454.298C333.267 454.731 332.222 455.376 331.43 456.234C330.637 457.092 330.241 458.256 330.241 459.726C330.241 461.735 330.989 463.25 332.483 464.271C333.978 465.292 335.877 465.802 338.18 465.802ZM368.552 419.933V470.115H362.769V419.933H368.552ZM181.52 498.479C181.226 495.996 180.033 494.068 177.942 492.696C175.852 491.324 173.287 490.638 170.249 490.638C168.027 490.638 166.087 490.997 164.429 491.716C162.771 492.435 161.481 493.423 160.558 494.681C159.635 495.938 159.173 497.368 159.173 498.969C159.173 500.308 159.496 501.456 160.141 502.411C160.786 503.367 161.615 504.159 162.628 504.788C163.641 505.417 164.703 505.932 165.814 506.332C166.924 506.732 167.945 507.055 168.876 507.3L173.973 508.672C175.28 509.015 176.738 509.489 178.347 510.093C179.956 510.697 181.499 511.518 182.978 512.555C184.456 513.593 185.677 514.92 186.641 516.537C187.605 518.154 188.087 520.139 188.087 522.491C188.087 525.203 187.38 527.653 185.967 529.842C184.554 532.031 182.496 533.771 179.792 535.061C177.089 536.352 173.81 536.997 169.955 536.997C166.361 536.997 163.253 536.417 160.631 535.257C158.009 534.098 155.951 532.48 154.457 530.406C152.962 528.331 152.116 525.922 151.92 523.177H158.193C158.357 525.072 158.998 526.636 160.117 527.87C161.236 529.103 162.657 530.018 164.38 530.614C166.104 531.21 167.962 531.508 169.955 531.508C172.274 531.508 174.357 531.129 176.203 530.369C178.049 529.609 179.511 528.548 180.589 527.184C181.667 525.82 182.206 524.223 182.206 522.393C182.206 520.727 181.74 519.371 180.809 518.326C179.878 517.28 178.653 516.431 177.134 515.778C175.615 515.124 173.973 514.552 172.209 514.062L166.034 512.298C162.114 511.171 159.01 509.562 156.723 507.471C154.436 505.38 153.293 502.644 153.293 499.263C153.293 496.453 154.056 493.999 155.584 491.9C157.111 489.801 159.169 488.167 161.758 486.999C164.347 485.831 167.243 485.247 170.445 485.247C173.679 485.247 176.554 485.823 179.07 486.975C181.585 488.126 183.582 489.698 185.061 491.691C186.539 493.684 187.319 495.947 187.401 498.479H181.52ZM198.66 550.131C197.68 550.131 196.806 550.053 196.038 549.898C195.27 549.743 194.739 549.592 194.445 549.445L195.916 544.348C198.023 544.887 199.779 544.875 201.184 544.311C202.589 543.748 203.805 542.061 204.835 539.251L205.913 536.311L191.995 498.479H198.268L208.657 528.47H209.049L219.438 498.479L225.76 498.577L209.735 541.604C209.016 543.515 208.126 545.103 207.064 546.369C206.003 547.635 204.773 548.579 203.377 549.199C201.98 549.82 200.408 550.131 198.66 550.131ZM257.7 506.908L252.505 508.378C252.178 507.512 251.701 506.667 251.072 505.842C250.443 505.017 249.589 504.335 248.511 503.796C247.433 503.257 246.053 502.987 244.37 502.987C242.067 502.987 240.152 503.514 238.624 504.568C237.097 505.621 236.333 506.957 236.333 508.574C236.333 510.011 236.856 511.147 237.901 511.98C238.947 512.813 240.58 513.507 242.802 514.062L248.389 515.435C251.754 516.251 254.261 517.497 255.911 519.171C257.561 520.846 258.386 522.998 258.386 525.628C258.386 527.784 257.769 529.712 256.536 531.41C255.303 533.109 253.583 534.449 251.378 535.429C249.173 536.409 246.608 536.899 243.684 536.899C239.845 536.899 236.668 536.066 234.153 534.4C231.637 532.734 230.044 530.3 229.374 527.098L234.863 525.726C235.386 527.751 236.378 529.271 237.84 530.283C239.302 531.296 241.217 531.802 243.586 531.802C246.281 531.802 248.425 531.227 250.018 530.075C251.611 528.923 252.407 527.539 252.407 525.922C252.407 524.615 251.95 523.516 251.035 522.626C250.12 521.736 248.715 521.07 246.82 520.629L240.548 519.159C237.101 518.342 234.573 517.072 232.964 515.349C231.355 513.625 230.551 511.465 230.551 508.868C230.551 506.744 231.151 504.866 232.352 503.232C233.552 501.599 235.194 500.316 237.277 499.385C239.359 498.454 241.724 497.989 244.37 497.989C248.095 497.989 251.023 498.805 253.154 500.439C255.286 502.072 256.801 504.229 257.7 506.908ZM281.112 498.479V503.379H261.608V498.479H281.112ZM267.293 489.462H273.076V525.334C273.076 526.967 273.316 528.188 273.798 528.997C274.28 529.805 274.901 530.345 275.661 530.614C276.42 530.884 277.225 531.018 278.074 531.018C278.711 531.018 279.234 530.982 279.642 530.908C280.051 530.835 280.377 530.773 280.622 530.724L281.799 535.919C281.406 536.066 280.859 536.217 280.157 536.372C279.454 536.527 278.564 536.605 277.486 536.605C275.853 536.605 274.256 536.254 272.696 535.551C271.136 534.849 269.845 533.779 268.824 532.342C267.803 530.904 267.293 529.091 267.293 526.902V489.462ZM291.125 514.258H312.562C312.562 512.135 312.141 510.24 311.3 508.574C310.459 506.908 309.266 505.593 307.723 504.629C306.179 503.665 304.362 503.183 302.271 503.183C299.968 503.183 297.979 503.751 296.304 504.886C294.63 506.021 293.344 507.496 292.445 509.309C291.675 510.863 291.235 512.513 291.125 514.258ZM291.111 519.257C291.194 521.76 291.684 523.904 292.58 525.689C293.568 527.657 294.945 529.152 296.709 530.173C298.473 531.194 300.523 531.704 302.859 531.704C304.378 531.704 305.754 531.488 306.988 531.055C308.221 530.622 309.287 529.969 310.185 529.095C311.084 528.221 311.778 527.131 312.268 525.824L317.855 527.392C317.267 529.287 316.278 530.949 314.89 532.378C313.501 533.808 311.786 534.918 309.744 535.711C307.702 536.503 305.407 536.899 302.859 536.899C299.233 536.899 296.108 536.095 293.487 534.486C290.865 532.877 288.847 530.622 287.434 527.723C286.021 524.823 285.315 521.446 285.315 517.591C285.315 513.736 286.021 510.334 287.434 507.385C288.847 504.437 290.824 502.134 293.364 500.476C295.904 498.818 298.873 497.989 302.271 497.989C304.231 497.989 306.167 498.315 308.078 498.969C309.989 499.622 311.729 500.68 313.297 502.142C314.865 503.604 316.115 505.535 317.046 507.937C317.977 510.338 318.443 513.295 318.443 516.807V519.257H291.111ZM324.9 536.115V498.479H330.486V504.359H330.976C331.76 502.35 333.026 500.786 334.774 499.667C336.522 498.548 338.621 497.989 341.071 497.989C343.554 497.989 345.625 498.548 347.283 499.667C348.941 500.786 350.235 502.35 351.167 504.359H351.559C352.522 502.415 353.968 500.868 355.896 499.716C357.823 498.564 360.135 497.989 362.83 497.989C366.195 497.989 368.947 499.038 371.087 501.137C373.227 503.236 374.297 506.499 374.297 510.926V536.115H368.515V510.926C368.515 508.149 367.755 506.164 366.236 504.972C364.717 503.779 362.928 503.183 360.87 503.183C358.223 503.183 356.173 503.979 354.72 505.572C353.266 507.165 352.539 509.178 352.539 511.612V536.115H346.658V510.338C346.658 508.198 345.964 506.471 344.575 505.156C343.187 503.841 341.398 503.183 339.209 503.183C337.706 503.183 336.306 503.583 335.007 504.384C333.708 505.184 332.663 506.291 331.871 507.704C331.078 509.117 330.682 510.746 330.682 512.592V536.115H324.9ZM409.177 506.908L403.983 508.378C403.656 507.512 403.178 506.667 402.549 505.842C401.92 505.017 401.067 504.335 399.989 503.796C398.911 503.257 397.53 502.987 395.848 502.987C393.545 502.987 391.629 503.514 390.102 504.568C388.575 505.621 387.811 506.957 387.811 508.574C387.811 510.011 388.334 511.147 389.379 511.98C390.425 512.813 392.058 513.507 394.28 514.062L399.866 515.435C403.231 516.251 405.739 517.497 407.389 519.171C409.039 520.846 409.863 522.998 409.863 525.628C409.863 527.784 409.247 529.712 408.013 531.41C406.78 533.109 405.061 534.449 402.856 535.429C400.65 536.409 398.086 536.899 395.162 536.899C391.323 536.899 388.146 536.066 385.63 534.4C383.114 532.734 381.522 530.3 380.852 527.098L386.341 525.726C386.863 527.751 387.856 529.271 389.318 530.283C390.78 531.296 392.695 531.802 395.064 531.802C397.759 531.802 399.903 531.227 401.496 530.075C403.088 528.923 403.885 527.539 403.885 525.922C403.885 524.615 403.427 523.516 402.513 522.626C401.598 521.736 400.193 521.07 398.298 520.629L392.025 519.159C388.579 518.342 386.051 517.072 384.442 515.349C382.833 513.625 382.028 511.465 382.028 508.868C382.028 506.744 382.629 504.866 383.829 503.232C385.03 501.599 386.671 500.316 388.754 499.385C390.837 498.454 393.201 497.989 395.848 497.989C399.572 497.989 402.5 498.805 404.632 500.439C406.764 502.072 408.279 504.229 409.177 506.908Z" fill="white"/>
</svg>
