<svg width="634" height="698" viewBox="0 0 634 698" fill="none" xmlns="http://www.w3.org/2000/svg">
<path d="M223.625 300.81C170.22 300.81 148 259.294 148 224.21C148 192.635 170.999 148 224.795 148C268.65 148 301.395 175.677 301.395 221.092C301.395 264.752 270.599 300.81 223.625 300.81ZM228.888 293.404C246.43 293.404 282.683 283.268 282.683 226.549C282.683 179.77 254.226 154.627 223.431 154.627C190.88 154.627 166.517 176.067 166.517 218.753C166.517 264.167 193.804 293.404 228.888 293.404ZM322.985 241.481V207.177C322.985 176.77 322.985 171.313 322.596 165.076C322.206 158.449 320.646 155.33 314.214 153.966C312.655 153.576 309.342 153.381 307.587 153.381C306.808 153.381 306.028 152.991 306.028 152.212C306.028 151.042 307.003 150.652 309.147 150.652C317.918 150.652 329.612 151.237 331.172 151.237C335.46 151.237 346.764 150.652 355.73 150.652C380.094 150.652 388.865 158.839 391.984 161.762C396.272 165.855 401.729 174.626 401.729 187.296C401.729 212.634 381.459 231.346 353.781 231.346C352.807 231.346 350.663 231.346 349.688 231.151C348.714 231.151 347.544 230.761 347.544 229.786C347.544 228.227 348.714 228.032 352.807 228.032C371.713 228.032 386.526 215.168 386.526 194.702C386.526 189.83 385.942 176.77 375.611 166.245C365.281 155.72 353.391 156.5 348.908 156.5C345.595 156.5 342.282 156.89 340.527 157.669C339.358 158.059 338.968 159.423 338.968 161.373V241.481C338.968 260.192 338.968 275.59 339.943 283.777C340.527 289.429 341.697 293.717 347.544 294.497C350.273 294.887 354.561 295.276 356.315 295.276C357.485 295.276 357.874 295.861 357.874 296.446C357.874 297.42 356.9 298.005 354.756 298.005C344.036 298.005 331.756 297.42 330.782 297.42C330.197 297.42 317.918 298.005 312.07 298.005C309.926 298.005 308.952 297.615 308.952 296.446C308.952 295.861 309.342 295.276 310.511 295.276C312.265 295.276 314.604 294.887 316.358 294.497C320.257 293.717 321.231 289.429 322.011 283.777C322.985 275.59 322.985 260.192 322.985 241.481ZM440.5 301.929C431.316 301.929 422.327 300.561 414.315 296.653C411.579 295.285 411.384 294.503 411.384 289.227C411.384 279.457 412.166 271.64 412.361 268.514C412.556 266.364 412.947 265.387 413.924 265.387C415.097 265.387 415.292 265.974 415.292 267.537C415.292 269.296 415.292 272.031 415.878 274.767C418.809 289.227 431.706 294.699 444.799 294.699C463.558 294.699 472.742 281.215 472.742 268.709C472.742 255.226 467.075 247.41 450.27 233.536L441.477 226.306C420.764 209.305 416.074 197.19 416.074 183.902C416.074 162.994 431.706 148.729 456.523 148.729C464.144 148.729 469.811 149.51 474.696 150.683C478.409 151.464 479.972 151.66 481.535 151.66C483.099 151.66 483.49 152.051 483.49 153.028C483.49 154.005 482.708 160.453 482.708 173.741C482.708 176.868 482.317 178.235 481.34 178.235C480.168 178.235 479.972 177.258 479.777 175.695C479.581 173.35 478.409 168.074 477.236 165.925C476.064 163.775 470.788 155.568 452.81 155.568C439.327 155.568 428.775 163.971 428.775 178.235C428.775 189.374 433.856 196.408 452.615 211.064L458.086 215.363C481.145 233.536 486.616 245.651 486.616 261.284C486.616 269.296 483.49 284.147 470.006 293.722C461.604 299.584 451.052 301.929 440.5 301.929Z" fill="white"/>
<path d="M192.497 379.024C192.497 384.317 191.542 388.891 189.63 392.746C187.719 396.601 185.097 399.574 181.765 401.665C178.433 403.756 174.626 404.801 170.347 404.801C166.067 404.801 162.261 403.756 158.928 401.665C155.596 399.574 152.974 396.601 151.063 392.746C149.152 388.891 148.196 384.317 148.196 379.024C148.196 373.731 149.152 369.158 151.063 365.302C152.974 361.447 155.596 358.474 158.928 356.383C162.261 354.293 166.067 353.247 170.347 353.247C174.626 353.247 178.433 354.293 181.765 356.383C185.097 358.474 187.719 361.447 189.63 365.302C191.542 369.158 192.497 373.731 192.497 379.024ZM186.616 379.024C186.616 374.679 185.894 371.012 184.448 368.022C183.002 365.033 181.05 362.771 178.592 361.235C176.133 359.699 173.385 358.932 170.347 358.932C167.308 358.932 164.56 359.699 162.101 361.235C159.643 362.771 157.691 365.033 156.245 368.022C154.8 371.012 154.077 374.679 154.077 379.024C154.077 383.369 154.8 387.036 156.245 390.026C157.691 393.015 159.643 395.278 162.101 396.813C164.56 398.349 167.308 399.116 170.347 399.116C173.385 399.116 176.133 398.349 178.592 396.813C181.05 395.278 183.002 393.015 184.448 390.026C185.894 387.036 186.616 383.369 186.616 379.024ZM199.542 418.229V366.479H205.129V372.457H205.815C206.239 371.804 206.832 370.967 207.591 369.946C208.351 368.925 209.445 368.01 210.875 367.201C212.304 366.393 214.244 365.989 216.694 365.989C219.863 365.989 222.656 366.781 225.074 368.365C227.492 369.95 229.378 372.196 230.734 375.104C232.09 378.011 232.768 381.442 232.768 385.395C232.768 389.381 232.09 392.831 230.734 395.747C229.378 398.663 227.5 400.917 225.098 402.51C222.697 404.103 219.928 404.899 216.792 404.899C214.374 404.899 212.439 404.495 210.985 403.686C209.531 402.878 208.412 401.955 207.628 400.917C206.844 399.88 206.239 399.018 205.815 398.332H205.325V418.229H199.542ZM205.227 385.297C205.227 388.139 205.643 390.642 206.476 392.807C207.309 394.971 208.526 396.662 210.127 397.879C211.728 399.096 213.688 399.704 216.008 399.704C218.426 399.704 220.447 399.063 222.072 397.781C223.698 396.499 224.923 394.767 225.748 392.586C226.573 390.406 226.985 387.976 226.985 385.297C226.985 382.65 226.581 380.261 225.772 378.13C224.964 375.998 223.747 374.307 222.121 373.058C220.496 371.808 218.458 371.183 216.008 371.183C213.656 371.183 211.679 371.775 210.078 372.96C208.477 374.144 207.269 375.794 206.452 377.909C205.635 380.025 205.227 382.487 205.227 385.297ZM243.271 382.258H264.708C264.708 380.135 264.287 378.24 263.446 376.574C262.604 374.908 261.412 373.593 259.868 372.629C258.325 371.665 256.507 371.183 254.416 371.183C252.113 371.183 250.124 371.751 248.45 372.886C246.776 374.021 245.489 375.496 244.591 377.309C243.821 378.863 243.381 380.513 243.271 382.258ZM243.256 387.257C243.34 389.76 243.829 391.904 244.725 393.689C245.714 395.657 247.09 397.152 248.854 398.173C250.618 399.194 252.668 399.704 255.004 399.704C256.524 399.704 257.9 399.488 259.133 399.055C260.366 398.622 261.432 397.969 262.331 397.095C263.229 396.221 263.923 395.131 264.414 393.824L270 395.392C269.412 397.287 268.424 398.949 267.035 400.378C265.647 401.808 263.932 402.918 261.89 403.711C259.848 404.503 257.553 404.899 255.004 404.899C251.378 404.899 248.254 404.095 245.632 402.486C243.01 400.876 240.993 398.622 239.58 395.723C238.167 392.823 237.46 389.446 237.46 385.591C237.46 381.736 238.167 378.334 239.58 375.385C240.993 372.437 242.969 370.134 245.51 368.476C248.05 366.818 251.019 365.989 254.416 365.989C256.377 365.989 258.312 366.315 260.224 366.969C262.135 367.622 263.874 368.68 265.443 370.142C267.011 371.604 268.26 373.535 269.192 375.937C270.123 378.338 270.588 381.295 270.588 384.807V387.257H243.256ZM282.828 381.474V404.115H277.045V366.479H282.632V372.359H283.122C284.004 370.448 285.343 368.908 287.14 367.74C288.937 366.573 291.257 365.989 294.099 365.989C296.647 365.989 298.877 366.507 300.788 367.544C302.699 368.582 304.186 370.15 305.248 372.249C306.31 374.348 306.84 376.998 306.84 380.2V404.115H301.058V380.592C301.058 377.636 300.29 375.328 298.755 373.67C297.219 372.012 295.112 371.183 292.433 371.183C290.587 371.183 288.941 371.583 287.495 372.384C286.05 373.184 284.91 374.352 284.077 375.888C283.244 377.423 282.828 379.285 282.828 381.474ZM156.233 446.396H167.014C169.71 446.396 171.874 445.931 173.507 445C175.141 444.068 176.329 442.807 177.073 441.214C177.816 439.621 178.188 437.82 178.188 435.811C178.188 433.802 177.816 432.005 177.073 430.42C176.329 428.836 175.133 427.59 173.483 426.684C171.833 425.777 169.644 425.324 166.916 425.324H156.233V446.396ZM156.233 451.787V470.115H150.156V419.933H167.112C171.049 419.933 174.271 420.64 176.779 422.053C179.286 423.466 181.144 425.373 182.353 427.774C183.562 430.175 184.166 432.854 184.166 435.811C184.166 438.768 183.566 441.455 182.365 443.872C181.165 446.29 179.315 448.214 176.815 449.643C174.316 451.072 171.114 451.787 167.21 451.787H156.233ZM190.819 470.115V432.479H196.406V438.163H196.798C197.484 436.301 198.725 434.79 200.522 433.63C202.319 432.47 204.345 431.891 206.599 431.891C207.024 431.891 207.554 431.899 208.191 431.915C208.829 431.931 209.31 431.956 209.637 431.989V437.869C209.441 437.82 208.996 437.743 208.302 437.636C207.607 437.53 206.877 437.477 206.109 437.477C204.279 437.477 202.65 437.857 201.22 438.617C199.791 439.376 198.664 440.422 197.839 441.753C197.014 443.084 196.602 444.599 196.602 446.298V470.115H190.819ZM217.004 448.258H238.441C238.441 446.135 238.02 444.24 237.179 442.574C236.337 440.908 235.145 439.593 233.601 438.629C232.058 437.665 230.24 437.183 228.149 437.183C225.846 437.183 223.857 437.751 222.183 438.886C220.508 440.021 219.222 441.496 218.324 443.309C217.554 444.863 217.114 446.513 217.004 448.258ZM216.989 453.257C217.073 455.76 217.562 457.904 218.458 459.689C219.447 461.657 220.823 463.152 222.587 464.173C224.351 465.194 226.401 465.704 228.737 465.704C230.257 465.704 231.633 465.488 232.866 465.055C234.099 464.622 235.165 463.969 236.064 463.095C236.962 462.221 237.656 461.131 238.146 459.824L243.733 461.392C243.145 463.287 242.157 464.949 240.768 466.378C239.38 467.808 237.665 468.918 235.623 469.711C233.581 470.503 231.286 470.899 228.737 470.899C225.111 470.899 221.987 470.095 219.365 468.486C216.743 466.877 214.726 464.622 213.313 461.723C211.9 458.823 211.193 455.446 211.193 451.591C211.193 447.736 211.9 444.334 213.313 441.385C214.726 438.437 216.702 436.134 219.243 434.476C221.783 432.818 224.752 431.989 228.149 431.989C230.11 431.989 232.045 432.315 233.956 432.969C235.868 433.622 237.607 434.68 239.176 436.142C240.744 437.604 241.993 439.535 242.925 441.937C243.856 444.338 244.321 447.295 244.321 450.807V453.257H216.989ZM250.778 484.229V432.479H256.365V438.457H257.051C257.475 437.804 258.068 436.967 258.827 435.946C259.587 434.925 260.681 434.01 262.111 433.201C263.54 432.393 265.48 431.989 267.93 431.989C271.099 431.989 273.892 432.781 276.31 434.365C278.728 435.95 280.614 438.196 281.97 441.104C283.326 444.011 284.004 447.442 284.004 451.395C284.004 455.381 283.326 458.831 281.97 461.747C280.614 464.663 278.736 466.917 276.334 468.51C273.933 470.103 271.164 470.899 268.028 470.899C265.61 470.899 263.675 470.495 262.221 469.686C260.767 468.878 259.648 467.955 258.864 466.917C258.08 465.88 257.475 465.018 257.051 464.332H256.561V484.229H250.778ZM256.463 451.297C256.463 454.139 256.879 456.642 257.712 458.807C258.545 460.971 259.762 462.662 261.363 463.879C262.964 465.096 264.924 465.704 267.244 465.704C269.661 465.704 271.683 465.063 273.308 463.781C274.934 462.499 276.159 460.767 276.984 458.586C277.809 456.406 278.221 453.976 278.221 451.297C278.221 448.65 277.817 446.261 277.008 444.13C276.2 441.998 274.983 440.307 273.357 439.058C271.732 437.808 269.694 437.183 267.244 437.183C264.892 437.183 262.915 437.775 261.314 438.96C259.713 440.144 258.505 441.794 257.688 443.909C256.871 446.025 256.463 448.487 256.463 451.297ZM290.461 470.115V432.479H296.047V438.163H296.439C297.125 436.301 298.367 434.79 300.164 433.63C301.961 432.47 303.986 431.891 306.24 431.891C306.665 431.891 307.196 431.899 307.833 431.915C308.47 431.931 308.952 431.956 309.279 431.989V437.869C309.083 437.82 308.638 437.743 307.943 437.636C307.249 437.53 306.518 437.477 305.75 437.477C303.921 437.477 302.291 437.857 300.862 438.617C299.433 439.376 298.306 440.422 297.481 441.753C296.656 443.084 296.243 444.599 296.243 446.298V470.115H290.461ZM313.775 470.115V432.479H319.558V470.115H313.775ZM316.716 426.206C315.588 426.206 314.621 425.822 313.812 425.054C313.003 424.286 312.599 423.364 312.599 422.285C312.599 421.207 313.003 420.284 313.812 419.517C314.621 418.749 315.588 418.365 316.716 418.365C317.843 418.365 318.811 418.749 319.619 419.517C320.428 420.284 320.832 421.207 320.832 422.285C320.832 423.364 320.428 424.286 319.619 425.054C318.811 425.822 317.843 426.206 316.716 426.206ZM333.562 447.474V470.115H327.779V432.479H333.366V438.359H333.856C334.738 436.448 336.077 434.908 337.874 433.741C339.671 432.573 341.991 431.989 344.833 431.989C347.381 431.989 349.611 432.507 351.522 433.544C353.433 434.582 354.92 436.15 355.982 438.249C357.043 440.348 357.574 442.998 357.574 446.2V470.115H351.792V446.592C351.792 443.636 351.024 441.328 349.488 439.67C347.953 438.012 345.846 437.183 343.167 437.183C341.321 437.183 339.675 437.583 338.229 438.384C336.784 439.184 335.644 440.352 334.811 441.888C333.978 443.423 333.562 445.285 333.562 447.474ZM382.163 432.479V437.379H362.659V432.479H382.163ZM368.344 423.462H374.126V459.334C374.126 460.967 374.367 462.188 374.849 462.997C375.331 463.805 375.952 464.345 376.711 464.614C377.471 464.884 378.275 465.018 379.125 465.018C379.762 465.018 380.285 464.982 380.693 464.908C381.101 464.835 381.428 464.773 381.673 464.724L382.849 469.919C382.457 470.066 381.91 470.217 381.208 470.372C380.505 470.527 379.615 470.605 378.537 470.605C376.903 470.605 375.307 470.254 373.746 469.551C372.186 468.849 370.896 467.779 369.875 466.342C368.854 464.904 368.344 463.091 368.344 460.902V423.462ZM177.599 498.479C177.305 495.996 176.113 494.068 174.022 492.696C171.931 491.324 169.366 490.638 166.328 490.638C164.107 490.638 162.167 490.997 160.509 491.716C158.851 492.435 157.56 493.423 156.637 494.681C155.714 495.938 155.253 497.368 155.253 498.969C155.253 500.308 155.575 501.456 156.221 502.411C156.866 503.367 157.695 504.159 158.708 504.788C159.721 505.417 160.782 505.932 161.893 506.332C163.004 506.732 164.025 507.055 164.956 507.3L170.053 508.672C171.359 509.015 172.817 509.489 174.426 510.093C176.035 510.697 177.579 511.518 179.057 512.555C180.536 513.593 181.757 514.92 182.721 516.537C183.684 518.154 184.166 520.139 184.166 522.491C184.166 525.203 183.46 527.653 182.047 529.842C180.634 532.031 178.575 533.771 175.872 535.061C173.168 536.352 169.889 536.997 166.034 536.997C162.44 536.997 159.333 536.417 156.711 535.257C154.089 534.098 152.031 532.48 150.536 530.406C149.041 528.331 148.196 525.922 148 523.177H154.273C154.436 525.072 155.077 526.636 156.196 527.87C157.315 529.103 158.736 530.018 160.46 530.614C162.183 531.21 164.041 531.508 166.034 531.508C168.354 531.508 170.436 531.129 172.282 530.369C174.128 529.609 175.59 528.548 176.668 527.184C177.746 525.82 178.286 524.223 178.286 522.393C178.286 520.727 177.82 519.371 176.889 518.326C175.958 517.28 174.733 516.431 173.213 515.778C171.694 515.124 170.053 514.552 168.288 514.062L162.114 512.298C158.193 511.171 155.09 509.562 152.803 507.471C150.516 505.38 149.372 502.644 149.372 499.263C149.372 496.453 150.136 493.999 151.663 491.9C153.191 489.801 155.249 488.167 157.838 486.999C160.427 485.831 163.322 485.247 166.524 485.247C169.759 485.247 172.634 485.823 175.149 486.975C177.665 488.126 179.662 489.698 181.14 491.691C182.618 493.684 183.398 495.947 183.48 498.479H177.599ZM194.739 550.131C193.759 550.131 192.885 550.053 192.118 549.898C191.35 549.743 190.819 549.592 190.525 549.445L191.995 544.348C194.102 544.887 195.858 544.875 197.263 544.311C198.668 543.748 199.885 542.061 200.914 539.251L201.992 536.311L188.075 498.479H194.347L204.737 528.47H205.129L215.518 498.479L221.84 498.577L205.815 541.604C205.096 543.515 204.206 545.103 203.144 546.369C202.082 547.635 200.853 548.579 199.456 549.199C198.06 549.82 196.487 550.131 194.739 550.131ZM253.779 506.908L248.585 508.378C248.258 507.512 247.78 506.667 247.151 505.842C246.522 505.017 245.669 504.335 244.591 503.796C243.513 503.257 242.132 502.987 240.45 502.987C238.146 502.987 236.231 503.514 234.704 504.568C233.176 505.621 232.413 506.957 232.413 508.574C232.413 510.011 232.936 511.147 233.981 511.98C235.026 512.813 236.66 513.507 238.882 514.062L244.468 515.435C247.833 516.251 250.341 517.497 251.991 519.171C253.64 520.846 254.465 522.998 254.465 525.628C254.465 527.784 253.849 529.712 252.615 531.41C251.382 533.109 249.663 534.449 247.458 535.429C245.252 536.409 242.688 536.899 239.764 536.899C235.925 536.899 232.748 536.066 230.232 534.4C227.716 532.734 226.124 530.3 225.454 527.098L230.943 525.726C231.465 527.751 232.458 529.271 233.92 530.283C235.382 531.296 237.297 531.802 239.666 531.802C242.361 531.802 244.505 531.227 246.098 530.075C247.69 528.923 248.487 527.539 248.487 525.922C248.487 524.615 248.029 523.516 247.115 522.626C246.2 521.736 244.795 521.07 242.9 520.629L236.627 519.159C233.181 518.342 230.653 517.072 229.044 515.349C227.435 513.625 226.63 511.465 226.63 508.868C226.63 506.744 227.23 504.866 228.431 503.232C229.632 501.599 231.273 500.316 233.356 499.385C235.439 498.454 237.803 497.989 240.45 497.989C244.174 497.989 247.102 498.805 249.234 500.439C251.366 502.072 252.881 504.229 253.779 506.908ZM277.192 498.479V503.379H257.688V498.479H277.192ZM263.372 489.462H269.155V525.334C269.155 526.967 269.396 528.188 269.878 528.997C270.36 529.805 270.981 530.345 271.74 530.614C272.5 530.884 273.304 531.018 274.154 531.018C274.791 531.018 275.313 530.982 275.722 530.908C276.13 530.835 276.457 530.773 276.702 530.724L277.878 535.919C277.486 536.066 276.939 536.217 276.236 536.372C275.534 536.527 274.644 536.605 273.566 536.605C271.932 536.605 270.335 536.254 268.775 535.551C267.215 534.849 265.925 533.779 264.904 532.342C263.883 530.904 263.372 529.091 263.372 526.902V489.462ZM287.205 514.258H308.642C308.642 512.135 308.221 510.24 307.38 508.574C306.538 506.908 305.346 505.593 303.802 504.629C302.259 503.665 300.441 503.183 298.35 503.183C296.047 503.183 294.058 503.751 292.384 504.886C290.71 506.021 289.423 507.496 288.525 509.309C287.755 510.863 287.315 512.513 287.205 514.258ZM287.19 519.257C287.274 521.76 287.764 523.904 288.66 525.689C289.648 527.657 291.024 529.152 292.788 530.173C294.553 531.194 296.603 531.704 298.939 531.704C300.458 531.704 301.834 531.488 303.067 531.055C304.301 530.622 305.366 529.969 306.265 529.095C307.163 528.221 307.858 527.131 308.348 525.824L313.934 527.392C313.346 529.287 312.358 530.949 310.969 532.378C309.581 533.808 307.866 534.918 305.824 535.711C303.782 536.503 301.487 536.899 298.939 536.899C295.312 536.899 292.188 536.095 289.566 534.486C286.944 532.877 284.927 530.622 283.514 527.723C282.101 524.823 281.395 521.446 281.395 517.591C281.395 513.736 282.101 510.334 283.514 507.385C284.927 504.437 286.904 502.134 289.444 500.476C291.984 498.818 294.953 497.989 298.35 497.989C300.311 497.989 302.246 498.315 304.158 498.969C306.069 499.622 307.809 500.68 309.377 502.142C310.945 503.604 312.195 505.535 313.126 507.937C314.057 510.338 314.522 513.295 314.522 516.807V519.257H287.19ZM320.979 536.115V498.479H326.566V504.359H327.056C327.84 502.35 329.106 500.786 330.854 499.667C332.602 498.548 334.701 497.989 337.151 497.989C339.634 497.989 341.704 498.548 343.362 499.667C345.02 500.786 346.315 502.35 347.246 504.359H347.638C348.602 502.415 350.048 500.868 351.975 499.716C353.903 498.564 356.214 497.989 358.91 497.989C362.275 497.989 365.027 499.038 367.167 501.137C369.307 503.236 370.377 506.499 370.377 510.926V536.115H364.594V510.926C364.594 508.149 363.835 506.164 362.315 504.972C360.796 503.779 359.008 503.183 356.949 503.183C354.303 503.183 352.253 503.979 350.799 505.572C349.345 507.165 348.618 509.178 348.618 511.612V536.115H342.738V510.338C342.738 508.198 342.043 506.471 340.655 505.156C339.266 503.841 337.478 503.183 335.289 503.183C333.786 503.183 332.385 503.583 331.087 504.384C329.788 505.184 328.742 506.291 327.95 507.704C327.158 509.117 326.762 510.746 326.762 512.592V536.115H320.979ZM405.257 506.908L400.062 508.378C399.736 507.512 399.258 506.667 398.629 505.842C398 505.017 397.146 504.335 396.068 503.796C394.99 503.257 393.61 502.987 391.927 502.987C389.624 502.987 387.709 503.514 386.181 504.568C384.654 505.621 383.89 506.957 383.89 508.574C383.89 510.011 384.413 511.147 385.459 511.98C386.504 512.813 388.138 513.507 390.359 514.062L395.946 515.435C399.311 516.251 401.818 517.497 403.468 519.171C405.118 520.846 405.943 522.998 405.943 525.628C405.943 527.784 405.326 529.712 404.093 531.41C402.86 533.109 401.14 534.449 398.935 535.429C396.73 536.409 394.165 536.899 391.241 536.899C387.402 536.899 384.225 536.066 381.71 534.4C379.194 532.734 377.601 530.3 376.932 527.098L382.42 525.726C382.943 527.751 383.935 529.271 385.397 530.283C386.859 531.296 388.775 531.802 391.143 531.802C393.839 531.802 395.983 531.227 397.575 530.075C399.168 528.923 399.964 527.539 399.964 525.922C399.964 524.615 399.507 523.516 398.592 522.626C397.677 521.736 396.273 521.07 394.378 520.629L388.105 519.159C384.658 518.342 382.13 517.072 380.521 515.349C378.912 513.625 378.108 511.465 378.108 508.868C378.108 506.744 378.708 504.866 379.909 503.232C381.109 501.599 382.751 500.316 384.834 499.385C386.917 498.454 389.281 497.989 391.927 497.989C395.652 497.989 398.58 498.805 400.712 500.439C402.843 502.072 404.358 504.229 405.257 506.908Z" fill="white"/>
</svg>
