<svg width="639" height="699" viewBox="0 0 639 699" fill="none" xmlns="http://www.w3.org/2000/svg">
<path d="M164.863 243.542V207.458C164.863 175.474 164.863 169.733 164.453 163.172C164.042 156.201 162.399 152.921 155.624 151.485C153.981 151.075 150.491 150.87 148.643 150.87C147.821 150.87 147 150.46 147 149.64C147 148.41 148.027 148 150.285 148C159.525 148 171.844 148.615 173.487 148.615C178.004 148.615 189.913 148 199.358 148C225.023 148 234.263 156.611 237.548 159.687C242.065 163.992 247.814 173.218 247.814 186.545C247.814 213.198 226.46 232.881 197.304 232.881C196.278 232.881 194.019 232.881 192.993 232.676C191.966 232.676 190.734 232.266 190.734 231.241C190.734 229.601 191.966 229.396 196.278 229.396C216.194 229.396 231.799 215.864 231.799 194.336C231.799 189.21 231.183 175.474 220.301 164.402C209.419 153.331 196.894 154.151 192.171 154.151C188.681 154.151 185.19 154.561 183.342 155.381C182.11 155.791 181.7 157.226 181.7 159.276V243.542C181.7 263.225 181.7 279.422 182.726 288.033C183.342 293.979 184.574 298.489 190.734 299.31C193.609 299.72 198.126 300.13 199.974 300.13C201.206 300.13 201.616 300.745 201.616 301.36C201.616 302.385 200.59 303 198.331 303C187.038 303 174.103 302.385 173.076 302.385C172.46 302.385 159.525 303 153.365 303C151.106 303 150.08 302.59 150.08 301.36C150.08 300.745 150.491 300.13 151.722 300.13C153.57 300.13 156.034 299.72 157.882 299.31C161.989 298.489 163.015 293.979 163.837 288.033C164.863 279.422 164.863 263.225 164.863 243.542ZM282.658 207.458V220.579C289.023 214.429 316.947 185.11 329.472 172.193C341.791 159.481 342.612 157.431 342.612 154.971C342.612 153.331 341.586 151.69 339.943 151.075C338.506 150.46 338.095 150.05 338.095 149.23C338.095 148.41 339.327 148 341.175 148C347.129 148 346.513 148.615 353.494 148.615C359.86 148.615 371.974 148 375.259 148C378.133 148 378.749 148.615 378.749 149.435C378.749 150.255 378.339 150.665 376.491 150.87C372.59 151.28 368.894 152.101 366.019 153.331C360.886 155.381 356.985 157.841 344.666 169.733C326.597 187.16 303.19 210.328 297.852 216.274C310.787 230.421 348.156 268.351 357.806 277.372C374.643 293.159 381.829 297.669 391.685 299.515C393.533 299.925 395.586 300.13 397.639 300.13C399.282 300.13 400.514 300.54 400.514 301.565C400.514 302.59 399.692 303 397.434 303H382.24C364.377 303 359.654 300.745 350.004 293.159C337.685 283.522 300.726 243.952 282.658 222.425V243.542C282.658 263.225 282.658 279.422 283.684 288.033C284.3 293.979 285.532 298.489 291.692 299.31C294.566 299.72 298.673 300.13 299.905 300.13C301.753 300.13 302.369 300.95 302.369 301.565C302.369 302.59 301.547 303 299.289 303C287.996 303 275.061 302.385 274.034 302.385C273.007 302.385 260.893 303 254.734 303C252.475 303 251.448 302.795 251.448 301.565C251.448 300.95 251.859 300.13 253.707 300.13C254.939 300.13 257.197 299.925 259.045 299.515C263.152 298.694 264.384 293.979 265.205 288.033C266.232 279.422 266.232 263.225 266.232 243.542V207.458C266.232 175.474 266.232 169.733 265.821 163.172C265.41 156.201 263.357 152.716 258.84 151.69C256.581 151.075 252.886 150.87 251.448 150.87C249.806 150.87 249.19 150.46 249.19 149.64C249.19 148.41 250.216 148 252.475 148C259.251 148 273.007 148.615 274.034 148.615C275.061 148.615 287.996 148 294.156 148C296.414 148 297.441 148.41 297.441 149.435C297.441 150.255 297.03 150.665 295.182 150.87C292.924 151.075 292.719 151.075 290.665 151.28C285.122 151.896 283.479 155.996 283.068 163.172C282.658 169.733 282.658 175.474 282.658 207.458ZM408.049 243.542V207.458C408.049 175.474 408.049 169.733 407.638 163.172C407.228 156.201 405.585 152.921 398.809 151.485C397.167 151.075 393.676 150.87 391.828 150.87C391.007 150.87 390.186 150.46 390.186 149.64C390.186 148.41 391.213 148 393.471 148C402.711 148 415.03 148.615 416.673 148.615C421.19 148.615 433.099 148 442.544 148C468.209 148 477.449 156.611 480.734 159.687C485.251 163.992 491 173.218 491 186.545C491 213.198 469.646 232.881 440.49 232.881C439.464 232.881 437.205 232.881 436.178 232.676C435.152 232.676 433.92 232.266 433.92 231.241C433.92 229.601 435.152 229.396 439.464 229.396C459.38 229.396 474.985 215.864 474.985 194.336C474.985 189.21 474.369 175.474 463.487 164.402C452.604 153.331 440.08 154.151 435.357 154.151C431.867 154.151 428.376 154.561 426.528 155.381C425.296 155.791 424.886 157.226 424.886 159.276V243.542C424.886 263.225 424.886 279.422 425.912 288.033C426.528 293.979 427.76 298.489 433.92 299.31C436.794 299.72 441.312 300.13 443.159 300.13C444.391 300.13 444.802 300.745 444.802 301.36C444.802 302.385 443.775 303 441.517 303C430.224 303 417.289 302.385 416.262 302.385C415.646 302.385 402.711 303 396.551 303C394.292 303 393.266 302.59 393.266 301.36C393.266 300.745 393.676 300.13 394.908 300.13C396.756 300.13 399.22 299.72 401.068 299.31C405.175 298.489 406.201 293.979 407.022 288.033C408.049 279.422 408.049 263.225 408.049 243.542Z" fill="white"/>
<path d="M155.992 381.278H166.774C169.469 381.278 171.633 380.813 173.267 379.882C174.9 378.951 176.089 377.689 176.832 376.096C177.575 374.503 177.947 372.702 177.947 370.693C177.947 368.684 177.575 366.887 176.832 365.302C176.089 363.718 174.892 362.472 173.242 361.566C171.592 360.659 169.404 360.206 166.676 360.206H155.992V381.278ZM155.992 386.669V404.997H149.916V354.815H166.872C170.808 354.815 174.031 355.522 176.538 356.935C179.045 358.348 180.904 360.255 182.112 362.656C183.321 365.057 183.926 367.736 183.926 370.693C183.926 373.65 183.325 376.337 182.125 378.755C180.924 381.172 179.074 383.096 176.575 384.525C174.075 385.954 170.874 386.669 166.97 386.669H155.992ZM214.297 389.609V367.361H220.08V404.997H214.297V398.626H213.905C213.023 400.538 211.651 402.159 209.789 403.49C207.926 404.821 205.574 405.487 202.732 405.487C200.379 405.487 198.289 404.968 196.459 403.931C194.629 402.894 193.192 401.326 192.147 399.227C191.101 397.128 190.578 394.477 190.578 391.275V367.361H196.361V390.883C196.361 393.628 197.133 395.817 198.677 397.45C200.22 399.084 202.193 399.9 204.594 399.9C206.032 399.9 207.498 399.533 208.992 398.798C210.487 398.063 211.745 396.936 212.766 395.416C213.787 393.897 214.297 391.962 214.297 389.609ZM229.085 404.997V354.815H234.868V373.339H235.358C235.782 372.686 236.374 371.849 237.134 370.828C237.894 369.807 238.988 368.892 240.417 368.084C241.847 367.275 243.787 366.871 246.237 366.871C249.406 366.871 252.199 367.663 254.617 369.247C257.034 370.832 258.921 373.078 260.277 375.986C261.633 378.893 262.311 382.324 262.311 386.277C262.311 390.263 261.633 393.713 260.277 396.629C258.921 399.545 257.043 401.799 254.641 403.392C252.24 404.985 249.471 405.781 246.335 405.781C243.917 405.781 241.982 405.377 240.528 404.568C239.074 403.76 237.955 402.837 237.171 401.799C236.387 400.762 235.782 399.9 235.358 399.214H234.671V404.997H229.085ZM234.77 386.179C234.77 389.021 235.186 391.525 236.019 393.689C236.852 395.853 238.069 397.544 239.67 398.761C241.271 399.978 243.231 400.587 245.551 400.587C247.968 400.587 249.99 399.945 251.615 398.663C253.241 397.381 254.466 395.649 255.291 393.468C256.116 391.288 256.528 388.858 256.528 386.179C256.528 383.533 256.124 381.144 255.315 379.012C254.507 376.88 253.29 375.189 251.664 373.94C250.039 372.69 248.001 372.065 245.551 372.065C243.198 372.065 241.222 372.657 239.621 373.842C238.02 375.026 236.811 376.676 235.995 378.791C235.178 380.907 234.77 383.369 234.77 386.179ZM274.55 354.815V404.997H268.767V354.815H274.55ZM282.771 404.997V367.361H288.554V404.997H282.771ZM285.711 361.088C284.584 361.088 283.616 360.704 282.808 359.936C281.999 359.169 281.595 358.246 281.595 357.168C281.595 356.089 281.999 355.166 282.808 354.399C283.616 353.631 284.584 353.247 285.711 353.247C286.839 353.247 287.806 353.631 288.615 354.399C289.424 355.166 289.828 356.089 289.828 357.168C289.828 358.246 289.424 359.169 288.615 359.936C287.806 360.704 286.839 361.088 285.711 361.088ZM312.064 405.781C308.536 405.781 305.498 404.948 302.949 403.282C300.401 401.616 298.441 399.321 297.069 396.397C295.697 393.473 295.011 390.132 295.011 386.375C295.011 382.552 295.717 379.175 297.13 376.243C298.543 373.311 300.52 371.016 303.06 369.358C305.6 367.7 308.569 366.871 311.966 366.871C314.613 366.871 316.998 367.361 319.121 368.341C321.245 369.321 322.985 370.693 324.34 372.457C325.696 374.222 326.538 376.28 326.864 378.632H321.082C320.64 376.917 319.664 375.394 318.153 374.062C316.642 372.731 314.613 372.065 312.064 372.065C309.81 372.065 307.838 372.649 306.147 373.817C304.456 374.985 303.141 376.627 302.202 378.742C301.263 380.858 300.793 383.337 300.793 386.179C300.793 389.087 301.255 391.619 302.178 393.775C303.101 395.931 304.407 397.605 306.098 398.798C307.789 399.99 309.778 400.587 312.064 400.587C313.567 400.587 314.931 400.325 316.156 399.802C317.382 399.28 318.419 398.528 319.268 397.548C320.118 396.568 320.722 395.392 321.082 394.02H326.864C326.538 396.241 325.733 398.238 324.451 400.011C323.168 401.783 321.478 403.188 319.379 404.225C317.28 405.263 314.842 405.781 312.064 405.781ZM149.916 470.997V420.815H155.992V445.71H156.58L179.123 420.815H187.062L165.99 443.456L187.062 470.997H179.711L162.265 447.67L155.992 454.727V470.997H149.916ZM197.537 448.356V470.997H191.755V433.361H197.341V439.241H197.831C198.713 437.33 200.053 435.791 201.85 434.623C203.647 433.455 205.966 432.871 208.808 432.871C211.357 432.871 213.587 433.389 215.498 434.427C217.409 435.464 218.895 437.032 219.957 439.131C221.019 441.23 221.55 443.881 221.55 447.082V470.997H215.767V447.474C215.767 444.518 215 442.21 213.464 440.552C211.929 438.894 209.821 438.065 207.142 438.065C205.296 438.065 203.651 438.465 202.205 439.266C200.759 440.066 199.62 441.234 198.787 442.77C197.954 444.305 197.537 446.168 197.537 448.356ZM245.061 471.781C241.663 471.781 238.686 470.973 236.129 469.355C233.573 467.738 231.58 465.476 230.151 462.568C228.721 459.66 228.007 456.263 228.007 452.375C228.007 448.454 228.721 445.032 230.151 442.108C231.58 439.184 233.573 436.914 236.129 435.296C238.686 433.679 241.663 432.871 245.061 432.871C248.458 432.871 251.436 433.679 253.992 435.296C256.548 436.914 258.541 439.184 259.971 442.108C261.4 445.032 262.115 448.454 262.115 452.375C262.115 456.263 261.4 459.66 259.971 462.568C258.541 465.476 256.548 467.738 253.992 469.355C251.436 470.973 248.458 471.781 245.061 471.781ZM245.061 466.587C247.642 466.587 249.765 465.925 251.431 464.602C253.098 463.279 254.331 461.539 255.131 459.383C255.932 457.226 256.332 454.891 256.332 452.375C256.332 449.859 255.932 447.515 255.131 445.343C254.331 443.17 253.098 441.414 251.431 440.074C249.765 438.735 247.642 438.065 245.061 438.065C242.48 438.065 240.356 438.735 238.69 440.074C237.024 441.414 235.79 443.17 234.99 445.343C234.19 447.515 233.789 449.859 233.789 452.375C233.789 454.891 234.19 457.226 234.99 459.383C235.79 461.539 237.024 463.279 238.69 464.602C240.356 465.925 242.48 466.587 245.061 466.587ZM275.824 470.997L264.357 433.361H270.434L278.569 462.176H278.961L286.998 433.361H293.172L301.111 462.078H301.503L309.638 433.361H315.715L304.248 470.997H298.563L290.33 442.084H289.742L281.509 470.997H275.824ZM326.778 420.815V470.997H320.996V420.815H326.778ZM339.045 449.141H360.482C360.482 447.017 360.061 445.122 359.22 443.456C358.379 441.79 357.186 440.475 355.643 439.511C354.099 438.547 352.282 438.065 350.191 438.065C347.888 438.065 345.899 438.633 344.224 439.768C342.55 440.903 341.264 442.378 340.365 444.191C339.595 445.745 339.155 447.395 339.045 449.141ZM339.031 454.139C339.114 456.642 339.604 458.786 340.5 460.571C341.488 462.54 342.865 464.034 344.629 465.055C346.393 466.076 348.443 466.587 350.779 466.587C352.298 466.587 353.674 466.37 354.908 465.937C356.141 465.504 357.207 464.851 358.105 463.977C359.004 463.103 359.698 462.013 360.188 460.706L365.775 462.274C365.187 464.169 364.198 465.831 362.81 467.26C361.421 468.69 359.706 469.801 357.664 470.593C355.622 471.385 353.327 471.781 350.779 471.781C347.153 471.781 344.028 470.977 341.407 469.368C338.785 467.759 336.767 465.504 335.354 462.605C333.941 459.705 333.235 456.328 333.235 452.473C333.235 448.618 333.941 445.216 335.354 442.267C336.767 439.319 338.744 437.016 341.284 435.358C343.824 433.7 346.793 432.871 350.191 432.871C352.151 432.871 354.087 433.197 355.998 433.851C357.909 434.504 359.649 435.562 361.217 437.024C362.785 438.486 364.035 440.417 364.966 442.819C365.897 445.22 366.363 448.177 366.363 451.689V454.139H339.031ZM387.031 471.781C383.895 471.781 381.126 470.985 378.725 469.392C376.323 467.799 374.445 465.545 373.089 462.629C371.733 459.713 371.055 456.263 371.055 452.277C371.055 448.324 371.733 444.893 373.089 441.986C374.445 439.078 376.332 436.832 378.749 435.247C381.167 433.663 383.96 432.871 387.129 432.871C389.58 432.871 391.519 433.275 392.949 434.084C394.378 434.892 395.472 435.807 396.232 436.828C396.992 437.849 397.584 438.686 398.008 439.339H398.499V420.815H404.281V470.997H398.695V465.214H398.008C397.584 465.9 396.979 466.762 396.195 467.799C395.411 468.837 394.292 469.76 392.838 470.568C391.385 471.377 389.449 471.781 387.031 471.781ZM387.815 466.587C390.135 466.587 392.095 465.978 393.696 464.761C395.297 463.544 396.514 461.853 397.347 459.689C398.18 457.525 398.597 455.021 398.597 452.179C398.597 449.369 398.188 446.907 397.371 444.791C396.555 442.676 395.346 441.026 393.745 439.842C392.144 438.657 390.168 438.065 387.815 438.065C385.365 438.065 383.327 438.69 381.702 439.94C380.076 441.189 378.86 442.88 378.051 445.012C377.242 447.144 376.838 449.533 376.838 452.179C376.838 454.858 377.25 457.288 378.075 459.468C378.9 461.649 380.125 463.381 381.751 464.663C383.376 465.945 385.398 466.587 387.815 466.587ZM428.478 485.895C425.685 485.895 423.283 485.54 421.274 484.829C419.265 484.118 417.595 483.187 416.263 482.036C414.932 480.884 413.874 479.655 413.09 478.348L417.697 475.114C418.22 475.8 418.881 476.588 419.682 477.478C420.482 478.368 421.58 479.144 422.977 479.806C424.374 480.467 426.207 480.798 428.478 480.798C431.516 480.798 434.024 480.063 436 478.593C437.977 477.123 438.965 474.82 438.965 471.683V464.038H438.475C438.05 464.724 437.45 465.57 436.674 466.574C435.898 467.579 434.788 468.469 433.342 469.245C431.896 470.021 429.948 470.409 427.498 470.409C424.46 470.409 421.736 469.69 419.326 468.253C416.917 466.815 415.014 464.724 413.617 461.98C412.22 459.236 411.522 455.903 411.522 451.983C411.522 448.128 412.2 444.767 413.556 441.9C414.912 439.033 416.798 436.812 419.216 435.235C421.634 433.659 424.427 432.871 427.596 432.871C430.046 432.871 431.994 433.275 433.44 434.084C434.886 434.892 435.996 435.807 436.772 436.828C437.548 437.849 438.148 438.686 438.573 439.339H439.161V433.361H444.748V472.075C444.748 475.31 444.017 477.944 442.555 479.977C441.093 482.011 439.133 483.506 436.674 484.461C434.216 485.417 431.484 485.895 428.478 485.895ZM428.282 465.214C430.602 465.214 432.562 464.683 434.163 463.622C435.764 462.56 436.98 461.033 437.814 459.04C438.647 457.047 439.063 454.662 439.063 451.885C439.063 449.173 438.655 446.78 437.838 444.706C437.021 442.631 435.813 441.006 434.212 439.829C432.611 438.653 430.634 438.065 428.282 438.065C425.832 438.065 423.794 438.686 422.169 439.927C420.543 441.169 419.326 442.835 418.518 444.926C417.709 447.017 417.305 449.337 417.305 451.885C417.305 454.499 417.717 456.806 418.542 458.807C419.367 460.808 420.592 462.376 422.218 463.511C423.843 464.647 425.864 465.214 428.282 465.214ZM457.015 449.141H478.452C478.452 447.017 478.031 445.122 477.19 443.456C476.349 441.79 475.156 440.475 473.613 439.511C472.069 438.547 470.252 438.065 468.161 438.065C465.857 438.065 463.869 438.633 462.194 439.768C460.52 440.903 459.233 442.378 458.335 444.191C457.565 445.745 457.125 447.395 457.015 449.141ZM457 454.139C457.084 456.642 457.574 458.786 458.47 460.571C459.458 462.54 460.834 464.034 462.598 465.055C464.363 466.076 466.413 466.587 468.749 466.587C470.268 466.587 471.644 466.37 472.877 465.937C474.111 465.504 475.177 464.851 476.075 463.977C476.973 463.103 477.668 462.013 478.158 460.706L483.744 462.274C483.156 464.169 482.168 465.831 480.78 467.26C479.391 468.69 477.676 469.801 475.634 470.593C473.592 471.385 471.297 471.781 468.749 471.781C465.122 471.781 461.998 470.977 459.376 469.368C456.755 467.759 454.737 465.504 453.324 462.605C451.911 459.705 451.205 456.328 451.205 452.473C451.205 448.618 451.911 445.216 453.324 442.267C454.737 439.319 456.714 437.016 459.254 435.358C461.794 433.7 464.763 432.871 468.161 432.871C470.121 432.871 472.057 433.197 473.968 433.851C475.879 434.504 477.619 435.562 479.187 437.024C480.755 438.486 482.005 440.417 482.936 442.819C483.867 445.22 484.333 448.177 484.333 451.689V454.139H457ZM155.992 513.278H166.774C169.469 513.278 171.633 512.813 173.267 511.882C174.9 510.951 176.089 509.689 176.832 508.096C177.575 506.503 177.947 504.702 177.947 502.693C177.947 500.684 177.575 498.887 176.832 497.302C176.089 495.718 174.892 494.472 173.242 493.566C171.592 492.659 169.404 492.206 166.676 492.206H155.992V513.278ZM155.992 518.669V536.997H149.916V486.815H166.872C170.808 486.815 174.031 487.522 176.538 488.935C179.045 490.348 180.904 492.255 182.112 494.656C183.321 497.057 183.926 499.736 183.926 502.693C183.926 505.65 183.325 508.337 182.125 510.755C180.924 513.172 179.074 515.096 176.575 516.525C174.075 517.954 170.874 518.669 166.97 518.669H155.992ZM190.578 536.997V499.361H196.165V505.045H196.557C197.243 503.183 198.485 501.672 200.281 500.512C202.078 499.353 204.104 498.773 206.358 498.773C206.783 498.773 207.314 498.781 207.951 498.797C208.588 498.813 209.07 498.838 209.397 498.871V504.751C209.201 504.702 208.755 504.625 208.061 504.519C207.367 504.412 206.636 504.359 205.868 504.359C204.039 504.359 202.409 504.739 200.98 505.499C199.55 506.258 198.423 507.304 197.598 508.635C196.774 509.966 196.361 511.481 196.361 513.18V536.997H190.578ZM228.007 537.781C224.609 537.781 221.632 536.973 219.075 535.355C216.519 533.738 214.526 531.476 213.097 528.568C211.667 525.66 210.953 522.263 210.953 518.375C210.953 514.454 211.667 511.032 213.097 508.108C214.526 505.184 216.519 502.914 219.075 501.296C221.632 499.679 224.609 498.871 228.007 498.871C231.404 498.871 234.382 499.679 236.938 501.296C239.494 502.914 241.487 505.184 242.917 508.108C244.346 511.032 245.061 514.454 245.061 518.375C245.061 522.263 244.346 525.66 242.917 528.568C241.487 531.476 239.494 533.738 236.938 535.355C234.382 536.973 231.404 537.781 228.007 537.781ZM228.007 532.587C230.588 532.587 232.711 531.925 234.377 530.602C236.044 529.279 237.277 527.539 238.077 525.383C238.878 523.226 239.278 520.891 239.278 518.375C239.278 515.859 238.878 513.515 238.077 511.343C237.277 509.17 236.044 507.414 234.377 506.074C232.711 504.735 230.588 504.065 228.007 504.065C225.426 504.065 223.302 504.735 221.636 506.074C219.97 507.414 218.736 509.17 217.936 511.343C217.136 513.515 216.735 515.859 216.735 518.375C216.735 520.891 217.136 523.226 217.936 525.383C218.736 527.539 219.97 529.279 221.636 530.602C223.302 531.925 225.426 532.587 228.007 532.587ZM251.517 499.361H257.3V539.741C257.3 542.061 256.904 544.07 256.112 545.769C255.319 547.468 254.127 548.783 252.534 549.714C250.942 550.645 248.937 551.111 246.519 551.111H245.343V545.72H246.421C248.185 545.72 249.476 545.201 250.292 544.164C251.109 543.127 251.517 541.653 251.517 539.741V499.361ZM254.36 493.088C253.233 493.088 252.265 492.704 251.456 491.936C250.648 491.169 250.243 490.246 250.243 489.168C250.243 488.089 250.648 487.166 251.456 486.399C252.265 485.631 253.233 485.247 254.36 485.247C255.487 485.247 256.455 485.631 257.263 486.399C258.072 487.166 258.476 488.089 258.476 489.168C258.476 490.246 258.072 491.169 257.263 491.936C256.455 492.704 255.487 493.088 254.36 493.088ZM269.567 515.141H291.004C291.004 513.017 290.583 511.122 289.742 509.456C288.901 507.79 287.708 506.475 286.165 505.511C284.621 504.547 282.804 504.065 280.713 504.065C278.41 504.065 276.421 504.633 274.746 505.768C273.072 506.903 271.786 508.378 270.887 510.191C270.117 511.745 269.677 513.395 269.567 515.141ZM269.552 520.139C269.636 522.642 270.126 524.786 271.022 526.571C272.01 528.54 273.386 530.034 275.151 531.055C276.915 532.076 278.965 532.587 281.301 532.587C282.82 532.587 284.196 532.37 285.43 531.937C286.663 531.504 287.729 530.851 288.627 529.977C289.526 529.103 290.22 528.013 290.71 526.706L296.297 528.274C295.709 530.169 294.72 531.831 293.332 533.26C291.943 534.69 290.228 535.801 288.186 536.593C286.144 537.385 283.849 537.781 281.301 537.781C277.674 537.781 274.55 536.977 271.929 535.368C269.307 533.759 267.289 531.504 265.876 528.605C264.463 525.705 263.757 522.328 263.757 518.473C263.757 514.618 264.463 511.216 265.876 508.267C267.289 505.319 269.266 503.016 271.806 501.358C274.346 499.7 277.315 498.871 280.713 498.871C282.673 498.871 284.609 499.197 286.52 499.851C288.431 500.504 290.171 501.562 291.739 503.024C293.307 504.486 294.557 506.417 295.488 508.819C296.419 511.22 296.885 514.177 296.885 517.689V520.139H269.552ZM318.631 537.781C315.103 537.781 312.065 536.948 309.516 535.282C306.968 533.616 305.008 531.321 303.636 528.397C302.263 525.473 301.577 522.132 301.577 518.375C301.577 514.552 302.284 511.175 303.697 508.243C305.11 505.311 307.086 503.016 309.626 501.358C312.167 499.7 315.136 498.871 318.533 498.871C321.18 498.871 323.564 499.361 325.688 500.341C327.812 501.321 329.551 502.693 330.907 504.457C332.263 506.222 333.104 508.28 333.431 510.632H327.648C327.207 508.917 326.231 507.394 324.72 506.062C323.209 504.731 321.18 504.065 318.631 504.065C316.377 504.065 314.405 504.649 312.714 505.817C311.023 506.985 309.708 508.627 308.769 510.742C307.83 512.858 307.36 515.337 307.36 518.179C307.36 521.087 307.821 523.618 308.744 525.775C309.667 527.931 310.974 529.605 312.665 530.798C314.356 531.99 316.344 532.587 318.631 532.587C320.134 532.587 321.498 532.325 322.723 531.802C323.948 531.28 324.986 530.528 325.835 529.548C326.685 528.568 327.289 527.392 327.648 526.02H333.431C333.104 528.241 332.3 530.238 331.017 532.011C329.735 533.783 328.044 535.188 325.945 536.225C323.846 537.263 321.408 537.781 318.631 537.781ZM355.864 499.361V504.261H336.359V499.361H355.864ZM342.044 490.344H347.827V526.216C347.827 527.849 348.068 529.07 348.549 529.879C349.031 530.688 349.652 531.227 350.412 531.496C351.171 531.766 351.976 531.9 352.825 531.9C353.462 531.9 353.985 531.864 354.393 531.79C354.802 531.717 355.128 531.655 355.374 531.606L356.55 536.801C356.158 536.948 355.61 537.099 354.908 537.254C354.206 537.41 353.315 537.487 352.237 537.487C350.604 537.487 349.007 537.136 347.447 536.434C345.887 535.731 344.596 534.661 343.575 533.224C342.554 531.786 342.044 529.973 342.044 527.784V490.344Z" fill="white"/>
</svg>
