<svg width="730" height="684" viewBox="0 0 730 684" fill="none" xmlns="http://www.w3.org/2000/svg">
<path d="M222.625 299.81C169.22 299.81 147 258.294 147 223.21C147 191.635 169.999 147 223.795 147C267.65 147 300.395 174.677 300.395 220.092C300.395 263.752 269.599 299.81 222.625 299.81ZM227.888 292.404C245.43 292.404 281.683 282.268 281.683 225.549C281.683 178.77 253.226 153.627 222.431 153.627C189.88 153.627 165.517 175.067 165.517 217.753C165.517 263.167 192.804 292.404 227.888 292.404ZM453.439 152.263L466.498 271.938C467.278 278.955 468.642 289.87 477.023 292.598C482.676 294.353 487.159 294.353 489.108 294.353C490.082 294.353 491.252 294.548 491.252 295.522C491.252 296.692 490.667 297.081 488.328 297.081C484.04 297.081 461.82 296.497 454.608 295.912C450.126 295.522 449.151 294.937 449.151 293.963C449.151 293.183 449.541 292.988 450.515 292.598C451.88 292.014 451.685 289.09 451.295 285.582L441.939 183.838L393.601 286.361C389.508 294.937 388.923 296.692 387.169 296.692C385.805 296.692 384.83 294.742 381.127 287.726C376.059 278.175 359.297 244.455 358.322 242.506C356.568 238.998 334.153 190.855 332.009 185.592L324.018 277.395C323.823 280.514 323.628 283.243 323.628 286.556C323.628 291.429 325.967 292.988 328.891 293.573C332.204 294.353 334.738 294.353 335.908 294.353C337.077 294.353 337.857 294.742 337.857 295.327C337.857 296.692 336.882 297.081 334.933 297.081C327.721 297.081 317.781 296.497 316.222 296.497C314.467 296.497 305.112 297.081 299.849 297.081C297.9 297.081 296.536 296.887 296.536 295.522C296.536 294.742 297.51 294.353 298.485 294.353C300.044 294.353 301.408 294.353 304.332 293.768C310.764 292.598 311.154 285.582 312.129 277.59L326.162 150.898C326.357 148.754 327.137 147 328.306 147C329.476 147 330.255 147.78 331.23 149.924L390.873 272.523L448.176 150.119C448.956 148.364 449.736 147 451.1 147C452.464 147 453.049 148.559 453.439 152.263ZM502.985 240.557V206.253C502.985 175.847 502.985 170.389 502.596 164.152C502.206 157.525 500.646 154.407 494.214 153.042C492.655 152.652 489.342 152.458 487.587 152.458C486.808 152.458 486.028 152.068 486.028 151.288C486.028 150.119 487.003 149.729 489.147 149.729C497.918 149.729 509.612 150.313 511.172 150.313C515.46 150.313 526.764 149.729 535.73 149.729C560.094 149.729 568.865 157.915 571.984 160.839C576.272 164.932 581.729 173.703 581.729 186.372C581.729 211.71 561.459 230.422 533.781 230.422C532.807 230.422 530.663 230.422 529.688 230.227C528.714 230.227 527.544 229.837 527.544 228.863C527.544 227.303 528.714 227.108 532.807 227.108C551.713 227.108 566.526 214.244 566.526 193.779C566.526 188.906 565.942 175.847 555.611 165.322C545.281 154.796 533.391 155.576 528.909 155.576C525.595 155.576 522.282 155.966 520.527 156.746C519.358 157.135 518.968 158.5 518.968 160.449V240.557C518.968 259.269 518.968 274.667 519.943 282.853C520.527 288.505 521.697 292.793 527.544 293.573C530.273 293.963 534.561 294.353 536.315 294.353C537.485 294.353 537.874 294.937 537.874 295.522C537.874 296.497 536.9 297.081 534.756 297.081C524.036 297.081 511.756 296.497 510.782 296.497C510.197 296.497 497.918 297.081 492.07 297.081C489.926 297.081 488.952 296.692 488.952 295.522C488.952 294.937 489.342 294.353 490.511 294.353C492.265 294.353 494.604 293.963 496.358 293.573C500.257 292.793 501.231 288.505 502.011 282.853C502.985 274.667 502.985 259.269 502.985 240.557Z" fill="white"/>
<path d="M191.301 378.024C191.301 383.317 190.346 387.891 188.434 391.746C186.523 395.601 183.901 398.574 180.569 400.665C177.236 402.756 173.43 403.801 169.151 403.801C164.871 403.801 161.065 402.756 157.732 400.665C154.4 398.574 151.778 395.601 149.867 391.746C147.956 387.891 147 383.317 147 378.024C147 372.731 147.956 368.158 149.867 364.302C151.778 360.447 154.4 357.474 157.732 355.383C161.065 353.293 164.871 352.247 169.151 352.247C173.43 352.247 177.236 353.293 180.569 355.383C183.901 357.474 186.523 360.447 188.434 364.302C190.346 368.158 191.301 372.731 191.301 378.024ZM185.42 378.024C185.42 373.679 184.698 370.012 183.252 367.022C181.806 364.033 179.854 361.771 177.396 360.235C174.937 358.699 172.189 357.932 169.151 357.932C166.112 357.932 163.364 358.699 160.905 360.235C158.447 361.771 156.495 364.033 155.049 367.022C153.604 370.012 152.881 373.679 152.881 378.024C152.881 382.369 153.604 386.036 155.049 389.026C156.495 392.015 158.447 394.278 160.905 395.813C163.364 397.349 166.112 398.116 169.151 398.116C172.189 398.116 174.937 397.349 177.396 395.813C179.854 394.278 181.806 392.015 183.252 389.026C184.698 386.036 185.42 382.369 185.42 378.024ZM198.346 417.229V365.479H203.933V371.457H204.619C205.043 370.804 205.636 369.967 206.395 368.946C207.155 367.925 208.249 367.01 209.679 366.201C211.108 365.393 213.048 364.989 215.498 364.989C218.667 364.989 221.46 365.781 223.878 367.365C226.296 368.95 228.182 371.196 229.538 374.104C230.894 377.011 231.572 380.442 231.572 384.395C231.572 388.381 230.894 391.831 229.538 394.747C228.182 397.663 226.304 399.917 223.902 401.51C221.501 403.103 218.732 403.899 215.596 403.899C213.178 403.899 211.243 403.495 209.789 402.686C208.335 401.878 207.216 400.955 206.432 399.917C205.648 398.88 205.043 398.018 204.619 397.332H204.129V417.229H198.346ZM204.031 384.297C204.031 387.139 204.447 389.642 205.28 391.807C206.113 393.971 207.33 395.662 208.931 396.879C210.532 398.096 212.492 398.704 214.812 398.704C217.23 398.704 219.251 398.063 220.876 396.781C222.502 395.499 223.727 393.767 224.552 391.586C225.377 389.406 225.789 386.976 225.789 384.297C225.789 381.65 225.385 379.261 224.576 377.13C223.768 374.998 222.551 373.307 220.925 372.058C219.3 370.808 217.262 370.183 214.812 370.183C212.46 370.183 210.483 370.775 208.882 371.96C207.281 373.144 206.073 374.794 205.256 376.909C204.439 379.025 204.031 381.487 204.031 384.297ZM242.075 381.258H263.512C263.512 379.135 263.091 377.24 262.25 375.574C261.408 373.908 260.216 372.593 258.672 371.629C257.129 370.665 255.311 370.183 253.22 370.183C250.917 370.183 248.928 370.751 247.254 371.886C245.58 373.021 244.293 374.496 243.395 376.309C242.625 377.863 242.185 379.513 242.075 381.258ZM242.06 386.257C242.144 388.76 242.633 390.904 243.529 392.689C244.518 394.657 245.894 396.152 247.658 397.173C249.422 398.194 251.472 398.704 253.808 398.704C255.328 398.704 256.704 398.488 257.937 398.055C259.17 397.622 260.236 396.969 261.135 396.095C262.033 395.221 262.727 394.131 263.217 392.824L268.804 394.392C268.216 396.287 267.228 397.949 265.839 399.378C264.451 400.808 262.736 401.918 260.694 402.711C258.652 403.503 256.357 403.899 253.808 403.899C250.182 403.899 247.058 403.095 244.436 401.486C241.814 399.876 239.797 397.622 238.384 394.723C236.971 391.823 236.264 388.446 236.264 384.591C236.264 380.736 236.971 377.334 238.384 374.385C239.797 371.437 241.773 369.134 244.314 367.476C246.854 365.818 249.823 364.989 253.22 364.989C255.181 364.989 257.116 365.315 259.028 365.969C260.939 366.622 262.678 367.68 264.247 369.142C265.815 370.604 267.064 372.535 267.996 374.937C268.927 377.338 269.392 380.295 269.392 383.807V386.257H242.06ZM281.632 380.474V403.115H275.849V365.479H281.436V371.359H281.926C282.808 369.448 284.147 367.908 285.944 366.74C287.741 365.573 290.061 364.989 292.903 364.989C295.451 364.989 297.681 365.507 299.592 366.544C301.503 367.582 302.99 369.15 304.052 371.249C305.114 373.348 305.644 375.998 305.644 379.2V403.115H299.862V379.592C299.862 376.636 299.094 374.328 297.558 372.67C296.023 371.012 293.916 370.183 291.237 370.183C289.391 370.183 287.745 370.583 286.299 371.384C284.854 372.184 283.714 373.352 282.881 374.888C282.048 376.423 281.632 378.285 281.632 380.474ZM148.96 418.933H156.213L173.267 460.588H173.855L190.909 418.933H198.162V469.115H192.477V430.989H191.987L176.305 469.115H170.817L155.135 430.989H154.645V469.115H148.96V418.933ZM222.457 469.899C219.059 469.899 216.082 469.09 213.525 467.473C210.969 465.856 208.976 463.594 207.547 460.686C206.117 457.778 205.403 454.381 205.403 450.493C205.403 446.572 206.117 443.15 207.547 440.226C208.976 437.302 210.969 435.032 213.525 433.414C216.082 431.797 219.059 430.989 222.457 430.989C225.855 430.989 228.832 431.797 231.388 433.414C233.945 435.032 235.937 437.302 237.367 440.226C238.796 443.15 239.511 446.572 239.511 450.493C239.511 454.381 238.796 457.778 237.367 460.686C235.937 463.594 233.945 465.856 231.388 467.473C228.832 469.09 225.855 469.899 222.457 469.899ZM222.457 464.704C225.038 464.704 227.161 464.043 228.827 462.72C230.494 461.397 231.727 459.657 232.527 457.501C233.328 455.344 233.728 453.008 233.728 450.493C233.728 447.977 233.328 445.633 232.527 443.46C231.727 441.288 230.494 439.532 228.827 438.192C227.161 436.853 225.038 436.183 222.457 436.183C219.876 436.183 217.752 436.853 216.086 438.192C214.42 439.532 213.187 441.288 212.386 443.46C211.586 445.633 211.185 447.977 211.185 450.493C211.185 453.008 211.586 455.344 212.386 457.501C213.187 459.657 214.42 461.397 216.086 462.72C217.752 464.043 219.876 464.704 222.457 464.704ZM251.75 446.474V469.115H245.967V431.479H251.554V437.359H252.044C252.926 435.448 254.266 433.908 256.063 432.741C257.86 431.573 260.179 430.989 263.021 430.989C265.57 430.989 267.8 431.507 269.711 432.544C271.622 433.582 273.108 435.15 274.17 437.249C275.232 439.348 275.763 441.998 275.763 445.2V469.115H269.98V445.592C269.98 442.636 269.213 440.328 267.677 438.67C266.141 437.012 264.034 436.183 261.355 436.183C259.509 436.183 257.864 436.583 256.418 437.384C254.972 438.184 253.833 439.352 253 440.888C252.167 442.423 251.75 444.285 251.75 446.474ZM299.274 469.899C295.876 469.899 292.899 469.09 290.342 467.473C287.786 465.856 285.793 463.594 284.364 460.686C282.934 457.778 282.22 454.381 282.22 450.493C282.22 446.572 282.934 443.15 284.364 440.226C285.793 437.302 287.786 435.032 290.342 433.414C292.899 431.797 295.876 430.989 299.274 430.989C302.671 430.989 305.648 431.797 308.205 433.414C310.761 435.032 312.754 437.302 314.184 440.226C315.613 443.15 316.328 446.572 316.328 450.493C316.328 454.381 315.613 457.778 314.184 460.686C312.754 463.594 310.761 465.856 308.205 467.473C305.648 469.09 302.671 469.899 299.274 469.899ZM299.274 464.704C301.855 464.704 303.978 464.043 305.644 462.72C307.311 461.397 308.544 459.657 309.344 457.501C310.145 455.344 310.545 453.008 310.545 450.493C310.545 447.977 310.145 445.633 309.344 443.46C308.544 441.288 307.311 439.532 305.644 438.192C303.978 436.853 301.855 436.183 299.274 436.183C296.693 436.183 294.569 436.853 292.903 438.192C291.237 439.532 290.003 441.288 289.203 443.46C288.403 445.633 288.002 447.977 288.002 450.493C288.002 453.008 288.403 455.344 289.203 457.501C290.003 459.657 291.237 461.397 292.903 462.72C294.569 464.043 296.693 464.704 299.274 464.704ZM337.976 484.013C335.183 484.013 332.782 483.657 330.772 482.947C328.763 482.236 327.093 481.305 325.762 480.154C324.43 479.002 323.372 477.773 322.588 476.466L327.195 473.231C327.718 473.918 328.379 474.706 329.18 475.596C329.98 476.486 331.079 477.262 332.475 477.924C333.872 478.585 335.706 478.916 337.976 478.916C341.015 478.916 343.522 478.181 345.499 476.711C347.475 475.241 348.463 472.937 348.463 469.801V462.156H347.973C347.549 462.842 346.948 463.688 346.172 464.692C345.396 465.697 344.286 466.587 342.84 467.363C341.394 468.139 339.446 468.527 336.996 468.527C333.958 468.527 331.234 467.808 328.824 466.371C326.415 464.933 324.512 462.842 323.115 460.098C321.719 457.354 321.02 454.021 321.02 450.101C321.02 446.246 321.698 442.885 323.054 440.018C324.41 437.151 326.296 434.929 328.714 433.353C331.132 431.777 333.925 430.989 337.094 430.989C339.544 430.989 341.492 431.393 342.938 432.201C344.384 433.01 345.494 433.925 346.27 434.946C347.046 435.967 347.647 436.804 348.071 437.457H348.659V431.479H354.246V470.193C354.246 473.427 353.515 476.061 352.053 478.095C350.591 480.129 348.631 481.624 346.172 482.579C343.714 483.535 340.982 484.013 337.976 484.013ZM337.78 463.332C340.1 463.332 342.06 462.801 343.661 461.74C345.262 460.678 346.479 459.15 347.312 457.158C348.145 455.165 348.561 452.78 348.561 450.003C348.561 447.291 348.153 444.898 347.336 442.823C346.519 440.749 345.311 439.124 343.71 437.947C342.109 436.771 340.132 436.183 337.78 436.183C335.33 436.183 333.292 436.804 331.667 438.045C330.041 439.287 328.824 440.953 328.016 443.044C327.207 445.135 326.803 447.454 326.803 450.003C326.803 452.616 327.215 454.924 328.04 456.925C328.865 458.926 330.09 460.494 331.716 461.629C333.341 462.765 335.363 463.332 337.78 463.332ZM362.467 469.115V431.479H368.054V437.163H368.446C369.132 435.301 370.373 433.79 372.17 432.63C373.967 431.47 375.993 430.891 378.247 430.891C378.672 430.891 379.202 430.899 379.84 430.915C380.477 430.931 380.959 430.956 381.285 430.989V436.869C381.089 436.82 380.644 436.743 379.95 436.636C379.256 436.53 378.525 436.477 377.757 436.477C375.927 436.477 374.298 436.857 372.868 437.617C371.439 438.376 370.312 439.422 369.487 440.753C368.662 442.084 368.25 443.599 368.25 445.298V469.115H362.467ZM396.857 469.997C394.472 469.997 392.308 469.544 390.364 468.637C388.42 467.731 386.876 466.416 385.733 464.692C384.589 462.969 384.018 460.882 384.018 458.432C384.018 456.275 384.442 454.524 385.292 453.176C386.141 451.828 387.276 450.771 388.698 450.003C390.119 449.235 391.691 448.659 393.414 448.275C395.138 447.891 396.873 447.585 398.621 447.356C400.908 447.062 402.766 446.838 404.196 446.683C405.625 446.527 406.67 446.262 407.332 445.886C407.994 445.511 408.324 444.857 408.324 443.926V443.73C408.324 441.312 407.667 439.434 406.352 438.094C405.037 436.755 403.048 436.085 400.385 436.085C397.625 436.085 395.46 436.69 393.892 437.898C392.324 439.107 391.221 440.398 390.584 441.77L385.096 439.81C386.076 437.523 387.387 435.738 389.028 434.456C390.67 433.173 392.467 432.275 394.419 431.76C396.371 431.246 398.295 430.989 400.189 430.989C401.398 430.989 402.791 431.131 404.367 431.417C405.944 431.703 407.471 432.287 408.949 433.169C410.428 434.051 411.657 435.383 412.637 437.163C413.617 438.944 414.107 441.329 414.107 444.318V469.115H408.324V464.018H408.03C407.638 464.835 406.985 465.709 406.07 466.64C405.155 467.571 403.938 468.364 402.419 469.017C400.9 469.67 399.046 469.997 396.857 469.997ZM397.739 464.802C400.026 464.802 401.958 464.353 403.534 463.455C405.11 462.556 406.303 461.397 407.111 459.975C407.92 458.554 408.324 457.06 408.324 455.491V450.199C408.079 450.493 407.544 450.758 406.719 450.995C405.894 451.232 404.947 451.436 403.877 451.608C402.807 451.779 401.77 451.926 400.765 452.049C399.761 452.171 398.948 452.273 398.327 452.355C396.824 452.551 395.424 452.865 394.125 453.298C392.826 453.731 391.781 454.376 390.989 455.234C390.196 456.092 389.8 457.256 389.8 458.726C389.8 460.735 390.548 462.25 392.042 463.271C393.537 464.292 395.436 464.802 397.739 464.802ZM422.328 483.229V431.479H427.915V437.457H428.601C429.025 436.804 429.618 435.967 430.377 434.946C431.137 433.925 432.231 433.01 433.661 432.201C435.09 431.393 437.03 430.989 439.48 430.989C442.649 430.989 445.442 431.781 447.86 433.365C450.278 434.95 452.164 437.196 453.52 440.104C454.876 443.011 455.554 446.442 455.554 450.395C455.554 454.381 454.876 457.831 453.52 460.747C452.164 463.663 450.286 465.917 447.884 467.51C445.483 469.103 442.714 469.899 439.578 469.899C437.16 469.899 435.225 469.495 433.771 468.686C432.317 467.878 431.198 466.955 430.414 465.917C429.63 464.88 429.025 464.018 428.601 463.332H428.111V483.229H422.328ZM428.013 450.297C428.013 453.139 428.429 455.642 429.262 457.807C430.095 459.971 431.312 461.662 432.913 462.879C434.514 464.096 436.474 464.704 438.794 464.704C441.212 464.704 443.233 464.063 444.858 462.781C446.484 461.499 447.709 459.767 448.534 457.586C449.359 455.406 449.771 452.976 449.771 450.297C449.771 447.65 449.367 445.261 448.558 443.13C447.75 440.998 446.533 439.307 444.907 438.058C443.282 436.808 441.244 436.183 438.794 436.183C436.442 436.183 434.465 436.775 432.864 437.96C431.263 439.144 430.055 440.794 429.238 442.909C428.421 445.025 428.013 447.487 428.013 450.297ZM467.793 446.474V469.115H462.011V418.933H467.793V437.359H468.283C469.165 435.415 470.493 433.868 472.265 432.716C474.037 431.564 476.402 430.989 479.359 430.989C481.923 430.989 484.169 431.499 486.097 432.52C488.024 433.541 489.523 435.101 490.593 437.2C491.663 439.299 492.198 441.966 492.198 445.2V469.115H486.415V445.592C486.415 442.603 485.644 440.287 484.1 438.646C482.556 437.004 480.42 436.183 477.692 436.183C475.798 436.183 474.103 436.583 472.608 437.384C471.113 438.184 469.937 439.352 469.08 440.888C468.222 442.423 467.793 444.285 467.793 446.474ZM155.037 511.396H165.818C168.514 511.396 170.678 510.931 172.311 510C173.945 509.068 175.133 507.807 175.877 506.214C176.62 504.621 176.991 502.82 176.991 500.811C176.991 498.802 176.62 497.005 175.877 495.42C175.133 493.836 173.937 492.59 172.287 491.684C170.637 490.777 168.448 490.324 165.72 490.324H155.037V511.396ZM155.037 516.787V535.115H148.96V484.933H165.916C169.853 484.933 173.075 485.64 175.583 487.053C178.09 488.466 179.948 490.373 181.157 492.774C182.366 495.175 182.97 497.854 182.97 500.811C182.97 503.768 182.37 506.455 181.169 508.872C179.969 511.29 178.119 513.214 175.619 514.643C173.12 516.072 169.918 516.787 166.014 516.787H155.037ZM189.623 535.115V497.479H195.21V503.163H195.602C196.288 501.301 197.529 499.79 199.326 498.63C201.123 497.47 203.149 496.891 205.403 496.891C205.828 496.891 206.358 496.899 206.995 496.915C207.633 496.931 208.114 496.956 208.441 496.989V502.869C208.245 502.82 207.8 502.743 207.106 502.636C206.411 502.53 205.68 502.477 204.913 502.477C203.083 502.477 201.454 502.857 200.024 503.617C198.595 504.376 197.468 505.422 196.643 506.753C195.818 508.084 195.406 509.599 195.406 511.298V535.115H189.623ZM215.808 513.258H237.244C237.244 511.135 236.824 509.24 235.983 507.574C235.141 505.908 233.949 504.593 232.405 503.629C230.861 502.665 229.044 502.183 226.953 502.183C224.65 502.183 222.661 502.751 220.987 503.886C219.312 505.021 218.026 506.496 217.128 508.309C216.358 509.863 215.918 511.513 215.808 513.258ZM215.793 518.257C215.876 520.76 216.366 522.904 217.262 524.689C218.251 526.657 219.627 528.152 221.391 529.173C223.155 530.194 225.205 530.704 227.541 530.704C229.061 530.704 230.437 530.488 231.67 530.055C232.903 529.622 233.969 528.969 234.868 528.095C235.766 527.221 236.46 526.131 236.95 524.824L242.537 526.392C241.949 528.287 240.961 529.949 239.572 531.378C238.184 532.808 236.469 533.918 234.427 534.711C232.385 535.503 230.09 535.899 227.541 535.899C223.915 535.899 220.791 535.095 218.169 533.486C215.547 531.877 213.53 529.622 212.117 526.723C210.704 523.823 209.997 520.446 209.997 516.591C209.997 512.736 210.704 509.334 212.117 506.385C213.53 503.437 215.506 501.134 218.047 499.476C220.587 497.818 223.556 496.989 226.953 496.989C228.914 496.989 230.849 497.315 232.76 497.969C234.672 498.622 236.411 499.68 237.98 501.142C239.548 502.604 240.797 504.535 241.729 506.937C242.66 509.338 243.125 512.295 243.125 515.807V518.257H215.793ZM276.241 505.908L271.046 507.378C270.72 506.512 270.242 505.667 269.613 504.842C268.984 504.017 268.131 503.335 267.052 502.796C265.974 502.257 264.594 501.987 262.911 501.987C260.608 501.987 258.693 502.514 257.166 503.568C255.638 504.621 254.875 505.957 254.875 507.574C254.875 509.011 255.397 510.147 256.443 510.98C257.488 511.813 259.122 512.507 261.343 513.062L266.93 514.435C270.295 515.251 272.802 516.497 274.452 518.171C276.102 519.846 276.927 521.998 276.927 524.628C276.927 526.784 276.31 528.712 275.077 530.41C273.844 532.109 272.125 533.449 269.919 534.429C267.714 535.409 265.149 535.899 262.225 535.899C258.387 535.899 255.209 535.066 252.694 533.4C250.178 531.734 248.585 529.3 247.916 526.098L253.404 524.726C253.927 526.751 254.919 528.271 256.381 529.283C257.843 530.296 259.759 530.802 262.127 530.802C264.823 530.802 266.967 530.227 268.559 529.075C270.152 527.923 270.948 526.539 270.948 524.922C270.948 523.615 270.491 522.516 269.576 521.626C268.661 520.736 267.257 520.07 265.362 519.629L259.089 518.159C255.642 517.342 253.114 516.072 251.505 514.349C249.896 512.625 249.092 510.465 249.092 507.868C249.092 505.744 249.692 503.866 250.893 502.232C252.093 500.599 253.735 499.316 255.818 498.385C257.901 497.454 260.265 496.989 262.911 496.989C266.636 496.989 269.564 497.805 271.696 499.439C273.827 501.072 275.343 503.229 276.241 505.908ZM309.945 505.908L304.75 507.378C304.424 506.512 303.946 505.667 303.317 504.842C302.688 504.017 301.834 503.335 300.756 502.796C299.678 502.257 298.298 501.987 296.615 501.987C294.312 501.987 292.397 502.514 290.869 503.568C289.342 504.621 288.578 505.957 288.578 507.574C288.578 509.011 289.101 510.147 290.147 510.98C291.192 511.813 292.826 512.507 295.047 513.062L300.634 514.435C303.999 515.251 306.506 516.497 308.156 518.171C309.806 519.846 310.631 521.998 310.631 524.628C310.631 526.784 310.014 528.712 308.781 530.41C307.548 532.109 305.828 533.449 303.623 534.429C301.418 535.409 298.853 535.899 295.929 535.899C292.091 535.899 288.913 535.066 286.398 533.4C283.882 531.734 282.289 529.3 281.62 526.098L287.108 524.726C287.631 526.751 288.623 528.271 290.085 529.283C291.547 530.296 293.463 530.802 295.831 530.802C298.527 530.802 300.671 530.227 302.263 529.075C303.856 527.923 304.652 526.539 304.652 524.922C304.652 523.615 304.195 522.516 303.28 521.626C302.365 520.736 300.961 520.07 299.066 519.629L292.793 518.159C289.346 517.342 286.818 516.072 285.209 514.349C283.6 512.625 282.796 510.465 282.796 507.868C282.796 505.744 283.396 503.866 284.597 502.232C285.797 500.599 287.439 499.316 289.522 498.385C291.605 497.454 293.969 496.989 296.615 496.989C300.34 496.989 303.268 497.805 305.4 499.439C307.531 501.072 309.046 503.229 309.945 505.908Z" fill="white"/>
</svg>
