<svg width="339" height="403" viewBox="0 0 339 403" fill="none" xmlns="http://www.w3.org/2000/svg">
<path d="M75.6254 152.81C22.2198 152.81 0 111.294 0 76.2102C0 44.6346 22.9995 0 76.7949 0C120.65 0 153.395 27.6774 153.395 73.0916C153.395 116.752 122.599 152.81 75.6254 152.81ZM80.888 145.404C98.43 145.404 134.683 135.268 134.683 78.5491C134.683 31.7705 106.226 6.62697 75.4305 6.62697C42.8804 6.62697 18.5165 28.0672 18.5165 70.7527C18.5165 116.167 45.8041 145.404 80.888 145.404ZM174.985 93.4809V59.1766C174.985 28.7705 174.985 23.313 174.596 17.0758C174.206 10.4489 172.646 7.33028 166.214 5.9659C164.655 5.57608 161.342 5.38117 159.587 5.38117C158.808 5.38117 158.028 4.99135 158.028 4.2117C158.028 3.04224 159.003 2.65242 161.147 2.65242C169.918 2.65242 181.612 3.23715 183.172 3.23715C187.46 3.23715 198.764 2.65242 207.73 2.65242C232.094 2.65242 240.865 10.8387 243.984 13.7623C248.272 17.8555 253.729 26.6265 253.729 39.2957C253.729 64.6341 233.459 83.3456 205.781 83.3456C204.807 83.3456 202.663 83.3455 201.688 83.1506C200.714 83.1506 199.544 82.7608 199.544 81.7863C199.544 80.227 200.714 80.0321 204.807 80.0321C223.713 80.0321 238.526 67.1679 238.526 46.7023C238.526 41.8295 237.942 28.7705 227.611 18.2453C217.281 7.7201 205.391 8.49975 200.908 8.49975C197.595 8.49975 194.282 8.88957 192.527 9.66921C191.358 10.059 190.968 11.4234 190.968 13.3725V93.4809C190.968 112.192 190.968 127.59 191.943 135.777C192.527 141.429 193.697 145.717 199.544 146.497C202.273 146.887 206.561 147.276 208.315 147.276C209.485 147.276 209.874 147.861 209.874 148.446C209.874 149.42 208.9 150.005 206.756 150.005C196.036 150.005 183.756 149.42 182.782 149.42C182.197 149.42 169.918 150.005 164.07 150.005C161.926 150.005 160.952 149.615 160.952 148.446C160.952 147.861 161.342 147.276 162.511 147.276C164.265 147.276 166.604 146.887 168.358 146.497C172.257 145.717 173.231 141.429 174.011 135.777C174.985 127.59 174.985 112.192 174.985 93.4809ZM292.5 153.929C283.316 153.929 274.327 152.561 266.315 148.653C263.579 147.285 263.384 146.503 263.384 141.227C263.384 131.457 264.166 123.64 264.361 120.514C264.556 118.364 264.947 117.387 265.924 117.387C267.097 117.387 267.292 117.974 267.292 119.537C267.292 121.296 267.292 124.031 267.878 126.767C270.809 141.227 283.706 146.699 296.799 146.699C315.558 146.699 324.742 133.215 324.742 120.709C324.742 107.226 319.075 99.4099 302.27 85.5359L293.477 78.3058C272.764 61.3053 268.074 49.19 268.074 35.9022C268.074 14.9935 283.706 0.728753 308.523 0.728753C316.144 0.728753 321.811 1.51039 326.696 2.68283C330.409 3.46447 331.972 3.65988 333.535 3.65988C335.099 3.65988 335.49 4.05069 335.49 5.02773C335.49 6.00477 334.708 12.4532 334.708 25.741C334.708 28.8675 334.317 30.2354 333.34 30.2354C332.168 30.2354 331.972 29.2583 331.777 27.6951C331.581 25.3502 330.409 20.0742 329.236 17.9247C328.064 15.7752 322.788 7.56804 304.81 7.56804C291.327 7.56804 280.775 15.9706 280.775 30.2354C280.775 41.3736 285.856 48.4083 304.615 63.064L310.086 67.3629C333.145 85.5359 338.616 97.6512 338.616 113.284C338.616 121.296 335.49 136.147 322.006 145.722C313.604 151.584 303.052 153.929 292.5 153.929Z" fill="white"/>
<path d="M44.4972 231.024C44.4972 236.316 43.5416 240.89 41.6303 244.745C39.7191 248.601 37.0973 251.574 33.7649 253.664C30.4325 255.755 26.6264 256.801 22.3466 256.801C18.0667 256.801 14.2607 255.755 10.9283 253.664C7.59586 251.574 4.97409 248.601 3.06286 244.745C1.15162 240.89 0.196023 236.316 0.196023 231.024C0.196023 225.731 1.15162 221.157 3.06286 217.302C4.97409 213.447 7.59586 210.474 10.9283 208.383C14.2607 206.292 18.0667 205.247 22.3466 205.247C26.6264 205.247 30.4325 206.292 33.7649 208.383C37.0973 210.474 39.7191 213.447 41.6303 217.302C43.5416 221.157 44.4972 225.731 44.4972 231.024ZM38.6165 231.024C38.6165 226.679 37.8937 223.011 36.448 220.022C35.0023 217.033 33.0503 214.77 30.5918 213.235C28.1333 211.699 25.385 210.931 22.3466 210.931C19.3082 210.931 16.5598 211.699 14.1014 213.235C11.6429 214.77 9.69088 217.033 8.24521 220.022C6.79953 223.011 6.0767 226.679 6.0767 231.024C6.0767 235.369 6.79953 239.036 8.24521 242.026C9.69088 245.015 11.6429 247.277 14.1014 248.813C16.5598 250.348 19.3082 251.116 22.3466 251.116C25.385 251.116 28.1333 250.348 30.5918 248.813C33.0503 247.277 35.0023 245.015 36.448 242.026C37.8937 239.036 38.6165 235.369 38.6165 231.024ZM51.542 270.228V218.478H57.1286V224.457H57.8147C58.2394 223.804 58.8316 222.966 59.5912 221.946C60.3508 220.925 61.4452 220.01 62.8745 219.201C64.3039 218.393 66.2437 217.988 68.694 217.988C71.863 217.988 74.6563 218.781 77.0739 220.365C79.4916 221.95 81.3783 224.196 82.7341 227.103C84.0899 230.011 84.7678 233.441 84.7678 237.395C84.7678 241.38 84.0899 244.831 82.7341 247.747C81.3783 250.663 79.4997 252.917 77.0984 254.51C74.6972 256.102 71.9284 256.899 68.792 256.899C66.3744 256.899 64.4387 256.495 62.9848 255.686C61.531 254.877 60.412 253.954 59.6279 252.917C58.8438 251.88 58.2394 251.018 57.8147 250.332H57.3247V270.228H51.542ZM57.2266 237.297C57.2266 240.139 57.6432 242.642 58.4763 244.807C59.3094 246.971 60.5264 248.662 62.1272 249.879C63.7281 251.096 65.6883 251.704 68.0079 251.704C70.4255 251.704 72.447 251.063 74.0723 249.781C75.6977 248.498 76.9228 246.767 77.7478 244.586C78.5727 242.405 78.9852 239.976 78.9852 237.297C78.9852 234.65 78.5809 232.261 77.7723 230.129C76.9637 227.998 75.7467 226.307 74.1214 225.057C72.496 223.808 70.4582 223.183 68.0079 223.183C65.6556 223.183 63.6791 223.775 62.0782 224.959C60.4773 226.144 59.2686 227.794 58.4518 229.909C57.635 232.024 57.2266 234.487 57.2266 237.297ZM95.2706 234.258H116.708C116.708 232.135 116.287 230.24 115.446 228.574C114.604 226.907 113.412 225.592 111.868 224.629C110.325 223.665 108.507 223.183 106.416 223.183C104.113 223.183 102.124 223.751 100.45 224.886C98.7755 226.021 97.4892 227.495 96.5907 229.309C95.8208 230.863 95.3807 232.512 95.2706 234.258ZM95.256 239.257C95.3396 241.76 95.8294 243.904 96.7255 245.689C97.7138 247.657 99.09 249.152 100.854 250.173C102.618 251.194 104.668 251.704 107.004 251.704C108.524 251.704 109.9 251.488 111.133 251.055C112.366 250.622 113.432 249.969 114.331 249.095C115.229 248.221 115.923 247.13 116.414 245.824L122 247.392C121.412 249.287 120.424 250.949 119.035 252.378C117.647 253.807 115.932 254.918 113.89 255.71C111.848 256.503 109.553 256.899 107.004 256.899C103.378 256.899 100.254 256.094 97.6321 254.485C95.0103 252.876 92.9929 250.622 91.5799 247.722C90.1669 244.823 89.4604 241.446 89.4604 237.591C89.4604 233.735 90.1669 230.334 91.5799 227.385C92.9929 224.437 94.9694 222.133 97.5096 220.475C100.05 218.817 103.019 217.988 106.416 217.988C108.377 217.988 110.312 218.315 112.224 218.968C114.135 219.622 115.874 220.68 117.443 222.142C119.011 223.604 120.26 225.535 121.192 227.936C122.123 230.338 122.588 233.294 122.588 236.806V239.257H95.256ZM134.828 233.474V256.115H129.045V218.478H134.632V224.359H135.122C136.004 222.448 137.343 220.908 139.14 219.74C140.937 218.572 143.257 217.988 146.099 217.988C148.647 217.988 150.877 218.507 152.788 219.544C154.699 220.582 156.186 222.15 157.248 224.249C158.31 226.348 158.84 228.998 158.84 232.2V256.115H153.058V232.592C153.058 229.635 152.29 227.328 150.755 225.67C149.219 224.012 147.112 223.183 144.433 223.183C142.587 223.183 140.941 223.583 139.495 224.384C138.05 225.184 136.91 226.352 136.077 227.887C135.244 229.423 134.828 231.285 134.828 233.474ZM8.23295 298.396H19.0142C21.7095 298.396 23.8739 297.93 25.5075 296.999C27.141 296.068 28.3294 294.806 29.0726 293.214C29.8159 291.621 30.1875 289.82 30.1875 287.811C30.1875 285.801 29.8159 284.005 29.0726 282.42C28.3294 280.836 27.1328 279.59 25.483 278.683C23.8331 277.777 21.6442 277.324 18.9162 277.324H8.23295V298.396ZM8.23295 303.787V322.115H2.15625V271.933H19.1122C23.049 271.933 26.2711 272.639 28.7786 274.052C31.2861 275.465 33.1442 277.373 34.353 279.774C35.5618 282.175 36.1662 284.854 36.1662 287.811C36.1662 290.767 35.5659 293.455 34.3652 295.872C33.1646 298.29 31.3146 300.213 28.8153 301.643C26.316 303.072 23.1144 303.787 19.2102 303.787H8.23295ZM42.819 322.115V284.478H48.4056V290.163H48.7977C49.4838 288.301 50.7252 286.79 52.5221 285.63C54.319 284.47 56.3445 283.89 58.5988 283.89C59.0235 283.89 59.5544 283.898 60.1915 283.915C60.8286 283.931 61.3105 283.956 61.6372 283.988V289.869C61.4411 289.82 60.996 289.742 60.3018 289.636C59.6075 289.53 58.8765 289.477 58.1087 289.477C56.2792 289.477 54.6498 289.857 53.2204 290.616C51.7911 291.376 50.664 292.421 49.839 293.753C49.0141 295.084 48.6016 296.599 48.6016 298.298V322.115H42.819ZM69.0036 300.258H90.4405C90.4405 298.135 90.0199 296.24 89.1786 294.574C88.3373 292.907 87.1449 291.592 85.6012 290.629C84.0575 289.665 82.2402 289.183 80.1493 289.183C77.846 289.183 75.8572 289.751 74.1829 290.886C72.5085 292.021 71.2221 293.495 70.3237 295.309C69.5537 296.863 69.1137 298.512 69.0036 300.258ZM68.9889 305.257C69.0725 307.76 69.5623 309.904 70.4584 311.689C71.4467 313.657 72.823 315.152 74.5872 316.173C76.3514 317.194 78.4014 317.704 80.7374 317.704C82.2566 317.704 83.6328 317.488 84.8661 317.055C86.0994 316.622 87.1653 315.969 88.0637 315.095C88.9622 314.221 89.6564 313.13 90.1465 311.824L95.7331 313.392C95.145 315.287 94.1568 316.949 92.7683 318.378C91.3798 319.807 89.6646 320.918 87.6227 321.71C85.5808 322.503 83.2857 322.899 80.7374 322.899C77.1109 322.899 73.9869 322.094 71.365 320.485C68.7432 318.876 66.7258 316.622 65.3128 313.723C63.8998 310.823 63.1933 307.446 63.1933 303.591C63.1933 299.735 63.8998 296.334 65.3128 293.385C66.7258 290.437 68.7024 288.133 71.2425 286.475C73.7827 284.817 76.7516 283.988 80.1493 283.988C82.1096 283.988 84.0452 284.315 85.9565 284.968C87.8677 285.622 89.6074 286.68 91.1756 288.142C92.7438 289.604 93.9934 291.535 94.9245 293.936C95.8556 296.338 96.3212 299.294 96.3212 302.806V305.257H68.9889ZM102.778 336.228V284.478H108.365V290.457H109.051C109.475 289.804 110.068 288.966 110.827 287.945C111.587 286.925 112.681 286.01 114.111 285.201C115.54 284.393 117.48 283.988 119.93 283.988C123.099 283.988 125.892 284.781 128.31 286.365C130.728 287.95 132.614 290.196 133.97 293.103C135.326 296.011 136.004 299.441 136.004 303.395C136.004 307.38 135.326 310.831 133.97 313.747C132.614 316.663 130.736 318.917 128.334 320.51C125.933 322.102 123.164 322.899 120.028 322.899C117.61 322.899 115.675 322.495 114.221 321.686C112.767 320.877 111.648 319.954 110.864 318.917C110.08 317.88 109.475 317.018 109.051 316.332H108.561V336.228H102.778ZM108.463 303.297C108.463 306.139 108.879 308.642 109.712 310.807C110.545 312.971 111.762 314.662 113.363 315.879C114.964 317.096 116.924 317.704 119.244 317.704C121.661 317.704 123.683 317.063 125.308 315.781C126.934 314.498 128.159 312.767 128.984 310.586C129.809 308.405 130.221 305.976 130.221 303.297C130.221 300.65 129.817 298.261 129.008 296.129C128.2 293.998 126.983 292.307 125.357 291.057C123.732 289.808 121.694 289.183 119.244 289.183C116.892 289.183 114.915 289.775 113.314 290.959C111.713 292.144 110.505 293.794 109.688 295.909C108.871 298.024 108.463 300.487 108.463 303.297ZM142.461 322.115V284.478H148.047V290.163H148.439C149.125 288.301 150.367 286.79 152.164 285.63C153.961 284.47 155.986 283.89 158.24 283.89C158.665 283.89 159.196 283.898 159.833 283.915C160.47 283.931 160.952 283.956 161.279 283.988V289.869C161.083 289.82 160.638 289.742 159.943 289.636C159.249 289.53 158.518 289.477 157.75 289.477C155.921 289.477 154.291 289.857 152.862 290.616C151.433 291.376 150.306 292.421 149.481 293.753C148.656 295.084 148.243 296.599 148.243 298.298V322.115H142.461ZM165.775 322.115V284.478H171.558V322.115H165.775ZM168.716 278.206C167.588 278.206 166.621 277.822 165.812 277.054C165.003 276.286 164.599 275.363 164.599 274.285C164.599 273.207 165.003 272.284 165.812 271.516C166.621 270.749 167.588 270.365 168.716 270.365C169.843 270.365 170.811 270.749 171.619 271.516C172.428 272.284 172.832 273.207 172.832 274.285C172.832 275.363 172.428 276.286 171.619 277.054C170.811 277.822 169.843 278.206 168.716 278.206ZM185.562 299.474V322.115H179.779V284.478H185.366V290.359H185.856C186.738 288.448 188.077 286.908 189.874 285.74C191.671 284.572 193.991 283.988 196.833 283.988C199.381 283.988 201.611 284.507 203.522 285.544C205.433 286.582 206.92 288.15 207.982 290.249C209.043 292.348 209.574 294.998 209.574 298.2V322.115H203.792V298.592C203.792 295.635 203.024 293.328 201.488 291.67C199.953 290.012 197.846 289.183 195.167 289.183C193.321 289.183 191.675 289.583 190.229 290.384C188.784 291.184 187.644 292.352 186.811 293.887C185.978 295.423 185.562 297.285 185.562 299.474ZM234.163 284.478V289.379H214.659V284.478H234.163ZM220.344 275.461H226.126V311.333C226.126 312.967 226.367 314.188 226.849 314.997C227.331 315.805 227.952 316.344 228.711 316.614C229.471 316.883 230.275 317.018 231.125 317.018C231.762 317.018 232.285 316.981 232.693 316.908C233.101 316.834 233.428 316.773 233.673 316.724L234.849 321.919C234.457 322.066 233.91 322.217 233.208 322.372C232.505 322.527 231.615 322.605 230.537 322.605C228.903 322.605 227.307 322.254 225.746 321.551C224.186 320.849 222.896 319.779 221.875 318.341C220.854 316.904 220.344 315.091 220.344 312.902V275.461ZM29.5994 350.478C29.3054 347.995 28.1129 346.068 26.022 344.696C23.9311 343.324 21.3665 342.637 18.3281 342.637C16.1065 342.637 14.1667 342.997 12.5087 343.716C10.8507 344.434 9.5602 345.423 8.63725 346.68C7.71431 347.938 7.25284 349.368 7.25284 350.968C7.25284 352.308 7.57546 353.455 8.2207 354.411C8.86595 355.367 9.69495 356.159 10.7077 356.788C11.7205 357.417 12.7823 357.931 13.8931 358.332C15.0039 358.732 16.0249 359.054 16.956 359.299L22.0526 360.672C23.3594 361.015 24.8173 361.488 26.4263 362.093C28.0353 362.697 29.579 363.518 31.0574 364.555C32.5357 365.593 33.7567 366.92 34.7205 368.537C35.6843 370.154 36.1662 372.139 36.1662 374.491C36.1662 377.203 35.4597 379.653 34.0467 381.842C32.6337 384.031 30.5755 385.771 27.872 387.061C25.1685 388.352 21.8892 388.997 18.0341 388.997C14.4403 388.997 11.3326 388.417 8.71076 387.257C6.08894 386.097 4.03073 384.48 2.53604 382.406C1.04136 380.331 0.196024 377.922 0 375.177H6.27273C6.43608 377.072 7.07723 378.636 8.1962 379.87C9.31517 381.103 10.7363 382.018 12.4597 382.614C14.1831 383.21 16.0412 383.508 18.0341 383.508C20.3537 383.508 22.4364 383.128 24.2823 382.369C26.1282 381.609 27.5902 380.547 28.6683 379.183C29.7465 377.819 30.2855 376.223 30.2855 374.393C30.2855 372.727 29.82 371.371 28.8888 370.326C27.9577 369.28 26.7326 368.431 25.2134 367.777C23.6942 367.124 22.0526 366.552 20.2884 366.062L14.1136 364.298C10.1932 363.171 7.0895 361.562 4.80256 359.471C2.51561 357.38 1.37216 354.644 1.37216 351.262C1.37216 348.453 2.13582 345.998 3.66317 343.899C5.19053 341.8 7.24874 340.167 9.83789 338.999C12.427 337.831 15.3224 337.247 18.5241 337.247C21.7585 337.247 24.6335 337.823 27.1491 338.974C29.6648 340.126 31.6617 341.698 33.1401 343.691C34.6184 345.684 35.3984 347.946 35.4801 350.478H29.5994ZM46.7394 402.13C45.7593 402.13 44.8854 402.053 44.1176 401.898C43.3499 401.742 42.819 401.591 42.5249 401.444L43.9951 396.348C46.1024 396.887 47.8584 396.874 49.2632 396.311C50.6681 395.747 51.885 394.061 52.9141 391.251L53.9923 388.311L40.0747 350.478H46.3474L56.7366 380.47H57.1286L67.5178 350.478L73.8396 350.576L57.8147 393.603C57.096 395.515 56.2057 397.103 55.1439 398.369C54.0821 399.635 52.8529 400.579 51.4562 401.199C50.0596 401.82 48.4873 402.13 46.7394 402.13ZM105.779 358.907L100.585 360.378C100.258 359.512 99.7802 358.666 99.1513 357.841C98.5224 357.017 97.6689 356.335 96.5907 355.795C95.5126 355.256 94.1323 354.987 92.4497 354.987C90.1465 354.987 88.2312 355.514 86.7038 356.567C85.1765 357.621 84.4128 358.956 84.4128 360.574C84.4128 362.011 84.9355 363.146 85.981 363.979C87.0264 364.813 88.66 365.507 90.8816 366.062L96.4682 367.434C99.8333 368.251 102.341 369.497 103.991 371.171C105.64 372.845 106.465 374.998 106.465 377.628C106.465 379.784 105.849 381.711 104.615 383.41C103.382 385.109 101.663 386.449 99.4576 387.429C97.2523 388.409 94.6877 388.899 91.7637 388.899C87.9249 388.899 84.7477 388.066 82.2321 386.4C79.7164 384.733 78.1237 382.299 77.454 379.098L82.9426 377.726C83.4654 379.751 84.4577 381.27 85.9197 382.283C87.3817 383.296 89.297 383.802 91.6656 383.802C94.361 383.802 96.505 383.226 98.0976 382.075C99.6903 380.923 100.487 379.539 100.487 377.922C100.487 376.615 100.029 375.516 99.1145 374.626C98.1997 373.736 96.7949 373.07 94.9 372.629L88.6273 371.159C85.1805 370.342 82.6527 369.072 81.0437 367.349C79.4346 365.625 78.6301 363.465 78.6301 360.868C78.6301 358.744 79.2304 356.865 80.4311 355.232C81.6317 353.598 83.2734 352.316 85.3562 351.385C87.4389 350.454 89.8034 349.988 92.4497 349.988C96.1742 349.988 99.1022 350.805 101.234 352.439C103.366 354.072 104.881 356.228 105.779 358.907ZM129.192 350.478V355.379H109.688V350.478H129.192ZM115.372 341.461H121.155V377.333C121.155 378.967 121.396 380.188 121.878 380.997C122.36 381.805 122.981 382.344 123.74 382.614C124.5 382.883 125.304 383.018 126.154 383.018C126.791 383.018 127.313 382.981 127.722 382.908C128.13 382.834 128.457 382.773 128.702 382.724L129.878 387.919C129.486 388.066 128.939 388.217 128.236 388.372C127.534 388.527 126.644 388.605 125.566 388.605C123.932 388.605 122.335 388.254 120.775 387.551C119.215 386.849 117.925 385.779 116.904 384.341C115.883 382.904 115.372 381.091 115.372 378.902V341.461ZM139.205 366.258H160.642C160.642 364.135 160.221 362.24 159.38 360.574C158.538 358.907 157.346 357.592 155.802 356.629C154.259 355.665 152.441 355.183 150.35 355.183C148.047 355.183 146.058 355.751 144.384 356.886C142.71 358.021 141.423 359.495 140.525 361.309C139.755 362.863 139.315 364.512 139.205 366.258ZM139.19 371.257C139.274 373.76 139.764 375.904 140.66 377.689C141.648 379.657 143.024 381.152 144.788 382.173C146.553 383.194 148.603 383.704 150.939 383.704C152.458 383.704 153.834 383.488 155.067 383.055C156.301 382.622 157.366 381.969 158.265 381.095C159.163 380.221 159.858 379.13 160.348 377.824L165.934 379.392C165.346 381.287 164.358 382.949 162.969 384.378C161.581 385.807 159.866 386.918 157.824 387.71C155.782 388.503 153.487 388.899 150.939 388.899C147.312 388.899 144.188 388.094 141.566 386.485C138.944 384.876 136.927 382.622 135.514 379.723C134.101 376.823 133.395 373.446 133.395 369.591C133.395 365.735 134.101 362.334 135.514 359.385C136.927 356.437 138.904 354.133 141.444 352.475C143.984 350.817 146.953 349.988 150.35 349.988C152.311 349.988 154.246 350.315 156.158 350.968C158.069 351.622 159.809 352.68 161.377 354.142C162.945 355.604 164.195 357.535 165.126 359.936C166.057 362.338 166.522 365.294 166.522 368.806V371.257H139.19ZM172.979 388.115V350.478H178.566V356.359H179.056C179.84 354.35 181.106 352.786 182.854 351.667C184.602 350.548 186.701 349.988 189.151 349.988C191.634 349.988 193.704 350.548 195.362 351.667C197.02 352.786 198.315 354.35 199.246 356.359H199.638C200.602 354.415 202.048 352.867 203.975 351.716C205.903 350.564 208.214 349.988 210.91 349.988C214.275 349.988 217.027 351.038 219.167 353.137C221.307 355.236 222.377 358.499 222.377 362.926V388.115H216.594V362.926C216.594 360.149 215.835 358.164 214.315 356.972C212.796 355.779 211.008 355.183 208.949 355.183C206.303 355.183 204.253 355.979 202.799 357.572C201.345 359.165 200.618 361.178 200.618 363.612V388.115H194.738V362.338C194.738 360.198 194.043 358.47 192.655 357.155C191.266 355.84 189.478 355.183 187.289 355.183C185.786 355.183 184.385 355.583 183.087 356.384C181.788 357.184 180.742 358.291 179.95 359.704C179.158 361.117 178.762 362.746 178.762 364.592V388.115H172.979ZM257.257 358.907L252.062 360.378C251.736 359.512 251.258 358.666 250.629 357.841C250 357.017 249.146 356.335 248.068 355.795C246.99 355.256 245.61 354.987 243.927 354.987C241.624 354.987 239.709 355.514 238.181 356.567C236.654 357.621 235.89 358.956 235.89 360.574C235.89 362.011 236.413 363.146 237.459 363.979C238.504 364.813 240.138 365.507 242.359 366.062L247.946 367.434C251.311 368.251 253.818 369.497 255.468 371.171C257.118 372.845 257.943 374.998 257.943 377.628C257.943 379.784 257.326 381.711 256.093 383.41C254.86 385.109 253.14 386.449 250.935 387.429C248.73 388.409 246.165 388.899 243.241 388.899C239.402 388.899 236.225 388.066 233.71 386.4C231.194 384.733 229.601 382.299 228.932 379.098L234.42 377.726C234.943 379.751 235.935 381.27 237.397 382.283C238.859 383.296 240.775 383.802 243.143 383.802C245.839 383.802 247.983 383.226 249.575 382.075C251.168 380.923 251.964 379.539 251.964 377.922C251.964 376.615 251.507 375.516 250.592 374.626C249.677 373.736 248.273 373.07 246.378 372.629L240.105 371.159C236.658 370.342 234.13 369.072 232.521 367.349C230.912 365.625 230.108 363.465 230.108 360.868C230.108 358.744 230.708 356.865 231.909 355.232C233.109 353.598 234.751 352.316 236.834 351.385C238.917 350.454 241.281 349.988 243.927 349.988C247.652 349.988 250.58 350.805 252.712 352.439C254.843 354.072 256.358 356.228 257.257 358.907Z" fill="white"/>
</svg>
