<svg width="435" height="389" viewBox="0 0 435 389" fill="none" xmlns="http://www.w3.org/2000/svg">
<path d="M75.6254 152.81C22.2198 152.81 0 111.294 0 76.2102C0 44.6346 22.9995 0 76.7949 0C120.65 0 153.395 27.6774 153.395 73.0916C153.395 116.752 122.599 152.81 75.6254 152.81ZM80.888 145.404C98.43 145.404 134.683 135.268 134.683 78.5491C134.683 31.7705 106.226 6.62697 75.4305 6.62697C42.8804 6.62697 18.5165 28.0672 18.5165 70.7527C18.5165 116.167 45.8041 145.404 80.888 145.404ZM306.439 5.2626L319.498 124.938C320.278 131.955 321.642 142.87 330.023 145.598C335.676 147.353 340.159 147.353 342.108 147.353C343.082 147.353 344.252 147.548 344.252 148.522C344.252 149.692 343.667 150.081 341.328 150.081C337.04 150.081 314.82 149.497 307.608 148.912C303.126 148.522 302.151 147.937 302.151 146.963C302.151 146.183 302.541 145.988 303.515 145.598C304.88 145.014 304.685 142.09 304.295 138.582L294.939 36.8382L246.601 139.361C242.508 147.937 241.923 149.692 240.169 149.692C238.805 149.692 237.83 147.742 234.127 140.726C229.059 131.175 212.297 97.4555 211.322 95.5064C209.568 91.998 187.153 43.855 185.009 38.5924L177.018 130.395C176.823 133.514 176.628 136.243 176.628 139.556C176.628 144.429 178.967 145.988 181.891 146.573C185.204 147.353 187.738 147.353 188.908 147.353C190.077 147.353 190.857 147.742 190.857 148.327C190.857 149.692 189.882 150.081 187.933 150.081C180.721 150.081 170.781 149.497 169.222 149.497C167.467 149.497 158.112 150.081 152.849 150.081C150.9 150.081 149.536 149.887 149.536 148.522C149.536 147.742 150.51 147.353 151.485 147.353C153.044 147.353 154.408 147.353 157.332 146.768C163.764 145.598 164.154 138.582 165.129 130.59L179.162 3.89822C179.357 1.7542 180.137 0 181.306 0C182.476 0 183.255 0.779644 184.23 2.92366L243.873 125.523L301.176 3.11858C301.956 1.36438 302.736 0 304.1 0C305.464 0 306.049 1.55929 306.439 5.2626ZM355.985 93.5573V59.2529C355.985 28.8468 355.985 23.3893 355.596 17.1522C355.206 10.5252 353.646 7.40662 347.214 6.04224C345.655 5.65242 342.342 5.45751 340.587 5.45751C339.808 5.45751 339.028 5.06768 339.028 4.28804C339.028 3.11858 340.003 2.72875 342.147 2.72875C350.918 2.72875 362.612 3.31349 364.172 3.31349C368.46 3.31349 379.764 2.72875 388.73 2.72875C413.094 2.72875 421.865 10.915 424.984 13.8387C429.272 17.9318 434.729 26.7028 434.729 39.372C434.729 64.7104 414.459 83.4219 386.781 83.4219C385.807 83.4219 383.663 83.4219 382.688 83.227C381.714 83.227 380.544 82.8372 380.544 81.8626C380.544 80.3033 381.714 80.1084 385.807 80.1084C404.713 80.1084 419.526 67.2443 419.526 46.7786C419.526 41.9059 418.942 28.8468 408.611 18.3216C398.281 7.79644 386.391 8.57608 381.909 8.57608C378.595 8.57608 375.282 8.9659 373.527 9.74555C372.358 10.1354 371.968 11.4997 371.968 13.4489V93.5573C371.968 112.269 371.968 127.667 372.943 135.853C373.527 141.505 374.697 145.793 380.544 146.573C383.273 146.963 387.561 147.353 389.315 147.353C390.485 147.353 390.874 147.937 390.874 148.522C390.874 149.497 389.9 150.081 387.756 150.081C377.036 150.081 364.756 149.497 363.782 149.497C363.197 149.497 350.918 150.081 345.07 150.081C342.926 150.081 341.952 149.692 341.952 148.522C341.952 147.937 342.342 147.353 343.511 147.353C345.265 147.353 347.604 146.963 349.358 146.573C353.257 145.793 354.231 141.505 355.011 135.853C355.985 127.667 355.985 112.269 355.985 93.5573Z" fill="white"/>
<path d="M44.3011 231.024C44.3011 236.317 43.3455 240.891 41.4343 244.746C39.5231 248.601 36.9013 251.574 33.5689 253.665C30.2365 255.756 26.4304 256.801 22.1506 256.801C17.8707 256.801 14.0646 255.756 10.7322 253.665C7.39984 251.574 4.77806 248.601 2.86683 244.746C0.955601 240.891 0 236.317 0 231.024C0 225.731 0.955601 221.158 2.86683 217.302C4.77806 213.447 7.39984 210.474 10.7322 208.383C14.0646 206.293 17.8707 205.247 22.1506 205.247C26.4304 205.247 30.2365 206.293 33.5689 208.383C36.9013 210.474 39.5231 213.447 41.4343 217.302C43.3455 221.158 44.3011 225.731 44.3011 231.024ZM38.4205 231.024C38.4205 226.679 37.6976 223.012 36.252 220.022C34.8063 217.033 32.8542 214.771 30.3958 213.235C27.9373 211.699 25.1889 210.932 22.1506 210.932C19.1122 210.932 16.3638 211.699 13.9054 213.235C11.4469 214.771 9.49486 217.033 8.04918 220.022C6.60351 223.012 5.88068 226.679 5.88068 231.024C5.88068 235.369 6.60351 239.036 8.04918 242.026C9.49486 245.015 11.4469 247.278 13.9054 248.813C16.3638 250.349 19.1122 251.116 22.1506 251.116C25.1889 251.116 27.9373 250.349 30.3958 248.813C32.8542 247.278 34.8063 245.015 36.252 242.026C37.6976 239.036 38.4205 235.369 38.4205 231.024ZM51.346 270.229V218.479H56.9326V224.457H57.6187C58.0434 223.804 58.6356 222.967 59.3951 221.946C60.1547 220.925 61.2492 220.01 62.6785 219.201C64.1079 218.393 66.0477 217.989 68.4979 217.989C71.667 217.989 74.4603 218.781 76.8779 220.365C79.2955 221.95 81.1823 224.196 82.5381 227.104C83.8939 230.011 84.5718 233.442 84.5718 237.395C84.5718 241.381 83.8939 244.831 82.5381 247.747C81.1823 250.663 79.3037 252.917 76.9024 254.51C74.5011 256.103 71.7323 256.899 68.596 256.899C66.1783 256.899 64.2426 256.495 62.7888 255.686C61.3349 254.878 60.216 253.955 59.4319 252.917C58.6478 251.88 58.0434 251.018 57.6187 250.332H57.1286V270.229H51.346ZM57.0306 237.297C57.0306 240.139 57.4472 242.642 58.2803 244.807C59.1134 246.971 60.3303 248.662 61.9312 249.879C63.5321 251.096 65.4923 251.704 67.8119 251.704C70.2295 251.704 72.251 251.063 73.8763 249.781C75.5017 248.499 76.7268 246.767 77.5518 244.586C78.3767 242.406 78.7891 239.976 78.7891 237.297C78.7891 234.65 78.3849 232.261 77.5763 230.13C76.7677 227.998 75.5507 226.307 73.9253 225.058C72.3 223.808 70.2622 223.183 67.8119 223.183C65.4596 223.183 63.483 223.775 61.8822 224.96C60.2813 226.144 59.0725 227.794 58.2558 229.909C57.439 232.025 57.0306 234.487 57.0306 237.297ZM95.0746 234.258H116.512C116.512 232.135 116.091 230.24 115.25 228.574C114.408 226.908 113.216 225.593 111.672 224.629C110.129 223.665 108.311 223.183 106.22 223.183C103.917 223.183 101.928 223.751 100.254 224.886C98.5795 226.021 97.2931 227.496 96.3947 229.309C95.6247 230.863 95.1847 232.513 95.0746 234.258ZM95.0599 239.257C95.1435 241.76 95.6334 243.904 96.5295 245.689C97.5177 247.657 98.894 249.152 100.658 250.173C102.422 251.194 104.472 251.704 106.808 251.704C108.328 251.704 109.704 251.488 110.937 251.055C112.17 250.622 113.236 249.969 114.135 249.095C115.033 248.221 115.727 247.131 116.217 245.824L121.804 247.392C121.216 249.287 120.228 250.949 118.839 252.378C117.451 253.808 115.736 254.918 113.694 255.711C111.652 256.503 109.357 256.899 106.808 256.899C103.182 256.899 100.058 256.095 97.4361 254.486C94.8142 252.876 92.7969 250.622 91.3839 247.723C89.9709 244.823 89.2644 241.446 89.2644 237.591C89.2644 233.736 89.9709 230.334 91.3839 227.385C92.7969 224.437 94.7734 222.134 97.3136 220.476C99.8537 218.818 102.823 217.989 106.22 217.989C108.181 217.989 110.116 218.315 112.028 218.969C113.939 219.622 115.678 220.68 117.247 222.142C118.815 223.604 120.064 225.535 120.996 227.937C121.927 230.338 122.392 233.295 122.392 236.807V239.257H95.0599ZM134.632 233.474V256.115H128.849V218.479H134.436V224.359H134.926C135.808 222.448 137.147 220.908 138.944 219.74C140.741 218.573 143.061 217.989 145.903 217.989C148.451 217.989 150.681 218.507 152.592 219.544C154.503 220.582 155.99 222.15 157.052 224.249C158.114 226.348 158.644 228.998 158.644 232.2V256.115H152.862V232.592C152.862 229.636 152.094 227.328 150.558 225.67C149.023 224.012 146.916 223.183 144.237 223.183C142.391 223.183 140.745 223.583 139.299 224.384C137.854 225.184 136.714 226.352 135.881 227.888C135.048 229.423 134.632 231.285 134.632 233.474ZM1.96023 271.933H9.21307L26.267 313.588H26.8551L43.9091 271.933H51.1619V322.115H45.4773V283.989H44.9872L29.3054 322.115H23.8168L8.13494 283.989H7.64489V322.115H1.96023V271.933ZM75.4568 322.899C72.059 322.899 69.0819 322.09 66.5255 320.473C63.969 318.856 61.9761 316.594 60.5468 313.686C59.1174 310.778 58.4028 307.381 58.4028 303.493C58.4028 299.572 59.1174 296.15 60.5468 293.226C61.9761 290.302 63.969 288.032 66.5255 286.414C69.0819 284.797 72.059 283.989 75.4568 283.989C78.8545 283.989 81.8316 284.797 84.388 286.414C86.9445 288.032 88.9374 290.302 90.3667 293.226C91.7961 296.15 92.5107 299.572 92.5107 303.493C92.5107 307.381 91.7961 310.778 90.3667 313.686C88.9374 316.594 86.9445 318.856 84.388 320.473C81.8316 322.09 78.8545 322.899 75.4568 322.899ZM75.4568 317.704C78.0377 317.704 80.1613 317.043 81.8275 315.72C83.4937 314.397 84.727 312.657 85.5274 310.501C86.3279 308.344 86.7281 306.008 86.7281 303.493C86.7281 300.977 86.3279 298.633 85.5274 296.46C84.727 294.288 83.4937 292.532 81.8275 291.192C80.1613 289.853 78.0377 289.183 75.4568 289.183C72.8758 289.183 70.7522 289.853 69.086 291.192C67.4198 292.532 66.1865 294.288 65.3861 296.46C64.5857 298.633 64.1854 300.977 64.1854 303.493C64.1854 306.008 64.5857 308.344 65.3861 310.501C66.1865 312.657 67.4198 314.397 69.086 315.72C70.7522 317.043 72.8758 317.704 75.4568 317.704ZM104.75 299.474V322.115H98.9675V284.479H104.554V290.359H105.044C105.926 288.448 107.266 286.908 109.063 285.741C110.86 284.573 113.179 283.989 116.021 283.989C118.57 283.989 120.8 284.507 122.711 285.544C124.622 286.582 126.108 288.15 127.17 290.249C128.232 292.348 128.763 294.998 128.763 298.2V322.115H122.98V298.592C122.98 295.636 122.213 293.328 120.677 291.67C119.141 290.012 117.034 289.183 114.355 289.183C112.509 289.183 110.864 289.583 109.418 290.384C107.972 291.184 106.833 292.352 106 293.888C105.167 295.423 104.75 297.285 104.75 299.474ZM152.274 322.899C148.876 322.899 145.899 322.09 143.342 320.473C140.786 318.856 138.793 316.594 137.364 313.686C135.934 310.778 135.22 307.381 135.22 303.493C135.22 299.572 135.934 296.15 137.364 293.226C138.793 290.302 140.786 288.032 143.342 286.414C145.899 284.797 148.876 283.989 152.274 283.989C155.671 283.989 158.648 284.797 161.205 286.414C163.761 288.032 165.754 290.302 167.184 293.226C168.613 296.15 169.328 299.572 169.328 303.493C169.328 307.381 168.613 310.778 167.184 313.686C165.754 316.594 163.761 318.856 161.205 320.473C158.648 322.09 155.671 322.899 152.274 322.899ZM152.274 317.704C154.855 317.704 156.978 317.043 158.644 315.72C160.311 314.397 161.544 312.657 162.344 310.501C163.145 308.344 163.545 306.008 163.545 303.493C163.545 300.977 163.145 298.633 162.344 296.46C161.544 294.288 160.311 292.532 158.644 291.192C156.978 289.853 154.855 289.183 152.274 289.183C149.693 289.183 147.569 289.853 145.903 291.192C144.237 292.532 143.003 294.288 142.203 296.46C141.403 298.633 141.002 300.977 141.002 303.493C141.002 306.008 141.403 308.344 142.203 310.501C143.003 312.657 144.237 314.397 145.903 315.72C147.569 317.043 149.693 317.704 152.274 317.704ZM190.976 337.013C188.183 337.013 185.782 336.657 183.772 335.947C181.763 335.236 180.093 334.305 178.762 333.154C177.43 332.002 176.372 330.773 175.588 329.466L180.195 326.231C180.718 326.918 181.379 327.706 182.18 328.596C182.98 329.486 184.079 330.262 185.475 330.924C186.872 331.585 188.706 331.916 190.976 331.916C194.015 331.916 196.522 331.181 198.499 329.711C200.475 328.241 201.463 325.937 201.463 322.801V315.156H200.973C200.549 315.842 199.948 316.688 199.172 317.692C198.396 318.697 197.286 319.587 195.84 320.363C194.394 321.139 192.446 321.527 189.996 321.527C186.958 321.527 184.234 320.808 181.824 319.371C179.415 317.933 177.512 315.842 176.115 313.098C174.719 310.354 174.02 307.021 174.02 303.101C174.02 299.246 174.698 295.885 176.054 293.018C177.41 290.151 179.296 287.929 181.714 286.353C184.132 284.777 186.925 283.989 190.094 283.989C192.544 283.989 194.492 284.393 195.938 285.201C197.384 286.01 198.494 286.925 199.27 287.946C200.046 288.967 200.647 289.804 201.071 290.457H201.659V284.479H207.246V323.193C207.246 326.427 206.515 329.062 205.053 331.095C203.591 333.129 201.631 334.624 199.172 335.579C196.714 336.535 193.982 337.013 190.976 337.013ZM190.78 316.332C193.1 316.332 195.06 315.801 196.661 314.74C198.262 313.678 199.479 312.15 200.312 310.158C201.145 308.165 201.561 305.78 201.561 303.003C201.561 300.291 201.153 297.898 200.336 295.823C199.519 293.749 198.311 292.123 196.71 290.947C195.109 289.771 193.132 289.183 190.78 289.183C188.33 289.183 186.292 289.804 184.667 291.045C183.041 292.287 181.824 293.953 181.016 296.044C180.207 298.135 179.803 300.454 179.803 303.003C179.803 305.616 180.215 307.924 181.04 309.925C181.865 311.926 183.09 313.494 184.716 314.629C186.341 315.765 188.363 316.332 190.78 316.332ZM215.467 322.115V284.479H221.054V290.163H221.446C222.132 288.301 223.373 286.79 225.17 285.63C226.967 284.47 228.993 283.891 231.247 283.891C231.672 283.891 232.202 283.899 232.84 283.915C233.477 283.931 233.959 283.956 234.285 283.989V289.869C234.089 289.82 233.644 289.743 232.95 289.636C232.256 289.53 231.525 289.477 230.757 289.477C228.927 289.477 227.298 289.857 225.868 290.617C224.439 291.376 223.312 292.422 222.487 293.753C221.662 295.084 221.25 296.599 221.25 298.298V322.115H215.467ZM249.857 322.997C247.472 322.997 245.308 322.544 243.364 321.637C241.42 320.731 239.876 319.416 238.733 317.692C237.589 315.969 237.018 313.882 237.018 311.432C237.018 309.275 237.442 307.524 238.292 306.176C239.141 304.828 240.276 303.771 241.698 303.003C243.119 302.235 244.691 301.659 246.414 301.275C248.138 300.891 249.873 300.585 251.621 300.356C253.908 300.062 255.766 299.838 257.196 299.683C258.625 299.527 259.67 299.262 260.332 298.886C260.994 298.511 261.324 297.857 261.324 296.926V296.73C261.324 294.312 260.667 292.434 259.352 291.094C258.037 289.755 256.048 289.085 253.385 289.085C250.625 289.085 248.46 289.69 246.892 290.898C245.324 292.107 244.221 293.398 243.584 294.77L238.096 292.81C239.076 290.523 240.387 288.738 242.028 287.456C243.67 286.173 245.467 285.275 247.419 284.76C249.371 284.246 251.295 283.989 253.189 283.989C254.398 283.989 255.791 284.131 257.367 284.417C258.944 284.703 260.471 285.287 261.949 286.169C263.428 287.051 264.657 288.383 265.637 290.163C266.617 291.944 267.107 294.329 267.107 297.318V322.115H261.324V317.018H261.03C260.638 317.835 259.985 318.709 259.07 319.64C258.155 320.571 256.938 321.364 255.419 322.017C253.9 322.67 252.046 322.997 249.857 322.997ZM250.739 317.802C253.026 317.802 254.958 317.353 256.534 316.455C258.11 315.556 259.303 314.397 260.111 312.975C260.92 311.554 261.324 310.06 261.324 308.491V303.199C261.079 303.493 260.544 303.758 259.719 303.995C258.895 304.232 257.947 304.436 256.877 304.608C255.807 304.779 254.77 304.926 253.765 305.049C252.761 305.171 251.948 305.273 251.327 305.355C249.824 305.551 248.424 305.865 247.125 306.298C245.826 306.731 244.781 307.376 243.989 308.234C243.196 309.092 242.8 310.256 242.8 311.726C242.8 313.735 243.548 315.25 245.042 316.271C246.537 317.292 248.436 317.802 250.739 317.802ZM275.328 336.229V284.479H280.915V290.457H281.601C282.025 289.804 282.618 288.967 283.377 287.946C284.137 286.925 285.231 286.01 286.661 285.201C288.09 284.393 290.03 283.989 292.48 283.989C295.649 283.989 298.442 284.781 300.86 286.365C303.278 287.95 305.164 290.196 306.52 293.104C307.876 296.011 308.554 299.442 308.554 303.395C308.554 307.381 307.876 310.831 306.52 313.747C305.164 316.663 303.286 318.917 300.884 320.51C298.483 322.103 295.714 322.899 292.578 322.899C290.16 322.899 288.225 322.495 286.771 321.686C285.317 320.878 284.198 319.955 283.414 318.917C282.63 317.88 282.025 317.018 281.601 316.332H281.111V336.229H275.328ZM281.013 303.297C281.013 306.139 281.429 308.642 282.262 310.807C283.095 312.971 284.312 314.662 285.913 315.879C287.514 317.096 289.474 317.704 291.794 317.704C294.212 317.704 296.233 317.063 297.858 315.781C299.484 314.499 300.709 312.767 301.534 310.586C302.359 308.406 302.771 305.976 302.771 303.297C302.771 300.65 302.367 298.261 301.558 296.13C300.75 293.998 299.533 292.307 297.907 291.058C296.282 289.808 294.244 289.183 291.794 289.183C289.442 289.183 287.465 289.775 285.864 290.96C284.263 292.144 283.055 293.794 282.238 295.909C281.421 298.025 281.013 300.487 281.013 303.297ZM320.793 299.474V322.115H315.011V271.933H320.793V290.359H321.283C322.165 288.415 323.493 286.868 325.265 285.716C327.037 284.564 329.402 283.989 332.359 283.989C334.923 283.989 337.169 284.499 339.097 285.52C341.024 286.541 342.523 288.101 343.593 290.2C344.663 292.299 345.198 294.966 345.198 298.2V322.115H339.415V298.592C339.415 295.603 338.644 293.287 337.1 291.646C335.556 290.004 333.42 289.183 330.692 289.183C328.798 289.183 327.103 289.583 325.608 290.384C324.113 291.184 322.937 292.352 322.08 293.888C321.222 295.423 320.793 297.285 320.793 299.474ZM8.03693 364.396H18.8182C21.5135 364.396 23.6779 363.931 25.3114 363C26.945 362.068 28.1333 360.807 28.8766 359.214C29.6199 357.621 29.9915 355.82 29.9915 353.811C29.9915 351.802 29.6199 350.005 28.8766 348.42C28.1333 346.836 26.9368 345.59 25.2869 344.684C23.6371 343.777 21.4482 343.324 18.7202 343.324H8.03693V364.396ZM8.03693 369.787V388.115H1.96023V337.933H18.9162C22.853 337.933 26.0751 338.64 28.5826 340.053C31.09 341.466 32.9481 343.373 34.157 345.774C35.3658 348.175 35.9702 350.854 35.9702 353.811C35.9702 356.768 35.3699 359.455 34.1692 361.872C32.9686 364.29 31.1186 366.214 28.6193 367.643C26.12 369.072 22.9183 369.787 19.0142 369.787H8.03693ZM42.623 388.115V350.479H48.2096V356.163H48.6016C49.2877 354.301 50.5292 352.79 52.3261 351.63C54.123 350.47 56.1485 349.891 58.4028 349.891C58.8275 349.891 59.3584 349.899 59.9955 349.915C60.6325 349.931 61.1144 349.956 61.4411 349.989V355.869C61.2451 355.82 60.8 355.743 60.1057 355.636C59.4115 355.53 58.6805 355.477 57.9127 355.477C56.0832 355.477 54.4537 355.857 53.0244 356.617C51.5951 357.376 50.4679 358.422 49.643 359.753C48.8181 361.084 48.4056 362.599 48.4056 364.298V388.115H42.623ZM68.8076 366.258H90.2445C90.2445 364.135 89.8239 362.24 88.9826 360.574C88.1413 358.908 86.9489 357.593 85.4052 356.629C83.8615 355.665 82.0442 355.183 79.9533 355.183C77.65 355.183 75.6612 355.751 73.9868 356.886C72.3125 358.021 71.0261 359.496 70.1276 361.309C69.3577 362.863 68.9177 364.513 68.8076 366.258ZM68.7929 371.257C68.8765 373.76 69.3663 375.904 70.2624 377.689C71.2507 379.657 72.6269 381.152 74.3911 382.173C76.1554 383.194 78.2054 383.704 80.5414 383.704C82.0605 383.704 83.4368 383.488 84.6701 383.055C85.9034 382.622 86.9693 381.969 87.8677 381.095C88.7662 380.221 89.4604 379.131 89.9504 377.824L95.5371 379.392C94.949 381.287 93.9608 382.949 92.5723 384.378C91.1837 385.808 89.4686 386.918 87.4267 387.711C85.3847 388.503 83.0897 388.899 80.5414 388.899C76.9149 388.899 73.7908 388.095 71.169 386.486C68.5472 384.877 66.5298 382.622 65.1168 379.723C63.7038 376.823 62.9973 373.446 62.9973 369.591C62.9973 365.736 63.7038 362.334 65.1168 359.385C66.5298 356.437 68.5064 354.134 71.0465 352.476C73.5866 350.818 76.5555 349.989 79.9533 349.989C81.9135 349.989 83.8492 350.315 85.7605 350.969C87.6717 351.622 89.4114 352.68 90.9796 354.142C92.5478 355.604 93.7974 357.535 94.7285 359.937C95.6596 362.338 96.1252 365.295 96.1252 368.807V371.257H68.7929ZM129.241 358.908L124.046 360.378C123.72 359.512 123.242 358.667 122.613 357.842C121.984 357.017 121.131 356.335 120.052 355.796C118.974 355.257 117.594 354.987 115.911 354.987C113.608 354.987 111.693 355.514 110.166 356.568C108.638 357.621 107.875 358.957 107.875 360.574C107.875 362.011 108.397 363.147 109.443 363.98C110.488 364.813 112.122 365.507 114.343 366.062L119.93 367.435C123.295 368.251 125.802 369.497 127.452 371.171C129.102 372.846 129.927 374.998 129.927 377.628C129.927 379.784 129.31 381.712 128.077 383.41C126.844 385.109 125.125 386.449 122.919 387.429C120.714 388.409 118.149 388.899 115.225 388.899C111.387 388.899 108.209 388.066 105.694 386.4C103.178 384.734 101.585 382.3 100.916 379.098L106.404 377.726C106.927 379.751 107.919 381.271 109.381 382.283C110.843 383.296 112.759 383.802 115.127 383.802C117.823 383.802 119.967 383.227 121.559 382.075C123.152 380.923 123.948 379.539 123.948 377.922C123.948 376.615 123.491 375.516 122.576 374.626C121.661 373.736 120.257 373.07 118.362 372.629L112.089 371.159C108.642 370.342 106.114 369.072 104.505 367.349C102.896 365.625 102.092 363.465 102.092 360.868C102.092 358.744 102.692 356.866 103.893 355.232C105.093 353.599 106.735 352.316 108.818 351.385C110.901 350.454 113.265 349.989 115.911 349.989C119.636 349.989 122.564 350.805 124.696 352.439C126.827 354.072 128.343 356.229 129.241 358.908ZM162.945 358.908L157.75 360.378C157.424 359.512 156.946 358.667 156.317 357.842C155.688 357.017 154.834 356.335 153.756 355.796C152.678 355.257 151.298 354.987 149.615 354.987C147.312 354.987 145.397 355.514 143.869 356.568C142.342 357.621 141.578 358.957 141.578 360.574C141.578 362.011 142.101 363.147 143.147 363.98C144.192 364.813 145.826 365.507 148.047 366.062L153.634 367.435C156.999 368.251 159.506 369.497 161.156 371.171C162.806 372.846 163.631 374.998 163.631 377.628C163.631 379.784 163.014 381.712 161.781 383.41C160.548 385.109 158.828 386.449 156.623 387.429C154.418 388.409 151.853 388.899 148.929 388.899C145.091 388.899 141.913 388.066 139.398 386.4C136.882 384.734 135.289 382.3 134.62 379.098L140.108 377.726C140.631 379.751 141.623 381.271 143.085 382.283C144.547 383.296 146.463 383.802 148.831 383.802C151.527 383.802 153.671 383.227 155.263 382.075C156.856 380.923 157.652 379.539 157.652 377.922C157.652 376.615 157.195 375.516 156.28 374.626C155.365 373.736 153.961 373.07 152.066 372.629L145.793 371.159C142.346 370.342 139.818 369.072 138.209 367.349C136.6 365.625 135.796 363.465 135.796 360.868C135.796 358.744 136.396 356.866 137.597 355.232C138.797 353.599 140.439 352.316 142.522 351.385C144.605 350.454 146.969 349.989 149.615 349.989C153.34 349.989 156.268 350.805 158.4 352.439C160.531 354.072 162.046 356.229 162.945 358.908Z" fill="white"/>
</svg>
