<svg width="287" height="403" viewBox="0 0 287 403" fill="none" xmlns="http://www.w3.org/2000/svg">
<path d="M75.8184 153.2C22.2765 153.2 0 111.578 0 76.4046C0 44.7485 23.0582 0 76.9908 0C120.958 0 153.786 27.748 153.786 73.2781C153.786 117.049 122.912 153.2 75.8184 153.2ZM81.0944 145.774C98.6811 145.774 135.027 135.613 135.027 78.7495C135.027 31.8515 106.497 6.64388 75.623 6.64388C42.9898 6.64388 18.5638 28.1388 18.5638 70.9332C18.5638 116.463 45.9209 145.774 81.0944 145.774ZM190.855 59.4041V106.302C190.855 137.958 190.855 150.073 184.993 163.947C180.889 173.718 172.291 182.902 156.463 193.845C153.923 195.604 150.796 197.753 148.842 198.73C148.452 198.926 148.061 199.121 147.475 199.121C146.888 199.121 146.107 198.73 146.107 197.948C146.107 196.776 147.084 196.19 148.842 195.017C151.187 193.649 153.923 191.305 155.682 189.546C168.383 176.649 174.441 166.292 174.441 115.877V59.4041C174.441 28.9204 174.441 23.449 174.05 17.1959C173.659 10.552 172.096 7.42551 165.648 6.05765C164.084 5.66684 161.349 5.47143 159.59 5.47143C158.222 5.47143 157.44 4.8852 157.44 4.10357C157.44 3.32194 158.222 2.73571 160.371 2.73571C169.165 2.73571 181.671 3.32194 182.648 3.32194C183.625 3.32194 195.936 2.73571 201.798 2.73571C203.947 2.73571 204.925 3.12653 204.925 4.29898C204.925 5.08061 203.948 5.47143 202.775 5.47143C201.407 5.47143 199.844 5.66684 198.085 5.86225C192.809 6.44847 191.637 10.3566 191.246 17.1959C190.855 23.449 190.855 28.9204 190.855 59.4041ZM240.43 153.2C231.246 153.2 222.257 151.832 214.246 147.924C211.51 146.556 211.314 145.774 211.314 140.498C211.314 130.728 212.096 122.912 212.291 119.785C212.487 117.636 212.878 116.659 213.855 116.659C215.027 116.659 215.223 117.245 215.223 118.808C215.223 120.567 215.223 123.303 215.809 126.038C218.74 140.498 231.637 145.97 244.729 145.97C263.488 145.97 272.673 132.487 272.673 119.981C272.673 106.497 267.006 98.6811 250.201 84.8071L241.407 77.577C220.694 60.5765 216.004 48.4612 216.004 35.1735C216.004 14.2648 231.637 0 256.454 0C264.075 0 269.741 0.781633 274.627 1.95408C278.339 2.73571 279.903 2.93112 281.466 2.93112C283.029 2.93112 283.42 3.32194 283.42 4.29898C283.42 5.27602 282.638 11.7245 282.638 25.0122C282.638 28.1388 282.248 29.5066 281.271 29.5066C280.098 29.5066 279.903 28.5296 279.707 26.9663C279.512 24.6214 278.339 19.3454 277.167 17.1959C275.994 15.0464 270.718 6.83929 252.741 6.83929C239.258 6.83929 228.706 15.2418 228.706 29.5066C228.706 40.6449 233.786 47.6796 252.546 62.3352L258.017 66.6342C281.075 84.8071 286.547 96.9224 286.547 112.555C286.547 120.567 283.42 135.418 269.937 144.993C261.534 150.855 250.982 153.2 240.43 153.2Z" fill="white"/>
<path d="M48.4176 231.024C48.4176 236.317 47.462 240.891 45.5507 244.746C43.6395 248.601 41.0177 251.574 37.6853 253.665C34.3529 255.756 30.5469 256.801 26.267 256.801C21.9872 256.801 18.1811 255.756 14.8487 253.665C11.5163 251.574 8.8945 248.601 6.98327 244.746C5.07203 240.891 4.11643 236.317 4.11643 231.024C4.11643 225.731 5.07203 221.158 6.98327 217.302C8.8945 213.447 11.5163 210.474 14.8487 208.383C18.1811 206.293 21.9872 205.247 26.267 205.247C30.5469 205.247 34.3529 206.293 37.6853 208.383C41.0177 210.474 43.6395 213.447 45.5507 217.302C47.462 221.158 48.4176 225.731 48.4176 231.024ZM42.5369 231.024C42.5369 226.679 41.8141 223.012 40.3684 220.022C38.9227 217.033 36.9707 214.771 34.5122 213.235C32.0537 211.699 29.3054 210.932 26.267 210.932C23.2286 210.932 20.4803 211.699 18.0218 213.235C15.5633 214.771 13.6113 217.033 12.1656 220.022C10.7199 223.012 9.99711 226.679 9.99711 231.024C9.99711 235.369 10.7199 239.036 12.1656 242.026C13.6113 245.015 15.5633 247.278 18.0218 248.813C20.4803 250.349 23.2286 251.116 26.267 251.116C29.3054 251.116 32.0537 250.349 34.5122 248.813C36.9707 247.278 38.9227 245.015 40.3684 242.026C41.8141 239.036 42.5369 235.369 42.5369 231.024ZM55.4624 270.229V218.479H61.049V224.457H61.7351C62.1598 223.804 62.752 222.967 63.5116 221.946C64.2712 220.925 65.3656 220.01 66.795 219.201C68.2243 218.393 70.1641 217.989 72.6144 217.989C75.7834 217.989 78.5767 218.781 80.9944 220.365C83.412 221.95 85.2987 224.196 86.6545 227.104C88.0103 230.011 88.6882 233.442 88.6882 237.395C88.6882 241.381 88.0103 244.831 86.6545 247.747C85.2987 250.663 83.4202 252.917 81.0189 254.51C78.6176 256.103 75.8488 256.899 72.7124 256.899C70.2948 256.899 68.3591 256.495 66.9052 255.686C65.4514 254.878 64.3324 253.955 63.5483 252.917C62.7642 251.88 62.1598 251.018 61.7351 250.332H61.2451V270.229H55.4624ZM61.1471 237.297C61.1471 240.139 61.5636 242.642 62.3967 244.807C63.2298 246.971 64.4468 248.662 66.0476 249.879C67.6485 251.096 69.6087 251.704 71.9283 251.704C74.3459 251.704 76.3674 251.063 77.9928 249.781C79.6181 248.499 80.8432 246.767 81.6682 244.586C82.4931 242.406 82.9056 239.976 82.9056 237.297C82.9056 234.65 82.5013 232.261 81.6927 230.13C80.8841 227.998 79.6671 226.307 78.0418 225.058C76.4164 223.808 74.3786 223.183 71.9283 223.183C69.576 223.183 67.5995 223.775 65.9986 224.96C64.3978 226.144 63.189 227.794 62.3722 229.909C61.5554 232.025 61.1471 234.487 61.1471 237.297ZM99.191 234.258H120.628C120.628 232.135 120.207 230.24 119.366 228.574C118.525 226.908 117.332 225.593 115.789 224.629C114.245 223.665 112.428 223.183 110.337 223.183C108.033 223.183 106.045 223.751 104.37 224.886C102.696 226.021 101.41 227.496 100.511 229.309C99.7412 230.863 99.3011 232.513 99.191 234.258ZM99.1764 239.257C99.26 241.76 99.7498 243.904 100.646 245.689C101.634 247.657 103.01 249.152 104.775 250.173C106.539 251.194 108.589 251.704 110.925 251.704C112.444 251.704 113.82 251.488 115.054 251.055C116.287 250.622 117.353 249.969 118.251 249.095C119.15 248.221 119.844 247.131 120.334 245.824L125.921 247.392C125.332 249.287 124.344 250.949 122.956 252.378C121.567 253.808 119.852 254.918 117.81 255.711C115.768 256.503 113.473 256.899 110.925 256.899C107.298 256.899 104.174 256.095 101.552 254.486C98.9307 252.876 96.9133 250.622 95.5003 247.723C94.0873 244.823 93.3808 241.446 93.3808 237.591C93.3808 233.736 94.0873 230.334 95.5003 227.385C96.9133 224.437 98.8898 222.134 101.43 220.476C103.97 218.818 106.939 217.989 110.337 217.989C112.297 217.989 114.233 218.315 116.144 218.969C118.055 219.622 119.795 220.68 121.363 222.142C122.931 223.604 124.181 225.535 125.112 227.937C126.043 230.338 126.509 233.295 126.509 236.807V239.257H99.1764ZM138.748 233.474V256.115H132.965V218.479H138.552V224.359H139.042C139.924 222.448 141.264 220.908 143.061 219.74C144.857 218.573 147.177 217.989 150.019 217.989C152.568 217.989 154.797 218.507 156.709 219.544C158.62 220.582 160.106 222.15 161.168 224.249C162.23 226.348 162.761 228.998 162.761 232.2V256.115H156.978V232.592C156.978 229.636 156.21 227.328 154.675 225.67C153.139 224.012 151.032 223.183 148.353 223.183C146.507 223.183 144.862 223.583 143.416 224.384C141.97 225.184 140.831 226.352 139.998 227.888C139.165 229.423 138.748 231.285 138.748 233.474ZM25.2869 271.933H31.3636V307.805C31.3636 311.007 30.7755 313.727 29.5994 315.965C28.4232 318.203 26.7652 319.902 24.6253 321.061C22.4854 322.221 19.9616 322.801 17.0539 322.801C14.3096 322.801 11.8675 322.299 9.72758 321.294C7.58766 320.29 5.90515 318.856 4.68 316.994C3.45485 315.132 2.84229 312.918 2.84229 310.354H8.82098C8.82098 311.775 9.17627 313.012 9.88685 314.066C10.5974 315.119 11.5735 315.94 12.8149 316.528C14.0564 317.116 15.4694 317.41 17.0539 317.41C18.8018 317.41 20.2883 317.043 21.5135 316.308C22.7386 315.573 23.6738 314.49 24.319 313.061C24.9643 311.632 25.2869 309.88 25.2869 307.805V271.933ZM55.6584 322.899C52.2607 322.899 49.2836 322.09 46.7271 320.473C44.1707 318.856 42.1778 316.594 40.7484 313.686C39.3191 310.778 38.6044 307.381 38.6044 303.493C38.6044 299.572 39.3191 296.15 40.7484 293.226C42.1778 290.302 44.1707 288.032 46.7271 286.414C49.2836 284.797 52.2607 283.989 55.6584 283.989C59.0562 283.989 62.0332 284.797 64.5897 286.414C67.1462 288.032 69.1391 290.302 70.5684 293.226C71.9977 296.15 72.7124 299.572 72.7124 303.493C72.7124 307.381 71.9977 310.778 70.5684 313.686C69.1391 316.594 67.1462 318.856 64.5897 320.473C62.0332 322.09 59.0562 322.899 55.6584 322.899ZM55.6584 317.704C58.2394 317.704 60.363 317.043 62.0292 315.72C63.6954 314.397 64.9287 312.657 65.7291 310.501C66.5295 308.344 66.9297 306.008 66.9297 303.493C66.9297 300.977 66.5295 298.633 65.7291 296.46C64.9287 294.288 63.6954 292.532 62.0292 291.192C60.363 289.853 58.2394 289.183 55.6584 289.183C53.0774 289.183 50.9539 289.853 49.2877 291.192C47.6215 292.532 46.3882 294.288 45.5877 296.46C44.7873 298.633 44.3871 300.977 44.3871 303.493C44.3871 306.008 44.7873 308.344 45.5877 310.501C46.3882 312.657 47.6215 314.397 49.2877 315.72C50.9539 317.043 53.0774 317.704 55.6584 317.704ZM102.888 306.727V284.479H108.671V322.115H102.888V315.744H102.496C101.614 317.655 100.242 319.277 98.3794 320.608C96.5172 321.939 94.1649 322.605 91.3226 322.605C88.9703 322.605 86.8794 322.086 85.0498 321.049C83.2203 320.012 81.7828 318.444 80.7373 316.345C79.6919 314.245 79.1692 311.595 79.1692 308.393V284.479H84.9518V308.001C84.9518 310.746 85.7237 312.935 87.2673 314.568C88.811 316.202 90.7835 317.018 93.1848 317.018C94.6223 317.018 96.0884 316.651 97.583 315.916C99.0777 315.181 100.336 314.054 101.356 312.534C102.377 311.015 102.888 309.079 102.888 306.727ZM116.892 322.115V284.479H122.478V290.163H122.87C123.556 288.301 124.798 286.79 126.595 285.63C128.392 284.47 130.417 283.891 132.671 283.891C133.096 283.891 133.627 283.899 134.264 283.915C134.901 283.931 135.383 283.956 135.71 283.989V289.869C135.514 289.82 135.069 289.743 134.374 289.636C133.68 289.53 132.949 289.477 132.181 289.477C130.352 289.477 128.722 289.857 127.293 290.617C125.864 291.376 124.737 292.422 123.912 293.753C123.087 295.084 122.674 296.599 122.674 298.298V322.115H116.892ZM145.989 299.474V322.115H140.206V284.479H145.793V290.359H146.283C147.165 288.448 148.505 286.908 150.301 285.741C152.098 284.573 154.418 283.989 157.26 283.989C159.809 283.989 162.038 284.507 163.95 285.544C165.861 286.582 167.347 288.15 168.409 290.249C169.471 292.348 170.002 294.998 170.002 298.2V322.115H164.219V298.592C164.219 295.636 163.451 293.328 161.916 291.67C160.38 290.012 158.273 289.183 155.594 289.183C153.748 289.183 152.102 289.583 150.657 290.384C149.211 291.184 148.072 292.352 147.239 293.888C146.405 295.423 145.989 297.285 145.989 299.474ZM189.298 322.997C186.913 322.997 184.749 322.544 182.805 321.637C180.861 320.731 179.317 319.416 178.174 317.692C177.03 315.969 176.458 313.882 176.458 311.432C176.458 309.275 176.883 307.524 177.733 306.176C178.582 304.828 179.717 303.771 181.139 303.003C182.56 302.235 184.132 301.659 185.855 301.275C187.579 300.891 189.314 300.585 191.062 300.356C193.349 300.062 195.207 299.838 196.637 299.683C198.066 299.527 199.111 299.262 199.773 298.886C200.434 298.511 200.765 297.857 200.765 296.926V296.73C200.765 294.312 200.108 292.434 198.793 291.094C197.478 289.755 195.489 289.085 192.826 289.085C190.066 289.085 187.901 289.69 186.333 290.898C184.765 292.107 183.662 293.398 183.025 294.77L177.537 292.81C178.517 290.523 179.828 288.738 181.469 287.456C183.111 286.173 184.908 285.275 186.86 284.76C188.812 284.246 190.735 283.989 192.63 283.989C193.839 283.989 195.232 284.131 196.808 284.417C198.384 284.703 199.912 285.287 201.39 286.169C202.868 287.051 204.098 288.383 205.078 290.163C206.058 291.944 206.548 294.329 206.548 297.318V322.115H200.765V317.018H200.471C200.079 317.835 199.426 318.709 198.511 319.64C197.596 320.571 196.379 321.364 194.86 322.017C193.341 322.67 191.487 322.997 189.298 322.997ZM190.18 317.802C192.467 317.802 194.399 317.353 195.975 316.455C197.551 315.556 198.744 314.397 199.552 312.975C200.361 311.554 200.765 310.06 200.765 308.491V303.199C200.52 303.493 199.985 303.758 199.16 303.995C198.335 304.232 197.388 304.436 196.318 304.608C195.248 304.779 194.211 304.926 193.206 305.049C192.202 305.171 191.389 305.273 190.768 305.355C189.265 305.551 187.865 305.865 186.566 306.298C185.267 306.731 184.222 307.376 183.43 308.234C182.637 309.092 182.241 310.256 182.241 311.726C182.241 313.735 182.988 315.25 184.483 316.271C185.978 317.292 187.877 317.802 190.18 317.802ZM220.552 271.933V322.115H214.769V271.933H220.552ZM33.5198 350.479C33.2258 347.996 32.0333 346.068 29.9424 344.696C27.8515 343.324 25.2869 342.638 22.2485 342.638C20.0269 342.638 18.0871 342.997 16.4291 343.716C14.7711 344.435 13.4806 345.423 12.5577 346.681C11.6347 347.938 11.1733 349.368 11.1733 350.969C11.1733 352.308 11.4959 353.456 12.1411 354.411C12.7864 355.367 13.6154 356.159 14.6282 356.788C15.6409 357.417 16.7027 357.932 17.8135 358.332C18.9243 358.732 19.9453 359.055 20.8764 359.3L25.973 360.672C27.2798 361.015 28.7377 361.489 30.3467 362.093C31.9558 362.697 33.4994 363.518 34.9778 364.555C36.4561 365.593 37.6772 366.92 38.6409 368.537C39.6047 370.154 40.0866 372.139 40.0866 374.491C40.0866 377.203 39.3801 379.653 37.9671 381.842C36.5541 384.031 34.4959 385.771 31.7924 387.061C29.0889 388.352 25.8096 388.997 21.9545 388.997C18.3607 388.997 15.253 388.417 12.6312 387.257C10.0094 386.098 7.95114 384.48 6.45645 382.406C4.96177 380.331 4.11643 377.922 3.92041 375.177H10.1931C10.3565 377.072 10.9976 378.636 12.1166 379.87C13.2356 381.103 14.6567 382.018 16.3801 382.614C18.1035 383.21 19.9616 383.508 21.9545 383.508C24.2741 383.508 26.3568 383.129 28.2027 382.369C30.0486 381.609 31.5106 380.548 32.5887 379.184C33.6669 377.82 34.2059 376.223 34.2059 374.393C34.2059 372.727 33.7404 371.371 32.8093 370.326C31.8781 369.28 30.653 368.431 29.1338 367.778C27.6147 367.124 25.973 366.552 24.2088 366.062L18.034 364.298C14.1136 363.171 11.0099 361.562 8.72297 359.471C6.43602 357.38 5.29257 354.644 5.29257 351.263C5.29257 348.453 6.05623 345.999 7.58358 343.9C9.11094 341.801 11.1692 340.167 13.7583 338.999C16.3474 337.831 19.2428 337.247 22.4446 337.247C25.679 337.247 28.5539 337.823 31.0696 338.975C33.5852 340.126 35.5822 341.698 37.0605 343.691C38.5388 345.684 39.3188 347.947 39.4005 350.479H33.5198ZM50.6598 402.131C49.6797 402.131 48.8058 402.053 48.038 401.898C47.2703 401.743 46.7394 401.592 46.4453 401.445L47.9155 396.348C50.0228 396.887 51.7788 396.875 53.1836 396.311C54.5885 395.748 55.8054 394.061 56.8346 391.251L57.9127 388.311L43.9951 350.479H50.2678L60.657 380.47H61.049L71.4382 350.479L77.76 350.577L61.7351 393.604C61.0164 395.515 60.1261 397.103 59.0643 398.369C58.0025 399.635 56.7733 400.579 55.3766 401.199C53.98 401.82 52.4077 402.131 50.6598 402.131ZM109.7 358.908L104.505 360.378C104.178 359.512 103.701 358.667 103.072 357.842C102.443 357.017 101.589 356.335 100.511 355.796C99.433 355.257 98.0527 354.987 96.3701 354.987C94.0669 354.987 92.1516 355.514 90.6242 356.568C89.0969 357.621 88.3332 358.957 88.3332 360.574C88.3332 362.011 88.8559 363.147 89.9014 363.98C90.9469 364.813 92.5804 365.507 94.802 366.062L100.389 367.435C103.754 368.251 106.261 369.497 107.911 371.171C109.561 372.846 110.386 374.998 110.386 377.628C110.386 379.784 109.769 381.712 108.536 383.41C107.302 385.109 105.583 386.449 103.378 387.429C101.173 388.409 98.6081 388.899 95.6841 388.899C91.8453 388.899 88.6681 388.066 86.1525 386.4C83.6368 384.734 82.0442 382.3 81.3744 379.098L86.863 377.726C87.3858 379.751 88.3781 381.271 89.8401 382.283C91.3022 383.296 93.2174 383.802 95.5861 383.802C98.2814 383.802 100.425 383.227 102.018 382.075C103.611 380.923 104.407 379.539 104.407 377.922C104.407 376.615 103.95 375.516 103.035 374.626C102.12 373.736 100.715 373.07 98.8204 372.629L92.5477 371.159C89.101 370.342 86.5731 369.072 84.9641 367.349C83.355 365.625 82.5505 363.465 82.5505 360.868C82.5505 358.744 83.1509 356.866 84.3515 355.232C85.5521 353.599 87.1938 352.316 89.2766 351.385C91.3593 350.454 93.7238 349.989 96.3701 349.989C100.095 349.989 103.023 350.805 105.154 352.439C107.286 354.072 108.801 356.229 109.7 358.908ZM133.112 350.479V355.379H113.608V350.479H133.112ZM119.293 341.462H125.075V377.334C125.075 378.967 125.316 380.188 125.798 380.997C126.28 381.805 126.901 382.345 127.661 382.614C128.42 382.884 129.225 383.018 130.074 383.018C130.711 383.018 131.234 382.982 131.642 382.908C132.051 382.835 132.377 382.773 132.622 382.724L133.798 387.919C133.406 388.066 132.859 388.217 132.157 388.372C131.454 388.527 130.564 388.605 129.486 388.605C127.852 388.605 126.256 388.254 124.696 387.551C123.136 386.849 121.845 385.779 120.824 384.342C119.803 382.904 119.293 381.091 119.293 378.902V341.462ZM143.125 366.258H164.562C164.562 364.135 164.141 362.24 163.3 360.574C162.459 358.908 161.266 357.593 159.723 356.629C158.179 355.665 156.362 355.183 154.271 355.183C151.968 355.183 149.979 355.751 148.304 356.886C146.63 358.021 145.344 359.496 144.445 361.309C143.675 362.863 143.235 364.513 143.125 366.258ZM143.11 371.257C143.194 373.76 143.684 375.904 144.58 377.689C145.568 379.657 146.945 381.152 148.709 382.173C150.473 383.194 152.523 383.704 154.859 383.704C156.378 383.704 157.754 383.488 158.988 383.055C160.221 382.622 161.287 381.969 162.185 381.095C163.084 380.221 163.778 379.131 164.268 377.824L169.855 379.392C169.267 381.287 168.278 382.949 166.89 384.378C165.501 385.808 163.786 386.918 161.744 387.711C159.702 388.503 157.407 388.899 154.859 388.899C151.233 388.899 148.108 388.095 145.487 386.486C142.865 384.877 140.847 382.622 139.434 379.723C138.021 376.823 137.315 373.446 137.315 369.591C137.315 365.736 138.021 362.334 139.434 359.385C140.847 356.437 142.824 354.134 145.364 352.476C147.904 350.818 150.873 349.989 154.271 349.989C156.231 349.989 158.167 350.315 160.078 350.969C161.989 351.622 163.729 352.68 165.297 354.142C166.865 355.604 168.115 357.535 169.046 359.937C169.977 362.338 170.443 365.295 170.443 368.807V371.257H143.11ZM176.9 388.115V350.479H182.486V356.359H182.976C183.76 354.35 185.026 352.786 186.774 351.667C188.522 350.548 190.621 349.989 193.071 349.989C195.554 349.989 197.625 350.548 199.283 351.667C200.941 352.786 202.235 354.35 203.167 356.359H203.559C204.522 354.415 205.968 352.868 207.896 351.716C209.823 350.564 212.135 349.989 214.83 349.989C218.195 349.989 220.947 351.038 223.087 353.137C225.227 355.236 226.297 358.499 226.297 362.926V388.115H220.515V362.926C220.515 360.149 219.755 358.164 218.236 356.972C216.717 355.779 214.928 355.183 212.87 355.183C210.223 355.183 208.173 355.979 206.719 357.572C205.266 359.165 204.539 361.178 204.539 363.612V388.115H198.658V362.338C198.658 360.198 197.964 358.471 196.575 357.156C195.187 355.841 193.398 355.183 191.209 355.183C189.706 355.183 188.306 355.583 187.007 356.384C185.708 357.184 184.663 358.291 183.871 359.704C183.078 361.117 182.682 362.746 182.682 364.592V388.115H176.9ZM261.177 358.908L255.983 360.378C255.656 359.512 255.178 358.667 254.549 357.842C253.92 357.017 253.067 356.335 251.989 355.796C250.911 355.257 249.53 354.987 247.848 354.987C245.544 354.987 243.629 355.514 242.102 356.568C240.574 357.621 239.811 358.957 239.811 360.574C239.811 362.011 240.334 363.147 241.379 363.98C242.424 364.813 244.058 365.507 246.28 366.062L251.866 367.435C255.231 368.251 257.739 369.497 259.389 371.171C261.038 372.846 261.863 374.998 261.863 377.628C261.863 379.784 261.247 381.712 260.013 383.41C258.78 385.109 257.061 386.449 254.856 387.429C252.65 388.409 250.086 388.899 247.162 388.899C243.323 388.899 240.146 388.066 237.63 386.4C235.114 384.734 233.522 382.3 232.852 379.098L238.341 377.726C238.863 379.751 239.856 381.271 241.318 382.283C242.78 383.296 244.695 383.802 247.064 383.802C249.759 383.802 251.903 383.227 253.496 382.075C255.088 380.923 255.885 379.539 255.885 377.922C255.885 376.615 255.427 375.516 254.513 374.626C253.598 373.736 252.193 373.07 250.298 372.629L244.025 371.159C240.579 370.342 238.051 369.072 236.442 367.349C234.833 365.625 234.028 363.465 234.028 360.868C234.028 358.744 234.628 356.866 235.829 355.232C237.03 353.599 238.671 352.316 240.754 351.385C242.837 350.454 245.201 349.989 247.848 349.989C251.572 349.989 254.5 350.805 256.632 352.439C258.764 354.072 260.279 356.229 261.177 358.908Z" fill="white"/>
</svg>
