<svg width="344" height="404" viewBox="0 0 344 404" fill="none" xmlns="http://www.w3.org/2000/svg">
<path d="M17.8632 95.5423V59.4577C17.8632 27.4735 17.8632 21.7328 17.4526 15.172C17.0419 8.20106 15.3993 4.92063 8.62361 3.48545C6.98102 3.0754 3.49051 2.87037 1.64259 2.87037C0.821296 2.87037 0 2.46032 0 1.64021C0 0.410053 1.02662 0 3.28519 0C12.5248 0 24.8442 0.61508 26.4868 0.61508C31.0039 0.61508 42.9127 0 52.3577 0C78.0232 0 87.2627 8.61111 90.5479 11.6865C95.0651 15.9921 100.814 25.2183 100.814 38.545C100.814 65.1984 79.4604 84.881 50.3044 84.881C49.2778 84.881 47.0192 84.881 45.9926 84.6759C44.966 84.6759 43.734 84.2659 43.734 83.2407C43.734 81.6005 44.966 81.3955 49.2778 81.3955C69.1942 81.3955 84.7989 67.8638 84.7989 46.336C84.7989 41.2103 84.1829 27.4735 73.3007 16.4021C62.4185 5.33069 49.8938 6.15079 45.1713 6.15079C41.6808 6.15079 38.1903 6.56085 36.3424 7.38095C35.1104 7.791 34.6998 9.22619 34.6998 11.2765V95.5423C34.6998 115.225 34.6998 131.422 35.7264 140.033C36.3424 145.979 37.5743 150.489 43.734 151.31C46.6086 151.72 51.1257 152.13 52.9736 152.13C54.2056 152.13 54.6162 152.745 54.6162 153.36C54.6162 154.385 53.5896 155 51.331 155C40.0382 155 27.1028 154.385 26.0762 154.385C25.4602 154.385 12.5248 155 6.36505 155C4.10648 155 3.07986 154.59 3.07986 153.36C3.07986 152.745 3.49051 152.13 4.72245 152.13C6.57037 152.13 9.03426 151.72 10.8822 151.31C14.9887 150.489 16.0153 145.979 16.8366 140.033C17.8632 131.422 17.8632 115.225 17.8632 95.5423ZM135.658 59.4577V72.5794C142.023 66.4286 169.947 37.1098 182.472 24.1931C194.791 11.4815 195.612 9.43122 195.612 6.9709C195.612 5.33069 194.586 3.69048 192.943 3.0754C191.506 2.46032 191.095 2.05026 191.095 1.23016C191.095 0.410053 192.327 0 194.175 0C200.129 0 199.513 0.61508 206.494 0.61508C212.86 0.61508 224.974 0 228.259 0C231.133 0 231.749 0.615079 231.749 1.43519C231.749 2.25529 231.339 2.66534 229.491 2.87037C225.59 3.28042 221.894 4.10053 219.019 5.33069C213.886 7.38095 209.985 9.84127 197.666 21.7328C179.597 39.1601 156.19 62.328 150.852 68.2738C163.787 82.4206 201.156 120.351 210.806 129.372C227.643 145.159 234.829 149.669 244.685 151.515C246.533 151.925 248.586 152.13 250.639 152.13C252.282 152.13 253.514 152.54 253.514 153.565C253.514 154.59 252.692 155 250.434 155H235.24C217.377 155 212.654 152.745 203.004 145.159C190.685 135.522 153.726 95.9524 135.658 74.4246V95.5423C135.658 115.225 135.658 131.422 136.684 140.033C137.3 145.979 138.532 150.489 144.692 151.31C147.566 151.72 151.673 152.13 152.905 152.13C154.753 152.13 155.369 152.95 155.369 153.565C155.369 154.59 154.547 155 152.289 155C140.996 155 128.061 154.385 127.034 154.385C126.007 154.385 113.893 155 107.734 155C105.475 155 104.448 154.795 104.448 153.565C104.448 152.95 104.859 152.13 106.707 152.13C107.939 152.13 110.197 151.925 112.045 151.515C116.152 150.694 117.384 145.979 118.205 140.033C119.232 131.422 119.232 115.225 119.232 95.5423V59.4577C119.232 27.4735 119.232 21.7328 118.821 15.172C118.41 8.20106 116.357 4.71561 111.84 3.69048C109.581 3.0754 105.886 2.87037 104.448 2.87037C102.806 2.87037 102.19 2.46032 102.19 1.64021C102.19 0.410053 103.216 0 105.475 0C112.251 0 126.007 0.61508 127.034 0.61508C128.061 0.61508 140.996 0 147.156 0C149.414 0 150.441 0.410053 150.441 1.43519C150.441 2.25529 150.03 2.66534 148.182 2.87037C145.924 3.0754 145.719 3.0754 143.665 3.28042C138.122 3.8955 136.479 7.99603 136.068 15.172C135.658 21.7328 135.658 27.4735 135.658 59.4577ZM261.049 95.5423V59.4577C261.049 27.4735 261.049 21.7328 260.638 15.172C260.228 8.20106 258.585 4.92063 251.809 3.48545C250.167 3.0754 246.676 2.87037 244.828 2.87037C244.007 2.87037 243.186 2.46032 243.186 1.64021C243.186 0.410053 244.213 0 246.471 0C255.711 0 268.03 0.61508 269.673 0.61508C274.19 0.61508 286.099 0 295.544 0C321.209 0 330.449 8.61111 333.734 11.6865C338.251 15.9921 344 25.2183 344 38.545C344 65.1984 322.646 84.881 293.49 84.881C292.464 84.881 290.205 84.881 289.178 84.6759C288.152 84.6759 286.92 84.2659 286.92 83.2407C286.92 81.6005 288.152 81.3955 292.464 81.3955C312.38 81.3955 327.985 67.8638 327.985 46.336C327.985 41.2103 327.369 27.4735 316.487 16.4021C305.604 5.33069 293.08 6.15079 288.357 6.15079C284.867 6.15079 281.376 6.56085 279.528 7.38095C278.296 7.791 277.886 9.22619 277.886 11.2765V95.5423C277.886 115.225 277.886 131.422 278.912 140.033C279.528 145.979 280.76 150.489 286.92 151.31C289.794 151.72 294.312 152.13 296.159 152.13C297.391 152.13 297.802 152.745 297.802 153.36C297.802 154.385 296.775 155 294.517 155C283.224 155 270.289 154.385 269.262 154.385C268.646 154.385 255.711 155 249.551 155C247.292 155 246.266 154.59 246.266 153.36C246.266 152.745 246.676 152.13 247.908 152.13C249.756 152.13 252.22 151.72 254.068 151.31C258.175 150.489 259.201 145.979 260.022 140.033C261.049 131.422 261.049 115.225 261.049 95.5423Z" fill="white"/>
<path d="M8.99223 233.278H19.7735C22.4688 233.278 24.6332 232.813 26.2667 231.882C27.9003 230.951 29.0886 229.689 29.8319 228.096C30.5752 226.503 30.9468 224.702 30.9468 222.693C30.9468 220.684 30.5752 218.887 29.8319 217.302C29.0886 215.718 27.8921 214.472 26.2422 213.566C24.5924 212.659 22.4035 212.206 19.6755 212.206H8.99223V233.278ZM8.99223 238.669V256.997H2.91553V206.815H19.8715C23.8083 206.815 27.0304 207.522 29.5379 208.935C32.0453 210.348 33.9034 212.255 35.1123 214.656C36.3211 217.057 36.9255 219.736 36.9255 222.693C36.9255 225.65 36.3252 228.337 35.1245 230.755C33.9239 233.172 32.0739 235.096 29.5746 236.525C27.0753 237.954 23.8736 238.669 19.9695 238.669H8.99223ZM67.297 241.609V219.361H73.0797V256.997H67.297V250.626H66.905C66.0228 252.538 64.6507 254.159 62.7885 255.49C60.9263 256.821 58.574 257.487 55.7317 257.487C53.3794 257.487 51.2885 256.968 49.4589 255.931C47.6294 254.894 46.1919 253.326 45.1464 251.227C44.101 249.128 43.5783 246.477 43.5783 243.275V219.361H49.3609V242.883C49.3609 245.628 50.1328 247.817 51.6764 249.45C53.2201 251.084 55.1926 251.9 57.5939 251.9C59.0314 251.9 60.4975 251.533 61.9921 250.798C63.4868 250.063 64.7446 248.936 65.7656 247.416C66.7865 245.897 67.297 243.962 67.297 241.609ZM82.0847 256.997V206.815H87.8674V225.339H88.3575C88.7822 224.686 89.3743 223.849 90.1339 222.828C90.8935 221.807 91.988 220.892 93.4173 220.084C94.8466 219.275 96.7864 218.871 99.2367 218.871C102.406 218.871 105.199 219.663 107.617 221.247C110.034 222.832 111.921 225.078 113.277 227.986C114.633 230.893 115.311 234.324 115.311 238.277C115.311 242.263 114.633 245.713 113.277 248.629C111.921 251.545 110.042 253.799 107.641 255.392C105.24 256.985 102.471 257.781 99.3347 257.781C96.9171 257.781 94.9814 257.377 93.5275 256.568C92.0737 255.76 90.9548 254.837 90.1707 253.799C89.3866 252.762 88.7822 251.9 88.3575 251.214H87.6714V256.997H82.0847ZM87.7694 238.179C87.7694 241.021 88.1859 243.525 89.019 245.689C89.8521 247.853 91.0691 249.544 92.67 250.761C94.2708 251.978 96.231 252.587 98.5506 252.587C100.968 252.587 102.99 251.945 104.615 250.663C106.24 249.381 107.466 247.649 108.291 245.468C109.115 243.288 109.528 240.858 109.528 238.179C109.528 235.533 109.124 233.144 108.315 231.012C107.506 228.88 106.289 227.189 104.664 225.94C103.039 224.69 101.001 224.065 98.5506 224.065C96.1983 224.065 94.2218 224.657 92.6209 225.842C91.0201 227.026 89.8113 228.676 88.9945 230.791C88.1778 232.907 87.7694 235.369 87.7694 238.179ZM127.55 206.815V256.997H121.767V206.815H127.55ZM135.771 256.997V219.361H141.554V256.997H135.771ZM138.711 213.088C137.584 213.088 136.616 212.704 135.808 211.936C134.999 211.169 134.595 210.246 134.595 209.168C134.595 208.089 134.999 207.166 135.808 206.399C136.616 205.631 137.584 205.247 138.711 205.247C139.838 205.247 140.806 205.631 141.615 206.399C142.423 207.166 142.828 208.089 142.828 209.168C142.828 210.246 142.423 211.169 141.615 211.936C140.806 212.704 139.838 213.088 138.711 213.088ZM165.064 257.781C161.536 257.781 158.498 256.948 155.949 255.282C153.401 253.616 151.441 251.321 150.069 248.397C148.696 245.473 148.01 242.132 148.01 238.375C148.01 234.552 148.717 231.175 150.13 228.243C151.543 225.311 153.519 223.016 156.06 221.358C158.6 219.7 161.569 218.871 164.966 218.871C167.613 218.871 169.998 219.361 172.121 220.341C174.245 221.321 175.984 222.693 177.34 224.457C178.696 226.222 179.537 228.28 179.864 230.632H174.081C173.64 228.917 172.664 227.394 171.153 226.062C169.642 224.731 167.613 224.065 165.064 224.065C162.81 224.065 160.838 224.649 159.147 225.817C157.456 226.985 156.141 228.627 155.202 230.742C154.263 232.858 153.793 235.337 153.793 238.179C153.793 241.087 154.255 243.619 155.177 245.775C156.1 247.931 157.407 249.605 159.098 250.798C160.789 251.99 162.777 252.587 165.064 252.587C166.567 252.587 167.931 252.325 169.156 251.802C170.381 251.28 171.419 250.528 172.268 249.548C173.118 248.568 173.722 247.392 174.081 246.02H179.864C179.537 248.241 178.733 250.238 177.451 252.011C176.168 253.783 174.478 255.188 172.378 256.225C170.279 257.263 167.841 257.781 165.064 257.781ZM2.91553 322.997V272.815H8.99223V297.71H9.5803L32.1229 272.815H40.0618L18.9894 295.456L40.0618 322.997H32.711L15.265 299.67L8.99223 306.727V322.997H2.91553ZM50.5371 300.356V322.997H44.7544V285.361H50.341V291.241H50.8311C51.7132 289.33 53.0527 287.791 54.8496 286.623C56.6464 285.455 58.966 284.871 61.8084 284.871C64.3567 284.871 66.5864 285.389 68.4976 286.427C70.4089 287.464 71.8954 289.032 72.9572 291.131C74.019 293.23 74.5498 295.881 74.5498 299.082V322.997H68.7672V299.474C68.7672 296.518 67.9994 294.21 66.4639 292.552C64.9284 290.894 62.8212 290.065 60.1422 290.065C58.2963 290.065 56.6505 290.465 55.2048 291.266C53.7592 292.066 52.6198 293.234 51.7867 294.77C50.9536 296.305 50.5371 298.168 50.5371 300.356ZM98.0606 323.781C94.6628 323.781 91.6858 322.973 89.1293 321.355C86.5728 319.738 84.5799 317.476 83.1506 314.568C81.7213 311.66 81.0066 308.263 81.0066 304.375C81.0066 300.454 81.7213 297.032 83.1506 294.108C84.5799 291.184 86.5728 288.914 89.1293 287.296C91.6858 285.679 94.6628 284.871 98.0606 284.871C101.458 284.871 104.435 285.679 106.992 287.296C109.548 288.914 111.541 291.184 112.971 294.108C114.4 297.032 115.115 300.454 115.115 304.375C115.115 308.263 114.4 311.66 112.971 314.568C111.541 317.476 109.548 319.738 106.992 321.355C104.435 322.973 101.458 323.781 98.0606 323.781ZM98.0606 318.587C100.642 318.587 102.765 317.925 104.431 316.602C106.098 315.279 107.331 313.539 108.131 311.383C108.932 309.226 109.332 306.891 109.332 304.375C109.332 301.859 108.932 299.515 108.131 297.343C107.331 295.17 106.098 293.414 104.431 292.074C102.765 290.735 100.642 290.065 98.0606 290.065C95.4796 290.065 93.356 290.735 91.6898 292.074C90.0236 293.414 88.7903 295.17 87.9899 297.343C87.1895 299.515 86.7893 301.859 86.7893 304.375C86.7893 306.891 87.1895 309.226 87.9899 311.383C88.7903 313.539 90.0236 315.279 91.6898 316.602C93.356 317.925 95.4796 318.587 98.0606 318.587ZM128.824 322.997L117.357 285.361H123.434L131.568 314.176H131.961L139.997 285.361H146.172L154.111 314.078H154.503L162.638 285.361H168.715L157.247 322.997H151.563L143.33 294.084H142.742L134.509 322.997H128.824ZM179.778 272.815V322.997H173.995V272.815H179.778ZM192.045 301.141H213.482C213.482 299.017 213.061 297.122 212.22 295.456C211.379 293.79 210.186 292.475 208.643 291.511C207.099 290.547 205.282 290.065 203.191 290.065C200.888 290.065 198.899 290.633 197.224 291.768C195.55 292.903 194.264 294.378 193.365 296.191C192.595 297.745 192.155 299.395 192.045 301.141ZM192.03 306.139C192.114 308.642 192.604 310.786 193.5 312.571C194.488 314.54 195.864 316.034 197.629 317.055C199.393 318.076 201.443 318.587 203.779 318.587C205.298 318.587 206.674 318.37 207.908 317.937C209.141 317.504 210.207 316.851 211.105 315.977C212.004 315.103 212.698 314.013 213.188 312.706L218.775 314.274C218.187 316.169 217.198 317.831 215.81 319.26C214.421 320.69 212.706 321.801 210.664 322.593C208.622 323.385 206.327 323.781 203.779 323.781C200.152 323.781 197.028 322.977 194.407 321.368C191.785 319.759 189.767 317.504 188.354 314.605C186.941 311.705 186.235 308.328 186.235 304.473C186.235 300.618 186.941 297.216 188.354 294.267C189.767 291.319 191.744 289.016 194.284 287.358C196.824 285.7 199.793 284.871 203.191 284.871C205.151 284.871 207.087 285.197 208.998 285.851C210.909 286.504 212.649 287.562 214.217 289.024C215.785 290.486 217.035 292.417 217.966 294.819C218.897 297.22 219.363 300.177 219.363 303.689V306.139H192.03ZM240.031 323.781C236.895 323.781 234.126 322.985 231.725 321.392C229.323 319.799 227.445 317.545 226.089 314.629C224.733 311.713 224.055 308.263 224.055 304.277C224.055 300.324 224.733 296.893 226.089 293.986C227.445 291.078 229.331 288.832 231.749 287.247C234.167 285.663 236.96 284.871 240.129 284.871C242.579 284.871 244.519 285.275 245.949 286.084C247.378 286.892 248.472 287.807 249.232 288.828C249.991 289.849 250.584 290.686 251.008 291.339H251.498V272.815H257.281V322.997H251.694V317.214H251.008C250.584 317.9 249.979 318.762 249.195 319.799C248.411 320.837 247.292 321.76 245.838 322.568C244.384 323.377 242.449 323.781 240.031 323.781ZM240.815 318.587C243.135 318.587 245.095 317.978 246.696 316.761C248.297 315.544 249.514 313.853 250.347 311.689C251.18 309.525 251.596 307.021 251.596 304.179C251.596 301.369 251.188 298.907 250.371 296.791C249.555 294.676 248.346 293.026 246.745 291.842C245.144 290.657 243.167 290.065 240.815 290.065C238.365 290.065 236.327 290.69 234.702 291.94C233.076 293.189 231.859 294.88 231.051 297.012C230.242 299.144 229.838 301.533 229.838 304.179C229.838 306.858 230.25 309.288 231.075 311.468C231.9 313.649 233.125 315.381 234.751 316.663C236.376 317.945 238.398 318.587 240.815 318.587ZM281.478 337.895C278.685 337.895 276.283 337.54 274.274 336.829C272.265 336.118 270.595 335.187 269.263 334.036C267.932 332.884 266.874 331.655 266.09 330.348L270.697 327.114C271.219 327.8 271.881 328.588 272.681 329.478C273.482 330.368 274.58 331.144 275.977 331.806C277.374 332.467 279.207 332.798 281.478 332.798C284.516 332.798 287.024 332.063 289 330.593C290.977 329.123 291.965 326.82 291.965 323.683V316.038H291.475C291.05 316.724 290.45 317.57 289.674 318.574C288.898 319.579 287.787 320.469 286.342 321.245C284.896 322.021 282.948 322.409 280.498 322.409C277.459 322.409 274.736 321.69 272.326 320.253C269.917 318.815 268.014 316.724 266.617 313.98C265.22 311.236 264.522 307.903 264.522 303.983C264.522 300.128 265.2 296.767 266.556 293.9C267.911 291.033 269.798 288.812 272.216 287.235C274.633 285.659 277.427 284.871 280.596 284.871C283.046 284.871 284.994 285.275 286.44 286.084C287.885 286.892 288.996 287.807 289.772 288.828C290.548 289.849 291.148 290.686 291.573 291.339H292.161V285.361H297.748V324.075C297.748 327.31 297.017 329.944 295.555 331.977C294.093 334.011 292.133 335.506 289.674 336.461C287.216 337.417 284.484 337.895 281.478 337.895ZM281.282 317.214C283.602 317.214 285.562 316.684 287.163 315.622C288.763 314.56 289.98 313.033 290.813 311.04C291.647 309.047 292.063 306.662 292.063 303.885C292.063 301.173 291.655 298.78 290.838 296.706C290.021 294.631 288.812 293.006 287.212 291.829C285.611 290.653 283.634 290.065 281.282 290.065C278.832 290.065 276.794 290.686 275.168 291.927C273.543 293.169 272.326 294.835 271.517 296.926C270.709 299.017 270.305 301.337 270.305 303.885C270.305 306.499 270.717 308.806 271.542 310.807C272.367 312.808 273.592 314.376 275.217 315.511C276.843 316.647 278.864 317.214 281.282 317.214ZM310.015 301.141H331.452C331.452 299.017 331.031 297.122 330.19 295.456C329.349 293.79 328.156 292.475 326.612 291.511C325.069 290.547 323.251 290.065 321.161 290.065C318.857 290.065 316.868 290.633 315.194 291.768C313.52 292.903 312.233 294.378 311.335 296.191C310.565 297.745 310.125 299.395 310.015 301.141ZM310 306.139C310.084 308.642 310.574 310.786 311.47 312.571C312.458 314.54 313.834 316.034 315.598 317.055C317.363 318.076 319.413 318.587 321.749 318.587C323.268 318.587 324.644 318.37 325.877 317.937C327.111 317.504 328.176 316.851 329.075 315.977C329.973 315.103 330.668 314.013 331.158 312.706L336.744 314.274C336.156 316.169 335.168 317.831 333.779 319.26C332.391 320.69 330.676 321.801 328.634 322.593C326.592 323.385 324.297 323.781 321.749 323.781C318.122 323.781 314.998 322.977 312.376 321.368C309.754 319.759 307.737 317.504 306.324 314.605C304.911 311.705 304.205 308.328 304.205 304.473C304.205 300.618 304.911 297.216 306.324 294.267C307.737 291.319 309.714 289.016 312.254 287.358C314.794 285.7 317.763 284.871 321.161 284.871C323.121 284.871 325.056 285.197 326.968 285.851C328.879 286.504 330.619 287.562 332.187 289.024C333.755 290.486 335.005 292.417 335.936 294.819C336.867 297.22 337.332 300.177 337.332 303.689V306.139H310ZM8.99223 365.278H19.7735C22.4688 365.278 24.6332 364.813 26.2667 363.882C27.9003 362.951 29.0886 361.689 29.8319 360.096C30.5752 358.503 30.9468 356.702 30.9468 354.693C30.9468 352.684 30.5752 350.887 29.8319 349.302C29.0886 347.718 27.8921 346.472 26.2422 345.566C24.5924 344.659 22.4035 344.206 19.6755 344.206H8.99223V365.278ZM8.99223 370.669V388.997H2.91553V338.815H19.8715C23.8083 338.815 27.0304 339.522 29.5379 340.935C32.0453 342.348 33.9034 344.255 35.1123 346.656C36.3211 349.057 36.9255 351.736 36.9255 354.693C36.9255 357.65 36.3252 360.337 35.1245 362.755C33.9239 365.172 32.0739 367.096 29.5746 368.525C27.0753 369.954 23.8736 370.669 19.9695 370.669H8.99223ZM43.5783 388.997V351.361H49.1649V357.045H49.5569C50.243 355.183 51.4845 353.672 53.2814 352.512C55.0783 351.353 57.1038 350.773 59.3581 350.773C59.7828 350.773 60.3137 350.781 60.9508 350.797C61.5878 350.813 62.0697 350.838 62.3964 350.871V356.751C62.2004 356.702 61.7553 356.625 61.061 356.519C60.3668 356.412 59.6358 356.359 58.868 356.359C57.0385 356.359 55.409 356.739 53.9797 357.499C52.5504 358.258 51.4232 359.304 50.5983 360.635C49.7734 361.966 49.3609 363.481 49.3609 365.18V388.997H43.5783ZM81.0066 389.781C77.6089 389.781 74.6318 388.973 72.0753 387.355C69.5188 385.738 67.526 383.476 66.0966 380.568C64.6673 377.66 63.9526 374.263 63.9526 370.375C63.9526 366.454 64.6673 363.032 66.0966 360.108C67.526 357.184 69.5188 354.914 72.0753 353.296C74.6318 351.679 77.6089 350.871 81.0066 350.871C84.4043 350.871 87.3814 351.679 89.9379 353.296C92.4944 354.914 94.4872 357.184 95.9166 360.108C97.3459 363.032 98.0606 366.454 98.0606 370.375C98.0606 374.263 97.3459 377.66 95.9166 380.568C94.4872 383.476 92.4944 385.738 89.9379 387.355C87.3814 388.973 84.4043 389.781 81.0066 389.781ZM81.0066 384.587C83.5876 384.587 85.7111 383.925 87.3773 382.602C89.0435 381.279 90.2768 379.539 91.0773 377.383C91.8777 375.226 92.2779 372.891 92.2779 370.375C92.2779 367.859 91.8777 365.515 91.0773 363.343C90.2768 361.17 89.0435 359.414 87.3773 358.074C85.7111 356.735 83.5876 356.065 81.0066 356.065C78.4256 356.065 76.3021 356.735 74.6359 358.074C72.9697 359.414 71.7364 361.17 70.9359 363.343C70.1355 365.515 69.7353 367.859 69.7353 370.375C69.7353 372.891 70.1355 375.226 70.9359 377.383C71.7364 379.539 72.9697 381.279 74.6359 382.602C76.3021 383.925 78.4256 384.587 81.0066 384.587ZM104.517 351.361H110.3V391.741C110.3 394.061 109.904 396.07 109.112 397.769C108.319 399.468 107.127 400.783 105.534 401.714C103.942 402.645 101.936 403.111 99.5188 403.111H98.3426V397.72H99.4207C101.185 397.72 102.475 397.201 103.292 396.164C104.109 395.127 104.517 393.653 104.517 391.741V351.361ZM107.36 345.088C106.233 345.088 105.265 344.704 104.456 343.936C103.647 343.169 103.243 342.246 103.243 341.168C103.243 340.089 103.647 339.166 104.456 338.399C105.265 337.631 106.233 337.247 107.36 337.247C108.487 337.247 109.455 337.631 110.263 338.399C111.072 339.166 111.476 340.089 111.476 341.168C111.476 342.246 111.072 343.169 110.263 343.936C109.455 344.704 108.487 345.088 107.36 345.088ZM122.567 367.141H144.004C144.004 365.017 143.583 363.122 142.742 361.456C141.901 359.79 140.708 358.475 139.165 357.511C137.621 356.547 135.804 356.065 133.713 356.065C131.409 356.065 129.421 356.633 127.746 357.768C126.072 358.903 124.786 360.378 123.887 362.191C123.117 363.745 122.677 365.395 122.567 367.141ZM122.552 372.139C122.636 374.642 123.126 376.786 124.022 378.571C125.01 380.54 126.386 382.034 128.151 383.055C129.915 384.076 131.965 384.587 134.301 384.587C135.82 384.587 137.196 384.37 138.43 383.937C139.663 383.504 140.729 382.851 141.627 381.977C142.526 381.103 143.22 380.013 143.71 378.706L149.297 380.274C148.708 382.169 147.72 383.831 146.332 385.26C144.943 386.69 143.228 387.801 141.186 388.593C139.144 389.385 136.849 389.781 134.301 389.781C130.674 389.781 127.55 388.977 124.928 387.368C122.307 385.759 120.289 383.504 118.876 380.605C117.463 377.705 116.757 374.328 116.757 370.473C116.757 366.618 117.463 363.216 118.876 360.267C120.289 357.319 122.266 355.016 124.806 353.358C127.346 351.7 130.315 350.871 133.713 350.871C135.673 350.871 137.609 351.197 139.52 351.851C141.431 352.504 143.171 353.562 144.739 355.024C146.307 356.486 147.557 358.417 148.488 360.819C149.419 363.22 149.885 366.177 149.885 369.689V372.139H122.552ZM171.631 389.781C168.103 389.781 165.064 388.948 162.516 387.282C159.968 385.616 158.008 383.321 156.635 380.397C155.263 377.473 154.577 374.132 154.577 370.375C154.577 366.552 155.284 363.175 156.697 360.243C158.11 357.311 160.086 355.016 162.626 353.358C165.166 351.7 168.135 350.871 171.533 350.871C174.179 350.871 176.564 351.361 178.688 352.341C180.812 353.321 182.551 354.693 183.907 356.457C185.263 358.222 186.104 360.28 186.431 362.632H180.648C180.207 360.917 179.231 359.394 177.72 358.062C176.209 356.731 174.179 356.065 171.631 356.065C169.377 356.065 167.404 356.649 165.714 357.817C164.023 358.985 162.708 360.627 161.769 362.742C160.829 364.858 160.36 367.337 160.36 370.179C160.36 373.087 160.821 375.618 161.744 377.775C162.667 379.931 163.974 381.605 165.665 382.798C167.355 383.99 169.344 384.587 171.631 384.587C173.134 384.587 174.498 384.325 175.723 383.802C176.948 383.28 177.986 382.528 178.835 381.548C179.684 380.568 180.289 379.392 180.648 378.02H186.431C186.104 380.241 185.3 382.238 184.017 384.011C182.735 385.783 181.044 387.188 178.945 388.225C176.846 389.263 174.408 389.781 171.631 389.781ZM208.863 351.361V356.261H189.359V351.361H208.863ZM195.044 342.344H200.827V378.216C200.827 379.849 201.067 381.07 201.549 381.879C202.031 382.688 202.652 383.227 203.412 383.496C204.171 383.766 204.976 383.9 205.825 383.9C206.462 383.9 206.985 383.864 207.393 383.79C207.802 383.717 208.128 383.655 208.373 383.606L209.55 388.801C209.158 388.948 208.61 389.099 207.908 389.254C207.205 389.41 206.315 389.487 205.237 389.487C203.604 389.487 202.007 389.136 200.447 388.434C198.887 387.731 197.596 386.661 196.575 385.224C195.554 383.786 195.044 381.973 195.044 379.784V342.344Z" fill="white"/>
</svg>
