<svg width="682" height="165" viewBox="0 0 682 165" fill="none" xmlns="http://www.w3.org/2000/svg">
<path d="M18.9881 101.706V63.2936C18.9881 29.246 18.9881 23.1349 18.5516 16.1508C18.1151 8.73016 16.369 5.2381 9.16667 3.71032C7.42064 3.27381 3.71032 3.05556 1.74603 3.05556C0.873016 3.05556 0 2.61905 0 1.74603C0 0.436508 1.09127 0 3.49206 0C13.3135 0 26.4087 0.654762 28.1548 0.654762C32.9563 0.654762 45.6151 0 55.6548 0C82.9365 0 92.7579 9.16667 96.25 12.4405C101.052 17.0238 107.163 26.8452 107.163 41.0317C107.163 69.4048 84.4643 90.3571 53.4722 90.3571C52.381 90.3571 49.9802 90.3571 48.8889 90.1389C47.7976 90.1389 46.4881 89.7024 46.4881 88.6111C46.4881 86.8651 47.7976 86.6468 52.381 86.6468C73.5516 86.6468 90.1389 72.2421 90.1389 49.3254C90.1389 43.869 89.4841 29.246 77.9167 17.4603C66.3492 5.6746 53.0357 6.54762 48.0159 6.54762C44.3056 6.54762 40.5952 6.98413 38.631 7.85714C37.3214 8.29365 36.8849 9.82143 36.8849 12.004V101.706C36.8849 122.659 36.8849 139.901 37.9762 149.067C38.631 155.397 39.9405 160.198 46.4881 161.071C49.5436 161.508 54.3452 161.944 56.3095 161.944C57.619 161.944 58.0556 162.599 58.0556 163.254C58.0556 164.345 56.9643 165 54.5635 165C42.5595 165 28.8095 164.345 27.7183 164.345C27.0635 164.345 13.3135 165 6.76587 165C4.36508 165 3.27381 164.563 3.27381 163.254C3.27381 162.599 3.71032 161.944 5.01984 161.944C6.98413 161.944 9.60317 161.508 11.5675 161.071C15.9325 160.198 17.0238 155.397 17.8968 149.067C18.9881 139.901 18.9881 122.659 18.9881 101.706ZM144.2 63.2936V77.2619C150.966 70.7143 180.649 39.504 193.962 25.754C207.058 12.2222 207.931 10.0397 207.931 7.42064C207.931 5.6746 206.839 3.92857 205.093 3.27381C203.565 2.61905 203.129 2.18254 203.129 1.30952C203.129 0.436508 204.438 0 206.403 0C212.732 0 212.077 0.654762 219.498 0.654762C226.264 0.654762 239.141 0 242.633 0C245.688 0 246.343 0.654762 246.343 1.52778C246.343 2.40079 245.907 2.8373 243.942 3.05556C239.796 3.49206 235.867 4.36508 232.812 5.6746C227.355 7.85714 223.208 10.4762 210.113 23.1349C190.907 41.6865 166.026 66.3492 160.351 72.6786C174.101 87.7381 213.823 128.115 224.081 137.718C241.978 154.524 249.617 159.325 260.093 161.29C262.058 161.726 264.24 161.944 266.423 161.944C268.169 161.944 269.478 162.381 269.478 163.472C269.478 164.563 268.605 165 266.204 165H250.054C231.065 165 226.046 162.599 215.788 154.524C202.692 144.266 163.407 102.143 144.2 79.2262V101.706C144.2 122.659 144.2 139.901 145.292 149.067C145.946 155.397 147.256 160.198 153.804 161.071C156.859 161.508 161.224 161.944 162.534 161.944C164.498 161.944 165.153 162.817 165.153 163.472C165.153 164.563 164.28 165 161.879 165C149.875 165 136.125 164.345 135.034 164.345C133.942 164.345 121.065 165 114.518 165C112.117 165 111.026 164.782 111.026 163.472C111.026 162.817 111.462 161.944 113.427 161.944C114.736 161.944 117.137 161.726 119.101 161.29C123.466 160.417 124.776 155.397 125.649 149.067C126.74 139.901 126.74 122.659 126.74 101.706V63.2936C126.74 29.246 126.74 23.1349 126.304 16.1508C125.867 8.73016 123.685 5.01984 118.883 3.92857C116.482 3.27381 112.554 3.05556 111.026 3.05556C109.28 3.05556 108.625 2.61905 108.625 1.74603C108.625 0.436508 109.716 0 112.117 0C119.319 0 133.942 0.654762 135.034 0.654762C136.125 0.654762 149.875 0 156.423 0C158.823 0 159.915 0.436508 159.915 1.52778C159.915 2.40079 159.478 2.8373 157.514 3.05556C155.113 3.27381 154.895 3.27381 152.712 3.49206C146.819 4.14683 145.073 8.5119 144.637 16.1508C144.2 23.1349 144.2 29.246 144.2 63.2936ZM277.488 101.706V63.2936C277.488 29.246 277.488 23.1349 277.052 16.1508C276.615 8.73016 274.869 5.2381 267.667 3.71032C265.921 3.27381 262.21 3.05556 260.246 3.05556C259.373 3.05556 258.5 2.61905 258.5 1.74603C258.5 0.436508 259.591 0 261.992 0C271.813 0 284.909 0.654762 286.655 0.654762C291.456 0.654762 304.115 0 314.155 0C341.437 0 351.258 9.16667 354.75 12.4405C359.552 17.0238 365.663 26.8452 365.663 41.0317C365.663 69.4048 342.964 90.3571 311.972 90.3571C310.881 90.3571 308.48 90.3571 307.389 90.1389C306.298 90.1389 304.988 89.7024 304.988 88.6111C304.988 86.8651 306.298 86.6468 310.881 86.6468C332.052 86.6468 348.639 72.2421 348.639 49.3254C348.639 43.869 347.984 29.246 336.417 17.4603C324.849 5.6746 311.536 6.54762 306.516 6.54762C302.806 6.54762 299.095 6.98413 297.131 7.85714C295.821 8.29365 295.385 9.82143 295.385 12.004V101.706C295.385 122.659 295.385 139.901 296.476 149.067C297.131 155.397 298.44 160.198 304.988 161.071C308.044 161.508 312.845 161.944 314.81 161.944C316.119 161.944 316.556 162.599 316.556 163.254C316.556 164.345 315.464 165 313.064 165C301.06 165 287.31 164.345 286.218 164.345C285.563 164.345 271.813 165 265.266 165C262.865 165 261.774 164.563 261.774 163.254C261.774 162.599 262.21 161.944 263.52 161.944C265.484 161.944 268.103 161.508 270.067 161.071C274.433 160.198 275.524 155.397 276.397 149.067C277.488 139.901 277.488 122.659 277.488 101.706Z" fill="#272522"/>
<path d="M413.177 22.9421H422.001C424.207 22.9421 425.978 22.5611 427.315 21.799C428.652 21.0369 429.625 20.0041 430.233 18.7006C430.841 17.3971 431.146 15.9231 431.146 14.2786C431.146 12.6342 430.841 11.1636 430.233 9.8667C429.625 8.56985 428.645 7.55044 427.295 6.80843C425.945 6.06641 424.153 5.69541 421.921 5.69541H413.177V22.9421ZM413.177 27.354V42.3546H408.203V1.28347H422.081C425.303 1.28347 427.94 1.8617 429.992 3.01817C432.045 4.17464 433.565 5.73551 434.555 7.70084C435.544 9.66617 436.039 11.8587 436.039 14.2786C436.039 16.6985 435.547 18.8978 434.565 20.8765C433.582 22.8552 432.068 24.4294 430.023 25.5993C427.977 26.7691 425.357 27.354 422.161 27.354H413.177ZM460.896 29.7605V11.5513H465.629V42.3546H460.896V37.1405H460.575C459.853 38.7048 458.73 40.0317 457.206 41.1213C455.682 42.2109 453.757 42.7557 451.431 42.7557C449.505 42.7557 447.794 42.3312 446.297 41.4823C444.799 40.6333 443.623 39.3498 442.767 37.6318C441.912 35.9139 441.484 33.7447 441.484 31.1242V11.5513H446.217V30.8034C446.217 33.0495 446.848 34.841 448.112 36.1779C449.375 37.5149 450.989 38.1833 452.955 38.1833C454.131 38.1833 455.331 37.8825 456.555 37.2809C457.778 36.6793 458.807 35.7568 459.643 34.5134C460.479 33.27 460.896 31.6858 460.896 29.7605ZM472.999 42.3546V1.28347H477.732V16.4445H478.133C478.481 15.9097 478.965 15.2245 479.587 14.3889C480.209 13.5533 481.105 12.8047 482.274 12.1429C483.444 11.4811 485.032 11.1502 487.037 11.1502C489.631 11.1502 491.917 11.7986 493.896 13.0954C495.875 14.3923 497.419 16.2306 498.528 18.6104C499.638 20.9902 500.193 23.7977 500.193 27.0332C500.193 30.2953 499.638 33.1196 498.528 35.5061C497.419 37.8926 495.881 39.7375 493.916 41.0411C491.951 42.3446 489.684 42.9964 487.117 42.9964C485.139 42.9964 483.554 42.6655 482.365 42.0037C481.175 41.3419 480.259 40.5865 479.617 39.7375C478.975 38.8886 478.481 38.1833 478.133 37.6218H477.572V42.3546H472.999ZM477.652 26.9529C477.652 29.2793 477.993 31.3281 478.675 33.0996C479.356 34.871 480.353 36.2548 481.663 37.2508C482.973 38.2468 484.577 38.7449 486.476 38.7449C488.454 38.7449 490.109 38.2201 491.439 37.1706C492.769 36.1211 493.772 34.7039 494.447 32.9191C495.122 31.1343 495.46 29.1456 495.46 26.9529C495.46 24.7871 495.129 22.8318 494.467 21.0871C493.806 19.3423 492.81 17.9586 491.479 16.9358C490.149 15.9131 488.481 15.4017 486.476 15.4017C484.551 15.4017 482.933 15.8863 481.623 16.8556C480.312 17.8249 479.323 19.1752 478.655 20.9066C477.986 22.6379 477.652 24.6534 477.652 26.9529ZM510.21 1.28347V42.3546H505.477V1.28347H510.21ZM516.939 42.3546V11.5513H521.671V42.3546H516.939ZM519.345 6.41737C518.423 6.41737 517.63 6.10319 516.969 5.47482C516.307 4.84645 515.976 4.09108 515.976 3.20868C515.976 2.32629 516.307 1.57092 516.969 0.942551C517.63 0.31418 518.423 0 519.345 0C520.268 0 521.06 0.31418 521.722 0.942551C522.383 1.57092 522.714 2.32629 522.714 3.20868C522.714 4.09108 522.383 4.84645 521.722 5.47482C521.06 6.10319 520.268 6.41737 519.345 6.41737ZM540.914 42.9964C538.026 42.9964 535.539 42.3145 533.454 40.9508C531.368 39.5871 529.764 37.7087 528.641 35.3156C527.517 32.9224 526.956 30.1884 526.956 27.1134C526.956 23.9849 527.534 21.2208 528.691 18.8209C529.847 16.4211 531.465 14.5427 533.544 13.1857C535.623 11.8287 538.053 11.1502 540.833 11.1502C542.999 11.1502 544.951 11.5513 546.689 12.3534C548.427 13.1556 549.851 14.2786 550.961 15.7226C552.071 17.1665 552.759 18.851 553.026 20.7762H548.294C547.933 19.3724 547.134 18.1257 545.897 17.0361C544.661 15.9465 542.999 15.4017 540.914 15.4017C539.069 15.4017 537.454 15.8796 536.071 16.8356C534.687 17.7915 533.611 19.1351 532.842 20.8665C532.073 22.5978 531.689 24.6266 531.689 26.9529C531.689 29.3327 532.066 31.405 532.822 33.1698C533.577 34.9346 534.647 36.3049 536.031 37.2809C537.414 38.2569 539.042 38.7449 540.914 38.7449C542.144 38.7449 543.26 38.5309 544.263 38.1031C545.265 37.6753 546.114 37.0603 546.81 36.2581C547.505 35.456 548 34.4934 548.294 33.3703H553.026C552.759 35.1886 552.101 36.823 551.051 38.2736C550.002 39.7242 548.618 40.874 546.9 41.7229C545.182 42.5719 543.187 42.9964 540.914 42.9964ZM408.203 97.9017V56.8305H413.177V77.2057H413.658L432.108 56.8305H438.606L421.359 75.3607L438.606 97.9017H432.589L418.311 78.81L413.177 84.5856V97.9017H408.203ZM447.179 79.3715V97.9017H442.446V67.0983H447.019V71.9113H447.42C448.142 70.3471 449.238 69.087 450.709 68.1311C452.179 67.1752 454.078 66.6972 456.404 66.6972C458.49 66.6972 460.315 67.1217 461.879 67.9707C463.443 68.8196 464.66 70.1031 465.529 71.8211C466.398 73.5391 466.832 75.7083 466.832 78.3287V97.9017H462.1V78.6496C462.1 76.2297 461.471 74.3413 460.214 72.9842C458.958 71.6272 457.233 70.9487 455.04 70.9487C453.53 70.9487 452.183 71.2763 451 71.9314C449.816 72.5865 448.884 73.5424 448.202 74.7992C447.52 76.0559 447.179 77.58 447.179 79.3715ZM486.075 98.5434C483.294 98.5434 480.857 97.8816 478.765 96.558C476.673 95.2345 475.041 93.3828 473.872 91.003C472.702 88.6232 472.117 85.8424 472.117 82.6604C472.117 79.4517 472.702 76.6508 473.872 74.2577C475.041 71.8645 476.673 70.0062 478.765 68.6826C480.857 67.359 483.294 66.6972 486.075 66.6972C488.856 66.6972 491.292 67.359 493.384 68.6826C495.477 70.0062 497.108 71.8645 498.278 74.2577C499.448 76.6508 500.032 79.4517 500.032 82.6604C500.032 85.8424 499.448 88.6232 498.278 91.003C497.108 93.3828 495.477 95.2345 493.384 96.558C491.292 97.8816 488.856 98.5434 486.075 98.5434ZM486.075 94.2919C488.187 94.2919 489.925 93.7505 491.289 92.6675C492.652 91.5846 493.662 90.1607 494.317 88.396C494.972 86.6312 495.3 84.7194 495.3 82.6604C495.3 80.6015 494.972 78.683 494.317 76.9049C493.662 75.1267 492.652 73.6895 491.289 72.5932C489.925 71.4969 488.187 70.9487 486.075 70.9487C483.962 70.9487 482.224 71.4969 480.861 72.5932C479.497 73.6895 478.487 75.1267 477.832 76.9049C477.177 78.683 476.85 80.6015 476.85 82.6604C476.85 84.7194 477.177 86.6312 477.832 88.396C478.487 90.1607 479.497 91.5846 480.861 92.6675C482.224 93.7505 483.962 94.2919 486.075 94.2919ZM511.253 97.9017L501.868 67.0983H506.841L513.499 90.6821H513.82L520.398 67.0983H525.451L531.949 90.6019H532.27L538.928 67.0983H543.901L534.516 97.9017H529.863L523.125 74.2376H522.644L515.906 97.9017H511.253ZM552.956 56.8305V97.9017H548.223V56.8305H552.956ZM562.996 80.0133H580.541C580.541 78.2752 580.197 76.7244 579.508 75.3607C578.82 73.997 577.844 72.9207 576.58 72.1319C575.317 71.3431 573.829 70.9487 572.118 70.9487C570.233 70.9487 568.605 71.4133 567.235 72.3425C565.865 73.2717 564.812 74.4783 564.076 75.9623C563.446 77.2341 563.086 78.5844 562.996 80.0133ZM562.984 84.1043C563.052 86.1531 563.453 87.9078 564.187 89.3686C564.996 90.9796 566.122 92.2029 567.566 93.0385C569.01 93.8741 570.688 94.2919 572.599 94.2919C573.843 94.2919 574.969 94.1148 575.979 93.7605C576.988 93.4062 577.86 92.8714 578.596 92.1561C579.331 91.4409 579.899 90.5485 580.3 89.4789L584.873 90.7624C584.391 92.3132 583.583 93.6736 582.446 94.8434C581.31 96.0132 579.906 96.9224 578.235 97.5708C576.564 98.2192 574.685 98.5434 572.599 98.5434C569.631 98.5434 567.075 97.885 564.929 96.5681C562.783 95.2512 561.132 93.4062 559.975 91.0331C558.819 88.66 558.241 85.8959 558.241 82.7407C558.241 79.5854 558.819 76.8013 559.975 74.388C561.132 71.9748 562.749 70.0898 564.828 68.7327C566.907 67.3757 569.337 66.6972 572.118 66.6972C573.723 66.6972 575.307 66.9646 576.871 67.4994C578.435 68.0342 579.859 68.8998 581.143 70.0964C582.426 71.293 583.449 72.8739 584.211 74.8393C584.973 76.8046 585.354 79.2245 585.354 82.0989V84.1043H562.984ZM602.27 98.5434C599.703 98.5434 597.437 97.8917 595.472 96.5881C593.506 95.2846 591.969 93.4396 590.859 91.0531C589.749 88.6667 589.195 85.8424 589.195 82.5802C589.195 79.3448 589.749 76.5372 590.859 74.1574C591.969 71.7776 593.513 69.9393 595.492 68.6425C597.47 67.3456 599.757 66.6972 602.35 66.6972C604.356 66.6972 605.943 67.0281 607.113 67.6899C608.283 68.3517 609.179 69.1004 609.8 69.936C610.422 70.7716 610.907 71.4568 611.254 71.9916H611.655V56.8305H616.388V97.9017H611.816V93.1689H611.254C610.907 93.7304 610.412 94.4356 609.77 95.2846C609.129 96.1336 608.213 96.8889 607.023 97.5507C605.833 98.2125 604.249 98.5434 602.27 98.5434ZM602.912 94.2919C604.81 94.2919 606.414 93.7939 607.725 92.7979C609.035 91.8018 610.031 90.4181 610.713 88.6466C611.395 86.8752 611.736 84.8263 611.736 82.5C611.736 80.2004 611.401 78.185 610.733 76.4536C610.064 74.7223 609.075 73.372 607.765 72.4027C606.455 71.4334 604.837 70.9487 602.912 70.9487C600.906 70.9487 599.238 71.4601 597.908 72.4829C596.578 73.5057 595.582 74.8894 594.92 76.6341C594.258 78.3789 593.927 80.3341 593.927 82.5C593.927 84.6926 594.265 86.6813 594.94 88.4661C595.615 90.251 596.618 91.6681 597.948 92.7177C599.279 93.7672 600.933 94.2919 602.912 94.2919ZM636.192 110.095C633.906 110.095 631.94 109.804 630.296 109.222C628.652 108.641 627.285 107.879 626.195 106.936C625.105 105.994 624.24 104.988 623.598 103.918L627.368 101.271C627.796 101.832 628.337 102.477 628.992 103.206C629.648 103.935 630.547 104.57 631.69 105.111C632.833 105.653 634.334 105.923 636.192 105.923C638.679 105.923 640.731 105.322 642.349 104.119C643.966 102.915 644.775 101.03 644.775 98.4632V92.2063H644.374C644.026 92.7678 643.535 93.4597 642.9 94.2819C642.265 95.1041 641.356 95.8327 640.173 96.4678C638.99 97.1029 637.395 97.4204 635.39 97.4204C632.903 97.4204 630.674 96.8321 628.702 95.6556C626.73 94.4791 625.172 92.7678 624.029 90.5217C622.886 88.2756 622.314 85.5483 622.314 82.3396C622.314 79.1843 622.869 76.4336 623.979 74.0872C625.089 71.7409 626.633 69.9226 628.611 68.6325C630.59 67.3423 632.876 66.6972 635.47 66.6972C637.475 66.6972 639.07 67.0281 640.253 67.6899C641.436 68.3517 642.345 69.1004 642.98 69.936C643.615 70.7716 644.107 71.4568 644.454 71.9916H644.936V67.0983H649.508V98.7841C649.508 101.431 648.91 103.587 647.713 105.252C646.517 106.916 644.912 108.139 642.9 108.922C640.888 109.704 638.652 110.095 636.192 110.095ZM636.032 93.1689C637.93 93.1689 639.534 92.7344 640.845 91.8653C642.155 90.9963 643.151 89.7463 643.833 88.1152C644.515 86.4841 644.855 84.5322 644.855 82.2593C644.855 80.04 644.521 78.0814 643.853 76.3834C643.184 74.6855 642.195 73.3553 640.885 72.3926C639.574 71.43 637.957 70.9487 636.032 70.9487C634.026 70.9487 632.358 71.4568 631.028 72.4729C629.698 73.4889 628.702 74.8526 628.04 76.5639C627.378 78.2752 627.047 80.1737 627.047 82.2593C627.047 84.3985 627.385 86.2869 628.06 87.9247C628.735 89.5625 629.738 90.8459 631.068 91.7751C632.398 92.7043 634.053 93.1689 636.032 93.1689ZM659.548 80.0133H677.093C677.093 78.2752 676.749 76.7244 676.06 75.3607C675.372 73.997 674.396 72.9207 673.132 72.1319C671.869 71.3431 670.381 70.9487 668.67 70.9487C666.785 70.9487 665.157 71.4133 663.787 72.3425C662.416 73.2717 661.364 74.4783 660.628 75.9623C659.998 77.2341 659.638 78.5844 659.548 80.0133ZM659.536 84.1043C659.604 86.1531 660.005 87.9078 660.739 89.3686C661.547 90.9796 662.674 92.2029 664.118 93.0385C665.562 93.8741 667.24 94.2919 669.151 94.2919C670.395 94.2919 671.521 94.1148 672.531 93.7605C673.54 93.4062 674.412 92.8714 675.148 92.1561C675.883 91.4409 676.451 90.5485 676.852 89.4789L681.425 90.7624C680.943 92.3132 680.134 93.6736 678.998 94.8434C677.862 96.0132 676.458 96.9224 674.787 97.5708C673.115 98.2192 671.237 98.5434 669.151 98.5434C666.183 98.5434 663.626 97.885 661.481 96.5681C659.335 95.2512 657.684 93.4062 656.527 91.0331C655.371 88.66 654.793 85.8959 654.793 82.7407C654.793 79.5854 655.371 76.8013 656.527 74.388C657.684 71.9748 659.301 70.0898 661.38 68.7327C663.459 67.3757 665.889 66.6972 668.67 66.6972C670.274 66.6972 671.859 66.9646 673.423 67.4994C674.987 68.0342 676.411 68.8998 677.695 70.0964C678.978 71.293 680.001 72.8739 680.763 74.8393C681.525 76.8046 681.906 79.2245 681.906 82.0989V84.1043H659.536ZM413.177 134.036H422.001C424.207 134.036 425.978 133.655 427.315 132.893C428.652 132.131 429.625 131.098 430.233 129.795C430.841 128.491 431.146 127.017 431.146 125.373C431.146 123.728 430.841 122.258 430.233 120.961C429.625 119.664 428.645 118.645 427.295 117.903C425.945 117.161 424.153 116.79 421.921 116.79H413.177V134.036ZM413.177 138.448V153.449H408.203V112.378H422.081C425.303 112.378 427.94 112.956 429.992 114.112C432.045 115.269 433.565 116.83 434.555 118.795C435.544 120.76 436.039 122.953 436.039 125.373C436.039 127.793 435.547 129.992 434.565 131.971C433.582 133.949 432.068 135.524 430.023 136.693C427.977 137.863 425.357 138.448 422.161 138.448H413.177ZM441.484 153.449V122.645H446.056V127.298H446.377C446.939 125.774 447.955 124.537 449.425 123.588C450.896 122.639 452.554 122.164 454.399 122.164C454.746 122.164 455.181 122.171 455.702 122.184C456.224 122.197 456.618 122.218 456.885 122.244V127.057C456.725 127.017 456.361 126.954 455.792 126.867C455.224 126.78 454.626 126.736 453.998 126.736C452.5 126.736 451.167 127.047 449.997 127.669C448.827 128.291 447.904 129.146 447.229 130.236C446.554 131.326 446.217 132.566 446.217 133.956V153.449H441.484ZM472.117 154.09C469.336 154.09 466.899 153.429 464.807 152.105C462.715 150.782 461.084 148.93 459.914 146.55C458.744 144.17 458.159 141.389 458.159 138.207C458.159 134.999 458.744 132.198 459.914 129.805C461.084 127.412 462.715 125.553 464.807 124.23C466.899 122.906 469.336 122.244 472.117 122.244C474.898 122.244 477.334 122.906 479.427 124.23C481.519 125.553 483.15 127.412 484.32 129.805C485.49 132.198 486.075 134.999 486.075 138.207C486.075 141.389 485.49 144.17 484.32 146.55C483.15 148.93 481.519 150.782 479.427 152.105C477.334 153.429 474.898 154.09 472.117 154.09ZM472.117 149.839C474.229 149.839 475.967 149.298 477.331 148.215C478.695 147.132 479.704 145.708 480.359 143.943C481.014 142.178 481.342 140.266 481.342 138.207C481.342 136.149 481.014 134.23 480.359 132.452C479.704 130.674 478.695 129.237 477.331 128.14C475.967 127.044 474.229 126.496 472.117 126.496C470.004 126.496 468.266 127.044 466.903 128.14C465.539 129.237 464.53 130.674 463.875 132.452C463.219 134.23 462.892 136.149 462.892 138.207C462.892 140.266 463.219 142.178 463.875 143.943C464.53 145.708 465.539 147.132 466.903 148.215C468.266 149.298 470.004 149.839 472.117 149.839ZM491.359 122.645H496.092V155.695C496.092 157.593 495.768 159.238 495.119 160.628C494.471 162.019 493.495 163.095 492.191 163.857C490.888 164.619 489.247 165 487.268 165H486.305V160.588H487.188C488.632 160.588 489.688 160.164 490.356 159.315C491.025 158.466 491.359 157.259 491.359 155.695V122.645ZM493.685 117.511C492.763 117.511 491.971 117.197 491.309 116.569C490.647 115.941 490.316 115.185 490.316 114.303C490.316 113.42 490.647 112.665 491.309 112.037C491.971 111.408 492.763 111.094 493.685 111.094C494.608 111.094 495.4 111.408 496.062 112.037C496.724 112.665 497.055 113.42 497.055 114.303C497.055 115.185 496.724 115.941 496.062 116.569C495.4 117.197 494.608 117.511 493.685 117.511ZM506.132 135.56H523.677C523.677 133.822 523.333 132.271 522.644 130.908C521.956 129.544 520.98 128.468 519.716 127.679C518.453 126.89 516.965 126.496 515.254 126.496C513.369 126.496 511.741 126.96 510.371 127.89C509 128.819 507.948 130.025 507.212 131.509C506.582 132.781 506.222 134.131 506.132 135.56ZM506.12 139.651C506.188 141.7 506.589 143.455 507.323 144.916C508.131 146.527 509.258 147.75 510.702 148.586C512.146 149.421 513.824 149.839 515.735 149.839C516.979 149.839 518.105 149.662 519.114 149.308C520.124 148.953 520.996 148.418 521.732 147.703C522.467 146.988 523.035 146.096 523.436 145.026L528.009 146.309C527.527 147.86 526.718 149.221 525.582 150.39C524.446 151.56 523.042 152.469 521.371 153.118C519.699 153.766 517.821 154.09 515.735 154.09C512.767 154.09 510.21 153.432 508.065 152.115C505.919 150.798 504.268 148.953 503.111 146.58C501.955 144.207 501.376 141.443 501.376 138.288C501.376 135.132 501.955 132.348 503.111 129.935C504.268 127.522 505.885 125.637 507.964 124.28C510.043 122.923 512.473 122.244 515.254 122.244C516.858 122.244 518.443 122.512 520.007 123.046C521.571 123.581 522.995 124.447 524.278 125.643C525.562 126.84 526.585 128.421 527.347 130.386C528.109 132.352 528.49 134.772 528.49 137.646V139.651H506.12ZM546.288 154.09C543.4 154.09 540.914 153.409 538.828 152.045C536.742 150.681 535.138 148.803 534.015 146.41C532.892 144.017 532.33 141.282 532.33 138.207C532.33 135.079 532.909 132.315 534.065 129.915C535.222 127.515 536.839 125.637 538.918 124.28C540.997 122.923 543.427 122.244 546.208 122.244C548.374 122.244 550.326 122.645 552.064 123.448C553.802 124.25 555.226 125.373 556.335 126.817C557.445 128.261 558.134 129.945 558.401 131.87H553.668C553.307 130.467 552.508 129.22 551.272 128.13C550.035 127.041 548.374 126.496 546.288 126.496C544.443 126.496 542.829 126.974 541.445 127.93C540.061 128.886 538.985 130.229 538.216 131.961C537.448 133.692 537.063 135.721 537.063 138.047C537.063 140.427 537.441 142.499 538.196 144.264C538.952 146.029 540.021 147.399 541.405 148.375C542.789 149.351 544.417 149.839 546.288 149.839C547.518 149.839 548.635 149.625 549.637 149.197C550.64 148.769 551.489 148.154 552.184 147.352C552.879 146.55 553.374 145.587 553.668 144.464H558.401C558.134 146.283 557.475 147.917 556.426 149.368C555.376 150.818 553.992 151.968 552.274 152.817C550.556 153.666 548.561 154.09 546.288 154.09ZM576.761 122.645V126.656H560.798V122.645H576.761ZM565.45 115.265H570.183V144.625C570.183 145.962 570.38 146.961 570.775 147.623C571.169 148.285 571.677 148.726 572.299 148.947C572.921 149.167 573.579 149.277 574.274 149.277C574.796 149.277 575.223 149.247 575.558 149.187C575.892 149.127 576.159 149.077 576.36 149.037L577.322 153.288C577.002 153.409 576.554 153.532 575.979 153.659C575.404 153.786 574.675 153.85 573.793 153.85C572.456 153.85 571.149 153.562 569.872 152.987C568.595 152.413 567.539 151.537 566.704 150.36C565.868 149.184 565.45 147.7 565.45 145.908V115.265Z" fill="#272522"/>
</svg>
