<?xml version="1.0" encoding="UTF-8"?>
<svg width="591px" height="368px" viewBox="0 0 591 368" version="1.1" xmlns="http://www.w3.org/2000/svg" xmlns:xlink="http://www.w3.org/1999/xlink">
    <title>Slash - OJS</title>
    <desc>An official PKP logotype.</desc>
    <g id="Final" stroke="none" stroke-width="1" fill="none" fill-rule="evenodd">
        <g id="Artboard-Copy" transform="translate(-1067.000000, -3483.000000)" fill="#000000" fill-rule="nonzero">
            <g id="Slash---OJS" transform="translate(1067.000000, 3483.000000)">
                <g id="OJS/PKP" transform="translate(0.479309, 214.708945)">
                    <path d="M56.7192845,117.837001 C16.6649444,117.837001 6.96331881e-13,86.0888348 6.96331881e-13,59.2593981 C6.96331881e-13,35.1129051 17.2496793,0.979899497 57.5963868,0.979899497 C90.4877245,0.979899497 115.04659,22.145344 115.04659,56.8745593 C115.04659,90.2623027 91.9495617,117.837001 56.7192845,117.837001 Z M60.666245,112.173009 C73.8227801,112.173009 101.012953,104.422283 101.012953,61.0480272 C101.012953,25.2754449 79.670129,6.04768198 56.5731008,6.04768198 C32.160419,6.04768198 13.8874537,22.4434488 13.8874537,55.0859301 C13.8874537,89.8151454 34.3531749,112.173009 60.666245,112.173009 Z M142.777642,46.291837 L142.777642,82.0644193 C142.777642,106.210912 142.777642,115.452163 138.39213,126.034885 C135.322272,133.487506 128.890189,140.49297 117.049307,148.839906 C115.148919,150.181378 112.809979,151.820955 111.348142,152.566217 C111.055774,152.715269 110.763407,152.864322 110.324856,152.864322 C109.886305,152.864322 109.30157,152.566217 109.30157,151.970007 C109.30157,151.075692 110.032488,150.628535 111.348142,149.734221 C113.102346,148.690854 115.148919,146.902225 116.464572,145.560753 C125.966514,135.723293 130.498209,127.823514 130.498209,89.3679881 L130.498209,46.291837 C130.498209,23.0396585 130.498209,18.8661906 130.205842,14.096513 C129.913475,9.0287305 128.744005,6.64389169 123.919942,5.6005247 C122.750472,5.30241985 120.7039,5.15336743 119.388247,5.15336743 C118.36496,5.15336743 117.780226,4.70621015 117.780226,4.11000044 C117.780226,3.51379074 118.36496,3.06663346 119.972981,3.06663346 C126.551249,3.06663346 135.907007,3.51379074 136.637926,3.51379074 C137.368844,3.51379074 146.578419,3.06663346 150.963931,3.06663346 C152.571952,3.06663346 153.30287,3.36473831 153.30287,4.25905287 C153.30287,4.85526257 152.571952,5.15336743 151.694849,5.15336743 C150.671563,5.15336743 149.502093,5.30241985 148.18644,5.45147228 C144.239479,5.89862956 143.362377,8.87967808 143.07001,14.096513 C142.777642,18.8661906 142.777642,23.0396585 142.777642,46.291837 Z M179.864453,117.837001 C172.993818,117.837001 166.269366,116.793635 160.275834,113.812586 C158.229262,112.769219 158.083078,112.173009 158.083078,108.148594 C158.083078,100.695973 158.667813,94.7338755 158.813997,92.3490366 C158.96018,90.70946 159.252548,89.9641978 159.983466,89.9641978 C160.860569,89.9641978 161.006752,90.4113551 161.006752,91.6037745 C161.006752,92.9452463 161.006752,95.0319803 161.445304,97.1187143 C163.638059,108.148594 173.286185,112.322062 183.080495,112.322062 C197.114132,112.322062 203.984767,102.037444 203.984767,92.4980891 C203.984767,82.2134717 199.745439,76.2513746 187.173639,65.6686524 L180.595371,60.1537126 C165.099897,47.1861516 161.591487,37.9449011 161.591487,27.8093362 C161.591487,11.8607266 173.286185,0.979899497 191.851518,0.979899497 C197.552683,0.979899497 201.792011,1.5761092 205.446604,2.47042376 C208.224095,3.06663346 209.393565,3.21568589 210.563035,3.21568589 C211.732504,3.21568589 212.024872,3.51379074 212.024872,4.25905287 C212.024872,5.004315 211.440137,9.92304506 211.440137,20.05861 C211.440137,22.4434488 211.147769,23.4868158 210.416851,23.4868158 C209.539748,23.4868158 209.393565,22.7415537 209.247381,21.5491343 C209.101197,19.7605052 208.224095,15.7360897 207.346993,14.096513 C206.46989,12.4569363 202.52293,6.19673441 189.074027,6.19673441 C178.98735,6.19673441 171.093429,12.6059887 171.093429,23.4868158 C171.093429,31.9828041 174.894206,37.3486914 188.927844,48.5276234 L193.020988,51.8067768 C210.270667,65.6686524 214.363811,74.9099028 214.363811,86.8340969 C214.363811,92.9452463 212.024872,104.273231 201.938195,111.5768 C195.652295,116.048372 187.758374,117.837001 179.864453,117.837001 Z" id="OJS"></path>
                    <path d="M250.066451,112.590452 L298.935339,2.05778894 C299.800275,0.146984925 300.232743,-3.69482223e-13 300.809367,-3.69482223e-13 C301.530147,-3.69482223e-13 304.413268,1.46984925 305.134048,2.20477387 C305.854828,2.93969849 305.710672,3.38065327 305.134048,4.70351759 L255.976847,116.11809 C255.400223,117.29397 255.111911,117.440955 254.679443,117.440955 C254.246975,117.440955 250.787231,115.677136 250.066451,114.942211 C249.489827,114.354271 249.489827,113.766332 250.066451,112.590452 Z" id="/"></path>
                    <path d="M353.72136,71.0453059 L353.72136,44.5828348 C353.72136,21.1274627 353.72136,16.9175241 353.426438,12.1061657 C353.131516,6.99409747 351.951826,4.58841828 347.085607,3.53593364 C345.905918,3.23522374 343.399078,3.08486879 342.071927,3.08486879 C341.482083,3.08486879 340.892238,2.78415889 340.892238,2.18273909 C340.892238,1.2806094 341.629544,0.979899497 343.251617,0.979899497 C349.88737,0.979899497 358.73504,1.43096435 359.91473,1.43096435 C363.158876,1.43096435 371.711624,0.979899497 378.494838,0.979899497 C396.927485,0.979899497 403.563238,7.29480737 405.922617,9.55013161 C409.166763,12.7075855 413.295676,19.4735583 413.295676,29.24663 C413.295676,48.7927734 397.959714,63.2268485 377.020226,63.2268485 C376.282921,63.2268485 374.660848,63.2268485 373.923542,63.0764936 C373.186236,63.0764936 372.301469,62.7757837 372.301469,62.0240089 C372.301469,60.8211693 373.186236,60.6708144 376.282921,60.6708144 C390.586655,60.6708144 401.793704,50.7473877 401.793704,34.9601181 C401.793704,31.2012443 401.351321,21.1274627 393.535878,13.0082954 C385.720436,4.88912818 376.725304,5.49054798 373.333697,5.49054798 C370.826857,5.49054798 368.320017,5.79125788 366.992866,6.39267767 C366.108099,6.69338757 365.813177,7.74587222 365.813177,9.24942171 L365.813177,71.0453059 C365.813177,85.479381 365.813177,97.357422 366.550483,103.67233 C366.992866,108.032623 367.877633,111.340432 372.301469,111.941852 C374.365925,112.242562 377.610071,112.543272 378.937222,112.543272 C379.821989,112.543272 380.116911,112.994337 380.116911,113.445402 C380.116911,114.197176 379.379605,114.648241 377.757532,114.648241 C369.647168,114.648241 360.357113,114.197176 359.619807,114.197176 C359.177424,114.197176 349.88737,114.648241 345.463534,114.648241 C343.841461,114.648241 343.104156,114.347531 343.104156,113.445402 C343.104156,112.994337 343.399078,112.543272 344.283845,112.543272 C345.610996,112.543272 347.38053,112.242562 348.70768,111.941852 C351.656904,111.340432 352.39421,108.032623 352.984054,103.67233 C353.72136,97.357422 353.72136,85.479381 353.72136,71.0453059 Z M438.319838,44.5828348 L438.319838,54.2055516 C442.891134,49.6949031 462.945855,28.1941453 471.940986,18.7217835 C480.788657,9.39977666 481.378502,7.89622717 481.378502,6.09196778 C481.378502,4.88912818 480.641196,3.68628859 479.461506,3.23522374 C478.429278,2.78415889 478.134356,2.48344899 478.134356,1.88202919 C478.134356,1.2806094 479.019123,0.979899497 480.346274,0.979899497 C484.622648,0.979899497 484.180264,1.43096435 489.193944,1.43096435 C493.765241,1.43096435 502.46545,0.979899497 504.824829,0.979899497 C506.889285,0.979899497 507.331669,1.43096435 507.331669,2.03238414 C507.331669,2.63380394 507.036747,2.93451384 505.709596,3.08486879 C502.907834,3.38557869 500.253532,3.98699848 498.189076,4.88912818 C494.502547,6.39267767 491.700784,8.19693707 482.853114,16.9175241 C469.87653,29.6976948 453.065956,46.6878041 449.231965,51.0480976 C458.522019,61.4225891 485.359954,89.2382548 492.290629,95.8538725 C504.382445,107.431204 509.543587,110.739013 516.621723,112.092207 C517.948874,112.392917 519.423486,112.543272 520.898097,112.543272 C522.077787,112.543272 522.962554,112.843982 522.962554,113.595757 C522.962554,114.347531 522.372709,114.648241 520.750636,114.648241 L509.838509,114.648241 C497.009387,114.648241 493.617779,112.994337 486.687104,107.431204 C477.839433,100.364521 451.296422,71.3460158 438.319838,55.5587461 L438.319838,71.0453059 C438.319838,85.479381 438.319838,97.357422 439.057144,103.67233 C439.499527,108.032623 440.384294,111.340432 444.80813,111.941852 C446.872586,112.242562 449.82181,112.543272 450.706577,112.543272 C452.033727,112.543272 452.476111,113.144692 452.476111,113.595757 C452.476111,114.347531 451.886266,114.648241 450.264193,114.648241 C442.153829,114.648241 432.863774,114.197176 432.126468,114.197176 C431.389163,114.197176 422.688953,114.648241 418.265118,114.648241 C416.643045,114.648241 415.905739,114.497886 415.905739,113.595757 C415.905739,113.144692 416.200661,112.543272 417.527812,112.543272 C418.412579,112.543272 420.034652,112.392917 421.361802,112.092207 C424.311026,111.490787 425.195793,108.032623 425.785638,103.67233 C426.522944,97.357422 426.522944,85.479381 426.522944,71.0453059 L426.522944,44.5828348 C426.522944,21.1274627 426.522944,16.9175241 426.228021,12.1061657 C425.933099,6.99409747 424.458487,4.43806333 421.214341,3.68628859 C419.592268,3.23522374 416.937967,3.08486879 415.905739,3.08486879 C414.726049,3.08486879 414.283666,2.78415889 414.283666,2.18273909 C414.283666,1.2806094 415.020972,0.979899497 416.643045,0.979899497 C421.509264,0.979899497 431.389163,1.43096435 432.126468,1.43096435 C432.863774,1.43096435 442.153829,0.979899497 446.577664,0.979899497 C448.199737,0.979899497 448.937043,1.2806094 448.937043,2.03238414 C448.937043,2.63380394 448.64212,2.93451384 447.31497,3.08486879 C445.692897,3.23522374 445.545436,3.23522374 444.070824,3.38557869 C440.089372,3.83664354 438.909683,6.84374252 438.61476,12.1061657 C438.319838,16.9175241 438.319838,21.1274627 438.319838,44.5828348 Z M528.374379,71.0453059 L528.374379,44.5828348 C528.374379,21.1274627 528.374379,16.9175241 528.079457,12.1061657 C527.784534,6.99409747 526.604845,4.58841828 521.738626,3.53593364 C520.558937,3.23522374 518.052097,3.08486879 516.724946,3.08486879 C516.135101,3.08486879 515.545257,2.78415889 515.545257,2.18273909 C515.545257,1.2806094 516.282562,0.979899497 517.904635,0.979899497 C524.540388,0.979899497 533.388059,1.43096435 534.567748,1.43096435 C537.811894,1.43096435 546.364643,0.979899497 553.147857,0.979899497 C571.580504,0.979899497 578.216257,7.29480737 580.575636,9.55013161 C583.819782,12.7075855 587.948695,19.4735583 587.948695,29.24663 C587.948695,48.7927734 572.612732,63.2268485 551.673245,63.2268485 C550.935939,63.2268485 549.313866,63.2268485 548.57656,63.0764936 C547.839254,63.0764936 546.954487,62.7757837 546.954487,62.0240089 C546.954487,60.8211693 547.839254,60.6708144 550.935939,60.6708144 C565.239673,60.6708144 576.446723,50.7473877 576.446723,34.9601181 C576.446723,31.2012443 576.004339,21.1274627 568.188897,13.0082954 C560.373455,4.88912818 551.378323,5.49054798 547.986716,5.49054798 C545.479876,5.49054798 542.973036,5.79125788 541.645885,6.39267767 C540.761118,6.69338757 540.466196,7.74587222 540.466196,9.24942171 L540.466196,71.0453059 C540.466196,85.479381 540.466196,97.357422 541.203501,103.67233 C541.645885,108.032623 542.530652,111.340432 546.954487,111.941852 C549.018944,112.242562 552.26309,112.543272 553.59024,112.543272 C554.475007,112.543272 554.76993,112.994337 554.76993,113.445402 C554.76993,114.197176 554.032624,114.648241 552.410551,114.648241 C544.300186,114.648241 535.010132,114.197176 534.272826,114.197176 C533.830443,114.197176 524.540388,114.648241 520.116553,114.648241 C518.49448,114.648241 517.757174,114.347531 517.757174,113.445402 C517.757174,112.994337 518.052097,112.543272 518.936864,112.543272 C520.264014,112.543272 522.033548,112.242562 523.360699,111.941852 C526.309923,111.340432 527.047228,108.032623 527.637073,103.67233 C528.374379,97.357422 528.374379,85.479381 528.374379,71.0453059 Z" id="PLP"></path>
                </g>
                <path d="M190.124679,38.71875 L204.343429,38.71875 C207.898134,38.71875 210.752627,38.1047647 212.906994,36.8767756 C215.061361,35.6487865 216.628639,33.9845631 217.608876,31.8840554 C218.589113,29.7835477 219.079224,27.4083939 219.079224,24.7585227 C219.079224,22.1086515 218.589113,19.7388836 217.608876,17.6491477 C216.628639,15.5594119 215.050589,13.9167318 212.874679,12.7210582 C210.698768,11.5253846 207.81196,10.9275568 204.214168,10.9275568 L190.124679,10.9275568 L190.124679,38.71875 L190.124679,38.71875 Z M190.124679,45.828125 L190.124679,70 L182.110474,70 L182.110474,3.81818182 L204.47269,3.81818182 C209.664714,3.81818182 213.914139,4.7499315 217.221092,6.61345881 C220.528045,8.47698612 222.978601,10.9921717 224.572832,14.1590909 C226.167064,17.3260102 226.964168,20.8591188 226.964168,24.7585227 C226.964168,28.6579267 226.17245,32.201807 224.58899,35.3902699 C223.00553,38.5787328 220.565747,41.1154617 217.269565,43.0005327 C213.973384,44.8856036 209.750888,45.828125 204.601952,45.828125 L190.124679,45.828125 L190.124679,45.828125 Z M243.364545,3.81818182 L243.364545,70 L235.738125,70 L235.738125,3.81818182 L243.364545,3.81818182 Z M268.813219,71.1633523 C265.667843,71.1633523 262.81335,70.5655244 260.249653,69.3698509 C257.685957,68.1741773 255.650111,66.439938 254.142054,64.167081 C252.633997,61.894224 251.87998,59.1420616 251.87998,55.9105114 C251.87998,53.0667471 252.440107,50.7562234 253.560378,48.9788707 C254.680648,47.2015181 256.177911,45.8065865 258.05221,44.7940341 C259.926509,43.7814817 262.000056,43.0220788 264.272913,42.5158026 C266.54577,42.0095264 268.834751,41.6055886 271.139923,41.3039773 C274.156037,40.9161912 276.606592,40.6199702 278.491663,40.4153054 C280.376734,40.2106405 281.755508,39.8605612 282.628027,39.3650568 C283.500545,38.8695524 283.936798,38.0078186 283.936798,36.7798295 L283.936798,36.5213068 C283.936798,33.3328439 283.069678,30.8553592 281.335413,29.0887784 C279.601148,27.3221976 276.978246,26.4389205 273.466628,26.4389205 C269.825748,26.4389205 266.971254,27.2360242 264.903062,28.8302557 C262.83487,30.4244871 261.380694,32.1264114 260.540491,33.9360795 L253.301855,31.3508523 C254.594475,28.3347387 256.323328,25.9811282 258.488467,24.2899503 C260.653606,22.5987723 263.023374,21.4138883 265.597842,20.7352628 C268.172311,20.0566372 270.709039,19.7173295 273.208105,19.7173295 C274.802336,19.7173295 276.638907,19.9058338 278.717871,20.282848 C280.796835,20.6598622 282.811137,21.4300368 284.760839,22.5933949 C286.710541,23.756753 288.331678,25.5125356 289.624298,27.8607955 C290.916918,30.2090553 291.563219,33.3543837 291.563219,37.296875 L291.563219,70 L283.936798,70 L283.936798,63.2784091 L283.549014,63.2784091 C283.031966,64.3555925 282.170232,65.5081615 280.963787,66.7361506 C279.757341,67.9641397 278.152362,69.0089919 276.148801,69.8707386 C274.14524,70.7324854 271.70007,71.1633523 268.813219,71.1633523 Z M269.976571,64.3125 C272.992684,64.3125 275.540185,63.720058 277.619149,62.5351562 C279.698113,61.3502545 281.270777,59.820677 282.337189,57.9463778 C283.4036,56.0720787 283.936798,54.1008626 283.936798,52.0326705 L283.936798,45.0525568 C283.613643,45.4403428 282.908099,45.7904222 281.820143,46.1028054 C280.732188,46.4151886 279.482674,46.6844804 278.071564,46.9106889 C276.660453,47.1368974 275.292451,47.3307875 273.967515,47.4923651 C272.64258,47.6539426 271.570798,47.7885885 270.752139,47.8963068 C268.770122,48.1548308 266.92278,48.5695402 265.210058,49.1404474 C263.497336,49.7113547 262.118562,50.5623168 261.073694,51.6933594 C260.028827,52.824402 259.5064,54.3593653 259.5064,56.2982955 C259.5064,58.9481667 260.492008,60.9463119 262.463254,62.2927912 C264.4345,63.6392705 266.938914,64.3125 269.976571,64.3125 Z M323.992005,20.3636364 L323.992005,26.8267045 L298.268994,26.8267045 L298.268994,20.3636364 L323.992005,20.3636364 Z M305.766153,8.47159091 L313.392574,8.47159091 L313.392574,55.78125 C313.392574,57.9356168 313.710338,59.5459819 314.345876,60.6123935 C314.981414,61.678805 315.800062,62.3897354 316.801842,62.745206 C317.803623,63.1006765 318.864632,63.2784091 319.984903,63.2784091 C320.825106,63.2784091 321.514493,63.2299366 322.053085,63.1329901 C322.591677,63.0360435 323.022544,62.955256 323.345699,62.890625 L324.896835,69.7414773 C324.379787,69.9353703 323.658085,70.1346462 322.731707,70.3393111 C321.805329,70.5439759 320.631217,70.6463068 319.209335,70.6463068 C317.054968,70.6463068 314.949106,70.1831249 312.891686,69.2567472 C310.834266,68.3303694 309.132341,66.9192803 307.785862,65.0234375 C306.439383,63.1275947 305.766153,60.7362834 305.766153,57.8494318 L305.766153,8.47159091 Z M354.481872,20.3636364 L354.481872,26.8267045 L327.72477,26.8267045 L327.72477,20.3636364 L354.481872,20.3636364 Z M335.738974,70 L335.738974,13.5127841 C335.738974,10.6690199 336.406818,8.2992519 337.742525,6.40340909 C339.078233,4.50756628 340.812472,3.0857055 342.945295,2.13778409 C345.078118,1.18986268 347.329398,0.715909091 349.699201,0.715909091 C351.573501,0.715909091 353.103078,0.866712507 354.28798,1.16832386 C355.472882,1.46993522 356.356159,1.74999871 356.937838,2.00852273 L354.740395,8.60085227 C354.352609,8.47159026 353.819411,8.31001517 353.140785,8.11612216 C352.46216,7.92222914 351.573497,7.82528409 350.47477,7.82528409 C347.95416,7.82528409 346.139134,8.46081277 345.029635,9.7318892 C343.920136,11.0029656 343.365395,12.866465 343.365395,15.3224432 L343.365395,70 L335.738974,70 Z M380.189068,71.0340909 C375.707985,71.0340909 371.78171,69.9676953 368.410126,67.8348722 C365.038542,65.702049 362.410254,62.7182957 360.525183,58.8835227 C358.640112,55.0487498 357.697591,50.567734 357.697591,45.4403409 C357.697591,40.2698605 358.640112,35.7565297 360.525183,31.9002131 C362.410254,28.0438964 365.038542,25.0493715 368.410126,22.9165483 C371.78171,20.7837251 375.707985,19.7173295 380.189068,19.7173295 C384.670151,19.7173295 388.596425,20.7837251 391.96801,22.9165483 C395.339594,25.0493715 397.967882,28.0438964 399.852953,31.9002131 C401.738024,35.7565297 402.680545,40.2698605 402.680545,45.4403409 C402.680545,50.567734 401.738024,55.0487498 399.852953,58.8835227 C397.967882,62.7182957 395.339594,65.702049 391.96801,67.8348722 C388.596425,69.9676953 384.670151,71.0340909 380.189068,71.0340909 Z M380.189068,64.1832386 C383.592967,64.1832386 386.393602,63.3107332 388.591056,61.565696 C390.788511,59.8206589 392.415033,57.5262926 393.470673,54.6825284 C394.526313,51.8387642 395.054125,48.7580658 395.054125,45.4403409 C395.054125,42.122616 394.526313,39.031146 393.470673,36.1658381 C392.415033,33.3005302 390.788511,30.9846206 388.591056,29.2180398 C386.393602,27.451459 383.592967,26.5681818 380.189068,26.5681818 C376.785168,26.5681818 373.984533,27.451459 371.787079,29.2180398 C369.589625,30.9846206 367.963102,33.3005302 366.907463,36.1658381 C365.851823,39.031146 365.324011,42.122616 365.324011,45.4403409 C365.324011,48.7580658 365.851823,51.8387642 366.907463,54.6825284 C367.963102,57.5262926 369.589625,59.8206589 371.787079,61.565696 C373.984533,63.3107332 376.785168,64.1832386 380.189068,64.1832386 Z M411.19598,70 L411.19598,20.3636364 L418.563877,20.3636364 L418.563877,27.8607955 L419.080923,27.8607955 C419.985757,25.4048173 421.623051,23.4120578 423.992855,21.8824574 C426.362658,20.3528569 429.034033,19.5880682 432.007059,19.5880682 C432.567195,19.5880682 433.267353,19.5988399 434.107556,19.6203835 C434.947759,19.6419272 435.583288,19.6742422 436.014161,19.7173295 L436.014161,27.4730114 C435.755637,27.4083804 435.168581,27.3060495 434.252975,27.1660156 C433.33737,27.0259818 432.373305,26.9559659 431.360752,26.9559659 C428.947862,26.9559659 426.798913,27.4568487 424.913842,28.4586293 C423.028771,29.4604098 421.54228,30.8391839 420.454325,32.5949929 C419.36637,34.3508019 418.8224,36.3489471 418.8224,38.5894886 L418.8224,70 L411.19598,70 Z M441.944369,70 L441.944369,20.3636364 L449.312267,20.3636364 L449.312267,28.1193182 L449.958573,28.1193182 C450.992669,25.469447 452.662279,23.4066717 454.967451,21.9309304 C457.272624,20.4551891 460.040944,19.7173295 463.272494,19.7173295 C466.547131,19.7173295 469.27775,20.4551891 471.464433,21.9309304 C473.651115,23.4066717 475.358425,25.469447 476.586414,28.1193182 L477.10346,28.1193182 C478.374536,25.5556217 480.281122,23.5143897 482.823275,21.9955611 C485.365428,20.4767325 488.413811,19.7173295 491.968517,19.7173295 C496.406512,19.7173295 500.036566,21.1014895 502.858786,23.8698509 C505.681007,26.6382122 507.092096,30.9414954 507.092096,36.7798295 L507.092096,70 L499.465676,70 L499.465676,36.7798295 C499.465676,33.1174059 498.46391,30.4998895 496.460349,28.9272017 C494.456788,27.3545139 492.097791,26.5681818 489.383289,26.5681818 C485.893215,26.5681818 483.189525,27.6184199 481.272139,29.7189276 C479.354752,31.8194352 478.396073,34.4746525 478.396073,37.6846591 L478.396073,70 L470.640392,70 L470.640392,36.0042614 C470.640392,33.1820408 469.724799,30.9038321 467.893588,29.1695668 C466.062376,27.4353015 463.703379,26.5681818 460.816528,26.5681818 C458.83451,26.5681818 456.987169,27.0959938 455.274447,28.1516335 C453.561725,29.2072733 452.182951,30.6668349 451.138083,32.5303622 C450.093215,34.3938895 449.570789,36.5428382 449.570789,38.9772727 L449.570789,70 L441.944369,70 Z M557.145588,29.6600711 L561.479499,26.4389205 C563.353799,25.2109314 564.856447,23.8967873 565.987489,22.4964489 C567.118532,21.0961104 567.684045,19.2649261 567.684045,17.0028409 C567.684045,15.3224348 566.946185,13.6959122 565.470444,12.1232244 C563.994703,10.5505366 562.061187,9.76420455 559.66984,9.76420455 C557.989434,9.76420455 556.508329,10.1896856 555.226481,11.0406605 C553.944633,11.8916354 552.942867,12.9688027 552.221154,14.2721946 C551.499441,15.5755865 551.13859,16.9166598 551.13859,18.2954545 C551.13859,19.8465987 551.564071,21.413877 552.415046,22.9973366 C553.266021,24.5807963 554.35396,26.1965472 555.678896,27.8446378 C556.161367,28.4447854 556.650264,29.0499291 557.145588,29.6600711 L557.145588,29.6600711 Z M561.803401,35.3497931 L576.194646,52.9254838 C576.5718,52.1964921 576.917993,51.4357013 577.233228,50.6431108 C578.364271,47.7993466 578.929783,44.6001598 578.929783,41.0454545 L586.297681,41.0454545 C586.297681,45.4403629 585.791413,49.0273299 584.77886,51.8064631 C583.766308,54.5855963 582.62451,56.7614741 581.353434,58.3341619 C581.229851,58.4870702 581.108609,58.6362106 580.98971,58.7815833 L590.175522,70 L580.997965,70 L576.328827,64.3681534 C574.285999,66.4734132 571.770666,68.0652294 568.782766,69.1436435 C565.529672,70.3177734 562.319714,70.9048295 559.152795,70.9048295 C554.800974,70.9048295 551.052432,70.1077258 547.907056,68.5134943 C544.761681,66.9192629 542.338054,64.7326133 540.636104,61.9534801 C538.934155,59.1743469 538.083193,55.9967035 538.083193,52.4204545 C538.083193,49.662865 538.670249,47.2123095 539.844379,45.0687145 C541.018509,42.9251195 542.645031,40.9323601 544.723995,39.0903764 C546.614908,37.4150083 548.768672,35.7352076 551.185343,34.0509324 C550.636716,33.390232 550.104087,32.7487285 549.587454,32.1264205 C547.691611,29.8427916 546.183577,27.591512 545.063306,25.3725142 C543.943035,23.1535164 543.382908,20.7514334 543.382908,18.1661932 C543.382908,15.193167 544.045366,12.5810364 545.370302,10.329723 C546.695238,8.07840967 548.558737,6.32262704 550.960856,5.06232244 C553.362975,3.80201785 556.179767,3.171875 559.411318,3.171875 C562.729042,3.171875 565.583536,3.81278952 567.974883,5.09463778 C570.36623,6.37648605 572.208186,8.06763865 573.500806,10.1681463 C574.793426,12.268654 575.439727,14.5468627 575.439727,17.0028409 C575.439727,20.1697602 574.653395,22.9165367 573.080707,25.2432528 C571.508019,27.569969 569.364456,29.7350752 566.649954,31.7386364 L561.803401,35.3497931 L561.803401,35.3497931 Z M571.745937,58.8403371 L555.921261,39.7528409 C555.917792,39.7486657 555.914324,39.744491 555.910856,39.740317 L553.465295,41.5625 C550.492269,43.7599542 548.477966,45.8927453 547.422326,47.9609375 C546.366686,50.0291297 545.838874,51.5156205 545.838874,52.4204545 C545.838874,54.4886467 546.377458,56.4167761 547.454641,58.2049006 C548.531825,59.993025 550.050631,61.4364292 552.011104,62.5351562 C553.971578,63.6338833 556.265945,64.1832386 558.894272,64.1832386 C561.393338,64.1832386 563.827736,63.6500408 566.197539,62.5836293 C568.205561,61.6800192 570.055014,60.4322646 571.745937,58.8403371 L571.745937,58.8403371 Z M119.111375,170 L103.987795,120.363636 L112.002,120.363636 L122.730693,158.366477 L123.247739,158.366477 L133.84717,120.363636 L141.990636,120.363636 L152.460807,158.237216 L152.977852,158.237216 L163.706545,120.363636 L171.72075,120.363636 L156.59717,170 L149.100011,170 L138.242057,131.867898 L137.466489,131.867898 L126.608534,170 L119.111375,170 Z M197.169423,171.034091 C192.68834,171.034091 188.762066,169.967695 185.390481,167.834872 C182.018897,165.702049 179.390609,162.718296 177.505538,158.883523 C175.620467,155.04875 174.677946,150.567734 174.677946,145.440341 C174.677946,140.269861 175.620467,135.75653 177.505538,131.900213 C179.390609,128.043896 182.018897,125.049371 185.390481,122.916548 C188.762066,120.783725 192.68834,119.71733 197.169423,119.71733 C201.650506,119.71733 205.576781,120.783725 208.948365,122.916548 C212.319949,125.049371 214.948237,128.043896 216.833308,131.900213 C218.718379,135.75653 219.660901,140.269861 219.660901,145.440341 C219.660901,150.567734 218.718379,155.04875 216.833308,158.883523 C214.948237,162.718296 212.319949,165.702049 208.948365,167.834872 C205.576781,169.967695 201.650506,171.034091 197.169423,171.034091 Z M197.169423,164.183239 C200.573323,164.183239 203.373958,163.310733 205.571412,161.565696 C207.768866,159.820659 209.395389,157.526293 210.451028,154.682528 C211.506668,151.838764 212.03448,148.758066 212.03448,145.440341 C212.03448,142.122616 211.506668,139.031146 210.451028,136.165838 C209.395389,133.30053 207.768866,130.984621 205.571412,129.21804 C203.373958,127.451459 200.573323,126.568182 197.169423,126.568182 C193.765524,126.568182 190.964889,127.451459 188.767435,129.21804 C186.56998,130.984621 184.943458,133.30053 183.887818,136.165838 C182.832178,139.031146 182.304366,142.122616 182.304366,145.440341 C182.304366,148.758066 182.832178,151.838764 183.887818,154.682528 C184.943458,157.526293 186.56998,159.820659 188.767435,161.565696 C190.964889,163.310733 193.765524,164.183239 197.169423,164.183239 Z M228.176335,170 L228.176335,120.363636 L235.544233,120.363636 L235.544233,127.860795 L236.061278,127.860795 C236.966112,125.404817 238.603407,123.412058 240.97321,121.882457 C243.343014,120.352857 246.014388,119.588068 248.987415,119.588068 C249.54755,119.588068 250.247709,119.59884 251.087912,119.620384 C251.928115,119.641927 252.563644,119.674242 252.994517,119.71733 L252.994517,127.473011 C252.735993,127.40838 252.148937,127.306049 251.233331,127.166016 C250.317725,127.025982 249.35366,126.955966 248.341108,126.955966 C245.928217,126.955966 243.779268,127.456849 241.894197,128.458629 C240.009126,129.46041 238.522636,130.839184 237.43468,132.594993 C236.346725,134.350802 235.802756,136.348947 235.802756,138.589489 L235.802756,170 L228.176335,170 Z M266.034099,151.903409 L265.904838,142.46733 L267.455974,142.46733 L289.171883,120.363636 L298.607963,120.363636 L275.470179,143.759943 L274.823872,143.759943 L266.034099,151.903409 Z M258.924724,170 L258.924724,103.818182 L266.551145,103.818182 L266.551145,170 L258.924724,170 Z M290.464497,170 L271.075292,145.440341 L276.50427,140.140625 L300.159099,170 L290.464497,170 Z M327.417432,120.363636 L327.417432,126.826705 L300.660329,126.826705 L300.660329,120.363636 L327.417432,120.363636 Z M308.674534,170 L308.674534,113.512784 C308.674534,110.66902 309.342378,108.299252 310.678085,106.403409 C312.013792,104.507566 313.748032,103.085705 315.880855,102.137784 C318.013678,101.189863 320.264958,100.715909 322.634761,100.715909 C324.50906,100.715909 326.038638,100.866713 327.22354,101.168324 C328.408441,101.469935 329.291718,101.749999 329.873397,102.008523 L327.675954,108.600852 C327.288168,108.47159 326.75497,108.310015 326.076345,108.116122 C325.397719,107.922229 324.509056,107.825284 323.410329,107.825284 C320.88972,107.825284 319.074693,108.460813 317.965194,109.731889 C316.855695,111.002966 316.300954,112.866465 316.300954,115.322443 L316.300954,170 L308.674534,170 Z M342.654457,103.818182 L342.654457,170 L335.028037,170 L335.028037,103.818182 L342.654457,103.818182 Z M373.661369,171.034091 C369.180286,171.034091 365.254011,169.967695 361.882427,167.834872 C358.510843,165.702049 355.882555,162.718296 353.997484,158.883523 C352.112413,155.04875 351.169892,150.567734 351.169892,145.440341 C351.169892,140.269861 352.112413,135.75653 353.997484,131.900213 C355.882555,128.043896 358.510843,125.049371 361.882427,122.916548 C365.254011,120.783725 369.180286,119.71733 373.661369,119.71733 C378.142452,119.71733 382.068727,120.783725 385.440311,122.916548 C388.811895,125.049371 391.440183,128.043896 393.325254,131.900213 C395.210325,135.75653 396.152846,140.269861 396.152846,145.440341 C396.152846,150.567734 395.210325,155.04875 393.325254,158.883523 C391.440183,162.718296 388.811895,165.702049 385.440311,167.834872 C382.068727,169.967695 378.142452,171.034091 373.661369,171.034091 Z M373.661369,164.183239 C377.065269,164.183239 379.865903,163.310733 382.063358,161.565696 C384.260812,159.820659 385.887334,157.526293 386.942974,154.682528 C387.998614,151.838764 388.526426,148.758066 388.526426,145.440341 C388.526426,142.122616 387.998614,139.031146 386.942974,136.165838 C385.887334,133.30053 384.260812,130.984621 382.063358,129.21804 C379.865903,127.451459 377.065269,126.568182 373.661369,126.568182 C370.257469,126.568182 367.456834,127.451459 365.25938,129.21804 C363.061926,130.984621 361.435404,133.30053 360.379764,136.165838 C359.324124,139.031146 358.796312,142.122616 358.796312,145.440341 C358.796312,148.758066 359.324124,151.838764 360.379764,154.682528 C361.435404,157.526293 363.061926,159.820659 365.25938,161.565696 C367.456834,163.310733 370.257469,164.183239 373.661369,164.183239 Z M414.233622,170 L399.110042,120.363636 L407.124247,120.363636 L417.85294,158.366477 L418.369985,158.366477 L428.969417,120.363636 L437.112883,120.363636 L447.583054,158.237216 L448.100099,158.237216 L458.828792,120.363636 L466.842997,120.363636 L451.719417,170 L444.222258,170 L433.364304,131.867898 L432.588735,131.867898 L421.730781,170 L414.233622,170 Z M497.317048,170 L497.317048,103.818182 L504.943468,103.818182 L504.943468,128.24858 L505.589775,128.24858 C506.14991,127.386833 506.930857,126.282736 507.932637,124.936257 C508.934418,123.589778 510.377822,122.383351 512.262893,121.316939 C514.147964,120.250527 516.706236,119.71733 519.937786,119.71733 C524.117258,119.71733 527.80117,120.762182 530.989633,122.851918 C534.178096,124.941653 536.666352,127.903863 538.454477,131.738636 C540.242601,135.573409 541.13665,140.097512 541.13665,145.31108 C541.13665,150.567735 540.242601,155.118766 538.454477,158.964311 C536.666352,162.809856 534.188868,165.782838 531.021948,167.883345 C527.855029,169.983853 524.203432,171.034091 520.067048,171.034091 C516.878585,171.034091 514.325698,170.500893 512.408312,169.434482 C510.490925,168.36807 509.015206,167.150871 507.98111,165.782848 C506.947014,164.414825 506.14991,163.278414 505.589775,162.37358 L504.684945,162.37358 L504.684945,170 L497.317048,170 Z M504.814207,145.181818 C504.814207,148.930416 505.363562,152.231934 506.462289,155.08647 C507.561016,157.941006 509.165996,160.170742 511.277275,161.775746 C513.388554,163.380749 515.973756,164.183239 519.032957,164.183239 C522.22142,164.183239 524.887409,163.337662 527.031004,161.646484 C529.174599,159.955306 530.79035,157.671712 531.878305,154.795632 C532.96626,151.919552 533.51023,148.71498 533.51023,145.181818 C533.51023,141.691744 532.977032,138.54103 531.91062,135.729581 C530.844209,132.918132 529.239229,130.688396 527.095634,129.040305 C524.952039,127.392215 522.264507,126.568182 519.032957,126.568182 C515.930669,126.568182 513.323924,127.349128 511.212644,128.911044 C509.101365,130.47296 507.507157,132.648838 506.429974,135.438743 C505.35279,138.228648 504.814207,141.476307 504.814207,145.181818 Z M552.754357,188.484375 C551.461737,188.484375 550.309168,188.382044 549.296616,188.177379 C548.284063,187.972714 547.583905,187.773438 547.196119,187.579545 L549.135039,180.857955 C551.914172,181.568896 554.230082,181.552738 556.082837,180.809482 C557.935593,180.066225 559.540572,177.841875 560.897823,174.136364 L562.319698,170.258523 L543.964585,120.363636 L552.237312,120.363636 L565.939016,159.917614 L566.456062,159.917614 L580.157766,120.363636 L588.495124,120.492898 L567.360891,177.238636 C566.41297,179.759246 565.238858,181.854336 563.838519,183.52397 C562.438181,185.193604 560.817044,186.437733 558.97506,187.256392 C557.133077,188.075051 555.05953,188.484375 552.754357,188.484375 Z" id="Platform-&amp;-workflow-by"></path>
            </g>
        </g>
    </g>
</svg>
