<?xml version="1.0" encoding="UTF-8"?>
<svg width="693px" height="329px" viewBox="0 0 693 329" version="1.1" xmlns="http://www.w3.org/2000/svg" xmlns:xlink="http://www.w3.org/1999/xlink">
    <title>Slash - OMP</title>
    <desc>An official PKP logotype.</desc>
    <g id="Final" stroke="none" stroke-width="1" fill="none" fill-rule="evenodd">
        <g id="Artboard-Copy" transform="translate(-964.000000, -3985.000000)" fill="#000000" fill-rule="nonzero">
            <g id="Slash---OMP" transform="translate(964.000000, 3985.000000)">
                <g id="OMP/PKP" transform="translate(0.116648, 213.000000)">
                    <path d="M57.2550457,115.690608 C16.8223588,115.690608 0,84.2593584 0,57.6977393 C0,33.7922821 17.412617,0 58.140433,0 C91.3424569,0 116.133301,20.9541662 116.133301,55.3367065 C116.133301,88.3911659 92.8181024,115.690608 57.2550457,115.690608 Z M61.2392885,110.083155 C74.5200981,110.083155 101.967105,102.409798 101.967105,59.4685139 C101.967105,24.0530218 80.4226801,5.01719472 57.1074811,5.01719472 C32.4642012,5.01719472 14.0186323,21.2492953 14.0186323,53.5659319 C14.0186323,87.9484722 34.6776694,110.083155 61.2392885,110.083155 Z M232.000987,3.98424287 L241.887811,94.588877 C242.47807,99.9012008 243.511022,108.164816 249.856297,110.230719 C254.135669,111.5588 257.529654,111.5588 259.005299,111.5588 C259.743122,111.5588 260.628509,111.706365 260.628509,112.444188 C260.628509,113.329575 260.185816,113.624704 258.415041,113.624704 C255.168621,113.624704 238.346262,113.18201 232.886374,112.739317 C229.492389,112.444188 228.754566,112.001494 228.754566,111.263671 C228.754566,110.673413 229.049696,110.525848 229.787518,110.230719 C230.82047,109.788026 230.672906,107.574557 230.377777,104.918396 L223.294678,27.8897001 L186.69867,105.508654 C183.599814,112.001494 183.15712,113.329575 181.829039,113.329575 C180.796087,113.329575 180.058265,111.853929 177.254538,106.541606 C173.41786,99.3109426 160.727309,73.7822753 159.989486,72.3066298 C158.661405,69.6504679 141.691482,33.2020239 140.068272,29.217781 L134.018125,98.7206844 C133.87056,101.081717 133.722996,103.147621 133.722996,105.656218 C133.722996,109.345332 135.49377,110.525848 137.707239,110.968542 C140.215836,111.5588 142.134175,111.5588 143.019563,111.5588 C143.90495,111.5588 144.495208,111.853929 144.495208,112.296623 C144.495208,113.329575 143.757385,113.624704 142.28174,113.624704 C136.821851,113.624704 129.296059,113.18201 128.115543,113.18201 C126.787462,113.18201 119.704364,113.624704 115.720121,113.624704 C114.244475,113.624704 113.211523,113.477139 113.211523,112.444188 C113.211523,111.853929 113.949346,111.5588 114.687169,111.5588 C115.867685,111.5588 116.900637,111.5588 119.114105,111.116107 C123.983735,110.230719 124.278865,104.918396 125.016687,98.868249 L135.641335,2.95129101 C135.7889,1.32808096 136.379158,0 137.264545,0 C138.149932,0 138.740191,0.590258203 139.478013,2.21346826 L184.632766,95.0315706 L228.016744,2.36103281 C228.607002,1.03295185 229.19726,0 230.230212,0 C231.263164,0 231.705857,1.18051641 232.000987,3.98424287 Z M269.511895,70.8309843 L269.511895,44.8596234 C269.511895,21.8395535 269.511895,17.7077461 269.216766,12.9856805 C268.921637,7.96848574 267.741121,5.60745293 262.871491,4.57450107 C261.690974,4.27937197 259.182377,4.13180742 257.854296,4.13180742 C257.264038,4.13180742 256.673779,3.83667832 256.673779,3.24642012 C256.673779,2.36103281 257.411602,2.06590371 259.034812,2.06590371 C265.675217,2.06590371 274.52909,2.50859736 275.709606,2.50859736 C278.956027,2.50859736 287.514771,2.06590371 294.30274,2.06590371 C312.748309,2.06590371 319.388713,8.26361484 321.749746,10.4770831 C324.996166,13.5759387 329.127974,20.2163434 329.127974,29.8080392 C329.127974,48.9914308 313.781261,63.1576277 292.827094,63.1576277 C292.089272,63.1576277 290.466062,63.1576277 289.728239,63.0100631 C288.990416,63.0100631 288.105029,62.714934 288.105029,61.9771113 C288.105029,60.7965949 288.990416,60.6490303 292.089272,60.6490303 C306.403033,60.6490303 317.617939,50.90977 317.617939,35.4154922 C317.617939,31.7263784 317.175245,21.8395535 309.354324,13.8710678 C301.533403,5.90258203 292.531965,6.49284023 289.137981,6.49284023 C286.629383,6.49284023 284.120786,6.78796933 282.792705,7.37822753 C281.907318,7.67335664 281.612189,8.70630849 281.612189,10.181954 L281.612189,70.8309843 C281.612189,84.9971812 281.612189,96.6547807 282.350011,102.852492 C282.792705,107.131864 283.678092,110.378284 288.105029,110.968542 C290.170932,111.263671 293.417353,111.5588 294.745434,111.5588 C295.630821,111.5588 295.92595,112.001494 295.92595,112.444188 C295.92595,113.18201 295.188127,113.624704 293.564917,113.624704 C285.448867,113.624704 276.1523,113.18201 275.414477,113.18201 C274.971784,113.18201 265.675217,113.624704 261.248281,113.624704 C259.62507,113.624704 258.887248,113.329575 258.887248,112.444188 C258.887248,112.001494 259.182377,111.5588 260.067764,111.5588 C261.395845,111.5588 263.16662,111.263671 264.494701,110.968542 C267.445992,110.378284 268.183814,107.131864 268.774073,102.852492 C269.511895,96.6547807 269.511895,84.9971812 269.511895,70.8309843 Z" id="OMP"></path>
                    <path d="M358.484466,110.91837 L407.508361,2.1691989 C408.37604,0.289226519 408.80988,0.14461326 409.388333,0.14461326 C410.111399,0.14461326 413.003664,1.59074586 413.726731,2.31381215 C414.449797,3.03687845 414.305184,3.47071823 413.726731,4.77223757 L364.413609,114.389088 C363.835156,115.545994 363.54593,115.690608 363.11209,115.690608 C362.67825,115.690608 359.207532,113.955249 358.484466,113.232182 C357.906013,112.653729 357.906013,112.075276 358.484466,110.91837 Z" id="/"></path>
                    <path d="M456.008765,70.0435726 L456.008765,44.0080849 C456.008765,20.9311753 456.008765,16.7891659 455.712907,12.0554408 C455.417049,7.02585796 454.233618,4.65899544 449.351964,3.62349309 C448.168533,3.32763527 445.653741,3.17970636 444.322381,3.17970636 C443.730665,3.17970636 443.13895,2.88384855 443.13895,2.29213292 C443.13895,1.40455947 443.878594,1.10870166 445.505812,1.10870166 C452.162613,1.10870166 461.038347,1.55248838 462.221779,1.55248838 C465.476215,1.55248838 474.056091,1.10870166 480.860821,1.10870166 C499.351935,1.10870166 506.008735,7.32171578 508.375598,9.54064939 C511.630034,12.6471565 515.772043,19.3039573 515.772043,28.9193363 C515.772043,48.1500943 500.387437,62.3512694 479.381532,62.3512694 C478.641887,62.3512694 477.014669,62.3512694 476.275025,62.2033405 C475.53538,62.2033405 474.647807,61.9074827 474.647807,61.1678381 C474.647807,59.9844069 475.53538,59.836478 478.641887,59.836478 C492.990992,59.836478 504.233588,50.0731701 504.233588,34.5406348 C504.233588,30.8424121 503.789802,20.9311753 495.94957,12.9430143 C488.109338,4.95485325 479.085674,5.54656889 475.683309,5.54656889 C473.168518,5.54656889 470.653726,5.8424267 469.322366,6.43414233 C468.434793,6.73000015 468.138935,7.7655025 468.138935,9.24479158 L468.138935,70.0435726 C468.138935,84.2447477 468.138935,95.9311314 468.87858,102.144146 C469.322366,106.434084 470.20994,109.68852 474.647807,110.280235 C476.718812,110.576093 479.973248,110.871951 481.304608,110.871951 C482.192181,110.871951 482.488039,111.315738 482.488039,111.759525 C482.488039,112.499169 481.748395,112.942956 480.121177,112.942956 C471.985087,112.942956 462.665565,112.499169 461.925921,112.499169 C461.482134,112.499169 452.162613,112.942956 447.724746,112.942956 C446.097528,112.942956 445.357883,112.647098 445.357883,111.759525 C445.357883,111.315738 445.653741,110.871951 446.541315,110.871951 C447.872675,110.871951 449.647822,110.576093 450.979182,110.280235 C453.93776,109.68852 454.677404,106.434084 455.26912,102.144146 C456.008765,95.9311314 456.008765,84.2447477 456.008765,70.0435726 Z M540.875579,44.0080849 L540.875579,53.4755349 C545.461375,49.0376677 565.579706,27.8838339 574.60337,18.5643128 C583.479104,9.39272048 584.07082,7.91343141 584.07082,6.13828452 C584.07082,4.95485325 583.331175,3.77142199 582.147744,3.32763527 C581.112242,2.88384855 580.816384,2.58799073 580.816384,1.9962751 C580.816384,1.40455947 581.703957,1.10870166 583.035318,1.10870166 C587.325256,1.10870166 586.881469,1.55248838 591.911052,1.55248838 C596.496848,1.55248838 605.224654,1.10870166 607.591516,1.10870166 C609.662521,1.10870166 610.106308,1.55248838 610.106308,2.14420401 C610.106308,2.73591964 609.81045,3.03177746 608.47909,3.17970636 C605.66844,3.47556418 603.00572,4.06727981 600.934715,4.95485325 C597.236493,6.43414233 594.425843,8.20928922 585.550109,16.7891659 C572.532365,29.363123 555.66847,46.0790896 551.822318,50.3690279 C561.141839,60.5761225 588.0649,87.9429704 595.017559,94.4518424 C607.14773,105.842368 612.325241,109.096804 619.425829,110.428164 C620.757189,110.724022 622.236478,110.871951 623.715767,110.871951 C624.899198,110.871951 625.786772,111.167809 625.786772,111.907453 C625.786772,112.647098 625.195056,112.942956 623.567838,112.942956 L612.621099,112.942956 C599.751284,112.942956 596.348919,111.315738 589.396261,105.842368 C580.520526,98.8897096 553.893323,70.3394304 540.875579,54.8068951 L540.875579,70.0435726 C540.875579,84.2447477 540.875579,95.9311314 541.615223,102.144146 C542.05901,106.434084 542.946584,109.68852 547.384451,110.280235 C549.455456,110.576093 552.414034,110.871951 553.301607,110.871951 C554.632967,110.871951 555.076754,111.463667 555.076754,111.907453 C555.076754,112.647098 554.485038,112.942956 552.85782,112.942956 C544.72173,112.942956 535.402209,112.499169 534.662565,112.499169 C533.92292,112.499169 525.195115,112.942956 520.757247,112.942956 C519.130029,112.942956 518.390385,112.795027 518.390385,111.907453 C518.390385,111.463667 518.686243,110.871951 520.017603,110.871951 C520.905176,110.871951 522.532394,110.724022 523.863755,110.428164 C526.822333,109.836449 527.709906,106.434084 528.301622,102.144146 C529.041266,95.9311314 529.041266,84.2447477 529.041266,70.0435726 L529.041266,44.0080849 C529.041266,20.9311753 529.041266,16.7891659 528.745408,12.0554408 C528.449551,7.02585796 526.970262,4.51106653 523.715826,3.77142199 C522.088608,3.32763527 519.425887,3.17970636 518.390385,3.17970636 C517.206954,3.17970636 516.763167,2.88384855 516.763167,2.29213292 C516.763167,1.40455947 517.502811,1.10870166 519.130029,1.10870166 C524.011683,1.10870166 533.92292,1.55248838 534.662565,1.55248838 C535.402209,1.55248838 544.72173,1.10870166 549.159598,1.10870166 C550.786816,1.10870166 551.52646,1.40455947 551.52646,2.14420401 C551.52646,2.73591964 551.230602,3.03177746 549.899242,3.17970636 C548.272024,3.32763527 548.124095,3.32763527 546.644806,3.47556418 C542.650726,3.9193509 541.467295,6.87792905 541.171437,12.0554408 C540.875579,16.7891659 540.875579,20.9311753 540.875579,44.0080849 Z M631.215763,70.0435726 L631.215763,44.0080849 C631.215763,20.9311753 631.215763,16.7891659 630.919905,12.0554408 C630.624047,7.02585796 629.440616,4.65899544 624.558962,3.62349309 C623.375531,3.32763527 620.860739,3.17970636 619.529379,3.17970636 C618.937663,3.17970636 618.345948,2.88384855 618.345948,2.29213292 C618.345948,1.40455947 619.085592,1.10870166 620.71281,1.10870166 C627.369611,1.10870166 636.245346,1.55248838 637.428777,1.55248838 C640.683213,1.55248838 649.263089,1.10870166 656.067819,1.10870166 C674.558933,1.10870166 681.215734,7.32171578 683.582596,9.54064939 C686.837032,12.6471565 690.979041,19.3039573 690.979041,28.9193363 C690.979041,48.1500943 675.594435,62.3512694 654.58853,62.3512694 C653.848886,62.3512694 652.221668,62.3512694 651.482023,62.2033405 C650.742379,62.2033405 649.854805,61.9074827 649.854805,61.1678381 C649.854805,59.9844069 650.742379,59.836478 653.848886,59.836478 C668.19799,59.836478 679.440587,50.0731701 679.440587,34.5406348 C679.440587,30.8424121 678.9968,20.9311753 671.156568,12.9430143 C663.316336,4.95485325 654.292672,5.54656889 650.890307,5.54656889 C648.375516,5.54656889 645.860725,5.8424267 644.529364,6.43414233 C643.641791,6.73000015 643.345933,7.7655025 643.345933,9.24479158 L643.345933,70.0435726 C643.345933,84.2447477 643.345933,95.9311314 644.085578,102.144146 C644.529364,106.434084 645.416938,109.68852 649.854805,110.280235 C651.92581,110.576093 655.180246,110.871951 656.511606,110.871951 C657.399179,110.871951 657.695037,111.315738 657.695037,111.759525 C657.695037,112.499169 656.955393,112.942956 655.328175,112.942956 C647.192085,112.942956 637.872564,112.499169 637.132919,112.499169 C636.689132,112.499169 627.369611,112.942956 622.931744,112.942956 C621.304526,112.942956 620.564881,112.647098 620.564881,111.759525 C620.564881,111.315738 620.860739,110.871951 621.748313,110.871951 C623.079673,110.871951 624.85482,110.576093 626.18618,110.280235 C629.144758,109.68852 629.884403,106.434084 630.476118,102.144146 C631.215763,95.9311314 631.215763,84.2447477 631.215763,70.0435726 Z" id="PKP"></path>
                </g>
                <path d="M292.801904,38.21875 L307.020654,38.21875 C310.575359,38.21875 313.429852,37.6047647 315.584219,36.3767756 C317.738586,35.1487865 319.305864,33.4845631 320.286101,31.3840554 C321.266338,29.2835477 321.756449,26.9083939 321.756449,24.2585227 C321.756449,21.6086515 321.266338,19.2388836 320.286101,17.1491477 C319.305864,15.0594119 317.727814,13.4167318 315.551904,12.2210582 C313.375993,11.0253846 310.489185,10.4275568 306.891393,10.4275568 L292.801904,10.4275568 L292.801904,38.21875 L292.801904,38.21875 Z M292.801904,45.328125 L292.801904,69.5 L284.787699,69.5 L284.787699,3.31818182 L307.149915,3.31818182 C312.341939,3.31818182 316.591364,4.2499315 319.898317,6.11345881 C323.20527,7.97698612 325.655826,10.4921717 327.250057,13.6590909 C328.844289,16.8260102 329.641393,20.3591188 329.641393,24.2585227 C329.641393,28.1579267 328.849675,31.701807 327.266215,34.8902699 C325.682755,38.0787328 323.242972,40.6154617 319.94679,42.5005327 C316.650609,44.3856036 312.428113,45.328125 307.279177,45.328125 L292.801904,45.328125 L292.801904,45.328125 Z M346.04177,3.31818182 L346.04177,69.5 L338.41535,69.5 L338.41535,3.31818182 L346.04177,3.31818182 Z M371.490444,70.6633523 C368.345068,70.6633523 365.490575,70.0655244 362.926878,68.8698509 C360.363182,67.6741773 358.327336,65.939938 356.819279,63.667081 C355.311222,61.394224 354.557205,58.6420616 354.557205,55.4105114 C354.557205,52.5667471 355.117332,50.2562234 356.237603,48.4788707 C357.357873,46.7015181 358.855136,45.3065865 360.729435,44.2940341 C362.603734,43.2814817 364.677281,42.5220788 366.950138,42.0158026 C369.222995,41.5095264 371.511976,41.1055886 373.817148,40.8039773 C376.833262,40.4161912 379.283817,40.1199702 381.168888,39.9153054 C383.053959,39.7106405 384.432733,39.3605612 385.305252,38.8650568 C386.17777,38.3695524 386.614023,37.5078186 386.614023,36.2798295 L386.614023,36.0213068 C386.614023,32.8328439 385.746903,30.3553592 384.012638,28.5887784 C382.278373,26.8221976 379.655471,25.9389205 376.143853,25.9389205 C372.502973,25.9389205 369.648479,26.7360242 367.580287,28.3302557 C365.512095,29.9244871 364.057919,31.6264114 363.217716,33.4360795 L355.97908,30.8508523 C357.2717,27.8347387 359.000553,25.4811282 361.165692,23.7899503 C363.330831,22.0987723 365.700599,20.9138883 368.275067,20.2352628 C370.849536,19.5566372 373.386264,19.2173295 375.88533,19.2173295 C377.479561,19.2173295 379.316132,19.4058338 381.395096,19.782848 C383.47406,20.1598622 385.488362,20.9300368 387.438064,22.0933949 C389.387766,23.256753 391.008903,25.0125356 392.301523,27.3607955 C393.594143,29.7090553 394.240444,32.8543837 394.240444,36.796875 L394.240444,69.5 L386.614023,69.5 L386.614023,62.7784091 L386.226239,62.7784091 C385.709191,63.8555925 384.847457,65.0081615 383.641012,66.2361506 C382.434566,67.4641397 380.829587,68.5089919 378.826026,69.3707386 C376.822465,70.2324854 374.377295,70.6633523 371.490444,70.6633523 Z M372.653796,63.8125 C375.669909,63.8125 378.21741,63.220058 380.296374,62.0351563 C382.375338,60.8502545 383.948002,59.320677 385.014414,57.4463778 C386.080825,55.5720787 386.614023,53.6008626 386.614023,51.5326705 L386.614023,44.5525568 C386.290868,44.9403428 385.585324,45.2904222 384.497368,45.6028054 C383.409413,45.9151886 382.159899,46.1844804 380.748789,46.4106889 C379.337678,46.6368974 377.969676,46.8307875 376.64474,46.9923651 C375.319805,47.1539426 374.248023,47.2885885 373.429364,47.3963068 C371.447347,47.6548308 369.600005,48.0695402 367.887283,48.6404474 C366.174561,49.2113547 364.795787,50.0623168 363.750919,51.1933594 C362.706052,52.324402 362.183625,53.8593653 362.183625,55.7982955 C362.183625,58.4481667 363.169233,60.4463119 365.140479,61.7927912 C367.111725,63.1392705 369.616139,63.8125 372.653796,63.8125 Z M426.66923,19.8636364 L426.66923,26.3267045 L400.946219,26.3267045 L400.946219,19.8636364 L426.66923,19.8636364 Z M408.443378,7.97159091 L416.069799,7.97159091 L416.069799,55.28125 C416.069799,57.4356168 416.387563,59.0459819 417.023101,60.1123935 C417.658639,61.178805 418.477287,61.8897354 419.479067,62.245206 C420.480848,62.6006765 421.541857,62.7784091 422.662128,62.7784091 C423.502331,62.7784091 424.191718,62.7299366 424.73031,62.6329901 C425.268902,62.5360435 425.699769,62.455256 426.022924,62.390625 L427.57406,69.2414773 C427.057012,69.4353703 426.33531,69.6346462 425.408932,69.8393111 C424.482554,70.0439759 423.308442,70.1463068 421.88656,70.1463068 C419.732193,70.1463068 417.626331,69.6831249 415.568911,68.7567472 C413.511491,67.8303694 411.809566,66.4192803 410.463087,64.5234375 C409.116608,62.6275947 408.443378,60.2362834 408.443378,57.3494318 L408.443378,7.97159091 Z M457.159097,19.8636364 L457.159097,26.3267045 L430.401995,26.3267045 L430.401995,19.8636364 L457.159097,19.8636364 Z M438.416199,69.5 L438.416199,13.0127841 C438.416199,10.1690199 439.084043,7.7992519 440.41975,5.90340909 C441.755458,4.00756628 443.489697,2.5857055 445.62252,1.63778409 C447.755343,0.689862685 450.006623,0.215909091 452.376426,0.215909091 C454.250726,0.215909091 455.780303,0.366712507 456.965205,0.668323864 C458.150107,0.96993522 459.033384,1.24999871 459.615063,1.50852273 L457.41762,8.10085227 C457.029834,7.97159026 456.496636,7.81001517 455.81801,7.61612216 C455.139385,7.42222914 454.250722,7.32528409 453.151995,7.32528409 C450.631385,7.32528409 448.816359,7.96081277 447.70686,9.2318892 C446.597361,10.5029656 446.04262,12.366465 446.04262,14.8224432 L446.04262,69.5 L438.416199,69.5 Z M482.866293,70.5340909 C478.38521,70.5340909 474.458935,69.4676953 471.087351,67.3348722 C467.715767,65.202049 465.087479,62.2182957 463.202408,58.3835227 C461.317337,54.5487498 460.374816,50.067734 460.374816,44.9403409 C460.374816,39.7698605 461.317337,35.2565297 463.202408,31.4002131 C465.087479,27.5438964 467.715767,24.5493715 471.087351,22.4165483 C474.458935,20.2837251 478.38521,19.2173295 482.866293,19.2173295 C487.347376,19.2173295 491.27365,20.2837251 494.645235,22.4165483 C498.016819,24.5493715 500.645107,27.5438964 502.530178,31.4002131 C504.415249,35.2565297 505.35777,39.7698605 505.35777,44.9403409 C505.35777,50.067734 504.415249,54.5487498 502.530178,58.3835227 C500.645107,62.2182957 498.016819,65.202049 494.645235,67.3348722 C491.27365,69.4676953 487.347376,70.5340909 482.866293,70.5340909 Z M482.866293,63.6832386 C486.270192,63.6832386 489.070827,62.8107332 491.268281,61.065696 C493.465736,59.3206589 495.092258,57.0262926 496.147898,54.1825284 C497.203538,51.3387642 497.73135,48.2580658 497.73135,44.9403409 C497.73135,41.622616 497.203538,38.531146 496.147898,35.6658381 C495.092258,32.8005302 493.465736,30.4846206 491.268281,28.7180398 C489.070827,26.951459 486.270192,26.0681818 482.866293,26.0681818 C479.462393,26.0681818 476.661758,26.951459 474.464304,28.7180398 C472.26685,30.4846206 470.640327,32.8005302 469.584688,35.6658381 C468.529048,38.531146 468.001236,41.622616 468.001236,44.9403409 C468.001236,48.2580658 468.529048,51.3387642 469.584688,54.1825284 C470.640327,57.0262926 472.26685,59.3206589 474.464304,61.065696 C476.661758,62.8107332 479.462393,63.6832386 482.866293,63.6832386 Z M513.873205,69.5 L513.873205,19.8636364 L521.241102,19.8636364 L521.241102,27.3607955 L521.758148,27.3607955 C522.662982,24.9048173 524.300276,22.9120578 526.67008,21.3824574 C529.039883,19.8528569 531.711258,19.0880682 534.684284,19.0880682 C535.24442,19.0880682 535.944578,19.0988399 536.784781,19.1203835 C537.624984,19.1419272 538.260513,19.1742422 538.691386,19.2173295 L538.691386,26.9730114 C538.432862,26.9083804 537.845806,26.8060495 536.9302,26.6660156 C536.014595,26.5259818 535.05053,26.4559659 534.037977,26.4559659 C531.625087,26.4559659 529.476138,26.9568487 527.591067,27.9586293 C525.705996,28.9604098 524.219505,30.3391839 523.13155,32.0949929 C522.043595,33.8508019 521.499625,35.8489471 521.499625,38.0894886 L521.499625,69.5 L513.873205,69.5 Z M544.621594,69.5 L544.621594,19.8636364 L551.989492,19.8636364 L551.989492,27.6193182 L552.635798,27.6193182 C553.669894,24.969447 555.339504,22.9066717 557.644676,21.4309304 C559.949849,19.9551891 562.718169,19.2173295 565.949719,19.2173295 C569.224356,19.2173295 571.954975,19.9551891 574.141658,21.4309304 C576.32834,22.9066717 578.03565,24.969447 579.263639,27.6193182 L579.780685,27.6193182 C581.051761,25.0556217 582.958347,23.0143897 585.5005,21.4955611 C588.042653,19.9767325 591.091036,19.2173295 594.645742,19.2173295 C599.083737,19.2173295 602.713791,20.6014895 605.536011,23.3698509 C608.358232,26.1382122 609.769321,30.4414954 609.769321,36.2798295 L609.769321,69.5 L602.142901,69.5 L602.142901,36.2798295 C602.142901,32.6174059 601.141135,29.9998895 599.137574,28.4272017 C597.134013,26.8545139 594.775016,26.0681818 592.060514,26.0681818 C588.57044,26.0681818 585.86675,27.1184199 583.949364,29.2189276 C582.031977,31.3194352 581.073298,33.9746525 581.073298,37.1846591 L581.073298,69.5 L573.317617,69.5 L573.317617,35.5042614 C573.317617,32.6820408 572.402024,30.4038321 570.570813,28.6695668 C568.739601,26.9353015 566.380604,26.0681818 563.493753,26.0681818 C561.511735,26.0681818 559.664394,26.5959938 557.951672,27.6516335 C556.23895,28.7072733 554.860176,30.1668349 553.815308,32.0303622 C552.77044,33.8938895 552.248014,36.0428382 552.248014,38.4772727 L552.248014,69.5 L544.621594,69.5 Z M659.822813,29.1600711 L664.156724,25.9389205 C666.031024,24.7109314 667.533672,23.3967873 668.664714,21.9964489 C669.795757,20.5961104 670.36127,18.7649261 670.36127,16.5028409 C670.36127,14.8224348 669.62341,13.1959122 668.147669,11.6232244 C666.671928,10.0505366 664.738412,9.26420455 662.347065,9.26420455 C660.666659,9.26420455 659.185554,9.68968561 657.903706,10.5406605 C656.621858,11.3916354 655.620092,12.4688027 654.898379,13.7721946 C654.176666,15.0755865 653.815815,16.4166598 653.815815,17.7954545 C653.815815,19.3465987 654.241296,20.913877 655.092271,22.4973366 C655.943246,24.0807963 657.031185,25.6965472 658.356121,27.3446378 C658.838592,27.9447854 659.327489,28.5499291 659.822813,29.1600711 L659.822813,29.1600711 Z M664.480626,34.8497931 L678.871871,52.4254838 C679.249025,51.6964921 679.595218,50.9357013 679.910453,50.1431108 C681.041496,47.2993466 681.607008,44.1001598 681.607008,40.5454545 L688.974906,40.5454545 C688.974906,44.9403629 688.468638,48.5273299 687.456085,51.3064631 C686.443533,54.0855963 685.301735,56.2614741 684.030659,57.8341619 C683.907076,57.9870702 683.785834,58.1362106 683.666935,58.2815833 L692.852747,69.5 L683.67519,69.5 L679.006053,63.8681534 C676.963224,65.9734132 674.447891,67.5652294 671.459991,68.6436435 C668.206897,69.8177734 664.996939,70.4048295 661.83002,70.4048295 C657.478199,70.4048295 653.729657,69.6077258 650.584281,68.0134943 C647.438906,66.4192629 645.015279,64.2326133 643.313329,61.4534801 C641.61138,58.6743469 640.760418,55.4967035 640.760418,51.9204545 C640.760418,49.162865 641.347474,46.7123095 642.521604,44.5687145 C643.695734,42.4251195 645.322256,40.4323601 647.40122,38.5903764 C649.292133,36.9150083 651.445897,35.2352076 653.862568,33.5509324 C653.313941,32.890232 652.781312,32.2487285 652.264679,31.6264205 C650.368836,29.3427916 648.860802,27.091512 647.740531,24.8725142 C646.62026,22.6535164 646.060133,20.2514334 646.060133,17.6661932 C646.060133,14.693167 646.722591,12.0810364 648.047527,9.82972301 C649.372463,7.57840967 651.235962,5.82262704 653.638081,4.56232244 C656.0402,3.30201785 658.856992,2.671875 662.088543,2.671875 C665.406267,2.671875 668.260761,3.31278952 670.652108,4.59463778 C673.043455,5.87648605 674.885411,7.56763865 676.178031,9.66814631 C677.470651,11.768654 678.116952,14.0468627 678.116952,16.5028409 C678.116952,19.6697602 677.33062,22.4165367 675.757932,24.7432528 C674.185244,27.069969 672.041681,29.2350752 669.327179,31.2386364 L664.480626,34.8497931 L664.480626,34.8497931 Z M674.423162,58.3403371 L658.598486,39.2528409 C658.595017,39.2486657 658.591549,39.244491 658.588081,39.240317 L656.14252,41.0625 C653.169494,43.2599542 651.155191,45.3927453 650.099551,47.4609375 C649.043911,49.5291297 648.516099,51.0156205 648.516099,51.9204545 C648.516099,53.9886467 649.054683,55.9167761 650.131866,57.7049006 C651.20905,59.493025 652.727856,60.9364292 654.688329,62.0351563 C656.648803,63.1338833 658.94317,63.6832386 661.571497,63.6832386 C664.070563,63.6832386 666.504961,63.1500408 668.874764,62.0836293 C670.882786,61.1800192 672.732239,59.9322646 674.423162,58.3403371 L674.423162,58.3403371 Z M221.7886,169.5 L206.66502,119.863636 L214.679225,119.863636 L225.407918,157.866477 L225.924964,157.866477 L236.524395,119.863636 L244.667861,119.863636 L255.138032,157.737216 L255.655077,157.737216 L266.38377,119.863636 L274.397975,119.863636 L259.274395,169.5 L251.777236,169.5 L240.919282,131.367898 L240.143714,131.367898 L229.285759,169.5 L221.7886,169.5 Z M299.846648,170.534091 C295.365565,170.534091 291.439291,169.467695 288.067706,167.334872 C284.696122,165.202049 282.067834,162.218296 280.182763,158.383523 C278.297692,154.54875 277.355171,150.067734 277.355171,144.940341 C277.355171,139.769861 278.297692,135.25653 280.182763,131.400213 C282.067834,127.543896 284.696122,124.549371 288.067706,122.416548 C291.439291,120.283725 295.365565,119.21733 299.846648,119.21733 C304.327731,119.21733 308.254006,120.283725 311.62559,122.416548 C314.997174,124.549371 317.625462,127.543896 319.510533,131.400213 C321.395604,135.25653 322.338126,139.769861 322.338126,144.940341 C322.338126,150.067734 321.395604,154.54875 319.510533,158.383523 C317.625462,162.218296 314.997174,165.202049 311.62559,167.334872 C308.254006,169.467695 304.327731,170.534091 299.846648,170.534091 Z M299.846648,163.683239 C303.250548,163.683239 306.051183,162.810733 308.248637,161.065696 C310.446091,159.320659 312.072614,157.026293 313.128253,154.182528 C314.183893,151.338764 314.711705,148.258066 314.711705,144.940341 C314.711705,141.622616 314.183893,138.531146 313.128253,135.665838 C312.072614,132.80053 310.446091,130.484621 308.248637,128.71804 C306.051183,126.951459 303.250548,126.068182 299.846648,126.068182 C296.442749,126.068182 293.642114,126.951459 291.44466,128.71804 C289.247205,130.484621 287.620683,132.80053 286.565043,135.665838 C285.509403,138.531146 284.981591,141.622616 284.981591,144.940341 C284.981591,148.258066 285.509403,151.338764 286.565043,154.182528 C287.620683,157.026293 289.247205,159.320659 291.44466,161.065696 C293.642114,162.810733 296.442749,163.683239 299.846648,163.683239 Z M330.85356,169.5 L330.85356,119.863636 L338.221458,119.863636 L338.221458,127.360795 L338.738503,127.360795 C339.643337,124.904817 341.280632,122.912058 343.650435,121.382457 C346.020239,119.852857 348.691613,119.088068 351.66464,119.088068 C352.224775,119.088068 352.924934,119.09884 353.765137,119.120384 C354.60534,119.141927 355.240869,119.174242 355.671742,119.21733 L355.671742,126.973011 C355.413218,126.90838 354.826162,126.806049 353.910556,126.666016 C352.99495,126.525982 352.030885,126.455966 351.018333,126.455966 C348.605442,126.455966 346.456493,126.956849 344.571422,127.958629 C342.686351,128.96041 341.199861,130.339184 340.111905,132.094993 C339.02395,133.850802 338.479981,135.848947 338.479981,138.089489 L338.479981,169.5 L330.85356,169.5 Z M368.711324,151.403409 L368.582063,141.96733 L370.133199,141.96733 L391.849108,119.863636 L401.285188,119.863636 L378.147404,143.259943 L377.501097,143.259943 L368.711324,151.403409 Z M361.601949,169.5 L361.601949,103.318182 L369.22837,103.318182 L369.22837,169.5 L361.601949,169.5 Z M393.141722,169.5 L373.752517,144.940341 L379.181495,139.640625 L402.836324,169.5 L393.141722,169.5 Z M430.094657,119.863636 L430.094657,126.326705 L403.337554,126.326705 L403.337554,119.863636 L430.094657,119.863636 Z M411.351759,169.5 L411.351759,113.012784 C411.351759,110.16902 412.019603,107.799252 413.35531,105.903409 C414.691017,104.007566 416.425257,102.585705 418.55808,101.637784 C420.690903,100.689863 422.942183,100.215909 425.311986,100.215909 C427.186285,100.215909 428.715863,100.366713 429.900765,100.668324 C431.085666,100.969935 431.968943,101.249999 432.550622,101.508523 L430.353179,108.100852 C429.965393,107.97159 429.432195,107.810015 428.75357,107.616122 C428.074944,107.422229 427.186281,107.325284 426.087554,107.325284 C423.566945,107.325284 421.751918,107.960813 420.642419,109.231889 C419.53292,110.502966 418.978179,112.366465 418.978179,114.822443 L418.978179,169.5 L411.351759,169.5 Z M445.331682,103.318182 L445.331682,169.5 L437.705262,169.5 L437.705262,103.318182 L445.331682,103.318182 Z M476.338594,170.534091 C471.857511,170.534091 467.931236,169.467695 464.559652,167.334872 C461.188068,165.202049 458.55978,162.218296 456.674709,158.383523 C454.789638,154.54875 453.847117,150.067734 453.847117,144.940341 C453.847117,139.769861 454.789638,135.25653 456.674709,131.400213 C458.55978,127.543896 461.188068,124.549371 464.559652,122.416548 C467.931236,120.283725 471.857511,119.21733 476.338594,119.21733 C480.819677,119.21733 484.745952,120.283725 488.117536,122.416548 C491.48912,124.549371 494.117408,127.543896 496.002479,131.400213 C497.88755,135.25653 498.830071,139.769861 498.830071,144.940341 C498.830071,150.067734 497.88755,154.54875 496.002479,158.383523 C494.117408,162.218296 491.48912,165.202049 488.117536,167.334872 C484.745952,169.467695 480.819677,170.534091 476.338594,170.534091 Z M476.338594,163.683239 C479.742494,163.683239 482.543128,162.810733 484.740583,161.065696 C486.938037,159.320659 488.564559,157.026293 489.620199,154.182528 C490.675839,151.338764 491.203651,148.258066 491.203651,144.940341 C491.203651,141.622616 490.675839,138.531146 489.620199,135.665838 C488.564559,132.80053 486.938037,130.484621 484.740583,128.71804 C482.543128,126.951459 479.742494,126.068182 476.338594,126.068182 C472.934694,126.068182 470.134059,126.951459 467.936605,128.71804 C465.739151,130.484621 464.112629,132.80053 463.056989,135.665838 C462.001349,138.531146 461.473537,141.622616 461.473537,144.940341 C461.473537,148.258066 462.001349,151.338764 463.056989,154.182528 C464.112629,157.026293 465.739151,159.320659 467.936605,161.065696 C470.134059,162.810733 472.934694,163.683239 476.338594,163.683239 Z M516.910847,169.5 L501.787267,119.863636 L509.801472,119.863636 L520.530165,157.866477 L521.04721,157.866477 L531.646642,119.863636 L539.790108,119.863636 L550.260279,157.737216 L550.777324,157.737216 L561.506017,119.863636 L569.520222,119.863636 L554.396642,169.5 L546.899483,169.5 L536.041529,131.367898 L535.26596,131.367898 L524.408006,169.5 L516.910847,169.5 Z M599.994273,169.5 L599.994273,103.318182 L607.620693,103.318182 L607.620693,127.74858 L608.267,127.74858 C608.827135,126.886833 609.608082,125.782736 610.609862,124.436257 C611.611643,123.089778 613.055047,121.883351 614.940118,120.816939 C616.825189,119.750527 619.383461,119.21733 622.615011,119.21733 C626.794483,119.21733 630.478395,120.262182 633.666858,122.351918 C636.855321,124.441653 639.343577,127.403863 641.131702,131.238636 C642.919826,135.073409 643.813875,139.597512 643.813875,144.81108 C643.813875,150.067735 642.919826,154.618766 641.131702,158.464311 C639.343577,162.309856 636.866093,165.282838 633.699173,167.383345 C630.532254,169.483853 626.880657,170.534091 622.744273,170.534091 C619.55581,170.534091 617.002923,170.000893 615.085537,168.934482 C613.16815,167.86807 611.692431,166.650871 610.658335,165.282848 C609.624239,163.914825 608.827135,162.778414 608.267,161.87358 L607.36217,161.87358 L607.36217,169.5 L599.994273,169.5 Z M607.491432,144.681818 C607.491432,148.430416 608.040787,151.731934 609.139514,154.58647 C610.238241,157.441006 611.843221,159.670742 613.9545,161.275746 C616.06578,162.880749 618.650981,163.683239 621.710182,163.683239 C624.898645,163.683239 627.564634,162.837662 629.708229,161.146484 C631.851824,159.455306 633.467575,157.171712 634.55553,154.295632 C635.643485,151.419552 636.187455,148.21498 636.187455,144.681818 C636.187455,141.191744 635.654257,138.04103 634.587845,135.229581 C633.521434,132.418132 631.916454,130.188396 629.772859,128.540305 C627.629264,126.892215 624.941732,126.068182 621.710182,126.068182 C618.607894,126.068182 616.001149,126.849128 613.889869,128.411044 C611.77859,129.97296 610.184382,132.148838 609.107199,134.938743 C608.030015,137.728648 607.491432,140.976307 607.491432,144.681818 Z M655.431582,187.984375 C654.138962,187.984375 652.986393,187.882044 651.973841,187.677379 C650.961288,187.472714 650.26113,187.273438 649.873344,187.079545 L651.812264,180.357955 C654.591397,181.068896 656.907307,181.052738 658.760062,180.309482 C660.612818,179.566225 662.217797,177.341875 663.575048,173.636364 L664.996923,169.758523 L646.64181,119.863636 L654.914537,119.863636 L668.616241,159.417614 L669.133287,159.417614 L682.834991,119.863636 L691.172349,119.992898 L670.038116,176.738636 C669.090195,179.259246 667.916083,181.354336 666.515744,183.02397 C665.115406,184.693604 663.494269,185.937733 661.652285,186.756392 C659.810302,187.575051 657.736755,187.984375 655.431582,187.984375 Z" id="Platform-&amp;-workflow-by"></path>
            </g>
        </g>
    </g>
</svg>
