<?xml version="1.0" encoding="UTF-8"?>
<svg width="619px" height="331px" viewBox="0 0 619 331" version="1.1" xmlns="http://www.w3.org/2000/svg" xmlns:xlink="http://www.w3.org/1999/xlink">
    <title>Slash - OPS</title>
    <desc>An official PKP logotype.</desc>
    <g id="Final" stroke="none" stroke-width="1" fill="none" fill-rule="evenodd">
        <g id="Artboard-Copy" transform="translate(-271.000000, -3493.000000)" fill="#000000" fill-rule="nonzero">
            <g id="Slash---OPS" transform="translate(72.500000, 3480.000000)">
                <g id="OPS/PKP" transform="translate(199.116648, 226.000000)">
                    <path d="M57.2550457,116.690608 C16.8223588,116.690608 0,85.2593584 0,58.6977393 C0,34.7922821 17.412617,1 58.140433,1 C91.3424569,1 116.133301,21.9541662 116.133301,56.3367065 C116.133301,89.3911659 92.8181024,116.690608 57.2550457,116.690608 Z M61.2392885,111.083155 C74.5200981,111.083155 101.967105,103.409798 101.967105,60.4685139 C101.967105,25.0530218 80.4226801,6.01719472 57.1074811,6.01719472 C32.4642012,6.01719472 14.0186323,22.2492953 14.0186323,54.5659319 C14.0186323,88.9484722 34.6776694,111.083155 61.2392885,111.083155 Z M134.511895,71.8309843 L134.511895,45.8596234 C134.511895,22.8395535 134.511895,18.7077461 134.216766,13.9856805 C133.921637,8.96848574 132.741121,6.60745293 127.871491,5.57450107 C126.690974,5.27937197 124.182377,5.13180742 122.854296,5.13180742 C122.264038,5.13180742 121.673779,4.83667832 121.673779,4.24642012 C121.673779,3.36103281 122.411602,3.06590371 124.034812,3.06590371 C130.675217,3.06590371 139.52909,3.50859736 140.709606,3.50859736 C143.956027,3.50859736 152.514771,3.06590371 159.30274,3.06590371 C177.748309,3.06590371 184.388713,9.26361484 186.749746,11.4770831 C189.996166,14.5759387 194.127974,21.2163434 194.127974,30.8080392 C194.127974,49.9914308 178.781261,64.1576277 157.827094,64.1576277 C157.089272,64.1576277 155.466062,64.1576277 154.728239,64.0100631 C153.990416,64.0100631 153.105029,63.714934 153.105029,62.9771113 C153.105029,61.7965949 153.990416,61.6490303 157.089272,61.6490303 C171.403033,61.6490303 182.617939,51.90977 182.617939,36.4154922 C182.617939,32.7263784 182.175245,22.8395535 174.354324,14.8710678 C166.533403,6.90258203 157.531965,7.49284023 154.137981,7.49284023 C151.629383,7.49284023 149.120786,7.78796933 147.792705,8.37822753 C146.907318,8.67335664 146.612189,9.70630849 146.612189,11.181954 L146.612189,71.8309843 C146.612189,85.9971812 146.612189,97.6547807 147.350011,103.852492 C147.792705,108.131864 148.678092,111.378284 153.105029,111.968542 C155.170932,112.263671 158.417353,112.5588 159.745434,112.5588 C160.630821,112.5588 160.92595,113.001494 160.92595,113.444188 C160.92595,114.18201 160.188127,114.624704 158.564917,114.624704 C150.448867,114.624704 141.1523,114.18201 140.414477,114.18201 C139.971784,114.18201 130.675217,114.624704 126.248281,114.624704 C124.62507,114.624704 123.887248,114.329575 123.887248,113.444188 C123.887248,113.001494 124.182377,112.5588 125.067764,112.5588 C126.395845,112.5588 128.16662,112.263671 129.494701,111.968542 C132.445992,111.378284 133.183814,108.131864 133.774073,103.852492 C134.511895,97.6547807 134.511895,85.9971812 134.511895,71.8309843 Z M226.268496,117.545946 C219.397861,117.545946 212.67341,116.502579 206.679877,113.521531 C204.633305,112.478164 204.487121,111.881954 204.487121,107.857539 C204.487121,100.404917 205.071856,94.4428202 205.21804,92.0579814 C205.364223,90.4184047 205.656591,89.6731426 206.387509,89.6731426 C207.264612,89.6731426 207.410796,90.1202998 207.410796,91.3127192 C207.410796,92.6541911 207.410796,94.740925 207.849347,96.827659 C210.042103,107.857539 219.690228,112.031006 229.484538,112.031006 C243.518175,112.031006 250.38881,101.746389 250.38881,92.2070338 C250.38881,81.9224164 246.149482,75.9603194 233.577682,65.3775971 L226.999414,59.8626573 C211.50394,46.8950963 207.99553,37.6538459 207.99553,27.5182809 C207.99553,11.5696713 219.690228,0.688844221 238.255561,0.688844221 C243.956726,0.688844221 248.196054,1.28505393 251.850647,2.17936848 C254.628138,2.77557819 255.797608,2.92463061 256.967078,2.92463061 C258.136547,2.92463061 258.428915,3.22273546 258.428915,3.96799759 C258.428915,4.71325972 257.84418,9.63198978 257.84418,19.7675548 C257.84418,22.1523936 257.551813,23.1957605 256.820894,23.1957605 C255.943792,23.1957605 255.797608,22.4504984 255.651424,21.258079 C255.50524,19.4694499 254.628138,15.4450344 253.751036,13.8054577 C252.873933,12.165881 248.926973,5.90567913 235.47807,5.90567913 C225.391393,5.90567913 217.497472,12.3149335 217.497472,23.1957605 C217.497472,31.6917488 221.298249,37.0576362 235.331887,48.2365681 L239.425031,51.5157215 C256.67471,65.3775971 260.767854,74.6188475 260.767854,86.5430416 C260.767854,92.6541911 258.428915,103.982175 248.342238,111.285744 C242.056338,115.757317 234.162417,117.545946 226.268496,117.545946 Z" id="OPS"></path>
                    <path d="M283.484466,111.91837 L332.508361,3.1691989 C333.37604,1.28922652 333.80988,1.14461326 334.388333,1.14461326 C335.111399,1.14461326 338.003664,2.59074586 338.726731,3.31381215 C339.449797,4.03687845 339.305184,4.47071823 338.726731,5.77223757 L289.413609,115.389088 C288.835156,116.545994 288.54593,116.690608 288.11209,116.690608 C287.67825,116.690608 284.207532,114.955249 283.484466,114.232182 C282.906013,113.653729 282.906013,113.075276 283.484466,111.91837 Z" id="/"></path>
                    <path d="M381.008765,71.0435726 L381.008765,45.0080849 C381.008765,21.9311753 381.008765,17.7891659 380.712907,13.0554408 C380.417049,8.02585796 379.233618,5.65899544 374.351964,4.62349309 C373.168533,4.32763527 370.653741,4.17970636 369.322381,4.17970636 C368.730665,4.17970636 368.13895,3.88384855 368.13895,3.29213292 C368.13895,2.40455947 368.878594,2.10870166 370.505812,2.10870166 C377.162613,2.10870166 386.038347,2.55248838 387.221779,2.55248838 C390.476215,2.55248838 399.056091,2.10870166 405.860821,2.10870166 C424.351935,2.10870166 431.008735,8.32171578 433.375598,10.5406494 C436.630034,13.6471565 440.772043,20.3039573 440.772043,29.9193363 C440.772043,49.1500943 425.387437,63.3512694 404.381532,63.3512694 C403.641887,63.3512694 402.014669,63.3512694 401.275025,63.2033405 C400.53538,63.2033405 399.647807,62.9074827 399.647807,62.1678381 C399.647807,60.9844069 400.53538,60.836478 403.641887,60.836478 C417.990992,60.836478 429.233588,51.0731701 429.233588,35.5406348 C429.233588,31.8424121 428.789802,21.9311753 420.94957,13.9430143 C413.109338,5.95485325 404.085674,6.54656889 400.683309,6.54656889 C398.168518,6.54656889 395.653726,6.8424267 394.322366,7.43414233 C393.434793,7.73000015 393.138935,8.7655025 393.138935,10.2447916 L393.138935,71.0435726 C393.138935,85.2447477 393.138935,96.9311314 393.87858,103.144146 C394.322366,107.434084 395.20994,110.68852 399.647807,111.280235 C401.718812,111.576093 404.973248,111.871951 406.304608,111.871951 C407.192181,111.871951 407.488039,112.315738 407.488039,112.759525 C407.488039,113.499169 406.748395,113.942956 405.121177,113.942956 C396.985087,113.942956 387.665565,113.499169 386.925921,113.499169 C386.482134,113.499169 377.162613,113.942956 372.724746,113.942956 C371.097528,113.942956 370.357883,113.647098 370.357883,112.759525 C370.357883,112.315738 370.653741,111.871951 371.541315,111.871951 C372.872675,111.871951 374.647822,111.576093 375.979182,111.280235 C378.93776,110.68852 379.677404,107.434084 380.26912,103.144146 C381.008765,96.9311314 381.008765,85.2447477 381.008765,71.0435726 Z M465.875579,45.0080849 L465.875579,54.4755349 C470.461375,50.0376677 490.579706,28.8838339 499.60337,19.5643128 C508.479104,10.3927205 509.07082,8.91343141 509.07082,7.13828452 C509.07082,5.95485325 508.331175,4.77142199 507.147744,4.32763527 C506.112242,3.88384855 505.816384,3.58799073 505.816384,2.9962751 C505.816384,2.40455947 506.703957,2.10870166 508.035318,2.10870166 C512.325256,2.10870166 511.881469,2.55248838 516.911052,2.55248838 C521.496848,2.55248838 530.224654,2.10870166 532.591516,2.10870166 C534.662521,2.10870166 535.106308,2.55248838 535.106308,3.14420401 C535.106308,3.73591964 534.81045,4.03177746 533.47909,4.17970636 C530.66844,4.47556418 528.00572,5.06727981 525.934715,5.95485325 C522.236493,7.43414233 519.425843,9.20928922 510.550109,17.7891659 C497.532365,30.363123 480.66847,47.0790896 476.822318,51.3690279 C486.141839,61.5761225 513.0649,88.9429704 520.017559,95.4518424 C532.14773,106.842368 537.325241,110.096804 544.425829,111.428164 C545.757189,111.724022 547.236478,111.871951 548.715767,111.871951 C549.899198,111.871951 550.786772,112.167809 550.786772,112.907453 C550.786772,113.647098 550.195056,113.942956 548.567838,113.942956 L537.621099,113.942956 C524.751284,113.942956 521.348919,112.315738 514.396261,106.842368 C505.520526,99.8897096 478.893323,71.3394304 465.875579,55.8068951 L465.875579,71.0435726 C465.875579,85.2447477 465.875579,96.9311314 466.615223,103.144146 C467.05901,107.434084 467.946584,110.68852 472.384451,111.280235 C474.455456,111.576093 477.414034,111.871951 478.301607,111.871951 C479.632967,111.871951 480.076754,112.463667 480.076754,112.907453 C480.076754,113.647098 479.485038,113.942956 477.85782,113.942956 C469.72173,113.942956 460.402209,113.499169 459.662565,113.499169 C458.92292,113.499169 450.195115,113.942956 445.757247,113.942956 C444.130029,113.942956 443.390385,113.795027 443.390385,112.907453 C443.390385,112.463667 443.686243,111.871951 445.017603,111.871951 C445.905176,111.871951 447.532394,111.724022 448.863755,111.428164 C451.822333,110.836449 452.709906,107.434084 453.301622,103.144146 C454.041266,96.9311314 454.041266,85.2447477 454.041266,71.0435726 L454.041266,45.0080849 C454.041266,21.9311753 454.041266,17.7891659 453.745408,13.0554408 C453.449551,8.02585796 451.970262,5.51106653 448.715826,4.77142199 C447.088608,4.32763527 444.425887,4.17970636 443.390385,4.17970636 C442.206954,4.17970636 441.763167,3.88384855 441.763167,3.29213292 C441.763167,2.40455947 442.502811,2.10870166 444.130029,2.10870166 C449.011683,2.10870166 458.92292,2.55248838 459.662565,2.55248838 C460.402209,2.55248838 469.72173,2.10870166 474.159598,2.10870166 C475.786816,2.10870166 476.52646,2.40455947 476.52646,3.14420401 C476.52646,3.73591964 476.230602,4.03177746 474.899242,4.17970636 C473.272024,4.32763527 473.124095,4.32763527 471.644806,4.47556418 C467.650726,4.9193509 466.467295,7.87792905 466.171437,13.0554408 C465.875579,17.7891659 465.875579,21.9311753 465.875579,45.0080849 Z M556.215763,71.0435726 L556.215763,45.0080849 C556.215763,21.9311753 556.215763,17.7891659 555.919905,13.0554408 C555.624047,8.02585796 554.440616,5.65899544 549.558962,4.62349309 C548.375531,4.32763527 545.860739,4.17970636 544.529379,4.17970636 C543.937663,4.17970636 543.345948,3.88384855 543.345948,3.29213292 C543.345948,2.40455947 544.085592,2.10870166 545.71281,2.10870166 C552.369611,2.10870166 561.245346,2.55248838 562.428777,2.55248838 C565.683213,2.55248838 574.263089,2.10870166 581.067819,2.10870166 C599.558933,2.10870166 606.215734,8.32171578 608.582596,10.5406494 C611.837032,13.6471565 615.979041,20.3039573 615.979041,29.9193363 C615.979041,49.1500943 600.594435,63.3512694 579.58853,63.3512694 C578.848886,63.3512694 577.221668,63.3512694 576.482023,63.2033405 C575.742379,63.2033405 574.854805,62.9074827 574.854805,62.1678381 C574.854805,60.9844069 575.742379,60.836478 578.848886,60.836478 C593.19799,60.836478 604.440587,51.0731701 604.440587,35.5406348 C604.440587,31.8424121 603.9968,21.9311753 596.156568,13.9430143 C588.316336,5.95485325 579.292672,6.54656889 575.890307,6.54656889 C573.375516,6.54656889 570.860725,6.8424267 569.529364,7.43414233 C568.641791,7.73000015 568.345933,8.7655025 568.345933,10.2447916 L568.345933,71.0435726 C568.345933,85.2447477 568.345933,96.9311314 569.085578,103.144146 C569.529364,107.434084 570.416938,110.68852 574.854805,111.280235 C576.92581,111.576093 580.180246,111.871951 581.511606,111.871951 C582.399179,111.871951 582.695037,112.315738 582.695037,112.759525 C582.695037,113.499169 581.955393,113.942956 580.328175,113.942956 C572.192085,113.942956 562.872564,113.499169 562.132919,113.499169 C561.689132,113.499169 552.369611,113.942956 547.931744,113.942956 C546.304526,113.942956 545.564881,113.647098 545.564881,112.759525 C545.564881,112.315738 545.860739,111.871951 546.748313,111.871951 C548.079673,111.871951 549.85482,111.576093 551.18618,111.280235 C554.144758,110.68852 554.884403,107.434084 555.476118,103.144146 C556.215763,96.9311314 556.215763,85.2447477 556.215763,71.0435726 Z" id="PKP"></path>
                </g>
                <path d="M416.762018,51.71875 L430.980768,51.71875 C434.535473,51.71875 437.389966,51.1047647 439.544333,49.8767756 C441.6987,48.6487865 443.265978,46.9845631 444.246215,44.8840554 C445.226452,42.7835477 445.716563,40.4083939 445.716563,37.7585227 C445.716563,35.1086515 445.226452,32.7388836 444.246215,30.6491477 C443.265978,28.5594119 441.687928,26.9167318 439.512018,25.7210582 C437.336107,24.5253846 434.449299,23.9275568 430.851507,23.9275568 L416.762018,23.9275568 L416.762018,51.71875 L416.762018,51.71875 Z M416.762018,58.828125 L416.762018,83 L408.747813,83 L408.747813,16.8181818 L431.110029,16.8181818 C436.302053,16.8181818 440.551478,17.7499315 443.858431,19.6134588 C447.165384,21.4769861 449.61594,23.9921717 451.210171,27.1590909 C452.804403,30.3260102 453.601507,33.8591188 453.601507,37.7585227 C453.601507,41.6579267 452.809789,45.201807 451.226329,48.3902699 C449.642869,51.5787328 447.203086,54.1154617 443.906904,56.0005327 C440.610723,57.8856036 436.388227,58.828125 431.239291,58.828125 L416.762018,58.828125 L416.762018,58.828125 Z M470.001884,16.8181818 L470.001884,83 L462.375464,83 L462.375464,16.8181818 L470.001884,16.8181818 Z M495.450558,84.1633523 C492.305182,84.1633523 489.450689,83.5655244 486.886992,82.3698509 C484.323296,81.1741773 482.28745,79.439938 480.779393,77.167081 C479.271336,74.894224 478.517319,72.1420616 478.517319,68.9105114 C478.517319,66.0667471 479.077446,63.7562234 480.197717,61.9788707 C481.317987,60.2015181 482.81525,58.8065865 484.689549,57.7940341 C486.563848,56.7814817 488.637395,56.0220788 490.910252,55.5158026 C493.183109,55.0095264 495.47209,54.6055886 497.777262,54.3039773 C500.793376,53.9161912 503.243931,53.6199702 505.129002,53.4153054 C507.014073,53.2106405 508.392847,52.8605612 509.265366,52.3650568 C510.137884,51.8695524 510.574137,51.0078186 510.574137,49.7798295 L510.574137,49.5213068 C510.574137,46.3328439 509.707017,43.8553592 507.972752,42.0887784 C506.238487,40.3221976 503.615585,39.4389205 500.103967,39.4389205 C496.463087,39.4389205 493.608593,40.2360242 491.540401,41.8302557 C489.472209,43.4244871 488.018033,45.1264114 487.17783,46.9360795 L479.939194,44.3508523 C481.231814,41.3347387 482.960667,38.9811282 485.125806,37.2899503 C487.290945,35.5987723 489.660713,34.4138883 492.235181,33.7352628 C494.809649,33.0566372 497.346378,32.7173295 499.845444,32.7173295 C501.439675,32.7173295 503.276246,32.9058338 505.35521,33.282848 C507.434174,33.6598622 509.448476,34.4300368 511.398178,35.5933949 C513.34788,36.756753 514.969017,38.5125356 516.261637,40.8607955 C517.554257,43.2090553 518.200558,46.3543837 518.200558,50.296875 L518.200558,83 L510.574137,83 L510.574137,76.2784091 L510.186353,76.2784091 C509.669305,77.3555925 508.807571,78.5081615 507.601126,79.7361506 C506.39468,80.9641397 504.789701,82.0089919 502.78614,82.8707386 C500.782579,83.7324854 498.337409,84.1633523 495.450558,84.1633523 Z M496.61391,77.3125 C499.630023,77.3125 502.177524,76.720058 504.256488,75.5351562 C506.335452,74.3502545 507.908116,72.820677 508.974528,70.9463778 C510.040939,69.0720787 510.574137,67.1008626 510.574137,65.0326705 L510.574137,58.0525568 C510.250982,58.4403428 509.545438,58.7904222 508.457482,59.1028054 C507.369527,59.4151886 506.120013,59.6844804 504.708903,59.9106889 C503.297792,60.1368974 501.92979,60.3307875 500.604854,60.4923651 C499.279919,60.6539426 498.208137,60.7885885 497.389478,60.8963068 C495.407461,61.1548308 493.560119,61.5695402 491.847397,62.1404474 C490.134675,62.7113547 488.755901,63.5623168 487.711033,64.6933594 C486.666165,65.824402 486.143739,67.3593653 486.143739,69.2982955 C486.143739,71.9481667 487.129347,73.9463119 489.100593,75.2927912 C491.071839,76.6392705 493.576253,77.3125 496.61391,77.3125 Z M550.629344,33.3636364 L550.629344,39.8267045 L524.906333,39.8267045 L524.906333,33.3636364 L550.629344,33.3636364 Z M532.403492,21.4715909 L540.029913,21.4715909 L540.029913,68.78125 C540.029913,70.9356168 540.347677,72.5459819 540.983215,73.6123935 C541.618753,74.678805 542.4374,75.3897354 543.439181,75.745206 C544.440962,76.1006765 545.501971,76.2784091 546.622242,76.2784091 C547.462445,76.2784091 548.151832,76.2299366 548.690424,76.1329901 C549.229016,76.0360435 549.659883,75.955256 549.983038,75.890625 L551.534174,82.7414773 C551.017126,82.9353703 550.295424,83.1346462 549.369046,83.3393111 C548.442668,83.5439759 547.268556,83.6463068 545.846674,83.6463068 C543.692307,83.6463068 541.586445,83.1831249 539.529025,82.2567472 C537.471604,81.3303694 535.76968,79.9192803 534.423201,78.0234375 C533.076722,76.1275947 532.403492,73.7362834 532.403492,70.8494318 L532.403492,21.4715909 Z M581.119211,33.3636364 L581.119211,39.8267045 L554.362109,39.8267045 L554.362109,33.3636364 L581.119211,33.3636364 Z M562.376313,83 L562.376313,26.5127841 C562.376313,23.6690199 563.044157,21.2992519 564.379864,19.4034091 C565.715572,17.5075663 567.449811,16.0857055 569.582634,15.1377841 C571.715457,14.1898627 573.966737,13.7159091 576.33654,13.7159091 C578.21084,13.7159091 579.740417,13.8667125 580.925319,14.1683239 C582.110221,14.4699352 582.993498,14.7499987 583.575177,15.0085227 L581.377734,21.6008523 C580.989948,21.4715903 580.45675,21.3100152 579.778124,21.1161222 C579.099499,20.9222291 578.210836,20.8252841 577.112109,20.8252841 C574.591499,20.8252841 572.776473,21.4608128 571.666974,22.7318892 C570.557475,24.0029656 570.002734,25.866465 570.002734,28.3224432 L570.002734,83 L562.376313,83 Z M606.826407,84.0340909 C602.345324,84.0340909 598.419049,82.9676953 595.047465,80.8348722 C591.675881,78.702049 589.047593,75.7182957 587.162522,71.8835227 C585.277451,68.0487498 584.33493,63.567734 584.33493,58.4403409 C584.33493,53.2698605 585.277451,48.7565297 587.162522,44.9002131 C589.047593,41.0438964 591.675881,38.0493715 595.047465,35.9165483 C598.419049,33.7837251 602.345324,32.7173295 606.826407,32.7173295 C611.30749,32.7173295 615.233764,33.7837251 618.605349,35.9165483 C621.976933,38.0493715 624.605221,41.0438964 626.490292,44.9002131 C628.375363,48.7565297 629.317884,53.2698605 629.317884,58.4403409 C629.317884,63.567734 628.375363,68.0487498 626.490292,71.8835227 C624.605221,75.7182957 621.976933,78.702049 618.605349,80.8348722 C615.233764,82.9676953 611.30749,84.0340909 606.826407,84.0340909 Z M606.826407,77.1832386 C610.230306,77.1832386 613.030941,76.3107332 615.228395,74.565696 C617.42585,72.8206589 619.052372,70.5262926 620.108012,67.6825284 C621.163652,64.8387642 621.691464,61.7580658 621.691464,58.4403409 C621.691464,55.122616 621.163652,52.031146 620.108012,49.1658381 C619.052372,46.3005302 617.42585,43.9846206 615.228395,42.2180398 C613.030941,40.451459 610.230306,39.5681818 606.826407,39.5681818 C603.422507,39.5681818 600.621872,40.451459 598.424418,42.2180398 C596.226964,43.9846206 594.600441,46.3005302 593.544802,49.1658381 C592.489162,52.031146 591.96135,55.122616 591.96135,58.4403409 C591.96135,61.7580658 592.489162,64.8387642 593.544802,67.6825284 C594.600441,70.5262926 596.226964,72.8206589 598.424418,74.565696 C600.621872,76.3107332 603.422507,77.1832386 606.826407,77.1832386 Z M637.833319,83 L637.833319,33.3636364 L645.201216,33.3636364 L645.201216,40.8607955 L645.718262,40.8607955 C646.623096,38.4048173 648.26039,36.4120578 650.630194,34.8824574 C652.999997,33.3528569 655.671372,32.5880682 658.644398,32.5880682 C659.204534,32.5880682 659.904692,32.5988399 660.744895,32.6203835 C661.585098,32.6419272 662.220627,32.6742422 662.6515,32.7173295 L662.6515,40.4730114 C662.392976,40.4083804 661.80592,40.3060495 660.890314,40.1660156 C659.974708,40.0259818 659.010644,39.9559659 657.998091,39.9559659 C655.585201,39.9559659 653.436252,40.4568487 651.551181,41.4586293 C649.66611,42.4604098 648.179619,43.8391839 647.091664,45.5949929 C646.003709,47.3508019 645.459739,49.3489471 645.459739,51.5894886 L645.459739,83 L637.833319,83 Z M668.581708,83 L668.581708,33.3636364 L675.949606,33.3636364 L675.949606,41.1193182 L676.595912,41.1193182 C677.630008,38.469447 679.299618,36.4066717 681.60479,34.9309304 C683.909963,33.4551891 686.678283,32.7173295 689.909833,32.7173295 C693.18447,32.7173295 695.915089,33.4551891 698.101772,34.9309304 C700.288454,36.4066717 701.995764,38.469447 703.223753,41.1193182 L703.740799,41.1193182 C705.011875,38.5556217 706.918461,36.5143897 709.460614,34.9955611 C712.002767,33.4767325 715.05115,32.7173295 718.605856,32.7173295 C723.043851,32.7173295 726.673905,34.1014895 729.496125,36.8698509 C732.318346,39.6382122 733.729435,43.9414954 733.729435,49.7798295 L733.729435,83 L726.103015,83 L726.103015,49.7798295 C726.103015,46.1174059 725.101249,43.4998895 723.097688,41.9272017 C721.094127,40.3545139 718.73513,39.5681818 716.020628,39.5681818 C712.530554,39.5681818 709.826864,40.6184199 707.909478,42.7189276 C705.992091,44.8194352 705.033412,47.4746525 705.033412,50.6846591 L705.033412,83 L697.277731,83 L697.277731,49.0042614 C697.277731,46.1820408 696.362138,43.9038321 694.530927,42.1695668 C692.699715,40.4353015 690.340718,39.5681818 687.453867,39.5681818 C685.471849,39.5681818 683.624508,40.0959938 681.911786,41.1516335 C680.199064,42.2072733 678.82029,43.6668349 677.775422,45.5303622 C676.730554,47.3938895 676.208128,49.5428382 676.208128,51.9772727 L676.208128,83 L668.581708,83 Z M783.782927,42.6600711 L788.116838,39.4389205 C789.991137,38.2109314 791.493786,36.8967873 792.624828,35.4964489 C793.755871,34.0961104 794.321384,32.2649261 794.321384,30.0028409 C794.321384,28.3224348 793.583524,26.6959122 792.107783,25.1232244 C790.632042,23.5505366 788.698526,22.7642045 786.307179,22.7642045 C784.626773,22.7642045 783.145668,23.1896856 781.86382,24.0406605 C780.581972,24.8916354 779.580206,25.9688027 778.858493,27.2721946 C778.13678,28.5755865 777.775929,29.9166598 777.775929,31.2954545 C777.775929,32.8465987 778.20141,34.413877 779.052385,35.9973366 C779.90336,37.5807963 780.991299,39.1965472 782.316235,40.8446378 C782.798706,41.4447854 783.287603,42.0499291 783.782927,42.6600711 L783.782927,42.6600711 Z M788.44074,48.3497931 L802.831985,65.9254838 C803.209139,65.1964921 803.555332,64.4357013 803.870567,63.6431108 C805.00161,60.7993466 805.567122,57.6001598 805.567122,54.0454545 L812.93502,54.0454545 C812.93502,58.4403629 812.428752,62.0273299 811.416199,64.8064631 C810.403647,67.5855963 809.261849,69.7614741 807.990773,71.3341619 C807.86719,71.4870702 807.745948,71.6362106 807.627049,71.7815833 L816.812861,83 L807.635304,83 L802.966166,77.3681534 C800.923338,79.4734132 798.408005,81.0652294 795.420105,82.1436435 C792.167011,83.3177734 788.957053,83.9048295 785.790134,83.9048295 C781.438313,83.9048295 777.689771,83.1077258 774.544395,81.5134943 C771.39902,79.9192629 768.975393,77.7326133 767.273443,74.9534801 C765.571494,72.1743469 764.720532,68.9967035 764.720532,65.4204545 C764.720532,62.662865 765.307588,60.2123095 766.481718,58.0687145 C767.655848,55.9251195 769.28237,53.9323601 771.361334,52.0903764 C773.252247,50.4150083 775.406011,48.7352076 777.822682,47.0509324 C777.274055,46.390232 776.741426,45.7487285 776.224793,45.1264205 C774.32895,42.8427916 772.820916,40.591512 771.700645,38.3725142 C770.580374,36.1535164 770.020247,33.7514334 770.020247,31.1661932 C770.020247,28.193167 770.682705,25.5810364 772.007641,23.329723 C773.332576,21.0784097 775.196076,19.322627 777.598195,18.0623224 C780.000314,16.8020178 782.817106,16.171875 786.048657,16.171875 C789.366381,16.171875 792.220875,16.8127895 794.612222,18.0946378 C797.003569,19.376486 798.845525,21.0676386 800.138145,23.1681463 C801.430765,25.268654 802.077066,27.5468627 802.077066,30.0028409 C802.077066,33.1697602 801.290734,35.9165367 799.718046,38.2432528 C798.145358,40.569969 796.001795,42.7350752 793.287293,44.7386364 L788.44074,48.3497931 L788.44074,48.3497931 Z M798.383276,71.8403371 L782.5586,52.7528409 C782.555131,52.7486657 782.551663,52.744491 782.548195,52.740317 L780.102634,54.5625 C777.129608,56.7599542 775.115305,58.8927453 774.059665,60.9609375 C773.004025,63.0291297 772.476213,64.5156205 772.476213,65.4204545 C772.476213,67.4886467 773.014797,69.4167761 774.09198,71.2049006 C775.169164,72.993025 776.68797,74.4364292 778.648443,75.5351562 C780.608917,76.6338833 782.903284,77.1832386 785.531611,77.1832386 C788.030677,77.1832386 790.465075,76.6500408 792.834878,75.5836293 C794.8429,74.6800192 796.692353,73.4322646 798.383276,71.8403371 L798.383276,71.8403371 Z M345.748714,183 L330.625134,133.363636 L338.639339,133.363636 L349.368032,171.366477 L349.885078,171.366477 L360.484509,133.363636 L368.627975,133.363636 L379.098146,171.237216 L379.615191,171.237216 L390.343884,133.363636 L398.358089,133.363636 L383.234509,183 L375.73735,183 L364.879396,144.867898 L364.103828,144.867898 L353.245873,183 L345.748714,183 Z M423.806762,184.034091 C419.325679,184.034091 415.399405,182.967695 412.02782,180.834872 C408.656236,178.702049 406.027948,175.718296 404.142877,171.883523 C402.257806,168.04875 401.315285,163.567734 401.315285,158.440341 C401.315285,153.269861 402.257806,148.75653 404.142877,144.900213 C406.027948,141.043896 408.656236,138.049371 412.02782,135.916548 C415.399405,133.783725 419.325679,132.71733 423.806762,132.71733 C428.287845,132.71733 432.21412,133.783725 435.585704,135.916548 C438.957288,138.049371 441.585576,141.043896 443.470647,144.900213 C445.355718,148.75653 446.298239,153.269861 446.298239,158.440341 C446.298239,163.567734 445.355718,168.04875 443.470647,171.883523 C441.585576,175.718296 438.957288,178.702049 435.585704,180.834872 C432.21412,182.967695 428.287845,184.034091 423.806762,184.034091 Z M423.806762,177.183239 C427.210662,177.183239 430.011297,176.310733 432.208751,174.565696 C434.406205,172.820659 436.032728,170.526293 437.088367,167.682528 C438.144007,164.838764 438.671819,161.758066 438.671819,158.440341 C438.671819,155.122616 438.144007,152.031146 437.088367,149.165838 C436.032728,146.30053 434.406205,143.984621 432.208751,142.21804 C430.011297,140.451459 427.210662,139.568182 423.806762,139.568182 C420.402863,139.568182 417.602228,140.451459 415.404774,142.21804 C413.207319,143.984621 411.580797,146.30053 410.525157,149.165838 C409.469517,152.031146 408.941705,155.122616 408.941705,158.440341 C408.941705,161.758066 409.469517,164.838764 410.525157,167.682528 C411.580797,170.526293 413.207319,172.820659 415.404774,174.565696 C417.602228,176.310733 420.402863,177.183239 423.806762,177.183239 Z M454.813674,183 L454.813674,133.363636 L462.181572,133.363636 L462.181572,140.860795 L462.698617,140.860795 C463.603451,138.404817 465.240746,136.412058 467.610549,134.882457 C469.980353,133.352857 472.651727,132.588068 475.624754,132.588068 C476.184889,132.588068 476.885048,132.59884 477.725251,132.620384 C478.565454,132.641927 479.200983,132.674242 479.631856,132.71733 L479.631856,140.473011 C479.373332,140.40838 478.786276,140.306049 477.87067,140.166016 C476.955064,140.025982 475.990999,139.955966 474.978447,139.955966 C472.565556,139.955966 470.416607,140.456849 468.531536,141.458629 C466.646465,142.46041 465.159974,143.839184 464.072019,145.594993 C462.984064,147.350802 462.440095,149.348947 462.440095,151.589489 L462.440095,183 L454.813674,183 Z M492.671438,164.903409 L492.542177,155.46733 L494.093313,155.46733 L515.809222,133.363636 L525.245302,133.363636 L502.107518,156.759943 L501.461211,156.759943 L492.671438,164.903409 Z M485.562063,183 L485.562063,116.818182 L493.188484,116.818182 L493.188484,183 L485.562063,183 Z M517.101836,183 L497.712631,158.440341 L503.141609,153.140625 L526.796438,183 L517.101836,183 Z M554.054771,133.363636 L554.054771,139.826705 L527.297668,139.826705 L527.297668,133.363636 L554.054771,133.363636 Z M535.311873,183 L535.311873,126.512784 C535.311873,123.66902 535.979717,121.299252 537.315424,119.403409 C538.651131,117.507566 540.385371,116.085705 542.518194,115.137784 C544.651017,114.189863 546.902297,113.715909 549.2721,113.715909 C551.146399,113.715909 552.675977,113.866713 553.860878,114.168324 C555.04578,114.469935 555.929057,114.749999 556.510736,115.008523 L554.313293,121.600852 C553.925507,121.47159 553.392309,121.310015 552.713684,121.116122 C552.035058,120.922229 551.146395,120.825284 550.047668,120.825284 C547.527059,120.825284 545.712032,121.460813 544.602533,122.731889 C543.493034,124.002966 542.938293,125.866465 542.938293,128.322443 L542.938293,183 L535.311873,183 Z M569.291796,116.818182 L569.291796,183 L561.665376,183 L561.665376,116.818182 L569.291796,116.818182 Z M600.298708,184.034091 C595.817625,184.034091 591.89135,182.967695 588.519766,180.834872 C585.148182,178.702049 582.519894,175.718296 580.634823,171.883523 C578.749752,168.04875 577.807231,163.567734 577.807231,158.440341 C577.807231,153.269861 578.749752,148.75653 580.634823,144.900213 C582.519894,141.043896 585.148182,138.049371 588.519766,135.916548 C591.89135,133.783725 595.817625,132.71733 600.298708,132.71733 C604.779791,132.71733 608.706066,133.783725 612.07765,135.916548 C615.449234,138.049371 618.077522,141.043896 619.962593,144.900213 C621.847664,148.75653 622.790185,153.269861 622.790185,158.440341 C622.790185,163.567734 621.847664,168.04875 619.962593,171.883523 C618.077522,175.718296 615.449234,178.702049 612.07765,180.834872 C608.706066,182.967695 604.779791,184.034091 600.298708,184.034091 Z M600.298708,177.183239 C603.702608,177.183239 606.503242,176.310733 608.700697,174.565696 C610.898151,172.820659 612.524673,170.526293 613.580313,167.682528 C614.635953,164.838764 615.163765,161.758066 615.163765,158.440341 C615.163765,155.122616 614.635953,152.031146 613.580313,149.165838 C612.524673,146.30053 610.898151,143.984621 608.700697,142.21804 C606.503242,140.451459 603.702608,139.568182 600.298708,139.568182 C596.894808,139.568182 594.094173,140.451459 591.896719,142.21804 C589.699265,143.984621 588.072743,146.30053 587.017103,149.165838 C585.961463,152.031146 585.433651,155.122616 585.433651,158.440341 C585.433651,161.758066 585.961463,164.838764 587.017103,167.682528 C588.072743,170.526293 589.699265,172.820659 591.896719,174.565696 C594.094173,176.310733 596.894808,177.183239 600.298708,177.183239 Z M640.870961,183 L625.747381,133.363636 L633.761586,133.363636 L644.490279,171.366477 L645.007324,171.366477 L655.606756,133.363636 L663.750222,133.363636 L674.220393,171.237216 L674.737438,171.237216 L685.466131,133.363636 L693.480336,133.363636 L678.356756,183 L670.859597,183 L660.001643,144.867898 L659.226074,144.867898 L648.36812,183 L640.870961,183 Z M723.954387,183 L723.954387,116.818182 L731.580807,116.818182 L731.580807,141.24858 L732.227114,141.24858 C732.787249,140.386833 733.568196,139.282736 734.569976,137.936257 C735.571757,136.589778 737.015161,135.383351 738.900232,134.316939 C740.785303,133.250527 743.343575,132.71733 746.575125,132.71733 C750.754597,132.71733 754.438509,133.762182 757.626972,135.851918 C760.815435,137.941653 763.303691,140.903863 765.091816,144.738636 C766.87994,148.573409 767.773989,153.097512 767.773989,158.31108 C767.773989,163.567735 766.87994,168.118766 765.091816,171.964311 C763.303691,175.809856 760.826207,178.782838 757.659287,180.883345 C754.492368,182.983853 750.840771,184.034091 746.704387,184.034091 C743.515924,184.034091 740.963037,183.500893 739.045651,182.434482 C737.128264,181.36807 735.652545,180.150871 734.618449,178.782848 C733.584353,177.414825 732.787249,176.278414 732.227114,175.37358 L731.322284,175.37358 L731.322284,183 L723.954387,183 Z M731.451546,158.181818 C731.451546,161.930416 732.000901,165.231934 733.099628,168.08647 C734.198355,170.941006 735.803334,173.170742 737.914614,174.775746 C740.025893,176.380749 742.611095,177.183239 745.670296,177.183239 C748.858759,177.183239 751.524748,176.337662 753.668343,174.646484 C755.811938,172.955306 757.427689,170.671712 758.515644,167.795632 C759.603599,164.919552 760.147569,161.71498 760.147569,158.181818 C760.147569,154.691744 759.614371,151.54103 758.547959,148.729581 C757.481548,145.918132 755.876568,143.688396 753.732973,142.040305 C751.589378,140.392215 748.901846,139.568182 745.670296,139.568182 C742.568008,139.568182 739.961263,140.349128 737.849983,141.911044 C735.738704,143.47296 734.144496,145.648838 733.067313,148.438743 C731.990129,151.228648 731.451546,154.476307 731.451546,158.181818 Z M779.391696,201.484375 C778.099076,201.484375 776.946507,201.382044 775.933955,201.177379 C774.921402,200.972714 774.221244,200.773438 773.833458,200.579545 L775.772378,193.857955 C778.551511,194.568896 780.867421,194.552738 782.720176,193.809482 C784.572932,193.066225 786.177911,190.841875 787.535162,187.136364 L788.957037,183.258523 L770.601924,133.363636 L778.874651,133.363636 L792.576355,172.917614 L793.093401,172.917614 L806.795105,133.363636 L815.132463,133.492898 L793.99823,190.238636 C793.050309,192.759246 791.876197,194.854336 790.475858,196.52397 C789.07552,198.193604 787.454383,199.437733 785.612399,200.256392 C783.770416,201.075051 781.696869,201.484375 779.391696,201.484375 Z" id="Platform-&amp;-workflow-by"></path>
            </g>
        </g>
    </g>
</svg>
