<?xml version="1.0" encoding="UTF-8"?>
<svg width="719px" height="172px" viewBox="0 0 719 172" version="1.1" xmlns="http://www.w3.org/2000/svg" xmlns:xlink="http://www.w3.org/1999/xlink">
    <title>PKP Community Forum</title>
    <desc>An official PKP logotype.</desc>
    <path d="M17.6523885,113.189239 L17.6523885,77.8044619 C17.6523885,46.4406824 17.6523885,40.8112861 17.2502887,34.3776903 C16.848189,27.5419948 15.23979,24.3251969 8.60514436,22.9178478 C6.99674541,22.515748 3.57889764,22.3146982 1.76944882,22.3146982 C0.965249344,22.3146982 0.161049869,21.9125984 0.161049869,21.108399 C0.161049869,19.9020997 1.16629921,19.5 3.37784777,19.5 C12.4250919,19.5 24.488084,20.1031496 26.0964829,20.1031496 C30.5195801,20.1031496 42.1804724,19.5 51.4287664,19.5 C76.56,19.5 85.6072441,27.9440945 88.824042,30.9598425 C93.2471391,35.1818898 98.8765354,44.2291339 98.8765354,57.2973753 C98.8765354,83.4338583 77.9673491,102.734646 49.4182677,102.734646 C48.4130184,102.734646 46.2014698,102.734646 45.1962205,102.533596 C44.1909711,102.533596 42.9846719,102.131496 42.9846719,101.126247 C42.9846719,99.5178478 44.1909711,99.3167979 48.4130184,99.3167979 C67.9148556,99.3167979 83.1946457,86.0475066 83.1946457,64.9372703 C83.1946457,59.9110236 82.5914961,46.4406824 71.935853,35.5839895 C61.28021,24.7272966 49.016168,25.5314961 44.392021,25.5314961 C40.9741732,25.5314961 37.5563255,25.9335958 35.7468766,26.7377953 C34.5405774,27.139895 34.1384777,28.5472441 34.1384777,30.5577428 L34.1384777,113.189239 C34.1384777,132.490026 34.1384777,148.372966 35.143727,156.81706 C35.7468766,162.647507 36.9531759,167.070604 42.9846719,167.874803 C45.7993701,168.276903 50.2224672,168.679003 52.031916,168.679003 C53.2382152,168.679003 53.640315,169.282152 53.640315,169.885302 C53.640315,170.890551 52.6350656,171.493701 50.4235171,171.493701 C39.3657743,171.493701 26.6996325,170.890551 25.6943832,170.890551 C25.0912336,170.890551 12.4250919,171.493701 6.3935958,171.493701 C4.18204724,171.493701 3.1767979,171.091601 3.1767979,169.885302 C3.1767979,169.282152 3.57889764,168.679003 4.78519685,168.679003 C6.59464567,168.679003 9.00724409,168.276903 10.8166929,167.874803 C14.8376903,167.070604 15.8429396,162.647507 16.6471391,156.81706 C17.6523885,148.372966 17.6523885,132.490026 17.6523885,113.189239 Z" id="Path" stroke="#000000" fill="#000000" fill-rule="nonzero"></path>
    <path d="M132.994698,77.8044619 L132.994698,90.6716535 C139.227244,84.6401575 166.570026,55.8900262 178.834068,43.2238845 C190.89706,30.7587927 191.70126,28.748294 191.70126,26.3356955 C191.70126,24.7272966 190.69601,23.1188976 189.087612,22.515748 C187.680262,21.9125984 187.278163,21.5104987 187.278163,20.7062992 C187.278163,19.9020997 188.484462,19.5 190.293911,19.5 C196.124357,19.5 195.521207,20.1031496 202.356903,20.1031496 C208.589449,20.1031496 220.451391,19.5 223.668189,19.5 C226.482887,19.5 227.086037,20.1031496 227.086037,20.9073491 C227.086037,21.7115486 226.683937,22.1136483 224.874488,22.3146982 C221.054541,22.7167979 217.435643,23.5209974 214.620945,24.7272966 C209.594698,26.7377953 205.774751,29.1503937 193.711759,40.8112861 C176.01937,57.9005249 153.099685,80.6191601 147.872388,86.4496063 C160.53853,100.322047 197.129606,137.516273 206.57895,146.362467 C223.065039,161.843307 230.101785,166.266404 239.752178,168.075853 C241.561627,168.477953 243.572126,168.679003 245.582625,168.679003 C247.191024,168.679003 248.397323,169.081102 248.397323,170.086352 C248.397323,171.091601 247.593123,171.493701 245.381575,171.493701 L230.503885,171.493701 C213.012546,171.493701 208.388399,169.282152 198.939055,161.843307 C186.876063,152.393963 150.687087,113.591339 132.994698,92.4811024 L132.994698,113.189239 C132.994698,132.490026 132.994698,148.372966 133.999948,156.81706 C134.603097,162.647507 135.809396,167.070604 141.840892,167.874803 C144.655591,168.276903 148.676588,168.679003 149.882887,168.679003 C151.692336,168.679003 152.295486,169.483202 152.295486,170.086352 C152.295486,171.091601 151.491286,171.493701 149.279738,171.493701 C138.221995,171.493701 125.555853,170.890551 124.550604,170.890551 C123.545354,170.890551 111.683412,171.493701 105.651916,171.493701 C103.440367,171.493701 102.435118,171.292651 102.435118,170.086352 C102.435118,169.483202 102.837218,168.679003 104.646667,168.679003 C105.852966,168.679003 108.064514,168.477953 109.873963,168.075853 C113.894961,167.271654 115.10126,162.647507 115.905459,156.81706 C116.910709,148.372966 116.910709,132.490026 116.910709,113.189239 L116.910709,77.8044619 C116.910709,46.4406824 116.910709,40.8112861 116.508609,34.3776903 C116.106509,27.5419948 114.09601,24.124147 109.672913,23.1188976 C107.461365,22.515748 103.842467,22.3146982 102.435118,22.3146982 C100.826719,22.3146982 100.22357,21.9125984 100.22357,21.108399 C100.22357,19.9020997 101.228819,19.5 103.440367,19.5 C110.075013,19.5 123.545354,20.1031496 124.550604,20.1031496 C125.555853,20.1031496 138.221995,19.5 144.253491,19.5 C146.465039,19.5 147.470289,19.9020997 147.470289,20.9073491 C147.470289,21.7115486 147.068189,22.1136483 145.25874,22.3146982 C143.047192,22.515748 142.846142,22.515748 140.835643,22.7167979 C135.407297,23.3199475 133.798898,27.3409449 133.396798,34.3776903 C132.994698,40.8112861 132.994698,46.4406824 132.994698,77.8044619 Z" id="Path" stroke="#000000" fill="#000000" fill-rule="nonzero"></path>
    <path d="M255.775853,113.189239 L255.775853,77.8044619 C255.775853,46.4406824 255.775853,40.8112861 255.373753,34.3776903 C254.971654,27.5419948 253.363255,24.3251969 246.728609,22.9178478 C245.12021,22.515748 241.702362,22.3146982 239.892913,22.3146982 C239.088714,22.3146982 238.284514,21.9125984 238.284514,21.108399 C238.284514,19.9020997 239.289764,19.5 241.501312,19.5 C250.548556,19.5 262.611549,20.1031496 264.219948,20.1031496 C268.643045,20.1031496 280.303937,19.5 289.552231,19.5 C314.683465,19.5 323.730709,27.9440945 326.947507,30.9598425 C331.370604,35.1818898 337,44.2291339 337,57.2973753 C337,83.4338583 316.090814,102.734646 287.541732,102.734646 C286.536483,102.734646 284.324934,102.734646 283.319685,102.533596 C282.314436,102.533596 281.108136,102.131496 281.108136,101.126247 C281.108136,99.5178478 282.314436,99.3167979 286.536483,99.3167979 C306.03832,99.3167979 321.31811,86.0475066 321.31811,64.9372703 C321.31811,59.9110236 320.714961,46.4406824 310.059318,35.5839895 C299.403675,24.7272966 287.139633,25.5314961 282.515486,25.5314961 C279.097638,25.5314961 275.67979,25.9335958 273.870341,26.7377953 C272.664042,27.139895 272.261942,28.5472441 272.261942,30.5577428 L272.261942,113.189239 C272.261942,132.490026 272.261942,148.372966 273.267192,156.81706 C273.870341,162.647507 275.07664,167.070604 281.108136,167.874803 C283.922835,168.276903 288.345932,168.679003 290.155381,168.679003 C291.36168,168.679003 291.76378,169.282152 291.76378,169.885302 C291.76378,170.890551 290.75853,171.493701 288.546982,171.493701 C277.489239,171.493701 264.823097,170.890551 263.817848,170.890551 C263.214698,170.890551 250.548556,171.493701 244.51706,171.493701 C242.305512,171.493701 241.300262,171.091601 241.300262,169.885302 C241.300262,169.282152 241.702362,168.679003 242.908661,168.679003 C244.71811,168.679003 247.130709,168.276903 248.940157,167.874803 C252.961155,167.070604 253.966404,162.647507 254.770604,156.81706 C255.775853,148.372966 255.775853,132.490026 255.775853,113.189239 Z" id="Path" stroke="#000000" fill="#000000" fill-rule="nonzero"></path>
    <path d="M413.457386,18 L407.380682,18 C407.021305,16.2521219 406.396489,14.7166259 405.506214,13.3934659 C404.61594,12.0703059 403.537826,10.9554378 402.271839,10.0488281 C401.005853,9.14221848 399.605121,8.46022956 398.069602,8.00284091 C396.534083,7.54545226 394.933247,7.31676136 393.267045,7.31676136 C390.228678,7.31676136 387.480303,8.08450937 385.021839,9.62002841 C382.563375,11.1555475 380.611335,13.4179538 379.165661,16.4073153 C377.719986,19.3966769 376.997159,23.0638987 376.997159,27.4090909 C376.997159,31.7542831 377.719986,35.4215049 379.165661,38.4108665 C380.611335,41.400228 382.563375,43.6626344 385.021839,45.1981534 C387.480303,46.7336725 390.228678,47.5014205 393.267045,47.5014205 C394.933247,47.5014205 396.534083,47.2727296 398.069602,46.8153409 C399.605121,46.3579523 401.005853,45.6759633 402.271839,44.7693537 C403.537826,43.862744 404.61594,42.7437922 405.506214,41.4124645 C406.396489,40.0811368 407.021305,38.5497246 407.380682,36.8181818 L413.457386,36.8181818 C412.999998,39.3828253 412.166909,41.6779018 410.958097,43.7034801 C409.749284,45.7290584 408.246458,47.4483239 406.449574,48.8613281 C404.65269,50.2743323 402.639393,51.3483628 400.409624,52.0834517 C398.179854,52.8185406 395.799018,53.1860795 393.267045,53.1860795 C388.987195,53.1860795 385.181125,52.1406355 381.848722,50.0497159 C378.516319,47.9587964 375.894541,44.9858147 373.98331,41.1306818 C372.072079,37.2755489 371.116477,32.701731 371.116477,27.4090909 C371.116477,22.1164508 372.072079,17.5426329 373.98331,13.6875 C375.894541,9.83236709 378.516319,6.85938545 381.848722,4.76846591 C385.181125,2.67754636 388.987195,1.63210227 393.267045,1.63210227 C395.799018,1.63210227 398.179854,1.99964121 400.409624,2.73473011 C402.639393,3.46981902 404.65269,4.54384947 406.449574,5.95685369 C408.246458,7.36985792 409.749284,9.08503963 410.958097,11.1024503 C412.166909,13.1198609 412.999998,15.4190212 413.457386,18 Z M435.39994,53.2840909 C432.002196,53.2840909 429.02513,52.4755052 426.468654,50.8583097 C423.912179,49.2411141 421.919301,46.9787077 420.489961,44.0710227 C419.060622,41.1633377 418.345963,37.7656444 418.345963,33.8778409 C418.345963,29.9573668 419.060622,26.5351709 420.489961,23.6111506 C421.919301,20.6871303 423.912179,18.4165564 426.468654,16.7993608 C429.02513,15.1821652 432.002196,14.3735795 435.39994,14.3735795 C438.797684,14.3735795 441.77475,15.1821652 444.331225,16.7993608 C446.887701,18.4165564 448.880579,20.6871303 450.309919,23.6111506 C451.739258,26.5351709 452.453917,29.9573668 452.453917,33.8778409 C452.453917,37.7656444 451.739258,41.1633377 450.309919,44.0710227 C448.880579,46.9787077 446.887701,49.2411141 444.331225,50.8583097 C441.77475,52.4755052 438.797684,53.2840909 435.39994,53.2840909 Z M435.39994,48.0894886 C437.980919,48.0894886 440.104477,47.4279185 441.770679,46.1047585 C443.43688,44.7815985 444.670177,43.0419142 445.470608,40.8856534 C446.271038,38.7293926 446.671247,36.3934785 446.671247,33.8778409 C446.671247,31.3622033 446.271038,29.0181217 445.470608,26.8455256 C444.670177,24.6729295 443.43688,22.9169101 441.770679,21.5774148 C440.104477,20.2379194 437.980919,19.5681818 435.39994,19.5681818 C432.818961,19.5681818 430.695403,20.2379194 429.029201,21.5774148 C427.363,22.9169101 426.129702,24.6729295 425.329272,26.8455256 C424.528842,29.0181217 424.128633,31.3622033 424.128633,33.8778409 C424.128633,36.3934785 424.528842,38.7293926 425.329272,40.8856534 C426.129702,43.0419142 427.363,44.7815985 429.029201,46.1047585 C430.695403,47.4279185 432.818961,48.0894886 435.39994,48.0894886 Z M458.910675,52.5 L458.910675,14.8636364 L464.497323,14.8636364 L464.497323,20.7443182 L464.98738,20.7443182 C465.771475,18.7350752 467.037442,17.1709928 468.78532,16.0520241 C470.533198,14.9330555 472.632254,14.3735795 475.08255,14.3735795 C477.565517,14.3735795 479.635987,14.9330555 481.29402,16.0520241 C482.952054,17.1709928 484.246608,18.7350752 485.177721,20.7443182 L485.569766,20.7443182 C486.533549,18.8004164 487.979203,17.2526691 489.906769,16.1010298 C491.834335,14.9493905 494.145747,14.3735795 496.841073,14.3735795 C500.206147,14.3735795 502.958605,15.4231074 505.09853,17.5221946 C507.238456,19.6212818 508.308403,22.8842108 508.308403,27.3110795 L508.308403,52.5 L502.525732,52.5 L502.525732,27.3110795 C502.525732,24.534077 501.766152,22.5493668 500.246968,21.3568892 C498.727784,20.1644117 496.939095,19.5681818 494.880846,19.5681818 C492.234526,19.5681818 490.184475,20.3645162 488.730633,21.9572088 C487.27679,23.5499014 486.54988,25.5631981 486.54988,27.9971591 L486.54988,52.5 L480.669198,52.5 L480.669198,26.7230114 C480.669198,24.5830859 479.974958,22.8556529 478.586457,21.5406605 C477.197955,20.2256681 475.409266,19.5681818 473.220334,19.5681818 C471.717486,19.5681818 470.316754,19.9683909 469.018097,20.768821 C467.71944,21.5692512 466.673996,22.6759517 465.881734,24.088956 C465.089471,25.5019602 464.693346,27.1313828 464.693346,28.9772727 L464.693346,52.5 L458.910675,52.5 Z M516.529365,52.5 L516.529365,14.8636364 L522.116013,14.8636364 L522.116013,20.7443182 L522.60607,20.7443182 C523.390165,18.7350752 524.656132,17.1709928 526.40401,16.0520241 C528.151888,14.9330555 530.250944,14.3735795 532.70124,14.3735795 C535.184207,14.3735795 537.254677,14.9330555 538.91271,16.0520241 C540.570744,17.1709928 541.865298,18.7350752 542.796411,20.7443182 L543.188456,20.7443182 C544.152239,18.8004164 545.597892,17.2526691 547.525459,16.1010298 C549.453025,14.9493905 551.764437,14.3735795 554.459763,14.3735795 C557.824837,14.3735795 560.577295,15.4231074 562.71722,17.5221946 C564.857146,19.6212818 565.927092,22.8842108 565.927092,27.3110795 L565.927092,52.5 L560.144422,52.5 L560.144422,27.3110795 C560.144422,24.534077 559.384842,22.5493668 557.865658,21.3568892 C556.346474,20.1644117 554.557785,19.5681818 552.499536,19.5681818 C549.853216,19.5681818 547.803165,20.3645162 546.349323,21.9572088 C544.89548,23.5499014 544.16857,25.5631981 544.16857,27.9971591 L544.16857,52.5 L538.287888,52.5 L538.287888,26.7230114 C538.287888,24.5830859 537.593648,22.8556529 536.205146,21.5406605 C534.816645,20.2256681 533.027956,19.5681818 530.839024,19.5681818 C529.336176,19.5681818 527.935444,19.9683909 526.636787,20.768821 C525.33813,21.5692512 524.292686,22.6759517 523.500423,24.088956 C522.708161,25.5019602 522.312036,27.1313828 522.312036,28.9772727 L522.312036,52.5 L516.529365,52.5 Z M597.866805,37.1122159 L597.866805,14.8636364 L603.649476,14.8636364 L603.649476,52.5 L597.866805,52.5 L597.866805,46.1292614 L597.47476,46.1292614 C596.592653,48.0404925 595.220508,49.6617476 593.358282,50.9930753 C591.496057,52.324403 589.143808,52.9900568 586.301464,52.9900568 C583.94918,52.9900568 581.858292,52.4714185 580.028737,51.4341264 C578.199182,50.3968343 576.761697,48.8286682 575.716237,46.729581 C574.670777,44.6304938 574.148055,41.9801296 574.148055,38.7784091 L574.148055,14.8636364 L579.930726,14.8636364 L579.930726,38.3863636 C579.930726,41.1306955 580.702557,43.3195941 582.246244,44.953125 C583.789931,46.5866559 585.76239,47.4034091 588.16368,47.4034091 C589.601187,47.4034091 591.067259,47.0358702 592.56194,46.3007812 C594.056621,45.5656923 595.314421,44.4385729 596.335378,42.9193892 C597.356334,41.4002055 597.866805,39.4645004 597.866805,37.1122159 Z M617.653109,29.859375 L617.653109,52.5 L611.870438,52.5 L611.870438,14.8636364 L617.457086,14.8636364 L617.457086,20.7443182 L617.947143,20.7443182 C618.829249,18.833087 620.168725,17.2935073 621.965609,16.1255327 C623.762493,14.9575581 626.082072,14.3735795 628.924415,14.3735795 C631.472724,14.3735795 633.70246,14.8922178 635.613691,15.9295099 C637.524922,16.9668021 639.011413,18.5349682 640.073208,20.6340554 C641.135003,22.7331426 641.665893,25.3835067 641.665893,28.5852273 L641.665893,52.5 L635.883222,52.5 L635.883222,28.9772727 C635.883222,26.0205818 635.115474,23.713254 633.579955,22.0552202 C632.044436,20.3971863 629.937213,19.5681818 627.258222,19.5681818 C625.412332,19.5681818 623.766575,19.9683909 622.3209,20.768821 C620.875225,21.5692512 619.735854,22.7372082 618.902754,24.2727273 C618.069653,25.8082463 617.653109,27.6704436 617.653109,29.859375 Z M649.886855,52.5 L649.886855,14.8636364 L655.669526,14.8636364 L655.669526,52.5 L649.886855,52.5 Z M652.827196,8.59090909 C651.70006,8.59090909 650.732207,8.20703509 649.92361,7.43927557 C649.115012,6.67151605 648.710719,5.74858494 648.710719,4.67045455 C648.710719,3.59232415 649.115012,2.66939304 649.92361,1.90163352 C650.732207,1.133874 651.70006,0.75 652.827196,0.75 C653.954333,0.75 654.922185,1.133874 655.730783,1.90163352 C656.539381,2.66939304 656.943674,3.59232415 656.943674,4.67045455 C656.943674,5.74858494 656.539381,6.67151605 655.730783,7.43927557 C654.922185,8.20703509 653.954333,8.59090909 652.827196,8.59090909 Z M680.258386,14.8636364 L680.258386,19.7642045 L660.754125,19.7642045 L660.754125,14.8636364 L680.258386,14.8636364 Z M666.438784,5.84659091 L672.221454,5.84659091 L672.221454,41.71875 C672.221454,43.3522809 672.462397,44.5733269 672.944288,45.3819247 C673.42618,46.1905225 674.046912,46.7295796 674.806504,46.9991122 C675.566096,47.2686448 676.370598,47.4034091 677.220034,47.4034091 C677.857111,47.4034091 678.379833,47.3666552 678.788216,47.2931463 C679.196599,47.2196374 679.5233,47.1583809 679.768329,47.109375 L680.944466,52.3039773 C680.552418,52.4509951 680.005194,52.6020944 679.302775,52.7572798 C678.600357,52.9124653 677.710096,52.9900568 676.631966,52.9900568 C674.998435,52.9900568 673.401682,52.6388529 671.84166,51.9364347 C670.281638,51.2340164 668.991168,50.1640697 667.970212,48.7265625 C666.949255,47.2890553 666.438784,45.4758632 666.438784,43.2869318 L666.438784,5.84659091 Z M690.341565,66.515625 C689.361446,66.515625 688.48752,66.4380334 687.719761,66.282848 C686.952001,66.1276626 686.421112,65.9765632 686.127076,65.8295455 L687.597247,60.7329545 C689.704501,61.2720197 691.460521,61.2597684 692.865357,60.6962003 C694.270194,60.1326321 695.487156,58.4460368 696.516281,55.6363636 L697.594406,52.6960227 L683.676792,14.8636364 L689.949519,14.8636364 L700.338724,44.8551136 L700.730769,44.8551136 L711.119974,14.8636364 L717.441707,14.9616477 L701.416849,57.9886364 C700.698095,59.8998675 699.807834,61.4884525 698.746039,62.7544389 C697.684244,64.0204254 696.455031,64.9637753 695.058362,65.584517 C693.661693,66.2052588 692.089443,66.515625 690.341565,66.515625 Z M373.076705,118.5 L373.076705,68.3181818 L403.166193,68.3181818 L403.166193,73.7088068 L379.153409,73.7088068 L379.153409,90.6647727 L400.911932,90.6647727 L400.911932,96.0553977 L379.153409,96.0553977 L379.153409,118.5 L373.076705,118.5 Z M422.952497,119.284091 C419.554752,119.284091 416.577687,118.475505 414.021211,116.85831 C411.464735,115.241114 409.471858,112.978708 408.042518,110.071023 C406.613179,107.163338 405.898519,103.765644 405.898519,99.8778409 C405.898519,95.9573668 406.613179,92.5351709 408.042518,89.6111506 C409.471858,86.6871303 411.464735,84.4165564 414.021211,82.7993608 C416.577687,81.1821652 419.554752,80.3735795 422.952497,80.3735795 C426.350241,80.3735795 429.327306,81.1821652 431.883782,82.7993608 C434.440258,84.4165564 436.433136,86.6871303 437.862475,89.6111506 C439.291815,92.5351709 440.006474,95.9573668 440.006474,99.8778409 C440.006474,103.765644 439.291815,107.163338 437.862475,110.071023 C436.433136,112.978708 434.440258,115.241114 431.883782,116.85831 C429.327306,118.475505 426.350241,119.284091 422.952497,119.284091 Z M422.952497,114.089489 C425.533476,114.089489 427.657034,113.427919 429.323235,112.104759 C430.989437,110.781598 432.222734,109.041914 433.023164,106.885653 C433.823594,104.729393 434.223804,102.393478 434.223804,99.8778409 C434.223804,97.3622033 433.823594,95.0181217 433.023164,92.8455256 C432.222734,90.6729295 430.989437,88.9169101 429.323235,87.5774148 C427.657034,86.2379194 425.533476,85.5681818 422.952497,85.5681818 C420.371518,85.5681818 418.24796,86.2379194 416.581758,87.5774148 C414.915557,88.9169101 413.682259,90.6729295 412.881829,92.8455256 C412.081399,95.0181217 411.68119,97.3622033 411.68119,99.8778409 C411.68119,102.393478 412.081399,104.729393 412.881829,106.885653 C413.682259,109.041914 414.915557,110.781598 416.581758,112.104759 C418.24796,113.427919 420.371518,114.089489 422.952497,114.089489 Z M446.463232,118.5 L446.463232,80.8636364 L452.04988,80.8636364 L452.04988,86.5482955 L452.441925,86.5482955 C453.128008,84.6860702 454.369473,83.1750768 456.166357,82.0152699 C457.963232,80.855463 459.988789,80.2755682 462.243062,80.2755682 C462.66778,80.2755682 463.198669,80.2837357 463.835746,80.300071 C464.472823,80.3164063 464.954708,80.3409089 465.281414,80.3735795 L465.281414,86.2542614 C465.08539,86.2052554 464.64026,86.1276639 463.946009,86.0214844 C463.251758,85.9153049 462.520764,85.8622159 461.753005,85.8622159 C459.92345,85.8622159 458.294028,86.2420061 456.864688,87.001598 C455.435349,87.7611899 454.308229,88.806634 453.483296,90.1379616 C452.658363,91.4692893 452.245903,92.9843665 452.245903,94.6832386 L452.245903,118.5 L446.463232,118.5 Z M493.496695,103.112216 L493.496695,80.8636364 L499.279365,80.8636364 L499.279365,118.5 L493.496695,118.5 L493.496695,112.129261 L493.104649,112.129261 C492.222543,114.040493 490.850397,115.661748 488.988172,116.993075 C487.125947,118.324403 484.773698,118.990057 481.931354,118.990057 C479.579069,118.990057 477.488181,118.471419 475.658627,117.434126 C473.829072,116.396834 472.391586,114.828668 471.346127,112.729581 C470.300667,110.630494 469.777945,107.98013 469.777945,104.778409 L469.777945,80.8636364 L475.560615,80.8636364 L475.560615,104.386364 C475.560615,107.130696 476.332447,109.319594 477.876134,110.953125 C479.41982,112.586656 481.392279,113.403409 483.79357,113.403409 C485.231077,113.403409 486.697149,113.03587 488.19183,112.300781 C489.68651,111.565692 490.94431,110.438573 491.965267,108.919389 C492.986224,107.400205 493.496695,105.4645 493.496695,103.112216 Z M507.500328,118.5 L507.500328,80.8636364 L513.086976,80.8636364 L513.086976,86.7443182 L513.577032,86.7443182 C514.361127,84.7350752 515.627095,83.1709928 517.374973,82.0520241 C519.122851,80.9330555 521.221907,80.3735795 523.672203,80.3735795 C526.15517,80.3735795 528.225639,80.9330555 529.883673,82.0520241 C531.541707,83.1709928 532.836261,84.7350752 533.767373,86.7443182 L534.159419,86.7443182 C535.123202,84.8004164 536.568855,83.2526691 538.496422,82.1010298 C540.423988,80.9493905 542.7354,80.3735795 545.430726,80.3735795 C548.795799,80.3735795 551.548257,81.4231074 553.688183,83.5221946 C555.828108,85.6212818 556.898055,88.8842108 556.898055,93.3110795 L556.898055,118.5 L551.115385,118.5 L551.115385,93.3110795 C551.115385,90.534077 550.355804,88.5493668 548.83662,87.3568892 C547.317437,86.1644117 545.528747,85.5681818 543.470498,85.5681818 C540.824178,85.5681818 538.774128,86.3645162 537.320285,87.9572088 C535.866443,89.5499014 535.139532,91.5631981 535.139532,93.9971591 L535.139532,118.5 L529.258851,118.5 L529.258851,92.7230114 C529.258851,90.5830859 528.56461,88.8556529 527.176109,87.5406605 C525.787608,86.2256681 523.998918,85.5681818 521.809987,85.5681818 C520.307139,85.5681818 518.906407,85.9683909 517.60775,86.768821 C516.309093,87.5692512 515.263649,88.6759517 514.471386,90.088956 C513.679124,91.5019602 513.282998,93.1313828 513.282998,94.9772727 L513.282998,118.5 L507.500328,118.5 Z" id="CommunityForum" fill="#000000" fill-rule="nonzero"></path>
</svg>
