<?xml version="1.0" encoding="UTF-8"?>
<svg width="523px" height="172px" viewBox="0 0 523 172" version="1.1" xmlns="http://www.w3.org/2000/svg" xmlns:xlink="http://www.w3.org/1999/xlink">
    <title>super-docs</title>
    <desc>An official PKP logotype.</desc>
    <g id="Final" stroke="none" stroke-width="1" fill="none" fill-rule="evenodd">
        <g id="Artboard-Copy" transform="translate(-867.000000, -2344.000000)" fill="#000000" fill-rule="nonzero">
            <g id="super-docs" transform="translate(868.000000, 2344.000000)">
                <path d="M17.6523885,113.189239 L17.6523885,77.8044619 C17.6523885,46.4406824 17.6523885,40.8112861 17.2502887,34.3776903 C16.848189,27.5419948 15.23979,24.3251969 8.60514436,22.9178478 C6.99674541,22.515748 3.57889764,22.3146982 1.76944882,22.3146982 C0.965249344,22.3146982 0.161049869,21.9125984 0.161049869,21.108399 C0.161049869,19.9020997 1.16629921,19.5 3.37784777,19.5 C12.4250919,19.5 24.488084,20.1031496 26.0964829,20.1031496 C30.5195801,20.1031496 42.1804724,19.5 51.4287664,19.5 C76.56,19.5 85.6072441,27.9440945 88.824042,30.9598425 C93.2471391,35.1818898 98.8765354,44.2291339 98.8765354,57.2973753 C98.8765354,83.4338583 77.9673491,102.734646 49.4182677,102.734646 C48.4130184,102.734646 46.2014698,102.734646 45.1962205,102.533596 C44.1909711,102.533596 42.9846719,102.131496 42.9846719,101.126247 C42.9846719,99.5178478 44.1909711,99.3167979 48.4130184,99.3167979 C67.9148556,99.3167979 83.1946457,86.0475066 83.1946457,64.9372703 C83.1946457,59.9110236 82.5914961,46.4406824 71.935853,35.5839895 C61.28021,24.7272966 49.016168,25.5314961 44.392021,25.5314961 C40.9741732,25.5314961 37.5563255,25.9335958 35.7468766,26.7377953 C34.5405774,27.139895 34.1384777,28.5472441 34.1384777,30.5577428 L34.1384777,113.189239 C34.1384777,132.490026 34.1384777,148.372966 35.143727,156.81706 C35.7468766,162.647507 36.9531759,167.070604 42.9846719,167.874803 C45.7993701,168.276903 50.2224672,168.679003 52.031916,168.679003 C53.2382152,168.679003 53.640315,169.282152 53.640315,169.885302 C53.640315,170.890551 52.6350656,171.493701 50.4235171,171.493701 C39.3657743,171.493701 26.6996325,170.890551 25.6943832,170.890551 C25.0912336,170.890551 12.4250919,171.493701 6.3935958,171.493701 C4.18204724,171.493701 3.1767979,171.091601 3.1767979,169.885302 C3.1767979,169.282152 3.57889764,168.679003 4.78519685,168.679003 C6.59464567,168.679003 9.00724409,168.276903 10.8166929,167.874803 C14.8376903,167.070604 15.8429396,162.647507 16.6471391,156.81706 C17.6523885,148.372966 17.6523885,132.490026 17.6523885,113.189239 Z" id="Path" stroke="#000000"></path>
                <path d="M132.994698,77.8044619 L132.994698,90.6716535 C139.227244,84.6401575 166.570026,55.8900262 178.834068,43.2238845 C190.89706,30.7587927 191.70126,28.748294 191.70126,26.3356955 C191.70126,24.7272966 190.69601,23.1188976 189.087612,22.515748 C187.680262,21.9125984 187.278163,21.5104987 187.278163,20.7062992 C187.278163,19.9020997 188.484462,19.5 190.293911,19.5 C196.124357,19.5 195.521207,20.1031496 202.356903,20.1031496 C208.589449,20.1031496 220.451391,19.5 223.668189,19.5 C226.482887,19.5 227.086037,20.1031496 227.086037,20.9073491 C227.086037,21.7115486 226.683937,22.1136483 224.874488,22.3146982 C221.054541,22.7167979 217.435643,23.5209974 214.620945,24.7272966 C209.594698,26.7377953 205.774751,29.1503937 193.711759,40.8112861 C176.01937,57.9005249 153.099685,80.6191601 147.872388,86.4496063 C160.53853,100.322047 197.129606,137.516273 206.57895,146.362467 C223.065039,161.843307 230.101785,166.266404 239.752178,168.075853 C241.561627,168.477953 243.572126,168.679003 245.582625,168.679003 C247.191024,168.679003 248.397323,169.081102 248.397323,170.086352 C248.397323,171.091601 247.593123,171.493701 245.381575,171.493701 L230.503885,171.493701 C213.012546,171.493701 208.388399,169.282152 198.939055,161.843307 C186.876063,152.393963 150.687087,113.591339 132.994698,92.4811024 L132.994698,113.189239 C132.994698,132.490026 132.994698,148.372966 133.999948,156.81706 C134.603097,162.647507 135.809396,167.070604 141.840892,167.874803 C144.655591,168.276903 148.676588,168.679003 149.882887,168.679003 C151.692336,168.679003 152.295486,169.483202 152.295486,170.086352 C152.295486,171.091601 151.491286,171.493701 149.279738,171.493701 C138.221995,171.493701 125.555853,170.890551 124.550604,170.890551 C123.545354,170.890551 111.683412,171.493701 105.651916,171.493701 C103.440367,171.493701 102.435118,171.292651 102.435118,170.086352 C102.435118,169.483202 102.837218,168.679003 104.646667,168.679003 C105.852966,168.679003 108.064514,168.477953 109.873963,168.075853 C113.894961,167.271654 115.10126,162.647507 115.905459,156.81706 C116.910709,148.372966 116.910709,132.490026 116.910709,113.189239 L116.910709,77.8044619 C116.910709,46.4406824 116.910709,40.8112861 116.508609,34.3776903 C116.106509,27.5419948 114.09601,24.124147 109.672913,23.1188976 C107.461365,22.515748 103.842467,22.3146982 102.435118,22.3146982 C100.826719,22.3146982 100.22357,21.9125984 100.22357,21.108399 C100.22357,19.9020997 101.228819,19.5 103.440367,19.5 C110.075013,19.5 123.545354,20.1031496 124.550604,20.1031496 C125.555853,20.1031496 138.221995,19.5 144.253491,19.5 C146.465039,19.5 147.470289,19.9020997 147.470289,20.9073491 C147.470289,21.7115486 147.068189,22.1136483 145.25874,22.3146982 C143.047192,22.515748 142.846142,22.515748 140.835643,22.7167979 C135.407297,23.3199475 133.798898,27.3409449 133.396798,34.3776903 C132.994698,40.8112861 132.994698,46.4406824 132.994698,77.8044619 Z" id="Path" stroke="#000000"></path>
                <path d="M255.775853,113.189239 L255.775853,77.8044619 C255.775853,46.4406824 255.775853,40.8112861 255.373753,34.3776903 C254.971654,27.5419948 253.363255,24.3251969 246.728609,22.9178478 C245.12021,22.515748 241.702362,22.3146982 239.892913,22.3146982 C239.088714,22.3146982 238.284514,21.9125984 238.284514,21.108399 C238.284514,19.9020997 239.289764,19.5 241.501312,19.5 C250.548556,19.5 262.611549,20.1031496 264.219948,20.1031496 C268.643045,20.1031496 280.303937,19.5 289.552231,19.5 C314.683465,19.5 323.730709,27.9440945 326.947507,30.9598425 C331.370604,35.1818898 337,44.2291339 337,57.2973753 C337,83.4338583 316.090814,102.734646 287.541732,102.734646 C286.536483,102.734646 284.324934,102.734646 283.319685,102.533596 C282.314436,102.533596 281.108136,102.131496 281.108136,101.126247 C281.108136,99.5178478 282.314436,99.3167979 286.536483,99.3167979 C306.03832,99.3167979 321.31811,86.0475066 321.31811,64.9372703 C321.31811,59.9110236 320.714961,46.4406824 310.059318,35.5839895 C299.403675,24.7272966 287.139633,25.5314961 282.515486,25.5314961 C279.097638,25.5314961 275.67979,25.9335958 273.870341,26.7377953 C272.664042,27.139895 272.261942,28.5472441 272.261942,30.5577428 L272.261942,113.189239 C272.261942,132.490026 272.261942,148.372966 273.267192,156.81706 C273.870341,162.647507 275.07664,167.070604 281.108136,167.874803 C283.922835,168.276903 288.345932,168.679003 290.155381,168.679003 C291.36168,168.679003 291.76378,169.282152 291.76378,169.885302 C291.76378,170.890551 290.75853,171.493701 288.546982,171.493701 C277.489239,171.493701 264.823097,170.890551 263.817848,170.890551 C263.214698,170.890551 250.548556,171.493701 244.51706,171.493701 C242.305512,171.493701 241.300262,171.091601 241.300262,169.885302 C241.300262,169.282152 241.702362,168.679003 242.908661,168.679003 C244.71811,168.679003 247.130709,168.276903 248.940157,167.874803 C252.961155,167.070604 253.966404,162.647507 254.770604,156.81706 C255.775853,148.372966 255.775853,132.490026 255.775853,113.189239 Z" id="Path" stroke="#000000"></path>
                <path d="M388.5625,50.9318182 L373.076705,50.9318182 L373.076705,0.75 L389.24858,0.75 C394.116502,0.75 398.281943,1.75052267 401.745028,3.75159801 C405.208114,5.75267336 407.862562,8.61947708 409.708452,12.3520952 C411.554342,16.0847133 412.477273,20.5482695 412.477273,25.7428977 C412.477273,30.9701966 411.546174,35.4664229 409.683949,39.2317116 C407.821724,42.9970004 405.110103,45.8883067 401.549006,47.9057173 C397.987908,49.923128 393.659116,50.9318182 388.5625,50.9318182 Z M379.153409,45.5411932 L388.170455,45.5411932 C392.319623,45.5411932 395.758154,44.740775 398.486151,43.1399148 C401.214147,41.5390545 403.247863,39.2603131 404.587358,36.3036222 C405.926853,33.3469312 406.596591,29.826725 406.596591,25.7428977 C406.596591,21.6917411 405.935021,18.2001212 404.611861,15.2679332 C403.288701,12.3357453 401.312158,10.0815065 398.682173,8.50514915 C396.052189,6.92879183 392.777008,6.140625 388.856534,6.140625 L379.153409,6.140625 L379.153409,45.5411932 Z M434.811872,51.7159091 C431.414127,51.7159091 428.437062,50.9073234 425.880586,49.2901278 C423.32411,47.6729323 421.331233,45.4105259 419.901893,42.5028409 C418.472554,39.5951559 417.757894,36.1974626 417.757894,32.3096591 C417.757894,28.3891849 418.472554,24.9669891 419.901893,22.0429688 C421.331233,19.1189484 423.32411,16.8483746 425.880586,15.231179 C428.437062,13.6139834 431.414127,12.8053977 434.811872,12.8053977 C438.209616,12.8053977 441.186681,13.6139834 443.743157,15.231179 C446.299633,16.8483746 448.292511,19.1189484 449.72185,22.0429688 C451.15119,24.9669891 451.865849,28.3891849 451.865849,32.3096591 C451.865849,36.1974626 451.15119,39.5951559 449.72185,42.5028409 C448.292511,45.4105259 446.299633,47.6729323 443.743157,49.2901278 C441.186681,50.9073234 438.209616,51.7159091 434.811872,51.7159091 Z M434.811872,46.5213068 C437.392851,46.5213068 439.516409,45.8597367 441.18261,44.5365767 C442.848812,43.2134167 444.082109,41.4737324 444.882539,39.3174716 C445.682969,37.1612108 446.083179,34.8252967 446.083179,32.3096591 C446.083179,29.7940215 445.682969,27.4499398 444.882539,25.2773438 C444.082109,23.1047477 442.848812,21.3487283 441.18261,20.009233 C439.516409,18.6697376 437.392851,18 434.811872,18 C432.230893,18 430.107335,18.6697376 428.441133,20.009233 C426.774932,21.3487283 425.541634,23.1047477 424.741204,25.2773438 C423.940774,27.4499398 423.540565,29.7940215 423.540565,32.3096591 C423.540565,34.8252967 423.940774,37.1612108 424.741204,39.3174716 C425.541634,41.4737324 426.774932,43.2134167 428.441133,44.5365767 C430.107335,45.8597367 432.230893,46.5213068 434.811872,46.5213068 Z M473.61238,51.7159091 C470.083953,51.7159091 467.045631,50.8828208 464.497323,49.2166193 C461.949015,47.5504178 459.988807,45.2553413 458.616641,42.331321 C457.244475,39.4073007 456.558403,36.0667801 456.558403,32.3096591 C456.558403,28.4871968 457.264894,25.1099223 458.677898,22.1777344 C460.090903,19.2455464 462.067445,16.9504699 464.607586,15.2924361 C467.147726,13.6344022 470.116624,12.8053977 473.514368,12.8053977 C476.160689,12.8053977 478.545608,13.2954496 480.669198,14.2755682 C482.792788,15.2556867 484.532472,16.6278321 485.888303,18.3920455 C487.244134,20.1562588 488.08539,22.2144769 488.412096,24.5667614 L482.629425,24.5667614 C482.188372,22.8515539 481.212352,21.3283092 479.701336,19.9969815 C478.19032,18.6656539 476.160688,18 473.61238,18 C471.358107,18 469.385648,18.5839785 467.694944,19.7519531 C466.004239,20.9199277 464.689267,22.5616016 463.749986,24.6770241 C462.810706,26.7924467 462.341073,29.2712926 462.341073,32.1136364 C462.341073,35.0213214 462.802539,37.5532563 463.725484,39.709517 C464.648428,41.8657778 465.955234,43.5401219 467.645938,44.7325994 C469.336643,45.925077 471.325437,46.5213068 473.61238,46.5213068 C475.115228,46.5213068 476.479206,46.2599458 477.704354,45.7372159 C478.929502,45.214486 479.966779,44.4630731 480.816215,43.4829545 C481.665651,42.502836 482.270048,41.3267114 482.629425,39.9545455 L488.412096,39.9545455 C488.08539,42.1761475 487.280888,44.173109 485.998566,45.9454901 C484.716244,47.7178711 483.025565,49.1226866 480.926478,50.1599787 C478.827391,51.1972708 476.389382,51.7159091 473.61238,51.7159091 Z M521.135899,21.7244318 L515.941297,23.1946023 C515.614591,22.3288309 515.13679,21.4834913 514.507881,20.6585582 C513.878971,19.8336251 513.025464,19.1516362 511.947334,18.612571 C510.869204,18.0735058 509.488891,17.8039773 507.806354,17.8039773 C505.503075,17.8039773 503.587789,18.3307831 502.060438,19.3844105 C500.533086,20.4380379 499.769422,21.7734294 499.769422,23.390625 C499.769422,24.8281322 500.292144,25.9634191 501.337604,26.7965199 C502.383064,27.6296206 504.01657,28.3238609 506.238172,28.8792614 L511.82482,30.2514205 C515.189893,31.0681859 517.697326,32.3137345 519.347192,33.9881037 C520.997058,35.6624729 521.821979,37.8146175 521.821979,40.4446023 C521.821979,42.6008631 521.20533,44.5284006 519.972014,46.2272727 C518.738699,47.9261449 517.019433,49.2656201 514.814166,50.2457386 C512.6089,51.2258572 510.044295,51.7159091 507.120274,51.7159091 C503.281477,51.7159091 500.104307,50.8828208 497.588669,49.2166193 C495.073032,47.5504178 493.480363,45.1164933 492.810615,41.9147727 L498.299252,40.5426136 C498.821981,42.5681919 499.814337,44.0873529 501.276347,45.100142 C502.738357,46.1129312 504.653643,46.6193182 507.022263,46.6193182 C509.717589,46.6193182 511.861566,46.0435072 513.454259,44.8918679 C515.046951,43.7402286 515.843286,42.3558319 515.843286,40.7386364 C515.843286,39.4318116 515.385904,38.3332786 514.471127,37.4430043 C513.556349,36.5527299 512.151534,35.8870761 510.256638,35.4460227 L503.983911,33.9758523 C500.53716,33.1590868 498.009309,31.8890356 496.400281,30.1656605 C494.791253,28.4422854 493.986752,26.2819732 493.986752,23.6846591 C493.986752,21.5610689 494.587065,19.6825366 495.78771,18.0490057 C496.988356,16.4154748 498.63003,15.1331723 500.712781,14.2020597 C502.795533,13.270947 505.160034,12.8053977 507.806354,12.8053977 C511.530804,12.8053977 514.458864,13.6221509 516.590622,15.2556818 C518.72238,16.8892127 520.237457,19.0454412 521.135899,21.7244318 Z" id="Docs"></path>
            </g>
        </g>
    </g>
</svg>
