<?xml version="1.0" encoding="UTF-8"?>
<svg width="573px" height="171px" viewBox="0 0 573 171" version="1.1" xmlns="http://www.w3.org/2000/svg" xmlns:xlink="http://www.w3.org/1999/xlink">
    <title>PKP School</title>
    <desc>An official PKP logotype.</desc>
    <path d="M17.6523885,112.189239 L17.6523885,76.8044619 C17.6523885,45.4406824 17.6523885,39.8112861 17.2502887,33.3776903 C16.848189,26.5419948 15.23979,23.3251969 8.60514436,21.9178478 C6.99674541,21.515748 3.57889764,21.3146982 1.76944882,21.3146982 C0.965249344,21.3146982 0.161049869,20.9125984 0.161049869,20.108399 C0.161049869,18.9020997 1.16629921,18.5 3.37784777,18.5 C12.4250919,18.5 24.488084,19.1031496 26.0964829,19.1031496 C30.5195801,19.1031496 42.1804724,18.5 51.4287664,18.5 C76.56,18.5 85.6072441,26.9440945 88.824042,29.9598425 C93.2471391,34.1818898 98.8765354,43.2291339 98.8765354,56.2973753 C98.8765354,82.4338583 77.9673491,101.734646 49.4182677,101.734646 C48.4130184,101.734646 46.2014698,101.734646 45.1962205,101.533596 C44.1909711,101.533596 42.9846719,101.131496 42.9846719,100.126247 C42.9846719,98.5178478 44.1909711,98.3167979 48.4130184,98.3167979 C67.9148556,98.3167979 83.1946457,85.0475066 83.1946457,63.9372703 C83.1946457,58.9110236 82.5914961,45.4406824 71.935853,34.5839895 C61.28021,23.7272966 49.016168,24.5314961 44.392021,24.5314961 C40.9741732,24.5314961 37.5563255,24.9335958 35.7468766,25.7377953 C34.5405774,26.139895 34.1384777,27.5472441 34.1384777,29.5577428 L34.1384777,112.189239 C34.1384777,131.490026 34.1384777,147.372966 35.143727,155.81706 C35.7468766,161.647507 36.9531759,166.070604 42.9846719,166.874803 C45.7993701,167.276903 50.2224672,167.679003 52.031916,167.679003 C53.2382152,167.679003 53.640315,168.282152 53.640315,168.885302 C53.640315,169.890551 52.6350656,170.493701 50.4235171,170.493701 C39.3657743,170.493701 26.6996325,169.890551 25.6943832,169.890551 C25.0912336,169.890551 12.4250919,170.493701 6.3935958,170.493701 C4.18204724,170.493701 3.1767979,170.091601 3.1767979,168.885302 C3.1767979,168.282152 3.57889764,167.679003 4.78519685,167.679003 C6.59464567,167.679003 9.00724409,167.276903 10.8166929,166.874803 C14.8376903,166.070604 15.8429396,161.647507 16.6471391,155.81706 C17.6523885,147.372966 17.6523885,131.490026 17.6523885,112.189239 Z" id="Path" stroke="#000000" fill="#000000" fill-rule="nonzero"></path>
    <path d="M132.994698,76.8044619 L132.994698,89.6716535 C139.227244,83.6401575 166.570026,54.8900262 178.834068,42.2238845 C190.89706,29.7587927 191.70126,27.748294 191.70126,25.3356955 C191.70126,23.7272966 190.69601,22.1188976 189.087612,21.515748 C187.680262,20.9125984 187.278163,20.5104987 187.278163,19.7062992 C187.278163,18.9020997 188.484462,18.5 190.293911,18.5 C196.124357,18.5 195.521207,19.1031496 202.356903,19.1031496 C208.589449,19.1031496 220.451391,18.5 223.668189,18.5 C226.482887,18.5 227.086037,19.1031496 227.086037,19.9073491 C227.086037,20.7115486 226.683937,21.1136483 224.874488,21.3146982 C221.054541,21.7167979 217.435643,22.5209974 214.620945,23.7272966 C209.594698,25.7377953 205.774751,28.1503937 193.711759,39.8112861 C176.01937,56.9005249 153.099685,79.6191601 147.872388,85.4496063 C160.53853,99.3220472 197.129606,136.516273 206.57895,145.362467 C223.065039,160.843307 230.101785,165.266404 239.752178,167.075853 C241.561627,167.477953 243.572126,167.679003 245.582625,167.679003 C247.191024,167.679003 248.397323,168.081102 248.397323,169.086352 C248.397323,170.091601 247.593123,170.493701 245.381575,170.493701 L230.503885,170.493701 C213.012546,170.493701 208.388399,168.282152 198.939055,160.843307 C186.876063,151.393963 150.687087,112.591339 132.994698,91.4811024 L132.994698,112.189239 C132.994698,131.490026 132.994698,147.372966 133.999948,155.81706 C134.603097,161.647507 135.809396,166.070604 141.840892,166.874803 C144.655591,167.276903 148.676588,167.679003 149.882887,167.679003 C151.692336,167.679003 152.295486,168.483202 152.295486,169.086352 C152.295486,170.091601 151.491286,170.493701 149.279738,170.493701 C138.221995,170.493701 125.555853,169.890551 124.550604,169.890551 C123.545354,169.890551 111.683412,170.493701 105.651916,170.493701 C103.440367,170.493701 102.435118,170.292651 102.435118,169.086352 C102.435118,168.483202 102.837218,167.679003 104.646667,167.679003 C105.852966,167.679003 108.064514,167.477953 109.873963,167.075853 C113.894961,166.271654 115.10126,161.647507 115.905459,155.81706 C116.910709,147.372966 116.910709,131.490026 116.910709,112.189239 L116.910709,76.8044619 C116.910709,45.4406824 116.910709,39.8112861 116.508609,33.3776903 C116.106509,26.5419948 114.09601,23.124147 109.672913,22.1188976 C107.461365,21.515748 103.842467,21.3146982 102.435118,21.3146982 C100.826719,21.3146982 100.22357,20.9125984 100.22357,20.108399 C100.22357,18.9020997 101.228819,18.5 103.440367,18.5 C110.075013,18.5 123.545354,19.1031496 124.550604,19.1031496 C125.555853,19.1031496 138.221995,18.5 144.253491,18.5 C146.465039,18.5 147.470289,18.9020997 147.470289,19.9073491 C147.470289,20.7115486 147.068189,21.1136483 145.25874,21.3146982 C143.047192,21.515748 142.846142,21.515748 140.835643,21.7167979 C135.407297,22.3199475 133.798898,26.3409449 133.396798,33.3776903 C132.994698,39.8112861 132.994698,45.4406824 132.994698,76.8044619 Z" id="Path" stroke="#000000" fill="#000000" fill-rule="nonzero"></path>
    <path d="M255.775853,112.189239 L255.775853,76.8044619 C255.775853,45.4406824 255.775853,39.8112861 255.373753,33.3776903 C254.971654,26.5419948 253.363255,23.3251969 246.728609,21.9178478 C245.12021,21.515748 241.702362,21.3146982 239.892913,21.3146982 C239.088714,21.3146982 238.284514,20.9125984 238.284514,20.108399 C238.284514,18.9020997 239.289764,18.5 241.501312,18.5 C250.548556,18.5 262.611549,19.1031496 264.219948,19.1031496 C268.643045,19.1031496 280.303937,18.5 289.552231,18.5 C314.683465,18.5 323.730709,26.9440945 326.947507,29.9598425 C331.370604,34.1818898 337,43.2291339 337,56.2973753 C337,82.4338583 316.090814,101.734646 287.541732,101.734646 C286.536483,101.734646 284.324934,101.734646 283.319685,101.533596 C282.314436,101.533596 281.108136,101.131496 281.108136,100.126247 C281.108136,98.5178478 282.314436,98.3167979 286.536483,98.3167979 C306.03832,98.3167979 321.31811,85.0475066 321.31811,63.9372703 C321.31811,58.9110236 320.714961,45.4406824 310.059318,34.5839895 C299.403675,23.7272966 287.139633,24.5314961 282.515486,24.5314961 C279.097638,24.5314961 275.67979,24.9335958 273.870341,25.7377953 C272.664042,26.139895 272.261942,27.5472441 272.261942,29.5577428 L272.261942,112.189239 C272.261942,131.490026 272.261942,147.372966 273.267192,155.81706 C273.870341,161.647507 275.07664,166.070604 281.108136,166.874803 C283.922835,167.276903 288.345932,167.679003 290.155381,167.679003 C291.36168,167.679003 291.76378,168.282152 291.76378,168.885302 C291.76378,169.890551 290.75853,170.493701 288.546982,170.493701 C277.489239,170.493701 264.823097,169.890551 263.817848,169.890551 C263.214698,169.890551 250.548556,170.493701 244.51706,170.493701 C242.305512,170.493701 241.300262,170.091601 241.300262,168.885302 C241.300262,168.282152 241.702362,167.679003 242.908661,167.679003 C244.71811,167.679003 247.130709,167.276903 248.940157,166.874803 C252.961155,166.070604 253.966404,161.647507 254.770604,155.81706 C255.775853,147.372966 255.775853,131.490026 255.775853,112.189239 Z" id="Path" stroke="#000000" fill="#000000" fill-rule="nonzero"></path>
    <path d="M400.519886,13.8636364 C400.225851,11.3806694 399.033391,9.45313186 396.942472,8.08096591 C394.851552,6.70879996 392.286947,6.02272727 389.24858,6.02272727 C387.026978,6.02272727 385.087189,6.38209868 383.429155,7.10085227 C381.771121,7.81960587 380.480651,8.80787723 379.557706,10.065696 C378.634761,11.3235148 378.173295,12.7528329 378.173295,14.3536932 C378.173295,15.6931885 378.495913,16.8407268 379.141158,17.7963423 C379.786402,18.7519579 380.615407,19.5442085 381.628196,20.1731179 C382.640985,20.8020273 383.702764,21.3165818 384.813565,21.7167969 C385.924366,22.1170119 386.945308,22.4396295 387.87642,22.6846591 L392.973011,24.0568182 C394.279836,24.3998597 395.737741,24.8735765 397.346768,25.477983 C398.955796,26.0823894 400.49946,26.9032263 401.977805,27.9405185 C403.456151,28.9778106 404.677197,30.3050345 405.64098,31.9222301 C406.604763,33.5394257 407.086648,35.524136 407.086648,37.8764205 C407.086648,40.5880817 406.380156,43.0383413 404.967152,45.2272727 C403.554148,47.4162041 401.49593,49.1558884 398.792436,50.4463778 C396.088942,51.7368672 392.809678,52.3821023 388.954545,52.3821023 C385.360777,52.3821023 382.253032,51.8022075 379.631214,50.6424006 C377.009397,49.4825936 374.951179,47.8654223 373.456499,45.7908381 C371.961818,43.7162538 371.116478,41.3068319 370.920455,38.5625 L377.193182,38.5625 C377.356535,40.4573958 377.997686,42.0214782 379.116655,43.254794 C380.235623,44.4881099 381.656774,45.4028734 383.380149,45.9991122 C385.103524,46.595351 386.961638,46.8934659 388.954545,46.8934659 C391.274159,46.8934659 393.35688,46.5136757 395.20277,45.7540838 C397.04866,44.9944919 398.510648,43.9327128 399.588778,42.5687145 C400.666909,41.2047162 401.205966,39.6079637 401.205966,37.7784091 C401.205966,36.1122076 400.740417,34.7563973 399.809304,33.7109375 C398.878191,32.6654777 397.653062,31.8160544 396.133878,31.162642 C394.614694,30.5092297 392.97302,29.9375025 391.208807,29.4474432 L385.034091,27.6832386 C381.113617,26.5561023 378.009955,24.9470985 375.723011,22.856179 C373.436068,20.7652594 372.292614,18.0291362 372.292614,14.6477273 C372.292614,11.8380541 373.056278,9.38371078 374.583629,7.28462358 C376.110981,5.18553638 378.169199,3.55202999 380.758345,2.3840554 C383.347492,1.21608081 386.242882,0.632102273 389.444602,0.632102273 C392.678993,0.632102273 395.553965,1.20791328 398.069602,2.35955256 C400.58524,3.51119184 402.582201,5.08344174 404.060547,7.07634943 C405.538892,9.06925712 406.318892,11.3316635 406.400568,13.8636364 L400.519886,13.8636364 Z M429.225224,52.2840909 C425.696797,52.2840909 422.658475,51.4510026 420.110167,49.7848011 C417.561859,48.1185996 415.601651,45.8235231 414.229485,42.8995028 C412.857319,39.9754825 412.171247,36.634962 412.171247,32.8778409 C412.171247,29.0553786 412.877738,25.6781041 414.290742,22.7459162 C415.703747,19.8137282 417.680289,17.5186518 420.22043,15.8606179 C422.760571,14.202584 425.729468,13.3735795 429.127213,13.3735795 C431.773533,13.3735795 434.158452,13.8636315 436.282042,14.84375 C438.405632,15.8238685 440.145317,17.1960139 441.501147,18.9602273 C442.856978,20.7244406 443.698234,22.7826587 444.02494,25.1349432 L438.242269,25.1349432 C437.801216,23.4197357 436.825196,21.896491 435.31418,20.5651634 C433.803164,19.2338357 431.773532,18.5681818 429.225224,18.5681818 C426.970951,18.5681818 424.998492,19.1521604 423.307788,20.3201349 C421.617083,21.4881095 420.302111,23.1297835 419.362831,25.245206 C418.42355,27.3606285 417.953917,29.8394744 417.953917,32.6818182 C417.953917,35.5895032 418.415383,38.1214381 419.338328,40.2776989 C420.261273,42.4339596 421.568078,44.1083037 423.258782,45.3007812 C424.949487,46.4932588 426.938281,47.0894886 429.225224,47.0894886 C430.728072,47.0894886 432.09205,46.8281276 433.317198,46.3053977 C434.542347,45.7826678 435.579623,45.0312549 436.429059,44.0511364 C437.278495,43.0710178 437.882893,41.8948932 438.242269,40.5227273 L444.02494,40.5227273 C443.698234,42.7443293 442.893732,44.7412909 441.61141,46.5136719 C440.329088,48.2860529 438.638409,49.6908684 436.539322,50.7281605 C434.440235,51.7654526 432.002227,52.2840909 429.225224,52.2840909 Z M455.872323,28.859375 L455.872323,51.5 L450.089653,51.5 L450.089653,1.31818182 L455.872323,1.31818182 L455.872323,19.7443182 L456.36238,19.7443182 C457.244487,17.8004164 458.57171,16.2526691 460.344091,15.1010298 C462.116473,13.9493905 464.480973,13.3735795 467.437664,13.3735795 C470.002307,13.3735795 472.248379,13.8840503 474.175945,14.9050071 C476.103512,15.9259639 477.602254,17.4859625 478.672216,19.5850497 C479.742179,21.6841369 480.277153,24.3508361 480.277153,27.5852273 L480.277153,51.5 L474.494482,51.5 L474.494482,27.9772727 C474.494482,24.9879112 473.72265,22.6724159 472.178964,21.0307173 C470.635277,19.3890188 468.499467,18.5681818 465.771471,18.5681818 C463.876575,18.5681818 462.181812,18.9683909 460.687131,19.768821 C459.19245,20.5692512 458.016326,21.7372082 457.158722,23.2727273 C456.301118,24.8082463 455.872323,26.6704436 455.872323,28.859375 Z M503.787888,52.2840909 C500.390144,52.2840909 497.413078,51.4755052 494.856602,49.8583097 C492.300127,48.2411141 490.307249,45.9787077 488.877909,43.0710227 C487.44857,40.1633377 486.733911,36.7656444 486.733911,32.8778409 C486.733911,28.9573668 487.44857,25.5351709 488.877909,22.6111506 C490.307249,19.6871303 492.300127,17.4165564 494.856602,15.7993608 C497.413078,14.1821652 500.390144,13.3735795 503.787888,13.3735795 C507.185632,13.3735795 510.162698,14.1821652 512.719173,15.7993608 C515.275649,17.4165564 517.268527,19.6871303 518.697867,22.6111506 C520.127206,25.5351709 520.841865,28.9573668 520.841865,32.8778409 C520.841865,36.7656444 520.127206,40.1633377 518.697867,43.0710227 C517.268527,45.9787077 515.275649,48.2411141 512.719173,49.8583097 C510.162698,51.4755052 507.185632,52.2840909 503.787888,52.2840909 Z M503.787888,47.0894886 C506.368867,47.0894886 508.492425,46.4279185 510.158627,45.1047585 C511.824828,43.7815985 513.058125,42.0419142 513.858556,39.8856534 C514.658986,37.7293926 515.059195,35.3934785 515.059195,32.8778409 C515.059195,30.3622033 514.658986,28.0181217 513.858556,25.8455256 C513.058125,23.6729295 511.824828,21.9169101 510.158627,20.5774148 C508.492425,19.2379194 506.368867,18.5681818 503.787888,18.5681818 C501.206909,18.5681818 499.083351,19.2379194 497.417149,20.5774148 C495.750948,21.9169101 494.51765,23.6729295 493.71722,25.8455256 C492.91679,28.0181217 492.516581,30.3622033 492.516581,32.8778409 C492.516581,35.3934785 492.91679,37.7293926 493.71722,39.8856534 C494.51765,42.0419142 495.750948,43.7815985 497.417149,45.1047585 C499.083351,46.4279185 501.206909,47.0894886 503.787888,47.0894886 Z M542.588396,52.2840909 C539.190652,52.2840909 536.213586,51.4755052 533.657111,49.8583097 C531.100635,48.2411141 529.107757,45.9787077 527.678417,43.0710227 C526.249078,40.1633377 525.534419,36.7656444 525.534419,32.8778409 C525.534419,28.9573668 526.249078,25.5351709 527.678417,22.6111506 C529.107757,19.6871303 531.100635,17.4165564 533.657111,15.7993608 C536.213586,14.1821652 539.190652,13.3735795 542.588396,13.3735795 C545.98614,13.3735795 548.963206,14.1821652 551.519682,15.7993608 C554.076157,17.4165564 556.069035,19.6871303 557.498375,22.6111506 C558.927714,25.5351709 559.642373,28.9573668 559.642373,32.8778409 C559.642373,36.7656444 558.927714,40.1633377 557.498375,43.0710227 C556.069035,45.9787077 554.076157,48.2411141 551.519682,49.8583097 C548.963206,51.4755052 545.98614,52.2840909 542.588396,52.2840909 Z M542.588396,47.0894886 C545.169375,47.0894886 547.292933,46.4279185 548.959135,45.1047585 C550.625336,43.7815985 551.858634,42.0419142 552.659064,39.8856534 C553.459494,37.7293926 553.859703,35.3934785 553.859703,32.8778409 C553.859703,30.3622033 553.459494,28.0181217 552.659064,25.8455256 C551.858634,23.6729295 550.625336,21.9169101 548.959135,20.5774148 C547.292933,19.2379194 545.169375,18.5681818 542.588396,18.5681818 C540.007417,18.5681818 537.883859,19.2379194 536.217657,20.5774148 C534.551456,21.9169101 533.318159,23.6729295 532.517728,25.8455256 C531.717298,28.0181217 531.317089,30.3622033 531.317089,32.8778409 C531.317089,35.3934785 531.717298,37.7293926 532.517728,39.8856534 C533.318159,42.0419142 534.551456,43.7815985 536.217657,45.1047585 C537.883859,46.4279185 540.007417,47.0894886 542.588396,47.0894886 Z M571.881802,1.31818182 L571.881802,51.5 L566.099131,51.5 L566.099131,1.31818182 L571.881802,1.31818182 Z" id="School" fill="#000000" fill-rule="nonzero"></path>
</svg>
