<svg width="571" height="171" viewBox="0 0 571 171" fill="none" xmlns="http://www.w3.org/2000/svg">
<path d="M399.599 13.9815C399.305 11.4986 398.113 9.57103 396.022 8.19886C393.931 6.8267 391.366 6.14062 388.328 6.14062C386.107 6.14062 384.167 6.5 382.509 7.21875C380.851 7.9375 379.56 8.92577 378.637 10.1836C377.714 11.4414 377.253 12.8707 377.253 14.4716C377.253 15.8111 377.575 16.9586 378.221 17.9142C378.866 18.8699 379.695 19.6621 380.708 20.291C381.721 20.9199 382.782 21.4345 383.893 21.8347C385.004 22.2349 386.025 22.5575 386.956 22.8026L392.053 24.1747C393.359 24.5178 394.817 24.9915 396.426 25.5959C398.035 26.2003 399.579 27.0211 401.057 28.0584C402.536 29.0957 403.757 30.4229 404.721 32.0401C405.684 33.6573 406.166 35.642 406.166 37.9943C406.166 40.706 405.46 43.1562 404.047 45.3452C402.634 47.5341 400.576 49.2738 397.872 50.5643C395.169 51.8548 391.889 52.5 388.034 52.5C384.44 52.5 381.333 51.9201 378.711 50.7603C376.089 49.6005 374.031 47.9833 372.536 45.9087C371.041 43.8342 370.196 41.4247 370 38.6804H376.273C376.436 40.5753 377.077 42.1394 378.196 43.3727C379.315 44.606 380.736 45.5208 382.46 46.117C384.183 46.7132 386.041 47.0114 388.034 47.0114C390.354 47.0114 392.436 46.6316 394.282 45.872C396.128 45.1124 397.59 44.0506 398.668 42.6866C399.746 41.3226 400.286 39.7259 400.286 37.8963C400.286 36.2301 399.82 34.8743 398.889 33.8288C397.958 32.7834 396.733 31.934 395.213 31.2805C393.694 30.6271 392.053 30.0554 390.288 29.5653L384.114 27.8011C380.193 26.674 377.09 25.065 374.803 22.9741C372.516 20.8832 371.372 18.147 371.372 14.7656C371.372 11.956 372.136 9.50161 373.663 7.40252C375.191 5.30343 377.249 3.66993 379.838 2.50195C382.427 1.33398 385.322 0.75 388.524 0.75C391.759 0.75 394.634 1.32581 397.149 2.47745C399.665 3.62909 401.662 5.20134 403.14 7.19425C404.618 9.18715 405.398 11.4496 405.48 13.9815H399.599ZM428.305 52.402C424.776 52.402 421.738 51.5689 419.19 49.9027C416.641 48.2365 414.681 45.9414 413.309 43.0174C411.937 40.0934 411.251 36.7529 411.251 32.9957C411.251 29.1733 411.957 25.796 413.37 22.8638C414.783 19.9316 416.76 17.6365 419.3 15.9785C421.84 14.3205 424.809 13.4915 428.207 13.4915C430.853 13.4915 433.238 13.9815 435.362 14.9616C437.485 15.9418 439.225 17.3139 440.581 19.0781C441.937 20.8423 442.778 22.9006 443.104 25.2528H437.322C436.881 23.5376 435.905 22.0144 434.394 20.6831C432.883 19.3517 430.853 18.6861 428.305 18.6861C426.051 18.6861 424.078 19.2701 422.387 20.438C420.697 21.606 419.382 23.2477 418.442 25.3631C417.503 27.4785 417.033 29.9574 417.033 32.7997C417.033 35.7074 417.495 38.2393 418.418 40.3956C419.341 42.5519 420.648 44.2262 422.338 45.4187C424.029 46.6112 426.018 47.2074 428.305 47.2074C429.808 47.2074 431.172 46.946 432.397 46.4233C433.622 45.9006 434.659 45.1492 435.509 44.169C436.358 43.1889 436.962 42.0128 437.322 40.6406H443.104C442.778 42.8622 441.973 44.8592 440.691 46.6316C439.409 48.4039 437.718 49.8088 435.619 50.8461C433.52 51.8834 431.082 52.402 428.305 52.402ZM454.952 28.9773V51.6179H449.169V1.43608H454.952V19.8622H455.442C456.324 17.9183 457.651 16.3706 459.424 15.2189C461.196 14.0673 463.561 13.4915 466.517 13.4915C469.082 13.4915 471.328 14.0019 473.255 15.0229C475.183 16.0439 476.682 17.6039 477.752 19.7029C478.822 21.802 479.357 24.4687 479.357 27.7031V51.6179H473.574V28.0952C473.574 25.1058 472.802 22.7903 471.259 21.1486C469.715 19.5069 467.579 18.6861 464.851 18.6861C462.956 18.6861 461.261 19.0863 459.767 19.8867C458.272 20.6871 457.096 21.8551 456.238 23.3906C455.381 24.9261 454.952 26.7883 454.952 28.9773ZM502.867 52.402C499.47 52.402 496.493 51.5934 493.936 49.9762C491.38 48.359 489.387 46.0966 487.957 43.1889C486.528 40.2812 485.813 36.8835 485.813 32.9957C485.813 29.0753 486.528 25.6531 487.957 22.729C489.387 19.805 491.38 17.5345 493.936 15.9173C496.493 14.3001 499.47 13.4915 502.867 13.4915C506.265 13.4915 509.242 14.3001 511.799 15.9173C514.355 17.5345 516.348 19.805 517.777 22.729C519.207 25.6531 519.921 29.0753 519.921 32.9957C519.921 36.8835 519.207 40.2812 517.777 43.1889C516.348 46.0966 514.355 48.359 511.799 49.9762C509.242 51.5934 506.265 52.402 502.867 52.402ZM502.867 47.2074C505.448 47.2074 507.572 46.5458 509.238 45.2227C510.904 43.8995 512.138 42.1598 512.938 40.0036C513.739 37.8473 514.139 35.5114 514.139 32.9957C514.139 30.4801 513.739 28.136 512.938 25.9634C512.138 23.7908 510.904 22.0348 509.238 20.6953C507.572 19.3558 505.448 18.6861 502.867 18.6861C500.286 18.6861 498.163 19.3558 496.497 20.6953C494.831 22.0348 493.597 23.7908 492.797 25.9634C491.996 28.136 491.596 30.4801 491.596 32.9957C491.596 35.5114 491.996 37.8473 492.797 40.0036C493.597 42.1598 494.831 43.8995 496.497 45.2227C498.163 46.5458 500.286 47.2074 502.867 47.2074ZM541.668 52.402C538.27 52.402 535.293 51.5934 532.737 49.9762C530.18 48.359 528.187 46.0966 526.758 43.1889C525.329 40.2812 524.614 36.8835 524.614 32.9957C524.614 29.0753 525.329 25.6531 526.758 22.729C528.187 19.805 530.18 17.5345 532.737 15.9173C535.293 14.3001 538.27 13.4915 541.668 13.4915C545.066 13.4915 548.043 14.3001 550.599 15.9173C553.156 17.5345 555.149 19.805 556.578 22.729C558.007 25.6531 558.722 29.0753 558.722 32.9957C558.722 36.8835 558.007 40.2812 556.578 43.1889C555.149 46.0966 553.156 48.359 550.599 49.9762C548.043 51.5934 545.066 52.402 541.668 52.402ZM541.668 47.2074C544.249 47.2074 546.372 46.5458 548.039 45.2227C549.705 43.8995 550.938 42.1598 551.739 40.0036C552.539 37.8473 552.939 35.5114 552.939 32.9957C552.939 30.4801 552.539 28.136 551.739 25.9634C550.938 23.7908 549.705 22.0348 548.039 20.6953C546.372 19.3558 544.249 18.6861 541.668 18.6861C539.087 18.6861 536.963 19.3558 535.297 20.6953C533.631 22.0348 532.398 23.7908 531.597 25.9634C530.797 28.136 530.397 30.4801 530.397 32.9957C530.397 35.5114 530.797 37.8473 531.597 40.0036C532.398 42.1598 533.631 43.8995 535.297 45.2227C536.963 46.5458 539.087 47.2074 541.668 47.2074ZM570.961 1.43608V51.6179H565.179V1.43608H570.961Z" fill="#272522"/>
<path d="M17.8632 111.542V75.4577C17.8632 43.4735 17.8632 37.7328 17.4526 31.172C17.0419 24.2011 15.3993 20.9206 8.62361 19.4854C6.98102 19.0754 3.49051 18.8704 1.64259 18.8704C0.821296 18.8704 0 18.4603 0 17.6402C0 16.4101 1.02662 16 3.28519 16C12.5248 16 24.8442 16.6151 26.4868 16.6151C31.0039 16.6151 42.9127 16 52.3576 16C78.0232 16 87.2627 24.6111 90.5479 27.6865C95.0651 31.9921 100.814 41.2183 100.814 54.545C100.814 81.1984 79.4604 100.881 50.3044 100.881C49.2778 100.881 47.0192 100.881 45.9926 100.676C44.966 100.676 43.734 100.266 43.734 99.2407C43.734 97.6005 44.966 97.3955 49.2778 97.3955C69.1942 97.3955 84.7989 83.8638 84.7989 62.336C84.7989 57.2103 84.1829 43.4735 73.3007 32.4021C62.4185 21.3307 49.8938 22.1508 45.1713 22.1508C41.6808 22.1508 38.1903 22.5608 36.3424 23.381C35.1104 23.791 34.6998 25.2262 34.6998 27.2765V111.542C34.6998 131.225 34.6998 147.422 35.7264 156.033C36.3424 161.979 37.5743 166.489 43.734 167.31C46.6086 167.72 51.1257 168.13 52.9736 168.13C54.2056 168.13 54.6162 168.745 54.6162 169.36C54.6162 170.385 53.5896 171 51.331 171C40.0382 171 27.1028 170.385 26.0762 170.385C25.4602 170.385 12.5248 171 6.36505 171C4.10648 171 3.07986 170.59 3.07986 169.36C3.07986 168.745 3.49051 168.13 4.72245 168.13C6.57037 168.13 9.03426 167.72 10.8822 167.31C14.9887 166.489 16.0153 161.979 16.8366 156.033C17.8632 147.422 17.8632 131.225 17.8632 111.542ZM135.658 75.4577V88.5794C142.023 82.4286 169.947 53.1098 182.472 40.1931C194.791 27.4815 195.612 25.4312 195.612 22.9709C195.612 21.3307 194.586 19.6905 192.943 19.0754C191.506 18.4603 191.095 18.0503 191.095 17.2302C191.095 16.4101 192.327 16 194.175 16C200.129 16 199.513 16.6151 206.494 16.6151C212.86 16.6151 224.974 16 228.259 16C231.133 16 231.749 16.6151 231.749 17.4352C231.749 18.2553 231.339 18.6653 229.491 18.8704C225.59 19.2804 221.894 20.1005 219.019 21.3307C213.886 23.381 209.985 25.8413 197.666 37.7328C179.597 55.1601 156.19 78.328 150.852 84.2738C163.787 98.4206 201.156 136.351 210.806 145.372C227.643 161.159 234.829 165.669 244.685 167.515C246.533 167.925 248.586 168.13 250.639 168.13C252.282 168.13 253.514 168.54 253.514 169.565C253.514 170.59 252.692 171 250.434 171H235.24C217.377 171 212.654 168.745 203.004 161.159C190.685 151.522 153.726 111.952 135.658 90.4246V111.542C135.658 131.225 135.658 147.422 136.684 156.033C137.3 161.979 138.532 166.489 144.692 167.31C147.566 167.72 151.673 168.13 152.905 168.13C154.753 168.13 155.369 168.95 155.369 169.565C155.369 170.59 154.547 171 152.289 171C140.996 171 128.061 170.385 127.034 170.385C126.007 170.385 113.893 171 107.734 171C105.475 171 104.448 170.795 104.448 169.565C104.448 168.95 104.859 168.13 106.707 168.13C107.939 168.13 110.197 167.925 112.045 167.515C116.152 166.694 117.384 161.979 118.205 156.033C119.232 147.422 119.232 131.225 119.232 111.542V75.4577C119.232 43.4735 119.232 37.7328 118.821 31.172C118.41 24.2011 116.357 20.7156 111.84 19.6905C109.581 19.0754 105.886 18.8704 104.448 18.8704C102.806 18.8704 102.19 18.4603 102.19 17.6402C102.19 16.4101 103.216 16 105.475 16C112.251 16 126.007 16.6151 127.034 16.6151C128.061 16.6151 140.996 16 147.156 16C149.414 16 150.441 16.4101 150.441 17.4352C150.441 18.2553 150.03 18.6653 148.182 18.8704C145.924 19.0754 145.719 19.0754 143.665 19.2804C138.122 19.8955 136.479 23.996 136.068 31.172C135.658 37.7328 135.658 43.4735 135.658 75.4577ZM261.049 111.542V75.4577C261.049 43.4735 261.049 37.7328 260.638 31.172C260.228 24.2011 258.585 20.9206 251.809 19.4854C250.167 19.0754 246.676 18.8704 244.828 18.8704C244.007 18.8704 243.186 18.4603 243.186 17.6402C243.186 16.4101 244.213 16 246.471 16C255.711 16 268.03 16.6151 269.673 16.6151C274.19 16.6151 286.099 16 295.544 16C321.209 16 330.449 24.6111 333.734 27.6865C338.251 31.9921 344 41.2183 344 54.545C344 81.1984 322.646 100.881 293.49 100.881C292.464 100.881 290.205 100.881 289.178 100.676C288.152 100.676 286.92 100.266 286.92 99.2407C286.92 97.6005 288.152 97.3955 292.464 97.3955C312.38 97.3955 327.985 83.8638 327.985 62.336C327.985 57.2103 327.369 43.4735 316.487 32.4021C305.604 21.3307 293.08 22.1508 288.357 22.1508C284.867 22.1508 281.376 22.5608 279.528 23.381C278.296 23.791 277.886 25.2262 277.886 27.2765V111.542C277.886 131.225 277.886 147.422 278.912 156.033C279.528 161.979 280.76 166.489 286.92 167.31C289.794 167.72 294.312 168.13 296.159 168.13C297.391 168.13 297.802 168.745 297.802 169.36C297.802 170.385 296.775 171 294.517 171C283.224 171 270.289 170.385 269.262 170.385C268.646 170.385 255.711 171 249.551 171C247.292 171 246.266 170.59 246.266 169.36C246.266 168.745 246.676 168.13 247.908 168.13C249.756 168.13 252.22 167.72 254.068 167.31C258.175 166.489 259.201 161.979 260.022 156.033C261.049 147.422 261.049 131.225 261.049 111.542Z" fill="#272522"/>
</svg>
