<?xml version="1.0" encoding="UTF-8"?>
<svg width="677px" height="172px" viewBox="0 0 677 172" version="1.1" xmlns="http://www.w3.org/2000/svg" xmlns:xlink="http://www.w3.org/1999/xlink">
    <title>PKP Publishing Services</title>
    <desc>An official PKP logotype.</desc>
    <path d="M17.6523885,113.189239 L17.6523885,77.8044619 C17.6523885,46.4406824 17.6523885,40.8112861 17.2502887,34.3776903 C16.848189,27.5419948 15.23979,24.3251969 8.60514436,22.9178478 C6.99674541,22.515748 3.57889764,22.3146982 1.76944882,22.3146982 C0.965249344,22.3146982 0.161049869,21.9125984 0.161049869,21.108399 C0.161049869,19.9020997 1.16629921,19.5 3.37784777,19.5 C12.4250919,19.5 24.488084,20.1031496 26.0964829,20.1031496 C30.5195801,20.1031496 42.1804724,19.5 51.4287664,19.5 C76.56,19.5 85.6072441,27.9440945 88.824042,30.9598425 C93.2471391,35.1818898 98.8765354,44.2291339 98.8765354,57.2973753 C98.8765354,83.4338583 77.9673491,102.734646 49.4182677,102.734646 C48.4130184,102.734646 46.2014698,102.734646 45.1962205,102.533596 C44.1909711,102.533596 42.9846719,102.131496 42.9846719,101.126247 C42.9846719,99.5178478 44.1909711,99.3167979 48.4130184,99.3167979 C67.9148556,99.3167979 83.1946457,86.0475066 83.1946457,64.9372703 C83.1946457,59.9110236 82.5914961,46.4406824 71.935853,35.5839895 C61.28021,24.7272966 49.016168,25.5314961 44.392021,25.5314961 C40.9741732,25.5314961 37.5563255,25.9335958 35.7468766,26.7377953 C34.5405774,27.139895 34.1384777,28.5472441 34.1384777,30.5577428 L34.1384777,113.189239 C34.1384777,132.490026 34.1384777,148.372966 35.143727,156.81706 C35.7468766,162.647507 36.9531759,167.070604 42.9846719,167.874803 C45.7993701,168.276903 50.2224672,168.679003 52.031916,168.679003 C53.2382152,168.679003 53.640315,169.282152 53.640315,169.885302 C53.640315,170.890551 52.6350656,171.493701 50.4235171,171.493701 C39.3657743,171.493701 26.6996325,170.890551 25.6943832,170.890551 C25.0912336,170.890551 12.4250919,171.493701 6.3935958,171.493701 C4.18204724,171.493701 3.1767979,171.091601 3.1767979,169.885302 C3.1767979,169.282152 3.57889764,168.679003 4.78519685,168.679003 C6.59464567,168.679003 9.00724409,168.276903 10.8166929,167.874803 C14.8376903,167.070604 15.8429396,162.647507 16.6471391,156.81706 C17.6523885,148.372966 17.6523885,132.490026 17.6523885,113.189239 Z" id="Path" stroke="#000000" fill="#000000" fill-rule="nonzero"></path>
    <path d="M132.994698,77.8044619 L132.994698,90.6716535 C139.227244,84.6401575 166.570026,55.8900262 178.834068,43.2238845 C190.89706,30.7587927 191.70126,28.748294 191.70126,26.3356955 C191.70126,24.7272966 190.69601,23.1188976 189.087612,22.515748 C187.680262,21.9125984 187.278163,21.5104987 187.278163,20.7062992 C187.278163,19.9020997 188.484462,19.5 190.293911,19.5 C196.124357,19.5 195.521207,20.1031496 202.356903,20.1031496 C208.589449,20.1031496 220.451391,19.5 223.668189,19.5 C226.482887,19.5 227.086037,20.1031496 227.086037,20.9073491 C227.086037,21.7115486 226.683937,22.1136483 224.874488,22.3146982 C221.054541,22.7167979 217.435643,23.5209974 214.620945,24.7272966 C209.594698,26.7377953 205.774751,29.1503937 193.711759,40.8112861 C176.01937,57.9005249 153.099685,80.6191601 147.872388,86.4496063 C160.53853,100.322047 197.129606,137.516273 206.57895,146.362467 C223.065039,161.843307 230.101785,166.266404 239.752178,168.075853 C241.561627,168.477953 243.572126,168.679003 245.582625,168.679003 C247.191024,168.679003 248.397323,169.081102 248.397323,170.086352 C248.397323,171.091601 247.593123,171.493701 245.381575,171.493701 L230.503885,171.493701 C213.012546,171.493701 208.388399,169.282152 198.939055,161.843307 C186.876063,152.393963 150.687087,113.591339 132.994698,92.4811024 L132.994698,113.189239 C132.994698,132.490026 132.994698,148.372966 133.999948,156.81706 C134.603097,162.647507 135.809396,167.070604 141.840892,167.874803 C144.655591,168.276903 148.676588,168.679003 149.882887,168.679003 C151.692336,168.679003 152.295486,169.483202 152.295486,170.086352 C152.295486,171.091601 151.491286,171.493701 149.279738,171.493701 C138.221995,171.493701 125.555853,170.890551 124.550604,170.890551 C123.545354,170.890551 111.683412,171.493701 105.651916,171.493701 C103.440367,171.493701 102.435118,171.292651 102.435118,170.086352 C102.435118,169.483202 102.837218,168.679003 104.646667,168.679003 C105.852966,168.679003 108.064514,168.477953 109.873963,168.075853 C113.894961,167.271654 115.10126,162.647507 115.905459,156.81706 C116.910709,148.372966 116.910709,132.490026 116.910709,113.189239 L116.910709,77.8044619 C116.910709,46.4406824 116.910709,40.8112861 116.508609,34.3776903 C116.106509,27.5419948 114.09601,24.124147 109.672913,23.1188976 C107.461365,22.515748 103.842467,22.3146982 102.435118,22.3146982 C100.826719,22.3146982 100.22357,21.9125984 100.22357,21.108399 C100.22357,19.9020997 101.228819,19.5 103.440367,19.5 C110.075013,19.5 123.545354,20.1031496 124.550604,20.1031496 C125.555853,20.1031496 138.221995,19.5 144.253491,19.5 C146.465039,19.5 147.470289,19.9020997 147.470289,20.9073491 C147.470289,21.7115486 147.068189,22.1136483 145.25874,22.3146982 C143.047192,22.515748 142.846142,22.515748 140.835643,22.7167979 C135.407297,23.3199475 133.798898,27.3409449 133.396798,34.3776903 C132.994698,40.8112861 132.994698,46.4406824 132.994698,77.8044619 Z" id="Path" stroke="#000000" fill="#000000" fill-rule="nonzero"></path>
    <path d="M255.775853,113.189239 L255.775853,77.8044619 C255.775853,46.4406824 255.775853,40.8112861 255.373753,34.3776903 C254.971654,27.5419948 253.363255,24.3251969 246.728609,22.9178478 C245.12021,22.515748 241.702362,22.3146982 239.892913,22.3146982 C239.088714,22.3146982 238.284514,21.9125984 238.284514,21.108399 C238.284514,19.9020997 239.289764,19.5 241.501312,19.5 C250.548556,19.5 262.611549,20.1031496 264.219948,20.1031496 C268.643045,20.1031496 280.303937,19.5 289.552231,19.5 C314.683465,19.5 323.730709,27.9440945 326.947507,30.9598425 C331.370604,35.1818898 337,44.2291339 337,57.2973753 C337,83.4338583 316.090814,102.734646 287.541732,102.734646 C286.536483,102.734646 284.324934,102.734646 283.319685,102.533596 C282.314436,102.533596 281.108136,102.131496 281.108136,101.126247 C281.108136,99.5178478 282.314436,99.3167979 286.536483,99.3167979 C306.03832,99.3167979 321.31811,86.0475066 321.31811,64.9372703 C321.31811,59.9110236 320.714961,46.4406824 310.059318,35.5839895 C299.403675,24.7272966 287.139633,25.5314961 282.515486,25.5314961 C279.097638,25.5314961 275.67979,25.9335958 273.870341,26.7377953 C272.664042,27.139895 272.261942,28.5472441 272.261942,30.5577428 L272.261942,113.189239 C272.261942,132.490026 272.261942,148.372966 273.267192,156.81706 C273.870341,162.647507 275.07664,167.070604 281.108136,167.874803 C283.922835,168.276903 288.345932,168.679003 290.155381,168.679003 C291.36168,168.679003 291.76378,169.282152 291.76378,169.885302 C291.76378,170.890551 290.75853,171.493701 288.546982,171.493701 C277.489239,171.493701 264.823097,170.890551 263.817848,170.890551 C263.214698,170.890551 250.548556,171.493701 244.51706,171.493701 C242.305512,171.493701 241.300262,171.091601 241.300262,169.885302 C241.300262,169.282152 241.702362,168.679003 242.908661,168.679003 C244.71811,168.679003 247.130709,168.276903 248.940157,167.874803 C252.961155,167.070604 253.966404,162.647507 254.770604,156.81706 C255.775853,148.372966 255.775853,132.490026 255.775853,113.189239 Z" id="Path" stroke="#000000" fill="#000000" fill-rule="nonzero"></path>
    <path d="M379.153409,28.78125 L389.934659,28.78125 C392.629985,28.78125 394.794381,28.3157007 396.427912,27.3845881 C398.061443,26.4534755 399.249819,25.1915918 399.993075,23.5988991 C400.736332,22.0062065 401.107955,20.2052657 401.107955,18.1960227 C401.107955,16.1867797 400.736332,14.3899227 399.993075,12.8053977 C399.249819,11.2208728 398.053275,9.97532414 396.403409,9.06871449 C394.753543,8.16210484 392.564644,7.70880682 389.836648,7.70880682 L379.153409,7.70880682 L379.153409,28.78125 L379.153409,28.78125 Z M379.153409,34.171875 L379.153409,52.5 L373.076705,52.5 L373.076705,2.31818182 L390.03267,2.31818182 C393.96948,2.31818182 397.191571,3.02467333 399.699041,4.43767756 C402.206511,5.85068178 404.064625,7.75780049 405.273437,10.1590909 C406.48225,12.5603813 407.086648,15.2393318 407.086648,18.1960227 C407.086648,21.1527136 406.486334,23.8398317 405.285689,26.2574574 C404.085044,28.6750831 402.235098,30.5985369 399.735795,32.0278764 C397.236493,33.457216 394.034821,34.171875 390.130682,34.171875 L379.153409,34.171875 L379.153409,34.171875 Z M437.458179,37.1122159 L437.458179,14.8636364 L443.240849,14.8636364 L443.240849,52.5 L437.458179,52.5 L437.458179,46.1292614 L437.066133,46.1292614 C436.184026,48.0404925 434.811881,49.6617476 432.949656,50.9930753 C431.087431,52.324403 428.735181,52.9900568 425.892838,52.9900568 C423.540553,52.9900568 421.449665,52.4714185 419.62011,51.4341264 C417.790556,50.3968343 416.35307,48.8286682 415.30761,46.729581 C414.262151,44.6304938 413.739429,41.9801296 413.739429,38.7784091 L413.739429,14.8636364 L419.522099,14.8636364 L419.522099,38.3863636 C419.522099,41.1306955 420.293931,43.3195941 421.837617,44.953125 C423.381304,46.5866559 425.353763,47.4034091 427.755054,47.4034091 C429.192561,47.4034091 430.658633,47.0358702 432.153313,46.3007812 C433.647994,45.5656923 434.905794,44.4385729 435.926751,42.9193892 C436.947708,41.4002055 437.458179,39.4645004 437.458179,37.1122159 Z M452.245903,52.5 L452.245903,2.31818182 L458.028573,2.31818182 L458.028573,20.8423295 L458.51863,20.8423295 C458.943348,20.1889172 459.535494,19.3517452 460.295086,18.3307884 C461.054678,17.3098315 462.149127,16.395068 463.578466,15.5864702 C465.007806,14.7778724 466.947595,14.3735795 469.397891,14.3735795 C472.566941,14.3735795 475.360237,15.1658301 477.777863,16.7503551 C480.195489,18.3348801 482.082188,20.5809514 483.438019,23.4886364 C484.79385,26.3963214 485.471755,29.8266848 485.471755,33.7798295 C485.471755,37.7656449 484.79385,41.2164272 483.438019,44.1322798 C482.082188,47.0481325 480.203656,49.3023713 477.802366,50.8950639 C475.401075,52.4877565 472.632282,53.2840909 469.495903,53.2840909 C467.078277,53.2840909 465.142572,52.8797981 463.688729,52.0712003 C462.234887,51.2626025 461.115935,50.3396714 460.33184,49.3023793 C459.547745,48.2650871 458.943348,47.4034125 458.51863,46.7173295 L457.83255,46.7173295 L457.83255,52.5 L452.245903,52.5 Z M457.930562,33.6818182 C457.930562,36.5241619 458.347106,39.0275105 459.180207,41.1919389 C460.013307,43.3563674 461.23027,45.0470465 462.83113,46.264027 C464.43199,47.4810075 466.392198,48.0894886 468.711812,48.0894886 C471.129437,48.0894886 473.150902,47.4483374 474.776265,46.1660156 C476.401628,44.8836939 477.626758,43.1521771 478.451691,40.9714134 C479.276624,38.7906496 479.689084,36.3608088 479.689084,33.6818182 C479.689084,31.0354981 479.284792,28.646495 478.476194,26.5147372 C477.667596,24.3829794 476.450634,22.6923003 474.82527,21.4426491 C473.199907,20.192998 471.162108,19.5681818 468.711812,19.5681818 C466.359527,19.5681818 464.382984,20.1603279 462.782124,21.3446378 C461.181264,22.5289477 459.972469,24.1787891 459.155704,26.2942116 C458.338938,28.4096342 457.930562,30.872145 457.930562,33.6818182 Z M497.711183,2.31818182 L497.711183,52.5 L491.928513,52.5 L491.928513,2.31818182 L497.711183,2.31818182 Z M505.932146,52.5 L505.932146,14.8636364 L511.714816,14.8636364 L511.714816,52.5 L505.932146,52.5 Z M508.872487,8.59090909 C507.745351,8.59090909 506.777498,8.20703509 505.9689,7.43927557 C505.160302,6.67151605 504.75601,5.74858494 504.75601,4.67045455 C504.75601,3.59232415 505.160302,2.66939304 505.9689,1.90163352 C506.777498,1.133874 507.745351,0.75 508.872487,0.75 C509.999623,0.75 510.967476,1.133874 511.776074,1.90163352 C512.584671,2.66939304 512.988964,3.59232415 512.988964,4.67045455 C512.988964,5.74858494 512.584671,6.67151605 511.776074,7.43927557 C510.967476,8.20703509 509.999623,8.59090909 508.872487,8.59090909 Z M546.59487,23.2926136 L541.400268,24.7627841 C541.073562,23.8970127 540.595761,23.0516732 539.966852,22.2267401 C539.337942,21.401807 538.484435,20.719818 537.406305,20.1807528 C536.328174,19.6416876 534.947861,19.3721591 533.265325,19.3721591 C530.962046,19.3721591 529.04676,19.8989649 527.519408,20.9525923 C525.992057,22.0062198 525.228393,23.3416112 525.228393,24.9588068 C525.228393,26.396314 525.751115,27.5316009 526.796575,28.3647017 C527.842034,29.1978025 529.475541,29.8920427 531.697143,30.4474432 L537.28379,31.8196023 C540.648864,32.6363677 543.156296,33.8819163 544.806163,35.5562855 C546.456029,37.2306547 547.28095,39.3827994 547.28095,42.0127841 C547.28095,44.1690449 546.664301,46.0965824 545.430985,47.7954545 C544.197669,49.4943267 542.478404,50.8338019 540.273137,51.8139205 C538.06787,52.794039 535.503265,53.2840909 532.579245,53.2840909 C528.740447,53.2840909 525.563278,52.4510026 523.04764,50.7848011 C520.532002,49.1185996 518.939334,46.6846751 518.269586,43.4829545 L523.758222,42.1107955 C524.280952,44.1363738 525.273307,45.6555347 526.735317,46.6683239 C528.197328,47.681113 530.112614,48.1875 532.481234,48.1875 C535.17656,48.1875 537.320537,47.611689 538.913229,46.4600497 C540.505922,45.3084104 541.302256,43.9240138 541.302256,42.3068182 C541.302256,40.9999935 540.844875,39.9014604 539.930097,39.0111861 C539.01532,38.1209117 537.610505,37.4552579 535.715609,37.0142045 L529.442881,35.5440341 C525.996131,34.7272686 523.46828,33.4572174 521.859252,31.7338423 C520.250224,30.0104672 519.445722,27.850155 519.445722,25.2528409 C519.445722,23.1292507 520.046036,21.2507184 521.246681,19.6171875 C522.447326,17.9836566 524.089,16.7013541 526.171752,15.7702415 C528.254504,14.8391289 530.619005,14.3735795 533.265325,14.3735795 C536.989775,14.3735795 539.917835,15.1903327 542.049593,16.8238636 C544.181351,18.4573945 545.696428,20.613623 546.59487,23.2926136 Z M559.422367,29.859375 L559.422367,52.5 L553.639696,52.5 L553.639696,2.31818182 L559.422367,2.31818182 L559.422367,20.7443182 L559.912424,20.7443182 C560.79453,18.8004164 562.121754,17.2526691 563.894135,16.1010298 C565.666516,14.9493905 568.031017,14.3735795 570.987708,14.3735795 C573.552351,14.3735795 575.798422,14.8840503 577.725989,15.9050071 C579.653555,16.9259639 581.152298,18.4859625 582.22226,20.5850497 C583.292223,22.6841369 583.827196,25.3508361 583.827196,28.5852273 L583.827196,52.5 L578.044526,52.5 L578.044526,28.9772727 C578.044526,25.9879112 577.272694,23.6724159 575.729007,22.0307173 C574.185321,20.3890188 572.049511,19.5681818 569.321515,19.5681818 C567.426619,19.5681818 565.731856,19.9683909 564.237175,20.768821 C562.742494,21.5692512 561.56637,22.7372082 560.708766,24.2727273 C559.851162,25.8082463 559.422367,27.6704436 559.422367,29.859375 Z M592.048159,52.5 L592.048159,14.8636364 L597.830829,14.8636364 L597.830829,52.5 L592.048159,52.5 Z M594.9885,8.59090909 C593.861364,8.59090909 592.893511,8.20703509 592.084913,7.43927557 C591.276315,6.67151605 590.872023,5.74858494 590.872023,4.67045455 C590.872023,3.59232415 591.276315,2.66939304 592.084913,1.90163352 C592.893511,1.133874 593.861364,0.75 594.9885,0.75 C596.115636,0.75 597.083489,1.133874 597.892087,1.90163352 C598.700684,2.66939304 599.104977,3.59232415 599.104977,4.67045455 C599.104977,5.74858494 598.700684,6.67151605 597.892087,7.43927557 C597.083489,8.20703509 596.115636,8.59090909 594.9885,8.59090909 Z M611.834463,29.859375 L611.834463,52.5 L606.051792,52.5 L606.051792,14.8636364 L611.63844,14.8636364 L611.63844,20.7443182 L612.128497,20.7443182 C613.010603,18.833087 614.350079,17.2935073 616.146963,16.1255327 C617.943847,14.9575581 620.263426,14.3735795 623.105769,14.3735795 C625.654078,14.3735795 627.883814,14.8922178 629.795045,15.9295099 C631.706276,16.9668021 633.192767,18.5349682 634.254562,20.6340554 C635.316357,22.7331426 635.847247,25.3835067 635.847247,28.5852273 L635.847247,52.5 L630.064576,52.5 L630.064576,28.9772727 C630.064576,26.0205818 629.296828,23.713254 627.761309,22.0552202 C626.22579,20.3971863 624.118567,19.5681818 621.439576,19.5681818 C619.593686,19.5681818 617.947929,19.9683909 616.502254,20.768821 C615.056579,21.5692512 613.917208,22.7372082 613.084107,24.2727273 C612.251007,25.8082463 611.834463,27.6704436 611.834463,29.859375 Z M659.259971,67.3977273 C656.466633,67.3977273 654.065378,67.0424396 652.056135,66.3318537 C650.046892,65.6212678 648.376632,64.6901691 647.045304,63.5385298 C645.713977,62.3868905 644.656281,61.157677 643.872187,59.8508523 L648.478721,56.6164773 C649.001451,57.3025602 649.663021,58.0907271 650.463451,58.9810014 C651.263881,59.8712758 652.362414,60.6471913 653.759083,61.3087713 C655.155752,61.9703513 656.989363,62.3011364 659.259971,62.3011364 C662.298338,62.3011364 664.80577,61.5660585 666.782343,60.0958807 C668.758915,58.6257029 669.747187,56.3224589 669.747187,53.1860795 L669.747187,45.5411932 L669.25713,45.5411932 C668.832412,46.2272762 668.232098,47.0726157 667.456171,48.0772372 C666.680244,49.0818587 665.569459,49.9721197 664.123785,50.7480469 C662.67811,51.5239741 660.730153,51.9119318 658.279857,51.9119318 C655.24149,51.9119318 652.517618,51.193189 650.10816,49.7556818 C647.698701,48.3181746 645.795667,46.2272864 644.398998,43.4829545 C643.002329,40.7386226 642.304005,37.4062696 642.304005,33.4857955 C642.304005,29.6306625 642.98191,26.2697231 644.337741,23.4028764 C645.693571,20.5360297 647.580271,18.314461 649.997897,16.7381037 C652.415522,15.1617464 655.208818,14.3735795 658.377868,14.3735795 C660.828165,14.3735795 662.776121,14.7778724 664.221796,15.5864702 C665.667471,16.395068 666.778255,17.3098315 667.554182,18.3307884 C668.330109,19.3517452 668.930423,20.1889172 669.355141,20.8423295 L669.943209,20.8423295 L669.943209,14.8636364 L675.529857,14.8636364 L675.529857,53.578125 C675.529857,56.8125162 674.798863,59.4465452 673.336853,61.4802912 C671.874843,63.5140372 669.914635,65.0086955 667.456171,65.9643111 C664.997707,66.9199267 662.265667,67.3977273 659.259971,67.3977273 Z M659.063948,46.7173295 C661.383562,46.7173295 663.343769,46.18644 664.94463,45.1246449 C666.54549,44.0628498 667.762452,42.5355213 668.595553,40.5426136 C669.428654,38.5497059 669.845198,36.1647866 669.845198,33.3877841 C669.845198,30.6761228 669.436821,28.2830359 668.620056,26.2084517 C667.80329,24.1338675 666.594496,22.5085286 664.993635,21.3323864 C663.392775,20.1562441 661.416232,19.5681818 659.063948,19.5681818 C656.613652,19.5681818 654.575852,20.1889142 652.950489,21.4303977 C651.325126,22.6718812 650.108164,24.3380577 649.299566,26.4289773 C648.490968,28.5198968 648.086675,30.8394759 648.086675,33.3877841 C648.086675,36.0014335 648.499136,38.3087613 649.324069,40.3098366 C650.149002,42.310912 651.374132,43.8790781 652.999495,45.0143821 C654.624858,46.1496861 656.646322,46.7173295 659.063948,46.7173295 Z M400.519886,80.8636364 C400.225851,78.3806694 399.033391,76.4531319 396.942472,75.0809659 C394.851552,73.7088 392.286947,73.0227273 389.24858,73.0227273 C387.026978,73.0227273 385.087189,73.3820987 383.429155,74.1008523 C381.771121,74.8196059 380.480651,75.8078772 379.557706,77.065696 C378.634761,78.3235148 378.173295,79.7528329 378.173295,81.3536932 C378.173295,82.6931885 378.495913,83.8407268 379.141158,84.7963423 C379.786402,85.7519579 380.615407,86.5442085 381.628196,87.1731179 C382.640985,87.8020273 383.702764,88.3165818 384.813565,88.7167969 C385.924366,89.1170119 386.945308,89.4396295 387.87642,89.6846591 L392.973011,91.0568182 C394.279836,91.3998597 395.737741,91.8735765 397.346768,92.477983 C398.955796,93.0823894 400.49946,93.9032263 401.977805,94.9405185 C403.456151,95.9778106 404.677197,97.3050345 405.64098,98.9222301 C406.604763,100.539426 407.086648,102.524136 407.086648,104.87642 C407.086648,107.588082 406.380156,110.038341 404.967152,112.227273 C403.554148,114.416204 401.49593,116.155888 398.792436,117.446378 C396.088942,118.736867 392.809678,119.382102 388.954545,119.382102 C385.360777,119.382102 382.253032,118.802208 379.631214,117.642401 C377.009397,116.482594 374.951179,114.865422 373.456499,112.790838 C371.961818,110.716254 371.116478,108.306832 370.920455,105.5625 L377.193182,105.5625 C377.356535,107.457396 377.997686,109.021478 379.116655,110.254794 C380.235623,111.48811 381.656774,112.402873 383.380149,112.999112 C385.103524,113.595351 386.961638,113.893466 388.954545,113.893466 C391.274159,113.893466 393.35688,113.513676 395.20277,112.754084 C397.04866,111.994492 398.510648,110.932713 399.588778,109.568714 C400.666909,108.204716 401.205966,106.607964 401.205966,104.778409 C401.205966,103.112208 400.740417,101.756397 399.809304,100.710938 C398.878191,99.6654777 397.653062,98.8160544 396.133878,98.162642 C394.614694,97.5092297 392.97302,96.9375025 391.208807,96.4474432 L385.034091,94.6832386 C381.113617,93.5561023 378.009955,91.9470985 375.723011,89.856179 C373.436068,87.7652594 372.292614,85.0291362 372.292614,81.6477273 C372.292614,78.8380541 373.056278,76.3837108 374.583629,74.2846236 C376.110981,72.1855364 378.169199,70.55203 380.758345,69.3840554 C383.347492,68.2160808 386.242882,67.6321023 389.444602,67.6321023 C392.678993,67.6321023 395.553965,68.2079133 398.069602,69.3595526 C400.58524,70.5111918 402.582201,72.0834417 404.060547,74.0763494 C405.538892,76.0692571 406.318892,78.3316635 406.400568,80.8636364 L400.519886,80.8636364 Z M417.981483,96.6434659 L439.418406,96.6434659 C439.418406,94.5198757 438.997778,92.6250083 438.15651,90.9588068 C437.315241,89.2926053 436.122781,87.9776327 434.579095,87.0138494 C433.035408,86.0500662 431.218132,85.5681818 429.127213,85.5681818 C426.823934,85.5681818 424.83514,86.1358253 423.160771,87.2711293 C421.486402,88.4064332 420.200015,89.8806728 419.301573,91.693892 C418.531627,93.2477841 418.0916,94.8976298 417.981483,96.6434659 L417.981483,96.6434659 Z M417.966819,101.642045 C418.050415,104.145292 418.540252,106.289272 419.436339,108.074041 C420.424625,110.042446 421.800854,111.537104 423.565068,112.558061 C425.329281,113.579018 427.379332,114.089489 429.715281,114.089489 C431.234465,114.089489 432.610694,113.873049 433.84401,113.440163 C435.077325,113.007278 436.143188,112.353875 437.04163,111.479936 C437.940072,110.605997 438.634312,109.515632 439.124372,108.208807 L444.711019,109.776989 C444.122948,111.671884 443.134677,113.333977 441.746176,114.763317 C440.357674,116.192656 438.642493,117.303441 436.600579,118.095703 C434.558666,118.887966 432.263589,119.284091 429.715281,119.284091 C426.088842,119.284091 422.964761,118.479589 420.342944,116.870561 C417.721127,115.261533 415.703747,113.007294 414.290742,110.107777 C412.877738,107.20826 412.171247,103.830985 412.171247,99.9758523 C412.171247,96.1207194 412.877738,92.7189423 414.290742,89.770419 C415.703747,86.8218958 417.680289,84.5186518 420.22043,82.8606179 C422.760571,81.202584 425.729468,80.3735795 429.127213,80.3735795 C431.08745,80.3735795 433.023155,80.7002808 434.934386,81.3536932 C436.845617,82.0071055 438.585301,83.0648009 440.153491,84.5268111 C441.721681,85.9888212 442.971313,87.9204425 443.902426,90.321733 C444.833538,92.7230234 445.299088,95.6796699 445.299088,99.1917614 L445.299088,101.642045 L417.966819,101.642045 L417.966819,101.642045 Z M451.755846,118.5 L451.755846,80.8636364 L457.342493,80.8636364 L457.342493,86.5482955 L457.734539,86.5482955 C458.420622,84.6860702 459.662087,83.1750768 461.458971,82.0152699 C463.255846,80.855463 465.281403,80.2755682 467.535675,80.2755682 C467.960393,80.2755682 468.491283,80.2837357 469.12836,80.300071 C469.765437,80.3164063 470.247321,80.3409089 470.574028,80.3735795 L470.574028,86.2542614 C470.378004,86.2052554 469.932873,86.1276639 469.238623,86.0214844 C468.544372,85.9153049 467.813378,85.8622159 467.045618,85.8622159 C465.216064,85.8622159 463.586641,86.2420061 462.157302,87.001598 C460.727962,87.7611899 459.600843,88.806634 458.77591,90.1379616 C457.950977,91.4692893 457.538516,92.9843665 457.538516,94.6832386 L457.538516,118.5 L451.755846,118.5 Z M507.022263,80.8636364 L493.104649,118.5 L487.223967,118.5 L473.306354,80.8636364 L479.579081,80.8636364 L489.968286,110.855114 L490.360331,110.855114 L500.749536,80.8636364 L507.022263,80.8636364 Z M512.302885,118.5 L512.302885,80.8636364 L518.085555,80.8636364 L518.085555,118.5 L512.302885,118.5 Z M515.243226,74.5909091 C514.116089,74.5909091 513.148237,74.2070351 512.339639,73.4392756 C511.531041,72.671516 511.126748,71.7485849 511.126748,70.6704545 C511.126748,69.5923242 511.531041,68.669393 512.339639,67.9016335 C513.148237,67.133874 514.116089,66.75 515.243226,66.75 C516.370362,66.75 517.338214,67.133874 518.146812,67.9016335 C518.95541,68.669393 519.359703,69.5923242 519.359703,70.6704545 C519.359703,71.7485849 518.95541,72.671516 518.146812,73.4392756 C517.338214,74.2070351 516.370362,74.5909091 515.243226,74.5909091 Z M541.59629,119.284091 C538.067864,119.284091 535.029542,118.451003 532.481234,116.784801 C529.932925,115.1186 527.972718,112.823523 526.600552,109.899503 C525.228386,106.975483 524.542313,103.634962 524.542313,99.8778409 C524.542313,96.0553786 525.248805,92.6781041 526.661809,89.7459162 C528.074813,86.8137282 530.051356,84.5186518 532.591496,82.8606179 C535.131637,81.202584 538.100535,80.3735795 541.498279,80.3735795 C544.144599,80.3735795 546.529519,80.8636315 548.653109,81.84375 C550.776699,82.8238685 552.516383,84.1960139 553.872214,85.9602273 C555.228044,87.7244406 556.0693,89.7826587 556.396006,92.1349432 L550.613336,92.1349432 C550.172283,90.4197357 549.196263,88.896491 547.685246,87.5651634 C546.17423,86.2338357 544.144599,85.5681818 541.59629,85.5681818 C539.342018,85.5681818 537.369559,86.1521604 535.678854,87.3201349 C533.98815,88.4881095 532.673177,90.1297835 531.733897,92.245206 C530.794617,94.3606285 530.324984,96.8394744 530.324984,99.6818182 C530.324984,102.589503 530.786449,105.121438 531.709394,107.277699 C532.632339,109.43396 533.939144,111.108304 535.629849,112.300781 C537.320553,113.493259 539.309347,114.089489 541.59629,114.089489 C543.099139,114.089489 544.463117,113.828128 545.688265,113.305398 C546.913413,112.782668 547.95069,112.031255 548.800126,111.051136 C549.649562,110.071018 550.253959,108.894893 550.613336,107.522727 L556.396006,107.522727 C556.0693,109.744329 555.264798,111.741291 553.982477,113.513672 C552.700155,115.286053 551.009476,116.690868 548.910389,117.728161 C546.811301,118.765453 544.373293,119.284091 541.59629,119.284091 Z M566.506751,96.6434659 L587.943674,96.6434659 C587.943674,94.5198757 587.523046,92.6250083 586.681777,90.9588068 C585.840509,89.2926053 584.648049,87.9776327 583.104363,87.0138494 C581.560676,86.0500662 579.7434,85.5681818 577.65248,85.5681818 C575.349202,85.5681818 573.360408,86.1358253 571.686039,87.2711293 C570.011669,88.4064332 568.725283,89.8806728 567.826841,91.693892 C567.056895,93.2477841 566.616867,94.8976298 566.506751,96.6434659 L566.506751,96.6434659 Z M566.492087,101.642045 C566.575683,104.145292 567.06552,106.289272 567.961607,108.074041 C568.949893,110.042446 570.326122,111.537104 572.090336,112.558061 C573.854549,113.579018 575.904599,114.089489 578.240549,114.089489 C579.759732,114.089489 581.135961,113.873049 582.369277,113.440163 C583.602593,113.007278 584.668456,112.353875 585.566898,111.479936 C586.46534,110.605997 587.15958,109.515632 587.64964,108.208807 L593.236287,109.776989 C592.648216,111.671884 591.659945,113.333977 590.271443,114.763317 C588.882942,116.192656 587.167761,117.303441 585.125847,118.095703 C583.083933,118.887966 580.788857,119.284091 578.240549,119.284091 C574.61411,119.284091 571.490029,118.479589 568.868212,116.870561 C566.246395,115.261533 564.229014,113.007294 562.81601,110.107777 C561.403006,107.20826 560.696515,103.830985 560.696515,99.9758523 C560.696515,96.1207194 561.403006,92.7189423 562.81601,89.770419 C564.229014,86.8218958 566.205557,84.5186518 568.745698,82.8606179 C571.285838,81.202584 574.254736,80.3735795 577.65248,80.3735795 C579.612717,80.3735795 581.548423,80.7002808 583.459654,81.3536932 C585.370885,82.0071055 587.110569,83.0648009 588.678759,84.5268111 C590.246948,85.9888212 591.496581,87.9204425 592.427693,90.321733 C593.358806,92.7230234 593.824355,95.6796699 593.824355,99.1917614 L593.824355,101.642045 L566.492087,101.642045 L566.492087,101.642045 Z M626.940204,89.2926136 L621.745602,90.7627841 C621.418896,89.8970127 620.941095,89.0516732 620.312186,88.2267401 C619.683277,87.401807 618.829769,86.719818 617.751639,86.1807528 C616.673509,85.6416876 615.293196,85.3721591 613.610659,85.3721591 C611.30738,85.3721591 609.392094,85.8989649 607.864743,86.9525923 C606.337391,88.0062198 605.573727,89.3416112 605.573727,90.9588068 C605.573727,92.396314 606.096449,93.5316009 607.141909,94.3647017 C608.187369,95.1978025 609.820875,95.8920427 612.042477,96.4474432 L617.629125,97.8196023 C620.994199,98.6363677 623.501631,99.8819163 625.151497,101.556286 C626.801363,103.230655 627.626284,105.382799 627.626284,108.012784 C627.626284,110.169045 627.009635,112.096582 625.776319,113.795455 C624.543004,115.494327 622.823738,116.833802 620.618471,117.81392 C618.413205,118.794039 615.8486,119.284091 612.924579,119.284091 C609.085782,119.284091 605.908612,118.451003 603.392974,116.784801 C600.877337,115.1186 599.284668,112.684675 598.61492,109.482955 L604.103557,108.110795 C604.626287,110.136374 605.618642,111.655535 607.080652,112.668324 C608.542662,113.681113 610.457948,114.1875 612.826568,114.1875 C615.521894,114.1875 617.665871,113.611689 619.258564,112.46005 C620.851256,111.30841 621.647591,109.924014 621.647591,108.306818 C621.647591,106.999993 621.190209,105.90146 620.275432,105.011186 C619.360654,104.120912 617.955839,103.455258 616.060943,103.014205 L609.788216,101.544034 C606.341466,100.727269 603.813614,99.4572174 602.204587,97.7338423 C600.595559,96.0104672 599.791057,93.850155 599.791057,91.2528409 C599.791057,89.1292507 600.39137,87.2507184 601.592015,85.6171875 C602.792661,83.9836566 604.434335,82.7013541 606.517087,81.7702415 C608.599838,80.8391289 610.964339,80.3735795 613.610659,80.3735795 C617.335109,80.3735795 620.26317,81.1903327 622.394927,82.8238636 C624.526685,84.4573945 626.041762,86.613623 626.940204,89.2926136 Z" id="PublishingServices" fill="#000000" fill-rule="nonzero"></path>
</svg>
