<?xml version="1.0" encoding="UTF-8"?>
<svg width="523px" height="171px" viewBox="0 0 523 171" version="1.1" xmlns="http://www.w3.org/2000/svg" xmlns:xlink="http://www.w3.org/1999/xlink">
    <title>PKP Docs</title>
    <desc>An official PKP logotype.</desc>
    <path d="M17.6523885,119.189239 L17.6523885,83.8044619 C17.6523885,52.4406824 17.6523885,46.8112861 17.2502887,40.3776903 C16.848189,33.5419948 15.23979,30.3251969 8.60514436,28.9178478 C6.99674541,28.515748 3.57889764,28.3146982 1.76944882,28.3146982 C0.965249344,28.3146982 0.161049869,27.9125984 0.161049869,27.108399 C0.161049869,25.9020997 1.16629921,25.5 3.37784777,25.5 C12.4250919,25.5 24.488084,26.1031496 26.0964829,26.1031496 C30.5195801,26.1031496 42.1804724,25.5 51.4287664,25.5 C76.56,25.5 85.6072441,33.9440945 88.824042,36.9598425 C93.2471391,41.1818898 98.8765354,50.2291339 98.8765354,63.2973753 C98.8765354,89.4338583 77.9673491,108.734646 49.4182677,108.734646 C48.4130184,108.734646 46.2014698,108.734646 45.1962205,108.533596 C44.1909711,108.533596 42.9846719,108.131496 42.9846719,107.126247 C42.9846719,105.517848 44.1909711,105.316798 48.4130184,105.316798 C67.9148556,105.316798 83.1946457,92.0475066 83.1946457,70.9372703 C83.1946457,65.9110236 82.5914961,52.4406824 71.935853,41.5839895 C61.28021,30.7272966 49.016168,31.5314961 44.392021,31.5314961 C40.9741732,31.5314961 37.5563255,31.9335958 35.7468766,32.7377953 C34.5405774,33.139895 34.1384777,34.5472441 34.1384777,36.5577428 L34.1384777,119.189239 C34.1384777,138.490026 34.1384777,154.372966 35.143727,162.81706 C35.7468766,168.647507 36.9531759,173.070604 42.9846719,173.874803 C45.7993701,174.276903 50.2224672,174.679003 52.031916,174.679003 C53.2382152,174.679003 53.640315,175.282152 53.640315,175.885302 C53.640315,176.890551 52.6350656,177.493701 50.4235171,177.493701 C39.3657743,177.493701 26.6996325,176.890551 25.6943832,176.890551 C25.0912336,176.890551 12.4250919,177.493701 6.3935958,177.493701 C4.18204724,177.493701 3.1767979,177.091601 3.1767979,175.885302 C3.1767979,175.282152 3.57889764,174.679003 4.78519685,174.679003 C6.59464567,174.679003 9.00724409,174.276903 10.8166929,173.874803 C14.8376903,173.070604 15.8429396,168.647507 16.6471391,162.81706 C17.6523885,154.372966 17.6523885,138.490026 17.6523885,119.189239 Z" id="Path" stroke="#000000"></path>
    <path d="M132.994698,83.8044619 L132.994698,96.6716535 C139.227244,90.6401575 166.570026,61.8900262 178.834068,49.2238845 C190.89706,36.7587927 191.70126,34.748294 191.70126,32.3356955 C191.70126,30.7272966 190.69601,29.1188976 189.087612,28.515748 C187.680262,27.9125984 187.278163,27.5104987 187.278163,26.7062992 C187.278163,25.9020997 188.484462,25.5 190.293911,25.5 C196.124357,25.5 195.521207,26.1031496 202.356903,26.1031496 C208.589449,26.1031496 220.451391,25.5 223.668189,25.5 C226.482887,25.5 227.086037,26.1031496 227.086037,26.9073491 C227.086037,27.7115486 226.683937,28.1136483 224.874488,28.3146982 C221.054541,28.7167979 217.435643,29.5209974 214.620945,30.7272966 C209.594698,32.7377953 205.774751,35.1503937 193.711759,46.8112861 C176.01937,63.9005249 153.099685,86.6191601 147.872388,92.4496063 C160.53853,106.322047 197.129606,143.516273 206.57895,152.362467 C223.065039,167.843307 230.101785,172.266404 239.752178,174.075853 C241.561627,174.477953 243.572126,174.679003 245.582625,174.679003 C247.191024,174.679003 248.397323,175.081102 248.397323,176.086352 C248.397323,177.091601 247.593123,177.493701 245.381575,177.493701 L230.503885,177.493701 C213.012546,177.493701 208.388399,175.282152 198.939055,167.843307 C186.876063,158.393963 150.687087,119.591339 132.994698,98.4811024 L132.994698,119.189239 C132.994698,138.490026 132.994698,154.372966 133.999948,162.81706 C134.603097,168.647507 135.809396,173.070604 141.840892,173.874803 C144.655591,174.276903 148.676588,174.679003 149.882887,174.679003 C151.692336,174.679003 152.295486,175.483202 152.295486,176.086352 C152.295486,177.091601 151.491286,177.493701 149.279738,177.493701 C138.221995,177.493701 125.555853,176.890551 124.550604,176.890551 C123.545354,176.890551 111.683412,177.493701 105.651916,177.493701 C103.440367,177.493701 102.435118,177.292651 102.435118,176.086352 C102.435118,175.483202 102.837218,174.679003 104.646667,174.679003 C105.852966,174.679003 108.064514,174.477953 109.873963,174.075853 C113.894961,173.271654 115.10126,168.647507 115.905459,162.81706 C116.910709,154.372966 116.910709,138.490026 116.910709,119.189239 L116.910709,83.8044619 C116.910709,52.4406824 116.910709,46.8112861 116.508609,40.3776903 C116.106509,33.5419948 114.09601,30.124147 109.672913,29.1188976 C107.461365,28.515748 103.842467,28.3146982 102.435118,28.3146982 C100.826719,28.3146982 100.22357,27.9125984 100.22357,27.108399 C100.22357,25.9020997 101.228819,25.5 103.440367,25.5 C110.075013,25.5 123.545354,26.1031496 124.550604,26.1031496 C125.555853,26.1031496 138.221995,25.5 144.253491,25.5 C146.465039,25.5 147.470289,25.9020997 147.470289,26.9073491 C147.470289,27.7115486 147.068189,28.1136483 145.25874,28.3146982 C143.047192,28.515748 142.846142,28.515748 140.835643,28.7167979 C135.407297,29.3199475 133.798898,33.3409449 133.396798,40.3776903 C132.994698,46.8112861 132.994698,52.4406824 132.994698,83.8044619 Z" id="Path" stroke="#000000"></path>
    <path d="M255.775853,119.189239 L255.775853,83.8044619 C255.775853,52.4406824 255.775853,46.8112861 255.373753,40.3776903 C254.971654,33.5419948 253.363255,30.3251969 246.728609,28.9178478 C245.12021,28.515748 241.702362,28.3146982 239.892913,28.3146982 C239.088714,28.3146982 238.284514,27.9125984 238.284514,27.108399 C238.284514,25.9020997 239.289764,25.5 241.501312,25.5 C250.548556,25.5 262.611549,26.1031496 264.219948,26.1031496 C268.643045,26.1031496 280.303937,25.5 289.552231,25.5 C314.683465,25.5 323.730709,33.9440945 326.947507,36.9598425 C331.370604,41.1818898 337,50.2291339 337,63.2973753 C337,89.4338583 316.090814,108.734646 287.541732,108.734646 C286.536483,108.734646 284.324934,108.734646 283.319685,108.533596 C282.314436,108.533596 281.108136,108.131496 281.108136,107.126247 C281.108136,105.517848 282.314436,105.316798 286.536483,105.316798 C306.03832,105.316798 321.31811,92.0475066 321.31811,70.9372703 C321.31811,65.9110236 320.714961,52.4406824 310.059318,41.5839895 C299.403675,30.7272966 287.139633,31.5314961 282.515486,31.5314961 C279.097638,31.5314961 275.67979,31.9335958 273.870341,32.7377953 C272.664042,33.139895 272.261942,34.5472441 272.261942,36.5577428 L272.261942,119.189239 C272.261942,138.490026 272.261942,154.372966 273.267192,162.81706 C273.870341,168.647507 275.07664,173.070604 281.108136,173.874803 C283.922835,174.276903 288.345932,174.679003 290.155381,174.679003 C291.36168,174.679003 291.76378,175.282152 291.76378,175.885302 C291.76378,176.890551 290.75853,177.493701 288.546982,177.493701 C277.489239,177.493701 264.823097,176.890551 263.817848,176.890551 C263.214698,176.890551 250.548556,177.493701 244.51706,177.493701 C242.305512,177.493701 241.300262,177.091601 241.300262,175.885302 C241.300262,175.282152 241.702362,174.679003 242.908661,174.679003 C244.71811,174.679003 247.130709,174.276903 248.940157,173.874803 C252.961155,173.070604 253.966404,168.647507 254.770604,162.81706 C255.775853,154.372966 255.775853,138.490026 255.775853,119.189239 Z" id="Path" stroke="#000000"></path>
    <path d="M388.5625,58.5 L373.076705,58.5 L373.076705,8.31818182 L389.24858,8.31818182 C394.116502,8.31818182 398.281943,9.31870448 401.745028,11.3197798 C405.208114,13.3208552 407.862562,16.1876589 409.708452,19.920277 C411.554342,23.6528951 412.477273,28.1164513 412.477273,33.3110795 C412.477273,38.5383784 411.546174,43.0346048 409.683949,46.7998935 C407.821724,50.5651822 405.110103,53.4564885 401.549006,55.4738991 C397.987908,57.4913098 393.659116,58.5 388.5625,58.5 Z M379.153409,53.109375 L388.170455,53.109375 C392.319623,53.109375 395.758154,52.3089569 398.486151,50.7080966 C401.214147,49.1072363 403.247863,46.8284949 404.587358,43.871804 C405.926853,40.9151131 406.596591,37.3949068 406.596591,33.3110795 C406.596591,29.2599229 405.935021,25.768303 404.611861,22.8361151 C403.288701,19.9039271 401.312158,17.6496883 398.682173,16.073331 C396.052189,14.4969737 392.777008,13.7088068 388.856534,13.7088068 L379.153409,13.7088068 L379.153409,53.109375 Z M434.811872,59.2840909 C431.414127,59.2840909 428.437062,58.4755052 425.880586,56.8583097 C423.32411,55.2411141 421.331233,52.9787077 419.901893,50.0710227 C418.472554,47.1633377 417.757894,43.7656444 417.757894,39.8778409 C417.757894,35.9573668 418.472554,32.5351709 419.901893,29.6111506 C421.331233,26.6871303 423.32411,24.4165564 425.880586,22.7993608 C428.437062,21.1821652 431.414127,20.3735795 434.811872,20.3735795 C438.209616,20.3735795 441.186681,21.1821652 443.743157,22.7993608 C446.299633,24.4165564 448.292511,26.6871303 449.72185,29.6111506 C451.15119,32.5351709 451.865849,35.9573668 451.865849,39.8778409 C451.865849,43.7656444 451.15119,47.1633377 449.72185,50.0710227 C448.292511,52.9787077 446.299633,55.2411141 443.743157,56.8583097 C441.186681,58.4755052 438.209616,59.2840909 434.811872,59.2840909 Z M434.811872,54.0894886 C437.392851,54.0894886 439.516409,53.4279185 441.18261,52.1047585 C442.848812,50.7815985 444.082109,49.0419142 444.882539,46.8856534 C445.682969,44.7293926 446.083179,42.3934785 446.083179,39.8778409 C446.083179,37.3622033 445.682969,35.0181217 444.882539,32.8455256 C444.082109,30.6729295 442.848812,28.9169101 441.18261,27.5774148 C439.516409,26.2379194 437.392851,25.5681818 434.811872,25.5681818 C432.230893,25.5681818 430.107335,26.2379194 428.441133,27.5774148 C426.774932,28.9169101 425.541634,30.6729295 424.741204,32.8455256 C423.940774,35.0181217 423.540565,37.3622033 423.540565,39.8778409 C423.540565,42.3934785 423.940774,44.7293926 424.741204,46.8856534 C425.541634,49.0419142 426.774932,50.7815985 428.441133,52.1047585 C430.107335,53.4279185 432.230893,54.0894886 434.811872,54.0894886 Z M473.61238,59.2840909 C470.083953,59.2840909 467.045631,58.4510026 464.497323,56.7848011 C461.949015,55.1185996 459.988807,52.8235231 458.616641,49.8995028 C457.244475,46.9754825 456.558403,43.634962 456.558403,39.8778409 C456.558403,36.0553786 457.264894,32.6781041 458.677898,29.7459162 C460.090903,26.8137282 462.067445,24.5186518 464.607586,22.8606179 C467.147726,21.202584 470.116624,20.3735795 473.514368,20.3735795 C476.160689,20.3735795 478.545608,20.8636315 480.669198,21.84375 C482.792788,22.8238685 484.532472,24.1960139 485.888303,25.9602273 C487.244134,27.7244406 488.08539,29.7826587 488.412096,32.1349432 L482.629425,32.1349432 C482.188372,30.4197357 481.212352,28.896491 479.701336,27.5651634 C478.19032,26.2338357 476.160688,25.5681818 473.61238,25.5681818 C471.358107,25.5681818 469.385648,26.1521604 467.694944,27.3201349 C466.004239,28.4881095 464.689267,30.1297835 463.749986,32.245206 C462.810706,34.3606285 462.341073,36.8394744 462.341073,39.6818182 C462.341073,42.5895032 462.802539,45.1214381 463.725484,47.2776989 C464.648428,49.4339596 465.955234,51.1083037 467.645938,52.3007813 C469.336643,53.4932588 471.325437,54.0894886 473.61238,54.0894886 C475.115228,54.0894886 476.479206,53.8281276 477.704354,53.3053977 C478.929502,52.7826678 479.966779,52.0312549 480.816215,51.0511364 C481.665651,50.0710178 482.270048,48.8948932 482.629425,47.5227273 L488.412096,47.5227273 C488.08539,49.7443293 487.280888,51.7412909 485.998566,53.5136719 C484.716244,55.2860529 483.025565,56.6908684 480.926478,57.7281605 C478.827391,58.7654526 476.389382,59.2840909 473.61238,59.2840909 Z M521.135899,29.2926136 L515.941297,30.7627841 C515.614591,29.8970127 515.13679,29.0516732 514.507881,28.2267401 C513.878971,27.401807 513.025464,26.719818 511.947334,26.1807528 C510.869204,25.6416876 509.488891,25.3721591 507.806354,25.3721591 C505.503075,25.3721591 503.587789,25.8989649 502.060438,26.9525923 C500.533086,28.0062198 499.769422,29.3416112 499.769422,30.9588068 C499.769422,32.396314 500.292144,33.5316009 501.337604,34.3647017 C502.383064,35.1978025 504.01657,35.8920427 506.238172,36.4474432 L511.82482,37.8196023 C515.189893,38.6363677 517.697326,39.8819163 519.347192,41.5562855 C520.997058,43.2306547 521.821979,45.3827994 521.821979,48.0127841 C521.821979,50.1690449 521.20533,52.0965824 519.972014,53.7954545 C518.738699,55.4943267 517.019433,56.8338019 514.814166,57.8139205 C512.6089,58.794039 510.044295,59.2840909 507.120274,59.2840909 C503.281477,59.2840909 500.104307,58.4510026 497.588669,56.7848011 C495.073032,55.1185996 493.480363,52.6846751 492.810615,49.4829545 L498.299252,48.1107955 C498.821981,50.1363738 499.814337,51.6555347 501.276347,52.6683239 C502.738357,53.681113 504.653643,54.1875 507.022263,54.1875 C509.717589,54.1875 511.861566,53.611689 513.454259,52.4600497 C515.046951,51.3084104 515.843286,49.9240138 515.843286,48.3068182 C515.843286,46.9999935 515.385904,45.9014604 514.471127,45.0111861 C513.556349,44.1209117 512.151534,43.4552579 510.256638,43.0142045 L503.983911,41.5440341 C500.53716,40.7272686 498.009309,39.4572174 496.400281,37.7338423 C494.791253,36.0104672 493.986752,33.850155 493.986752,31.2528409 C493.986752,29.1292507 494.587065,27.2507184 495.78771,25.6171875 C496.988356,23.9836566 498.63003,22.7013541 500.712781,21.7702415 C502.795533,20.8391289 505.160034,20.3735795 507.806354,20.3735795 C511.530804,20.3735795 514.458864,21.1903327 516.590622,22.8238636 C518.72238,24.4573945 520.237457,26.613623 521.135899,29.2926136 Z" id="Docs"></path>
</svg>
