<svg width="675" height="171" viewBox="0 0 675 171" fill="none" xmlns="http://www.w3.org/2000/svg">
<path d="M378.233 28.7812H389.014C391.71 28.7812 393.874 28.3157 395.507 27.3846C397.141 26.4535 398.329 25.1916 399.073 23.5989C399.816 22.0062 400.188 20.2053 400.188 18.196C400.188 16.1868 399.816 14.3899 399.073 12.8054C398.329 11.2209 397.133 9.97532 395.483 9.06871C393.833 8.1621 391.644 7.70881 388.916 7.70881H378.233V28.7812ZM378.233 34.1719V52.5H372.156V2.31818H389.112C393.049 2.31818 396.271 3.02467 398.779 4.43768C401.286 5.85068 403.144 7.7578 404.353 10.1591C405.562 12.5604 406.166 15.2393 406.166 18.196C406.166 21.1527 405.566 23.8398 404.365 26.2575C403.165 28.6751 401.315 30.5985 398.815 32.0279C396.316 33.4572 393.114 34.1719 389.21 34.1719H378.233ZM436.538 37.1122V14.8636H442.32V52.5H436.538V46.1293H436.146C435.264 48.0405 433.891 49.6617 432.029 50.9931C430.167 52.3244 427.815 52.9901 424.972 52.9901C422.62 52.9901 420.529 52.4714 418.7 51.4341C416.87 50.3968 415.433 48.8287 414.387 46.7296C413.342 44.6305 412.819 41.9801 412.819 38.7784V14.8636H418.602V38.3864C418.602 41.1307 419.373 43.3196 420.917 44.9531C422.461 46.5867 424.433 47.4034 426.835 47.4034C428.272 47.4034 429.738 47.0359 431.233 46.3008C432.728 45.5657 433.985 44.4386 435.006 42.9194C436.027 41.4002 436.538 39.4645 436.538 37.1122ZM451.325 52.5V2.31818H457.108V20.8423H457.598C458.023 20.1889 458.615 19.3517 459.375 18.3308C460.134 17.3098 461.229 16.3951 462.658 15.5865C464.087 14.7779 466.027 14.3736 468.477 14.3736C471.646 14.3736 474.44 15.1658 476.857 16.7504C479.275 18.3349 481.162 20.581 482.518 23.4886C483.873 26.3963 484.551 29.8267 484.551 33.7798C484.551 37.7656 483.873 41.2164 482.518 44.1323C481.162 47.0481 479.283 49.3024 476.882 50.8951C474.481 52.4878 471.712 53.2841 468.575 53.2841C466.158 53.2841 464.222 52.8798 462.768 52.0712C461.314 51.2626 460.196 50.3397 459.411 49.3024C458.627 48.2651 458.023 47.4034 457.598 46.7173H456.912V52.5H451.325ZM457.01 33.6818C457.01 36.5242 457.427 39.0275 458.26 41.1919C459.093 43.3564 460.31 45.047 461.911 46.264C463.512 47.481 465.472 48.0895 467.791 48.0895C470.209 48.0895 472.23 47.4483 473.856 46.166C475.481 44.8837 476.706 43.1522 477.531 40.9714C478.356 38.7906 478.769 36.3608 478.769 33.6818C478.769 31.0355 478.364 28.6465 477.556 26.5147C476.747 24.383 475.53 22.6923 473.905 21.4426C472.279 20.193 470.242 19.5682 467.791 19.5682C465.439 19.5682 463.463 20.1603 461.862 21.3446C460.261 22.5289 459.052 24.1788 458.235 26.2942C457.418 28.4096 457.01 30.8721 457.01 33.6818ZM496.791 2.31818V52.5H491.008V2.31818H496.791ZM505.012 52.5V14.8636H510.794V52.5H505.012ZM507.952 8.59091C506.825 8.59091 505.857 8.20704 505.048 7.43928C504.24 6.67152 503.836 5.74858 503.836 4.67045C503.836 3.59232 504.24 2.66939 505.048 1.90163C505.857 1.13387 506.825 0.75 507.952 0.75C509.079 0.75 510.047 1.13387 510.856 1.90163C511.664 2.66939 512.069 3.59232 512.069 4.67045C512.069 5.74858 511.664 6.67152 510.856 7.43928C510.047 8.20704 509.079 8.59091 507.952 8.59091ZM545.674 23.2926L540.48 24.7628C540.153 23.897 539.675 23.0517 539.046 22.2267C538.418 21.4018 537.564 20.7198 536.486 20.1808C535.408 19.6417 534.027 19.3722 532.345 19.3722C530.042 19.3722 528.126 19.899 526.599 20.9526C525.072 22.0062 524.308 23.3416 524.308 24.9588C524.308 26.3963 524.831 27.5316 525.876 28.3647C526.922 29.1978 528.555 29.892 530.777 30.4474L536.363 31.8196C539.728 32.6364 542.236 33.8819 543.886 35.5563C545.536 37.2307 546.361 39.3828 546.361 42.0128C546.361 44.169 545.744 46.0966 544.511 47.7955C543.277 49.4943 541.558 50.8338 539.353 51.8139C537.147 52.794 534.583 53.2841 531.659 53.2841C527.82 53.2841 524.643 52.451 522.127 50.7848C519.612 49.1186 518.019 46.6847 517.349 43.483L522.838 42.1108C523.361 44.1364 524.353 45.6555 525.815 46.6683C527.277 47.6811 529.192 48.1875 531.561 48.1875C534.256 48.1875 536.4 47.6117 537.993 46.46C539.585 45.3084 540.382 43.924 540.382 42.3068C540.382 41 539.924 39.9015 539.01 39.0112C538.095 38.1209 536.69 37.4553 534.795 37.0142L528.522 35.544C525.076 34.7273 522.548 33.4572 520.939 31.7338C519.33 30.0105 518.525 27.8502 518.525 25.2528C518.525 23.1292 519.126 21.2507 520.326 19.6172C521.527 17.9837 523.169 16.7014 525.251 15.7702C527.334 14.8391 529.699 14.3736 532.345 14.3736C536.069 14.3736 538.997 15.1903 541.129 16.8239C543.261 18.4574 544.776 20.6136 545.674 23.2926ZM558.502 29.8594V52.5H552.719V2.31818H558.502V20.7443H558.992C559.874 18.8004 561.201 17.2527 562.974 16.101C564.746 14.9494 567.111 14.3736 570.067 14.3736C572.632 14.3736 574.878 14.8841 576.806 15.905C578.733 16.926 580.232 18.486 581.302 20.5851C582.372 22.6841 582.907 25.3508 582.907 28.5852V52.5H577.124V28.9773C577.124 25.9879 576.352 23.6724 574.809 22.0307C573.265 20.389 571.129 19.5682 568.401 19.5682C566.506 19.5682 564.811 19.9684 563.317 20.7688C561.822 21.5693 560.646 22.7372 559.788 24.2727C558.931 25.8082 558.502 27.6704 558.502 29.8594ZM591.128 52.5V14.8636H596.91V52.5H591.128ZM594.068 8.59091C592.941 8.59091 591.973 8.20704 591.164 7.43928C590.356 6.67152 589.952 5.74858 589.952 4.67045C589.952 3.59232 590.356 2.66939 591.164 1.90163C591.973 1.13387 592.941 0.75 594.068 0.75C595.195 0.75 596.163 1.13387 596.972 1.90163C597.78 2.66939 598.185 3.59232 598.185 4.67045C598.185 5.74858 597.78 6.67152 596.972 7.43928C596.163 8.20704 595.195 8.59091 594.068 8.59091ZM610.914 29.8594V52.5H605.131V14.8636H610.718V20.7443H611.208C612.09 18.8331 613.43 17.2935 615.227 16.1255C617.023 14.9576 619.343 14.3736 622.185 14.3736C624.734 14.3736 626.963 14.8922 628.875 15.9295C630.786 16.9668 632.272 18.535 633.334 20.6341C634.396 22.7331 634.927 25.3835 634.927 28.5852V52.5H629.144V28.9773C629.144 26.0206 628.376 23.7133 626.841 22.0552C625.305 20.3972 623.198 19.5682 620.519 19.5682C618.673 19.5682 617.027 19.9684 615.582 20.7688C614.136 21.5693 612.997 22.7372 612.164 24.2727C611.331 25.8082 610.914 27.6704 610.914 29.8594ZM658.34 67.3977C655.546 67.3977 653.145 67.0424 651.136 66.3319C649.126 65.6213 647.456 64.6902 646.125 63.5385C644.794 62.3869 643.736 61.1577 642.952 59.8509L647.558 56.6165C648.081 57.3026 648.743 58.0907 649.543 58.981C650.343 59.8713 651.442 60.6472 652.839 61.3088C654.235 61.9704 656.069 62.3011 658.34 62.3011C661.378 62.3011 663.885 61.5661 665.862 60.0959C667.838 58.6257 668.827 56.3225 668.827 53.1861V45.5412H668.337C667.912 46.2273 667.312 47.0726 666.536 48.0772C665.76 49.0819 664.649 49.9721 663.203 50.748C661.758 51.524 659.81 51.9119 657.359 51.9119C654.321 51.9119 651.597 51.1932 649.188 49.7557C646.778 48.3182 644.875 46.2273 643.479 43.483C642.082 40.7386 641.384 37.4063 641.384 33.4858C641.384 29.6307 642.061 26.2697 643.417 23.4029C644.773 20.536 646.66 18.3145 649.077 16.7381C651.495 15.1617 654.288 14.3736 657.457 14.3736C659.908 14.3736 661.856 14.7779 663.301 15.5865C664.747 16.3951 665.858 17.3098 666.634 18.3308C667.41 19.3517 668.01 20.1889 668.435 20.8423H669.023V14.8636H674.609V53.5781C674.609 56.8125 673.878 59.4465 672.416 61.4803C670.954 63.514 668.994 65.0087 666.536 65.9643C664.077 66.9199 661.345 67.3977 658.34 67.3977ZM658.144 46.7173C660.463 46.7173 662.423 46.1864 664.024 45.1246C665.625 44.0629 666.842 42.5355 667.675 40.5426C668.508 38.5497 668.925 36.1648 668.925 33.3878C668.925 30.6761 668.516 28.283 667.7 26.2085C666.883 24.1339 665.674 22.5085 664.073 21.3324C662.472 20.1562 660.496 19.5682 658.144 19.5682C655.693 19.5682 653.655 20.1889 652.03 21.4304C650.405 22.6719 649.188 24.3381 648.379 26.429C647.571 28.5199 647.166 30.8395 647.166 33.3878C647.166 36.0014 647.579 38.3088 648.404 40.3098C649.229 42.3109 650.454 43.8791 652.079 45.0144C653.704 46.1497 655.726 46.7173 658.144 46.7173ZM399.599 80.8636C399.305 78.3807 398.113 76.4531 396.022 75.081C393.931 73.7088 391.366 73.0227 388.328 73.0227C386.107 73.0227 384.167 73.3821 382.509 74.1009C380.851 74.8196 379.56 75.8079 378.637 77.0657C377.714 78.3235 377.253 79.7528 377.253 81.3537C377.253 82.6932 377.575 83.8407 378.221 84.7963C378.866 85.752 379.695 86.5442 380.708 87.1731C381.721 87.802 382.782 88.3166 383.893 88.7168C385.004 89.117 386.025 89.4396 386.956 89.6847L392.053 91.0568C393.359 91.3999 394.817 91.8736 396.426 92.478C398.035 93.0824 399.579 93.9032 401.057 94.9405C402.536 95.9778 403.757 97.305 404.721 98.9222C405.684 100.539 406.166 102.524 406.166 104.876C406.166 107.588 405.46 110.038 404.047 112.227C402.634 114.416 400.576 116.156 397.872 117.446C395.169 118.737 391.889 119.382 388.034 119.382C384.44 119.382 381.333 118.802 378.711 117.642C376.089 116.483 374.031 114.865 372.536 112.791C371.041 110.716 370.196 108.307 370 105.562H376.273C376.436 107.457 377.077 109.021 378.196 110.255C379.315 111.488 380.736 112.403 382.46 112.999C384.183 113.595 386.041 113.893 388.034 113.893C390.354 113.893 392.436 113.514 394.282 112.754C396.128 111.994 397.59 110.933 398.668 109.569C399.746 108.205 400.286 106.608 400.286 104.778C400.286 103.112 399.82 101.756 398.889 100.711C397.958 99.6655 396.733 98.8161 395.213 98.1626C393.694 97.5092 392.053 96.9375 390.288 96.4474L384.114 94.6832C380.193 93.5561 377.09 91.9471 374.803 89.8562C372.516 87.7653 371.372 85.0291 371.372 81.6477C371.372 78.8381 372.136 76.3837 373.663 74.2846C375.191 72.1855 377.249 70.552 379.838 69.3841C382.427 68.2161 385.322 67.6321 388.524 67.6321C391.759 67.6321 394.634 68.2079 397.149 69.3596C399.665 70.5112 401.662 72.0834 403.14 74.0763C404.618 76.0693 405.398 78.3317 405.48 80.8636H399.599ZM417.061 96.6435H438.498C438.498 94.5199 438.077 92.625 437.236 90.9588C436.395 89.2926 435.202 87.9776 433.659 87.0138C432.115 86.0501 430.298 85.5682 428.207 85.5682C425.904 85.5682 423.915 86.1358 422.24 87.2711C420.566 88.4064 419.28 89.8807 418.381 91.6939C417.611 93.2478 417.171 94.8976 417.061 96.6435ZM417.046 101.642C417.13 104.145 417.62 106.289 418.516 108.074C419.504 110.042 420.88 111.537 422.645 112.558C424.409 113.579 426.459 114.089 428.795 114.089C430.314 114.089 431.69 113.873 432.924 113.44C434.157 113.007 435.223 112.354 436.121 111.48C437.02 110.606 437.714 109.516 438.204 108.209L443.791 109.777C443.203 111.672 442.214 113.334 440.826 114.763C439.437 116.193 437.722 117.303 435.68 118.096C433.638 118.888 431.343 119.284 428.795 119.284C425.168 119.284 422.044 118.48 419.423 116.871C416.801 115.262 414.783 113.007 413.37 110.108C411.957 107.208 411.251 103.831 411.251 99.9759C411.251 96.1207 411.957 92.7189 413.37 89.7704C414.783 86.8219 416.76 84.5187 419.3 82.8606C421.84 81.2026 424.809 80.3736 428.207 80.3736C430.167 80.3736 432.103 80.7003 434.014 81.3537C435.925 82.0071 437.665 83.0648 439.233 84.5268C440.801 85.9888 442.051 87.9204 442.982 90.3217C443.913 92.723 444.379 95.6797 444.379 99.1918V101.642H417.046ZM450.835 118.5V80.8636H456.422V86.5483H456.814C457.5 84.6861 458.742 83.1751 460.539 82.0153C462.335 80.8555 464.361 80.2756 466.615 80.2756C467.04 80.2756 467.571 80.2837 468.208 80.3001C468.845 80.3164 469.327 80.3409 469.654 80.3736V86.2543C469.458 86.2053 469.012 86.1277 468.318 86.0215C467.624 85.9153 466.893 85.8622 466.125 85.8622C464.296 85.8622 462.666 86.242 461.237 87.0016C459.808 87.7612 458.68 88.8066 457.855 90.138C457.031 91.4693 456.618 92.9844 456.618 94.6832V118.5H450.835ZM506.102 80.8636L492.184 118.5H486.304L472.386 80.8636H478.659L489.048 110.855H489.44L499.829 80.8636H506.102ZM511.382 118.5V80.8636H517.165V118.5H511.382ZM514.323 74.5909C513.196 74.5909 512.228 74.207 511.419 73.4393C510.611 72.6715 510.206 71.7486 510.206 70.6705C510.206 69.5923 510.611 68.6694 511.419 67.9016C512.228 67.1339 513.196 66.75 514.323 66.75C515.45 66.75 516.418 67.1339 517.226 67.9016C518.035 68.6694 518.439 69.5923 518.439 70.6705C518.439 71.7486 518.035 72.6715 517.226 73.4393C516.418 74.207 515.45 74.5909 514.323 74.5909ZM540.676 119.284C537.147 119.284 534.109 118.451 531.561 116.785C529.013 115.119 527.052 112.824 525.68 109.9C524.308 106.975 523.622 103.635 523.622 99.8778C523.622 96.0554 524.328 92.6781 525.741 89.7459C527.154 86.8137 529.131 84.5187 531.671 82.8606C534.211 81.2026 537.18 80.3736 540.578 80.3736C543.224 80.3736 545.609 80.8636 547.733 81.8438C549.856 82.8239 551.596 84.196 552.952 85.9602C554.308 87.7244 555.149 89.7827 555.476 92.1349H549.693C549.252 90.4197 548.276 88.8965 546.765 87.5652C545.254 86.2338 543.224 85.5682 540.676 85.5682C538.422 85.5682 536.449 86.1522 534.758 87.3201C533.068 88.4881 531.753 90.1298 530.813 92.2452C529.874 94.3606 529.405 96.8395 529.405 99.6818C529.405 102.59 529.866 105.121 530.789 107.278C531.712 109.434 533.019 111.108 534.709 112.301C536.4 113.493 538.389 114.089 540.676 114.089C542.179 114.089 543.543 113.828 544.768 113.305C545.993 112.783 547.03 112.031 547.88 111.051C548.729 110.071 549.334 108.895 549.693 107.523H555.476C555.149 109.744 554.344 111.741 553.062 113.514C551.78 115.286 550.089 116.691 547.99 117.728C545.891 118.765 543.453 119.284 540.676 119.284ZM565.586 96.6435H587.023C587.023 94.5199 586.603 92.625 585.761 90.9588C584.92 89.2926 583.728 87.9776 582.184 87.0138C580.64 86.0501 578.823 85.5682 576.732 85.5682C574.429 85.5682 572.44 86.1358 570.766 87.2711C569.091 88.4064 567.805 89.8807 566.906 91.6939C566.136 93.2478 565.696 94.8976 565.586 96.6435ZM565.572 101.642C565.655 104.145 566.145 106.289 567.041 108.074C568.029 110.042 569.406 111.537 571.17 112.558C572.934 113.579 574.984 114.089 577.32 114.089C578.839 114.089 580.216 113.873 581.449 113.44C582.682 113.007 583.748 112.354 584.646 111.48C585.545 110.606 586.239 109.516 586.729 108.209L592.316 109.777C591.728 111.672 590.739 113.334 589.351 114.763C587.962 116.193 586.247 117.303 584.205 118.096C582.163 118.888 579.868 119.284 577.32 119.284C573.694 119.284 570.57 118.48 567.948 116.871C565.326 115.262 563.309 113.007 561.896 110.108C560.483 107.208 559.776 103.831 559.776 99.9759C559.776 96.1207 560.483 92.7189 561.896 89.7704C563.309 86.8219 565.285 84.5187 567.825 82.8606C570.365 81.2026 573.334 80.3736 576.732 80.3736C578.692 80.3736 580.628 80.7003 582.539 81.3537C584.45 82.0071 586.19 83.0648 587.758 84.5268C589.327 85.9888 590.576 87.9204 591.507 90.3217C592.438 92.723 592.904 95.6797 592.904 99.1918V101.642H565.572ZM626.02 89.2926L620.825 90.7628C620.498 89.897 620.021 89.0517 619.392 88.2267C618.763 87.4018 617.909 86.7198 616.831 86.1808C615.753 85.6417 614.373 85.3722 612.69 85.3722C610.387 85.3722 608.472 85.899 606.944 86.9526C605.417 88.0062 604.653 89.3416 604.653 90.9588C604.653 92.3963 605.176 93.5316 606.221 94.3647C607.267 95.1978 608.9 95.892 611.122 96.4474L616.709 97.8196C620.074 98.6364 622.581 99.8819 624.231 101.556C625.881 103.231 626.706 105.383 626.706 108.013C626.706 110.169 626.089 112.097 624.856 113.795C623.623 115.494 621.903 116.834 619.698 117.814C617.493 118.794 614.928 119.284 612.004 119.284C608.165 119.284 604.988 118.451 602.473 116.785C599.957 115.119 598.364 112.685 597.694 109.483L603.183 108.111C603.706 110.136 604.698 111.656 606.16 112.668C607.622 113.681 609.537 114.188 611.906 114.188C614.601 114.188 616.745 113.612 618.338 112.46C619.931 111.308 620.727 109.924 620.727 108.307C620.727 107 620.27 105.901 619.355 105.011C618.44 104.121 617.035 103.455 615.14 103.014L608.868 101.544C605.421 100.727 602.893 99.4572 601.284 97.7338C599.675 96.0105 598.871 93.8502 598.871 91.2528C598.871 89.1292 599.471 87.2507 600.672 85.6172C601.872 83.9837 603.514 82.7014 605.597 81.7702C607.679 80.8391 610.044 80.3736 612.69 80.3736C616.415 80.3736 619.343 81.1903 621.474 82.8239C623.606 84.4574 625.121 86.6136 626.02 89.2926Z" fill="#272522"/>
<path d="M17.8632 111.542V75.4577C17.8632 43.4735 17.8632 37.7328 17.4526 31.172C17.0419 24.2011 15.3993 20.9206 8.62361 19.4854C6.98102 19.0754 3.49051 18.8704 1.64259 18.8704C0.821296 18.8704 0 18.4603 0 17.6402C0 16.4101 1.02662 16 3.28519 16C12.5248 16 24.8442 16.6151 26.4868 16.6151C31.0039 16.6151 42.9127 16 52.3576 16C78.0232 16 87.2627 24.6111 90.5479 27.6865C95.0651 31.9921 100.814 41.2183 100.814 54.545C100.814 81.1984 79.4604 100.881 50.3044 100.881C49.2778 100.881 47.0192 100.881 45.9926 100.676C44.966 100.676 43.734 100.266 43.734 99.2407C43.734 97.6005 44.966 97.3955 49.2778 97.3955C69.1942 97.3955 84.7989 83.8638 84.7989 62.336C84.7989 57.2103 84.1829 43.4735 73.3007 32.4021C62.4185 21.3307 49.8938 22.1508 45.1713 22.1508C41.6808 22.1508 38.1903 22.5608 36.3424 23.381C35.1104 23.791 34.6998 25.2262 34.6998 27.2765V111.542C34.6998 131.225 34.6998 147.422 35.7264 156.033C36.3424 161.979 37.5743 166.489 43.734 167.31C46.6086 167.72 51.1257 168.13 52.9736 168.13C54.2056 168.13 54.6162 168.745 54.6162 169.36C54.6162 170.385 53.5896 171 51.331 171C40.0382 171 27.1028 170.385 26.0762 170.385C25.4602 170.385 12.5248 171 6.36505 171C4.10648 171 3.07986 170.59 3.07986 169.36C3.07986 168.745 3.49051 168.13 4.72245 168.13C6.57037 168.13 9.03426 167.72 10.8822 167.31C14.9887 166.489 16.0153 161.979 16.8366 156.033C17.8632 147.422 17.8632 131.225 17.8632 111.542ZM135.658 75.4577V88.5794C142.023 82.4286 169.947 53.1098 182.472 40.1931C194.791 27.4815 195.612 25.4312 195.612 22.9709C195.612 21.3307 194.586 19.6905 192.943 19.0754C191.506 18.4603 191.095 18.0503 191.095 17.2302C191.095 16.4101 192.327 16 194.175 16C200.129 16 199.513 16.6151 206.494 16.6151C212.86 16.6151 224.974 16 228.259 16C231.133 16 231.749 16.6151 231.749 17.4352C231.749 18.2553 231.339 18.6653 229.491 18.8704C225.59 19.2804 221.894 20.1005 219.019 21.3307C213.886 23.381 209.985 25.8413 197.666 37.7328C179.597 55.1601 156.19 78.328 150.852 84.2738C163.787 98.4206 201.156 136.351 210.806 145.372C227.643 161.159 234.829 165.669 244.685 167.515C246.533 167.925 248.586 168.13 250.639 168.13C252.282 168.13 253.514 168.54 253.514 169.565C253.514 170.59 252.692 171 250.434 171H235.24C217.377 171 212.654 168.745 203.004 161.159C190.685 151.522 153.726 111.952 135.658 90.4246V111.542C135.658 131.225 135.658 147.422 136.684 156.033C137.3 161.979 138.532 166.489 144.692 167.31C147.566 167.72 151.673 168.13 152.905 168.13C154.753 168.13 155.369 168.95 155.369 169.565C155.369 170.59 154.547 171 152.289 171C140.996 171 128.061 170.385 127.034 170.385C126.007 170.385 113.893 171 107.734 171C105.475 171 104.448 170.795 104.448 169.565C104.448 168.95 104.859 168.13 106.707 168.13C107.939 168.13 110.197 167.925 112.045 167.515C116.152 166.694 117.384 161.979 118.205 156.033C119.232 147.422 119.232 131.225 119.232 111.542V75.4577C119.232 43.4735 119.232 37.7328 118.821 31.172C118.41 24.2011 116.357 20.7156 111.84 19.6905C109.581 19.0754 105.886 18.8704 104.448 18.8704C102.806 18.8704 102.19 18.4603 102.19 17.6402C102.19 16.4101 103.216 16 105.475 16C112.251 16 126.007 16.6151 127.034 16.6151C128.061 16.6151 140.996 16 147.156 16C149.414 16 150.441 16.4101 150.441 17.4352C150.441 18.2553 150.03 18.6653 148.182 18.8704C145.924 19.0754 145.719 19.0754 143.665 19.2804C138.122 19.8955 136.479 23.996 136.068 31.172C135.658 37.7328 135.658 43.4735 135.658 75.4577ZM261.049 111.542V75.4577C261.049 43.4735 261.049 37.7328 260.638 31.172C260.228 24.2011 258.585 20.9206 251.809 19.4854C250.167 19.0754 246.676 18.8704 244.828 18.8704C244.007 18.8704 243.186 18.4603 243.186 17.6402C243.186 16.4101 244.213 16 246.471 16C255.711 16 268.03 16.6151 269.673 16.6151C274.19 16.6151 286.099 16 295.544 16C321.209 16 330.449 24.6111 333.734 27.6865C338.251 31.9921 344 41.2183 344 54.545C344 81.1984 322.646 100.881 293.49 100.881C292.464 100.881 290.205 100.881 289.178 100.676C288.152 100.676 286.92 100.266 286.92 99.2407C286.92 97.6005 288.152 97.3955 292.464 97.3955C312.38 97.3955 327.985 83.8638 327.985 62.336C327.985 57.2103 327.369 43.4735 316.487 32.4021C305.604 21.3307 293.08 22.1508 288.357 22.1508C284.867 22.1508 281.376 22.5608 279.528 23.381C278.296 23.791 277.886 25.2262 277.886 27.2765V111.542C277.886 131.225 277.886 147.422 278.912 156.033C279.528 161.979 280.76 166.489 286.92 167.31C289.794 167.72 294.312 168.13 296.159 168.13C297.391 168.13 297.802 168.745 297.802 169.36C297.802 170.385 296.775 171 294.517 171C283.224 171 270.289 170.385 269.262 170.385C268.646 170.385 255.711 171 249.551 171C247.292 171 246.266 170.59 246.266 169.36C246.266 168.745 246.676 168.13 247.908 168.13C249.756 168.13 252.22 167.72 254.068 167.31C258.175 166.489 259.201 161.979 260.022 156.033C261.049 147.422 261.049 131.225 261.049 111.542Z" fill="#272522"/>
</svg>
