<?xml version="1.0" encoding="UTF-8"?>
<svg width="573px" height="172px" viewBox="0 0 573 172" version="1.1" xmlns="http://www.w3.org/2000/svg" xmlns:xlink="http://www.w3.org/1999/xlink">
    <title>super-school</title>
    <desc>An official PKP logotype.</desc>
    <g id="Final" stroke="none" stroke-width="1" fill="none" fill-rule="evenodd">
        <g id="Artboard-Copy" transform="translate(-127.000000, -2320.000000)" fill="#000000" fill-rule="nonzero">
            <g id="super-school" transform="translate(128.000000, 2320.000000)">
                <path d="M17.6523885,113.189239 L17.6523885,77.8044619 C17.6523885,46.4406824 17.6523885,40.8112861 17.2502887,34.3776903 C16.848189,27.5419948 15.23979,24.3251969 8.60514436,22.9178478 C6.99674541,22.515748 3.57889764,22.3146982 1.76944882,22.3146982 C0.965249344,22.3146982 0.161049869,21.9125984 0.161049869,21.108399 C0.161049869,19.9020997 1.16629921,19.5 3.37784777,19.5 C12.4250919,19.5 24.488084,20.1031496 26.0964829,20.1031496 C30.5195801,20.1031496 42.1804724,19.5 51.4287664,19.5 C76.56,19.5 85.6072441,27.9440945 88.824042,30.9598425 C93.2471391,35.1818898 98.8765354,44.2291339 98.8765354,57.2973753 C98.8765354,83.4338583 77.9673491,102.734646 49.4182677,102.734646 C48.4130184,102.734646 46.2014698,102.734646 45.1962205,102.533596 C44.1909711,102.533596 42.9846719,102.131496 42.9846719,101.126247 C42.9846719,99.5178478 44.1909711,99.3167979 48.4130184,99.3167979 C67.9148556,99.3167979 83.1946457,86.0475066 83.1946457,64.9372703 C83.1946457,59.9110236 82.5914961,46.4406824 71.935853,35.5839895 C61.28021,24.7272966 49.016168,25.5314961 44.392021,25.5314961 C40.9741732,25.5314961 37.5563255,25.9335958 35.7468766,26.7377953 C34.5405774,27.139895 34.1384777,28.5472441 34.1384777,30.5577428 L34.1384777,113.189239 C34.1384777,132.490026 34.1384777,148.372966 35.143727,156.81706 C35.7468766,162.647507 36.9531759,167.070604 42.9846719,167.874803 C45.7993701,168.276903 50.2224672,168.679003 52.031916,168.679003 C53.2382152,168.679003 53.640315,169.282152 53.640315,169.885302 C53.640315,170.890551 52.6350656,171.493701 50.4235171,171.493701 C39.3657743,171.493701 26.6996325,170.890551 25.6943832,170.890551 C25.0912336,170.890551 12.4250919,171.493701 6.3935958,171.493701 C4.18204724,171.493701 3.1767979,171.091601 3.1767979,169.885302 C3.1767979,169.282152 3.57889764,168.679003 4.78519685,168.679003 C6.59464567,168.679003 9.00724409,168.276903 10.8166929,167.874803 C14.8376903,167.070604 15.8429396,162.647507 16.6471391,156.81706 C17.6523885,148.372966 17.6523885,132.490026 17.6523885,113.189239 Z" id="Path" stroke="#000000"></path>
                <path d="M132.994698,77.8044619 L132.994698,90.6716535 C139.227244,84.6401575 166.570026,55.8900262 178.834068,43.2238845 C190.89706,30.7587927 191.70126,28.748294 191.70126,26.3356955 C191.70126,24.7272966 190.69601,23.1188976 189.087612,22.515748 C187.680262,21.9125984 187.278163,21.5104987 187.278163,20.7062992 C187.278163,19.9020997 188.484462,19.5 190.293911,19.5 C196.124357,19.5 195.521207,20.1031496 202.356903,20.1031496 C208.589449,20.1031496 220.451391,19.5 223.668189,19.5 C226.482887,19.5 227.086037,20.1031496 227.086037,20.9073491 C227.086037,21.7115486 226.683937,22.1136483 224.874488,22.3146982 C221.054541,22.7167979 217.435643,23.5209974 214.620945,24.7272966 C209.594698,26.7377953 205.774751,29.1503937 193.711759,40.8112861 C176.01937,57.9005249 153.099685,80.6191601 147.872388,86.4496063 C160.53853,100.322047 197.129606,137.516273 206.57895,146.362467 C223.065039,161.843307 230.101785,166.266404 239.752178,168.075853 C241.561627,168.477953 243.572126,168.679003 245.582625,168.679003 C247.191024,168.679003 248.397323,169.081102 248.397323,170.086352 C248.397323,171.091601 247.593123,171.493701 245.381575,171.493701 L230.503885,171.493701 C213.012546,171.493701 208.388399,169.282152 198.939055,161.843307 C186.876063,152.393963 150.687087,113.591339 132.994698,92.4811024 L132.994698,113.189239 C132.994698,132.490026 132.994698,148.372966 133.999948,156.81706 C134.603097,162.647507 135.809396,167.070604 141.840892,167.874803 C144.655591,168.276903 148.676588,168.679003 149.882887,168.679003 C151.692336,168.679003 152.295486,169.483202 152.295486,170.086352 C152.295486,171.091601 151.491286,171.493701 149.279738,171.493701 C138.221995,171.493701 125.555853,170.890551 124.550604,170.890551 C123.545354,170.890551 111.683412,171.493701 105.651916,171.493701 C103.440367,171.493701 102.435118,171.292651 102.435118,170.086352 C102.435118,169.483202 102.837218,168.679003 104.646667,168.679003 C105.852966,168.679003 108.064514,168.477953 109.873963,168.075853 C113.894961,167.271654 115.10126,162.647507 115.905459,156.81706 C116.910709,148.372966 116.910709,132.490026 116.910709,113.189239 L116.910709,77.8044619 C116.910709,46.4406824 116.910709,40.8112861 116.508609,34.3776903 C116.106509,27.5419948 114.09601,24.124147 109.672913,23.1188976 C107.461365,22.515748 103.842467,22.3146982 102.435118,22.3146982 C100.826719,22.3146982 100.22357,21.9125984 100.22357,21.108399 C100.22357,19.9020997 101.228819,19.5 103.440367,19.5 C110.075013,19.5 123.545354,20.1031496 124.550604,20.1031496 C125.555853,20.1031496 138.221995,19.5 144.253491,19.5 C146.465039,19.5 147.470289,19.9020997 147.470289,20.9073491 C147.470289,21.7115486 147.068189,22.1136483 145.25874,22.3146982 C143.047192,22.515748 142.846142,22.515748 140.835643,22.7167979 C135.407297,23.3199475 133.798898,27.3409449 133.396798,34.3776903 C132.994698,40.8112861 132.994698,46.4406824 132.994698,77.8044619 Z" id="Path" stroke="#000000"></path>
                <path d="M255.775853,113.189239 L255.775853,77.8044619 C255.775853,46.4406824 255.775853,40.8112861 255.373753,34.3776903 C254.971654,27.5419948 253.363255,24.3251969 246.728609,22.9178478 C245.12021,22.515748 241.702362,22.3146982 239.892913,22.3146982 C239.088714,22.3146982 238.284514,21.9125984 238.284514,21.108399 C238.284514,19.9020997 239.289764,19.5 241.501312,19.5 C250.548556,19.5 262.611549,20.1031496 264.219948,20.1031496 C268.643045,20.1031496 280.303937,19.5 289.552231,19.5 C314.683465,19.5 323.730709,27.9440945 326.947507,30.9598425 C331.370604,35.1818898 337,44.2291339 337,57.2973753 C337,83.4338583 316.090814,102.734646 287.541732,102.734646 C286.536483,102.734646 284.324934,102.734646 283.319685,102.533596 C282.314436,102.533596 281.108136,102.131496 281.108136,101.126247 C281.108136,99.5178478 282.314436,99.3167979 286.536483,99.3167979 C306.03832,99.3167979 321.31811,86.0475066 321.31811,64.9372703 C321.31811,59.9110236 320.714961,46.4406824 310.059318,35.5839895 C299.403675,24.7272966 287.139633,25.5314961 282.515486,25.5314961 C279.097638,25.5314961 275.67979,25.9335958 273.870341,26.7377953 C272.664042,27.139895 272.261942,28.5472441 272.261942,30.5577428 L272.261942,113.189239 C272.261942,132.490026 272.261942,148.372966 273.267192,156.81706 C273.870341,162.647507 275.07664,167.070604 281.108136,167.874803 C283.922835,168.276903 288.345932,168.679003 290.155381,168.679003 C291.36168,168.679003 291.76378,169.282152 291.76378,169.885302 C291.76378,170.890551 290.75853,171.493701 288.546982,171.493701 C277.489239,171.493701 264.823097,170.890551 263.817848,170.890551 C263.214698,170.890551 250.548556,171.493701 244.51706,171.493701 C242.305512,171.493701 241.300262,171.091601 241.300262,169.885302 C241.300262,169.282152 241.702362,168.679003 242.908661,168.679003 C244.71811,168.679003 247.130709,168.276903 248.940157,167.874803 C252.961155,167.070604 253.966404,162.647507 254.770604,156.81706 C255.775853,148.372966 255.775853,132.490026 255.775853,113.189239 Z" id="Path" stroke="#000000"></path>
                <path d="M400.519886,13.9815341 C400.225851,11.4985671 399.033391,9.57102959 396.942472,8.19886364 C394.851552,6.82669768 392.286947,6.140625 389.24858,6.140625 C387.026978,6.140625 385.087189,6.49999641 383.429155,7.21875 C381.771121,7.93750359 380.480651,8.92577496 379.557706,10.1835938 C378.634761,11.4414125 378.173295,12.8707306 378.173295,14.4715909 C378.173295,15.8110862 378.495913,16.9586245 379.141158,17.9142401 C379.786402,18.8698556 380.615407,19.6621062 381.628196,20.2910156 C382.640985,20.919925 383.702764,21.4344795 384.813565,21.8346946 C385.924366,22.2349097 386.945308,22.5575272 387.87642,22.8025568 L392.973011,24.1747159 C394.279836,24.5177574 395.737741,24.9914743 397.346768,25.5958807 C398.955796,26.2002871 400.49946,27.0211241 401.977805,28.0584162 C403.456151,29.0957083 404.677197,30.4229323 405.64098,32.0401278 C406.604763,33.6573234 407.086648,35.6420337 407.086648,37.9943182 C407.086648,40.7059795 406.380156,43.1562391 404.967152,45.3451705 C403.554148,47.5341019 401.49593,49.2737862 398.792436,50.5642756 C396.088942,51.854765 392.809678,52.5 388.954545,52.5 C385.360777,52.5 382.253032,51.9201052 379.631214,50.7602983 C377.009397,49.6004914 374.951179,47.98332 373.456499,45.9087358 C371.961818,43.8341516 371.116478,41.4247296 370.920455,38.6803977 L377.193182,38.6803977 C377.356535,40.5752936 377.997686,42.1393759 379.116655,43.3726918 C380.235623,44.6060076 381.656774,45.5207712 383.380149,46.1170099 C385.103524,46.7132487 386.961638,47.0113636 388.954545,47.0113636 C391.274159,47.0113636 393.35688,46.6315734 395.20277,45.8719815 C397.04866,45.1123897 398.510648,44.0506105 399.588778,42.6866122 C400.666909,41.3226139 401.205966,39.7258614 401.205966,37.8963068 C401.205966,36.2301053 400.740417,34.874295 399.809304,33.8288352 C398.878191,32.7833755 397.653062,31.9339521 396.133878,31.2805398 C394.614694,30.6271274 392.97302,30.0554002 391.208807,29.5653409 L385.034091,27.8011364 C381.113617,26.674 378.009955,25.0649963 375.723011,22.9740767 C373.436068,20.8831572 372.292614,18.147034 372.292614,14.765625 C372.292614,11.9559519 373.056278,9.50160851 374.583629,7.40252131 C376.110981,5.30343411 378.169199,3.66992771 380.758345,2.50195313 C383.347492,1.33397854 386.242882,0.75 389.444602,0.75 C392.678993,0.75 395.553965,1.325811 398.069602,2.47745028 C400.58524,3.62908956 402.582201,5.20133947 404.060547,7.19424716 C405.538892,9.18715485 406.318892,11.4495612 406.400568,13.9815341 L400.519886,13.9815341 Z M429.225224,52.4019886 C425.696797,52.4019886 422.658475,51.5689004 420.110167,49.9026989 C417.561859,48.2364974 415.601651,45.9414209 414.229485,43.0174006 C412.857319,40.0933803 412.171247,36.7528597 412.171247,32.9957386 C412.171247,29.1732763 412.877738,25.7960019 414.290742,22.8638139 C415.703747,19.931626 417.680289,17.6365495 420.22043,15.9785156 C422.760571,14.3204818 425.729468,13.4914773 429.127213,13.4914773 C431.773533,13.4914773 434.158452,13.9815292 436.282042,14.9616477 C438.405632,15.9417663 440.145317,17.3139116 441.501147,19.078125 C442.856978,20.8423384 443.698234,22.9005564 444.02494,25.2528409 L438.242269,25.2528409 C437.801216,23.5376335 436.825196,22.0143888 435.31418,20.6830611 C433.803164,19.3517334 431.773532,18.6860795 429.225224,18.6860795 C426.970951,18.6860795 424.998492,19.2700581 423.307788,20.4380327 C421.617083,21.6060073 420.302111,23.2476812 419.362831,25.3631037 C418.42355,27.4785262 417.953917,29.9573722 417.953917,32.7997159 C417.953917,35.7074009 418.415383,38.2393358 419.338328,40.3955966 C420.261273,42.5518574 421.568078,44.2262014 423.258782,45.418679 C424.949487,46.6111565 426.938281,47.2073864 429.225224,47.2073864 C430.728072,47.2073864 432.09205,46.9460253 433.317198,46.4232955 C434.542347,45.9005656 435.579623,45.1491526 436.429059,44.1690341 C437.278495,43.1889156 437.882893,42.012791 438.242269,40.640625 L444.02494,40.640625 C443.698234,42.862227 442.893732,44.8591886 441.61141,46.6315696 C440.329088,48.4039506 438.638409,49.8087661 436.539322,50.8460582 C434.440235,51.8833504 432.002227,52.4019886 429.225224,52.4019886 Z M455.872323,28.9772727 L455.872323,51.6178977 L450.089653,51.6178977 L450.089653,1.43607955 L455.872323,1.43607955 L455.872323,19.8622159 L456.36238,19.8622159 C457.244487,17.9183141 458.57171,16.3705668 460.344091,15.2189276 C462.116473,14.0672883 464.480973,13.4914773 467.437664,13.4914773 C470.002307,13.4914773 472.248379,14.001948 474.175945,15.0229048 C476.103512,16.0438616 477.602254,17.6038602 478.672216,19.7029474 C479.742179,21.8020346 480.277153,24.4687338 480.277153,27.703125 L480.277153,51.6178977 L474.494482,51.6178977 L474.494482,28.0951705 C474.494482,25.1058089 473.72265,22.7903136 472.178964,21.1486151 C470.635277,19.5069165 468.499467,18.6860795 465.771471,18.6860795 C463.876575,18.6860795 462.181812,19.0862886 460.687131,19.8867188 C459.19245,20.6871489 458.016326,21.855106 457.158722,23.390625 C456.301118,24.926144 455.872323,26.7883413 455.872323,28.9772727 Z M503.787888,52.4019886 C500.390144,52.4019886 497.413078,51.593403 494.856602,49.9762074 C492.300127,48.3590118 490.307249,46.0966054 488.877909,43.1889205 C487.44857,40.2812355 486.733911,36.8835422 486.733911,32.9957386 C486.733911,29.0752645 487.44857,25.6530686 488.877909,22.7290483 C490.307249,19.805028 492.300127,17.5344541 494.856602,15.9172585 C497.413078,14.3000629 500.390144,13.4914773 503.787888,13.4914773 C507.185632,13.4914773 510.162698,14.3000629 512.719173,15.9172585 C515.275649,17.5344541 517.268527,19.805028 518.697867,22.7290483 C520.127206,25.6530686 520.841865,29.0752645 520.841865,32.9957386 C520.841865,36.8835422 520.127206,40.2812355 518.697867,43.1889205 C517.268527,46.0966054 515.275649,48.3590118 512.719173,49.9762074 C510.162698,51.593403 507.185632,52.4019886 503.787888,52.4019886 Z M503.787888,47.2073864 C506.368867,47.2073864 508.492425,46.5458163 510.158627,45.2226563 C511.824828,43.8994962 513.058125,42.1598119 513.858556,40.0035511 C514.658986,37.8472904 515.059195,35.5113762 515.059195,32.9957386 C515.059195,30.4801011 514.658986,28.1360194 513.858556,25.9634233 C513.058125,23.7908272 511.824828,22.0348078 510.158627,20.6953125 C508.492425,19.3558172 506.368867,18.6860795 503.787888,18.6860795 C501.206909,18.6860795 499.083351,19.3558172 497.417149,20.6953125 C495.750948,22.0348078 494.51765,23.7908272 493.71722,25.9634233 C492.91679,28.1360194 492.516581,30.4801011 492.516581,32.9957386 C492.516581,35.5113762 492.91679,37.8472904 493.71722,40.0035511 C494.51765,42.1598119 495.750948,43.8994962 497.417149,45.2226563 C499.083351,46.5458163 501.206909,47.2073864 503.787888,47.2073864 Z M542.588396,52.4019886 C539.190652,52.4019886 536.213586,51.593403 533.657111,49.9762074 C531.100635,48.3590118 529.107757,46.0966054 527.678417,43.1889205 C526.249078,40.2812355 525.534419,36.8835422 525.534419,32.9957386 C525.534419,29.0752645 526.249078,25.6530686 527.678417,22.7290483 C529.107757,19.805028 531.100635,17.5344541 533.657111,15.9172585 C536.213586,14.3000629 539.190652,13.4914773 542.588396,13.4914773 C545.98614,13.4914773 548.963206,14.3000629 551.519682,15.9172585 C554.076157,17.5344541 556.069035,19.805028 557.498375,22.7290483 C558.927714,25.6530686 559.642373,29.0752645 559.642373,32.9957386 C559.642373,36.8835422 558.927714,40.2812355 557.498375,43.1889205 C556.069035,46.0966054 554.076157,48.3590118 551.519682,49.9762074 C548.963206,51.593403 545.98614,52.4019886 542.588396,52.4019886 Z M542.588396,47.2073864 C545.169375,47.2073864 547.292933,46.5458163 548.959135,45.2226563 C550.625336,43.8994962 551.858634,42.1598119 552.659064,40.0035511 C553.459494,37.8472904 553.859703,35.5113762 553.859703,32.9957386 C553.859703,30.4801011 553.459494,28.1360194 552.659064,25.9634233 C551.858634,23.7908272 550.625336,22.0348078 548.959135,20.6953125 C547.292933,19.3558172 545.169375,18.6860795 542.588396,18.6860795 C540.007417,18.6860795 537.883859,19.3558172 536.217657,20.6953125 C534.551456,22.0348078 533.318159,23.7908272 532.517728,25.9634233 C531.717298,28.1360194 531.317089,30.4801011 531.317089,32.9957386 C531.317089,35.5113762 531.717298,37.8472904 532.517728,40.0035511 C533.318159,42.1598119 534.551456,43.8994962 536.217657,45.2226563 C537.883859,46.5458163 540.007417,47.2073864 542.588396,47.2073864 Z M571.881802,1.43607955 L571.881802,51.6178977 L566.099131,51.6178977 L566.099131,1.43607955 L571.881802,1.43607955 Z" id="School"></path>
            </g>
        </g>
    </g>
</svg>
