<?xml version="1.0" encoding="UTF-8"?>
<svg width="339px" height="405px" viewBox="0 0 339 405" version="1.1" xmlns="http://www.w3.org/2000/svg" xmlns:xlink="http://www.w3.org/1999/xlink">
    <title>vertical-pkp</title>
    <desc>An official PKP logotype.</desc>
    <g id="Final" stroke="none" stroke-width="1" fill="none" fill-rule="evenodd">
        <g id="Artboard-Copy" transform="translate(-95.000000, -1098.000000)" fill="#000000" fill-rule="nonzero">
            <g id="vertical-pkp" transform="translate(96.146645, 1099.000000)">
                <path d="M17.6523885,93.6892388 L17.6523885,58.3044619 C17.6523885,26.9406824 17.6523885,21.3112861 17.2502887,14.8776903 C16.848189,8.04199475 15.23979,4.82519685 8.60514436,3.41784777 C6.99674541,3.01574803 3.57889764,2.81469816 1.76944882,2.81469816 C0.965249344,2.81469816 0.161049869,2.41259843 0.161049869,1.60839895 C0.161049869,0.402099738 1.16629921,9.09494702e-13 3.37784777,9.09494702e-13 C12.4250919,9.09494702e-13 24.488084,0.603149606 26.0964829,0.603149606 C30.5195801,0.603149606 42.1804724,9.09494702e-13 51.4287664,9.09494702e-13 C76.56,9.09494702e-13 85.6072441,8.44409449 88.824042,11.4598425 C93.2471391,15.6818898 98.8765354,24.7291339 98.8765354,37.7973753 C98.8765354,63.9338583 77.9673491,83.2346457 49.4182677,83.2346457 C48.4130184,83.2346457 46.2014698,83.2346457 45.1962205,83.0335958 C44.1909711,83.0335958 42.9846719,82.6314961 42.9846719,81.6262467 C42.9846719,80.0178478 44.1909711,79.8167979 48.4130184,79.8167979 C67.9148556,79.8167979 83.1946457,66.5475066 83.1946457,45.4372703 C83.1946457,40.4110236 82.5914961,26.9406824 71.935853,16.0839895 C61.28021,5.22729659 49.016168,6.03149606 44.392021,6.03149606 C40.9741732,6.03149606 37.5563255,6.4335958 35.7468766,7.23779528 C34.5405774,7.63989501 34.1384777,9.04724409 34.1384777,11.0577428 L34.1384777,93.6892388 C34.1384777,112.990026 34.1384777,128.872966 35.143727,137.31706 C35.7468766,143.147507 36.9531759,147.570604 42.9846719,148.374803 C45.7993701,148.776903 50.2224672,149.179003 52.031916,149.179003 C53.2382152,149.179003 53.640315,149.782152 53.640315,150.385302 C53.640315,151.390551 52.6350656,151.993701 50.4235171,151.993701 C39.3657743,151.993701 26.6996325,151.390551 25.6943832,151.390551 C25.0912336,151.390551 12.4250919,151.993701 6.3935958,151.993701 C4.18204724,151.993701 3.1767979,151.591601 3.1767979,150.385302 C3.1767979,149.782152 3.57889764,149.179003 4.78519685,149.179003 C6.59464567,149.179003 9.00724409,148.776903 10.8166929,148.374803 C14.8376903,147.570604 15.8429396,143.147507 16.6471391,137.31706 C17.6523885,128.872966 17.6523885,112.990026 17.6523885,93.6892388 Z M132.994698,58.3044619 L132.994698,71.1716535 C139.227244,65.1401575 166.570026,36.3900262 178.834068,23.7238845 C190.89706,11.2587927 191.70126,9.24829396 191.70126,6.83569554 C191.70126,5.22729659 190.69601,3.61889764 189.087612,3.01574803 C187.680262,2.41259843 187.278163,2.01049869 187.278163,1.20629921 C187.278163,0.402099738 188.484462,9.09494702e-13 190.293911,9.09494702e-13 C196.124357,9.09494702e-13 195.521207,0.603149606 202.356903,0.603149606 C208.589449,0.603149606 220.451391,9.09494702e-13 223.668189,9.09494702e-13 C226.482887,9.09494702e-13 227.086037,0.603149606 227.086037,1.40734908 C227.086037,2.21154856 226.683937,2.61364829 224.874488,2.81469816 C221.054541,3.2167979 217.435643,4.02099738 214.620945,5.22729659 C209.594698,7.23779528 205.774751,9.6503937 193.711759,21.3112861 C176.01937,38.4005249 153.099685,61.1191601 147.872388,66.9496063 C160.53853,80.8220472 197.129606,118.016273 206.57895,126.862467 C223.065039,142.343307 230.101785,146.766404 239.752178,148.575853 C241.561627,148.977953 243.572126,149.179003 245.582625,149.179003 C247.191024,149.179003 248.397323,149.581102 248.397323,150.586352 C248.397323,151.591601 247.593123,151.993701 245.381575,151.993701 L230.503885,151.993701 C213.012546,151.993701 208.388399,149.782152 198.939055,142.343307 C186.876063,132.893963 150.687087,94.0913386 132.994698,72.9811024 L132.994698,93.6892388 C132.994698,112.990026 132.994698,128.872966 133.999948,137.31706 C134.603097,143.147507 135.809396,147.570604 141.840892,148.374803 C144.655591,148.776903 148.676588,149.179003 149.882887,149.179003 C151.692336,149.179003 152.295486,149.983202 152.295486,150.586352 C152.295486,151.591601 151.491286,151.993701 149.279738,151.993701 C138.221995,151.993701 125.555853,151.390551 124.550604,151.390551 C123.545354,151.390551 111.683412,151.993701 105.651916,151.993701 C103.440367,151.993701 102.435118,151.792651 102.435118,150.586352 C102.435118,149.983202 102.837218,149.179003 104.646667,149.179003 C105.852966,149.179003 108.064514,148.977953 109.873963,148.575853 C113.894961,147.771654 115.10126,143.147507 115.905459,137.31706 C116.910709,128.872966 116.910709,112.990026 116.910709,93.6892388 L116.910709,58.3044619 C116.910709,26.9406824 116.910709,21.3112861 116.508609,14.8776903 C116.106509,8.04199475 114.09601,4.62414698 109.672913,3.61889764 C107.461365,3.01574803 103.842467,2.81469816 102.435118,2.81469816 C100.826719,2.81469816 100.22357,2.41259843 100.22357,1.60839895 C100.22357,0.402099738 101.228819,9.09494702e-13 103.440367,9.09494702e-13 C110.075013,9.09494702e-13 123.545354,0.603149606 124.550604,0.603149606 C125.555853,0.603149606 138.221995,9.09494702e-13 144.253491,9.09494702e-13 C146.465039,9.09494702e-13 147.470289,0.402099738 147.470289,1.40734908 C147.470289,2.21154856 147.068189,2.61364829 145.25874,2.81469816 C143.047192,3.01574803 142.846142,3.01574803 140.835643,3.2167979 C135.407297,3.81994751 133.798898,7.84094488 133.396798,14.8776903 C132.994698,21.3112861 132.994698,26.9406824 132.994698,58.3044619 Z M255.775853,93.6892388 L255.775853,58.3044619 C255.775853,26.9406824 255.775853,21.3112861 255.373753,14.8776903 C254.971654,8.04199475 253.363255,4.82519685 246.728609,3.41784777 C245.12021,3.01574803 241.702362,2.81469816 239.892913,2.81469816 C239.088714,2.81469816 238.284514,2.41259843 238.284514,1.60839895 C238.284514,0.402099738 239.289764,9.09494702e-13 241.501312,9.09494702e-13 C250.548556,9.09494702e-13 262.611549,0.603149606 264.219948,0.603149606 C268.643045,0.603149606 280.303937,9.09494702e-13 289.552231,9.09494702e-13 C314.683465,9.09494702e-13 323.730709,8.44409449 326.947507,11.4598425 C331.370604,15.6818898 337,24.7291339 337,37.7973753 C337,63.9338583 316.090814,83.2346457 287.541732,83.2346457 C286.536483,83.2346457 284.324934,83.2346457 283.319685,83.0335958 C282.314436,83.0335958 281.108136,82.6314961 281.108136,81.6262467 C281.108136,80.0178478 282.314436,79.8167979 286.536483,79.8167979 C306.03832,79.8167979 321.31811,66.5475066 321.31811,45.4372703 C321.31811,40.4110236 320.714961,26.9406824 310.059318,16.0839895 C299.403675,5.22729659 287.139633,6.03149606 282.515486,6.03149606 C279.097638,6.03149606 275.67979,6.4335958 273.870341,7.23779528 C272.664042,7.63989501 272.261942,9.04724409 272.261942,11.0577428 L272.261942,93.6892388 C272.261942,112.990026 272.261942,128.872966 273.267192,137.31706 C273.870341,143.147507 275.07664,147.570604 281.108136,148.374803 C283.922835,148.776903 288.345932,149.179003 290.155381,149.179003 C291.36168,149.179003 291.76378,149.782152 291.76378,150.385302 C291.76378,151.390551 290.75853,151.993701 288.546982,151.993701 C277.489239,151.993701 264.823097,151.390551 263.817848,151.390551 C263.214698,151.390551 250.548556,151.993701 244.51706,151.993701 C242.305512,151.993701 241.300262,151.591601 241.300262,150.385302 C241.300262,149.782152 241.702362,149.179003 242.908661,149.179003 C244.71811,149.179003 247.130709,148.776903 248.940157,148.374803 C252.961155,147.570604 253.966404,143.147507 254.770604,137.31706 C255.775853,128.872966 255.775853,112.990026 255.775853,93.6892388 Z" id="PKP" stroke="#000000"></path>
                <path d="M9.15340909,233.2781 L19.9346591,233.2781 C22.6299851,233.2781 24.794381,232.812551 26.4279119,231.881438 C28.0614428,230.950326 29.2498187,229.688442 29.9930753,228.09575 C30.7363318,226.503057 31.1079545,224.702116 31.1079545,222.692873 C31.1079545,220.68363 30.7363318,218.886773 29.9930753,217.302248 C29.2498187,215.717723 28.0532753,214.472175 26.4034091,213.565565 C24.7535429,212.658955 22.5646443,212.205657 19.8366477,212.205657 L9.15340909,212.205657 L9.15340909,233.2781 L9.15340909,233.2781 Z M9.15340909,238.668725 L9.15340909,256.99685 L3.07670455,256.99685 L3.07670455,206.815032 L20.0326705,206.815032 C23.9694799,206.815032 27.1915713,207.521524 29.6990412,208.934528 C32.2065111,210.347532 34.0646246,212.254651 35.2734375,214.655941 C36.4822504,217.057232 37.0866477,219.736182 37.0866477,222.692873 C37.0866477,225.649564 36.4863341,228.336682 35.2856889,230.754308 C34.0850437,233.171934 32.2350977,235.095387 29.7357955,236.524727 C27.2364932,237.954066 24.0348207,238.668725 20.1306818,238.668725 L9.15340909,238.668725 Z M67.4581786,241.609066 L67.4581786,219.360487 L73.240849,219.360487 L73.240849,256.99685 L67.4581786,256.99685 L67.4581786,250.626112 L67.0661331,250.626112 C66.1840264,252.537343 64.811881,254.158598 62.9496558,255.489926 C61.0874306,256.821253 58.7351814,257.486907 55.8928376,257.486907 C53.5405532,257.486907 51.449665,256.968269 49.6201104,255.930977 C47.7905558,254.893685 46.3530701,253.325519 45.3076104,251.226431 C44.2621506,249.127344 43.7394286,246.47698 43.7394286,243.275259 L43.7394286,219.360487 L49.522099,219.360487 L49.522099,242.883214 C49.522099,245.627546 50.2939308,247.816444 51.8376175,249.449975 C53.3813042,251.083506 55.3537631,251.900259 57.7550536,251.900259 C59.1925607,251.900259 60.6586327,251.532721 62.1533135,250.797632 C63.6479943,250.062543 64.9057942,248.935423 65.926751,247.41624 C66.9477078,245.897056 67.4581786,243.961351 67.4581786,241.609066 Z M82.2459026,256.99685 L82.2459026,206.815032 L88.028573,206.815032 L88.028573,225.33918 L88.5186298,225.33918 C88.9433479,224.685768 89.5354939,223.848596 90.2950858,222.827639 C91.0546777,221.806682 92.1491269,220.891918 93.5784665,220.083321 C95.007806,219.274723 96.9475949,218.87043 99.3978912,218.87043 C102.566941,218.87043 105.360237,219.662681 107.777863,221.247206 C110.195489,222.83173 112.082188,225.077802 113.438019,227.985487 C114.79385,230.893172 115.471755,234.323535 115.471755,238.27668 C115.471755,242.262495 114.79385,245.713278 113.438019,248.62913 C112.082188,251.544983 110.203656,253.799222 107.802366,255.391914 C105.401075,256.984607 102.632282,257.780941 99.4959026,257.780941 C97.0782768,257.780941 95.1425718,257.376648 93.6887293,256.568051 C92.2348868,255.759453 91.1159349,254.836522 90.3318401,253.79923 C89.5477452,252.761938 88.9433479,251.900263 88.5186298,251.21418 L87.8325503,251.21418 L87.8325503,256.99685 L82.2459026,256.99685 Z M87.9305617,238.178669 C87.9305617,241.021012 88.3471058,243.524361 89.1802065,245.688789 C90.0133073,247.853218 91.2302696,249.543897 92.8311298,250.760877 C94.4319901,251.977858 96.3921978,252.586339 98.7118117,252.586339 C101.129437,252.586339 103.150902,251.945188 104.776265,250.662866 C106.401628,249.380544 107.626758,247.649027 108.451691,245.468264 C109.276624,243.2875 109.689084,240.857659 109.689084,238.178669 C109.689084,235.532349 109.284792,233.143345 108.476194,231.011588 C107.667596,228.87983 106.450634,227.189151 104.82527,225.9395 C103.199907,224.689848 101.162108,224.065032 98.7118117,224.065032 C96.3595272,224.065032 94.3829844,224.657178 92.7821242,225.841488 C91.1812639,227.025798 89.9724691,228.67564 89.1557037,230.791062 C88.3389383,232.906485 87.9305617,235.368995 87.9305617,238.178669 Z M127.711183,206.815032 L127.711183,256.99685 L121.928513,256.99685 L121.928513,206.815032 L127.711183,206.815032 Z M135.932146,256.99685 L135.932146,219.360487 L141.714816,219.360487 L141.714816,256.99685 L135.932146,256.99685 Z M138.872487,213.087759 C137.745351,213.087759 136.777498,212.703885 135.9689,211.936126 C135.160302,211.168366 134.75601,210.245435 134.75601,209.167305 C134.75601,208.089175 135.160302,207.166243 135.9689,206.398484 C136.777498,205.630724 137.745351,205.24685 138.872487,205.24685 C139.999623,205.24685 140.967476,205.630724 141.776074,206.398484 C142.584671,207.166243 142.988964,208.089175 142.988964,209.167305 C142.988964,210.245435 142.584671,211.168366 141.776074,211.936126 C140.967476,212.703885 139.999623,213.087759 138.872487,213.087759 Z M165.225552,257.780941 C161.697125,257.780941 158.658803,256.947853 156.110495,255.281652 C153.562187,253.61545 151.601979,251.320374 150.229813,248.396353 C148.857647,245.472333 148.171575,242.131812 148.171575,238.374691 C148.171575,234.552229 148.878066,231.174955 150.29107,228.242767 C151.704075,225.310579 153.680617,223.015502 156.220758,221.357468 C158.760898,219.699434 161.729796,218.87043 165.12754,218.87043 C167.773861,218.87043 170.15878,219.360482 172.28237,220.3406 C174.40596,221.320719 176.145645,222.692864 177.501475,224.457078 C178.857306,226.221291 179.698562,228.279509 180.025268,230.631794 L174.242597,230.631794 C173.801544,228.916586 172.825524,227.393341 171.314508,226.062014 C169.803492,224.730686 167.77386,224.065032 165.225552,224.065032 C162.971279,224.065032 160.99882,224.649011 159.308116,225.816985 C157.617411,226.98496 156.302439,228.626634 155.363158,230.742056 C154.423878,232.857479 153.954245,235.336325 153.954245,238.178669 C153.954245,241.086354 154.415711,243.618288 155.338656,245.774549 C156.261601,247.93081 157.568406,249.605154 159.25911,250.797632 C160.949815,251.990109 162.938609,252.586339 165.225552,252.586339 C166.7284,252.586339 168.092378,252.324978 169.317526,251.802248 C170.542674,251.279518 171.579951,250.528105 172.429387,249.547987 C173.278823,248.567868 173.883221,247.391744 174.242597,246.019578 L180.025268,246.019578 C179.698562,248.24118 178.89406,250.238141 177.611738,252.010522 C176.329416,253.782903 174.638737,255.187719 172.53965,256.225011 C170.440563,257.262303 168.002554,257.780941 165.225552,257.780941 Z M3.07670455,322.99685 L3.07670455,272.815032 L9.15340909,272.815032 L9.15340909,297.709919 L9.74147727,297.709919 L32.2840909,272.815032 L40.2230114,272.815032 L19.1505682,295.455657 L40.2230114,322.99685 L32.8721591,322.99685 L15.4261364,299.670146 L9.15340909,306.726964 L9.15340909,322.99685 L3.07670455,322.99685 Z M50.6982354,300.356225 L50.6982354,322.99685 L44.9155649,322.99685 L44.9155649,285.360487 L50.5022126,285.360487 L50.5022126,291.241169 L50.9922695,291.241169 C51.8743761,289.329937 53.2138514,287.790358 55.0107354,286.622383 C56.8076194,285.454408 59.1271984,284.87043 61.9695422,284.87043 C64.5178504,284.87043 66.7475866,285.389068 68.6588178,286.42636 C70.5700489,287.463652 72.0565397,289.031819 73.1183348,291.130906 C74.1801299,293.229993 74.7110195,295.880357 74.7110195,299.082078 L74.7110195,322.99685 L68.928349,322.99685 L68.928349,299.474123 C68.928349,296.517432 68.160601,294.210104 66.625082,292.552071 C65.0895629,290.894037 62.9823397,290.065032 60.303349,290.065032 C58.4574591,290.065032 56.8117014,290.465241 55.3660266,291.265671 C53.9203517,292.066102 52.780981,293.234059 51.9478803,294.769578 C51.1147795,296.305097 50.6982354,298.167294 50.6982354,300.356225 Z M98.2217548,323.780941 C94.8240106,323.780941 91.8469452,322.972356 89.2904693,321.35516 C86.7339935,319.737964 84.7411157,317.475558 83.3117761,314.567873 C81.8824366,311.660188 81.1677776,308.262495 81.1677776,304.374691 C81.1677776,300.454217 81.8824366,297.032021 83.3117761,294.108001 C84.7411157,291.183981 86.7339935,288.913407 89.2904693,287.296211 C91.8469452,285.679016 94.8240106,284.87043 98.2217548,284.87043 C101.619499,284.87043 104.596564,285.679016 107.15304,287.296211 C109.709516,288.913407 111.702394,291.183981 113.131734,294.108001 C114.561073,297.032021 115.275732,300.454217 115.275732,304.374691 C115.275732,308.262495 114.561073,311.660188 113.131734,314.567873 C111.702394,317.475558 109.709516,319.737964 107.15304,321.35516 C104.596564,322.972356 101.619499,323.780941 98.2217548,323.780941 Z M98.2217548,318.586339 C100.802734,318.586339 102.926292,317.924769 104.592493,316.601609 C106.258695,315.278449 107.491992,313.538765 108.292422,311.382504 C109.092853,309.226243 109.493062,306.890329 109.493062,304.374691 C109.493062,301.859054 109.092853,299.514972 108.292422,297.342376 C107.491992,295.16978 106.258695,293.413761 104.592493,292.074265 C102.926292,290.73477 100.802734,290.065032 98.2217548,290.065032 C95.640776,290.065032 93.5172177,290.73477 91.8510162,292.074265 C90.1848147,293.413761 88.9515174,295.16978 88.1510872,297.342376 C87.3506571,299.514972 86.950448,301.859054 86.950448,304.374691 C86.950448,306.890329 87.3506571,309.226243 88.1510872,311.382504 C88.9515174,313.538765 90.1848147,315.278449 91.8510162,316.601609 C93.5172177,317.924769 95.640776,318.586339 98.2217548,318.586339 Z M128.985331,322.99685 L117.518002,285.360487 L123.594706,285.360487 L131.729649,314.175828 L132.121695,314.175828 L140.158627,285.360487 L146.333342,285.360487 L154.272263,314.077816 L154.664308,314.077816 L162.799252,285.360487 L168.875956,285.360487 L157.408627,322.99685 L151.723967,322.99685 L143.491013,294.083498 L142.902945,294.083498 L134.66999,322.99685 L128.985331,322.99685 Z M179.939248,272.815032 L179.939248,322.99685 L174.156578,322.99685 L174.156578,272.815032 L179.939248,272.815032 Z M192.206243,301.140316 L213.643165,301.140316 C213.643165,299.016726 213.222538,297.121859 212.381269,295.455657 C211.540001,293.789456 210.347541,292.474483 208.803854,291.5107 C207.260168,290.546917 205.442892,290.065032 203.351972,290.065032 C201.048694,290.065032 199.0599,290.632676 197.385531,291.76798 C195.711161,292.903284 194.424775,294.377523 193.526333,296.190742 C192.756387,297.744635 192.316359,299.39448 192.206243,301.140316 L192.206243,301.140316 Z M192.191579,306.138896 C192.275175,308.642142 192.765011,310.786123 193.661099,312.570892 C194.649385,314.539296 196.025614,316.033955 197.789827,317.054911 C199.554041,318.075868 201.604091,318.586339 203.94004,318.586339 C205.459224,318.586339 206.835453,318.369899 208.068769,317.937014 C209.302085,317.504128 210.367948,316.850726 211.26639,315.976786 C212.164832,315.102847 212.859072,314.012482 213.349131,312.705657 L218.935779,314.273839 C218.347708,316.168735 217.359437,317.830828 215.970935,319.260167 C214.582434,320.689507 212.867252,321.800291 210.825339,322.592554 C208.783425,323.384816 206.488349,323.780941 203.94004,323.780941 C200.313602,323.780941 197.189521,322.976439 194.567704,321.367411 C191.945887,319.758384 189.928506,317.504145 188.515502,314.604627 C187.102498,311.70511 186.396006,308.327836 186.396006,304.472703 C186.396006,300.61757 187.102498,297.215793 188.515502,294.267269 C189.928506,291.318746 191.905049,289.015502 194.44519,287.357468 C196.98533,285.699434 199.954228,284.87043 203.351972,284.87043 C205.312209,284.87043 207.247914,285.197131 209.159146,285.850544 C211.070377,286.503956 212.810061,287.561651 214.378251,289.023661 C215.94644,290.485672 217.196073,292.417293 218.127185,294.818583 C219.058298,297.219874 219.523847,300.17652 219.523847,303.688612 L219.523847,306.138896 L192.191579,306.138896 L192.191579,306.138896 Z M240.192253,323.780941 C237.055874,323.780941 234.28708,322.984607 231.88579,321.391914 C229.4845,319.799222 227.605967,317.544983 226.250137,314.62913 C224.894306,311.713278 224.216401,308.262495 224.216401,304.27668 C224.216401,300.323535 224.894306,296.893172 226.250137,293.985487 C227.605967,291.077802 229.492667,288.83173 231.910293,287.247206 C234.327919,285.662681 237.121215,284.87043 240.290265,284.87043 C242.740561,284.87043 244.68035,285.274723 246.109689,286.083321 C247.539029,286.891918 248.633478,287.806682 249.39307,288.827639 C250.152662,289.848596 250.744808,290.685768 251.169526,291.33918 L251.659583,291.33918 L251.659583,272.815032 L257.442253,272.815032 L257.442253,322.99685 L251.855605,322.99685 L251.855605,317.21418 L251.169526,317.21418 C250.744808,317.900263 250.14041,318.761938 249.356316,319.79923 C248.572221,320.836522 247.453269,321.759453 245.999426,322.568051 C244.545584,323.376648 242.609879,323.780941 240.192253,323.780941 Z M240.976344,318.586339 C243.295958,318.586339 245.256166,317.977858 246.857026,316.760877 C248.457886,315.543897 249.674848,313.853218 250.507949,311.688789 C251.34105,309.524361 251.757594,307.021012 251.757594,304.178669 C251.757594,301.368995 251.349217,298.906485 250.532452,296.791062 C249.715687,294.67564 248.506892,293.025798 246.906032,291.841488 C245.305171,290.657178 243.328629,290.065032 240.976344,290.065032 C238.526048,290.065032 236.488248,290.689848 234.862885,291.9395 C233.237522,293.189151 232.02056,294.87983 231.211962,297.011588 C230.403364,299.143345 229.999071,301.532349 229.999071,304.178669 C229.999071,306.857659 230.411532,309.2875 231.236465,311.468264 C232.061398,313.649027 233.286528,315.380544 234.911891,316.662866 C236.537254,317.945188 238.558718,318.586339 240.976344,318.586339 Z M281.639068,337.894578 C278.84573,337.894578 276.444476,337.53929 274.435233,336.828704 C272.42599,336.118118 270.75573,335.18702 269.424402,334.03538 C268.093074,332.883741 267.035379,331.654527 266.251284,330.347703 L270.857818,327.113328 C271.380548,327.799411 272.042118,328.587577 272.842548,329.477852 C273.642978,330.368126 274.741511,331.144042 276.13818,331.805622 C277.534849,332.467202 279.36846,332.797987 281.639068,332.797987 C284.677436,332.797987 287.184868,332.062909 289.16144,330.592731 C291.138013,329.122553 292.126284,326.819309 292.126284,323.68293 L292.126284,316.038044 L291.636227,316.038044 C291.211509,316.724127 290.611196,317.569466 289.835268,318.574088 C289.059341,319.578709 287.948557,320.46897 286.502882,321.244897 C285.057207,322.020824 283.109251,322.408782 280.658954,322.408782 C277.620587,322.408782 274.896715,321.690039 272.487257,320.252532 C270.077799,318.815025 268.174764,316.724137 266.778095,313.979805 C265.381426,311.235473 264.683102,307.90312 264.683102,303.982646 C264.683102,300.127513 265.361007,296.766574 266.716838,293.899727 C268.072669,291.03288 269.959368,288.811311 272.376994,287.234954 C274.79462,285.658597 277.587916,284.87043 280.756966,284.87043 C283.207262,284.87043 285.155218,285.274723 286.600893,286.083321 C288.046568,286.891918 289.157353,287.806682 289.93328,288.827639 C290.709207,289.848596 291.30952,290.685768 291.734239,291.33918 L292.322307,291.33918 L292.322307,285.360487 L297.908954,285.360487 L297.908954,324.074975 C297.908954,327.309367 297.17796,329.943396 295.71595,331.977142 C294.25394,334.010888 292.293732,335.505546 289.835268,336.461161 C287.376804,337.416777 284.644765,337.894578 281.639068,337.894578 Z M281.443045,317.21418 C283.762659,317.21418 285.722867,316.68329 287.323727,315.621495 C288.924587,314.5597 290.14155,313.032372 290.97465,311.039464 C291.807751,309.046556 292.224295,306.661637 292.224295,303.884634 C292.224295,301.172973 291.815919,298.779886 290.999153,296.705302 C290.182388,294.630718 288.973593,293.005379 287.372733,291.829237 C285.771873,290.653095 283.79533,290.065032 281.443045,290.065032 C278.992749,290.065032 276.95495,290.685765 275.329587,291.927248 C273.704223,293.168732 272.487261,294.834908 271.678663,296.925828 C270.870065,299.016747 270.465773,301.336326 270.465773,303.884634 C270.465773,306.498284 270.878233,308.805612 271.703166,310.806687 C272.528099,312.807762 273.753229,314.375929 275.378592,315.511232 C277.003955,316.646536 279.02542,317.21418 281.443045,317.21418 Z M310.175949,301.140316 L331.612872,301.140316 C331.612872,299.016726 331.192244,297.121859 330.350975,295.455657 C329.509707,293.789456 328.317247,292.474483 326.773561,291.5107 C325.229874,290.546917 323.412598,290.065032 321.321678,290.065032 C319.0184,290.065032 317.029606,290.632676 315.355237,291.76798 C313.680867,292.903284 312.394481,294.377523 311.496039,296.190742 C310.726093,297.744635 310.286065,299.39448 310.175949,301.140316 L310.175949,301.140316 Z M310.161285,306.138896 C310.244881,308.642142 310.734718,310.786123 311.630805,312.570892 C312.619091,314.539296 313.99532,316.033955 315.759534,317.054911 C317.523747,318.075868 319.573797,318.586339 321.909747,318.586339 C323.42893,318.586339 324.805159,318.369899 326.038475,317.937014 C327.271791,317.504128 328.337654,316.850726 329.236096,315.976786 C330.134538,315.102847 330.828778,314.012482 331.318838,312.705657 L336.905485,314.273839 C336.317414,316.168735 335.329143,317.830828 333.940641,319.260167 C332.55214,320.689507 330.836959,321.800291 328.795045,322.592554 C326.753131,323.384816 324.458055,323.780941 321.909747,323.780941 C318.283308,323.780941 315.159227,322.976439 312.53741,321.367411 C309.915593,319.758384 307.898212,317.504145 306.485208,314.604627 C305.072204,311.70511 304.365713,308.327836 304.365713,304.472703 C304.365713,300.61757 305.072204,297.215793 306.485208,294.267269 C307.898212,291.318746 309.874755,289.015502 312.414896,287.357468 C314.955036,285.699434 317.923934,284.87043 321.321678,284.87043 C323.281916,284.87043 325.217621,285.197131 327.128852,285.850544 C329.040083,286.503956 330.779767,287.561651 332.347957,289.023661 C333.916146,290.485672 335.165779,292.417293 336.096891,294.818583 C337.028004,297.219874 337.493553,300.17652 337.493553,303.688612 L337.493553,306.138896 L310.161285,306.138896 L310.161285,306.138896 Z M9.15340909,365.2781 L19.9346591,365.2781 C22.6299851,365.2781 24.794381,364.812551 26.4279119,363.881438 C28.0614428,362.950326 29.2498187,361.688442 29.9930753,360.09575 C30.7363318,358.503057 31.1079545,356.702116 31.1079545,354.692873 C31.1079545,352.68363 30.7363318,350.886773 29.9930753,349.302248 C29.2498187,347.717723 28.0532753,346.472175 26.4034091,345.565565 C24.7535429,344.658955 22.5646443,344.205657 19.8366477,344.205657 L9.15340909,344.205657 L9.15340909,365.2781 L9.15340909,365.2781 Z M9.15340909,370.668725 L9.15340909,388.99685 L3.07670455,388.99685 L3.07670455,338.815032 L20.0326705,338.815032 C23.9694799,338.815032 27.1915713,339.521524 29.6990412,340.934528 C32.2065111,342.347532 34.0646246,344.254651 35.2734375,346.655941 C36.4822504,349.057232 37.0866477,351.736182 37.0866477,354.692873 C37.0866477,357.649564 36.4863341,360.336682 35.2856889,362.754308 C34.0850437,365.171934 32.2350977,367.095387 29.7357955,368.524727 C27.2364932,369.954066 24.0348207,370.668725 20.1306818,370.668725 L9.15340909,370.668725 L9.15340909,370.668725 Z M43.7394286,388.99685 L43.7394286,351.360487 L49.3260763,351.360487 L49.3260763,357.045146 L49.7181217,357.045146 C50.4042047,355.182921 51.6456696,353.671927 53.4425536,352.51212 C55.2394286,351.352313 57.2649855,350.772419 59.5192581,350.772419 C59.9439761,350.772419 60.4748657,350.780586 61.1119428,350.796921 C61.7490198,350.813257 62.2309042,350.837759 62.5576104,350.87043 L62.5576104,356.751112 C62.3615867,356.702106 61.9164562,356.624514 61.2222055,356.518335 C60.5279549,356.412155 59.7969608,356.359066 59.0292013,356.359066 C57.1996467,356.359066 55.5702241,356.738857 54.1408845,357.498448 C52.711545,358.25804 51.5844256,359.303484 50.7594925,360.634812 C49.9345594,361.96614 49.522099,363.481217 49.522099,365.180089 L49.522099,388.99685 L43.7394286,388.99685 Z M81.1677776,389.780941 C77.7700333,389.780941 74.7929679,388.972356 72.236492,387.35516 C69.6800162,385.737964 67.6871384,383.475558 66.2577989,380.567873 C64.8284593,377.660188 64.1138003,374.262495 64.1138003,370.374691 C64.1138003,366.454217 64.8284593,363.032021 66.2577989,360.108001 C67.6871384,357.183981 69.6800162,354.913407 72.236492,353.296211 C74.7929679,351.679016 77.7700333,350.87043 81.1677776,350.87043 C84.5655218,350.87043 87.5425872,351.679016 90.0990631,353.296211 C92.6555389,354.913407 94.6484167,357.183981 96.0777563,360.108001 C97.5070958,363.032021 98.2217548,366.454217 98.2217548,370.374691 C98.2217548,374.262495 97.5070958,377.660188 96.0777563,380.567873 C94.6484167,383.475558 92.6555389,385.737964 90.0990631,387.35516 C87.5425872,388.972356 84.5655218,389.780941 81.1677776,389.780941 Z M81.1677776,384.586339 C83.7487564,384.586339 85.8723147,383.924769 87.5385162,382.601609 C89.2047177,381.278449 90.438015,379.538765 91.2384452,377.382504 C92.0388753,375.226243 92.4390844,372.890329 92.4390844,370.374691 C92.4390844,367.859054 92.0388753,365.514972 91.2384452,363.342376 C90.438015,361.16978 89.2047177,359.413761 87.5385162,358.074265 C85.8723147,356.73477 83.7487564,356.065032 81.1677776,356.065032 C78.5867987,356.065032 76.4632404,356.73477 74.7970389,358.074265 C73.1308374,359.413761 71.8975401,361.16978 71.0971099,363.342376 C70.2966798,365.514972 69.8964707,367.859054 69.8964707,370.374691 C69.8964707,372.890329 70.2966798,375.226243 71.0971099,377.382504 C71.8975401,379.538765 73.1308374,381.278449 74.7970389,382.601609 C76.4632404,383.924769 78.5867987,384.586339 81.1677776,384.586339 Z M104.678513,351.360487 L110.461183,351.360487 L110.461183,391.741169 C110.461183,394.060782 110.065058,396.069995 109.272796,397.768867 C108.480533,399.46774 107.288073,400.782712 105.695381,401.713825 C104.102688,402.644937 102.097559,403.110487 99.6799334,403.110487 L98.503797,403.110487 L98.503797,397.719862 L99.581922,397.719862 C101.346135,397.719862 102.636605,397.201223 103.453371,396.163931 C104.270136,395.126639 104.678513,393.6524 104.678513,391.741169 L104.678513,351.360487 Z M107.520842,345.087759 C106.393706,345.087759 105.425854,344.703885 104.617256,343.936126 C103.808658,343.168366 103.404365,342.245435 103.404365,341.167305 C103.404365,340.089175 103.808658,339.166243 104.617256,338.398484 C105.425854,337.630724 106.393706,337.24685 107.520842,337.24685 C108.647979,337.24685 109.615831,337.630724 110.424429,338.398484 C111.233027,339.166243 111.63732,340.089175 111.63732,341.167305 C111.63732,342.245435 111.233027,343.168366 110.424429,343.936126 C109.615831,344.703885 108.647979,345.087759 107.520842,345.087759 Z M122.728178,367.140316 L144.165101,367.140316 C144.165101,365.016726 143.744473,363.121859 142.903204,361.455657 C142.061936,359.789456 140.869476,358.474483 139.325789,357.5107 C137.782103,356.546917 135.964827,356.065032 133.873907,356.065032 C131.570629,356.065032 129.581835,356.632676 127.907466,357.76798 C126.233096,358.903284 124.94671,360.377523 124.048268,362.190742 C123.278322,363.744635 122.838294,365.39448 122.728178,367.140316 L122.728178,367.140316 Z M122.713514,372.138896 C122.79711,374.642142 123.286947,376.786123 124.183034,378.570892 C125.17132,380.539296 126.547549,382.033955 128.311763,383.054911 C130.075976,384.075868 132.126026,384.586339 134.461976,384.586339 C135.981159,384.586339 137.357388,384.369899 138.590704,383.937014 C139.82402,383.504128 140.889883,382.850726 141.788325,381.976786 C142.686767,381.102847 143.381007,380.012482 143.871066,378.705657 L149.457714,380.273839 C148.869643,382.168735 147.881372,383.830828 146.49287,385.260167 C145.104369,386.689507 143.389187,387.800291 141.347274,388.592554 C139.30536,389.384816 137.010284,389.780941 134.461976,389.780941 C130.835537,389.780941 127.711456,388.976439 125.089639,387.367411 C122.467822,385.758384 120.450441,383.504145 119.037437,380.604627 C117.624433,377.70511 116.917941,374.327836 116.917941,370.472703 C116.917941,366.61757 117.624433,363.215793 119.037437,360.267269 C120.450441,357.318746 122.426984,355.015502 124.967125,353.357468 C127.507265,351.699434 130.476163,350.87043 133.873907,350.87043 C135.834144,350.87043 137.76985,351.197131 139.681081,351.850544 C141.592312,352.503956 143.331996,353.561651 144.900186,355.023661 C146.468375,356.485672 147.718008,358.417293 148.64912,360.818583 C149.580233,363.219874 150.045782,366.17652 150.045782,369.688612 L150.045782,372.138896 L122.713514,372.138896 L122.713514,372.138896 Z M171.792313,389.780941 C168.263886,389.780941 165.225565,388.947853 162.677256,387.281652 C160.128948,385.61545 158.168741,383.320374 156.796575,380.396353 C155.424409,377.472333 154.738336,374.131812 154.738336,370.374691 C154.738336,366.552229 155.444827,363.174955 156.857832,360.242767 C158.270836,357.310579 160.247379,355.015502 162.787519,353.357468 C165.32766,351.699434 168.296558,350.87043 171.694302,350.87043 C174.340622,350.87043 176.725541,351.360482 178.849131,352.3406 C180.972722,353.320719 182.712406,354.692864 184.068237,356.457078 C185.424067,358.221291 186.265323,360.279509 186.592029,362.631794 L180.809359,362.631794 C180.368305,360.916586 179.392285,359.393341 177.881269,358.062014 C176.370253,356.730686 174.340621,356.065032 171.792313,356.065032 C169.538041,356.065032 167.565582,356.649011 165.874877,357.816985 C164.184173,358.98496 162.8692,360.626634 161.92992,362.742056 C160.990639,364.857479 160.521006,367.336325 160.521006,370.178669 C160.521006,373.086354 160.982472,375.618288 161.905417,377.774549 C162.828362,379.93081 164.135167,381.605154 165.825871,382.797632 C167.516576,383.990109 169.50537,384.586339 171.792313,384.586339 C173.295162,384.586339 174.659139,384.324978 175.884288,383.802248 C177.109436,383.279518 178.146712,382.528105 178.996148,381.547987 C179.845585,380.567868 180.449982,379.391744 180.809359,378.019578 L186.592029,378.019578 C186.265323,380.24118 185.460821,382.238141 184.178499,384.010522 C182.896178,385.782903 181.205498,387.187719 179.106411,388.225011 C177.007324,389.262303 174.569316,389.780941 171.792313,389.780941 Z M209.02464,351.360487 L209.02464,356.261055 L189.520378,356.261055 L189.520378,351.360487 L209.02464,351.360487 Z M195.205037,342.343441 L200.987708,342.343441 L200.987708,378.2156 C200.987708,379.849131 201.22865,381.070177 201.710541,381.878775 C202.192433,382.687373 202.813166,383.22643 203.572757,383.495963 C204.332349,383.765495 205.136851,383.900259 205.986287,383.900259 C206.623364,383.900259 207.146086,383.863506 207.554469,383.789997 C207.962852,383.716488 208.289553,383.655231 208.534583,383.606225 L209.710719,388.800828 C209.318672,388.947845 208.771447,389.098945 208.069029,389.25413 C207.36661,389.409316 206.476349,389.486907 205.398219,389.486907 C203.764688,389.486907 202.167936,389.135703 200.607914,388.433285 C199.047892,387.730867 197.757422,386.66092 196.736465,385.223413 C195.715508,383.785906 195.205037,381.972714 195.205037,379.783782 L195.205037,342.343441 Z" id="PublicKnowledgeProject"></path>
            </g>
        </g>
    </g>
</svg>
