<?xml version="1.0" encoding="UTF-8"?>
<svg width="435px" height="389px" viewBox="0 0 435 389" version="1.1" xmlns="http://www.w3.org/2000/svg" xmlns:xlink="http://www.w3.org/1999/xlink">
    <title>vertical-omp</title>
    <desc>An official PKP logotype.</desc>
    <g id="Final" stroke="none" stroke-width="1" fill="none" fill-rule="evenodd">
        <g id="Artboard-Copy" transform="translate(-1420.000000, -1099.000000)" fill="#000000" fill-rule="nonzero">
            <g id="vertical-omp" transform="translate(1420.000000, 1099.000000)">
                <path d="M75.6254453,152.810178 C22.2198473,152.810178 4.54747351e-13,111.294148 4.54747351e-13,76.2101781 C4.54747351e-13,44.6346056 22.9994911,0 76.7949109,0 C120.649873,0 153.394911,27.6773537 153.394911,73.0916031 C153.394911,116.751654 122.598982,152.810178 75.6254453,152.810178 Z M80.8880407,145.403562 C98.4300254,145.403562 134.683461,135.268193 134.683461,78.5491094 C134.683461,31.7704835 106.226463,6.62697201 75.4305344,6.62697201 C42.8804071,6.62697201 18.5165394,28.0671756 18.5165394,70.7526718 C18.5165394,116.166921 45.8040712,145.403562 80.8880407,145.403562 Z M306.438982,5.26259542 L319.498015,124.937913 C320.277659,131.954707 321.642036,142.86972 330.023206,145.598473 C335.675623,147.352672 340.158575,147.352672 342.107684,147.352672 C343.082239,147.352672 344.251705,147.547583 344.251705,148.522137 C344.251705,149.691603 343.666972,150.081425 341.328041,150.081425 C337.04,150.081425 314.820153,149.496692 307.608448,148.911959 C303.125496,148.522137 302.150941,147.937405 302.150941,146.96285 C302.150941,146.183206 302.540763,145.988295 303.515318,145.598473 C304.879695,145.01374 304.684784,142.090076 304.294962,138.581679 L294.939237,36.8381679 L246.601323,139.361323 C242.508193,147.937405 241.923461,149.691603 240.169262,149.691603 C238.804885,149.691603 237.830331,147.742494 234.127023,140.7257 C229.059338,131.175064 212.296997,97.4554707 211.322443,95.5063613 C209.568244,91.9979644 187.153486,43.8549618 185.009466,38.5923664 L177.018117,130.39542 C176.823206,133.513995 176.628295,136.242748 176.628295,139.556234 C176.628295,144.429008 178.967226,145.988295 181.890891,146.573028 C185.204377,147.352672 187.738219,147.352672 188.907684,147.352672 C190.07715,147.352672 190.856794,147.742494 190.856794,148.327226 C190.856794,149.691603 189.882239,150.081425 187.93313,150.081425 C180.721425,150.081425 170.780967,149.496692 169.221679,149.496692 C167.467481,149.496692 158.111756,150.081425 152.84916,150.081425 C150.900051,150.081425 149.535674,149.886514 149.535674,148.522137 C149.535674,147.742494 150.510229,147.352672 151.484784,147.352672 C153.044071,147.352672 154.408448,147.352672 157.332112,146.767939 C163.764173,145.598473 164.153995,138.581679 165.12855,130.590331 L179.162137,3.89821883 C179.357048,1.75419847 180.136692,0 181.306158,0 C182.475623,0 183.255267,0.779643766 184.229822,2.92366412 L243.87257,125.522646 L301.176387,3.11857506 C301.956031,1.36437659 302.735674,0 304.100051,0 C305.464427,0 306.04916,1.55928753 306.438982,5.26259542 Z M355.985344,93.5572519 L355.985344,59.2529262 C355.985344,28.8468193 355.985344,23.389313 355.595522,17.1521628 C355.2057,10.5251908 353.646412,7.40661578 347.214351,6.04223919 C345.655064,5.6524173 342.341578,5.45750636 340.587379,5.45750636 C339.807735,5.45750636 339.028092,5.06768448 339.028092,4.28804071 C339.028092,3.11857506 340.002646,2.72875318 342.146667,2.72875318 C350.917659,2.72875318 362.612316,3.31348601 364.171603,3.31348601 C368.459644,3.31348601 379.764478,2.72875318 388.730382,2.72875318 C413.094249,2.72875318 421.865242,10.9150127 424.983817,13.8386768 C429.271858,17.9318066 434.729364,26.702799 434.729364,39.3720102 C434.729364,64.7104326 414.458626,83.421883 386.781272,83.421883 C385.806718,83.421883 383.662697,83.421883 382.688142,83.226972 C381.713588,83.226972 380.544122,82.8371501 380.544122,81.8625954 C380.544122,80.3033079 381.713588,80.1083969 385.806718,80.1083969 C404.713079,80.1083969 419.52631,67.2442748 419.52631,46.778626 C419.52631,41.9058524 418.941578,28.8468193 408.611298,18.3216285 C398.281018,7.79643766 386.39145,8.57608142 381.908499,8.57608142 C378.595013,8.57608142 375.281527,8.96590331 373.527328,9.74554707 C372.357863,10.135369 371.968041,11.4997455 371.968041,13.448855 L371.968041,93.5572519 C371.968041,112.268702 371.968041,127.666667 372.942595,135.852926 C373.527328,141.505344 374.696794,145.793384 380.544122,146.573028 C383.272875,146.96285 387.560916,147.352672 389.315115,147.352672 C390.48458,147.352672 390.874402,147.937405 390.874402,148.522137 C390.874402,149.496692 389.899847,150.081425 387.755827,150.081425 C377.035725,150.081425 364.756336,149.496692 363.781781,149.496692 C363.197048,149.496692 350.917659,150.081425 345.070331,150.081425 C342.92631,150.081425 341.951756,149.691603 341.951756,148.522137 C341.951756,147.937405 342.341578,147.352672 343.511043,147.352672 C345.265242,147.352672 347.604173,146.96285 349.358372,146.573028 C353.25659,145.793384 354.231145,141.505344 355.010789,135.852926 C355.985344,127.666667 355.985344,112.268702 355.985344,93.5572519 Z" id="OMP"></path>
                <path d="M44.3011364,231.023839 C44.3011364,236.316479 43.3455351,240.890297 41.434304,244.74543 C39.5230728,248.600563 36.9012951,251.573544 33.568892,253.664464 C30.236489,255.755384 26.4304191,256.800828 22.1505682,256.800828 C17.8707172,256.800828 14.0646473,255.755384 10.7322443,253.664464 C7.39984129,251.573544 4.77806353,248.600563 2.86683239,244.74543 C0.955601239,240.890297 2.84217094e-14,236.316479 2.84217094e-14,231.023839 C2.84217094e-14,225.731199 0.955601239,221.157381 2.86683239,217.302248 C4.77806353,213.447115 7.39984129,210.474134 10.7322443,208.383214 C14.0646473,206.292294 17.8707172,205.24685 22.1505682,205.24685 C26.4304191,205.24685 30.236489,206.292294 33.568892,208.383214 C36.9012951,210.474134 39.5230728,213.447115 41.434304,217.302248 C43.3455351,221.157381 44.3011364,225.731199 44.3011364,231.023839 Z M38.4204545,231.023839 C38.4204545,226.678647 37.697628,223.011425 36.2519531,220.022063 C34.8062783,217.032702 32.8542381,214.770296 30.3957741,213.234777 C27.9373102,211.699257 25.1889356,210.931509 22.1505682,210.931509 C19.1122007,210.931509 16.3638262,211.699257 13.9053622,213.234777 C11.4468982,214.770296 9.49485808,217.032702 8.04918324,220.022063 C6.6035084,223.011425 5.88068182,226.678647 5.88068182,231.023839 C5.88068182,235.369031 6.6035084,239.036253 8.04918324,242.025615 C9.49485808,245.014976 11.4468982,247.277382 13.9053622,248.812902 C16.3638262,250.348421 19.1122007,251.116169 22.1505682,251.116169 C25.1889356,251.116169 27.9373102,250.348421 30.3957741,248.812902 C32.8542381,247.277382 34.8062783,245.014976 36.2519531,242.025615 C37.697628,239.036253 38.4204545,235.369031 38.4204545,231.023839 Z M51.3459626,270.228384 L51.3459626,218.478384 L56.9326104,218.478384 L56.9326104,224.457078 L57.6186899,224.457078 C58.0434079,223.803665 58.635554,222.966493 59.3951459,221.945536 C60.1547377,220.92458 61.249187,220.009816 62.6785266,219.201218 C64.1078661,218.39262 66.0476549,217.988328 68.4979513,217.988328 C71.6670012,217.988328 74.4602971,218.780578 76.8779229,220.365103 C79.2955486,221.949628 81.1822485,224.195699 82.5380791,227.103384 C83.8939098,230.011069 84.5718149,233.441433 84.5718149,237.394578 C84.5718149,241.380393 83.8939098,244.831175 82.5380791,247.747028 C81.1822485,250.662881 79.3037161,252.917119 76.9024257,254.509812 C74.5011353,256.102505 71.732342,256.898839 68.5959626,256.898839 C66.1783369,256.898839 64.2426318,256.494546 62.7887893,255.685948 C61.3349469,254.877351 60.215995,253.95442 59.4319001,252.917127 C58.6478053,251.879835 58.0434079,251.018161 57.6186899,250.332078 L57.1286331,250.332078 L57.1286331,270.228384 L51.3459626,270.228384 Z M57.0306217,237.296566 C57.0306217,240.13891 57.4471659,242.642259 58.2802666,244.806687 C59.1133674,246.971115 60.3303296,248.661795 61.9311899,249.878775 C63.5320502,251.095756 65.4922579,251.704237 67.8118717,251.704237 C70.2294975,251.704237 72.2509616,251.063085 73.8763249,249.780764 C75.5016881,248.498442 76.7268179,246.766925 77.551751,244.586161 C78.3766841,242.405398 78.7891445,239.975557 78.7891445,237.296566 C78.7891445,234.650246 78.3848516,232.261243 77.5762538,230.129485 C76.767656,227.997728 75.5506938,226.307048 73.9253305,225.057397 C72.2999673,223.807746 70.2621681,223.18293 67.8118717,223.18293 C65.4595872,223.18293 63.4830445,223.775076 61.8821842,224.959386 C60.281324,226.143696 59.0725292,227.793537 58.2557638,229.90896 C57.4389983,232.024382 57.0306217,234.486893 57.0306217,237.296566 Z M95.0746047,234.258214 L116.511528,234.258214 C116.511528,232.134624 116.0909,230.239756 115.249631,228.573555 C114.408363,226.907353 113.215903,225.592381 111.672216,224.628598 C110.12853,223.664814 108.311254,223.18293 106.220334,223.18293 C103.917056,223.18293 101.928262,223.750573 100.253893,224.885877 C98.5795235,226.021181 97.2931372,227.495421 96.3946952,229.30864 C95.6247487,230.862532 95.1847213,232.512378 95.0746047,234.258214 L95.0746047,234.258214 Z M95.0599408,239.256794 C95.1435372,241.76004 95.6333735,243.90402 96.5294608,245.688789 C97.517747,247.657194 98.8939761,249.151852 100.658189,250.172809 C102.422403,251.193766 104.472453,251.704237 106.808403,251.704237 C108.327586,251.704237 109.703815,251.487797 110.937131,251.054911 C112.170447,250.622026 113.23631,249.968623 114.134752,249.094684 C115.033194,248.220745 115.727434,247.13038 116.217493,245.823555 L121.804141,247.391737 C121.21607,249.286633 120.227799,250.948725 118.839297,252.378065 C117.450796,253.807404 115.735614,254.918189 113.693701,255.710451 C111.651787,256.502714 109.356711,256.898839 106.808403,256.898839 C103.181964,256.898839 100.057883,256.094337 97.4360659,254.485309 C94.8142488,252.876281 92.7968684,250.622042 91.3838642,247.722525 C89.97086,244.823008 89.2643685,241.445733 89.2643685,237.5906 C89.2643685,233.735467 89.97086,230.33369 91.3838642,227.385167 C92.7968684,224.436644 94.7734112,222.1334 97.3135517,220.475366 C99.8536923,218.817332 102.82259,217.988328 106.220334,217.988328 C108.180571,217.988328 110.116277,218.315029 112.027508,218.968441 C113.938739,219.621854 115.678423,220.679549 117.246613,222.141559 C118.814802,223.603569 120.064435,225.535191 120.995547,227.936481 C121.92666,230.337771 122.392209,233.294418 122.392209,236.806509 L122.392209,239.256794 L95.0599408,239.256794 L95.0599408,239.256794 Z M134.631638,233.474123 L134.631638,256.114748 L128.848967,256.114748 L128.848967,218.478384 L134.435615,218.478384 L134.435615,224.359066 L134.925672,224.359066 C135.807779,222.447835 137.147254,220.908255 138.944138,219.740281 C140.741022,218.572306 143.060601,217.988328 145.902945,217.988328 C148.451253,217.988328 150.680989,218.506966 152.59222,219.544258 C154.503451,220.58155 155.989942,222.149716 157.051737,224.248804 C158.113532,226.347891 158.644422,228.998255 158.644422,232.199975 L158.644422,256.114748 L152.861752,256.114748 L152.861752,232.592021 C152.861752,229.63533 152.094004,227.328002 150.558485,225.669968 C149.022965,224.011934 146.915742,223.18293 144.236752,223.18293 C142.390862,223.18293 140.745104,223.583139 139.299429,224.383569 C137.853754,225.183999 136.714384,226.351956 135.881283,227.887475 C135.048182,229.422994 134.631638,231.285192 134.631638,233.474123 Z M1.96022727,271.93293 L9.21306818,271.93293 L26.2670455,313.587759 L26.8551136,313.587759 L43.9090909,271.93293 L51.1619318,271.93293 L51.1619318,322.114748 L45.4772727,322.114748 L45.4772727,283.988328 L44.9872159,283.988328 L29.3053977,322.114748 L23.8167614,322.114748 L8.13494318,283.988328 L7.64488636,283.988328 L7.64488636,322.114748 L1.96022727,322.114748 L1.96022727,271.93293 Z M75.4567581,322.898839 C72.0590138,322.898839 69.0819484,322.090253 66.5254726,320.473058 C63.9689967,318.855862 61.9761189,316.593456 60.5467794,313.685771 C59.1174399,310.778086 58.4027808,307.380393 58.4027808,303.492589 C58.4027808,299.572115 59.1174399,296.149919 60.5467794,293.225899 C61.9761189,290.301878 63.9689967,288.031305 66.5254726,286.414109 C69.0819484,284.796913 72.0590138,283.988328 75.4567581,283.988328 C78.8545024,283.988328 81.8315678,284.796913 84.3880436,286.414109 C86.9445195,288.031305 88.9373973,290.301878 90.3667368,293.225899 C91.7960763,296.149919 92.5107354,299.572115 92.5107354,303.492589 C92.5107354,307.380393 91.7960763,310.778086 90.3667368,313.685771 C88.9373973,316.593456 86.9445195,318.855862 84.3880436,320.473058 C81.8315678,322.090253 78.8545024,322.898839 75.4567581,322.898839 Z M75.4567581,317.704237 C78.0377369,317.704237 80.1612952,317.042667 81.8274967,315.719507 C83.4936982,314.396347 84.7269956,312.656662 85.5274257,310.500402 C86.3278559,308.344141 86.7280649,306.008227 86.7280649,303.492589 C86.7280649,300.976951 86.3278559,298.63287 85.5274257,296.460274 C84.7269956,294.287678 83.4936982,292.531658 81.8274967,291.192163 C80.1612952,289.852668 78.0377369,289.18293 75.4567581,289.18293 C72.8757793,289.18293 70.752221,289.852668 69.0860195,291.192163 C67.4198179,292.531658 66.1865206,294.287678 65.3860905,296.460274 C64.5856603,298.63287 64.1854513,300.976951 64.1854513,303.492589 C64.1854513,306.008227 64.5856603,308.344141 65.3860905,310.500402 C66.1865206,312.656662 67.4198179,314.396347 69.0860195,315.719507 C70.752221,317.042667 72.8757793,317.704237 75.4567581,317.704237 Z M104.750164,299.474123 L104.750164,322.114748 L98.9674935,322.114748 L98.9674935,284.478384 L104.554141,284.478384 L104.554141,290.359066 L105.044198,290.359066 C105.926305,288.447835 107.26578,286.908255 109.062664,285.740281 C110.859548,284.572306 113.179127,283.988328 116.021471,283.988328 C118.569779,283.988328 120.799515,284.506966 122.710746,285.544258 C124.621977,286.58155 126.108468,288.149716 127.170263,290.248804 C128.232058,292.347891 128.762948,294.998255 128.762948,298.199975 L128.762948,322.114748 L122.980278,322.114748 L122.980278,298.592021 C122.980278,295.63533 122.21253,293.328002 120.677011,291.669968 C119.141491,290.011934 117.034268,289.18293 114.355278,289.18293 C112.509388,289.18293 110.86363,289.583139 109.417955,290.383569 C107.97228,291.183999 106.83291,292.351956 105.999809,293.887475 C105.166708,295.422994 104.750164,297.285192 104.750164,299.474123 Z M152.273683,322.898839 C148.875939,322.898839 145.898874,322.090253 143.342398,320.473058 C140.785922,318.855862 138.793044,316.593456 137.363705,313.685771 C135.934365,310.778086 135.219706,307.380393 135.219706,303.492589 C135.219706,299.572115 135.934365,296.149919 137.363705,293.225899 C138.793044,290.301878 140.785922,288.031305 143.342398,286.414109 C145.898874,284.796913 148.875939,283.988328 152.273683,283.988328 C155.671428,283.988328 158.648493,284.796913 161.204969,286.414109 C163.761445,288.031305 165.754323,290.301878 167.183662,293.225899 C168.613002,296.149919 169.327661,299.572115 169.327661,303.492589 C169.327661,307.380393 168.613002,310.778086 167.183662,313.685771 C165.754323,316.593456 163.761445,318.855862 161.204969,320.473058 C158.648493,322.090253 155.671428,322.898839 152.273683,322.898839 Z M152.273683,317.704237 C154.854662,317.704237 156.978221,317.042667 158.644422,315.719507 C160.310624,314.396347 161.543921,312.656662 162.344351,310.500402 C163.144781,308.344141 163.54499,306.008227 163.54499,303.492589 C163.54499,300.976951 163.144781,298.63287 162.344351,296.460274 C161.543921,294.287678 160.310624,292.531658 158.644422,291.192163 C156.978221,289.852668 154.854662,289.18293 152.273683,289.18293 C149.692705,289.18293 147.569146,289.852668 145.902945,291.192163 C144.236743,292.531658 143.003446,294.287678 142.203016,296.460274 C141.402586,298.63287 141.002377,300.976951 141.002377,303.492589 C141.002377,306.008227 141.402586,308.344141 142.203016,310.500402 C143.003446,312.656662 144.236743,314.396347 145.902945,315.719507 C147.569146,317.042667 149.692705,317.704237 152.273683,317.704237 Z M190.97618,337.012475 C188.182842,337.012475 185.781588,336.657188 183.772345,335.946602 C181.763102,335.236016 180.092842,334.304917 178.761514,333.153278 C177.430186,332.001639 176.372491,330.772425 175.588396,329.4656 L180.19493,326.231225 C180.71766,326.917308 181.37923,327.705475 182.17966,328.59575 C182.98009,329.486024 184.078623,330.261939 185.475292,330.923519 C186.871961,331.585099 188.705572,331.915884 190.97618,331.915884 C194.014548,331.915884 196.52198,331.180807 198.498552,329.710629 C200.475125,328.240451 201.463396,325.937207 201.463396,322.800828 L201.463396,315.155941 L200.973339,315.155941 C200.548621,315.842024 199.948308,316.687364 199.17238,317.691985 C198.396453,318.696607 197.285669,319.586868 195.839994,320.362795 C194.394319,321.138722 192.446363,321.52668 189.996066,321.52668 C186.957699,321.52668 184.233827,320.807937 181.824369,319.37043 C179.414911,317.932923 177.511876,315.842035 176.115207,313.097703 C174.718538,310.353371 174.020214,307.021018 174.020214,303.100544 C174.020214,299.245411 174.698119,295.884471 176.05395,293.017625 C177.409781,290.150778 179.296481,287.929209 181.714106,286.352852 C184.131732,284.776495 186.925028,283.988328 190.094078,283.988328 C192.544374,283.988328 194.492331,284.39262 195.938005,285.201218 C197.38368,286.009816 198.494465,286.92458 199.270392,287.945536 C200.046319,288.966493 200.646633,289.803665 201.071351,290.457078 L201.659419,290.457078 L201.659419,284.478384 L207.246066,284.478384 L207.246066,323.192873 C207.246066,326.427264 206.515072,329.061293 205.053062,331.095039 C203.591052,333.128785 201.630844,334.623444 199.17238,335.579059 C196.713916,336.534675 193.981877,337.012475 190.97618,337.012475 Z M190.780157,316.332078 C193.099771,316.332078 195.059979,315.801188 196.660839,314.739393 C198.261699,313.677598 199.478662,312.150269 200.311763,310.157362 C201.144863,308.164454 201.561407,305.779535 201.561407,303.002532 C201.561407,300.290871 201.153031,297.897784 200.336265,295.8232 C199.5195,293.748616 198.310705,292.123277 196.709845,290.947134 C195.108985,289.770992 193.132442,289.18293 190.780157,289.18293 C188.329861,289.18293 186.292062,289.803662 184.666699,291.045146 C183.041335,292.286629 181.824373,293.952806 181.015775,296.043725 C180.207177,298.134645 179.802885,300.454224 179.802885,303.002532 C179.802885,305.616182 180.215345,307.923509 181.040278,309.924585 C181.865211,311.92566 183.090341,313.493826 184.715704,314.62913 C186.341068,315.764434 188.362532,316.332078 190.780157,316.332078 Z M215.467029,322.114748 L215.467029,284.478384 L221.053677,284.478384 L221.053677,290.163044 L221.445722,290.163044 C222.131805,288.300818 223.37327,286.789825 225.170154,285.630018 C226.967029,284.470211 228.992586,283.890316 231.246859,283.890316 C231.671577,283.890316 232.202466,283.898484 232.839543,283.914819 C233.47662,283.931154 233.958505,283.955657 234.285211,283.988328 L234.285211,289.869009 C234.089187,289.820004 233.644057,289.742412 232.949806,289.636232 C232.255555,289.530053 231.524561,289.476964 230.756802,289.476964 C228.927247,289.476964 227.297825,289.856754 225.868485,290.616346 C224.439146,291.375938 223.312026,292.421382 222.487093,293.75271 C221.66216,295.084037 221.2497,296.599115 221.2497,298.297987 L221.2497,322.114748 L215.467029,322.114748 Z M249.857026,322.99685 C247.472071,322.99685 245.307675,322.543552 243.363773,321.636943 C241.419871,320.730333 239.876208,319.41536 238.732736,317.691985 C237.589264,315.96861 237.017537,313.881806 237.017537,311.431509 C237.017537,309.275249 237.442249,307.523313 238.291685,306.17565 C239.141121,304.827987 240.276408,303.770292 241.69758,303.002532 C243.118752,302.234773 244.691002,301.658962 246.414377,301.275082 C248.137752,300.891202 249.873352,300.58492 251.62123,300.356225 C253.908174,300.06219 255.766287,299.837583 257.195627,299.682397 C258.624966,299.527212 259.67041,299.261767 260.33199,298.886055 C260.99357,298.510343 261.324355,297.85694 261.324355,296.925828 L261.324355,296.729805 C261.324355,294.312179 260.666869,292.433647 259.351877,291.094152 C258.036884,289.754656 256.04809,289.084919 253.385435,289.084919 C250.624768,289.084919 248.460372,289.689316 246.892182,290.898129 C245.323992,292.106942 244.221376,293.397412 243.584299,294.769578 L238.095662,292.80935 C239.075781,290.522407 240.38667,288.737801 242.028368,287.45548 C243.670067,286.173158 245.466924,285.274729 247.418993,284.760167 C249.371063,284.245605 251.294516,283.988328 253.189412,283.988328 C254.398225,283.988328 255.790789,284.131259 257.367147,284.417127 C258.943504,284.702995 260.470832,285.286974 261.949178,286.169081 C263.427523,287.051187 264.656737,288.382495 265.636855,290.163044 C266.616974,291.943592 267.107026,294.328512 267.107026,297.317873 L267.107026,322.114748 L261.324355,322.114748 L261.324355,317.018157 L261.030321,317.018157 C260.638274,317.834923 259.984871,318.708849 259.070094,319.639961 C258.155317,320.571074 256.938354,321.363324 255.419171,322.016737 C253.899987,322.670149 252.045957,322.99685 249.857026,322.99685 Z M250.739128,317.802248 C253.026071,317.802248 254.957693,317.353034 256.53405,316.454592 C258.110407,315.55615 259.302867,314.39636 260.111465,312.975188 C260.920063,311.554017 261.324355,310.059358 261.324355,308.491169 L261.324355,303.198555 C261.079326,303.492591 260.544352,303.758035 259.719419,303.994897 C258.894486,304.231759 257.947053,304.435948 256.87709,304.607468 C255.807127,304.778989 254.76985,304.926005 253.765229,305.048519 C252.760607,305.171034 251.947938,305.273128 251.327196,305.354805 C249.824348,305.550829 248.423616,305.865279 247.124959,306.298164 C245.826302,306.73105 244.780858,307.376285 243.988595,308.233889 C243.196333,309.091492 242.800208,310.255366 242.800208,311.725544 C242.800208,313.734787 243.547537,315.249864 245.042218,316.270821 C246.536898,317.291777 248.43585,317.802248 250.739128,317.802248 Z M275.327989,336.228384 L275.327989,284.478384 L280.914636,284.478384 L280.914636,290.457078 L281.600716,290.457078 C282.025434,289.803665 282.61758,288.966493 283.377172,287.945536 C284.136764,286.92458 285.231213,286.009816 286.660552,285.201218 C288.089892,284.39262 290.029681,283.988328 292.479977,283.988328 C295.649027,283.988328 298.442323,284.780578 300.859949,286.365103 C303.277574,287.949628 305.164274,290.195699 306.520105,293.103384 C307.875936,296.011069 308.553841,299.441433 308.553841,303.394578 C308.553841,307.380393 307.875936,310.831175 306.520105,313.747028 C305.164274,316.662881 303.285742,318.917119 300.884452,320.509812 C298.483161,322.102505 295.714368,322.898839 292.577989,322.898839 C290.160363,322.898839 288.224658,322.494546 286.770815,321.685948 C285.316973,320.877351 284.198021,319.95442 283.413926,318.917127 C282.629831,317.879835 282.025434,317.018161 281.600716,316.332078 L281.110659,316.332078 L281.110659,336.228384 L275.327989,336.228384 Z M281.012648,303.296566 C281.012648,306.13891 281.429192,308.642259 282.262292,310.806687 C283.095393,312.971115 284.312356,314.661795 285.913216,315.878775 C287.514076,317.095756 289.474284,317.704237 291.793898,317.704237 C294.211523,317.704237 296.232987,317.063085 297.858351,315.780764 C299.483714,314.498442 300.708844,312.766925 301.533777,310.586161 C302.35871,308.405398 302.77117,305.975557 302.77117,303.296566 C302.77117,300.650246 302.366877,298.261243 301.55828,296.129485 C300.749682,293.997728 299.53272,292.307048 297.907356,291.057397 C296.281993,289.807746 294.244194,289.18293 291.793898,289.18293 C289.441613,289.18293 287.46507,289.775076 285.86421,290.959386 C284.26335,292.143696 283.054555,293.793537 282.23779,295.90896 C281.421024,298.024382 281.012648,300.486893 281.012648,303.296566 Z M320.793269,299.474123 L320.793269,322.114748 L315.010599,322.114748 L315.010599,271.93293 L320.793269,271.93293 L320.793269,290.359066 L321.283326,290.359066 C322.165433,288.415165 323.492657,286.867417 325.265038,285.715778 C327.037419,284.564139 329.401919,283.988328 332.35861,283.988328 C334.923254,283.988328 337.169325,284.498798 339.096891,285.519755 C341.024458,286.540712 342.5232,288.100711 343.593163,290.199798 C344.663126,292.298885 345.198099,294.965584 345.198099,298.199975 L345.198099,322.114748 L339.415428,322.114748 L339.415428,298.592021 C339.415428,295.602659 338.643597,293.287164 337.09991,291.645465 C335.556223,290.003767 333.420414,289.18293 330.692417,289.18293 C328.797521,289.18293 327.102758,289.583139 325.608078,290.383569 C324.113397,291.183999 322.937272,292.351956 322.079668,293.887475 C321.222065,295.422994 320.793269,297.285192 320.793269,299.474123 Z M8.03693182,364.395998 L18.8181818,364.395998 C21.5135078,364.395998 23.6779038,363.930449 25.3114347,362.999336 C26.9449656,362.068224 28.1333415,360.80634 28.876598,359.213647 C29.6198546,357.620955 29.9914773,355.820014 29.9914773,353.810771 C29.9914773,351.801528 29.6198546,350.004671 28.876598,348.420146 C28.1333415,346.835621 26.936798,345.590072 25.2869318,344.683463 C23.6370656,343.776853 21.448167,343.323555 18.7201705,343.323555 L8.03693182,343.323555 L8.03693182,364.395998 L8.03693182,364.395998 Z M8.03693182,369.786623 L8.03693182,388.114748 L1.96022727,388.114748 L1.96022727,337.93293 L18.9161932,337.93293 C22.8530026,337.93293 26.075094,338.639421 28.5825639,340.052426 C31.0900338,341.46543 32.9481474,343.372549 34.1569602,345.773839 C35.3657731,348.175129 35.9701705,350.85408 35.9701705,353.810771 C35.9701705,356.767462 35.3698569,359.45458 34.1692116,361.872206 C32.9685664,364.289831 31.1186205,366.213285 28.6193182,367.642625 C26.1200159,369.071964 22.9183434,369.786623 19.0142045,369.786623 L8.03693182,369.786623 L8.03693182,369.786623 Z M42.6229513,388.114748 L42.6229513,350.478384 L48.209599,350.478384 L48.209599,356.163044 L48.6016445,356.163044 C49.2877274,354.300818 50.5291923,352.789825 52.3260763,351.630018 C54.1229513,350.470211 56.1485082,349.890316 58.4027808,349.890316 C58.8274989,349.890316 59.3583884,349.898484 59.9954655,349.914819 C60.6325425,349.931154 61.1144269,349.955657 61.4411331,349.988328 L61.4411331,355.869009 C61.2451094,355.820004 60.7999789,355.742412 60.1057283,355.636232 C59.4114776,355.530053 58.6804835,355.476964 57.912724,355.476964 C56.0831694,355.476964 54.4537468,355.856754 53.0244072,356.616346 C51.5950677,357.375938 50.4679483,358.421382 49.6430152,359.75271 C48.8180821,361.084037 48.4056217,362.599115 48.4056217,364.297987 L48.4056217,388.114748 L42.6229513,388.114748 Z M68.8075593,366.258214 L90.2444821,366.258214 C90.2444821,364.134624 89.8238542,362.239756 88.9825858,360.573555 C88.1413174,358.907353 86.9488577,357.592381 85.405171,356.628598 C83.8614843,355.664814 82.0442085,355.18293 79.9532889,355.18293 C77.6500104,355.18293 75.6612163,355.750573 73.9868472,356.885877 C72.312478,358.021181 71.0260917,359.495421 70.1276497,361.30864 C69.3577032,362.862532 68.9176759,364.512378 68.8075593,366.258214 L68.8075593,366.258214 Z M68.7928954,371.256794 C68.8764917,373.76004 69.366328,375.90402 70.2624153,377.688789 C71.2507015,379.657194 72.6269307,381.151852 74.391144,382.172809 C76.1553574,383.193766 78.2054079,383.704237 80.5413571,383.704237 C82.0605408,383.704237 83.43677,383.487797 84.6700858,383.054911 C85.9034016,382.622026 86.9692645,381.968623 87.8677065,381.094684 C88.7661485,380.220745 89.4603887,379.13038 89.950448,377.823555 L95.5370957,379.391737 C94.9490246,381.286633 93.9607533,382.948725 92.572252,384.378065 C91.1837507,385.807404 89.468569,386.918189 87.4266554,387.710451 C85.3847418,388.502714 83.0896653,388.898839 80.5413571,388.898839 C76.9149185,388.898839 73.7908375,388.094337 71.1690205,386.485309 C68.5472034,384.876281 66.529823,382.622042 65.1168188,379.722525 C63.7038145,376.823008 62.997323,373.445733 62.997323,369.5906 C62.997323,365.735467 63.7038145,362.33369 65.1168188,359.385167 C66.529823,356.436644 68.5063657,354.1334 71.0465063,352.475366 C73.5866468,350.817332 76.5555447,349.988328 79.9532889,349.988328 C81.913526,349.988328 83.8492311,350.315029 85.7604622,350.968441 C87.6716934,351.621854 89.4113777,352.679549 90.9795673,354.141559 C92.547757,355.603569 93.7973894,357.535191 94.728502,359.936481 C95.6596146,362.337771 96.1251639,365.294418 96.1251639,368.806509 L96.1251639,371.256794 L68.7928954,371.256794 L68.7928954,371.256794 Z M129.241013,358.907362 L124.046411,360.377532 C123.719704,359.511761 123.241904,358.666421 122.612994,357.841488 C121.984085,357.016555 121.130578,356.334566 120.052448,355.795501 C118.974317,355.256436 117.594004,354.986907 115.911467,354.986907 C113.608189,354.986907 111.692903,355.513713 110.165551,356.56734 C108.6382,357.620968 107.874536,358.956359 107.874536,360.573555 C107.874536,362.011062 108.397258,363.146349 109.442717,363.97945 C110.488177,364.812551 112.121684,365.506791 114.343286,366.062191 L119.929933,367.43435 C123.295007,368.251116 125.802439,369.496664 127.452306,371.171034 C129.102172,372.845403 129.927092,374.997547 129.927092,377.627532 C129.927092,379.783793 129.310444,381.711331 128.077128,383.410203 C126.843812,385.109075 125.124547,386.44855 122.91928,387.428669 C120.714013,388.408787 118.149408,388.898839 115.225388,388.898839 C111.38659,388.898839 108.20942,388.065751 105.693783,386.399549 C103.178145,384.733348 101.585477,382.299423 100.915729,379.097703 L106.404365,377.725544 C106.927095,379.751122 107.91945,381.270283 109.38146,382.283072 C110.843471,383.295861 112.758757,383.802248 115.127377,383.802248 C117.822703,383.802248 119.96668,383.226437 121.559372,382.074798 C123.152065,380.923159 123.948399,379.538762 123.948399,377.921566 C123.948399,376.614742 123.491018,375.516209 122.57624,374.625934 C121.661463,373.73566 120.256647,373.070006 118.361752,372.628953 L112.089024,371.158782 C108.642274,370.342017 106.114423,369.071966 104.505395,367.34859 C102.896367,365.625215 102.091865,363.464903 102.091865,360.867589 C102.091865,358.743999 102.692179,356.865467 103.892824,355.231936 C105.093469,353.598405 106.735143,352.316102 108.817895,351.38499 C110.900647,350.453877 113.265147,349.988328 115.911467,349.988328 C119.635918,349.988328 122.563978,350.805081 124.695736,352.438612 C126.827494,354.072143 128.342571,356.228371 129.241013,358.907362 Z M162.94493,358.907362 L157.750328,360.377532 C157.423622,359.511761 156.945821,358.666421 156.316912,357.841488 C155.688002,357.016555 154.834495,356.334566 153.756365,355.795501 C152.678234,355.256436 151.297921,354.986907 149.615385,354.986907 C147.312106,354.986907 145.39682,355.513713 143.869468,356.56734 C142.342117,357.620968 141.578453,358.956359 141.578453,360.573555 C141.578453,362.011062 142.101175,363.146349 143.146635,363.97945 C144.192094,364.812551 145.825601,365.506791 148.047203,366.062191 L153.633851,367.43435 C156.998924,368.251116 159.506357,369.496664 161.156223,371.171034 C162.806089,372.845403 163.63101,374.997547 163.63101,377.627532 C163.63101,379.783793 163.014361,381.711331 161.781045,383.410203 C160.547729,385.109075 158.828464,386.44855 156.623197,387.428669 C154.41793,388.408787 151.853325,388.898839 148.929305,388.898839 C145.090508,388.898839 141.913338,388.065751 139.3977,386.399549 C136.882062,384.733348 135.289394,382.299423 134.619646,379.097703 L140.108282,377.725544 C140.631012,379.751122 141.623367,381.270283 143.085378,382.283072 C144.547388,383.295861 146.462674,383.802248 148.831294,383.802248 C151.52662,383.802248 153.670597,383.226437 155.263289,382.074798 C156.855982,380.923159 157.652316,379.538762 157.652316,377.921566 C157.652316,376.614742 157.194935,375.516209 156.280157,374.625934 C155.36538,373.73566 153.960565,373.070006 152.065669,372.628953 L145.792941,371.158782 C142.346191,370.342017 139.81834,369.071966 138.209312,367.34859 C136.600284,365.625215 135.795782,363.464903 135.795782,360.867589 C135.795782,358.743999 136.396096,356.865467 137.596741,355.231936 C138.797386,353.598405 140.43906,352.316102 142.521812,351.38499 C144.604564,350.453877 146.969065,349.988328 149.615385,349.988328 C153.339835,349.988328 156.267895,350.805081 158.399653,352.438612 C160.531411,354.072143 162.046488,356.228371 162.94493,358.907362 Z" id="OpenMonographPress"></path>
            </g>
        </g>
    </g>
</svg>
