<?xml version="1.0" encoding="UTF-8"?>
<svg width="287px" height="403px" viewBox="0 0 287 403" version="1.1" xmlns="http://www.w3.org/2000/svg" xmlns:xlink="http://www.w3.org/1999/xlink">
    <title>vertical-ojs</title>
    <desc>An official PKP logotype.</desc>
    <g id="Final" stroke="none" stroke-width="1" fill="none" fill-rule="evenodd">
        <g id="Artboard-Copy" transform="translate(-600.000000, -1099.000000)" fill="#000000" fill-rule="nonzero">
            <g id="vertical-ojs" transform="translate(600.000000, 1099.000000)">
                <path d="M75.8183673,153.2 C22.2765306,153.2 6.82121026e-13,111.578061 6.82121026e-13,76.4045918 C6.82121026e-13,44.7484694 23.0581633,8.52651283e-14 76.9908163,8.52651283e-14 C120.957653,8.52651283e-14 153.786224,27.7479592 153.786224,73.2780612 C153.786224,117.04949 122.911735,153.2 75.8183673,153.2 Z M81.0943878,145.77449 C98.6811224,145.77449 135.027041,135.613265 135.027041,78.7494898 C135.027041,31.8515306 106.497449,6.64387755 75.6229592,6.64387755 C42.9897959,6.64387755 18.5637755,28.1387755 18.5637755,70.9331633 C18.5637755,116.463265 45.9209184,145.77449 81.0943878,145.77449 Z M190.855153,59.4040816 L190.855153,106.302041 C190.855153,137.958163 190.855153,150.073469 184.992908,163.947449 C180.889337,173.717857 172.291378,182.902041 156.463316,193.844898 C153.92301,195.603571 150.79648,197.753061 148.842398,198.730102 C148.451582,198.92551 148.060765,199.120918 147.474541,199.120918 C146.888316,199.120918 146.106684,198.730102 146.106684,197.948469 C146.106684,196.77602 147.083724,196.189796 148.842398,195.017347 C151.187296,193.64949 153.92301,191.304592 155.681684,189.545918 C168.383214,176.64898 174.440867,166.292347 174.440867,115.877041 L174.440867,59.4040816 C174.440867,28.9204082 174.440867,23.4489796 174.050051,17.1959184 C173.659235,10.5520408 172.095969,7.4255102 165.6475,6.05765306 C164.084235,5.66683673 161.34852,5.47142857 159.589847,5.47142857 C158.22199,5.47142857 157.440357,4.88520408 157.440357,4.10357143 C157.440357,3.32193878 158.22199,2.73571429 160.37148,2.73571429 C169.164847,2.73571429 181.670969,3.32193878 182.64801,3.32193878 C183.625051,3.32193878 195.935765,2.73571429 201.79801,2.73571429 C203.9475,2.73571429 204.924541,3.12653061 204.924541,4.29897959 C204.924541,5.08061224 203.9475,5.47142857 202.775051,5.47142857 C201.407194,5.47142857 199.843929,5.66683673 198.085255,5.8622449 C192.809235,6.44846939 191.636786,10.3566327 191.245969,17.1959184 C190.855153,23.4489796 190.855153,28.9204082 190.855153,59.4040816 Z M240.430204,153.2 C231.24602,153.2 222.257245,151.832143 214.24551,147.92398 C211.509796,146.556122 211.314388,145.77449 211.314388,140.498469 C211.314388,130.728061 212.09602,122.911735 212.291429,119.785204 C212.486837,117.635714 212.877653,116.658673 213.854694,116.658673 C215.027143,116.658673 215.222551,117.244898 215.222551,118.808163 C215.222551,120.566837 215.222551,123.302551 215.808776,126.038265 C218.739898,140.498469 231.636837,145.969898 244.729184,145.969898 C263.488367,145.969898 272.672551,132.486735 272.672551,119.980612 C272.672551,106.497449 267.005714,98.6811224 250.200612,84.8071429 L241.407245,77.5770408 C220.69398,60.5765306 216.004184,48.4612245 216.004184,35.1734694 C216.004184,14.2647959 231.636837,-2.84217094e-13 256.453673,-2.84217094e-13 C264.074592,-2.84217094e-13 269.741429,0.781632653 274.626633,1.95408163 C278.339388,2.73571429 279.902653,2.93112245 281.465918,2.93112245 C283.029184,2.93112245 283.42,3.32193878 283.42,4.29897959 C283.42,5.27602041 282.638367,11.7244898 282.638367,25.0122449 C282.638367,28.1387755 282.247551,29.5066327 281.27051,29.5066327 C280.098061,29.5066327 279.902653,28.5295918 279.707245,26.9663265 C279.511837,24.6214286 278.339388,19.3454082 277.166939,17.1959184 C275.99449,15.0464286 270.718469,6.83928571 252.740918,6.83928571 C239.257755,6.83928571 228.705714,15.2418367 228.705714,29.5066327 C228.705714,40.644898 233.786327,47.6795918 252.54551,62.3352041 L258.016939,66.6341837 C281.075102,84.8071429 286.546531,96.922449 286.546531,112.555102 C286.546531,120.566837 283.42,135.417857 269.936837,144.992857 C261.534286,150.855102 250.982245,153.2 240.430204,153.2 Z" id="OJS"></path>
                <path d="M48.4176136,231.023839 C48.4176136,236.316479 47.4620124,240.890297 45.5507813,244.74543 C43.6395501,248.600563 41.0177723,251.573544 37.6853693,253.664464 C34.3529663,255.755384 30.5468964,256.800828 26.2670455,256.800828 C21.9871945,256.800828 18.1811246,255.755384 14.8487216,253.664464 C11.5163186,251.573544 8.89454081,248.600563 6.98330966,244.74543 C5.07207851,240.890297 4.11647727,236.316479 4.11647727,231.023839 C4.11647727,225.731199 5.07207851,221.157381 6.98330966,217.302248 C8.89454081,213.447115 11.5163186,210.474134 14.8487216,208.383214 C18.1811246,206.292294 21.9871945,205.24685 26.2670455,205.24685 C30.5468964,205.24685 34.3529663,206.292294 37.6853693,208.383214 C41.0177723,210.474134 43.6395501,213.447115 45.5507813,217.302248 C47.4620124,221.157381 48.4176136,225.731199 48.4176136,231.023839 Z M42.5369318,231.023839 C42.5369318,226.678647 41.8141052,223.011425 40.3684304,220.022063 C38.9227556,217.032702 36.9707154,214.770296 34.5122514,213.234777 C32.0537874,211.699257 29.3054129,210.931509 26.2670455,210.931509 C23.228678,210.931509 20.4803035,211.699257 18.0218395,213.234777 C15.5633755,214.770296 13.6113354,217.032702 12.1656605,220.022063 C10.7199857,223.011425 9.99715909,226.678647 9.99715909,231.023839 C9.99715909,235.369031 10.7199857,239.036253 12.1656605,242.025615 C13.6113354,245.014976 15.5633755,247.277382 18.0218395,248.812902 C20.4803035,250.348421 23.228678,251.116169 26.2670455,251.116169 C29.3054129,251.116169 32.0537874,250.348421 34.5122514,248.812902 C36.9707154,247.277382 38.9227556,245.014976 40.3684304,242.025615 C41.8141052,239.036253 42.5369318,235.369031 42.5369318,231.023839 Z M55.4624399,270.228384 L55.4624399,218.478384 L61.0490876,218.478384 L61.0490876,224.457078 L61.7351672,224.457078 C62.1598852,223.803665 62.7520313,222.966493 63.5116232,221.945536 C64.271215,220.92458 65.3656643,220.009816 66.7950038,219.201218 C68.2243434,218.39262 70.1641322,217.988328 72.6144286,217.988328 C75.7834785,217.988328 78.5767744,218.780578 80.9944001,220.365103 C83.4120259,221.949628 85.2987258,224.195699 86.6545564,227.103384 C88.010387,230.011069 88.6882922,233.441433 88.6882922,237.394578 C88.6882922,241.380393 88.010387,244.831175 86.6545564,247.747028 C85.2987258,250.662881 83.4201934,252.917119 81.018903,254.509812 C78.6176126,256.102505 75.8488192,256.898839 72.7124399,256.898839 C70.2948142,256.898839 68.3591091,256.494546 66.9052666,255.685948 C65.4514241,254.877351 64.3324722,253.95442 63.5483774,252.917127 C62.7642826,251.879835 62.1598852,251.018161 61.7351672,250.332078 L61.2451104,250.332078 L61.2451104,270.228384 L55.4624399,270.228384 Z M61.147099,237.296566 C61.147099,240.13891 61.5636431,242.642259 62.3967439,244.806687 C63.2298447,246.971115 64.4468069,248.661795 66.0476672,249.878775 C67.6485275,251.095756 69.6087351,251.704237 71.928349,251.704237 C74.3459747,251.704237 76.3674389,251.063085 77.9928021,249.780764 C79.6181654,248.498442 80.8432952,246.766925 81.6682283,244.586161 C82.4931614,242.405398 82.9056217,239.975557 82.9056217,237.296566 C82.9056217,234.650246 82.5013289,232.261243 81.6927311,230.129485 C80.8841333,227.997728 79.6671711,226.307048 78.0418078,225.057397 C76.4164446,223.807746 74.3786454,223.18293 71.928349,223.18293 C69.5760645,223.18293 67.5995218,223.775076 65.9986615,224.959386 C64.3978012,226.143696 63.1890065,227.793537 62.3722411,229.90896 C61.5554756,232.024382 61.147099,234.486893 61.147099,237.296566 Z M99.191082,234.258214 L120.628005,234.258214 C120.628005,232.134624 120.207377,230.239756 119.366109,228.573555 C118.52484,226.907353 117.33238,225.592381 115.788694,224.628598 C114.245007,223.664814 112.427731,223.18293 110.336812,223.18293 C108.033533,223.18293 106.044739,223.750573 104.37037,224.885877 C102.696001,226.021181 101.409614,227.495421 100.511172,229.30864 C99.7412259,230.862532 99.3011986,232.512378 99.191082,234.258214 L99.191082,234.258214 Z M99.1764181,239.256794 C99.2600145,241.76004 99.7498508,243.90402 100.645938,245.688789 C101.634224,247.657194 103.010453,249.151852 104.774667,250.172809 C106.53888,251.193766 108.588931,251.704237 110.92488,251.704237 C112.444064,251.704237 113.820293,251.487797 115.053609,251.054911 C116.286924,250.622026 117.352787,249.968623 118.251229,249.094684 C119.149671,248.220745 119.843911,247.13038 120.333971,245.823555 L125.920618,247.391737 C125.332547,249.286633 124.344276,250.948725 122.955775,252.378065 C121.567273,253.807404 119.852092,254.918189 117.810178,255.710451 C115.768265,256.502714 113.473188,256.898839 110.92488,256.898839 C107.298441,256.898839 104.17436,256.094337 101.552543,254.485309 C98.9307261,252.876281 96.9133457,250.622042 95.5003415,247.722525 C94.0873373,244.823008 93.3808457,241.445733 93.3808457,237.5906 C93.3808457,233.735467 94.0873373,230.33369 95.5003415,227.385167 C96.9133457,224.436644 98.8898884,222.1334 101.430029,220.475366 C103.97017,218.817332 106.939067,217.988328 110.336812,217.988328 C112.297049,217.988328 114.232754,218.315029 116.143985,218.968441 C118.055216,219.621854 119.7949,220.679549 121.36309,222.141559 C122.93128,223.603569 124.180912,225.535191 125.112025,227.936481 C126.043137,230.337771 126.508687,233.294418 126.508687,236.806509 L126.508687,239.256794 L99.1764181,239.256794 L99.1764181,239.256794 Z M138.748115,233.474123 L138.748115,256.114748 L132.965445,256.114748 L132.965445,218.478384 L138.552092,218.478384 L138.552092,224.359066 L139.042149,224.359066 C139.924256,222.447835 141.263731,220.908255 143.060615,219.740281 C144.857499,218.572306 147.177078,217.988328 150.019422,217.988328 C152.56773,217.988328 154.797466,218.506966 156.708698,219.544258 C158.619929,220.58155 160.10642,222.149716 161.168215,224.248804 C162.23001,226.347891 162.760899,228.998255 162.760899,232.199975 L162.760899,256.114748 L156.978229,256.114748 L156.978229,232.592021 C156.978229,229.63533 156.210481,227.328002 154.674962,225.669968 C153.139443,224.011934 151.03222,223.18293 148.353229,223.18293 C146.507339,223.18293 144.861581,223.583139 143.415906,224.383569 C141.970232,225.183999 140.830861,226.351956 139.99776,227.887475 C139.164659,229.422994 138.748115,231.285192 138.748115,233.474123 Z M25.2869318,271.93293 L31.3636364,271.93293 L31.3636364,307.805089 C31.3636364,311.00681 30.7755741,313.726598 29.5994318,315.964535 C28.4232896,318.202472 26.7652806,319.901319 24.6253551,321.061126 C22.4854296,322.220933 19.9616623,322.800828 17.0539773,322.800828 C14.3096454,322.800828 11.8675533,322.298524 9.72762784,321.293903 C7.58770237,320.289281 5.90519078,318.85588 4.68004261,316.993654 C3.45489444,315.131429 2.84232955,312.918028 2.84232955,310.353384 L8.82102273,310.353384 C8.82102273,311.774556 9.17631037,313.011937 9.88689631,314.065565 C10.5974822,315.119192 11.5735023,315.940029 12.8149858,316.5281 C14.0564693,317.116172 15.4694523,317.410203 17.0539773,317.410203 C18.8018553,317.410203 20.2883461,317.042664 21.5134943,316.307575 C22.7386425,315.572486 23.6738249,314.490288 24.3190696,313.060948 C24.9643143,311.631609 25.2869318,309.879673 25.2869318,307.805089 L25.2869318,271.93293 Z M55.6584626,322.898839 C52.2607184,322.898839 49.283653,322.090253 46.7271771,320.473058 C44.1707013,318.855862 42.1778235,316.593456 40.748484,313.685771 C39.3191444,310.778086 38.6044854,307.380393 38.6044854,303.492589 C38.6044854,299.572115 39.3191444,296.149919 40.748484,293.225899 C42.1778235,290.301878 44.1707013,288.031305 46.7271771,286.414109 C49.283653,284.796913 52.2607184,283.988328 55.6584626,283.988328 C59.0562069,283.988328 62.0332723,284.796913 64.5897482,286.414109 C67.146224,288.031305 69.1391018,290.301878 70.5684413,293.225899 C71.9977809,296.149919 72.7124399,299.572115 72.7124399,303.492589 C72.7124399,307.380393 71.9977809,310.778086 70.5684413,313.685771 C69.1391018,316.593456 67.146224,318.855862 64.5897482,320.473058 C62.0332723,322.090253 59.0562069,322.898839 55.6584626,322.898839 Z M55.6584626,317.704237 C58.2394415,317.704237 60.3629998,317.042667 62.0292013,315.719507 C63.6954028,314.396347 64.9287001,312.656662 65.7291303,310.500402 C66.5295604,308.344141 66.9297695,306.008227 66.9297695,303.492589 C66.9297695,300.976951 66.5295604,298.63287 65.7291303,296.460274 C64.9287001,294.287678 63.6954028,292.531658 62.0292013,291.192163 C60.3629998,289.852668 58.2394415,289.18293 55.6584626,289.18293 C53.0774838,289.18293 50.9539255,289.852668 49.287724,291.192163 C47.6215225,292.531658 46.3882252,294.287678 45.587795,296.460274 C44.7873649,298.63287 44.3871558,300.976951 44.3871558,303.492589 C44.3871558,306.008227 44.7873649,308.344141 45.587795,310.500402 C46.3882252,312.656662 47.6215225,314.396347 49.287724,315.719507 C50.9539255,317.042667 53.0774838,317.704237 55.6584626,317.704237 Z M102.887948,306.726964 L102.887948,284.478384 L108.670618,284.478384 L108.670618,322.114748 L102.887948,322.114748 L102.887948,315.744009 L102.495903,315.744009 C101.613796,317.655241 100.241651,319.276496 98.3794253,320.607823 C96.5172001,321.939151 94.1649509,322.604805 91.3226071,322.604805 C88.9703226,322.604805 86.8794344,322.086167 85.0498798,321.048875 C83.2203252,320.011582 81.7828396,318.443416 80.7373798,316.344329 C79.6919201,314.245242 79.169198,311.594878 79.169198,308.393157 L79.169198,284.478384 L84.9518685,284.478384 L84.9518685,308.001112 C84.9518685,310.745444 85.7237002,312.934342 87.2673869,314.567873 C88.8110736,316.201404 90.7835326,317.018157 93.184823,317.018157 C94.6223302,317.018157 96.0884022,316.650618 97.583083,315.915529 C99.0777637,315.18044 100.335564,314.053321 101.35652,312.534137 C102.377477,311.014954 102.887948,309.079249 102.887948,306.726964 Z M116.891581,322.114748 L116.891581,284.478384 L122.478229,284.478384 L122.478229,290.163044 L122.870274,290.163044 C123.556357,288.300818 124.797822,286.789825 126.594706,285.630018 C128.391581,284.470211 130.417138,283.890316 132.671411,283.890316 C133.096129,283.890316 133.627018,283.898484 134.264095,283.914819 C134.901172,283.931154 135.383057,283.955657 135.709763,283.988328 L135.709763,289.869009 C135.513739,289.820004 135.068609,289.742412 134.374358,289.636232 C133.680107,289.530053 132.949113,289.476964 132.181354,289.476964 C130.351799,289.476964 128.722377,289.856754 127.293037,290.616346 C125.863698,291.375938 124.736578,292.421382 123.911645,293.75271 C123.086712,295.084037 122.674252,296.599115 122.674252,298.297987 L122.674252,322.114748 L116.891581,322.114748 Z M145.988964,299.474123 L145.988964,322.114748 L140.206294,322.114748 L140.206294,284.478384 L145.792941,284.478384 L145.792941,290.359066 L146.282998,290.359066 C147.165105,288.447835 148.50458,286.908255 150.301464,285.740281 C152.098348,284.572306 154.417927,283.988328 157.260271,283.988328 C159.808579,283.988328 162.038315,284.506966 163.949547,285.544258 C165.860778,286.58155 167.347269,288.149716 168.409064,290.248804 C169.470859,292.347891 170.001748,294.998255 170.001748,298.199975 L170.001748,322.114748 L164.219078,322.114748 L164.219078,298.592021 C164.219078,295.63533 163.45133,293.328002 161.915811,291.669968 C160.380292,290.011934 158.273069,289.18293 155.594078,289.18293 C153.748188,289.18293 152.10243,289.583139 150.656755,290.383569 C149.211081,291.183999 148.07171,292.351956 147.238609,293.887475 C146.405508,295.422994 145.988964,297.285192 145.988964,299.474123 Z M189.297995,322.99685 C186.91304,322.99685 184.748644,322.543552 182.804742,321.636943 C180.86084,320.730333 179.317177,319.41536 178.173705,317.691985 C177.030234,315.96861 176.458506,313.881806 176.458506,311.431509 C176.458506,309.275249 176.883218,307.523313 177.732654,306.17565 C178.58209,304.827987 179.717377,303.770292 181.138549,303.002532 C182.559721,302.234773 184.131971,301.658962 185.855346,301.275082 C187.578721,300.891202 189.314322,300.58492 191.0622,300.356225 C193.349143,300.06219 195.207256,299.837583 196.636596,299.682397 C198.065935,299.527212 199.11138,299.261767 199.77296,298.886055 C200.43454,298.510343 200.765325,297.85694 200.765325,296.925828 L200.765325,296.729805 C200.765325,294.312179 200.107838,292.433647 198.792846,291.094152 C197.477854,289.754656 195.489059,289.084919 192.826404,289.084919 C190.065737,289.084919 187.901341,289.689316 186.333151,290.898129 C184.764962,292.106942 183.662345,293.397412 183.025268,294.769578 L177.536631,292.80935 C178.51675,290.522407 179.827639,288.737801 181.469337,287.45548 C183.111036,286.173158 184.907893,285.274729 186.859962,284.760167 C188.812032,284.245605 190.735486,283.988328 192.630381,283.988328 C193.839194,283.988328 195.231758,284.131259 196.808116,284.417127 C198.384473,284.702995 199.911802,285.286974 201.390147,286.169081 C202.868492,287.051187 204.097706,288.382495 205.077825,290.163044 C206.057943,291.943592 206.547995,294.328512 206.547995,297.317873 L206.547995,322.114748 L200.765325,322.114748 L200.765325,317.018157 L200.47129,317.018157 C200.079243,317.834923 199.425841,318.708849 198.511063,319.639961 C197.596286,320.571074 196.379324,321.363324 194.86014,322.016737 C193.340956,322.670149 191.486926,322.99685 189.297995,322.99685 Z M190.180097,317.802248 C192.467041,317.802248 194.398662,317.353034 195.975019,316.454592 C197.551377,315.55615 198.743836,314.39636 199.552434,312.975188 C200.361032,311.554017 200.765325,310.059358 200.765325,308.491169 L200.765325,303.198555 C200.520295,303.492591 199.985322,303.758035 199.160389,303.994897 C198.335455,304.231759 197.388022,304.435948 196.318059,304.607468 C195.248096,304.778989 194.21082,304.926005 193.206198,305.048519 C192.201577,305.171034 191.388907,305.273128 190.768165,305.354805 C189.265317,305.550829 187.864585,305.865279 186.565928,306.298164 C185.267271,306.73105 184.221827,307.376285 183.429565,308.233889 C182.637302,309.091492 182.241177,310.255366 182.241177,311.725544 C182.241177,313.734787 182.988506,315.249864 184.483187,316.270821 C185.977868,317.291777 187.876819,317.802248 190.180097,317.802248 Z M220.551628,271.93293 L220.551628,322.114748 L214.768958,322.114748 L214.768958,271.93293 L220.551628,271.93293 Z M33.5198864,350.478384 C33.2258508,347.995418 32.0333911,346.06788 29.9424716,344.695714 C27.851552,343.323548 25.286947,342.637475 22.2485795,342.637475 C20.0269775,342.637475 18.0871887,342.996847 16.4291548,343.7156 C14.771121,344.434354 13.4806509,345.422625 12.557706,346.680444 C11.634761,347.938263 11.1732955,349.367581 11.1732955,350.968441 C11.1732955,352.307937 11.495913,353.455475 12.1411577,354.41109 C12.7864024,355.366706 13.6154069,356.158957 14.628196,356.787866 C15.6409852,357.416775 16.7027643,357.93133 17.8135653,358.331545 C18.9243663,358.73176 19.9453078,359.054378 20.8764205,359.299407 L25.9730114,360.671566 C27.2798361,361.014608 28.7377405,361.488325 30.3467685,362.092731 C31.9557964,362.697138 33.4994599,363.517974 34.9778054,364.555267 C36.4561509,365.592559 37.6771969,366.919783 38.6409801,368.536978 C39.6047633,370.154174 40.0866477,372.138884 40.0866477,374.491169 C40.0866477,377.20283 39.3801562,379.653089 37.967152,381.842021 C36.5541478,384.030952 34.4959297,385.770637 31.7924361,387.061126 C29.0889424,388.351615 25.8096784,388.99685 21.9545455,388.99685 C18.3607775,388.99685 15.2530316,388.416956 12.6312145,387.257149 C10.0093974,386.097342 7.95117935,384.48017 6.45649858,382.405586 C4.96181781,380.331002 4.11647825,377.92158 3.92045455,375.177248 L10.1931818,375.177248 C10.3565349,377.072144 10.9976862,378.636226 12.1166548,379.869542 C13.2356235,381.102858 14.6567741,382.017622 16.3801491,382.61386 C18.1035242,383.210099 19.9616378,383.508214 21.9545455,383.508214 C24.2741593,383.508214 26.35688,383.128424 28.2027699,382.368832 C30.0486598,381.60924 31.510648,380.547461 32.5887784,379.183463 C33.6669088,377.819464 34.2059659,376.222712 34.2059659,374.393157 C34.2059659,372.726956 33.7404166,371.371145 32.809304,370.325686 C31.8781914,369.280226 30.6530616,368.430803 29.1338778,367.77739 C27.6146941,367.123978 25.9730202,366.552251 24.2088068,366.062191 L18.0340909,364.297987 C14.1136168,363.17085 11.0099546,361.561847 8.72301136,359.470927 C6.43606811,357.380008 5.29261364,354.643884 5.29261364,351.262475 C5.29261364,348.452802 6.05627787,345.998459 7.58362926,343.899372 C9.11098065,341.800285 11.1691987,340.166778 13.7583452,338.998804 C16.3474916,337.830829 19.2428817,337.24685 22.4446023,337.24685 C25.6789934,337.24685 28.5539647,337.822661 31.0696023,338.974301 C33.5852399,340.12594 35.5822014,341.69819 37.0605469,343.691098 C38.5388923,345.684005 39.3188916,347.946412 39.4005682,350.478384 L33.5198864,350.478384 Z M50.6598831,402.130373 C49.6797646,402.130373 48.8058386,402.052782 48.0380791,401.897596 C47.2703196,401.742411 46.73943,401.591311 46.4453945,401.444294 L47.9155649,396.347703 C50.0228198,396.886768 51.7788391,396.874517 53.1836757,396.310948 C54.5885123,395.74738 55.8054745,394.060785 56.834599,391.251112 L57.912724,388.310771 L43.9951104,350.478384 L50.2678376,350.478384 L60.6570422,380.469862 L61.0490876,380.469862 L71.4382922,350.478384 L77.7600251,350.576396 L61.7351672,393.603384 C61.0164136,395.514616 60.1261526,397.103201 59.0643575,398.369187 C58.0025624,399.635173 56.7733489,400.578523 55.37668,401.199265 C53.9800111,401.820007 52.4077612,402.130373 50.6598831,402.130373 Z M109.699738,358.907362 L104.505136,360.377532 C104.178429,359.511761 103.700629,358.666421 103.071719,357.841488 C102.44281,357.016555 101.589303,356.334566 100.511172,355.795501 C99.4330421,355.256436 98.0527292,354.986907 96.3701923,354.986907 C94.0669138,354.986907 92.1516275,355.513713 90.6242761,356.56734 C89.0969248,357.620968 88.3332605,358.956359 88.3332605,360.573555 C88.3332605,362.011062 88.8559826,363.146349 89.9014423,363.97945 C90.9469021,364.812551 92.5804085,365.506791 94.8020105,366.062191 L100.388658,367.43435 C103.753732,368.251116 106.261164,369.496664 107.91103,371.171034 C109.560897,372.845403 110.385817,374.997547 110.385817,377.627532 C110.385817,379.783793 109.769169,381.711331 108.535853,383.410203 C107.302537,385.109075 105.583272,386.44855 103.378005,387.428669 C101.172738,388.408787 98.6081331,388.898839 95.6841128,388.898839 C91.8453152,388.898839 88.6681453,388.065751 86.1525077,386.399549 C83.6368701,384.733348 82.0442014,382.299423 81.3744537,379.097703 L86.8630901,377.725544 C87.3858199,379.751122 88.3781751,381.270283 89.8401852,382.283072 C91.3021954,383.295861 93.2174816,383.802248 95.5861014,383.802248 C98.2814274,383.802248 100.425405,383.226437 102.018097,382.074798 C103.61079,380.923159 104.407124,379.538762 104.407124,377.921566 C104.407124,376.614742 103.949742,375.516209 103.034965,374.625934 C102.120188,373.73566 100.715372,373.070006 98.8204764,372.628953 L92.5477492,371.158782 C89.100999,370.342017 86.5731478,369.071966 84.9641199,367.34859 C83.355092,365.625215 82.5505901,363.464903 82.5505901,360.867589 C82.5505901,358.743999 83.1509037,356.865467 84.3515489,355.231936 C85.5521941,353.598405 87.193868,352.316102 89.2766199,351.38499 C91.3593718,350.453877 93.7238723,349.988328 96.3701923,349.988328 C100.094643,349.988328 103.022703,350.805081 105.154461,352.438612 C107.286219,354.072143 108.801296,356.228371 109.699738,358.907362 Z M133.112462,350.478384 L133.112462,355.378953 L113.6082,355.378953 L113.6082,350.478384 L133.112462,350.478384 Z M119.29286,341.461339 L125.07553,341.461339 L125.07553,377.333498 C125.07553,378.967029 125.316472,380.188075 125.798364,380.996673 C126.280255,381.805271 126.900988,382.344328 127.66058,382.61386 C128.420172,382.883393 129.224673,383.018157 130.07411,383.018157 C130.711187,383.018157 131.233909,382.981403 131.642291,382.907894 C132.050674,382.834386 132.377375,382.773129 132.622405,382.724123 L133.798541,387.918725 C133.406494,388.065743 132.859269,388.216843 132.156851,388.372028 C131.454433,388.527213 130.564172,388.604805 129.486041,388.604805 C127.85251,388.604805 126.255758,388.253601 124.695736,387.551183 C123.135714,386.848764 121.845244,385.778818 120.824287,384.341311 C119.80333,382.903803 119.29286,381.090611 119.29286,378.90168 L119.29286,341.461339 Z M143.125195,366.258214 L164.562118,366.258214 C164.562118,364.134624 164.14149,362.239756 163.300221,360.573555 C162.458953,358.907353 161.266493,357.592381 159.722807,356.628598 C158.17912,355.664814 156.361844,355.18293 154.270924,355.18293 C151.967646,355.18293 149.978852,355.750573 148.304483,356.885877 C146.630114,358.021181 145.343727,359.495421 144.445285,361.30864 C143.675339,362.862532 143.235311,364.512378 143.125195,366.258214 L143.125195,366.258214 Z M143.110531,371.256794 C143.194127,373.76004 143.683964,375.90402 144.580051,377.688789 C145.568337,379.657194 146.944566,381.151852 148.70878,382.172809 C150.472993,383.193766 152.523043,383.704237 154.858993,383.704237 C156.378176,383.704237 157.754405,383.487797 158.987721,383.054911 C160.221037,382.622026 161.2869,381.968623 162.185342,381.094684 C163.083784,380.220745 163.778024,379.13038 164.268084,377.823555 L169.854731,379.391737 C169.26666,381.286633 168.278389,382.948725 166.889888,384.378065 C165.501386,385.807404 163.786205,386.918189 161.744291,387.710451 C159.702377,388.502714 157.407301,388.898839 154.858993,388.898839 C151.232554,388.898839 148.108473,388.094337 145.486656,386.485309 C142.864839,384.876281 140.847458,382.622042 139.434454,379.722525 C138.02145,376.823008 137.314959,373.445733 137.314959,369.5906 C137.314959,365.735467 138.02145,362.33369 139.434454,359.385167 C140.847458,356.436644 142.824001,354.1334 145.364142,352.475366 C147.904282,350.817332 150.87318,349.988328 154.270924,349.988328 C156.231162,349.988328 158.166867,350.315029 160.078098,350.968441 C161.989329,351.621854 163.729013,352.679549 165.297203,354.141559 C166.865393,355.603569 168.115025,357.535191 169.046138,359.936481 C169.97725,362.337771 170.442799,365.294418 170.442799,368.806509 L170.442799,371.256794 L143.110531,371.256794 L143.110531,371.256794 Z M176.899558,388.114748 L176.899558,350.478384 L182.486205,350.478384 L182.486205,356.359066 L182.976262,356.359066 C183.760357,354.349823 185.026324,352.785741 186.774202,351.666772 C188.52208,350.547804 190.621136,349.988328 193.071433,349.988328 C195.554399,349.988328 197.624869,350.547804 199.282903,351.666772 C200.940937,352.785741 202.23549,354.349823 203.166603,356.359066 L203.558648,356.359066 C204.522432,354.415165 205.968085,352.867417 207.895651,351.715778 C209.823218,350.564139 212.134629,349.988328 214.829955,349.988328 C218.195029,349.988328 220.947487,351.037856 223.087413,353.136943 C225.227338,355.23603 226.297285,358.498959 226.297285,362.925828 L226.297285,388.114748 L220.514614,388.114748 L220.514614,362.925828 C220.514614,360.148825 219.755034,358.164115 218.23585,356.971637 C216.716666,355.77916 214.927977,355.18293 212.869728,355.18293 C210.223408,355.18293 208.173357,355.979264 206.719515,357.571957 C205.265672,359.16465 204.538762,361.177946 204.538762,363.611907 L204.538762,388.114748 L198.65808,388.114748 L198.65808,362.337759 C198.65808,360.197834 197.96384,358.470401 196.575339,357.155409 C195.186838,355.840416 193.398148,355.18293 191.209217,355.18293 C189.706368,355.18293 188.305636,355.583139 187.006979,356.383569 C185.708322,357.183999 184.662878,358.2907 183.870616,359.703704 C183.078353,361.116708 182.682228,362.746131 182.682228,364.592021 L182.682228,388.114748 L176.899558,388.114748 Z M261.177338,358.907362 L255.982736,360.377532 C255.65603,359.511761 255.178229,358.666421 254.54932,357.841488 C253.920411,357.016555 253.066903,356.334566 251.988773,355.795501 C250.910643,355.256436 249.53033,354.986907 247.847793,354.986907 C245.544514,354.986907 243.629228,355.513713 242.101877,356.56734 C240.574525,357.620968 239.810861,358.956359 239.810861,360.573555 C239.810861,362.011062 240.333583,363.146349 241.379043,363.97945 C242.424503,364.812551 244.058009,365.506791 246.279611,366.062191 L251.866259,367.43435 C255.231332,368.251116 257.738765,369.496664 259.388631,371.171034 C261.038497,372.845403 261.863418,374.997547 261.863418,377.627532 C261.863418,379.783793 261.246769,381.711331 260.013453,383.410203 C258.780138,385.109075 257.060872,386.44855 254.855605,387.428669 C252.650339,388.408787 250.085734,388.898839 247.161713,388.898839 C243.322916,388.898839 240.145746,388.065751 237.630108,386.399549 C235.114471,384.733348 233.521802,382.299423 232.852054,379.097703 L238.340691,377.725544 C238.863421,379.751122 239.855776,381.270283 241.317786,382.283072 C242.779796,383.295861 244.695082,383.802248 247.063702,383.802248 C249.759028,383.802248 251.903005,383.226437 253.495698,382.074798 C255.08839,380.923159 255.884725,379.538762 255.884725,377.921566 C255.884725,376.614742 255.427343,375.516209 254.512566,374.625934 C253.597788,373.73566 252.192973,373.070006 250.298077,372.628953 L244.02535,371.158782 C240.5786,370.342017 238.050748,369.071966 236.44172,367.34859 C234.832693,365.625215 234.028191,363.464903 234.028191,360.867589 C234.028191,358.743999 234.628504,356.865467 235.829149,355.231936 C237.029795,353.598405 238.671469,352.316102 240.75422,351.38499 C242.836972,350.453877 245.201473,349.988328 247.847793,349.988328 C251.572243,349.988328 254.500304,350.805081 256.632061,352.438612 C258.763819,354.072143 260.278896,356.228371 261.177338,358.907362 Z" id="OpenJournalSystems"></path>
            </g>
        </g>
    </g>
</svg>
