<?xml version="1.0" encoding="UTF-8"?>
<svg width="339px" height="403px" viewBox="0 0 339 403" version="1.1" xmlns="http://www.w3.org/2000/svg" xmlns:xlink="http://www.w3.org/1999/xlink">
    <title>vertical-ops</title>
    <desc>An official PKP logotype.</desc>
    <g id="Final" stroke="none" stroke-width="1" fill="none" fill-rule="evenodd">
        <g id="Artboard-Copy" transform="translate(-1023.000000, -1099.000000)" fill="#000000" fill-rule="nonzero">
            <g id="vertical-ops" transform="translate(1023.000000, 1099.000000)">
                <path d="M75.6254453,152.810178 C22.2198473,152.810178 4.54747351e-13,111.294148 4.54747351e-13,76.2101781 C4.54747351e-13,44.6346056 22.9994911,0 76.7949109,0 C120.649873,0 153.394911,27.6773537 153.394911,73.0916031 C153.394911,116.751654 122.598982,152.810178 75.6254453,152.810178 Z M80.8880407,145.403562 C98.4300254,145.403562 134.683461,135.268193 134.683461,78.5491094 C134.683461,31.7704835 106.226463,6.62697201 75.4305344,6.62697201 C42.8804071,6.62697201 18.5165394,28.0671756 18.5165394,70.7526718 C18.5165394,116.166921 45.8040712,145.403562 80.8880407,145.403562 Z M174.985344,93.480916 L174.985344,59.1765903 C174.985344,28.7704835 174.985344,23.3129771 174.595522,17.075827 C174.2057,10.448855 172.646412,7.3302799 166.214351,5.96590331 C164.655064,5.57608142 161.341578,5.38117048 159.587379,5.38117048 C158.807735,5.38117048 158.028092,4.9913486 158.028092,4.21170483 C158.028092,3.04223919 159.002646,2.6524173 161.146667,2.6524173 C169.917659,2.6524173 181.612316,3.23715013 183.171603,3.23715013 C187.459644,3.23715013 198.764478,2.6524173 207.730382,2.6524173 C232.094249,2.6524173 240.865242,10.8386768 243.983817,13.762341 C248.271858,17.8554707 253.729364,26.6264631 253.729364,39.2956743 C253.729364,64.6340967 233.458626,83.3455471 205.781272,83.3455471 C204.806718,83.3455471 202.662697,83.3455471 201.688142,83.1506361 C200.713588,83.1506361 199.544122,82.7608142 199.544122,81.7862595 C199.544122,80.226972 200.713588,80.0320611 204.806718,80.0320611 C223.713079,80.0320611 238.52631,67.1679389 238.52631,46.7022901 C238.52631,41.8295165 237.941578,28.7704835 227.611298,18.2452926 C217.281018,7.72010178 205.39145,8.49974555 200.908499,8.49974555 C197.595013,8.49974555 194.281527,8.88956743 192.527328,9.6692112 C191.357863,10.0590331 190.968041,11.4234097 190.968041,13.3725191 L190.968041,93.480916 C190.968041,112.192366 190.968041,127.590331 191.942595,135.77659 C192.527328,141.429008 193.696794,145.717048 199.544122,146.496692 C202.272875,146.886514 206.560916,147.276336 208.315115,147.276336 C209.48458,147.276336 209.874402,147.861069 209.874402,148.445802 C209.874402,149.420356 208.899847,150.005089 206.755827,150.005089 C196.035725,150.005089 183.756336,149.420356 182.781781,149.420356 C182.197048,149.420356 169.917659,150.005089 164.070331,150.005089 C161.92631,150.005089 160.951756,149.615267 160.951756,148.445802 C160.951756,147.861069 161.341578,147.276336 162.511043,147.276336 C164.265242,147.276336 166.604173,146.886514 168.358372,146.496692 C172.25659,145.717048 173.231145,141.429008 174.010789,135.77659 C174.985344,127.590331 174.985344,112.192366 174.985344,93.480916 Z M292.499745,153.928753 C283.315561,153.928753 274.326786,152.560896 266.315051,148.652733 C263.579337,147.284876 263.383929,146.503243 263.383929,141.227223 C263.383929,131.456814 264.165561,123.640488 264.360969,120.513957 C264.556378,118.364467 264.947194,117.387427 265.924235,117.387427 C267.096684,117.387427 267.292092,117.973651 267.292092,119.536916 C267.292092,121.29559 267.292092,124.031304 267.878316,126.767018 C270.809439,141.227223 283.706378,146.698651 296.798724,146.698651 C315.557908,146.698651 324.742092,133.215488 324.742092,120.709365 C324.742092,107.226202 319.075255,99.4098756 302.270153,85.535896 L293.476786,78.305794 C272.76352,61.3052838 268.073724,49.1899777 268.073724,35.9022226 C268.073724,14.9935491 283.706378,0.728753181 308.523214,0.728753181 C316.144133,0.728753181 321.810969,1.51038583 326.696173,2.68283481 C330.408929,3.46446747 331.972194,3.65987563 333.535459,3.65987563 C335.098724,3.65987563 335.489541,4.05069196 335.489541,5.02773277 C335.489541,6.00477359 334.707908,12.453243 334.707908,25.7409981 C334.707908,28.8675287 334.317092,30.2353858 333.340051,30.2353858 C332.167602,30.2353858 331.972194,29.258345 331.776786,27.6950797 C331.581378,25.3501818 330.408929,20.0741613 329.23648,17.9246715 C328.064031,15.7751818 322.78801,7.56803889 304.810459,7.56803889 C291.327296,7.56803889 280.775255,15.9705899 280.775255,30.2353858 C280.775255,41.3736511 285.855867,48.408345 304.615051,63.0639573 L310.08648,67.3629369 C333.144643,85.535896 338.616071,97.6512022 338.616071,113.283855 C338.616071,121.29559 335.489541,136.14661 322.006378,145.72161 C313.603827,151.583855 303.051786,153.928753 292.499745,153.928753 Z" id="OPS"></path>
                <path d="M44.4971591,231.023839 C44.4971591,236.316479 43.5415579,240.890297 41.6303267,244.74543 C39.7190956,248.600563 37.0973178,251.573544 33.7649148,253.664464 C30.4325117,255.755384 26.6264419,256.800828 22.3465909,256.800828 C18.06674,256.800828 14.2606701,255.755384 10.928267,253.664464 C7.59586402,251.573544 4.97408626,248.600563 3.06285511,244.74543 C1.15162397,240.890297 0.196022727,236.316479 0.196022727,231.023839 C0.196022727,225.731199 1.15162397,221.157381 3.06285511,217.302248 C4.97408626,213.447115 7.59586402,210.474134 10.928267,208.383214 C14.2606701,206.292294 18.06674,205.24685 22.3465909,205.24685 C26.6264419,205.24685 30.4325117,206.292294 33.7649148,208.383214 C37.0973178,210.474134 39.7190956,213.447115 41.6303267,217.302248 C43.5415579,221.157381 44.4971591,225.731199 44.4971591,231.023839 Z M38.6164773,231.023839 C38.6164773,226.678647 37.8936507,223.011425 36.4479759,220.022063 C35.002301,217.032702 33.0502609,214.770296 30.5917969,213.234777 C28.1333329,211.699257 25.3849584,210.931509 22.3465909,210.931509 C19.3082234,210.931509 16.5598489,211.699257 14.1013849,213.234777 C11.6429209,214.770296 9.69088081,217.032702 8.24520597,220.022063 C6.79953112,223.011425 6.07670455,226.678647 6.07670455,231.023839 C6.07670455,235.369031 6.79953112,239.036253 8.24520597,242.025615 C9.69088081,245.014976 11.6429209,247.277382 14.1013849,248.812902 C16.5598489,250.348421 19.3082234,251.116169 22.3465909,251.116169 C25.3849584,251.116169 28.1333329,250.348421 30.5917969,248.812902 C33.0502609,247.277382 35.002301,245.014976 36.4479759,242.025615 C37.8936507,239.036253 38.6164773,235.369031 38.6164773,231.023839 Z M51.5419854,270.228384 L51.5419854,218.478384 L57.1286331,218.478384 L57.1286331,224.457078 L57.8147126,224.457078 C58.2394307,223.803665 58.8315767,222.966493 59.5911686,221.945536 C60.3507605,220.92458 61.4452098,220.009816 62.8745493,219.201218 C64.3038888,218.39262 66.2436777,217.988328 68.693974,217.988328 C71.8630239,217.988328 74.6563199,218.780578 77.0739456,220.365103 C79.4915713,221.949628 81.3782712,224.195699 82.7341018,227.103384 C84.0899325,230.011069 84.7678376,233.441433 84.7678376,237.394578 C84.7678376,241.380393 84.0899325,244.831175 82.7341018,247.747028 C81.3782712,250.662881 79.4997389,252.917119 77.0984484,254.509812 C74.697158,256.102505 71.9283647,256.898839 68.7919854,256.898839 C66.3743596,256.898839 64.4386546,256.494546 62.9848121,255.685948 C61.5309696,254.877351 60.4120177,253.95442 59.6279229,252.917127 C58.843828,251.879835 58.2394307,251.018161 57.8147126,250.332078 L57.3246558,250.332078 L57.3246558,270.228384 L51.5419854,270.228384 Z M57.2266445,237.296566 C57.2266445,240.13891 57.6431886,242.642259 58.4762893,244.806687 C59.3093901,246.971115 60.5263524,248.661795 62.1272126,249.878775 C63.7280729,251.095756 65.6882806,251.704237 68.0078945,251.704237 C70.4255202,251.704237 72.4469843,251.063085 74.0723476,249.780764 C75.6977108,248.498442 76.9228406,246.766925 77.7477737,244.586161 C78.5727068,242.405398 78.9851672,239.975557 78.9851672,237.296566 C78.9851672,234.650246 78.5808744,232.261243 77.7722766,230.129485 C76.9636788,227.997728 75.7467165,226.307048 74.1213533,225.057397 C72.49599,223.807746 70.4581908,223.18293 68.0078945,223.18293 C65.65561,223.18293 63.6790672,223.775076 62.078207,224.959386 C60.4773467,226.143696 59.268552,227.793537 58.4517865,229.90896 C57.6350211,232.024382 57.2266445,234.486893 57.2266445,237.296566 Z M95.2706275,234.258214 L116.70755,234.258214 C116.70755,232.134624 116.286922,230.239756 115.445654,228.573555 C114.604386,226.907353 113.411926,225.592381 111.868239,224.628598 C110.324553,223.664814 108.507277,223.18293 106.416357,223.18293 C104.113079,223.18293 102.124285,223.750573 100.449915,224.885877 C98.7755462,226.021181 97.4891599,227.495421 96.5907179,229.30864 C95.8207714,230.862532 95.3807441,232.512378 95.2706275,234.258214 L95.2706275,234.258214 Z M95.2559636,239.256794 C95.3395599,241.76004 95.8293962,243.90402 96.7254835,245.688789 C97.7137697,247.657194 99.0899989,249.151852 100.854212,250.172809 C102.618426,251.193766 104.668476,251.704237 107.004425,251.704237 C108.523609,251.704237 109.899838,251.487797 111.133154,251.054911 C112.36647,250.622026 113.432333,249.968623 114.330775,249.094684 C115.229217,248.220745 115.923457,247.13038 116.413516,245.823555 L122.000164,247.391737 C121.412093,249.286633 120.423821,250.948725 119.03532,252.378065 C117.646819,253.807404 115.931637,254.918189 113.889724,255.710451 C111.84781,256.502714 109.552733,256.898839 107.004425,256.898839 C103.377987,256.898839 100.253906,256.094337 97.6320886,254.485309 C95.0102716,252.876281 92.9928912,250.622042 91.5798869,247.722525 C90.1668827,244.823008 89.4603912,241.445733 89.4603912,237.5906 C89.4603912,233.735467 90.1668827,230.33369 91.5798869,227.385167 C92.9928912,224.436644 94.9694339,222.1334 97.5095744,220.475366 C100.049715,218.817332 103.018613,217.988328 106.416357,217.988328 C108.376594,217.988328 110.312299,218.315029 112.22353,218.968441 C114.134762,219.621854 115.874446,220.679549 117.442636,222.141559 C119.010825,223.603569 120.260458,225.535191 121.19157,227.936481 C122.122683,230.337771 122.588232,233.294418 122.588232,236.806509 L122.588232,239.256794 L95.2559636,239.256794 L95.2559636,239.256794 Z M134.827661,233.474123 L134.827661,256.114748 L129.04499,256.114748 L129.04499,218.478384 L134.631638,218.478384 L134.631638,224.359066 L135.121695,224.359066 C136.003801,222.447835 137.343277,220.908255 139.140161,219.740281 C140.937045,218.572306 143.256624,217.988328 146.098967,217.988328 C148.647276,217.988328 150.877012,218.506966 152.788243,219.544258 C154.699474,220.58155 156.185965,222.149716 157.24776,224.248804 C158.309555,226.347891 158.840445,228.998255 158.840445,232.199975 L158.840445,256.114748 L153.057774,256.114748 L153.057774,232.592021 C153.057774,229.63533 152.290026,227.328002 150.754507,225.669968 C149.218988,224.011934 147.111765,223.18293 144.432774,223.18293 C142.586884,223.18293 140.941127,223.583139 139.495452,224.383569 C138.049777,225.183999 136.910406,226.351956 136.077306,227.887475 C135.244205,229.422994 134.827661,231.285192 134.827661,233.474123 Z M8.23295455,298.395998 L19.0142045,298.395998 C21.7095305,298.395998 23.8739265,297.930449 25.5074574,296.999336 C27.1409883,296.068224 28.3293642,294.80634 29.0726207,293.213647 C29.8158773,291.620955 30.1875,289.820014 30.1875,287.810771 C30.1875,285.801528 29.8158773,284.004671 29.0726207,282.420146 C28.3293642,280.835621 27.1328207,279.590072 25.4829545,278.683463 C23.8330883,277.776853 21.6441898,277.323555 18.9161932,277.323555 L8.23295455,277.323555 L8.23295455,298.395998 L8.23295455,298.395998 Z M8.23295455,303.786623 L8.23295455,322.114748 L2.15625,322.114748 L2.15625,271.93293 L19.1122159,271.93293 C23.0490254,271.93293 26.2711167,272.639421 28.7785866,274.052426 C31.2860566,275.46543 33.1441701,277.372549 34.352983,279.773839 C35.5617958,282.175129 36.1661932,284.85408 36.1661932,287.810771 C36.1661932,290.767462 35.5658796,293.45458 34.3652344,295.872206 C33.1645892,298.289831 31.3146432,300.213285 28.8153409,301.642625 C26.3160386,303.071964 23.1143661,303.786623 19.2102273,303.786623 L8.23295455,303.786623 L8.23295455,303.786623 Z M42.818974,322.114748 L42.818974,284.478384 L48.4056217,284.478384 L48.4056217,290.163044 L48.7976672,290.163044 C49.4837502,288.300818 50.725215,286.789825 52.522099,285.630018 C54.318974,284.470211 56.3445309,283.890316 58.5988036,283.890316 C59.0235216,283.890316 59.5544112,283.898484 60.1914882,283.914819 C60.8285653,283.931154 61.3104496,283.955657 61.6371558,283.988328 L61.6371558,289.869009 C61.4411321,289.820004 60.9960016,289.742412 60.301751,289.636232 C59.6075004,289.530053 58.8765063,289.476964 58.1087467,289.476964 C56.2791921,289.476964 54.6497695,289.856754 53.22043,290.616346 C51.7910904,291.375938 50.663971,292.421382 49.8390379,293.75271 C49.0141048,295.084037 48.6016445,296.599115 48.6016445,298.297987 L48.6016445,322.114748 L42.818974,322.114748 Z M69.003582,300.258214 L90.4405048,300.258214 C90.4405048,298.134624 90.0198769,296.239756 89.1786085,294.573555 C88.3373401,292.907353 87.1448805,291.592381 85.6011938,290.628598 C84.0575071,289.664814 82.2402312,289.18293 80.1493117,289.18293 C77.8460331,289.18293 75.8572391,289.750573 74.1828699,290.885877 C72.5085007,292.021181 71.2221144,293.495421 70.3236724,295.30864 C69.5537259,296.862532 69.1136986,298.512378 69.003582,300.258214 L69.003582,300.258214 Z M68.9889181,305.256794 C69.0725145,307.76004 69.5623508,309.90402 70.4584381,311.688789 C71.4467243,313.657194 72.8229534,315.151852 74.5871668,316.172809 C76.3513801,317.193766 78.4014307,317.704237 80.7373798,317.704237 C82.2565636,317.704237 83.6327927,317.487797 84.8661085,317.054911 C86.0994244,316.622026 87.1652873,315.968623 88.0637293,315.094684 C88.9621713,314.220745 89.6564115,313.13038 90.1464707,311.823555 L95.7331185,313.391737 C95.1450473,315.286633 94.156776,316.948725 92.7682747,318.378065 C91.3797735,319.807404 89.6645917,320.918189 87.6226781,321.710451 C85.5807645,322.502714 83.285688,322.898839 80.7373798,322.898839 C77.1109412,322.898839 73.9868603,322.094337 71.3650432,320.485309 C68.7432261,318.876281 66.7258457,316.622042 65.3128415,313.722525 C63.8998373,310.823008 63.1933457,307.445733 63.1933457,303.5906 C63.1933457,299.735467 63.8998373,296.33369 65.3128415,293.385167 C66.7258457,290.436644 68.7023884,288.1334 71.242529,286.475366 C73.7826695,284.817332 76.7515674,283.988328 80.1493117,283.988328 C82.1095487,283.988328 84.0452538,284.315029 85.9564849,284.968441 C87.8677161,285.621854 89.6074004,286.679549 91.1755901,288.141559 C92.7437797,289.603569 93.9934121,291.535191 94.9245247,293.936481 C95.8556373,296.337771 96.3211867,299.294418 96.3211867,302.806509 L96.3211867,305.256794 L68.9889181,305.256794 L68.9889181,305.256794 Z M102.777945,336.228384 L102.777945,284.478384 L108.364592,284.478384 L108.364592,290.457078 L109.050672,290.457078 C109.47539,289.803665 110.067536,288.966493 110.827128,287.945536 C111.58672,286.92458 112.681169,286.009816 114.110509,285.201218 C115.539848,284.39262 117.479637,283.988328 119.929933,283.988328 C123.098983,283.988328 125.892279,284.780578 128.309905,286.365103 C130.727531,287.949628 132.614231,290.195699 133.970061,293.103384 C135.325892,296.011069 136.003797,299.441433 136.003797,303.394578 C136.003797,307.380393 135.325892,310.831175 133.970061,313.747028 C132.614231,316.662881 130.735698,318.917119 128.334408,320.509812 C125.933117,322.102505 123.164324,322.898839 120.027945,322.898839 C117.610319,322.898839 115.674614,322.494546 114.220771,321.685948 C112.766929,320.877351 111.647977,319.95442 110.863882,318.917127 C110.079787,317.879835 109.47539,317.018161 109.050672,316.332078 L108.560615,316.332078 L108.560615,336.228384 L102.777945,336.228384 Z M108.462604,303.296566 C108.462604,306.13891 108.879148,308.642259 109.712249,310.806687 C110.545349,312.971115 111.762312,314.661795 113.363172,315.878775 C114.964032,317.095756 116.92424,317.704237 119.243854,317.704237 C121.66148,317.704237 123.682944,317.063085 125.308307,315.780764 C126.93367,314.498442 128.1588,312.766925 128.983733,310.586161 C129.808666,308.405398 130.221127,305.975557 130.221127,303.296566 C130.221127,300.650246 129.816834,298.261243 129.008236,296.129485 C128.199638,293.997728 126.982676,292.307048 125.357313,291.057397 C123.731949,289.807746 121.69415,289.18293 119.243854,289.18293 C116.891569,289.18293 114.915027,289.775076 113.314166,290.959386 C111.713306,292.143696 110.504511,293.793537 109.687746,295.90896 C108.87098,298.024382 108.462604,300.486893 108.462604,303.296566 Z M142.460555,322.114748 L142.460555,284.478384 L148.047203,284.478384 L148.047203,290.163044 L148.439248,290.163044 C149.125331,288.300818 150.366796,286.789825 152.16368,285.630018 C153.960555,284.470211 155.986112,283.890316 158.240385,283.890316 C158.665103,283.890316 159.195992,283.898484 159.833069,283.914819 C160.470146,283.931154 160.952031,283.955657 161.278737,283.988328 L161.278737,289.869009 C161.082713,289.820004 160.637583,289.742412 159.943332,289.636232 C159.249081,289.530053 158.518087,289.476964 157.750328,289.476964 C155.920773,289.476964 154.291351,289.856754 152.862011,290.616346 C151.432672,291.375938 150.305552,292.421382 149.480619,293.75271 C148.655686,295.084037 148.243226,296.599115 148.243226,298.297987 L148.243226,322.114748 L142.460555,322.114748 Z M165.775268,322.114748 L165.775268,284.478384 L171.557938,284.478384 L171.557938,322.114748 L165.775268,322.114748 Z M168.715609,278.205657 C167.588472,278.205657 166.62062,277.821783 165.812022,277.054024 C165.003424,276.286264 164.599131,275.363333 164.599131,274.285203 C164.599131,273.207072 165.003424,272.284141 165.812022,271.516382 C166.62062,270.748622 167.588472,270.364748 168.715609,270.364748 C169.842745,270.364748 170.810598,270.748622 171.619195,271.516382 C172.427793,272.284141 172.832086,273.207072 172.832086,274.285203 C172.832086,275.363333 172.427793,276.286264 171.619195,277.054024 C170.810598,277.821783 169.842745,278.205657 168.715609,278.205657 Z M185.561571,299.474123 L185.561571,322.114748 L179.778901,322.114748 L179.778901,284.478384 L185.365549,284.478384 L185.365549,290.359066 L185.855605,290.359066 C186.737712,288.447835 188.077187,286.908255 189.874071,285.740281 C191.670955,284.572306 193.990534,283.988328 196.832878,283.988328 C199.381186,283.988328 201.610923,284.506966 203.522154,285.544258 C205.433385,286.58155 206.919876,288.149716 207.981671,290.248804 C209.043466,292.347891 209.574355,294.998255 209.574355,298.199975 L209.574355,322.114748 L203.791685,322.114748 L203.791685,298.592021 C203.791685,295.63533 203.023937,293.328002 201.488418,291.669968 C199.952899,290.011934 197.845676,289.18293 195.166685,289.18293 C193.320795,289.18293 191.675037,289.583139 190.229363,290.383569 C188.783688,291.183999 187.644317,292.351956 186.811216,293.887475 C185.978115,295.422994 185.561571,297.285192 185.561571,299.474123 Z M234.163216,284.478384 L234.163216,289.378953 L214.658954,289.378953 L214.658954,284.478384 L234.163216,284.478384 Z M220.343614,275.461339 L226.126284,275.461339 L226.126284,311.333498 C226.126284,312.967029 226.367226,314.188075 226.849118,314.996673 C227.331009,315.805271 227.951742,316.344328 228.711334,316.61386 C229.470926,316.883393 230.275427,317.018157 231.124864,317.018157 C231.761941,317.018157 232.284663,316.981403 232.693045,316.907894 C233.101428,316.834386 233.428129,316.773129 233.673159,316.724123 L234.849295,321.918725 C234.457248,322.065743 233.910023,322.216843 233.207605,322.372028 C232.505187,322.527213 231.614926,322.604805 230.536795,322.604805 C228.903264,322.604805 227.306512,322.253601 225.74649,321.551183 C224.186468,320.848764 222.895998,319.778818 221.875041,318.341311 C220.854084,316.903803 220.343614,315.090611 220.343614,312.90168 L220.343614,275.461339 Z M29.5994318,350.478384 C29.3053963,347.995418 28.1129366,346.06788 26.022017,344.695714 C23.9310975,343.323548 21.3664925,342.637475 18.328125,342.637475 C16.106523,342.637475 14.1667341,342.996847 12.5087003,343.7156 C10.8506664,344.434354 9.56019638,345.422625 8.63725142,346.680444 C7.71430646,347.938263 7.25284091,349.367581 7.25284091,350.968441 C7.25284091,352.307937 7.57545842,353.455475 8.22070313,354.41109 C8.86594783,355.366706 9.69495232,356.158957 10.7077415,356.787866 C11.7205306,357.416775 12.7823098,357.93133 13.8931108,358.331545 C15.0039118,358.73176 16.0248533,359.054378 16.9559659,359.299407 L22.0525568,360.671566 C23.3593815,361.014608 24.817286,361.488325 26.4263139,362.092731 C28.0353419,362.697138 29.5790054,363.517974 31.0573509,364.555267 C32.5356963,365.592559 33.7567423,366.919783 34.7205256,368.536978 C35.6843088,370.154174 36.1661932,372.138884 36.1661932,374.491169 C36.1661932,377.20283 35.4597017,379.653089 34.0466974,381.842021 C32.6336932,384.030952 30.5754752,385.770637 27.8719815,387.061126 C25.1684879,388.351615 21.8892238,388.99685 18.0340909,388.99685 C14.4403229,388.99685 11.332577,388.416956 8.71075994,387.257149 C6.08894286,386.097342 4.0307248,384.48017 2.53604403,382.405586 C1.04136327,380.331002 0.196023707,377.92158 1.13686838e-12,375.177248 L6.27272727,375.177248 C6.43608036,377.072144 7.07723162,378.636226 8.19620028,379.869542 C9.31516895,381.102858 10.7363195,382.017622 12.4596946,382.61386 C14.1830697,383.210099 16.0411832,383.508214 18.0340909,383.508214 C20.3537048,383.508214 22.4364254,383.128424 24.2823153,382.368832 C26.1282053,381.60924 27.5901935,380.547461 28.6683239,379.183463 C29.7464543,377.819464 30.2855114,376.222712 30.2855114,374.393157 C30.2855114,372.726956 29.819962,371.371145 28.8888494,370.325686 C27.9577368,369.280226 26.732607,368.430803 25.2134233,367.77739 C23.6942396,367.123978 22.0525656,366.552251 20.2883523,366.062191 L14.1136364,364.297987 C10.1931622,363.17085 7.08950007,361.561847 4.80255682,359.470927 C2.51561357,357.380008 1.37215909,354.643884 1.37215909,351.262475 C1.37215909,348.452802 2.13582333,345.998459 3.66317472,343.899372 C5.1905261,341.800285 7.24874416,340.166778 9.83789063,338.998804 C12.4270371,337.830829 15.3224272,337.24685 18.5241477,337.24685 C21.7585389,337.24685 24.6335101,337.822661 27.1491477,338.974301 C29.6647853,340.12594 31.6617469,341.69819 33.1400923,343.691098 C34.6184378,345.684005 35.3984371,347.946412 35.4801136,350.478384 L29.5994318,350.478384 Z M46.7394286,402.130373 C45.75931,402.130373 44.8853841,402.052782 44.1176246,401.897596 C43.3498651,401.742411 42.8189755,401.591311 42.5249399,401.444294 L43.9951104,396.347703 C46.1023652,396.886768 47.8583846,396.874517 49.2632212,396.310948 C50.6680577,395.74738 51.88502,394.060785 52.9141445,391.251112 L53.9922695,388.310771 L40.0746558,350.478384 L46.3473831,350.478384 L56.7365876,380.469862 L57.1286331,380.469862 L67.5178376,350.478384 L73.8395706,350.576396 L57.8147126,393.603384 C57.0959591,395.514616 56.2056981,397.103201 55.143903,398.369187 C54.0821079,399.635173 52.8528943,400.578523 51.4562254,401.199265 C50.0595565,401.820007 48.4873066,402.130373 46.7394286,402.130373 Z M105.779283,358.907362 L100.584681,360.377532 C100.257975,359.511761 99.7801742,358.666421 99.1512648,357.841488 C98.5223554,357.016555 97.6688483,356.334566 96.5907179,355.795501 C95.5125875,355.256436 94.1322746,354.986907 92.4497378,354.986907 C90.1464592,354.986907 88.231173,355.513713 86.7038216,356.56734 C85.1764702,357.620968 84.412806,358.956359 84.412806,360.573555 C84.412806,362.011062 84.935528,363.146349 85.9809878,363.97945 C87.0264476,364.812551 88.659954,365.506791 90.881556,366.062191 L96.4682037,367.43435 C99.8332773,368.251116 102.34071,369.496664 103.990576,371.171034 C105.640442,372.845403 106.465363,374.997547 106.465363,377.627532 C106.465363,379.783793 105.848714,381.711331 104.615398,383.410203 C103.382082,385.109075 101.662817,386.44855 99.4575503,387.428669 C97.2522836,388.408787 94.6876785,388.898839 91.7636582,388.898839 C87.9248606,388.898839 84.7476907,388.065751 82.2320531,386.399549 C79.7164156,384.733348 78.1237468,382.299423 77.4539992,379.097703 L82.9426355,377.725544 C83.4653654,379.751122 84.4577205,381.270283 85.9197307,382.283072 C87.3817408,383.295861 89.2970271,383.802248 91.6656469,383.802248 C94.3609729,383.802248 96.50495,383.226437 98.0976426,382.074798 C99.6903352,380.923159 100.48667,379.538762 100.48667,377.921566 C100.48667,376.614742 100.029288,375.516209 99.1145105,374.625934 C98.1997332,373.73566 96.7949177,373.070006 94.9000219,372.628953 L88.6272946,371.158782 C85.1805444,370.342017 82.6526933,369.071966 81.0436653,367.34859 C79.4346374,365.625215 78.6301355,363.464903 78.6301355,360.867589 C78.6301355,358.743999 79.2304491,356.865467 80.4310943,355.231936 C81.6317395,353.598405 83.2734135,352.316102 85.3561653,351.38499 C87.4389172,350.453877 89.8034177,349.988328 92.4497378,349.988328 C96.1741882,349.988328 99.1022484,350.805081 101.234006,352.438612 C103.365764,354.072143 104.880841,356.228371 105.779283,358.907362 Z M129.192007,350.478384 L129.192007,355.378953 L109.687746,355.378953 L109.687746,350.478384 L129.192007,350.478384 Z M115.372405,341.461339 L121.155075,341.461339 L121.155075,377.333498 C121.155075,378.967029 121.396018,380.188075 121.877909,380.996673 C122.359801,381.805271 122.980533,382.344328 123.740125,382.61386 C124.499717,382.883393 125.304219,383.018157 126.153655,383.018157 C126.790732,383.018157 127.313454,382.981403 127.721837,382.907894 C128.13022,382.834386 128.456921,382.773129 128.70195,382.724123 L129.878087,387.918725 C129.486039,388.065743 128.938815,388.216843 128.236396,388.372028 C127.533978,388.527213 126.643717,388.604805 125.565587,388.604805 C123.932056,388.604805 122.335303,388.253601 120.775281,387.551183 C119.215259,386.848764 117.924789,385.778818 116.903833,384.341311 C115.882876,382.903803 115.372405,381.090611 115.372405,378.90168 L115.372405,341.461339 Z M139.20474,366.258214 L160.641663,366.258214 C160.641663,364.134624 160.221035,362.239756 159.379767,360.573555 C158.538498,358.907353 157.346039,357.592381 155.802352,356.628598 C154.258665,355.664814 152.441389,355.18293 150.35047,355.18293 C148.047191,355.18293 146.058397,355.750573 144.384028,356.885877 C142.709659,358.021181 141.423273,359.495421 140.524831,361.30864 C139.754884,362.862532 139.314857,364.512378 139.20474,366.258214 L139.20474,366.258214 Z M139.190076,371.256794 C139.273673,373.76004 139.763509,375.90402 140.659596,377.688789 C141.647883,379.657194 143.024112,381.151852 144.788325,382.172809 C146.552538,383.193766 148.602589,383.704237 150.938538,383.704237 C152.457722,383.704237 153.833951,383.487797 155.067267,383.054911 C156.300583,382.622026 157.366446,381.968623 158.264888,381.094684 C159.16333,380.220745 159.85757,379.13038 160.347629,377.823555 L165.934277,379.391737 C165.346206,381.286633 164.357934,382.948725 162.969433,384.378065 C161.580932,385.807404 159.86575,386.918189 157.823836,387.710451 C155.781923,388.502714 153.486846,388.898839 150.938538,388.898839 C147.312099,388.898839 144.188019,388.094337 141.566201,386.485309 C138.944384,384.876281 136.927004,382.622042 135.514,379.722525 C134.100996,376.823008 133.394504,373.445733 133.394504,369.5906 C133.394504,365.735467 134.100996,362.33369 135.514,359.385167 C136.927004,356.436644 138.903547,354.1334 141.443687,352.475366 C143.983828,350.817332 146.952726,349.988328 150.35047,349.988328 C152.310707,349.988328 154.246412,350.315029 156.157643,350.968441 C158.068874,351.621854 159.808559,352.679549 161.376748,354.141559 C162.944938,355.603569 164.19457,357.535191 165.125683,359.936481 C166.056796,362.337771 166.522345,365.294418 166.522345,368.806509 L166.522345,371.256794 L139.190076,371.256794 L139.190076,371.256794 Z M172.979103,388.114748 L172.979103,350.478384 L178.565751,350.478384 L178.565751,356.359066 L179.055808,356.359066 C179.839902,354.349823 181.10587,352.785741 182.853748,351.666772 C184.601626,350.547804 186.700682,349.988328 189.150978,349.988328 C191.633945,349.988328 193.704414,350.547804 195.362448,351.666772 C197.020482,352.785741 198.315036,354.349823 199.246148,356.359066 L199.638194,356.359066 C200.601977,354.415165 202.04763,352.867417 203.975197,351.715778 C205.902763,350.564139 208.214175,349.988328 210.909501,349.988328 C214.274574,349.988328 217.027033,351.037856 219.166958,353.136943 C221.306884,355.23603 222.37683,358.498959 222.37683,362.925828 L222.37683,388.114748 L216.59416,388.114748 L216.59416,362.925828 C216.59416,360.148825 215.834579,358.164115 214.315396,356.971637 C212.796212,355.77916 211.007522,355.18293 208.949273,355.18293 C206.302953,355.18293 204.252903,355.979264 202.79906,357.571957 C201.345218,359.16465 200.618308,361.177946 200.618308,363.611907 L200.618308,388.114748 L194.737626,388.114748 L194.737626,362.337759 C194.737626,360.197834 194.043386,358.470401 192.654884,357.155409 C191.266383,355.840416 189.477693,355.18293 187.288762,355.18293 C185.785914,355.18293 184.385182,355.583139 183.086525,356.383569 C181.787868,357.183999 180.742424,358.2907 179.950161,359.703704 C179.157899,361.116708 178.761773,362.746131 178.761773,364.592021 L178.761773,388.114748 L172.979103,388.114748 Z M257.256884,358.907362 L252.062282,360.377532 C251.735575,359.511761 251.257775,358.666421 250.628865,357.841488 C249.999956,357.016555 249.146449,356.334566 248.068318,355.795501 C246.990188,355.256436 245.609875,354.986907 243.927338,354.986907 C241.62406,354.986907 239.708774,355.513713 238.181422,356.56734 C236.654071,357.620968 235.890407,358.956359 235.890407,360.573555 C235.890407,362.011062 236.413129,363.146349 237.458588,363.97945 C238.504048,364.812551 240.137555,365.506791 242.359157,366.062191 L247.945804,367.43435 C251.310878,368.251116 253.81831,369.496664 255.468176,371.171034 C257.118043,372.845403 257.942963,374.997547 257.942963,377.627532 C257.942963,379.783793 257.326315,381.711331 256.092999,383.410203 C254.859683,385.109075 253.140418,386.44855 250.935151,387.428669 C248.729884,388.408787 246.165279,388.898839 243.241259,388.898839 C239.402461,388.898839 236.225291,388.065751 233.709654,386.399549 C231.194016,384.733348 229.601347,382.299423 228.9316,379.097703 L234.420236,377.725544 C234.942966,379.751122 235.935321,381.270283 237.397331,382.283072 C238.859341,383.295861 240.774628,383.802248 243.143247,383.802248 C245.838573,383.802248 247.982551,383.226437 249.575243,382.074798 C251.167936,380.923159 251.96427,379.538762 251.96427,377.921566 C251.96427,376.614742 251.506888,375.516209 250.592111,374.625934 C249.677334,373.73566 248.272518,373.070006 246.377622,372.628953 L240.104895,371.158782 C236.658145,370.342017 234.130294,369.071966 232.521266,367.34859 C230.912238,365.625215 230.107736,363.464903 230.107736,360.867589 C230.107736,358.743999 230.70805,356.865467 231.908695,355.231936 C233.10934,353.598405 234.751014,352.316102 236.833766,351.38499 C238.916518,350.453877 241.281018,349.988328 243.927338,349.988328 C247.651789,349.988328 250.579849,350.805081 252.711607,352.438612 C254.843365,354.072143 256.358442,356.228371 257.256884,358.907362 Z" id="OpenPreprintSystems"></path>
            </g>
        </g>
    </g>
</svg>
