<?xml version="1.0" encoding="UTF-8"?>
<svg width="292px" height="383px" viewBox="0 0 292 383" version="1.1" xmlns="http://www.w3.org/2000/svg" xmlns:xlink="http://www.w3.org/1999/xlink">
    <title>Vertical - OJS</title>
    <desc>An official PKP logotype.</desc>
    <path d="M26.2394082,253.202082 C9.00440816,253.202082 1.96971429,240.398939 1.96971429,229.706204 C1.96971429,220.350061 9.21544898,206.35102 26.5911429,206.35102 C40.5198367,206.35102 51.1422245,214.651959 51.1422245,228.791694 C51.1422245,242.227959 41.2233061,253.202082 26.2394082,253.202082 Z M27.9980816,250.810286 C32.7113265,250.810286 44.5296122,248.41849 44.5296122,230.550367 C44.5296122,216.410633 35.8065918,208.531776 26.1690612,208.531776 C16.3908367,208.531776 8.51197959,214.581612 8.51197959,227.877184 C8.51197959,241.665184 16.1797959,250.810286 27.9980816,250.810286 Z M63.0660307,235.052571 L63.0660307,224.500531 C63.0660307,214.792653 63.0660307,213.526408 62.9253368,211.627041 C62.7846429,209.79802 62.2218674,208.672469 60.2521531,208.250388 C59.7597246,208.180041 58.6341736,208.109694 58.071398,208.109694 C57.9307042,208.109694 57.6493164,207.969 57.6493164,207.757959 C57.6493164,207.335878 58.0010511,207.195184 58.6341736,207.195184 C61.6590919,207.195184 65.5281736,207.406224 65.9502552,207.406224 C67.4275409,207.406224 71.0152348,207.195184 73.8994593,207.195184 C81.6376225,207.195184 84.4515001,209.727673 85.4363572,210.571837 C86.7729491,211.767735 88.5316225,214.511265 88.5316225,218.450694 C88.5316225,226.259204 82.0597042,231.957306 73.2663368,231.957306 C72.9849491,231.957306 72.2814797,231.957306 71.929745,231.886959 C71.6483572,231.886959 71.2966225,231.746265 71.2966225,231.464878 C71.2966225,230.902102 71.7187042,230.902102 73.055296,230.902102 C78.6127042,230.902102 83.2556021,227.103367 83.2556021,220.912837 C83.2556021,219.998327 83.4666429,215.77751 80.2306838,212.400857 C76.7836838,208.742816 72.7739082,209.094551 71.5076633,209.094551 C70.5931531,209.094551 69.5379491,209.235245 69.1158674,209.446286 C68.7641327,209.58698 68.6937858,210.079408 68.6937858,210.571837 L68.6937858,234.911878 C68.6937858,240.328592 68.6937858,245.393571 68.9751736,247.926061 C69.1862144,249.614388 69.5379491,251.021327 71.4373164,251.232367 C72.2814797,251.373061 73.6884185,251.513755 74.251194,251.513755 C74.5325817,251.513755 74.6732756,251.654449 74.6732756,251.86549 C74.6732756,252.217224 74.3918878,252.428265 73.6884185,252.428265 C70.0303776,252.428265 66.0909491,252.217224 65.7392144,252.217224 C65.6688674,252.217224 61.518398,252.428265 59.5486838,252.428265 C58.9155613,252.428265 58.5638266,252.287571 58.5638266,251.86549 C58.5638266,251.654449 58.7045205,251.513755 59.0562552,251.513755 C59.5486838,251.513755 60.3225001,251.373061 60.8852756,251.232367 C62.1515205,251.021327 62.5032552,249.614388 62.714296,247.926061 C63.0660307,245.393571 63.0660307,240.328592 63.0660307,235.052571 Z M100.174041,235.052571 L100.174041,224.500531 C100.174041,215.285082 100.174041,213.596755 100.033347,211.697388 C99.8926532,209.727673 99.4002247,208.742816 97.3601634,208.320735 C96.9380818,208.250388 96.2346124,208.180041 95.6718369,208.180041 C95.1794083,208.180041 94.7573267,207.969 94.7573267,207.757959 C94.7573267,207.335878 95.1090614,207.195184 95.8125308,207.195184 C97.2194696,207.195184 99.1188369,207.335878 103.058265,207.406224 C103.41,207.406224 115.931755,207.406224 117.338694,207.335878 C118.745633,207.265531 119.519449,207.195184 120.082225,206.984143 C120.504306,206.843449 120.574653,206.773102 120.856041,206.773102 C120.996735,206.773102 121.137429,206.913796 121.137429,207.265531 C121.137429,207.687612 120.715347,208.672469 120.574653,210.431143 C120.504306,211.627041 120.433959,212.752592 120.363612,214.089184 C120.363612,214.722306 120.222919,215.144388 119.871184,215.144388 C119.519449,215.144388 119.378755,214.863 119.378755,214.370571 C119.308408,213.315367 119.097368,212.611898 118.886327,212.119469 C118.464245,210.712531 117.831123,210.220102 114.313776,210.009061 C113.399265,209.938714 106.434919,209.868367 106.294225,209.868367 C106.083184,209.868367 105.94249,210.009061 105.94249,210.431143 L105.94249,226.399898 C105.94249,226.82198 106.012837,227.103367 106.364572,227.103367 C107.208735,227.103367 114.384123,227.03302 115.861408,226.892327 C117.479388,226.82198 118.534592,226.610939 119.097368,225.837122 C119.378755,225.415041 119.589796,225.274347 119.871184,225.274347 C120.011878,225.274347 120.152572,225.344694 120.152572,225.696429 C120.152572,226.048163 119.871184,227.384755 119.660143,229.424816 C119.449102,231.394531 119.449102,232.801469 119.378755,233.71598 C119.308408,234.278755 119.167714,234.489796 118.886327,234.489796 C118.534592,234.489796 118.464245,234.067714 118.464245,233.575286 C118.464245,233.153204 118.393898,232.449735 118.253204,231.886959 C117.971816,230.972449 117.549735,229.987592 114.876551,229.776551 C113.258572,229.635857 107.56047,229.495163 106.434919,229.495163 C106.012837,229.495163 105.94249,229.706204 105.94249,229.987592 L105.94249,235.122918 C105.94249,237.303673 105.872143,243.494204 105.94249,244.690102 C106.083184,247.292939 106.434919,248.629531 107.912204,249.262653 C108.967408,249.755082 110.655735,249.895776 113.047531,249.895776 C114.384123,249.895776 116.635225,249.966122 118.393898,249.473694 C120.504306,248.840571 120.996735,247.433633 121.55951,244.830796 C121.700204,244.127327 121.911245,243.845939 122.192633,243.845939 C122.614714,243.845939 122.614714,244.479061 122.614714,244.901143 C122.614714,245.393571 122.051939,249.825429 121.840898,251.021327 C121.55951,252.428265 121.067082,252.568959 118.745633,252.568959 C114.102735,252.568959 112.133021,252.428265 109.670878,252.428265 C107.208735,252.357918 103.972776,252.217224 101.369939,252.217224 C99.7519594,252.217224 98.4153675,252.428265 96.727041,252.428265 C96.0939185,252.428265 95.7421838,252.287571 95.7421838,251.935837 C95.7421838,251.654449 96.0235716,251.443408 96.3753063,251.443408 C96.7973879,251.443408 97.2898165,251.373061 97.7822451,251.232367 C99.04849,250.95098 99.8926532,250.036469 100.033347,245.674959 C100.103694,243.283163 100.174041,240.398939 100.174041,235.052571 Z M134.116439,243.634898 C134.116439,210.079408 134.186786,220.912837 134.116439,209.235245 C134.116439,207.05449 134.32748,206.35102 134.890255,206.35102 C135.382684,206.35102 136.578582,207.757959 137.07101,208.250388 C137.704133,208.953857 147.482357,218.943122 157.330929,229.002735 C162.81799,234.349102 169.852684,241.594837 171.681704,243.283163 L170.907888,214.018837 C170.837541,210.220102 170.415459,208.953857 168.516092,208.461429 C167.320194,208.250388 166.26499,208.180041 165.772561,208.180041 C165.069092,208.180041 164.928398,207.898653 164.928398,207.617265 C164.928398,207.265531 165.491174,207.195184 166.194643,207.195184 C169.219561,207.195184 172.174133,207.406224 172.807255,207.406224 C173.510725,207.406224 175.69148,207.195184 178.43501,207.195184 C179.208827,207.195184 179.419868,207.265531 179.419868,207.617265 C179.419868,207.898653 179.208827,208.109694 178.786745,208.180041 C178.364664,208.250388 177.801888,208.250388 177.028072,208.391082 C175.410092,208.742816 174.917664,209.446286 174.917664,213.667102 L174.77697,248.981265 C174.77697,252.498612 174.636276,252.850347 174.143847,252.850347 C173.651419,252.850347 172.947949,252.357918 169.500949,249.121959 C169.219561,248.981265 159.441337,239.273388 153.321153,233.293898 C146.005072,225.696429 138.970378,218.380347 137.211704,216.551327 L138.126215,244.05698 C138.266908,248.910918 138.68899,250.739939 140.447664,251.16202 C141.573215,251.443408 142.769112,251.443408 143.331888,251.443408 C143.894664,251.443408 144.176051,251.654449 144.176051,251.935837 C144.176051,252.287571 143.824317,252.428265 143.0505,252.428265 C139.251766,252.428265 136.719276,252.217224 136.226847,252.217224 C135.734419,252.217224 133.131582,252.428265 130.106664,252.428265 C129.473541,252.428265 129.051459,252.357918 129.051459,251.935837 C129.051459,251.654449 129.332847,251.443408 130.036317,251.443408 C130.528745,251.443408 131.302561,251.443408 132.217072,251.16202 C133.764704,250.669592 134.116439,248.770224 134.116439,243.634898 Z M14.8432041,288.985224 L14.8432041,302.42149 C14.8432041,312.551449 14.913551,316.490878 12.9438367,320.993082 C11.6775918,324.018 8.86371429,326.831878 3.37665306,330.489918 C2.60283673,330.912 1.54763265,331.685816 0.914510204,331.967204 C0.844163265,332.037551 0.703469388,332.037551 0.492428571,332.037551 C0.351734694,332.037551 8.52651283e-14,331.967204 8.52651283e-14,331.685816 C8.52651283e-14,331.263735 0.422081633,331.123041 0.914510204,330.771306 C1.61797959,330.419571 2.46214286,329.716102 2.88422449,329.29402 C7.10504082,325.284245 9.14510204,322.259327 9.14510204,306.149878 L9.14510204,288.985224 C9.14510204,279.699429 9.14510204,278.081449 9.00440816,276.182082 C8.86371429,274.282714 8.23059184,273.297857 6.26087755,272.805429 C5.83879592,272.735082 4.7132449,272.664735 4.15046939,272.664735 C3.93942857,272.664735 3.65804082,272.453694 3.65804082,272.242653 C3.65804082,271.820571 4.00977551,271.679878 4.7132449,271.679878 C7.66781633,271.679878 11.7479388,271.890918 11.9589796,271.890918 C12.2403673,271.890918 16.3908367,271.679878 18.360551,271.679878 C19.0640204,271.679878 19.3454082,271.820571 19.3454082,272.242653 C19.3454082,272.453694 19.0640204,272.664735 18.9233265,272.664735 C18.5012449,272.664735 18.0791633,272.735082 17.3053469,272.805429 C15.6873673,273.157163 15.1245918,274.212367 14.983898,276.252429 C14.8432041,278.151796 14.8432041,279.699429 14.8432041,288.985224 Z M44.6038674,317.686776 C27.3688674,317.686776 20.3341736,304.883633 20.3341736,294.190898 C20.3341736,284.834755 27.5799082,270.835714 44.9556021,270.835714 C58.884296,270.835714 69.5066838,279.136653 69.5066838,293.276388 C69.5066838,306.712653 59.5877654,317.686776 44.6038674,317.686776 Z M46.3625409,315.29498 C51.0757858,315.29498 62.8940715,312.903184 62.8940715,295.035061 C62.8940715,280.895327 54.1710511,273.016469 44.5335205,273.016469 C34.755296,273.016469 26.8764389,279.066306 26.8764389,292.361878 C26.8764389,306.149878 34.5442552,315.29498 46.3625409,315.29498 Z M81.3288777,288.985224 L81.3288777,297.35651 C81.3288777,305.938837 82.9468573,309.596878 85.620041,311.988673 C88.6449594,314.661857 92.0216124,315.224633 94.9058369,315.224633 C98.5638777,315.224633 101.870184,314.239776 104.543368,311.14451 C107.357245,307.908551 107.990368,302.562184 107.990368,296.442 L107.990368,288.985224 C107.990368,279.769776 107.990368,278.151796 107.849674,276.252429 C107.70898,274.212367 107.497939,273.157163 105.246837,272.805429 C104.754408,272.735082 103.910245,272.664735 103.277123,272.664735 C102.855041,272.664735 102.573653,272.453694 102.573653,272.242653 C102.573653,271.820571 102.925388,271.679878 103.55851,271.679878 C106.583429,271.679878 110.100776,271.890918 110.382163,271.890918 C110.733898,271.890918 113.758816,271.679878 115.728531,271.679878 C116.432,271.679878 116.713388,271.820571 116.713388,272.172306 C116.713388,272.453694 116.432,272.664735 116.009919,272.664735 C115.587837,272.664735 115.447143,272.664735 114.743674,272.735082 C112.773959,272.946122 112.492572,274.212367 112.351878,276.252429 C112.281531,278.151796 112.281531,279.769776 112.281531,288.985224 L112.281531,295.246102 C112.281531,301.577327 111.578061,309.174796 106.583429,313.465959 C102.010878,317.335041 97.5086736,317.686776 93.7099389,317.686776 C91.7402247,317.686776 85.1276124,317.686776 80.5550614,313.465959 C77.530143,310.652082 75.3493879,306.431265 75.3493879,297.708245 L75.3493879,288.985224 C75.3493879,279.699429 75.3493879,278.081449 75.1383471,276.182082 C75.0680002,274.282714 74.7162655,273.086816 72.5355104,272.805429 C72.1134287,272.735082 71.2692655,272.664735 70.70649,272.664735 C70.2140614,272.664735 69.9326736,272.453694 69.9326736,272.242653 C69.9326736,271.820571 70.2140614,271.679878 70.9878777,271.679878 C74.0127961,271.679878 77.8115308,271.890918 78.3039594,271.890918 C78.8667349,271.890918 83.0172042,271.679878 84.9165716,271.679878 C85.6903879,271.679878 85.9014287,271.820571 85.9014287,272.172306 C85.9014287,272.524041 85.4090002,272.664735 85.0572655,272.664735 C84.6351838,272.664735 84.0724083,272.735082 83.5096328,272.805429 C81.8213063,273.016469 81.5399185,274.212367 81.3992247,276.182082 C81.3288777,278.081449 81.3288777,279.699429 81.3288777,288.985224 Z M125.072949,299.537265 L125.072949,288.985224 C125.072949,279.699429 125.072949,278.011102 124.932255,276.111735 C124.791561,274.212367 124.299133,273.157163 122.118378,272.735082 C121.696296,272.664735 120.992827,272.594388 120.430051,272.594388 C119.937623,272.594388 119.656235,272.453694 119.656235,272.172306 C119.656235,271.890918 119.867276,271.679878 120.500398,271.679878 C123.525317,271.679878 127.81648,271.890918 127.957174,271.890918 C128.590296,271.890918 133.373888,271.679878 135.343602,271.679878 C139.283031,271.679878 143.574194,272.031612 146.8805,274.353061 C148.217092,275.337918 151.101317,278.151796 151.101317,282.935388 C151.101317,286.804469 149.201949,291.728755 143.644541,296.230959 C148.779868,302.562184 153.000684,307.767857 156.588378,311.496245 C159.965031,314.943245 162.075439,315.50602 164.045153,315.787408 C164.537582,315.857755 166.014868,315.928102 166.225908,315.928102 C166.788684,315.928102 166.999725,316.139143 166.999725,316.420531 C166.999725,316.772265 166.718337,316.912959 165.73348,316.912959 L160.809194,316.912959 C157.502888,316.912959 155.955255,316.701918 154.407623,316.068796 C151.453051,314.802551 149.342643,311.636939 145.684602,306.923694 C142.941072,303.547041 140.127194,299.748306 138.931296,298.27102 C138.649908,297.989633 138.509215,297.848939 138.087133,297.848939 L130.841398,297.778592 C130.56001,297.778592 130.489664,297.848939 130.489664,298.130327 L130.489664,299.115184 C130.489664,304.742939 130.489664,309.878265 130.841398,312.410755 C131.052439,314.099082 131.26348,315.50602 133.584929,315.787408 C134.288398,315.857755 135.062215,315.928102 135.62499,315.928102 C136.258112,315.928102 136.5395,316.139143 136.5395,316.350184 C136.5395,316.701918 136.258112,316.912959 135.554643,316.912959 C131.896602,316.912959 127.957174,316.701918 127.675786,316.701918 C126.550235,316.701918 123.45497,316.912959 121.555602,316.912959 C120.852133,316.912959 120.570745,316.772265 120.570745,316.350184 C120.570745,316.139143 120.992827,315.928102 121.414908,315.928102 C121.907337,315.928102 122.399766,315.928102 122.962541,315.787408 C124.158439,315.576367 124.580521,314.802551 124.791561,313.114224 C125.143296,310.581735 125.072949,304.813286 125.072949,299.537265 Z M130.489664,274.84549 L130.489664,293.979857 C130.489664,294.331592 130.56001,294.683327 130.841398,294.82402 C131.755908,295.316449 134.569786,295.738531 137.102276,295.738531 C138.579561,295.738531 140.338235,295.668184 141.815521,294.683327 C143.925929,293.346735 145.332868,290.251469 145.332868,285.749265 C145.332868,278.081449 141.252745,273.860633 134.991868,273.860633 C133.233194,273.860633 131.755908,274.001327 130.911745,274.212367 C130.700704,274.282714 130.489664,274.493755 130.489664,274.84549 Z M167.738368,308.119592 C167.738368,274.564102 167.808715,285.397531 167.738368,273.719939 C167.738368,271.539184 167.949408,270.835714 168.512184,270.835714 C169.004613,270.835714 170.200511,272.242653 170.692939,272.735082 C171.326062,273.438551 181.104286,283.427816 190.952857,293.487429 C196.439919,298.833796 203.474613,306.079531 205.303633,307.767857 L204.529817,278.503531 C204.45947,274.704796 204.037388,273.438551 202.138021,272.946122 C200.942123,272.735082 199.886919,272.664735 199.39449,272.664735 C198.691021,272.664735 198.550327,272.383347 198.550327,272.101959 C198.550327,271.750224 199.113102,271.679878 199.816572,271.679878 C202.84149,271.679878 205.796062,271.890918 206.429184,271.890918 C207.132653,271.890918 209.313408,271.679878 212.056939,271.679878 C212.830755,271.679878 213.041796,271.750224 213.041796,272.101959 C213.041796,272.383347 212.830755,272.594388 212.408674,272.664735 C211.986592,272.735082 211.423817,272.735082 210.65,272.875776 C209.032021,273.22751 208.539592,273.93098 208.539592,278.151796 L208.398898,313.465959 C208.398898,316.983306 208.258204,317.335041 207.765776,317.335041 C207.273347,317.335041 206.569878,316.842612 203.122878,313.606653 C202.84149,313.465959 193.063266,303.758082 186.943082,297.778592 C179.627,290.181122 172.592306,282.865041 170.833633,281.03602 L171.748143,308.541673 C171.888837,313.395612 172.310919,315.224633 174.069592,315.646714 C175.195143,315.928102 176.391041,315.928102 176.953817,315.928102 C177.516592,315.928102 177.79798,316.139143 177.79798,316.420531 C177.79798,316.772265 177.446245,316.912959 176.672429,316.912959 C172.873694,316.912959 170.341204,316.701918 169.848776,316.701918 C169.356347,316.701918 166.753511,316.912959 163.728592,316.912959 C163.09547,316.912959 162.673388,316.842612 162.673388,316.420531 C162.673388,316.139143 162.954776,315.928102 163.658245,315.928102 C164.150674,315.928102 164.92449,315.928102 165.839,315.646714 C167.386633,315.154286 167.738368,313.254918 167.738368,308.119592 Z M240.316868,299.748306 L227.513725,299.748306 C227.16199,299.748306 226.950949,299.959347 226.810256,300.311082 L223.71499,309.104449 C223.011521,311.074163 222.519092,312.973531 222.519092,314.099082 C222.519092,315.365327 223.292909,315.928102 224.840541,315.928102 L225.33297,315.928102 C225.966092,315.928102 226.177133,316.139143 226.177133,316.420531 C226.177133,316.772265 225.614358,316.912959 225.121929,316.912959 C223.574296,316.912959 220.338337,316.701918 219.564521,316.701918 C218.861051,316.701918 215.765786,316.912959 212.811215,316.912959 C212.037398,316.912959 211.685664,316.772265 211.685664,316.420531 C211.685664,316.139143 211.967051,315.928102 212.529827,315.928102 C212.881562,315.928102 213.514684,315.928102 213.936766,315.857755 C216.961684,315.576367 218.157582,313.254918 219.35348,310.300347 L233.422868,273.22751 C234.196684,271.187449 234.407725,270.835714 234.900153,270.835714 C235.251888,270.835714 235.533276,271.117102 236.307092,273.086816 C237.291949,275.408265 246.859133,299.959347 250.587521,308.752714 C252.90897,314.310122 254.949031,315.224633 255.933888,315.576367 C256.848398,315.928102 257.833256,315.928102 258.325684,315.928102 C258.818113,315.928102 259.169847,316.068796 259.169847,316.420531 C259.169847,316.772265 258.88846,316.912959 258.114643,316.912959 C257.411174,316.912959 252.135153,316.912959 247.421909,316.772265 C246.085317,316.701918 245.663235,316.631571 245.663235,316.279837 C245.663235,316.068796 245.874276,315.857755 246.155664,315.787408 C246.437051,315.646714 246.859133,315.29498 246.437051,314.239776 L240.879643,300.100041 C240.738949,299.889 240.598256,299.748306 240.316868,299.748306 Z M228.217194,297.286163 L239.472705,297.286163 C239.754092,297.286163 239.754092,297.075122 239.683745,296.864082 L234.126337,281.317408 C233.774602,280.332551 233.704256,280.332551 233.352521,281.317408 L228.0765,296.864082 C227.935807,297.145469 228.0765,297.286163 228.217194,297.286163 Z M268.303225,288.985224 L268.303225,299.677959 C268.303225,307.767857 268.584613,311.84798 269.780511,312.973531 C270.906062,313.958388 272.313001,314.380469 277.166939,314.380469 C280.262205,314.380469 283.076082,314.380469 284.623715,312.410755 C285.327184,311.355551 285.819613,309.948612 285.960307,308.893408 C286.030654,308.330633 286.171347,308.049245 286.523082,308.049245 C286.80447,308.049245 286.945164,308.260286 286.945164,308.963755 C286.945164,309.667224 286.523082,313.677 286.101001,315.29498 C285.678919,316.701918 285.749266,317.053653 282.372613,317.053653 C277.589021,317.053653 272.313001,316.701918 265.278307,316.701918 C262.956858,316.701918 261.549919,316.912959 259.087776,316.912959 C258.384307,316.912959 257.962225,316.772265 257.962225,316.350184 C257.962225,316.139143 258.173266,315.928102 258.736041,315.928102 C259.298817,315.928102 259.861592,315.928102 260.424368,315.787408 C261.620266,315.576367 262.042347,314.169429 262.253388,312.481102 C262.67547,309.807918 262.534776,304.95398 262.534776,299.537265 L262.534776,288.985224 C262.534776,279.699429 262.534776,278.151796 262.394082,276.252429 C262.253388,274.282714 261.972001,273.016469 259.580205,272.735082 C259.158123,272.664735 258.384307,272.664735 257.821531,272.664735 C257.329103,272.664735 257.047715,272.453694 257.047715,272.172306 C257.047715,271.820571 257.399449,271.679878 258.102919,271.679878 C261.05749,271.679878 265.278307,271.890918 265.419001,271.890918 C266.403858,271.890918 270.695021,271.679878 272.664735,271.679878 C273.368205,271.679878 273.579245,271.890918 273.579245,272.172306 C273.579245,272.453694 273.227511,272.664735 272.805429,272.664735 C272.313001,272.664735 271.609531,272.735082 270.906062,272.805429 C268.936347,273.086816 268.514266,274.212367 268.373572,276.252429 C268.232878,278.151796 268.303225,279.699429 268.303225,288.985224 Z M13.8583469,382.171469 C10.9037755,382.171469 8.1602449,381.819735 5.48706122,380.623837 C4.57255102,380.201755 4.57255102,379.920367 4.57255102,378.232041 C4.57255102,374.996082 4.78359184,372.604286 4.85393878,371.619429 C4.92428571,370.986306 5.06497959,370.634571 5.41671429,370.634571 C5.76844898,370.634571 5.90914286,370.845612 5.90914286,371.338041 C5.90914286,371.760122 5.90914286,372.604286 6.12018367,373.448449 C7.03469388,378.021 11.1851633,379.779673 15.2652857,379.779673 C21.1040816,379.779673 23.9179592,375.769898 23.9179592,372.252551 C23.9179592,368.242776 22.0889388,365.780633 16.9536122,361.630163 L14.1397347,359.449408 C7.38642857,354.032694 5.9794898,350.304306 5.9794898,346.153837 C5.9794898,339.681918 11.1148163,335.320408 18.9936735,335.320408 C21.4558163,335.320408 23.1441429,335.531449 24.6917755,335.883184 C26.0283673,336.164571 26.5911429,336.234918 27.0835714,336.234918 C27.576,336.234918 27.7166939,336.375612 27.7166939,336.657 C27.7166939,336.938388 27.4353061,339.400531 27.4353061,343.480653 C27.4353061,344.535857 27.2946122,344.957939 26.9428776,344.957939 C26.5911429,344.957939 26.5207959,344.676551 26.450449,344.184122 C26.380102,343.551 26.2394082,342.073714 25.6062857,340.877816 C25.254551,340.244694 23.6365714,337.57151 17.7274286,337.57151 C13.5066122,337.57151 10.341,340.104 10.341,344.324816 C10.341,347.631122 12.0293265,349.671184 17.8681224,354.103041 L19.486102,355.369286 C26.8021837,360.997041 28.701551,364.725429 28.701551,369.720061 C28.701551,372.252551 27.6463469,376.754755 23.3551837,379.709327 C20.6116531,381.468 17.235,382.171469 13.8583469,382.171469 Z M50.6146225,371.197347 L50.6146225,366.06202 C50.6146225,362.685367 50.122194,361.419122 49.0669899,359.590102 C48.6449082,358.816286 40.4846633,345.520714 38.3039082,342.495796 C36.4045409,339.822612 35.7010715,338.978449 34.7162144,338.204633 C33.7313572,337.501163 32.816847,337.219776 31.4099082,337.149429 C30.9878266,337.149429 30.6360919,336.938388 30.6360919,336.586653 C30.6360919,336.375612 30.9174797,336.164571 31.4802552,336.164571 C32.6058062,336.164571 37.9521736,336.375612 38.0928674,336.375612 C38.5149491,336.375612 40.836398,336.164571 43.4392348,336.164571 C44.1427042,336.164571 44.353745,336.375612 44.353745,336.586653 C44.353745,336.868041 44.1427042,337.008735 43.5799287,337.149429 C42.5950715,337.360469 42.4543776,337.712204 42.4543776,338.27498 C42.4543776,338.978449 42.8764593,339.681918 43.3688878,340.596429 C44.283398,342.355102 53.569194,357.268653 54.624398,359.027327 C55.7499491,356.565184 63.6288062,343.691694 64.6136633,341.93302 C65.9502552,339.611571 66.2316429,338.978449 66.2316429,338.204633 C66.2316429,337.290122 65.3874797,337.290122 64.6136633,337.149429 C64.0508878,337.079082 63.839847,336.868041 63.839847,336.586653 C63.839847,336.375612 63.9805409,336.164571 64.6840103,336.164571 C66.3723368,336.164571 67.8496225,336.375612 68.9751736,336.375612 C69.8896838,336.375612 73.9698062,336.164571 75.1657042,336.164571 C75.7988266,336.164571 76.0098674,336.375612 76.0098674,336.586653 C76.0098674,336.938388 75.6581327,337.149429 75.1657042,337.149429 C73.6884185,337.219776 72.6332144,337.360469 71.6483572,338.063939 C70.5931531,338.767408 70.1710715,339.400531 69.0455205,340.948163 C64.965398,346.575918 58.141745,358.042469 57.0865409,360.504612 C56.2423776,362.685367 56.3830715,364.233 56.3830715,366.06202 L56.3830715,371.197347 C56.3830715,371.689776 56.3830715,374.292612 56.5237654,376.825102 C56.6644593,378.513429 56.8051531,379.709327 58.9859082,380.131408 C59.9004185,380.342449 61.0963164,380.412796 61.588745,380.412796 C62.1515205,380.412796 62.3625613,380.623837 62.3625613,380.834878 C62.3625613,381.186612 62.1515205,381.397653 61.518398,381.397653 C58.0010511,381.397653 53.6395409,381.186612 53.4285001,381.186612 C53.2878062,381.186612 49.0669899,381.397653 47.0972756,381.397653 C46.3938062,381.397653 46.1124185,381.186612 46.1124185,380.834878 C46.1124185,380.623837 46.3234593,380.412796 46.8158878,380.412796 C47.3786633,380.412796 48.0117858,380.342449 48.5745613,380.201755 C49.7704593,379.990714 50.2628878,378.513429 50.4035817,376.825102 C50.6146225,374.292612 50.6146225,371.760122 50.6146225,371.197347 Z M86.8784696,382.171469 C83.9238981,382.171469 81.1803675,381.819735 78.5071838,380.623837 C77.5926736,380.201755 77.5926736,379.920367 77.5926736,378.232041 C77.5926736,374.996082 77.8037145,372.604286 77.8740614,371.619429 C77.9444083,370.986306 78.0851022,370.634571 78.4368369,370.634571 C78.7885716,370.634571 78.9292655,370.845612 78.9292655,371.338041 C78.9292655,371.760122 78.9292655,372.604286 79.1403063,373.448449 C80.0548165,378.021 84.2052859,379.779673 88.2854083,379.779673 C94.1242042,379.779673 96.9380818,375.769898 96.9380818,372.252551 C96.9380818,368.242776 95.1090614,365.780633 89.9737349,361.630163 L87.1598573,359.449408 C80.4065512,354.032694 78.9996124,350.304306 78.9996124,346.153837 C78.9996124,339.681918 84.1349389,335.320408 92.0137961,335.320408 C94.4759389,335.320408 96.1642655,335.531449 97.7118981,335.883184 C99.04849,336.164571 99.6112655,336.234918 100.103694,336.234918 C100.596123,336.234918 100.736816,336.375612 100.736816,336.657 C100.736816,336.938388 100.455429,339.400531 100.455429,343.480653 C100.455429,344.535857 100.314735,344.957939 99.9630002,344.957939 C99.6112655,344.957939 99.5409185,344.676551 99.4705716,344.184122 C99.4002247,343.551 99.2595308,342.073714 98.6264083,340.877816 C98.2746736,340.244694 96.656694,337.57151 90.7475512,337.57151 C86.5267349,337.57151 83.3611226,340.104 83.3611226,344.324816 C83.3611226,347.631122 85.0494491,349.671184 90.8882451,354.103041 L92.5062247,355.369286 C99.8223063,360.997041 101.721674,364.725429 101.721674,369.720061 C101.721674,372.252551 100.66647,376.754755 96.3753063,379.709327 C93.6317757,381.468 90.2551226,382.171469 86.8784696,382.171469 Z M128.277643,338.908102 L128.277643,364.021959 C128.277643,369.438673 128.34799,374.433306 128.629378,377.036143 C128.840419,378.724469 128.981112,379.709327 130.739786,380.131408 C131.583949,380.342449 132.920541,380.412796 133.483317,380.412796 C134.046092,380.412796 134.32748,380.623837 134.32748,380.834878 C134.32748,381.186612 134.116439,381.397653 133.41297,381.397653 C129.825276,381.397653 125.674806,381.186612 125.393419,381.186612 C125.112031,381.186612 120.961561,381.397653 119.132541,381.397653 C118.358725,381.397653 118.077337,381.256959 118.077337,380.905224 C118.077337,380.694184 118.288378,380.412796 118.851153,380.412796 C119.413929,380.412796 119.83601,380.412796 120.398786,380.342449 C121.735378,380.131408 121.946419,379.287245 122.227806,376.895449 C122.509194,374.362959 122.509194,369.29798 122.509194,364.021959 L122.509194,338.908102 C120.187745,338.908102 116.459357,338.908102 113.64548,338.978449 C109.143276,339.048796 108.158419,339.752265 107.173561,341.229551 C106.540439,342.214408 106.259051,343.058571 106.118357,343.410306 C105.907317,343.902735 105.766623,343.973082 105.485235,343.973082 C105.203847,343.973082 105.1335,343.691694 105.1335,343.339959 C105.063153,342.917878 106.118357,338.27498 106.540439,336.375612 C106.75148,335.531449 106.962521,335.250061 107.173561,335.250061 C107.66599,335.250061 109.002582,335.883184 110.268827,336.023878 C112.73097,336.305265 114.700684,336.375612 114.771031,336.375612 L137.844827,336.375612 C139.814541,336.375612 141.924949,336.234918 142.909806,336.023878 C143.824317,335.812837 144.035357,335.74249 144.246398,335.74249 C144.527786,335.74249 144.66848,336.094224 144.66848,336.375612 C144.66848,338.345327 144.527786,342.988224 144.527786,343.551 C144.527786,344.184122 144.246398,344.395163 144.035357,344.395163 C143.683623,344.395163 143.542929,344.113776 143.542929,343.551 C143.542929,343.339959 143.542929,343.269612 143.472582,342.566143 C143.191194,339.752265 142.276684,339.048796 135.171643,338.978449 C132.498459,338.978449 130.317704,338.908102 128.277643,338.908102 Z M154.974306,364.021959 L154.974306,353.469918 C154.974306,344.254469 154.974306,342.566143 154.833613,340.666776 C154.692919,338.697061 154.20049,337.712204 152.160429,337.290122 C151.738347,337.219776 151.034878,337.149429 150.472102,337.149429 C149.979674,337.149429 149.557592,336.938388 149.557592,336.727347 C149.557592,336.305265 149.909327,336.164571 150.612796,336.164571 C152.019735,336.164571 153.919102,336.305265 157.858531,336.375612 C158.210266,336.375612 170.732021,336.375612 172.13896,336.305265 C173.545898,336.234918 174.319715,336.164571 174.88249,335.953531 C175.304572,335.812837 175.374919,335.74249 175.656306,335.74249 C175.797,335.74249 175.937694,335.883184 175.937694,336.234918 C175.937694,336.657 175.515613,337.641857 175.374919,339.400531 C175.304572,340.596429 175.234225,341.72198 175.163878,343.058571 C175.163878,343.691694 175.023184,344.113776 174.671449,344.113776 C174.319715,344.113776 174.179021,343.832388 174.179021,343.339959 C174.108674,342.284755 173.897633,341.581286 173.686592,341.088857 C173.264511,339.681918 172.631388,339.18949 169.114041,338.978449 C168.199531,338.908102 161.235184,338.837755 161.09449,338.837755 C160.883449,338.837755 160.742755,338.978449 160.742755,339.400531 L160.742755,355.369286 C160.742755,355.791367 160.813102,356.072755 161.164837,356.072755 C162.009,356.072755 169.184388,356.002408 170.661674,355.861714 C172.279653,355.791367 173.334857,355.580327 173.897633,354.80651 C174.179021,354.384429 174.390062,354.243735 174.671449,354.243735 C174.812143,354.243735 174.952837,354.314082 174.952837,354.665816 C174.952837,355.017551 174.671449,356.354143 174.460408,358.394204 C174.249368,360.363918 174.249368,361.770857 174.179021,362.685367 C174.108674,363.248143 173.96798,363.459184 173.686592,363.459184 C173.334857,363.459184 173.264511,363.037102 173.264511,362.544673 C173.264511,362.122592 173.194164,361.419122 173.05347,360.856347 C172.772082,359.941837 172.35,358.95698 169.676817,358.745939 C168.058837,358.605245 162.360735,358.464551 161.235184,358.464551 C160.813102,358.464551 160.742755,358.675592 160.742755,358.95698 L160.742755,364.092306 C160.742755,366.273061 160.672408,372.463592 160.742755,373.65949 C160.883449,376.262327 161.235184,377.598918 162.71247,378.232041 C163.767674,378.724469 165.456,378.865163 167.847796,378.865163 C169.184388,378.865163 171.43549,378.93551 173.194164,378.443082 C175.304572,377.809959 175.797,376.40302 176.359776,373.800184 C176.50047,373.096714 176.711511,372.815327 176.992898,372.815327 C177.41498,372.815327 177.41498,373.448449 177.41498,373.870531 C177.41498,374.362959 176.852204,378.794816 176.641164,379.990714 C176.359776,381.397653 175.867347,381.538347 173.545898,381.538347 C168.903,381.538347 166.933286,381.397653 164.471143,381.397653 C162.009,381.327306 158.773041,381.186612 156.170204,381.186612 C154.552225,381.186612 153.215633,381.397653 151.527306,381.397653 C150.894184,381.397653 150.542449,381.256959 150.542449,380.905224 C150.542449,380.623837 150.823837,380.412796 151.175572,380.412796 C151.597653,380.412796 152.090082,380.342449 152.582511,380.201755 C153.848755,379.920367 154.692919,379.005857 154.833613,374.644347 C154.90396,372.252551 154.974306,369.368327 154.974306,364.021959 Z M232.813194,337.079082 L237.245051,373.65949 C237.456092,375.347816 237.878174,379.287245 240.621705,379.920367 C241.817602,380.201755 243.224541,380.342449 244.209398,380.412796 C244.490786,380.412796 245.123909,380.483143 245.123909,380.834878 C245.123909,381.186612 244.842521,381.397653 244.068705,381.397653 C242.80246,381.397653 235.20499,381.116265 232.953888,380.975571 C231.406256,380.834878 230.84348,380.694184 230.84348,380.342449 C230.84348,380.131408 231.124868,379.85002 231.476602,379.709327 C231.828337,379.568633 232.039378,378.724469 231.898684,377.739612 L228.803419,347.631122 L213.889868,377.880306 C212.553276,380.623837 212.342235,381.256959 211.709113,381.256959 C211.287031,381.256959 210.935296,380.623837 209.598705,378.232041 C208.473153,376.19198 202.845398,364.936469 202.423317,364.303347 C202.001235,363.459184 195.107235,349.811878 194.54446,348.334592 L191.941623,375.418163 C191.871276,376.40302 191.871276,377.036143 191.871276,378.091347 C191.871276,378.865163 192.223011,379.920367 193.629949,380.201755 C194.403766,380.342449 194.896194,380.342449 195.599664,380.412796 C196.162439,380.483143 196.303133,380.694184 196.303133,380.834878 C196.303133,381.327306 195.881051,381.397653 195.107235,381.397653 C192.856133,381.397653 189.831215,381.186612 189.268439,381.186612 C188.56497,381.186612 185.610398,381.397653 183.851725,381.397653 C183.218602,381.397653 182.796521,381.327306 182.796521,380.834878 C182.796521,380.694184 183.077909,380.412796 183.711031,380.412796 C184.20346,380.412796 184.273807,380.412796 185.047623,380.342449 C186.735949,380.201755 187.369072,378.513429 187.720807,375.699551 L192.434051,337.079082 C192.574745,335.883184 192.856133,335.320408 193.207868,335.320408 C193.559602,335.320408 193.770643,335.531449 194.263072,336.445959 L213.116051,372.95602 L231.054521,336.516306 C231.406256,335.74249 231.687643,335.320408 232.109725,335.320408 C232.531807,335.320408 232.742847,335.953531 232.813194,337.079082 Z M258.384307,382.171469 C255.429735,382.171469 252.686205,381.819735 250.013021,380.623837 C249.098511,380.201755 249.098511,379.920367 249.098511,378.232041 C249.098511,374.996082 249.309552,372.604286 249.379898,371.619429 C249.450245,370.986306 249.590939,370.634571 249.942674,370.634571 C250.294409,370.634571 250.435103,370.845612 250.435103,371.338041 C250.435103,371.760122 250.435103,372.604286 250.646143,373.448449 C251.560654,378.021 255.711123,379.779673 259.791245,379.779673 C265.630041,379.779673 268.443919,375.769898 268.443919,372.252551 C268.443919,368.242776 266.614898,365.780633 261.479572,361.630163 L258.665694,359.449408 C251.912388,354.032694 250.505449,350.304306 250.505449,346.153837 C250.505449,339.681918 255.640776,335.320408 263.519633,335.320408 C265.981776,335.320408 267.670103,335.531449 269.217735,335.883184 C270.554327,336.164571 271.117103,336.234918 271.609531,336.234918 C272.10196,336.234918 272.242654,336.375612 272.242654,336.657 C272.242654,336.938388 271.961266,339.400531 271.961266,343.480653 C271.961266,344.535857 271.820572,344.957939 271.468837,344.957939 C271.117103,344.957939 271.046756,344.676551 270.976409,344.184122 C270.906062,343.551 270.765368,342.073714 270.132245,340.877816 C269.780511,340.244694 268.162531,337.57151 262.253388,337.57151 C258.032572,337.57151 254.86696,340.104 254.86696,344.324816 C254.86696,347.631122 256.555286,349.671184 262.394082,354.103041 L264.012062,355.369286 C271.328143,360.997041 273.227511,364.725429 273.227511,369.720061 C273.227511,372.252551 272.172307,376.754755 267.881143,379.709327 C265.137613,381.468 261.76096,382.171469 258.384307,382.171469 Z" id="open-journal-systems" fill="#000000" fill-rule="nonzero"></path>
    <path d="M4.54747351e-13,177.039796 L152.340204,177.039796" stroke="#000000" id="Line" stroke-width="5" stroke-linecap="square"></path>
    <path d="M188.490714,177.039796 L286.546531,177.039796" stroke="#000000" id="Line" stroke-width="5" stroke-linecap="square"></path>
    <path d="M75.8183673,153.2 C22.2765306,153.2 6.82121026e-13,111.578061 6.82121026e-13,76.4045918 C6.82121026e-13,44.7484694 23.0581633,8.52651283e-14 76.9908163,8.52651283e-14 C120.957653,8.52651283e-14 153.786224,27.7479592 153.786224,73.2780612 C153.786224,117.04949 122.911735,153.2 75.8183673,153.2 Z M81.0943878,145.77449 C98.6811224,145.77449 135.027041,135.613265 135.027041,78.7494898 C135.027041,31.8515306 106.497449,6.64387755 75.6229592,6.64387755 C42.9897959,6.64387755 18.5637755,28.1387755 18.5637755,70.9331633 C18.5637755,116.463265 45.9209184,145.77449 81.0943878,145.77449 Z M190.855153,59.4040816 L190.855153,106.302041 C190.855153,137.958163 190.855153,150.073469 184.992908,163.947449 C180.889337,173.717857 172.291378,182.902041 156.463316,193.844898 C153.92301,195.603571 150.79648,197.753061 148.842398,198.730102 C148.451582,198.92551 148.060765,199.120918 147.474541,199.120918 C146.888316,199.120918 146.106684,198.730102 146.106684,197.948469 C146.106684,196.77602 147.083724,196.189796 148.842398,195.017347 C151.187296,193.64949 153.92301,191.304592 155.681684,189.545918 C168.383214,176.64898 174.440867,166.292347 174.440867,115.877041 L174.440867,59.4040816 C174.440867,28.9204082 174.440867,23.4489796 174.050051,17.1959184 C173.659235,10.5520408 172.095969,7.4255102 165.6475,6.05765306 C164.084235,5.66683673 161.34852,5.47142857 159.589847,5.47142857 C158.22199,5.47142857 157.440357,4.88520408 157.440357,4.10357143 C157.440357,3.32193878 158.22199,2.73571429 160.37148,2.73571429 C169.164847,2.73571429 181.670969,3.32193878 182.64801,3.32193878 C183.625051,3.32193878 195.935765,2.73571429 201.79801,2.73571429 C203.9475,2.73571429 204.924541,3.12653061 204.924541,4.29897959 C204.924541,5.08061224 203.9475,5.47142857 202.775051,5.47142857 C201.407194,5.47142857 199.843929,5.66683673 198.085255,5.8622449 C192.809235,6.44846939 191.636786,10.3566327 191.245969,17.1959184 C190.855153,23.4489796 190.855153,28.9204082 190.855153,59.4040816 Z M240.430204,153.2 C231.24602,153.2 222.257245,151.832143 214.24551,147.92398 C211.509796,146.556122 211.314388,145.77449 211.314388,140.498469 C211.314388,130.728061 212.09602,122.911735 212.291429,119.785204 C212.486837,117.635714 212.877653,116.658673 213.854694,116.658673 C215.027143,116.658673 215.222551,117.244898 215.222551,118.808163 C215.222551,120.566837 215.222551,123.302551 215.808776,126.038265 C218.739898,140.498469 231.636837,145.969898 244.729184,145.969898 C263.488367,145.969898 272.672551,132.486735 272.672551,119.980612 C272.672551,106.497449 267.005714,98.6811224 250.200612,84.8071429 L241.407245,77.5770408 C220.69398,60.5765306 216.004184,48.4612245 216.004184,35.1734694 C216.004184,14.2647959 231.636837,-2.84217094e-13 256.453673,-2.84217094e-13 C264.074592,-2.84217094e-13 269.741429,0.781632653 274.626633,1.95408163 C278.339388,2.73571429 279.902653,2.93112245 281.465918,2.93112245 C283.029184,2.93112245 283.42,3.32193878 283.42,4.29897959 C283.42,5.27602041 282.638367,11.7244898 282.638367,25.0122449 C282.638367,28.1387755 282.247551,29.5066327 281.27051,29.5066327 C280.098061,29.5066327 279.902653,28.5295918 279.707245,26.9663265 C279.511837,24.6214286 278.339388,19.3454082 277.166939,17.1959184 C275.99449,15.0464286 270.718469,6.83928571 252.740918,6.83928571 C239.257755,6.83928571 228.705714,15.2418367 228.705714,29.5066327 C228.705714,40.644898 233.786327,47.6795918 252.54551,62.3352041 L258.016939,66.6341837 C281.075102,84.8071429 286.546531,96.922449 286.546531,112.555102 C286.546531,120.566837 283.42,135.417857 269.936837,144.992857 C261.534286,150.855102 250.982245,153.2 240.430204,153.2 Z" id="OJS" fill="#000000" fill-rule="nonzero"></path>
</svg>
