<?xml version="1.0" encoding="UTF-8"?>
<svg width="692px" height="330px" viewBox="0 0 692 330" version="1.1" xmlns="http://www.w3.org/2000/svg" xmlns:xlink="http://www.w3.org/1999/xlink">
    <title>Slash - OMP</title>
    <desc>An official PKP logotype.</desc>
    <g id="Final" stroke="none" stroke-width="1" fill="none" fill-rule="evenodd">
        <g id="Artboard" transform="translate(-963.000000, -3923.000000)" fill="#000000" fill-rule="nonzero">
            <g id="Slash---OMP" transform="translate(963.520691, 3923.000000)">
                <g id="OMP/PKP" transform="translate(0.116648, 214.000000)">
                    <path d="M57.2550457,115.690608 C16.8223588,115.690608 0,84.2593584 0,57.6977393 C0,33.7922821 17.412617,0 58.140433,0 C91.3424569,0 116.133301,20.9541662 116.133301,55.3367065 C116.133301,88.3911659 92.8181024,115.690608 57.2550457,115.690608 Z M61.2392885,110.083155 C74.5200981,110.083155 101.967105,102.409798 101.967105,59.4685139 C101.967105,24.0530218 80.4226801,5.01719472 57.1074811,5.01719472 C32.4642012,5.01719472 14.0186323,21.2492953 14.0186323,53.5659319 C14.0186323,87.9484722 34.6776694,110.083155 61.2392885,110.083155 Z M232.000987,3.98424287 L241.887811,94.588877 C242.47807,99.9012008 243.511022,108.164816 249.856297,110.230719 C254.135669,111.5588 257.529654,111.5588 259.005299,111.5588 C259.743122,111.5588 260.628509,111.706365 260.628509,112.444188 C260.628509,113.329575 260.185816,113.624704 258.415041,113.624704 C255.168621,113.624704 238.346262,113.18201 232.886374,112.739317 C229.492389,112.444188 228.754566,112.001494 228.754566,111.263671 C228.754566,110.673413 229.049696,110.525848 229.787518,110.230719 C230.82047,109.788026 230.672906,107.574557 230.377777,104.918396 L223.294678,27.8897001 L186.69867,105.508654 C183.599814,112.001494 183.15712,113.329575 181.829039,113.329575 C180.796087,113.329575 180.058265,111.853929 177.254538,106.541606 C173.41786,99.3109426 160.727309,73.7822753 159.989486,72.3066298 C158.661405,69.6504679 141.691482,33.2020239 140.068272,29.217781 L134.018125,98.7206844 C133.87056,101.081717 133.722996,103.147621 133.722996,105.656218 C133.722996,109.345332 135.49377,110.525848 137.707239,110.968542 C140.215836,111.5588 142.134175,111.5588 143.019563,111.5588 C143.90495,111.5588 144.495208,111.853929 144.495208,112.296623 C144.495208,113.329575 143.757385,113.624704 142.28174,113.624704 C136.821851,113.624704 129.296059,113.18201 128.115543,113.18201 C126.787462,113.18201 119.704364,113.624704 115.720121,113.624704 C114.244475,113.624704 113.211523,113.477139 113.211523,112.444188 C113.211523,111.853929 113.949346,111.5588 114.687169,111.5588 C115.867685,111.5588 116.900637,111.5588 119.114105,111.116107 C123.983735,110.230719 124.278865,104.918396 125.016687,98.868249 L135.641335,2.95129101 C135.7889,1.32808096 136.379158,0 137.264545,0 C138.149932,0 138.740191,0.590258203 139.478013,2.21346826 L184.632766,95.0315706 L228.016744,2.36103281 C228.607002,1.03295185 229.19726,0 230.230212,0 C231.263164,0 231.705857,1.18051641 232.000987,3.98424287 Z M269.511895,70.8309843 L269.511895,44.8596234 C269.511895,21.8395535 269.511895,17.7077461 269.216766,12.9856805 C268.921637,7.96848574 267.741121,5.60745293 262.871491,4.57450107 C261.690974,4.27937197 259.182377,4.13180742 257.854296,4.13180742 C257.264038,4.13180742 256.673779,3.83667832 256.673779,3.24642012 C256.673779,2.36103281 257.411602,2.06590371 259.034812,2.06590371 C265.675217,2.06590371 274.52909,2.50859736 275.709606,2.50859736 C278.956027,2.50859736 287.514771,2.06590371 294.30274,2.06590371 C312.748309,2.06590371 319.388713,8.26361484 321.749746,10.4770831 C324.996166,13.5759387 329.127974,20.2163434 329.127974,29.8080392 C329.127974,48.9914308 313.781261,63.1576277 292.827094,63.1576277 C292.089272,63.1576277 290.466062,63.1576277 289.728239,63.0100631 C288.990416,63.0100631 288.105029,62.714934 288.105029,61.9771113 C288.105029,60.7965949 288.990416,60.6490303 292.089272,60.6490303 C306.403033,60.6490303 317.617939,50.90977 317.617939,35.4154922 C317.617939,31.7263784 317.175245,21.8395535 309.354324,13.8710678 C301.533403,5.90258203 292.531965,6.49284023 289.137981,6.49284023 C286.629383,6.49284023 284.120786,6.78796933 282.792705,7.37822753 C281.907318,7.67335664 281.612189,8.70630849 281.612189,10.181954 L281.612189,70.8309843 C281.612189,84.9971812 281.612189,96.6547807 282.350011,102.852492 C282.792705,107.131864 283.678092,110.378284 288.105029,110.968542 C290.170932,111.263671 293.417353,111.5588 294.745434,111.5588 C295.630821,111.5588 295.92595,112.001494 295.92595,112.444188 C295.92595,113.18201 295.188127,113.624704 293.564917,113.624704 C285.448867,113.624704 276.1523,113.18201 275.414477,113.18201 C274.971784,113.18201 265.675217,113.624704 261.248281,113.624704 C259.62507,113.624704 258.887248,113.329575 258.887248,112.444188 C258.887248,112.001494 259.182377,111.5588 260.067764,111.5588 C261.395845,111.5588 263.16662,111.263671 264.494701,110.968542 C267.445992,110.378284 268.183814,107.131864 268.774073,102.852492 C269.511895,96.6547807 269.511895,84.9971812 269.511895,70.8309843 Z" id="OMP"></path>
                    <path d="M358.484466,110.91837 L407.508361,2.1691989 C408.37604,0.289226519 408.80988,0.14461326 409.388333,0.14461326 C410.111399,0.14461326 413.003664,1.59074586 413.726731,2.31381215 C414.449797,3.03687845 414.305184,3.47071823 413.726731,4.77223757 L364.413609,114.389088 C363.835156,115.545994 363.54593,115.690608 363.11209,115.690608 C362.67825,115.690608 359.207532,113.955249 358.484466,113.232182 C357.906013,112.653729 357.906013,112.075276 358.484466,110.91837 Z" id="/"></path>
                    <path d="M456.008765,70.0435726 L456.008765,44.0080849 C456.008765,20.9311753 456.008765,16.7891659 455.712907,12.0554408 C455.417049,7.02585796 454.233618,4.65899544 449.351964,3.62349309 C448.168533,3.32763527 445.653741,3.17970636 444.322381,3.17970636 C443.730665,3.17970636 443.13895,2.88384855 443.13895,2.29213292 C443.13895,1.40455947 443.878594,1.10870166 445.505812,1.10870166 C452.162613,1.10870166 461.038347,1.55248838 462.221779,1.55248838 C465.476215,1.55248838 474.056091,1.10870166 480.860821,1.10870166 C499.351935,1.10870166 506.008735,7.32171578 508.375598,9.54064939 C511.630034,12.6471565 515.772043,19.3039573 515.772043,28.9193363 C515.772043,48.1500943 500.387437,62.3512694 479.381532,62.3512694 C478.641887,62.3512694 477.014669,62.3512694 476.275025,62.2033405 C475.53538,62.2033405 474.647807,61.9074827 474.647807,61.1678381 C474.647807,59.9844069 475.53538,59.836478 478.641887,59.836478 C492.990992,59.836478 504.233588,50.0731701 504.233588,34.5406348 C504.233588,30.8424121 503.789802,20.9311753 495.94957,12.9430143 C488.109338,4.95485325 479.085674,5.54656889 475.683309,5.54656889 C473.168518,5.54656889 470.653726,5.8424267 469.322366,6.43414233 C468.434793,6.73000015 468.138935,7.7655025 468.138935,9.24479158 L468.138935,70.0435726 C468.138935,84.2447477 468.138935,95.9311314 468.87858,102.144146 C469.322366,106.434084 470.20994,109.68852 474.647807,110.280235 C476.718812,110.576093 479.973248,110.871951 481.304608,110.871951 C482.192181,110.871951 482.488039,111.315738 482.488039,111.759525 C482.488039,112.499169 481.748395,112.942956 480.121177,112.942956 C471.985087,112.942956 462.665565,112.499169 461.925921,112.499169 C461.482134,112.499169 452.162613,112.942956 447.724746,112.942956 C446.097528,112.942956 445.357883,112.647098 445.357883,111.759525 C445.357883,111.315738 445.653741,110.871951 446.541315,110.871951 C447.872675,110.871951 449.647822,110.576093 450.979182,110.280235 C453.93776,109.68852 454.677404,106.434084 455.26912,102.144146 C456.008765,95.9311314 456.008765,84.2447477 456.008765,70.0435726 Z M540.875579,44.0080849 L540.875579,53.4755349 C545.461375,49.0376677 565.579706,27.8838339 574.60337,18.5643128 C583.479104,9.39272048 584.07082,7.91343141 584.07082,6.13828452 C584.07082,4.95485325 583.331175,3.77142199 582.147744,3.32763527 C581.112242,2.88384855 580.816384,2.58799073 580.816384,1.9962751 C580.816384,1.40455947 581.703957,1.10870166 583.035318,1.10870166 C587.325256,1.10870166 586.881469,1.55248838 591.911052,1.55248838 C596.496848,1.55248838 605.224654,1.10870166 607.591516,1.10870166 C609.662521,1.10870166 610.106308,1.55248838 610.106308,2.14420401 C610.106308,2.73591964 609.81045,3.03177746 608.47909,3.17970636 C605.66844,3.47556418 603.00572,4.06727981 600.934715,4.95485325 C597.236493,6.43414233 594.425843,8.20928922 585.550109,16.7891659 C572.532365,29.363123 555.66847,46.0790896 551.822318,50.3690279 C561.141839,60.5761225 588.0649,87.9429704 595.017559,94.4518424 C607.14773,105.842368 612.325241,109.096804 619.425829,110.428164 C620.757189,110.724022 622.236478,110.871951 623.715767,110.871951 C624.899198,110.871951 625.786772,111.167809 625.786772,111.907453 C625.786772,112.647098 625.195056,112.942956 623.567838,112.942956 L612.621099,112.942956 C599.751284,112.942956 596.348919,111.315738 589.396261,105.842368 C580.520526,98.8897096 553.893323,70.3394304 540.875579,54.8068951 L540.875579,70.0435726 C540.875579,84.2447477 540.875579,95.9311314 541.615223,102.144146 C542.05901,106.434084 542.946584,109.68852 547.384451,110.280235 C549.455456,110.576093 552.414034,110.871951 553.301607,110.871951 C554.632967,110.871951 555.076754,111.463667 555.076754,111.907453 C555.076754,112.647098 554.485038,112.942956 552.85782,112.942956 C544.72173,112.942956 535.402209,112.499169 534.662565,112.499169 C533.92292,112.499169 525.195115,112.942956 520.757247,112.942956 C519.130029,112.942956 518.390385,112.795027 518.390385,111.907453 C518.390385,111.463667 518.686243,110.871951 520.017603,110.871951 C520.905176,110.871951 522.532394,110.724022 523.863755,110.428164 C526.822333,109.836449 527.709906,106.434084 528.301622,102.144146 C529.041266,95.9311314 529.041266,84.2447477 529.041266,70.0435726 L529.041266,44.0080849 C529.041266,20.9311753 529.041266,16.7891659 528.745408,12.0554408 C528.449551,7.02585796 526.970262,4.51106653 523.715826,3.77142199 C522.088608,3.32763527 519.425887,3.17970636 518.390385,3.17970636 C517.206954,3.17970636 516.763167,2.88384855 516.763167,2.29213292 C516.763167,1.40455947 517.502811,1.10870166 519.130029,1.10870166 C524.011683,1.10870166 533.92292,1.55248838 534.662565,1.55248838 C535.402209,1.55248838 544.72173,1.10870166 549.159598,1.10870166 C550.786816,1.10870166 551.52646,1.40455947 551.52646,2.14420401 C551.52646,2.73591964 551.230602,3.03177746 549.899242,3.17970636 C548.272024,3.32763527 548.124095,3.32763527 546.644806,3.47556418 C542.650726,3.9193509 541.467295,6.87792905 541.171437,12.0554408 C540.875579,16.7891659 540.875579,20.9311753 540.875579,44.0080849 Z M631.215763,70.0435726 L631.215763,44.0080849 C631.215763,20.9311753 631.215763,16.7891659 630.919905,12.0554408 C630.624047,7.02585796 629.440616,4.65899544 624.558962,3.62349309 C623.375531,3.32763527 620.860739,3.17970636 619.529379,3.17970636 C618.937663,3.17970636 618.345948,2.88384855 618.345948,2.29213292 C618.345948,1.40455947 619.085592,1.10870166 620.71281,1.10870166 C627.369611,1.10870166 636.245346,1.55248838 637.428777,1.55248838 C640.683213,1.55248838 649.263089,1.10870166 656.067819,1.10870166 C674.558933,1.10870166 681.215734,7.32171578 683.582596,9.54064939 C686.837032,12.6471565 690.979041,19.3039573 690.979041,28.9193363 C690.979041,48.1500943 675.594435,62.3512694 654.58853,62.3512694 C653.848886,62.3512694 652.221668,62.3512694 651.482023,62.2033405 C650.742379,62.2033405 649.854805,61.9074827 649.854805,61.1678381 C649.854805,59.9844069 650.742379,59.836478 653.848886,59.836478 C668.19799,59.836478 679.440587,50.0731701 679.440587,34.5406348 C679.440587,30.8424121 678.9968,20.9311753 671.156568,12.9430143 C663.316336,4.95485325 654.292672,5.54656889 650.890307,5.54656889 C648.375516,5.54656889 645.860725,5.8424267 644.529364,6.43414233 C643.641791,6.73000015 643.345933,7.7655025 643.345933,9.24479158 L643.345933,70.0435726 C643.345933,84.2447477 643.345933,95.9311314 644.085578,102.144146 C644.529364,106.434084 645.416938,109.68852 649.854805,110.280235 C651.92581,110.576093 655.180246,110.871951 656.511606,110.871951 C657.399179,110.871951 657.695037,111.315738 657.695037,111.759525 C657.695037,112.499169 656.955393,112.942956 655.328175,112.942956 C647.192085,112.942956 637.872564,112.499169 637.132919,112.499169 C636.689132,112.499169 627.369611,112.942956 622.931744,112.942956 C621.304526,112.942956 620.564881,112.647098 620.564881,111.759525 C620.564881,111.315738 620.860739,110.871951 621.748313,110.871951 C623.079673,110.871951 624.85482,110.576093 626.18618,110.280235 C629.144758,109.68852 629.884403,106.434084 630.476118,102.144146 C631.215763,95.9311314 631.215763,84.2447477 631.215763,70.0435726 Z" id="PKP"></path>
                </g>
                <path d="M276.759892,32.9246231 L298.348697,32.9246231 C302.715685,32.9246231 306.252277,31.7957902 308.958579,29.5380905 C311.664882,27.2803907 313.018013,23.831179 313.018013,19.1903518 C313.018013,14.5495245 311.664882,11.1003128 308.958579,8.84261307 C306.252277,6.58491333 302.715685,5.4560804 298.348697,5.4560804 L276.759892,5.4560804 L276.759892,32.9246231 Z M270.486222,-1.8189894e-12 L299.732594,-1.8189894e-12 C302.684924,-1.8189894e-12 305.360433,0.42331235 307.759201,1.26994975 C310.157969,2.11658715 312.218419,3.37084596 313.940611,5.03276382 C315.662803,6.69468168 316.985181,8.71717401 317.907785,11.1003015 C318.830388,13.483429 319.291682,16.1800855 319.291682,19.1903518 C319.291682,22.2006181 318.830388,24.8972745 317.907785,27.280402 C316.985181,29.6635295 315.662803,31.6860218 313.940611,33.3479397 C312.218419,35.0098576 310.157969,36.2641164 307.759201,37.1107538 C305.360433,37.9573912 302.684924,38.3807035 299.732594,38.3807035 L276.759892,38.3807035 L276.759892,67.1662312 L270.486222,67.1662312 L270.486222,-1.8189894e-12 Z M329.036629,-1.39266376e-12 L334.848999,-1.39266376e-12 L334.848999,67.1662312 L329.036629,67.1662312 L329.036629,-1.39266376e-12 Z M346.900442,33.4890452 C347.084963,30.6669206 347.669269,28.2211159 348.653379,26.1515578 C349.637489,24.0819997 350.975243,22.3887503 352.666682,21.0717588 C354.358121,19.7547673 356.341688,18.7827167 358.617443,18.1555779 C360.893197,17.5284391 363.414941,17.2148744 366.18275,17.2148744 C368.273984,17.2148744 370.365186,17.4186914 372.45642,17.8263317 C374.547654,18.2339719 376.423585,19.0022054 378.084271,20.1310553 C379.744956,21.2599051 381.098087,22.8434069 382.143704,24.881608 C383.189321,26.9198092 383.712121,29.5694309 383.712121,32.8305528 L383.712121,58.6058291 C383.712121,60.9889566 384.849982,62.1805025 387.125736,62.1805025 C387.802311,62.1805025 388.417371,62.0550766 388.970933,61.8042211 L388.970933,66.7899497 C388.294357,66.9153775 387.694674,67.0094469 387.171866,67.0721608 C386.649057,67.1348747 385.987868,67.1662312 385.188279,67.1662312 C383.712114,67.1662312 382.528125,66.9624141 381.636275,66.5547739 C380.744425,66.1471336 380.052483,65.5670389 379.560428,64.8144724 C379.068373,64.0619058 378.745467,63.1682464 378.5917,62.1334673 C378.437933,61.0986883 378.36105,59.9541771 378.36105,58.6998995 L378.176531,58.6998995 C377.130914,60.2677465 376.069936,61.6631095 374.993566,62.8860302 C373.917195,64.1089508 372.717829,65.1280361 371.395432,65.9433166 C370.073034,66.758597 368.566138,67.3857264 366.874699,67.8247236 C365.18326,68.2637208 363.16894,68.4832161 360.831679,68.4832161 C358.617432,68.4832161 356.541606,68.2166861 354.604139,67.6836181 C352.666673,67.1505501 350.975259,66.3039254 349.529848,65.1437186 C348.084436,63.9835118 346.946576,62.5097577 346.116233,60.7224121 C345.28589,58.9350664 344.870725,56.8185047 344.870725,54.3726633 C344.870725,50.9861137 345.608797,48.336492 347.084962,46.4237186 C348.561127,44.5109452 350.51394,43.0528693 352.943462,42.0494472 C355.372983,41.0460251 358.109998,40.3405046 361.154588,39.9328643 C364.199179,39.5252241 367.289853,39.1332682 370.426703,38.7569849 C371.656841,38.6315572 372.733195,38.4747748 373.655798,38.2866332 C374.578401,38.0984915 375.347225,37.7692486 375.962294,37.2988945 C376.577363,36.8285404 377.054034,36.1857327 377.392322,35.3704523 C377.73061,34.5551718 377.899751,33.4890518 377.899751,32.1720603 C377.899751,30.1652161 377.576845,28.5190014 376.931023,27.2333668 C376.2852,25.9477323 375.393364,24.928647 374.255487,24.1760804 C373.11761,23.4235138 371.795232,22.9061321 370.288313,22.6239196 C368.781395,22.3417071 367.166864,22.200603 365.444671,22.200603 C361.754259,22.200603 358.740467,23.0942714 356.403206,24.881608 C354.065945,26.6689537 352.835826,29.5380707 352.712812,33.4890452 L346.900442,33.4890452 Z M377.899751,40.638392 L377.715231,40.638392 C377.34619,41.3282447 376.638872,41.8299482 375.593255,42.1435176 C374.547638,42.457087 373.625049,42.6765823 372.825459,42.8020101 C370.365184,43.2410072 367.828064,43.6329631 365.214022,43.9778894 C362.59998,44.3228158 360.216624,44.8401976 358.063884,45.5300503 C355.911143,46.2199029 354.142847,47.2076318 352.758942,48.4932663 C351.375038,49.7789009 350.683096,51.6132544 350.683096,53.9963819 C350.683096,55.5015151 350.975249,56.8341651 351.559564,57.9943719 C352.14388,59.1545787 352.92808,60.1579857 353.91219,61.0046231 C354.8963,61.8512605 356.03416,62.4940682 357.325805,62.9330653 C358.617449,63.3720625 359.939827,63.5915578 361.292978,63.5915578 C363.507226,63.5915578 365.629181,63.2466366 367.658908,62.5567839 C369.688635,61.8669312 371.456931,60.8635242 372.963849,59.5465327 C374.470767,58.2295412 375.670138,56.6303612 376.561983,54.7489447 C377.453833,52.8675283 377.899751,50.7352883 377.899751,48.3521608 L377.899751,40.638392 Z M406.004407,18.6259296 L415.691691,18.6259296 L415.691691,23.6116583 L406.004407,23.6116583 L406.004407,56.3481407 C406.004407,58.292271 406.265808,59.8130598 406.788616,60.9105528 C407.311424,62.0080457 408.618426,62.6194969 410.70966,62.7449246 C412.370345,62.7449246 414.031006,62.6508552 415.691691,62.4627136 L415.691691,67.4484422 C414.830595,67.4484422 413.969512,67.4797987 413.108416,67.5425126 C412.247319,67.6052264 411.386236,67.6365829 410.52514,67.6365829 C406.650207,67.6365829 403.943945,66.8683494 402.406273,65.3318593 C400.868601,63.7953692 400.13053,60.9576086 400.192037,56.8184925 L400.192037,23.6116583 L391.888651,23.6116583 L391.888651,18.6259296 L400.192037,18.6259296 L400.192037,4.04502513 L406.004407,4.04502513 L406.004407,18.6259296 Z M443.888608,23.6116583 L434.478103,23.6116583 L434.478103,67.1662312 L428.665733,67.1662312 L428.665733,23.6116583 L420.546866,23.6116583 L420.546866,18.6259296 L428.665733,18.6259296 L428.665733,14.2046231 C428.665733,12.135065 428.819497,10.2223203 429.127032,8.46633166 C429.434566,6.71034298 430.018873,5.2052324 430.879969,3.95095477 C431.741065,2.69667715 432.925055,1.72462656 434.431973,1.03477387 C435.938892,0.344921174 437.860952,-1.39266376e-12 440.198214,-1.39266376e-12 C441.05931,-1.39266376e-12 441.858887,0.0313564704 442.59697,0.0940703518 C443.335052,0.156784233 444.165383,0.250853644 445.087986,0.376281407 L445.087986,5.4560804 C444.288396,5.33065264 443.550325,5.22090499 442.873749,5.12683417 C442.197174,5.03276335 441.520608,4.98572864 440.844033,4.98572864 C439.244854,4.98572864 438.014735,5.23658041 437.153639,5.73829146 C436.292542,6.24000251 435.662106,6.91416662 435.262312,7.76080402 C434.862517,8.60744142 434.63187,9.59517024 434.570363,10.7240201 C434.508856,11.85287 434.478103,13.0757723 434.478103,14.3927638 L434.478103,18.6259296 L443.888608,18.6259296 L443.888608,23.6116583 Z M470.978406,22.200603 C468.210596,22.200603 465.781111,22.796376 463.689878,23.9879397 C461.598644,25.1795034 459.861101,26.747327 458.477196,28.6914573 C457.093291,30.6355876 456.04769,32.8462188 455.340361,35.3234171 C454.633032,37.8006154 454.279373,40.3248113 454.279373,42.8960804 C454.279373,45.4673495 454.633032,47.9915454 455.340361,50.4687437 C456.04769,52.945942 457.093291,55.1565732 458.477196,57.1007035 C459.861101,59.0448338 461.598644,60.6126574 463.689878,61.8042211 C465.781111,62.9957849 468.210596,63.5915578 470.978406,63.5915578 C473.746215,63.5915578 476.1757,62.9957849 478.266934,61.8042211 C480.358167,60.6126574 482.09571,59.0448338 483.479615,57.1007035 C484.86352,55.1565732 485.909121,52.945942 486.61645,50.4687437 C487.323779,47.9915454 487.677438,45.4673495 487.677438,42.8960804 C487.677438,40.3248113 487.323779,37.8006154 486.61645,35.3234171 C485.909121,32.8462188 484.86352,30.6355876 483.479615,28.6914573 C482.09571,26.747327 480.358167,25.1795034 478.266934,23.9879397 C476.1757,22.796376 473.746215,22.200603 470.978406,22.200603 Z M470.978406,17.2148744 C474.607311,17.2148744 477.820997,17.9047167 480.61956,19.2844221 C483.418122,20.6641275 485.770725,22.5141593 487.677438,24.8345729 C489.584151,27.1549865 491.029541,29.8673212 492.013651,32.9716583 C492.997761,36.0759954 493.489809,39.384103 493.489809,42.8960804 C493.489809,46.4080578 492.997761,49.7161654 492.013651,52.8205025 C491.029541,55.9248396 489.584151,58.6371743 487.677438,60.9575879 C485.770725,63.2780016 483.418122,65.1123551 480.61956,66.4607035 C477.820997,67.809052 474.607311,68.4832161 470.978406,68.4832161 C467.3495,68.4832161 464.135814,67.809052 461.337251,66.4607035 C458.538689,65.1123551 456.186086,63.2780016 454.279373,60.9575879 C452.37266,58.6371743 450.92727,55.9248396 449.94316,52.8205025 C448.95905,49.7161654 448.467003,46.4080578 448.467003,42.8960804 C448.467003,39.384103 448.95905,36.0759954 449.94316,32.9716583 C450.92727,29.8673212 452.37266,27.1549865 454.279373,24.8345729 C456.186086,22.5141593 458.538689,20.6641275 461.337251,19.2844221 C464.135814,17.9047167 467.3495,17.2148744 470.978406,17.2148744 Z M503.603795,18.6259296 L508.954866,18.6259296 L508.954866,30.0084422 L509.139385,30.0084422 C510.61555,26.0574677 512.906647,23.0158901 516.012744,20.8836181 C519.118841,18.7513461 522.824575,17.7792955 527.130056,17.9674372 L527.130056,23.8938693 C524.48526,23.7684416 522.086528,24.129041 519.933788,24.9756784 C517.781047,25.8223158 515.920492,27.0295399 514.352067,28.5973869 C512.783642,30.165234 511.568899,32.030944 510.707803,34.1945729 C509.846707,36.3582018 509.416165,38.7256153 509.416165,41.2968844 L509.416165,67.1662312 L503.603795,67.1662312 L503.603795,18.6259296 Z M534.107207,18.6259296 L539.458278,18.6259296 L539.458278,26.8100503 L539.735058,26.8100503 C541.27273,23.7997839 543.287049,21.4480487 545.778078,19.7547739 C548.269106,18.0614991 551.452039,17.2148744 555.326972,17.2148744 C558.463823,17.2148744 561.308473,17.9987861 563.861008,19.5666332 C566.413543,21.1344724 568.120333,23.5175719 568.98143,26.7159799 C570.396088,23.5175719 572.48729,21.1344724 575.255099,19.5666332 C578.022909,17.9987861 580.975194,17.2148744 584.112045,17.2148744 C594.62972,17.2148744 599.888479,22.8903955 599.888479,34.241608 L599.888479,67.1662312 L594.076108,67.1662312 L594.076108,34.5238191 C594.076108,30.5101307 593.245778,27.4528748 591.585093,25.3519598 C589.924407,23.2510448 587.002874,22.200603 582.820407,22.200603 C580.298625,22.200603 578.207423,22.6866283 576.546737,23.6586935 C574.886052,24.6307586 573.563674,25.9320521 572.579564,27.5626131 C571.595454,29.193174 570.903512,31.058884 570.503717,33.159799 C570.103922,35.260714 569.904028,37.4399887 569.904028,39.6976884 L569.904028,67.1662312 L564.091658,67.1662312 L564.091658,34.241608 C564.091658,32.6110471 563.922516,31.0589018 563.584229,29.5851256 C563.245941,28.1113494 562.692387,26.8257341 561.923551,25.7282412 C561.154715,24.6307483 560.124491,23.7684453 558.832846,23.1413065 C557.541202,22.5141677 555.9728,22.200603 554.127594,22.200603 C551.667319,22.200603 549.529987,22.6552718 547.715535,23.5646231 C545.901082,24.4739744 544.424939,25.7282332 543.287062,27.3274372 C542.149185,28.9266412 541.303478,30.8080294 540.749916,32.9716583 C540.196354,35.1352872 539.919577,37.5027007 539.919577,40.0739698 L539.919577,67.1662312 L534.107207,67.1662312 L534.107207,18.6259296 Z M660.157225,4.98572864 C657.758457,4.98572864 655.698007,5.7226057 653.975815,7.19638191 C652.253623,8.67015812 651.392539,10.8180763 651.392539,13.640201 C651.392539,14.8317648 651.638563,16.0389889 652.130618,17.2619095 C652.622673,18.4848302 653.237733,19.6763761 653.975815,20.8365829 C654.713898,21.9967897 655.513475,23.1256227 656.374571,24.2231156 C657.235667,25.3206085 658.035245,26.3083373 658.773327,27.1863317 C659.941958,26.4337651 661.125947,25.6184969 662.325331,24.7405025 C663.524715,23.8625082 664.616446,22.8747794 665.600556,21.7772864 C666.584666,20.6797935 667.384243,19.4568912 667.999312,18.1085427 C668.614381,16.7601943 668.92191,15.2707619 668.92191,13.640201 C668.92191,10.8180763 668.060827,8.67015812 666.338635,7.19638191 C664.616442,5.7226057 662.555993,4.98572864 660.157225,4.98572864 Z M676.856257,58.4176884 C674.457489,61.4906686 671.597463,63.9364733 668.276092,65.7551759 C664.95472,67.5738784 661.356622,68.4832161 657.481689,68.4832161 C654.652373,68.4832161 652.022994,68.075582 649.593472,67.2603015 C647.163963,66.445021 645.057372,65.2534752 643.273673,63.6856281 C641.489973,62.1177811 640.090713,60.1736799 639.07585,57.8532663 C638.060986,55.5328527 637.553562,52.8361963 637.553562,49.7632161 C637.553562,47.3800886 638.04561,45.1851357 639.02972,43.1782915 C640.01383,41.1714473 641.290078,39.352772 642.858503,37.7222111 C644.426929,36.0916501 646.164472,34.617896 648.071185,33.3009045 C649.977898,31.983913 651.853829,30.8237236 653.699035,29.8203015 C652.776432,28.6287378 651.838467,27.4215137 650.88511,26.198593 C649.931754,24.9756723 649.07067,23.7057352 648.301834,22.3887437 C647.532998,21.0717522 646.887186,19.6920675 646.364378,18.2496482 C645.841569,16.807229 645.580169,15.2707619 645.580169,13.640201 C645.580169,11.5706429 645.964581,9.70493293 646.733417,8.04301508 C647.502253,6.38109722 648.547854,4.95437782 649.870252,3.76281407 C651.19265,2.57125032 652.730298,1.64623445 654.483244,0.987738693 C656.23619,0.329242939 658.127498,-2.06057393e-12 660.157225,-2.06057393e-12 C662.186952,-2.06057393e-12 664.07826,0.329242939 665.831206,0.987738693 C667.584151,1.64623445 669.1218,2.57125032 670.444198,3.76281407 C671.766596,4.95437782 672.812197,6.38109722 673.581033,8.04301508 C674.349869,9.70493293 674.734281,11.5706429 674.734281,13.640201 C674.734281,15.7097591 674.365245,17.5911473 673.627163,19.2844221 C672.88908,20.9776969 671.920362,22.514164 670.720978,23.8938693 C669.521594,25.2735747 668.153086,26.5435118 666.615414,27.7037186 C665.077742,28.8639254 663.478588,29.9770801 661.817902,31.0432161 L676.210439,48.7284422 C677.010028,47.0978813 677.532828,45.4516666 677.778856,43.7897487 C678.024883,42.1278309 678.147895,40.0112691 678.147895,37.44 L683.960266,37.44 C683.960266,39.3214164 683.698865,41.7515429 683.176057,44.7304523 C682.653249,47.7093616 681.623024,50.6411916 680.085352,53.5260302 L691.156534,67.1662312 L683.868006,67.1662312 L676.856257,58.4176884 Z M656.83587,33.6771859 C655.236692,34.5551803 653.637537,35.5272309 652.038358,36.5933668 C650.43918,37.6595028 648.99379,38.8824052 647.702145,40.2621106 C646.410501,41.6418159 645.3649,43.1626048 644.56531,44.8245226 C643.765721,46.4864405 643.365932,48.320794 643.365932,50.3276382 C643.365932,52.2717685 643.765721,54.0590873 644.56531,55.6896482 C645.3649,57.3202092 646.425877,58.7312503 647.748275,59.9228141 C649.070673,61.1143719 650.592945,62.0237155 652.315138,62.6508543 C654.03733,63.2779931 655.821003,63.5915578 657.666209,63.5915578 C660.98758,63.5915578 663.955242,62.6665419 666.569284,60.8164824 C669.183326,58.9664229 671.412917,56.6930788 673.258123,53.9963819 L656.83587,33.6771859 Z M201.291336,117.455075 L207.472746,117.455075 L219.651046,159.034171 L219.835566,159.034171 L231.460307,117.455075 L238.010756,117.455075 L249.635497,159.034171 L249.820016,159.034171 L261.998316,117.455075 L268.179726,117.455075 L252.864591,165.995377 L246.498662,165.995377 L234.781661,125.168844 L234.597141,125.168844 L222.9724,165.995377 L216.606471,165.995377 L201.291336,117.455075 Z M296.007603,122.029749 C293.239794,122.029749 290.810309,122.625522 288.719075,123.817085 C286.627841,125.008649 284.890298,126.576473 283.506394,128.520603 C282.122489,130.464733 281.076888,132.675364 280.369559,135.152563 C279.66223,137.629761 279.30857,140.153957 279.30857,142.725226 C279.30857,145.296495 279.66223,147.820691 280.369559,150.297889 C281.076888,152.775088 282.122489,154.985719 283.506394,156.929849 C284.890298,158.87398 286.627841,160.441803 288.719075,161.633367 C290.810309,162.824931 293.239794,163.420704 296.007603,163.420704 C298.775412,163.420704 301.204897,162.824931 303.296131,161.633367 C305.387365,160.441803 307.124908,158.87398 308.508812,156.929849 C309.892717,154.985719 310.938318,152.775088 311.645647,150.297889 C312.352976,147.820691 312.706636,145.296495 312.706636,142.725226 C312.706636,140.153957 312.352976,137.629761 311.645647,135.152563 C310.938318,132.675364 309.892717,130.464733 308.508812,128.520603 C307.124908,126.576473 305.387365,125.008649 303.296131,123.817085 C301.204897,122.625522 298.775412,122.029749 296.007603,122.029749 Z M296.007603,117.04402 C299.636509,117.04402 302.850194,117.733862 305.648757,119.113568 C308.44732,120.493273 310.799922,122.343305 312.706636,124.663719 C314.613349,126.984132 316.058738,129.696467 317.042848,132.800804 C318.026958,135.905141 318.519006,139.213249 318.519006,142.725226 C318.519006,146.237203 318.026958,149.545311 317.042848,152.649648 C316.058738,155.753985 314.613349,158.46632 312.706636,160.786734 C310.799922,163.107147 308.44732,164.941501 305.648757,166.289849 C302.850194,167.638198 299.636509,168.312362 296.007603,168.312362 C292.378697,168.312362 289.165012,167.638198 286.366449,166.289849 C283.567886,164.941501 281.215283,163.107147 279.30857,160.786734 C277.401857,158.46632 275.956468,155.753985 274.972358,152.649648 C273.988248,149.545311 273.4962,146.237203 273.4962,142.725226 C273.4962,139.213249 273.988248,135.905141 274.972358,132.800804 C275.956468,129.696467 277.401857,126.984132 279.30857,124.663719 C281.215283,122.343305 283.567886,120.493273 286.366449,119.113568 C289.165012,117.733862 292.378697,117.04402 296.007603,117.04402 Z M328.632992,118.455075 L333.984063,118.455075 L333.984063,129.837588 L334.168583,129.837588 C335.644748,125.886613 337.935844,122.845036 341.041942,120.712764 C344.148039,118.580492 347.853772,117.608441 352.159253,117.796583 L352.159253,123.723015 C349.514458,123.597587 347.115726,123.958187 344.962985,124.804824 C342.810245,125.651462 340.94969,126.858686 339.381264,128.426533 C337.812839,129.99438 336.598096,131.86009 335.737,134.023719 C334.875904,136.187348 334.445362,138.554761 334.445362,141.12603 L334.445362,166.995377 L328.632992,166.995377 L328.632992,118.455075 Z M359.136404,99.8291457 L364.948775,99.8291457 L364.948775,141.972663 L391.335091,118.455075 L399.084919,118.455075 L378.787752,136.422513 L400.468816,166.995377 L393.180288,166.995377 L374.359279,140.561608 L364.948775,148.557588 L364.948775,166.995377 L359.136404,166.995377 L359.136404,99.8291457 Z M430.695449,99.8291457 L436.50782,99.8291457 L436.50782,166.995377 L430.695449,166.995377 L430.695449,99.8291457 Z M409.844724,123.440804 L401.725857,123.440804 L401.725857,118.455075 L409.844724,118.455075 L409.844724,114.033769 C409.844724,111.964211 409.998488,110.051466 410.306023,108.295477 C410.613557,106.539489 411.197864,105.034378 412.05896,103.780101 C412.920056,102.525823 414.104046,101.553772 415.610964,100.86392 C417.117882,100.174067 419.039943,99.8291457 421.377205,99.8291457 C422.238301,99.8291457 423.037878,99.8605022 423.775961,99.9232161 C424.514043,99.98593 425.344373,100.079999 426.266977,100.205427 L426.266977,105.285226 C425.467387,105.159798 424.729316,105.050051 424.05274,104.95598 C423.376165,104.861909 422.699599,104.814874 422.023024,104.814874 C420.423845,104.814874 419.193726,105.065726 418.33263,105.567437 C417.471533,106.069148 416.841097,106.743312 416.441303,107.58995 C416.041508,108.436587 415.810861,109.424316 415.749354,110.553166 C415.687847,111.682016 415.657094,112.904918 415.657094,114.22191 L415.657094,118.455075 L425.067599,118.455075 L425.067599,123.440804 L415.657094,123.440804 L415.657094,166.995377 L409.844724,166.995377 L409.844724,123.440804 Z M469.225468,122.029749 C466.457659,122.029749 464.028174,122.625522 461.93694,123.817085 C459.845707,125.008649 458.108164,126.576473 456.724259,128.520603 C455.340354,130.464733 454.294753,132.675364 453.587424,135.152563 C452.880095,137.629761 452.526436,140.153957 452.526436,142.725226 C452.526436,145.296495 452.880095,147.820691 453.587424,150.297889 C454.294753,152.775088 455.340354,154.985719 456.724259,156.929849 C458.108164,158.87398 459.845707,160.441803 461.93694,161.633367 C464.028174,162.824931 466.457659,163.420704 469.225468,163.420704 C471.993278,163.420704 474.422763,162.824931 476.513997,161.633367 C478.60523,160.441803 480.342773,158.87398 481.726678,156.929849 C483.110583,154.985719 484.156184,152.775088 484.863513,150.297889 C485.570842,147.820691 485.924501,145.296495 485.924501,142.725226 C485.924501,140.153957 485.570842,137.629761 484.863513,135.152563 C484.156184,132.675364 483.110583,130.464733 481.726678,128.520603 C480.342773,126.576473 478.60523,125.008649 476.513997,123.817085 C474.422763,122.625522 471.993278,122.029749 469.225468,122.029749 Z M469.225468,117.04402 C472.854374,117.04402 476.06806,117.733862 478.866623,119.113568 C481.665185,120.493273 484.017788,122.343305 485.924501,124.663719 C487.831214,126.984132 489.276604,129.696467 490.260714,132.800804 C491.244824,135.905141 491.736872,139.213249 491.736872,142.725226 C491.736872,146.237203 491.244824,149.545311 490.260714,152.649648 C489.276604,155.753985 487.831214,158.46632 485.924501,160.786734 C484.017788,163.107147 481.665185,164.941501 478.866623,166.289849 C476.06806,167.638198 472.854374,168.312362 469.225468,168.312362 C465.596563,168.312362 462.382877,167.638198 459.584314,166.289849 C456.785752,164.941501 454.433149,163.107147 452.526436,160.786734 C450.619723,158.46632 449.174333,155.753985 448.190223,152.649648 C447.206113,149.545311 446.714065,146.237203 446.714065,142.725226 C446.714065,139.213249 447.206113,135.905141 448.190223,132.800804 C449.174333,129.696467 450.619723,126.984132 452.526436,124.663719 C454.433149,122.343305 456.785752,120.493273 459.584314,119.113568 C462.382877,117.733862 465.596563,117.04402 469.225468,117.04402 Z M497.053345,118.455075 L503.234755,118.455075 L515.413055,160.034171 L515.597575,160.034171 L527.222316,118.455075 L533.772765,118.455075 L545.397506,160.034171 L545.582026,160.034171 L557.760326,118.455075 L563.941735,118.455075 L548.626601,166.995377 L542.260671,166.995377 L530.54367,126.168844 L530.359151,126.168844 L518.73441,166.995377 L512.36848,166.995377 L497.053345,118.455075 Z M598.746763,99.8291457 L604.559134,99.8291457 L604.559134,127.67397 L604.743653,127.67397 C605.358722,125.917981 606.235182,124.381514 607.373059,123.064523 C608.510936,121.747531 609.817938,120.634376 611.294103,119.725025 C612.770268,118.815674 614.369422,118.14151 616.091615,117.702513 C617.813807,117.263515 619.535974,117.04402 621.258166,117.04402 C624.887072,117.04402 628.039252,117.733862 630.714801,119.113568 C633.39035,120.493273 635.61994,122.358983 637.40364,124.710754 C639.187339,127.062524 640.509717,129.790537 641.370813,132.894874 C642.231909,135.999212 642.662451,139.275963 642.662451,142.725226 C642.662451,146.17449 642.231909,149.451241 641.370813,152.555578 C640.509717,155.659915 639.187339,158.387928 637.40364,160.739698 C635.61994,163.091469 633.39035,164.941501 630.714801,166.289849 C628.039252,167.638198 624.887072,168.312362 621.258166,168.312362 C617.383233,168.312362 613.923524,167.403024 610.878933,165.584322 C607.834343,163.765619 605.635505,161.163032 604.282354,157.776482 L604.097834,157.776482 L604.097834,166.995377 L598.746763,166.995377 L598.746763,99.8291457 Z M636.850081,142.725226 C636.850081,140.216671 636.557927,137.723831 635.973612,135.246633 C635.389297,132.769435 634.466708,130.558804 633.205817,128.614673 C631.944926,126.670543 630.330395,125.087041 628.362175,123.864121 C626.393955,122.6412 624.025976,122.029749 621.258166,122.029749 C618.182823,122.029749 615.584196,122.6412 613.462209,123.864121 C611.340222,125.087041 609.618055,126.670543 608.295658,128.614673 C606.97326,130.558804 606.019918,132.769435 605.435602,135.246633 C604.851287,137.723831 604.559134,140.216671 604.559134,142.725226 C604.559134,145.233781 604.851287,147.726621 605.435602,150.203819 C606.019918,152.681017 606.97326,154.891649 608.295658,156.835779 C609.618055,158.779909 611.340222,160.363411 613.462209,161.586332 C615.584196,162.809252 618.182823,163.420704 621.258166,163.420704 C624.025976,163.420704 626.393955,162.809252 628.362175,161.586332 C630.330395,160.363411 631.944926,158.779909 633.205817,156.835779 C634.466708,154.891649 635.389297,152.681017 635.973612,150.203819 C636.557927,147.726621 636.850081,145.233781 636.850081,142.725226 Z M647.794405,118.455075 L653.975815,118.455075 L669.659989,159.84603 L684.329305,118.455075 L690.141676,118.455075 L669.47547,174.332864 C668.614373,176.402422 667.814796,178.11135 667.076714,179.459698 C666.338631,180.808047 665.523677,181.874167 664.631828,182.65809 C663.739978,183.442014 662.694377,184.00643 661.494993,184.351357 C660.295609,184.696283 658.773336,184.868744 656.92813,184.868744 C655.7595,184.80603 654.852287,184.758995 654.206465,184.727638 C653.560646,184.696281 652.991712,184.586534 652.499657,184.398392 L652.499657,179.412663 C653.176233,179.538091 653.837422,179.647839 654.483244,179.74191 C655.129066,179.83598 655.790255,179.883015 656.466831,179.883015 C657.758475,179.883015 658.819453,179.694876 659.649796,179.318593 C660.480139,178.94231 661.202833,178.424928 661.817902,177.766432 C662.432971,177.107936 662.955771,176.308346 663.38632,175.367638 C663.816868,174.42693 664.278162,173.392166 664.770217,172.263317 L666.799934,166.807236 L647.794405,118.455075 Z" id="Platform-&amp;-workflow-by"></path>
            </g>
        </g>
    </g>
</svg>
