<?xml version="1.0" encoding="UTF-8"?>
<svg width="617px" height="331px" viewBox="0 0 617 331" version="1.1" xmlns="http://www.w3.org/2000/svg" xmlns:xlink="http://www.w3.org/1999/xlink">
    <title>Slash - OPS</title>
    <desc>An official PKP logotype.</desc>
    <g id="Final" stroke="none" stroke-width="1" fill="none" fill-rule="evenodd">
        <g id="Artboard" transform="translate(-271.000000, -3493.000000)" fill="#000000" fill-rule="nonzero">
            <g id="Slash---OPS" transform="translate(271.500000, 3493.000000)">
                <g id="OMP/PKP" transform="translate(0.116648, 213.000000)">
                    <path d="M57.2550457,116.690608 C16.8223588,116.690608 0,85.2593584 0,58.6977393 C0,34.7922821 17.412617,1 58.140433,1 C91.3424569,1 116.133301,21.9541662 116.133301,56.3367065 C116.133301,89.3911659 92.8181024,116.690608 57.2550457,116.690608 Z M61.2392885,111.083155 C74.5200981,111.083155 101.967105,103.409798 101.967105,60.4685139 C101.967105,25.0530218 80.4226801,6.01719472 57.1074811,6.01719472 C32.4642012,6.01719472 14.0186323,22.2492953 14.0186323,54.5659319 C14.0186323,88.9484722 34.6776694,111.083155 61.2392885,111.083155 Z M134.511895,71.8309843 L134.511895,45.8596234 C134.511895,22.8395535 134.511895,18.7077461 134.216766,13.9856805 C133.921637,8.96848574 132.741121,6.60745293 127.871491,5.57450107 C126.690974,5.27937197 124.182377,5.13180742 122.854296,5.13180742 C122.264038,5.13180742 121.673779,4.83667832 121.673779,4.24642012 C121.673779,3.36103281 122.411602,3.06590371 124.034812,3.06590371 C130.675217,3.06590371 139.52909,3.50859736 140.709606,3.50859736 C143.956027,3.50859736 152.514771,3.06590371 159.30274,3.06590371 C177.748309,3.06590371 184.388713,9.26361484 186.749746,11.4770831 C189.996166,14.5759387 194.127974,21.2163434 194.127974,30.8080392 C194.127974,49.9914308 178.781261,64.1576277 157.827094,64.1576277 C157.089272,64.1576277 155.466062,64.1576277 154.728239,64.0100631 C153.990416,64.0100631 153.105029,63.714934 153.105029,62.9771113 C153.105029,61.7965949 153.990416,61.6490303 157.089272,61.6490303 C171.403033,61.6490303 182.617939,51.90977 182.617939,36.4154922 C182.617939,32.7263784 182.175245,22.8395535 174.354324,14.8710678 C166.533403,6.90258203 157.531965,7.49284023 154.137981,7.49284023 C151.629383,7.49284023 149.120786,7.78796933 147.792705,8.37822753 C146.907318,8.67335664 146.612189,9.70630849 146.612189,11.181954 L146.612189,71.8309843 C146.612189,85.9971812 146.612189,97.6547807 147.350011,103.852492 C147.792705,108.131864 148.678092,111.378284 153.105029,111.968542 C155.170932,112.263671 158.417353,112.5588 159.745434,112.5588 C160.630821,112.5588 160.92595,113.001494 160.92595,113.444188 C160.92595,114.18201 160.188127,114.624704 158.564917,114.624704 C150.448867,114.624704 141.1523,114.18201 140.414477,114.18201 C139.971784,114.18201 130.675217,114.624704 126.248281,114.624704 C124.62507,114.624704 123.887248,114.329575 123.887248,113.444188 C123.887248,113.001494 124.182377,112.5588 125.067764,112.5588 C126.395845,112.5588 128.16662,112.263671 129.494701,111.968542 C132.445992,111.378284 133.183814,108.131864 133.774073,103.852492 C134.511895,97.6547807 134.511895,85.9971812 134.511895,71.8309843 Z M226.268496,117.545946 C219.397861,117.545946 212.67341,116.502579 206.679877,113.521531 C204.633305,112.478164 204.487121,111.881954 204.487121,107.857539 C204.487121,100.404917 205.071856,94.4428202 205.21804,92.0579814 C205.364223,90.4184047 205.656591,89.6731426 206.387509,89.6731426 C207.264612,89.6731426 207.410796,90.1202998 207.410796,91.3127192 C207.410796,92.6541911 207.410796,94.740925 207.849347,96.827659 C210.042103,107.857539 219.690228,112.031006 229.484538,112.031006 C243.518175,112.031006 250.38881,101.746389 250.38881,92.2070338 C250.38881,81.9224164 246.149482,75.9603194 233.577682,65.3775971 L226.999414,59.8626573 C211.50394,46.8950963 207.99553,37.6538459 207.99553,27.5182809 C207.99553,11.5696713 219.690228,0.688844221 238.255561,0.688844221 C243.956726,0.688844221 248.196054,1.28505393 251.850647,2.17936848 C254.628138,2.77557819 255.797608,2.92463061 256.967078,2.92463061 C258.136547,2.92463061 258.428915,3.22273546 258.428915,3.96799759 C258.428915,4.71325972 257.84418,9.63198978 257.84418,19.7675548 C257.84418,22.1523936 257.551813,23.1957605 256.820894,23.1957605 C255.943792,23.1957605 255.797608,22.4504984 255.651424,21.258079 C255.50524,19.4694499 254.628138,15.4450344 253.751036,13.8054577 C252.873933,12.165881 248.926973,5.90567913 235.47807,5.90567913 C225.391393,5.90567913 217.497472,12.3149335 217.497472,23.1957605 C217.497472,31.6917488 221.298249,37.0576362 235.331887,48.2365681 L239.425031,51.5157215 C256.67471,65.3775971 260.767854,74.6188475 260.767854,86.5430416 C260.767854,92.6541911 258.428915,103.982175 248.342238,111.285744 C242.056338,115.757317 234.162417,117.545946 226.268496,117.545946 Z" id="OPS"></path>
                    <path d="M283.484466,111.91837 L332.508361,3.1691989 C333.37604,1.28922652 333.80988,1.14461326 334.388333,1.14461326 C335.111399,1.14461326 338.003664,2.59074586 338.726731,3.31381215 C339.449797,4.03687845 339.305184,4.47071823 338.726731,5.77223757 L289.413609,115.389088 C288.835156,116.545994 288.54593,116.690608 288.11209,116.690608 C287.67825,116.690608 284.207532,114.955249 283.484466,114.232182 C282.906013,113.653729 282.906013,113.075276 283.484466,111.91837 Z" id="/"></path>
                    <path d="M381.008765,71.0435726 L381.008765,45.0080849 C381.008765,21.9311753 381.008765,17.7891659 380.712907,13.0554408 C380.417049,8.02585796 379.233618,5.65899544 374.351964,4.62349309 C373.168533,4.32763527 370.653741,4.17970636 369.322381,4.17970636 C368.730665,4.17970636 368.13895,3.88384855 368.13895,3.29213292 C368.13895,2.40455947 368.878594,2.10870166 370.505812,2.10870166 C377.162613,2.10870166 386.038347,2.55248838 387.221779,2.55248838 C390.476215,2.55248838 399.056091,2.10870166 405.860821,2.10870166 C424.351935,2.10870166 431.008735,8.32171578 433.375598,10.5406494 C436.630034,13.6471565 440.772043,20.3039573 440.772043,29.9193363 C440.772043,49.1500943 425.387437,63.3512694 404.381532,63.3512694 C403.641887,63.3512694 402.014669,63.3512694 401.275025,63.2033405 C400.53538,63.2033405 399.647807,62.9074827 399.647807,62.1678381 C399.647807,60.9844069 400.53538,60.836478 403.641887,60.836478 C417.990992,60.836478 429.233588,51.0731701 429.233588,35.5406348 C429.233588,31.8424121 428.789802,21.9311753 420.94957,13.9430143 C413.109338,5.95485325 404.085674,6.54656889 400.683309,6.54656889 C398.168518,6.54656889 395.653726,6.8424267 394.322366,7.43414233 C393.434793,7.73000015 393.138935,8.7655025 393.138935,10.2447916 L393.138935,71.0435726 C393.138935,85.2447477 393.138935,96.9311314 393.87858,103.144146 C394.322366,107.434084 395.20994,110.68852 399.647807,111.280235 C401.718812,111.576093 404.973248,111.871951 406.304608,111.871951 C407.192181,111.871951 407.488039,112.315738 407.488039,112.759525 C407.488039,113.499169 406.748395,113.942956 405.121177,113.942956 C396.985087,113.942956 387.665565,113.499169 386.925921,113.499169 C386.482134,113.499169 377.162613,113.942956 372.724746,113.942956 C371.097528,113.942956 370.357883,113.647098 370.357883,112.759525 C370.357883,112.315738 370.653741,111.871951 371.541315,111.871951 C372.872675,111.871951 374.647822,111.576093 375.979182,111.280235 C378.93776,110.68852 379.677404,107.434084 380.26912,103.144146 C381.008765,96.9311314 381.008765,85.2447477 381.008765,71.0435726 Z M465.875579,45.0080849 L465.875579,54.4755349 C470.461375,50.0376677 490.579706,28.8838339 499.60337,19.5643128 C508.479104,10.3927205 509.07082,8.91343141 509.07082,7.13828452 C509.07082,5.95485325 508.331175,4.77142199 507.147744,4.32763527 C506.112242,3.88384855 505.816384,3.58799073 505.816384,2.9962751 C505.816384,2.40455947 506.703957,2.10870166 508.035318,2.10870166 C512.325256,2.10870166 511.881469,2.55248838 516.911052,2.55248838 C521.496848,2.55248838 530.224654,2.10870166 532.591516,2.10870166 C534.662521,2.10870166 535.106308,2.55248838 535.106308,3.14420401 C535.106308,3.73591964 534.81045,4.03177746 533.47909,4.17970636 C530.66844,4.47556418 528.00572,5.06727981 525.934715,5.95485325 C522.236493,7.43414233 519.425843,9.20928922 510.550109,17.7891659 C497.532365,30.363123 480.66847,47.0790896 476.822318,51.3690279 C486.141839,61.5761225 513.0649,88.9429704 520.017559,95.4518424 C532.14773,106.842368 537.325241,110.096804 544.425829,111.428164 C545.757189,111.724022 547.236478,111.871951 548.715767,111.871951 C549.899198,111.871951 550.786772,112.167809 550.786772,112.907453 C550.786772,113.647098 550.195056,113.942956 548.567838,113.942956 L537.621099,113.942956 C524.751284,113.942956 521.348919,112.315738 514.396261,106.842368 C505.520526,99.8897096 478.893323,71.3394304 465.875579,55.8068951 L465.875579,71.0435726 C465.875579,85.2447477 465.875579,96.9311314 466.615223,103.144146 C467.05901,107.434084 467.946584,110.68852 472.384451,111.280235 C474.455456,111.576093 477.414034,111.871951 478.301607,111.871951 C479.632967,111.871951 480.076754,112.463667 480.076754,112.907453 C480.076754,113.647098 479.485038,113.942956 477.85782,113.942956 C469.72173,113.942956 460.402209,113.499169 459.662565,113.499169 C458.92292,113.499169 450.195115,113.942956 445.757247,113.942956 C444.130029,113.942956 443.390385,113.795027 443.390385,112.907453 C443.390385,112.463667 443.686243,111.871951 445.017603,111.871951 C445.905176,111.871951 447.532394,111.724022 448.863755,111.428164 C451.822333,110.836449 452.709906,107.434084 453.301622,103.144146 C454.041266,96.9311314 454.041266,85.2447477 454.041266,71.0435726 L454.041266,45.0080849 C454.041266,21.9311753 454.041266,17.7891659 453.745408,13.0554408 C453.449551,8.02585796 451.970262,5.51106653 448.715826,4.77142199 C447.088608,4.32763527 444.425887,4.17970636 443.390385,4.17970636 C442.206954,4.17970636 441.763167,3.88384855 441.763167,3.29213292 C441.763167,2.40455947 442.502811,2.10870166 444.130029,2.10870166 C449.011683,2.10870166 458.92292,2.55248838 459.662565,2.55248838 C460.402209,2.55248838 469.72173,2.10870166 474.159598,2.10870166 C475.786816,2.10870166 476.52646,2.40455947 476.52646,3.14420401 C476.52646,3.73591964 476.230602,4.03177746 474.899242,4.17970636 C473.272024,4.32763527 473.124095,4.32763527 471.644806,4.47556418 C467.650726,4.9193509 466.467295,7.87792905 466.171437,13.0554408 C465.875579,17.7891659 465.875579,21.9311753 465.875579,45.0080849 Z M556.215763,71.0435726 L556.215763,45.0080849 C556.215763,21.9311753 556.215763,17.7891659 555.919905,13.0554408 C555.624047,8.02585796 554.440616,5.65899544 549.558962,4.62349309 C548.375531,4.32763527 545.860739,4.17970636 544.529379,4.17970636 C543.937663,4.17970636 543.345948,3.88384855 543.345948,3.29213292 C543.345948,2.40455947 544.085592,2.10870166 545.71281,2.10870166 C552.369611,2.10870166 561.245346,2.55248838 562.428777,2.55248838 C565.683213,2.55248838 574.263089,2.10870166 581.067819,2.10870166 C599.558933,2.10870166 606.215734,8.32171578 608.582596,10.5406494 C611.837032,13.6471565 615.979041,20.3039573 615.979041,29.9193363 C615.979041,49.1500943 600.594435,63.3512694 579.58853,63.3512694 C578.848886,63.3512694 577.221668,63.3512694 576.482023,63.2033405 C575.742379,63.2033405 574.854805,62.9074827 574.854805,62.1678381 C574.854805,60.9844069 575.742379,60.836478 578.848886,60.836478 C593.19799,60.836478 604.440587,51.0731701 604.440587,35.5406348 C604.440587,31.8424121 603.9968,21.9311753 596.156568,13.9430143 C588.316336,5.95485325 579.292672,6.54656889 575.890307,6.54656889 C573.375516,6.54656889 570.860725,6.8424267 569.529364,7.43414233 C568.641791,7.73000015 568.345933,8.7655025 568.345933,10.2447916 L568.345933,71.0435726 C568.345933,85.2447477 568.345933,96.9311314 569.085578,103.144146 C569.529364,107.434084 570.416938,110.68852 574.854805,111.280235 C576.92581,111.576093 580.180246,111.871951 581.511606,111.871951 C582.399179,111.871951 582.695037,112.315738 582.695037,112.759525 C582.695037,113.499169 581.955393,113.942956 580.328175,113.942956 C572.192085,113.942956 562.872564,113.499169 562.132919,113.499169 C561.689132,113.499169 552.369611,113.942956 547.931744,113.942956 C546.304526,113.942956 545.564881,113.647098 545.564881,112.759525 C545.564881,112.315738 545.860739,111.871951 546.748313,111.871951 C548.079673,111.871951 549.85482,111.576093 551.18618,111.280235 C554.144758,110.68852 554.884403,107.434084 555.476118,103.144146 C556.215763,96.9311314 556.215763,85.2447477 556.215763,71.0435726 Z" id="PKP-Copy"></path>
                </g>
                <path d="M201.759892,32.9246231 L223.348697,32.9246231 C227.715685,32.9246231 231.252277,31.7957902 233.958579,29.5380905 C236.664882,27.2803907 238.018013,23.831179 238.018013,19.1903518 C238.018013,14.5495245 236.664882,11.1003128 233.958579,8.84261307 C231.252277,6.58491333 227.715685,5.4560804 223.348697,5.4560804 L201.759892,5.4560804 L201.759892,32.9246231 Z M195.486222,-1.8189894e-12 L224.732594,-1.8189894e-12 C227.684924,-1.8189894e-12 230.360433,0.42331235 232.759201,1.26994975 C235.157969,2.11658715 237.218419,3.37084596 238.940611,5.03276382 C240.662803,6.69468168 241.985181,8.71717401 242.907785,11.1003015 C243.830388,13.483429 244.291682,16.1800855 244.291682,19.1903518 C244.291682,22.2006181 243.830388,24.8972745 242.907785,27.280402 C241.985181,29.6635295 240.662803,31.6860218 238.940611,33.3479397 C237.218419,35.0098576 235.157969,36.2641164 232.759201,37.1107538 C230.360433,37.9573912 227.684924,38.3807035 224.732594,38.3807035 L201.759892,38.3807035 L201.759892,67.1662312 L195.486222,67.1662312 L195.486222,-1.8189894e-12 Z M254.036629,-1.39266376e-12 L259.848999,-1.39266376e-12 L259.848999,67.1662312 L254.036629,67.1662312 L254.036629,-1.39266376e-12 Z M271.900442,33.4890452 C272.084963,30.6669206 272.669269,28.2211159 273.653379,26.1515578 C274.637489,24.0819997 275.975243,22.3887503 277.666682,21.0717588 C279.358121,19.7547673 281.341688,18.7827167 283.617443,18.1555779 C285.893197,17.5284391 288.414941,17.2148744 291.18275,17.2148744 C293.273984,17.2148744 295.365186,17.4186914 297.45642,17.8263317 C299.547654,18.2339719 301.423585,19.0022054 303.084271,20.1310553 C304.744956,21.2599051 306.098087,22.8434069 307.143704,24.881608 C308.189321,26.9198092 308.712121,29.5694309 308.712121,32.8305528 L308.712121,58.6058291 C308.712121,60.9889566 309.849982,62.1805025 312.125736,62.1805025 C312.802311,62.1805025 313.417371,62.0550766 313.970933,61.8042211 L313.970933,66.7899497 C313.294357,66.9153775 312.694674,67.0094469 312.171866,67.0721608 C311.649057,67.1348747 310.987868,67.1662312 310.188279,67.1662312 C308.712114,67.1662312 307.528125,66.9624141 306.636275,66.5547739 C305.744425,66.1471336 305.052483,65.5670389 304.560428,64.8144724 C304.068373,64.0619058 303.745467,63.1682464 303.5917,62.1334673 C303.437933,61.0986883 303.36105,59.9541771 303.36105,58.6998995 L303.176531,58.6998995 C302.130914,60.2677465 301.069936,61.6631095 299.993566,62.8860302 C298.917195,64.1089508 297.717829,65.1280361 296.395432,65.9433166 C295.073034,66.758597 293.566138,67.3857264 291.874699,67.8247236 C290.18326,68.2637208 288.16894,68.4832161 285.831679,68.4832161 C283.617432,68.4832161 281.541606,68.2166861 279.604139,67.6836181 C277.666673,67.1505501 275.975259,66.3039254 274.529848,65.1437186 C273.084436,63.9835118 271.946576,62.5097577 271.116233,60.7224121 C270.28589,58.9350664 269.870725,56.8185047 269.870725,54.3726633 C269.870725,50.9861137 270.608797,48.336492 272.084962,46.4237186 C273.561127,44.5109452 275.51394,43.0528693 277.943462,42.0494472 C280.372983,41.0460251 283.109998,40.3405046 286.154588,39.9328643 C289.199179,39.5252241 292.289853,39.1332682 295.426703,38.7569849 C296.656841,38.6315572 297.733195,38.4747748 298.655798,38.2866332 C299.578401,38.0984915 300.347225,37.7692486 300.962294,37.2988945 C301.577363,36.8285404 302.054034,36.1857327 302.392322,35.3704523 C302.73061,34.5551718 302.899751,33.4890518 302.899751,32.1720603 C302.899751,30.1652161 302.576845,28.5190014 301.931023,27.2333668 C301.2852,25.9477323 300.393364,24.928647 299.255487,24.1760804 C298.11761,23.4235138 296.795232,22.9061321 295.288313,22.6239196 C293.781395,22.3417071 292.166864,22.200603 290.444671,22.200603 C286.754259,22.200603 283.740467,23.0942714 281.403206,24.881608 C279.065945,26.6689537 277.835826,29.5380707 277.712812,33.4890452 L271.900442,33.4890452 Z M302.899751,40.638392 L302.715231,40.638392 C302.34619,41.3282447 301.638872,41.8299482 300.593255,42.1435176 C299.547638,42.457087 298.625049,42.6765823 297.825459,42.8020101 C295.365184,43.2410072 292.828064,43.6329631 290.214022,43.9778894 C287.59998,44.3228158 285.216624,44.8401976 283.063884,45.5300503 C280.911143,46.2199029 279.142847,47.2076318 277.758942,48.4932663 C276.375038,49.7789009 275.683096,51.6132544 275.683096,53.9963819 C275.683096,55.5015151 275.975249,56.8341651 276.559564,57.9943719 C277.14388,59.1545787 277.92808,60.1579857 278.91219,61.0046231 C279.8963,61.8512605 281.03416,62.4940682 282.325805,62.9330653 C283.617449,63.3720625 284.939827,63.5915578 286.292978,63.5915578 C288.507226,63.5915578 290.629181,63.2466366 292.658908,62.5567839 C294.688635,61.8669312 296.456931,60.8635242 297.963849,59.5465327 C299.470767,58.2295412 300.670138,56.6303612 301.561983,54.7489447 C302.453833,52.8675283 302.899751,50.7352883 302.899751,48.3521608 L302.899751,40.638392 Z M331.004407,18.6259296 L340.691691,18.6259296 L340.691691,23.6116583 L331.004407,23.6116583 L331.004407,56.3481407 C331.004407,58.292271 331.265808,59.8130598 331.788616,60.9105528 C332.311424,62.0080457 333.618426,62.6194969 335.70966,62.7449246 C337.370345,62.7449246 339.031006,62.6508552 340.691691,62.4627136 L340.691691,67.4484422 C339.830595,67.4484422 338.969512,67.4797987 338.108416,67.5425126 C337.247319,67.6052264 336.386236,67.6365829 335.52514,67.6365829 C331.650207,67.6365829 328.943945,66.8683494 327.406273,65.3318593 C325.868601,63.7953692 325.13053,60.9576086 325.192037,56.8184925 L325.192037,23.6116583 L316.888651,23.6116583 L316.888651,18.6259296 L325.192037,18.6259296 L325.192037,4.04502513 L331.004407,4.04502513 L331.004407,18.6259296 Z M368.888608,23.6116583 L359.478103,23.6116583 L359.478103,67.1662312 L353.665733,67.1662312 L353.665733,23.6116583 L345.546866,23.6116583 L345.546866,18.6259296 L353.665733,18.6259296 L353.665733,14.2046231 C353.665733,12.135065 353.819497,10.2223203 354.127032,8.46633166 C354.434566,6.71034298 355.018873,5.2052324 355.879969,3.95095477 C356.741065,2.69667715 357.925055,1.72462656 359.431973,1.03477387 C360.938892,0.344921174 362.860952,-1.39266376e-12 365.198214,-1.39266376e-12 C366.05931,-1.39266376e-12 366.858887,0.0313564704 367.59697,0.0940703518 C368.335052,0.156784233 369.165383,0.250853644 370.087986,0.376281407 L370.087986,5.4560804 C369.288396,5.33065264 368.550325,5.22090499 367.873749,5.12683417 C367.197174,5.03276335 366.520608,4.98572864 365.844033,4.98572864 C364.244854,4.98572864 363.014735,5.23658041 362.153639,5.73829146 C361.292542,6.24000251 360.662106,6.91416662 360.262312,7.76080402 C359.862517,8.60744142 359.63187,9.59517024 359.570363,10.7240201 C359.508856,11.85287 359.478103,13.0757723 359.478103,14.3927638 L359.478103,18.6259296 L368.888608,18.6259296 L368.888608,23.6116583 Z M395.978406,22.200603 C393.210596,22.200603 390.781111,22.796376 388.689878,23.9879397 C386.598644,25.1795034 384.861101,26.747327 383.477196,28.6914573 C382.093291,30.6355876 381.04769,32.8462188 380.340361,35.3234171 C379.633032,37.8006154 379.279373,40.3248113 379.279373,42.8960804 C379.279373,45.4673495 379.633032,47.9915454 380.340361,50.4687437 C381.04769,52.945942 382.093291,55.1565732 383.477196,57.1007035 C384.861101,59.0448338 386.598644,60.6126574 388.689878,61.8042211 C390.781111,62.9957849 393.210596,63.5915578 395.978406,63.5915578 C398.746215,63.5915578 401.1757,62.9957849 403.266934,61.8042211 C405.358167,60.6126574 407.09571,59.0448338 408.479615,57.1007035 C409.86352,55.1565732 410.909121,52.945942 411.61645,50.4687437 C412.323779,47.9915454 412.677438,45.4673495 412.677438,42.8960804 C412.677438,40.3248113 412.323779,37.8006154 411.61645,35.3234171 C410.909121,32.8462188 409.86352,30.6355876 408.479615,28.6914573 C407.09571,26.747327 405.358167,25.1795034 403.266934,23.9879397 C401.1757,22.796376 398.746215,22.200603 395.978406,22.200603 Z M395.978406,17.2148744 C399.607311,17.2148744 402.820997,17.9047167 405.61956,19.2844221 C408.418122,20.6641275 410.770725,22.5141593 412.677438,24.8345729 C414.584151,27.1549865 416.029541,29.8673212 417.013651,32.9716583 C417.997761,36.0759954 418.489809,39.384103 418.489809,42.8960804 C418.489809,46.4080578 417.997761,49.7161654 417.013651,52.8205025 C416.029541,55.9248396 414.584151,58.6371743 412.677438,60.9575879 C410.770725,63.2780016 408.418122,65.1123551 405.61956,66.4607035 C402.820997,67.809052 399.607311,68.4832161 395.978406,68.4832161 C392.3495,68.4832161 389.135814,67.809052 386.337251,66.4607035 C383.538689,65.1123551 381.186086,63.2780016 379.279373,60.9575879 C377.37266,58.6371743 375.92727,55.9248396 374.94316,52.8205025 C373.95905,49.7161654 373.467003,46.4080578 373.467003,42.8960804 C373.467003,39.384103 373.95905,36.0759954 374.94316,32.9716583 C375.92727,29.8673212 377.37266,27.1549865 379.279373,24.8345729 C381.186086,22.5141593 383.538689,20.6641275 386.337251,19.2844221 C389.135814,17.9047167 392.3495,17.2148744 395.978406,17.2148744 Z M428.603795,18.6259296 L433.954866,18.6259296 L433.954866,30.0084422 L434.139385,30.0084422 C435.61555,26.0574677 437.906647,23.0158901 441.012744,20.8836181 C444.118841,18.7513461 447.824575,17.7792955 452.130056,17.9674372 L452.130056,23.8938693 C449.48526,23.7684416 447.086528,24.129041 444.933788,24.9756784 C442.781047,25.8223158 440.920492,27.0295399 439.352067,28.5973869 C437.783642,30.165234 436.568899,32.030944 435.707803,34.1945729 C434.846707,36.3582018 434.416165,38.7256153 434.416165,41.2968844 L434.416165,67.1662312 L428.603795,67.1662312 L428.603795,18.6259296 Z M459.107207,18.6259296 L464.458278,18.6259296 L464.458278,26.8100503 L464.735058,26.8100503 C466.27273,23.7997839 468.287049,21.4480487 470.778078,19.7547739 C473.269106,18.0614991 476.452039,17.2148744 480.326972,17.2148744 C483.463823,17.2148744 486.308473,17.9987861 488.861008,19.5666332 C491.413543,21.1344724 493.120333,23.5175719 493.98143,26.7159799 C495.396088,23.5175719 497.48729,21.1344724 500.255099,19.5666332 C503.022909,17.9987861 505.975194,17.2148744 509.112045,17.2148744 C519.62972,17.2148744 524.888479,22.8903955 524.888479,34.241608 L524.888479,67.1662312 L519.076108,67.1662312 L519.076108,34.5238191 C519.076108,30.5101307 518.245778,27.4528748 516.585093,25.3519598 C514.924407,23.2510448 512.002874,22.200603 507.820407,22.200603 C505.298625,22.200603 503.207423,22.6866283 501.546737,23.6586935 C499.886052,24.6307586 498.563674,25.9320521 497.579564,27.5626131 C496.595454,29.193174 495.903512,31.058884 495.503717,33.159799 C495.103922,35.260714 494.904028,37.4399887 494.904028,39.6976884 L494.904028,67.1662312 L489.091658,67.1662312 L489.091658,34.241608 C489.091658,32.6110471 488.922516,31.0589018 488.584229,29.5851256 C488.245941,28.1113494 487.692387,26.8257341 486.923551,25.7282412 C486.154715,24.6307483 485.124491,23.7684453 483.832846,23.1413065 C482.541202,22.5141677 480.9728,22.200603 479.127594,22.200603 C476.667319,22.200603 474.529987,22.6552718 472.715535,23.5646231 C470.901082,24.4739744 469.424939,25.7282332 468.287062,27.3274372 C467.149185,28.9266412 466.303478,30.8080294 465.749916,32.9716583 C465.196354,35.1352872 464.919577,37.5027007 464.919577,40.0739698 L464.919577,67.1662312 L459.107207,67.1662312 L459.107207,18.6259296 Z M585.157225,4.98572864 C582.758457,4.98572864 580.698007,5.7226057 578.975815,7.19638191 C577.253623,8.67015812 576.392539,10.8180763 576.392539,13.640201 C576.392539,14.8317648 576.638563,16.0389889 577.130618,17.2619095 C577.622673,18.4848302 578.237733,19.6763761 578.975815,20.8365829 C579.713898,21.9967897 580.513475,23.1256227 581.374571,24.2231156 C582.235667,25.3206085 583.035245,26.3083373 583.773327,27.1863317 C584.941958,26.4337651 586.125947,25.6184969 587.325331,24.7405025 C588.524715,23.8625082 589.616446,22.8747794 590.600556,21.7772864 C591.584666,20.6797935 592.384243,19.4568912 592.999312,18.1085427 C593.614381,16.7601943 593.92191,15.2707619 593.92191,13.640201 C593.92191,10.8180763 593.060827,8.67015812 591.338635,7.19638191 C589.616442,5.7226057 587.555993,4.98572864 585.157225,4.98572864 Z M601.856257,58.4176884 C599.457489,61.4906686 596.597463,63.9364733 593.276092,65.7551759 C589.95472,67.5738784 586.356622,68.4832161 582.481689,68.4832161 C579.652373,68.4832161 577.022994,68.075582 574.593472,67.2603015 C572.163963,66.445021 570.057372,65.2534752 568.273673,63.6856281 C566.489973,62.1177811 565.090713,60.1736799 564.07585,57.8532663 C563.060986,55.5328527 562.553562,52.8361963 562.553562,49.7632161 C562.553562,47.3800886 563.04561,45.1851357 564.02972,43.1782915 C565.01383,41.1714473 566.290078,39.352772 567.858503,37.7222111 C569.426929,36.0916501 571.164472,34.617896 573.071185,33.3009045 C574.977898,31.983913 576.853829,30.8237236 578.699035,29.8203015 C577.776432,28.6287378 576.838467,27.4215137 575.88511,26.198593 C574.931754,24.9756723 574.07067,23.7057352 573.301834,22.3887437 C572.532998,21.0717522 571.887186,19.6920675 571.364378,18.2496482 C570.841569,16.807229 570.580169,15.2707619 570.580169,13.640201 C570.580169,11.5706429 570.964581,9.70493293 571.733417,8.04301508 C572.502253,6.38109722 573.547854,4.95437782 574.870252,3.76281407 C576.19265,2.57125032 577.730298,1.64623445 579.483244,0.987738693 C581.23619,0.329242939 583.127498,-2.06057393e-12 585.157225,-2.06057393e-12 C587.186952,-2.06057393e-12 589.07826,0.329242939 590.831206,0.987738693 C592.584151,1.64623445 594.1218,2.57125032 595.444198,3.76281407 C596.766596,4.95437782 597.812197,6.38109722 598.581033,8.04301508 C599.349869,9.70493293 599.734281,11.5706429 599.734281,13.640201 C599.734281,15.7097591 599.365245,17.5911473 598.627163,19.2844221 C597.88908,20.9776969 596.920362,22.514164 595.720978,23.8938693 C594.521594,25.2735747 593.153086,26.5435118 591.615414,27.7037186 C590.077742,28.8639254 588.478588,29.9770801 586.817902,31.0432161 L601.210439,48.7284422 C602.010028,47.0978813 602.532828,45.4516666 602.778856,43.7897487 C603.024883,42.1278309 603.147895,40.0112691 603.147895,37.44 L608.960266,37.44 C608.960266,39.3214164 608.698865,41.7515429 608.176057,44.7304523 C607.653249,47.7093616 606.623024,50.6411916 605.085352,53.5260302 L616.156534,67.1662312 L608.868006,67.1662312 L601.856257,58.4176884 Z M581.83587,33.6771859 C580.236692,34.5551803 578.637537,35.5272309 577.038358,36.5933668 C575.43918,37.6595028 573.99379,38.8824052 572.702145,40.2621106 C571.410501,41.6418159 570.3649,43.1626048 569.56531,44.8245226 C568.765721,46.4864405 568.365932,48.320794 568.365932,50.3276382 C568.365932,52.2717685 568.765721,54.0590873 569.56531,55.6896482 C570.3649,57.3202092 571.425877,58.7312503 572.748275,59.9228141 C574.070673,61.1143719 575.592945,62.0237155 577.315138,62.6508543 C579.03733,63.2779931 580.821003,63.5915578 582.666209,63.5915578 C585.98758,63.5915578 588.955242,62.6665419 591.569284,60.8164824 C594.183326,58.9664229 596.412917,56.6930788 598.258123,53.9963819 L581.83587,33.6771859 Z M126.291336,117.455075 L132.472746,117.455075 L144.651046,159.034171 L144.835566,159.034171 L156.460307,117.455075 L163.010756,117.455075 L174.635497,159.034171 L174.820016,159.034171 L186.998316,117.455075 L193.179726,117.455075 L177.864591,165.995377 L171.498662,165.995377 L159.781661,125.168844 L159.597141,125.168844 L147.9724,165.995377 L141.606471,165.995377 L126.291336,117.455075 Z M221.007603,122.029749 C218.239794,122.029749 215.810309,122.625522 213.719075,123.817085 C211.627841,125.008649 209.890298,126.576473 208.506394,128.520603 C207.122489,130.464733 206.076888,132.675364 205.369559,135.152563 C204.66223,137.629761 204.30857,140.153957 204.30857,142.725226 C204.30857,145.296495 204.66223,147.820691 205.369559,150.297889 C206.076888,152.775088 207.122489,154.985719 208.506394,156.929849 C209.890298,158.87398 211.627841,160.441803 213.719075,161.633367 C215.810309,162.824931 218.239794,163.420704 221.007603,163.420704 C223.775412,163.420704 226.204897,162.824931 228.296131,161.633367 C230.387365,160.441803 232.124908,158.87398 233.508812,156.929849 C234.892717,154.985719 235.938318,152.775088 236.645647,150.297889 C237.352976,147.820691 237.706636,145.296495 237.706636,142.725226 C237.706636,140.153957 237.352976,137.629761 236.645647,135.152563 C235.938318,132.675364 234.892717,130.464733 233.508812,128.520603 C232.124908,126.576473 230.387365,125.008649 228.296131,123.817085 C226.204897,122.625522 223.775412,122.029749 221.007603,122.029749 Z M221.007603,117.04402 C224.636509,117.04402 227.850194,117.733862 230.648757,119.113568 C233.44732,120.493273 235.799922,122.343305 237.706636,124.663719 C239.613349,126.984132 241.058738,129.696467 242.042848,132.800804 C243.026958,135.905141 243.519006,139.213249 243.519006,142.725226 C243.519006,146.237203 243.026958,149.545311 242.042848,152.649648 C241.058738,155.753985 239.613349,158.46632 237.706636,160.786734 C235.799922,163.107147 233.44732,164.941501 230.648757,166.289849 C227.850194,167.638198 224.636509,168.312362 221.007603,168.312362 C217.378697,168.312362 214.165012,167.638198 211.366449,166.289849 C208.567886,164.941501 206.215283,163.107147 204.30857,160.786734 C202.401857,158.46632 200.956468,155.753985 199.972358,152.649648 C198.988248,149.545311 198.4962,146.237203 198.4962,142.725226 C198.4962,139.213249 198.988248,135.905141 199.972358,132.800804 C200.956468,129.696467 202.401857,126.984132 204.30857,124.663719 C206.215283,122.343305 208.567886,120.493273 211.366449,119.113568 C214.165012,117.733862 217.378697,117.04402 221.007603,117.04402 Z M253.632992,118.455075 L258.984063,118.455075 L258.984063,129.837588 L259.168583,129.837588 C260.644748,125.886613 262.935844,122.845036 266.041942,120.712764 C269.148039,118.580492 272.853772,117.608441 277.159253,117.796583 L277.159253,123.723015 C274.514458,123.597587 272.115726,123.958187 269.962985,124.804824 C267.810245,125.651462 265.94969,126.858686 264.381264,128.426533 C262.812839,129.99438 261.598096,131.86009 260.737,134.023719 C259.875904,136.187348 259.445362,138.554761 259.445362,141.12603 L259.445362,166.995377 L253.632992,166.995377 L253.632992,118.455075 Z M284.136404,99.8291457 L289.948775,99.8291457 L289.948775,141.972663 L316.335091,118.455075 L324.084919,118.455075 L303.787752,136.422513 L325.468816,166.995377 L318.180288,166.995377 L299.359279,140.561608 L289.948775,148.557588 L289.948775,166.995377 L284.136404,166.995377 L284.136404,99.8291457 Z M355.695449,99.8291457 L361.50782,99.8291457 L361.50782,166.995377 L355.695449,166.995377 L355.695449,99.8291457 Z M334.844724,123.440804 L326.725857,123.440804 L326.725857,118.455075 L334.844724,118.455075 L334.844724,114.033769 C334.844724,111.964211 334.998488,110.051466 335.306023,108.295477 C335.613557,106.539489 336.197864,105.034378 337.05896,103.780101 C337.920056,102.525823 339.104046,101.553772 340.610964,100.86392 C342.117882,100.174067 344.039943,99.8291457 346.377205,99.8291457 C347.238301,99.8291457 348.037878,99.8605022 348.775961,99.9232161 C349.514043,99.98593 350.344373,100.079999 351.266977,100.205427 L351.266977,105.285226 C350.467387,105.159798 349.729316,105.050051 349.05274,104.95598 C348.376165,104.861909 347.699599,104.814874 347.023024,104.814874 C345.423845,104.814874 344.193726,105.065726 343.33263,105.567437 C342.471533,106.069148 341.841097,106.743312 341.441303,107.58995 C341.041508,108.436587 340.810861,109.424316 340.749354,110.553166 C340.687847,111.682016 340.657094,112.904918 340.657094,114.22191 L340.657094,118.455075 L350.067599,118.455075 L350.067599,123.440804 L340.657094,123.440804 L340.657094,166.995377 L334.844724,166.995377 L334.844724,123.440804 Z M394.225468,122.029749 C391.457659,122.029749 389.028174,122.625522 386.93694,123.817085 C384.845707,125.008649 383.108164,126.576473 381.724259,128.520603 C380.340354,130.464733 379.294753,132.675364 378.587424,135.152563 C377.880095,137.629761 377.526436,140.153957 377.526436,142.725226 C377.526436,145.296495 377.880095,147.820691 378.587424,150.297889 C379.294753,152.775088 380.340354,154.985719 381.724259,156.929849 C383.108164,158.87398 384.845707,160.441803 386.93694,161.633367 C389.028174,162.824931 391.457659,163.420704 394.225468,163.420704 C396.993278,163.420704 399.422763,162.824931 401.513997,161.633367 C403.60523,160.441803 405.342773,158.87398 406.726678,156.929849 C408.110583,154.985719 409.156184,152.775088 409.863513,150.297889 C410.570842,147.820691 410.924501,145.296495 410.924501,142.725226 C410.924501,140.153957 410.570842,137.629761 409.863513,135.152563 C409.156184,132.675364 408.110583,130.464733 406.726678,128.520603 C405.342773,126.576473 403.60523,125.008649 401.513997,123.817085 C399.422763,122.625522 396.993278,122.029749 394.225468,122.029749 Z M394.225468,117.04402 C397.854374,117.04402 401.06806,117.733862 403.866623,119.113568 C406.665185,120.493273 409.017788,122.343305 410.924501,124.663719 C412.831214,126.984132 414.276604,129.696467 415.260714,132.800804 C416.244824,135.905141 416.736872,139.213249 416.736872,142.725226 C416.736872,146.237203 416.244824,149.545311 415.260714,152.649648 C414.276604,155.753985 412.831214,158.46632 410.924501,160.786734 C409.017788,163.107147 406.665185,164.941501 403.866623,166.289849 C401.06806,167.638198 397.854374,168.312362 394.225468,168.312362 C390.596563,168.312362 387.382877,167.638198 384.584314,166.289849 C381.785752,164.941501 379.433149,163.107147 377.526436,160.786734 C375.619723,158.46632 374.174333,155.753985 373.190223,152.649648 C372.206113,149.545311 371.714065,146.237203 371.714065,142.725226 C371.714065,139.213249 372.206113,135.905141 373.190223,132.800804 C374.174333,129.696467 375.619723,126.984132 377.526436,124.663719 C379.433149,122.343305 381.785752,120.493273 384.584314,119.113568 C387.382877,117.733862 390.596563,117.04402 394.225468,117.04402 Z M422.053345,118.455075 L428.234755,118.455075 L440.413055,160.034171 L440.597575,160.034171 L452.222316,118.455075 L458.772765,118.455075 L470.397506,160.034171 L470.582026,160.034171 L482.760326,118.455075 L488.941735,118.455075 L473.626601,166.995377 L467.260671,166.995377 L455.54367,126.168844 L455.359151,126.168844 L443.73441,166.995377 L437.36848,166.995377 L422.053345,118.455075 Z M523.746763,99.8291457 L529.559134,99.8291457 L529.559134,127.67397 L529.743653,127.67397 C530.358722,125.917981 531.235182,124.381514 532.373059,123.064523 C533.510936,121.747531 534.817938,120.634376 536.294103,119.725025 C537.770268,118.815674 539.369422,118.14151 541.091615,117.702513 C542.813807,117.263515 544.535974,117.04402 546.258166,117.04402 C549.887072,117.04402 553.039252,117.733862 555.714801,119.113568 C558.39035,120.493273 560.61994,122.358983 562.40364,124.710754 C564.187339,127.062524 565.509717,129.790537 566.370813,132.894874 C567.231909,135.999212 567.662451,139.275963 567.662451,142.725226 C567.662451,146.17449 567.231909,149.451241 566.370813,152.555578 C565.509717,155.659915 564.187339,158.387928 562.40364,160.739698 C560.61994,163.091469 558.39035,164.941501 555.714801,166.289849 C553.039252,167.638198 549.887072,168.312362 546.258166,168.312362 C542.383233,168.312362 538.923524,167.403024 535.878933,165.584322 C532.834343,163.765619 530.635505,161.163032 529.282354,157.776482 L529.097834,157.776482 L529.097834,166.995377 L523.746763,166.995377 L523.746763,99.8291457 Z M561.850081,142.725226 C561.850081,140.216671 561.557927,137.723831 560.973612,135.246633 C560.389297,132.769435 559.466708,130.558804 558.205817,128.614673 C556.944926,126.670543 555.330395,125.087041 553.362175,123.864121 C551.393955,122.6412 549.025976,122.029749 546.258166,122.029749 C543.182823,122.029749 540.584196,122.6412 538.462209,123.864121 C536.340222,125.087041 534.618055,126.670543 533.295658,128.614673 C531.97326,130.558804 531.019918,132.769435 530.435602,135.246633 C529.851287,137.723831 529.559134,140.216671 529.559134,142.725226 C529.559134,145.233781 529.851287,147.726621 530.435602,150.203819 C531.019918,152.681017 531.97326,154.891649 533.295658,156.835779 C534.618055,158.779909 536.340222,160.363411 538.462209,161.586332 C540.584196,162.809252 543.182823,163.420704 546.258166,163.420704 C549.025976,163.420704 551.393955,162.809252 553.362175,161.586332 C555.330395,160.363411 556.944926,158.779909 558.205817,156.835779 C559.466708,154.891649 560.389297,152.681017 560.973612,150.203819 C561.557927,147.726621 561.850081,145.233781 561.850081,142.725226 Z M572.794405,118.455075 L578.975815,118.455075 L594.659989,159.84603 L609.329305,118.455075 L615.141676,118.455075 L594.47547,174.332864 C593.614373,176.402422 592.814796,178.11135 592.076714,179.459698 C591.338631,180.808047 590.523677,181.874167 589.631828,182.65809 C588.739978,183.442014 587.694377,184.00643 586.494993,184.351357 C585.295609,184.696283 583.773336,184.868744 581.92813,184.868744 C580.7595,184.80603 579.852287,184.758995 579.206465,184.727638 C578.560646,184.696281 577.991712,184.586534 577.499657,184.398392 L577.499657,179.412663 C578.176233,179.538091 578.837422,179.647839 579.483244,179.74191 C580.129066,179.83598 580.790255,179.883015 581.466831,179.883015 C582.758475,179.883015 583.819453,179.694876 584.649796,179.318593 C585.480139,178.94231 586.202833,178.424928 586.817902,177.766432 C587.432971,177.107936 587.955771,176.308346 588.38632,175.367638 C588.816868,174.42693 589.278162,173.392166 589.770217,172.263317 L591.799934,166.807236 L572.794405,118.455075 Z" id="Platform-&amp;-workflow-by"></path>
            </g>
        </g>
    </g>
</svg>
