<?xml version="1.0" encoding="UTF-8"?>
<svg width="693px" height="348px" viewBox="0 0 693 348" version="1.1" xmlns="http://www.w3.org/2000/svg" xmlns:xlink="http://www.w3.org/1999/xlink">
    <title>Slash - OMP</title>
    <desc>An official PKP logotype.</desc>
    <g id="Final" stroke="none" stroke-width="1" fill="none" fill-rule="evenodd">
        <g id="Artboard" transform="translate(-863.000000, -3489.000000)" fill="#000000" fill-rule="nonzero">
            <g id="Slash---OMP" transform="translate(863.000000, 3489.000000)">
                <path d="M276.504409,33.0410383 L298.161691,33.0410383 C302.54253,33.0410383 306.09034,31.9304196 308.805227,29.7091488 C311.520113,27.4878781 312.877536,24.0943208 312.877536,19.5283754 C312.877536,14.9624299 311.520113,11.5688726 308.805227,9.34760187 C306.09034,7.1263311 302.54253,6.01571237 298.161691,6.01571237 L276.504409,6.01571237 L276.504409,33.0410383 Z M270.21084,0.647668171 L299.549978,0.647668171 C302.511672,0.647668171 305.195668,1.06415019 307.602044,1.89712673 C310.008421,2.73010327 312.075406,3.96412408 313.803061,5.59922618 C315.530716,7.23432828 316.857288,9.22418683 317.782818,11.5688615 C318.708347,13.9135362 319.171105,16.566681 319.171105,19.5283754 C319.171105,22.4900697 318.708347,25.1432145 317.782818,27.4878892 C316.857288,29.8325639 315.530716,31.8224224 313.803061,33.4575245 C312.075406,35.0926266 310.008421,36.3266474 307.602044,37.159624 C305.195668,37.9926005 302.511672,38.4090825 299.549978,38.4090825 L276.504409,38.4090825 L276.504409,66.7301433 L270.21084,66.7301433 L270.21084,0.647668171 Z M328.946961,0.647668171 L334.777768,0.647668171 L334.777768,66.7301433 L328.946961,66.7301433 L328.946961,0.647668171 Z M346.867436,33.5963533 C347.052542,30.8197648 347.638702,28.4134242 348.625934,26.3772593 C349.613165,24.3410945 350.955163,22.6751664 352.651967,21.3794251 C354.348771,20.0836838 356.338629,19.1273177 358.621602,18.510298 C360.904575,17.8932783 363.434318,17.5847731 366.210906,17.5847731 C368.308773,17.5847731 370.406608,17.7853015 372.504475,18.1863643 C374.602342,18.5874271 376.484224,19.3432648 378.150177,20.4539002 C379.81613,21.5645356 381.173553,23.1224869 382.222486,25.1278008 C383.27142,27.1331147 383.795878,29.7399836 383.795878,32.9484859 L383.795878,58.3078671 C383.795878,60.6525418 384.937348,61.8248615 387.22032,61.8248615 C387.899042,61.8248615 388.516052,61.7014595 389.07137,61.4546516 L389.07137,66.3599334 C388.392649,66.4833373 387.791063,66.5758889 387.266597,66.6375908 C386.74213,66.6992928 386.078844,66.7301433 385.276718,66.7301433 C383.795871,66.7301433 382.608126,66.5296149 381.713448,66.1285521 C380.818769,65.7274894 380.124632,65.1567547 379.631017,64.4163312 C379.137401,63.6759076 378.81347,62.7966677 378.659215,61.7785853 C378.504961,60.7605029 378.427834,59.6344589 378.427834,58.4004196 L378.242729,58.4004196 C377.193796,59.9429687 376.129453,61.3158169 375.049669,62.5190052 C373.969884,63.7221935 372.766714,64.7248354 371.440122,65.526961 C370.113529,66.3290865 368.601854,66.946097 366.90505,67.3780107 C365.208246,67.8099245 363.187537,68.0258781 360.842862,68.0258781 C358.621591,68.0258781 356.539181,67.7636487 354.595569,67.239182 C352.651957,66.7147153 350.955179,65.8817512 349.505182,64.7402649 C348.055186,63.5987785 346.913717,62.148804 346.08074,60.390298 C345.247764,58.631792 344.831282,56.5493819 344.831282,54.1430052 C344.831282,50.811099 345.571694,48.2042301 347.052541,46.3223201 C348.533389,44.4404101 350.492397,43.005861 352.929624,42.0186295 C355.366852,41.031398 358.112548,40.3372613 361.166796,39.9361986 C364.221043,39.5351358 367.32152,39.1495043 370.46832,38.7792925 C371.70236,38.6558885 372.782128,38.5016359 373.707657,38.31653 C374.633187,38.1314242 375.40445,37.8074937 376.02147,37.3447289 C376.638489,36.8819642 377.116672,36.2495285 377.456033,35.447403 C377.795394,34.6452774 377.965072,33.5963597 377.965072,32.3006184 C377.965072,30.3261555 377.641141,28.7065032 376.993271,27.4416129 C376.3454,26.1767226 375.450735,25.1740807 374.309249,24.4336571 C373.167762,23.6932335 371.84119,23.1841999 370.329492,22.9065411 C368.817794,22.6288823 367.198141,22.4900549 365.470486,22.4900549 C361.768368,22.4900549 358.745017,23.3693035 356.400343,25.1278008 C354.055668,26.8863068 352.821647,29.7091294 352.698243,33.5963533 L346.867436,33.5963533 Z M377.965072,40.6303422 L377.779967,40.6303422 C377.409755,41.3090638 376.700193,41.8026722 375.65126,42.111182 C374.602326,42.4196918 373.676811,42.6356455 372.874685,42.7590494 C370.406606,43.1909631 367.861439,43.5765947 365.239105,43.9159555 C362.616771,44.2553163 360.225856,44.7643499 358.066287,45.4430715 C355.906718,46.1217931 354.132814,47.0935845 352.744519,48.3584748 C351.356225,49.6233651 350.662088,51.4281205 350.662088,53.7727952 C350.662088,55.2536424 350.955168,56.5647895 351.541337,57.7062759 C352.127506,58.8477623 352.914194,59.8349789 353.901425,60.6679555 C354.888657,61.500932 356.030126,62.1333677 357.325867,62.5652814 C358.621609,62.9971952 359.948181,63.2131488 361.305624,63.2131488 C363.526895,63.2131488 365.655581,62.8737931 367.691746,62.1950715 C369.727911,61.5163499 371.501816,60.5291332 373.013514,59.2333919 C374.525212,57.9376506 375.728387,56.3642741 376.623061,54.5132151 C377.517739,52.6621562 377.965072,50.5643208 377.965072,48.2196461 L377.965072,40.6303422 Z M406.158873,18.9730604 L415.876884,18.9730604 L415.876884,23.8783422 L406.158873,23.8783422 L406.158873,56.0866074 C406.158873,57.9993683 406.421102,59.4956186 406.945569,60.575403 C407.470036,61.6551874 408.781183,62.2567725 410.87905,62.3801765 C412.545003,62.3801765 414.210931,62.2876249 415.876884,62.102519 L415.876884,67.0078008 C415.013056,67.0078008 414.149242,67.0386513 413.285414,67.1003533 C412.421587,67.1620552 411.557772,67.1929057 410.693945,67.1929057 C406.806721,67.1929057 404.091875,66.437068 402.549326,64.9253698 C401.006777,63.4136717 400.266364,60.6216996 400.328066,56.5493698 L400.328066,23.8783422 L391.998343,23.8783422 L391.998343,18.9730604 L400.328066,18.9730604 L400.328066,4.62742508 L406.158873,4.62742508 L406.158873,18.9730604 Z M444.163238,23.8783422 L434.722884,23.8783422 L434.722884,66.7301433 L428.892077,66.7301433 L428.892077,23.8783422 L420.747459,23.8783422 L420.747459,18.9730604 L428.892077,18.9730604 L428.892077,14.6230936 C428.892077,12.5869287 429.04633,10.705047 429.35484,8.97739193 C429.66335,7.24973688 430.249509,5.76891191 431.113337,4.53487259 C431.977165,3.30083327 433.16491,2.34446714 434.676608,1.66574552 C436.188306,0.987023893 438.116463,0.647668171 440.461138,0.647668171 C441.324966,0.647668171 442.127079,0.678518691 442.867503,0.740220657 C443.607926,0.801922623 444.44089,0.894474183 445.36642,1.01787812 L445.36642,6.01571237 C444.564294,5.89230844 443.823882,5.78433162 443.14516,5.69177867 C442.466439,5.59922572 441.787727,5.55294994 441.109006,5.55294994 C439.504754,5.55294994 438.270734,5.7997541 437.406906,6.29336983 C436.543079,6.78698556 435.910643,7.45027174 435.50958,8.28324828 C435.108517,9.11622482 434.877138,10.0880162 434.815436,11.1986516 C434.753734,12.309287 434.722884,13.5124573 434.722884,14.8081986 L434.722884,18.9730604 L444.163238,18.9730604 L444.163238,23.8783422 Z M471.338961,22.4900549 C468.562373,22.4900549 466.125182,23.0762148 464.027315,24.2485521 C461.929448,25.4208895 460.186394,26.9634155 458.798099,28.8761765 C457.409805,30.7889374 456.360888,32.9638991 455.651315,35.4011267 C454.941742,37.8383544 454.586961,40.3218213 454.586961,42.8516019 C454.586961,45.3813825 454.941742,47.8648494 455.651315,50.302077 C456.360888,52.7393047 457.409805,54.9142663 458.798099,56.8270273 C460.186394,58.7397882 461.929448,60.2823142 464.027315,61.4546516 C466.125182,62.6269889 468.562373,63.2131488 471.338961,63.2131488 C474.11555,63.2131488 476.552741,62.6269889 478.650608,61.4546516 C480.748475,60.2823142 482.491529,58.7397882 483.879823,56.8270273 C485.268117,54.9142663 486.317035,52.7393047 487.026608,50.302077 C487.73618,47.8648494 488.090961,45.3813825 488.090961,42.8516019 C488.090961,40.3218213 487.73618,37.8383544 487.026608,35.4011267 C486.317035,32.9638991 485.268117,30.7889374 483.879823,28.8761765 C482.491529,26.9634155 480.748475,25.4208895 478.650608,24.2485521 C476.552741,23.0762148 474.11555,22.4900549 471.338961,22.4900549 Z M471.338961,17.5847731 C474.979377,17.5847731 478.203257,18.2634846 481.010696,19.6209278 C483.818136,20.9783711 486.1782,22.7985518 488.090961,25.0815245 C490.003722,27.3644973 491.453697,30.0330673 492.440928,33.0873146 C493.42816,36.1415619 493.921768,39.3962918 493.921768,42.8516019 C493.921768,46.306912 493.42816,49.5616418 492.440928,52.6158892 C491.453697,55.6701365 490.003722,58.3387065 488.090961,60.6216792 C486.1782,62.904652 483.818136,64.7094074 481.010696,66.0359997 C478.203257,67.3625919 474.979377,68.0258781 471.338961,68.0258781 C467.698545,68.0258781 464.474666,67.3625919 461.667227,66.0359997 C458.859787,64.7094074 456.499722,62.904652 454.586961,60.6216792 C452.6742,58.3387065 451.224226,55.6701365 450.236994,52.6158892 C449.249763,49.5616418 448.756155,46.306912 448.756155,42.8516019 C448.756155,39.3962918 449.249763,36.1415619 450.236994,33.0873146 C451.224226,30.0330673 452.6742,27.3644973 454.586961,25.0815245 C456.499722,22.7985518 458.859787,20.9783711 461.667227,19.6209278 C464.474666,18.2634846 467.698545,17.5847731 471.338961,17.5847731 Z M504.067834,18.9730604 L509.435878,18.9730604 L509.435878,30.1719113 L509.620983,30.1719113 C511.101831,26.2846874 513.400194,23.2921869 516.516144,21.1943201 C519.632093,19.0964533 523.349581,18.1400871 527.668718,18.325193 L527.668718,24.1559997 C525.015534,24.0325957 522.609193,24.3873767 520.449624,25.2203533 C518.290056,26.0533298 516.423599,27.2410748 514.850199,28.783624 C513.276799,30.3261731 512.058203,32.1617791 511.194376,34.2904969 C510.330548,36.4192147 509.898641,38.748429 509.898641,41.2782096 L509.898641,66.7301433 L504.067834,66.7301433 L504.067834,18.9730604 Z M534.668,18.9730604 L540.036044,18.9730604 L540.036044,27.0251267 L540.313702,27.0251267 C541.856251,24.0634324 543.87696,21.7496434 546.37589,20.0836903 C548.874819,18.4177372 552.067848,17.5847731 555.955072,17.5847731 C559.101872,17.5847731 561.955545,18.3560361 564.516177,19.8985853 C567.076808,21.4411267 568.789012,23.785774 569.65284,26.9325742 C571.071985,23.785774 573.16982,21.4411267 575.946409,19.8985853 C578.722997,18.3560361 581.684647,17.5847731 584.831448,17.5847731 C595.382484,17.5847731 600.657923,23.1687173 600.657923,34.3367731 L600.657923,66.7301433 L594.827116,66.7301433 L594.827116,34.6144306 C594.827116,30.6655048 593.994152,27.6575791 592.328199,25.5905632 C590.662246,23.5235473 587.731446,22.4900549 583.535713,22.4900549 C581.005932,22.4900549 578.908097,22.968238 577.242144,23.9246184 C575.576191,24.8809989 574.249618,26.1612955 573.262387,27.7655466 C572.275155,29.3697977 571.581019,31.2054037 571.179956,33.2724196 C570.778893,35.3394354 570.578365,37.4835466 570.578365,39.7048173 L570.578365,66.7301433 L564.747558,66.7301433 L564.747558,34.3367731 C564.747558,32.732522 564.57788,31.2054213 564.238519,29.7554251 C563.899159,28.3054289 563.343849,27.0405575 562.572575,25.9607731 C561.8013,24.8809887 560.767808,24.0325994 559.472066,23.4155798 C558.176325,22.7985601 556.602948,22.4900549 554.75189,22.4900549 C552.283811,22.4900549 550.1397,22.9373875 548.319492,23.832066 C546.499284,24.7267445 545.018459,25.9607653 543.876972,27.5341654 C542.735486,29.1075655 541.887097,30.9585968 541.331779,33.0873146 C540.776461,35.2160324 540.498807,37.5452467 540.498807,40.0750273 L540.498807,66.7301433 L534.668,66.7301433 L534.668,18.9730604 Z M661.117834,5.55294994 C658.711458,5.55294994 656.644473,6.27793716 654.916818,7.72793336 C653.189163,9.17792956 652.325348,11.2911902 652.325348,14.0677787 C652.325348,15.240116 652.572152,16.427861 653.065768,17.6310494 C653.559384,18.8342377 654.176394,20.0065575 654.916818,21.1480439 C655.657241,22.2895302 656.459355,23.400149 657.323182,24.4799334 C658.18701,25.5597178 658.989123,26.5315092 659.729547,27.3953367 C660.901884,26.6549131 662.089629,25.8527996 663.292818,24.988972 C664.496006,24.1251445 665.591199,23.1533531 666.578431,22.0735687 C667.565662,20.9937843 668.367776,19.790614 668.984796,18.4640218 C669.601815,17.1374295 669.91032,15.6720298 669.91032,14.0677787 C669.91032,11.2911902 669.046506,9.17792956 667.318851,7.72793336 C665.591196,6.27793716 663.524211,5.55294994 661.117834,5.55294994 Z M677.869834,58.1227621 C675.463458,61.1461584 672.594359,63.552499 669.262453,65.341856 C665.930547,67.131213 662.321036,68.0258781 658.433812,68.0258781 C655.595522,68.0258781 652.957802,67.6248214 650.520575,66.8226958 C648.083359,66.0205702 645.970086,64.8482505 644.180729,63.3057013 C642.391372,61.7631522 640.987674,59.8504199 639.969591,57.5674472 C638.951509,55.2844744 638.442475,52.6313297 638.442475,49.6079334 C638.442475,47.2632587 638.936083,45.1037222 639.923315,43.1292593 C640.910546,41.1547964 642.190843,39.3654662 643.764243,37.7612151 C645.337643,36.156964 647.080698,34.7069896 648.993459,33.4112483 C650.90622,32.115507 652.788101,30.9740377 654.63916,29.9868063 C653.713631,28.8144689 652.77269,27.6267239 651.816309,26.4235356 C650.859929,25.2203472 649.996114,23.9709012 649.22484,22.6751599 C648.453565,21.3794186 647.805704,20.0219957 647.281238,18.6028505 C646.756771,17.1837053 646.494541,15.6720298 646.494541,14.0677787 C646.494541,12.0316138 646.880173,10.1960078 647.651448,8.56090574 C648.422722,6.92580364 649.47164,5.52210497 650.798232,4.34976762 C652.124824,3.17743026 653.66735,2.26733992 655.425856,1.61946928 C657.184362,0.971598633 659.081669,0.647668171 661.117834,0.647668171 C663.153999,0.647668171 665.051306,0.971598633 666.809812,1.61946928 C668.568318,2.26733992 670.110844,3.17743026 671.437436,4.34976762 C672.764029,5.52210497 673.812946,6.92580364 674.584221,8.56090574 C675.355496,10.1960078 675.741127,12.0316138 675.741127,14.0677787 C675.741127,16.1039435 675.370921,17.9549748 674.630497,19.6209278 C673.890074,21.2868809 672.918282,22.7985564 671.715094,24.1559997 C670.511906,25.5134429 669.139057,26.762889 667.596508,27.9043754 C666.053959,29.0458617 664.449732,30.1410552 662.783779,31.1899886 L677.221967,48.589856 C678.024092,46.9856049 678.548551,45.3659526 678.795359,43.7308505 C679.042167,42.0957484 679.165569,40.0133383 679.165569,37.4835577 L684.996376,37.4835577 C684.996376,39.3346167 684.734146,41.725532 684.20968,44.6563754 C683.685213,47.5872187 682.65172,50.4717424 681.109171,53.3100328 L692.21547,66.7301433 L684.903823,66.7301433 L677.869834,58.1227621 Z M657.785945,33.7814582 C656.181694,34.6452857 654.577467,35.6016519 652.973215,36.6505853 C651.368964,37.6995187 649.91899,38.902689 648.623249,40.2601323 C647.327507,41.6175755 646.27859,43.1138257 645.476464,44.7489278 C644.674339,46.3840299 644.273282,48.1887854 644.273282,50.1632483 C644.273282,52.0760092 644.674339,53.8344889 645.476464,55.43874 C646.27859,57.0429911 647.342933,58.4312645 648.669525,59.6036019 C649.996117,60.7759334 651.523218,61.6706043 653.250873,62.287624 C654.978528,62.9046436 656.767858,63.2131488 658.618917,63.2131488 C661.950823,63.2131488 664.927898,62.3030585 667.550232,60.4828505 C670.172566,58.6626425 672.409228,56.4259798 674.260287,53.7727952 L657.785945,33.7814582 Z M200.796475,123.094607 L206.997492,123.094607 L219.21442,164.002806 L219.399525,164.002806 L231.061138,123.094607 L237.632365,123.094607 L249.293978,164.002806 L249.479083,164.002806 L261.696011,123.094607 L267.897028,123.094607 L252.533315,170.85169 L246.147193,170.85169 L234.393028,130.683911 L234.207923,130.683911 L222.546309,170.85169 L216.160188,170.85169 L200.796475,123.094607 Z M295.813171,126.611602 C293.036583,126.611602 290.599392,127.197762 288.501525,128.370099 C286.403658,129.542436 284.660604,131.084962 283.272309,132.997723 C281.884015,134.910484 280.835097,137.085446 280.125525,139.522674 C279.415952,141.959901 279.061171,144.443368 279.061171,146.973149 C279.061171,149.502929 279.415952,151.986396 280.125525,154.423624 C280.835097,156.860852 281.884015,159.035813 283.272309,160.948574 C284.660604,162.861335 286.403658,164.403861 288.501525,165.576199 C290.599392,166.748536 293.036583,167.334696 295.813171,167.334696 C298.58976,167.334696 301.026951,166.748536 303.124818,165.576199 C305.222685,164.403861 306.965739,162.861335 308.354033,160.948574 C309.742327,159.035813 310.791245,156.860852 311.500818,154.423624 C312.21039,151.986396 312.565171,149.502929 312.565171,146.973149 C312.565171,144.443368 312.21039,141.959901 311.500818,139.522674 C310.791245,137.085446 309.742327,134.910484 308.354033,132.997723 C306.965739,131.084962 305.222685,129.542436 303.124818,128.370099 C301.026951,127.197762 298.58976,126.611602 295.813171,126.611602 Z M295.813171,121.70632 C299.453587,121.70632 302.677467,122.385032 305.484906,123.742475 C308.292346,125.099918 310.65241,126.920099 312.565171,129.203071 C314.477932,131.486044 315.927907,134.154614 316.915138,137.208862 C317.90237,140.263109 318.395978,143.517839 318.395978,146.973149 C318.395978,150.428459 317.90237,153.683189 316.915138,156.737436 C315.927907,159.791683 314.477932,162.460253 312.565171,164.743226 C310.65241,167.026199 308.292346,168.830954 305.484906,170.157547 C302.677467,171.484139 299.453587,172.147425 295.813171,172.147425 C292.172755,172.147425 288.948876,171.484139 286.141436,170.157547 C283.333997,168.830954 280.973932,167.026199 279.061171,164.743226 C277.14841,162.460253 275.698436,159.791683 274.711204,156.737436 C273.723973,153.683189 273.230365,150.428459 273.230365,146.973149 C273.230365,143.517839 273.723973,140.263109 274.711204,137.208862 C275.698436,134.154614 277.14841,131.486044 279.061171,129.203071 C280.973932,126.920099 283.333997,125.099918 286.141436,123.742475 C288.948876,122.385032 292.172755,121.70632 295.813171,121.70632 Z M328.542044,123.094607 L333.910088,123.094607 L333.910088,134.293458 L334.095193,134.293458 C335.576041,130.406234 337.874404,127.413734 340.990354,125.315867 C344.106303,123.218 347.823791,122.261634 352.142928,122.44674 L352.142928,128.277547 C349.489744,128.154143 347.083403,128.508924 344.923834,129.3419 C342.764265,130.174877 340.897809,131.362622 339.324409,132.905171 C337.751009,134.44772 336.532413,136.283326 335.668586,138.412044 C334.804758,140.540762 334.372851,142.869976 334.372851,145.399757 L334.372851,170.85169 L328.542044,170.85169 L328.542044,123.094607 Z M359.14221,104.769215 L364.973017,104.769215 L364.973017,146.232729 L391.443028,123.094607 L399.217436,123.094607 L378.85589,140.772132 L400.605724,170.85169 L393.294077,170.85169 L374.41337,144.844442 L364.973017,152.711403 L364.973017,170.85169 L359.14221,170.85169 L359.14221,104.769215 Z M430.928232,104.769215 L436.759039,104.769215 L436.759039,170.85169 L430.928232,170.85169 L430.928232,104.769215 Z M410.01137,127.999889 L401.866751,127.999889 L401.866751,123.094607 L410.01137,123.094607 L410.01137,118.744641 C410.01137,116.708476 410.165623,114.826594 410.474133,113.098939 C410.782642,111.371284 411.368802,109.890459 412.23263,108.65642 C413.096457,107.42238 414.284202,106.466014 415.795901,105.787292 C417.307599,105.108571 419.235756,104.769215 421.580431,104.769215 C422.444258,104.769215 423.246372,104.800066 423.986796,104.861768 C424.727219,104.92347 425.560183,105.016021 426.485713,105.139425 L426.485713,110.137259 C425.683587,110.013855 424.943175,109.905879 424.264453,109.813326 C423.585731,109.720773 422.90702,109.674497 422.228298,109.674497 C420.624047,109.674497 419.390026,109.921301 418.526199,110.414917 C417.662371,110.908533 417.029936,111.571819 416.628873,112.404795 C416.22781,113.237772 415.996431,114.209563 415.934729,115.320199 C415.873027,116.430834 415.842177,117.634004 415.842177,118.929746 L415.842177,123.094607 L425.28253,123.094607 L425.28253,127.999889 L415.842177,127.999889 L415.842177,170.85169 L410.01137,170.85169 L410.01137,127.999889 Z M469.580464,126.611602 C466.803876,126.611602 464.366685,127.197762 462.268818,128.370099 C460.170951,129.542436 458.427896,131.084962 457.039602,132.997723 C455.651308,134.910484 454.60239,137.085446 453.892818,139.522674 C453.183245,141.959901 452.828464,144.443368 452.828464,146.973149 C452.828464,149.502929 453.183245,151.986396 453.892818,154.423624 C454.60239,156.860852 455.651308,159.035813 457.039602,160.948574 C458.427896,162.861335 460.170951,164.403861 462.268818,165.576199 C464.366685,166.748536 466.803876,167.334696 469.580464,167.334696 C472.357053,167.334696 474.794244,166.748536 476.89211,165.576199 C478.989977,164.403861 480.733032,162.861335 482.121326,160.948574 C483.50962,159.035813 484.558538,156.860852 485.26811,154.423624 C485.977683,151.986396 486.332464,149.502929 486.332464,146.973149 C486.332464,144.443368 485.977683,141.959901 485.26811,139.522674 C484.558538,137.085446 483.50962,134.910484 482.121326,132.997723 C480.733032,131.084962 478.989977,129.542436 476.89211,128.370099 C474.794244,127.197762 472.357053,126.611602 469.580464,126.611602 Z M469.580464,121.70632 C473.22088,121.70632 476.444759,122.385032 479.252199,123.742475 C482.059638,125.099918 484.419703,126.920099 486.332464,129.203071 C488.245225,131.486044 489.695199,134.154614 490.682431,137.208862 C491.669662,140.263109 492.163271,143.517839 492.163271,146.973149 C492.163271,150.428459 491.669662,153.683189 490.682431,156.737436 C489.695199,159.791683 488.245225,162.460253 486.332464,164.743226 C484.419703,167.026199 482.059638,168.830954 479.252199,170.157547 C476.444759,171.484139 473.22088,172.147425 469.580464,172.147425 C465.940048,172.147425 462.716169,171.484139 459.908729,170.157547 C457.10129,168.830954 454.741225,167.026199 452.828464,164.743226 C450.915703,162.460253 449.465729,159.791683 448.478497,156.737436 C447.491266,153.683189 446.997657,150.428459 446.997657,146.973149 C446.997657,143.517839 447.491266,140.263109 448.478497,137.208862 C449.465729,134.154614 450.915703,131.486044 452.828464,129.203071 C454.741225,126.920099 457.10129,125.099918 459.908729,123.742475 C462.716169,122.385032 465.940048,121.70632 469.580464,121.70632 Z M497.496608,123.094607 L503.697624,123.094607 L515.914552,164.002806 L516.099657,164.002806 L527.761271,123.094607 L534.332497,123.094607 L545.99411,164.002806 L546.179215,164.002806 L558.396144,123.094607 L564.59716,123.094607 L549.233448,170.85169 L542.847326,170.85169 L531.09316,130.683911 L530.908055,130.683911 L519.246442,170.85169 L512.86032,170.85169 L497.496608,123.094607 Z M599.512586,104.769215 L605.343392,104.769215 L605.343392,132.164751 L605.528497,132.164751 C606.145517,130.437096 607.024757,128.925421 608.166243,127.629679 C609.307729,126.333938 610.618877,125.238744 612.099724,124.344066 C613.580571,123.449387 615.184798,122.786101 616.912453,122.354188 C618.640108,121.922274 620.367737,121.70632 622.095392,121.70632 C625.735808,121.70632 628.897987,122.385032 631.582022,123.742475 C634.266058,125.099918 636.50272,126.935524 638.292077,129.249348 C640.081434,131.563171 641.408007,134.247167 642.271834,137.301414 C643.135662,140.355661 643.567569,143.579541 643.567569,146.973149 C643.567569,150.366757 643.135662,153.590636 642.271834,156.644884 C641.408007,159.699131 640.081434,162.383126 638.292077,164.69695 C636.50272,167.010774 634.266058,168.830954 631.582022,170.157547 C628.897987,171.484139 625.735808,172.147425 622.095392,172.147425 C618.208168,172.147425 614.737485,171.25276 611.683238,169.463403 C608.62899,167.674046 606.423178,165.113453 605.065735,161.781547 L604.88063,161.781547 L604.88063,170.85169 L599.512586,170.85169 L599.512586,104.769215 Z M637.736762,146.973149 C637.736762,144.50507 637.443682,142.052454 636.857514,139.615226 C636.271345,137.177999 635.34583,135.003037 634.080939,133.090276 C632.816049,131.177515 631.196397,129.619564 629.221934,128.416375 C627.247471,127.213187 624.871981,126.611602 622.095392,126.611602 C619.010294,126.611602 616.403425,127.213187 614.274707,128.416375 C612.145989,129.619564 610.41836,131.177515 609.091768,133.090276 C607.765176,135.003037 606.80881,137.177999 606.222641,139.615226 C605.636472,142.052454 605.343392,144.50507 605.343392,146.973149 C605.343392,149.441227 605.636472,151.893844 606.222641,154.331071 C606.80881,156.768299 607.765176,158.943261 609.091768,160.856022 C610.41836,162.768783 612.145989,164.326734 614.274707,165.529922 C616.403425,166.733111 619.010294,167.334696 622.095392,167.334696 C624.871981,167.334696 627.247471,166.733111 629.221934,165.529922 C631.196397,164.326734 632.816049,162.768783 634.080939,160.856022 C635.34583,158.943261 636.271345,156.768299 636.857514,154.331071 C637.443682,151.893844 637.736762,149.441227 637.736762,146.973149 Z M648.715801,123.094607 L654.916818,123.094607 L670.65074,163.817701 L685.366586,123.094607 L691.197392,123.094607 L670.465635,178.070784 C669.601808,180.106949 668.799694,181.788302 668.059271,183.114895 C667.318847,184.441487 666.501308,185.490405 665.60663,186.261679 C664.711951,187.032954 663.663034,187.588263 662.459845,187.927624 C661.256657,188.266985 659.729556,188.436663 657.878497,188.436663 C656.70616,188.374961 655.79607,188.328685 655.148199,188.297834 C654.500331,188.266983 653.929594,188.159006 653.435978,187.9739 L653.435978,183.068618 C654.1147,183.192022 654.777986,183.299999 655.425856,183.392552 C656.073727,183.485105 656.737013,183.531381 657.415735,183.531381 C658.711476,183.531381 659.775819,183.346278 660.608796,182.976066 C661.441772,182.605854 662.166759,182.096821 662.783779,181.44895 C663.400799,180.801079 663.925258,180.014391 664.357171,179.088862 C664.789085,178.163332 665.251843,177.145265 665.745459,176.034629 L667.781613,170.666585 L648.715801,123.094607 Z" id="Platform-&amp;-workflow-by"></path>
                <g id="OMP/PKP" transform="translate(0.349236, 232.269907)">
                    <path d="M57.2550457,115.690608 C16.8223588,115.690608 0,84.2593584 0,57.6977393 C0,33.7922821 17.412617,0 58.140433,0 C91.3424569,0 116.133301,20.9541662 116.133301,55.3367065 C116.133301,88.3911659 92.8181024,115.690608 57.2550457,115.690608 Z M61.2392885,110.083155 C74.5200981,110.083155 101.967105,102.409798 101.967105,59.4685139 C101.967105,24.0530218 80.4226801,5.01719472 57.1074811,5.01719472 C32.4642012,5.01719472 14.0186323,21.2492953 14.0186323,53.5659319 C14.0186323,87.9484722 34.6776694,110.083155 61.2392885,110.083155 Z M232.000987,3.98424287 L241.887811,94.588877 C242.47807,99.9012008 243.511022,108.164816 249.856297,110.230719 C254.135669,111.5588 257.529654,111.5588 259.005299,111.5588 C259.743122,111.5588 260.628509,111.706365 260.628509,112.444188 C260.628509,113.329575 260.185816,113.624704 258.415041,113.624704 C255.168621,113.624704 238.346262,113.18201 232.886374,112.739317 C229.492389,112.444188 228.754566,112.001494 228.754566,111.263671 C228.754566,110.673413 229.049696,110.525848 229.787518,110.230719 C230.82047,109.788026 230.672906,107.574557 230.377777,104.918396 L223.294678,27.8897001 L186.69867,105.508654 C183.599814,112.001494 183.15712,113.329575 181.829039,113.329575 C180.796087,113.329575 180.058265,111.853929 177.254538,106.541606 C173.41786,99.3109426 160.727309,73.7822753 159.989486,72.3066298 C158.661405,69.6504679 141.691482,33.2020239 140.068272,29.217781 L134.018125,98.7206844 C133.87056,101.081717 133.722996,103.147621 133.722996,105.656218 C133.722996,109.345332 135.49377,110.525848 137.707239,110.968542 C140.215836,111.5588 142.134175,111.5588 143.019563,111.5588 C143.90495,111.5588 144.495208,111.853929 144.495208,112.296623 C144.495208,113.329575 143.757385,113.624704 142.28174,113.624704 C136.821851,113.624704 129.296059,113.18201 128.115543,113.18201 C126.787462,113.18201 119.704364,113.624704 115.720121,113.624704 C114.244475,113.624704 113.211523,113.477139 113.211523,112.444188 C113.211523,111.853929 113.949346,111.5588 114.687169,111.5588 C115.867685,111.5588 116.900637,111.5588 119.114105,111.116107 C123.983735,110.230719 124.278865,104.918396 125.016687,98.868249 L135.641335,2.95129101 C135.7889,1.32808096 136.379158,0 137.264545,0 C138.149932,0 138.740191,0.590258203 139.478013,2.21346826 L184.632766,95.0315706 L228.016744,2.36103281 C228.607002,1.03295185 229.19726,0 230.230212,0 C231.263164,0 231.705857,1.18051641 232.000987,3.98424287 Z M269.511895,70.8309843 L269.511895,44.8596234 C269.511895,21.8395535 269.511895,17.7077461 269.216766,12.9856805 C268.921637,7.96848574 267.741121,5.60745293 262.871491,4.57450107 C261.690974,4.27937197 259.182377,4.13180742 257.854296,4.13180742 C257.264038,4.13180742 256.673779,3.83667832 256.673779,3.24642012 C256.673779,2.36103281 257.411602,2.06590371 259.034812,2.06590371 C265.675217,2.06590371 274.52909,2.50859736 275.709606,2.50859736 C278.956027,2.50859736 287.514771,2.06590371 294.30274,2.06590371 C312.748309,2.06590371 319.388713,8.26361484 321.749746,10.4770831 C324.996166,13.5759387 329.127974,20.2163434 329.127974,29.8080392 C329.127974,48.9914308 313.781261,63.1576277 292.827094,63.1576277 C292.089272,63.1576277 290.466062,63.1576277 289.728239,63.0100631 C288.990416,63.0100631 288.105029,62.714934 288.105029,61.9771113 C288.105029,60.7965949 288.990416,60.6490303 292.089272,60.6490303 C306.403033,60.6490303 317.617939,50.90977 317.617939,35.4154922 C317.617939,31.7263784 317.175245,21.8395535 309.354324,13.8710678 C301.533403,5.90258203 292.531965,6.49284023 289.137981,6.49284023 C286.629383,6.49284023 284.120786,6.78796933 282.792705,7.37822753 C281.907318,7.67335664 281.612189,8.70630849 281.612189,10.181954 L281.612189,70.8309843 C281.612189,84.9971812 281.612189,96.6547807 282.350011,102.852492 C282.792705,107.131864 283.678092,110.378284 288.105029,110.968542 C290.170932,111.263671 293.417353,111.5588 294.745434,111.5588 C295.630821,111.5588 295.92595,112.001494 295.92595,112.444188 C295.92595,113.18201 295.188127,113.624704 293.564917,113.624704 C285.448867,113.624704 276.1523,113.18201 275.414477,113.18201 C274.971784,113.18201 265.675217,113.624704 261.248281,113.624704 C259.62507,113.624704 258.887248,113.329575 258.887248,112.444188 C258.887248,112.001494 259.182377,111.5588 260.067764,111.5588 C261.395845,111.5588 263.16662,111.263671 264.494701,110.968542 C267.445992,110.378284 268.183814,107.131864 268.774073,102.852492 C269.511895,96.6547807 269.511895,84.9971812 269.511895,70.8309843 Z" id="OMP"></path>
                    <path d="M358.484466,110.91837 L407.508361,2.1691989 C408.37604,0.289226519 408.80988,0.14461326 409.388333,0.14461326 C410.111399,0.14461326 413.003664,1.59074586 413.726731,2.31381215 C414.449797,3.03687845 414.305184,3.47071823 413.726731,4.77223757 L364.413609,114.389088 C363.835156,115.545994 363.54593,115.690608 363.11209,115.690608 C362.67825,115.690608 359.207532,113.955249 358.484466,113.232182 C357.906013,112.653729 357.906013,112.075276 358.484466,110.91837 Z" id="/"></path>
                    <path d="M456.008765,70.0435726 L456.008765,44.0080849 C456.008765,20.9311753 456.008765,16.7891659 455.712907,12.0554408 C455.417049,7.02585796 454.233618,4.65899544 449.351964,3.62349309 C448.168533,3.32763527 445.653741,3.17970636 444.322381,3.17970636 C443.730665,3.17970636 443.13895,2.88384855 443.13895,2.29213292 C443.13895,1.40455947 443.878594,1.10870166 445.505812,1.10870166 C452.162613,1.10870166 461.038347,1.55248838 462.221779,1.55248838 C465.476215,1.55248838 474.056091,1.10870166 480.860821,1.10870166 C499.351935,1.10870166 506.008735,7.32171578 508.375598,9.54064939 C511.630034,12.6471565 515.772043,19.3039573 515.772043,28.9193363 C515.772043,48.1500943 500.387437,62.3512694 479.381532,62.3512694 C478.641887,62.3512694 477.014669,62.3512694 476.275025,62.2033405 C475.53538,62.2033405 474.647807,61.9074827 474.647807,61.1678381 C474.647807,59.9844069 475.53538,59.836478 478.641887,59.836478 C492.990992,59.836478 504.233588,50.0731701 504.233588,34.5406348 C504.233588,30.8424121 503.789802,20.9311753 495.94957,12.9430143 C488.109338,4.95485325 479.085674,5.54656889 475.683309,5.54656889 C473.168518,5.54656889 470.653726,5.8424267 469.322366,6.43414233 C468.434793,6.73000015 468.138935,7.7655025 468.138935,9.24479158 L468.138935,70.0435726 C468.138935,84.2447477 468.138935,95.9311314 468.87858,102.144146 C469.322366,106.434084 470.20994,109.68852 474.647807,110.280235 C476.718812,110.576093 479.973248,110.871951 481.304608,110.871951 C482.192181,110.871951 482.488039,111.315738 482.488039,111.759525 C482.488039,112.499169 481.748395,112.942956 480.121177,112.942956 C471.985087,112.942956 462.665565,112.499169 461.925921,112.499169 C461.482134,112.499169 452.162613,112.942956 447.724746,112.942956 C446.097528,112.942956 445.357883,112.647098 445.357883,111.759525 C445.357883,111.315738 445.653741,110.871951 446.541315,110.871951 C447.872675,110.871951 449.647822,110.576093 450.979182,110.280235 C453.93776,109.68852 454.677404,106.434084 455.26912,102.144146 C456.008765,95.9311314 456.008765,84.2447477 456.008765,70.0435726 Z M540.875579,44.0080849 L540.875579,53.4755349 C545.461375,49.0376677 565.579706,27.8838339 574.60337,18.5643128 C583.479104,9.39272048 584.07082,7.91343141 584.07082,6.13828452 C584.07082,4.95485325 583.331175,3.77142199 582.147744,3.32763527 C581.112242,2.88384855 580.816384,2.58799073 580.816384,1.9962751 C580.816384,1.40455947 581.703957,1.10870166 583.035318,1.10870166 C587.325256,1.10870166 586.881469,1.55248838 591.911052,1.55248838 C596.496848,1.55248838 605.224654,1.10870166 607.591516,1.10870166 C609.662521,1.10870166 610.106308,1.55248838 610.106308,2.14420401 C610.106308,2.73591964 609.81045,3.03177746 608.47909,3.17970636 C605.66844,3.47556418 603.00572,4.06727981 600.934715,4.95485325 C597.236493,6.43414233 594.425843,8.20928922 585.550109,16.7891659 C572.532365,29.363123 555.66847,46.0790896 551.822318,50.3690279 C561.141839,60.5761225 588.0649,87.9429704 595.017559,94.4518424 C607.14773,105.842368 612.325241,109.096804 619.425829,110.428164 C620.757189,110.724022 622.236478,110.871951 623.715767,110.871951 C624.899198,110.871951 625.786772,111.167809 625.786772,111.907453 C625.786772,112.647098 625.195056,112.942956 623.567838,112.942956 L612.621099,112.942956 C599.751284,112.942956 596.348919,111.315738 589.396261,105.842368 C580.520526,98.8897096 553.893323,70.3394304 540.875579,54.8068951 L540.875579,70.0435726 C540.875579,84.2447477 540.875579,95.9311314 541.615223,102.144146 C542.05901,106.434084 542.946584,109.68852 547.384451,110.280235 C549.455456,110.576093 552.414034,110.871951 553.301607,110.871951 C554.632967,110.871951 555.076754,111.463667 555.076754,111.907453 C555.076754,112.647098 554.485038,112.942956 552.85782,112.942956 C544.72173,112.942956 535.402209,112.499169 534.662565,112.499169 C533.92292,112.499169 525.195115,112.942956 520.757247,112.942956 C519.130029,112.942956 518.390385,112.795027 518.390385,111.907453 C518.390385,111.463667 518.686243,110.871951 520.017603,110.871951 C520.905176,110.871951 522.532394,110.724022 523.863755,110.428164 C526.822333,109.836449 527.709906,106.434084 528.301622,102.144146 C529.041266,95.9311314 529.041266,84.2447477 529.041266,70.0435726 L529.041266,44.0080849 C529.041266,20.9311753 529.041266,16.7891659 528.745408,12.0554408 C528.449551,7.02585796 526.970262,4.51106653 523.715826,3.77142199 C522.088608,3.32763527 519.425887,3.17970636 518.390385,3.17970636 C517.206954,3.17970636 516.763167,2.88384855 516.763167,2.29213292 C516.763167,1.40455947 517.502811,1.10870166 519.130029,1.10870166 C524.011683,1.10870166 533.92292,1.55248838 534.662565,1.55248838 C535.402209,1.55248838 544.72173,1.10870166 549.159598,1.10870166 C550.786816,1.10870166 551.52646,1.40455947 551.52646,2.14420401 C551.52646,2.73591964 551.230602,3.03177746 549.899242,3.17970636 C548.272024,3.32763527 548.124095,3.32763527 546.644806,3.47556418 C542.650726,3.9193509 541.467295,6.87792905 541.171437,12.0554408 C540.875579,16.7891659 540.875579,20.9311753 540.875579,44.0080849 Z M631.215763,70.0435726 L631.215763,44.0080849 C631.215763,20.9311753 631.215763,16.7891659 630.919905,12.0554408 C630.624047,7.02585796 629.440616,4.65899544 624.558962,3.62349309 C623.375531,3.32763527 620.860739,3.17970636 619.529379,3.17970636 C618.937663,3.17970636 618.345948,2.88384855 618.345948,2.29213292 C618.345948,1.40455947 619.085592,1.10870166 620.71281,1.10870166 C627.369611,1.10870166 636.245346,1.55248838 637.428777,1.55248838 C640.683213,1.55248838 649.263089,1.10870166 656.067819,1.10870166 C674.558933,1.10870166 681.215734,7.32171578 683.582596,9.54064939 C686.837032,12.6471565 690.979041,19.3039573 690.979041,28.9193363 C690.979041,48.1500943 675.594435,62.3512694 654.58853,62.3512694 C653.848886,62.3512694 652.221668,62.3512694 651.482023,62.2033405 C650.742379,62.2033405 649.854805,61.9074827 649.854805,61.1678381 C649.854805,59.9844069 650.742379,59.836478 653.848886,59.836478 C668.19799,59.836478 679.440587,50.0731701 679.440587,34.5406348 C679.440587,30.8424121 678.9968,20.9311753 671.156568,12.9430143 C663.316336,4.95485325 654.292672,5.54656889 650.890307,5.54656889 C648.375516,5.54656889 645.860725,5.8424267 644.529364,6.43414233 C643.641791,6.73000015 643.345933,7.7655025 643.345933,9.24479158 L643.345933,70.0435726 C643.345933,84.2447477 643.345933,95.9311314 644.085578,102.144146 C644.529364,106.434084 645.416938,109.68852 649.854805,110.280235 C651.92581,110.576093 655.180246,110.871951 656.511606,110.871951 C657.399179,110.871951 657.695037,111.315738 657.695037,111.759525 C657.695037,112.499169 656.955393,112.942956 655.328175,112.942956 C647.192085,112.942956 637.872564,112.499169 637.132919,112.499169 C636.689132,112.499169 627.369611,112.942956 622.931744,112.942956 C621.304526,112.942956 620.564881,112.647098 620.564881,111.759525 C620.564881,111.315738 620.860739,110.871951 621.748313,110.871951 C623.079673,110.871951 624.85482,110.576093 626.18618,110.280235 C629.144758,109.68852 629.884403,106.434084 630.476118,102.144146 C631.215763,95.9311314 631.215763,84.2447477 631.215763,70.0435726 Z" id="PKP"></path>
                </g>
            </g>
        </g>
    </g>
</svg>
