<?xml version="1.0" encoding="UTF-8"?>
<svg width="733px" height="180px" viewBox="0 0 733 180" version="1.1" xmlns="http://www.w3.org/2000/svg" xmlns:xlink="http://www.w3.org/1999/xlink">
    <title>Horizontal - Community Forum</title>
    <desc>An official PKP logotype.</desc>
    <g id="Final" stroke="none" stroke-width="1" fill="none" fill-rule="evenodd">
        <g id="Artboard" transform="translate(-987.000000, -2049.000000)" fill="#000000" fill-rule="nonzero">
            <g id="Horizontal---Community-Forum" transform="translate(987.000000, 2049.000000)">
                <path d="M18.4126984,118.015751 L18.4126984,80.7670739 C18.4126984,47.7512009 18.4126984,41.8252749 17.989418,35.0527882 C17.5661376,27.857021 15.8730159,24.4707776 8.88888889,22.9892961 C7.1957672,22.5660157 3.5978836,22.3543755 1.69312169,22.3543755 C0.846560847,22.3543755 -9.09494702e-13,21.931095 -9.09494702e-13,21.0845342 C-9.09494702e-13,19.8146929 1.05820106,19.3914125 3.38624339,19.3914125 C12.9100529,19.3914125 25.6084656,20.0263331 27.3015873,20.0263331 C31.957672,20.0263331 44.2328042,19.3914125 53.968254,19.3914125 C80.4232804,19.3914125 89.9470899,28.2803014 93.3333333,31.4549046 C97.989418,35.899349 103.915344,45.4231585 103.915344,59.1797723 C103.915344,86.6929998 81.9047619,107.01046 51.8518519,107.01046 C50.7936508,107.01046 48.4656085,107.01046 47.4074074,106.79882 C46.3492063,106.79882 45.0793651,106.375539 45.0793651,105.317338 C45.0793651,103.624217 46.3492063,103.412577 50.7936508,103.412577 C71.3227513,103.412577 87.4074074,89.4443225 87.4074074,67.2221003 C87.4074074,61.931095 86.7724868,47.7512009 75.5555556,36.3226294 C64.3386243,24.894058 51.4285714,25.7406188 46.5608466,25.7406188 C42.962963,25.7406188 39.3650794,26.1638993 37.4603175,27.0104601 C36.1904762,27.4337405 35.7671958,28.915222 35.7671958,31.0316241 L35.7671958,118.015751 C35.7671958,138.333211 35.7671958,155.052788 36.8253968,163.941677 C37.4603175,170.079243 38.7301587,174.735328 45.0793651,175.581889 C48.042328,176.005169 52.6984127,176.42845 54.6031746,176.42845 C55.8730159,176.42845 56.2962963,177.06337 56.2962963,177.698291 C56.2962963,178.756492 55.2380952,179.391412 52.9100529,179.391412 C41.2698413,179.391412 27.9365079,178.756492 26.8783069,178.756492 C26.2433862,178.756492 12.9100529,179.391412 6.56084656,179.391412 C4.23280423,179.391412 3.17460317,178.968132 3.17460317,177.698291 C3.17460317,177.06337 3.5978836,176.42845 4.86772487,176.42845 C6.77248677,176.42845 9.31216931,176.005169 11.2169312,175.581889 C15.4497354,174.735328 16.5079365,170.079243 17.3544974,163.941677 C18.4126984,155.052788 18.4126984,138.333211 18.4126984,118.015751 Z M139.830688,80.7670739 L139.830688,94.3120474 C146.391534,87.9628411 175.174603,57.6982908 188.084656,44.3649575 C200.783069,31.2432643 201.62963,29.1268622 201.62963,26.5871797 C201.62963,24.894058 200.571429,23.2009363 198.878307,22.5660157 C197.396825,21.931095 196.973545,21.5078146 196.973545,20.6612538 C196.973545,19.8146929 198.243386,19.3914125 200.148148,19.3914125 C206.285714,19.3914125 205.650794,20.0263331 212.846561,20.0263331 C219.407407,20.0263331 231.89418,19.3914125 235.280423,19.3914125 C238.243386,19.3914125 238.878307,20.0263331 238.878307,20.872894 C238.878307,21.7194548 238.455026,22.1427352 236.550265,22.3543755 C232.529101,22.7776559 228.719577,23.6242167 225.756614,24.894058 C220.465608,27.0104601 216.444444,29.5501427 203.746032,41.8252749 C185.121693,59.8146929 160.994709,83.7300368 155.492063,89.867603 C168.825397,104.470778 207.343915,143.624217 217.291005,152.936386 C234.645503,169.232682 242.05291,173.888767 252.21164,175.793529 C254.116402,176.216809 256.232804,176.42845 258.349206,176.42845 C260.042328,176.42845 261.312169,176.85173 261.312169,177.909931 C261.312169,178.968132 260.465608,179.391412 258.137566,179.391412 L242.47619,179.391412 C224.063492,179.391412 219.195767,177.06337 209.248677,169.232682 C196.550265,159.285592 158.455026,118.439032 139.830688,96.2168093 L139.830688,118.015751 C139.830688,138.333211 139.830688,155.052788 140.888889,163.941677 C141.52381,170.079243 142.793651,174.735328 149.142857,175.581889 C152.10582,176.005169 156.338624,176.42845 157.608466,176.42845 C159.513228,176.42845 160.148148,177.27501 160.148148,177.909931 C160.148148,178.968132 159.301587,179.391412 156.973545,179.391412 C145.333333,179.391412 132,178.756492 130.941799,178.756492 C129.883598,178.756492 117.396825,179.391412 111.047619,179.391412 C108.719577,179.391412 107.661376,179.179772 107.661376,177.909931 C107.661376,177.27501 108.084656,176.42845 109.989418,176.42845 C111.259259,176.42845 113.587302,176.216809 115.492063,175.793529 C119.724868,174.946968 120.994709,170.079243 121.84127,163.941677 C122.899471,155.052788 122.899471,138.333211 122.899471,118.015751 L122.899471,80.7670739 C122.899471,47.7512009 122.899471,41.8252749 122.47619,35.0527882 C122.05291,27.857021 119.936508,24.2591374 115.280423,23.2009363 C112.952381,22.5660157 109.142857,22.3543755 107.661376,22.3543755 C105.968254,22.3543755 105.333333,21.931095 105.333333,21.0845342 C105.333333,19.8146929 106.391534,19.3914125 108.719577,19.3914125 C115.703704,19.3914125 129.883598,20.0263331 130.941799,20.0263331 C132,20.0263331 145.333333,19.3914125 151.68254,19.3914125 C154.010582,19.3914125 155.068783,19.8146929 155.068783,20.872894 C155.068783,21.7194548 154.645503,22.1427352 152.740741,22.3543755 C150.412698,22.5660157 150.201058,22.5660157 148.084656,22.7776559 C142.37037,23.4125765 140.677249,27.6453807 140.253968,35.0527882 C139.830688,41.8252749 139.830688,47.7512009 139.830688,80.7670739 Z M269.079365,118.015751 L269.079365,80.7670739 C269.079365,47.7512009 269.079365,41.8252749 268.656085,35.0527882 C268.232804,27.857021 266.539683,24.4707776 259.555556,22.9892961 C257.862434,22.5660157 254.26455,22.3543755 252.359788,22.3543755 C251.513228,22.3543755 250.666667,21.931095 250.666667,21.0845342 C250.666667,19.8146929 251.724868,19.3914125 254.05291,19.3914125 C263.57672,19.3914125 276.275132,20.0263331 277.968254,20.0263331 C282.624339,20.0263331 294.899471,19.3914125 304.634921,19.3914125 C331.089947,19.3914125 340.613757,28.2803014 344,31.4549046 C348.656085,35.899349 354.582011,45.4231585 354.582011,59.1797723 C354.582011,86.6929998 332.571429,107.01046 302.518519,107.01046 C301.460317,107.01046 299.132275,107.01046 298.074074,106.79882 C297.015873,106.79882 295.746032,106.375539 295.746032,105.317338 C295.746032,103.624217 297.015873,103.412577 301.460317,103.412577 C321.989418,103.412577 338.074074,89.4443225 338.074074,67.2221003 C338.074074,61.931095 337.439153,47.7512009 326.222222,36.3226294 C315.005291,24.894058 302.095238,25.7406188 297.227513,25.7406188 C293.62963,25.7406188 290.031746,26.1638993 288.126984,27.0104601 C286.857143,27.4337405 286.433862,28.915222 286.433862,31.0316241 L286.433862,118.015751 C286.433862,138.333211 286.433862,155.052788 287.492063,163.941677 C288.126984,170.079243 289.396825,174.735328 295.746032,175.581889 C298.708995,176.005169 303.365079,176.42845 305.269841,176.42845 C306.539683,176.42845 306.962963,177.06337 306.962963,177.698291 C306.962963,178.756492 305.904762,179.391412 303.57672,179.391412 C291.936508,179.391412 278.603175,178.756492 277.544974,178.756492 C276.910053,178.756492 263.57672,179.391412 257.227513,179.391412 C254.899471,179.391412 253.84127,178.968132 253.84127,177.698291 C253.84127,177.06337 254.26455,176.42845 255.534392,176.42845 C257.439153,176.42845 259.978836,176.005169 261.883598,175.581889 C266.116402,174.735328 267.174603,170.079243 268.021164,163.941677 C269.079365,155.052788 269.079365,138.333211 269.079365,118.015751 Z" id="PKP"></path>
                <path d="M419.279441,16.4850011 C418.859441,14.5716582 418.171113,12.8566754 417.214441,11.3400011 C416.25777,9.82332689 415.091115,8.55167294 413.714441,7.52500114 C412.337768,6.49832934 410.821116,5.71667049 409.164441,5.18000114 C407.507766,4.64333179 405.76945,4.37500114 403.949441,4.37500114 C400.636091,4.37500114 397.789453,5.00499484 395.409441,6.26500114 C393.029429,7.52500744 391.081115,9.19332409 389.564441,11.2700011 C388.047767,13.3466782 386.927778,15.6916547 386.204441,18.3050011 C385.481104,20.9183475 385.119441,23.601654 385.119441,26.3550011 C385.119441,29.0616813 385.481104,31.7333213 386.204441,34.3700011 C386.927778,37.006681 388.047767,39.3633241 389.564441,41.4400011 C391.081115,43.5166782 393.029429,45.1849948 395.409441,46.4450011 C397.789453,47.7050074 400.636091,48.3350011 403.949441,48.3350011 C406.282786,48.3350011 408.382765,47.9150053 410.249441,47.0750011 C412.116117,46.2349969 413.726101,45.091675 415.079441,43.6450011 C416.432781,42.1983272 417.529437,40.5066775 418.369441,38.5700011 C419.209445,36.6333248 419.746107,34.5450123 419.979441,32.3050011 L424.739441,32.3050011 C424.412773,35.3850165 423.689447,38.1616554 422.569441,40.6350011 C421.449435,43.1083468 420.002783,45.2083258 418.229441,46.9350011 C416.456099,48.6616764 414.367786,49.9916631 411.964441,50.9250011 C409.561096,51.8583391 406.889456,52.3250011 403.949441,52.3250011 C400.029421,52.3250011 396.587789,51.6133416 393.624441,50.1900011 C390.661093,48.7666607 388.199451,46.865013 386.239441,44.4850011 C384.279431,42.1049892 382.809446,39.3516834 381.829441,36.2250011 C380.849436,33.0983188 380.359441,29.8083517 380.359441,26.3550011 C380.359441,22.9016505 380.849436,19.6116834 381.829441,16.4850011 C382.809446,13.3583188 384.279431,10.5933465 386.239441,8.19000114 C388.199451,5.78665579 390.661093,3.87334159 393.624441,2.45000114 C396.587789,1.02666069 400.029421,0.315001144 403.949441,0.315001144 C406.329453,0.315001144 408.651096,0.664997644 410.914441,1.36500114 C413.177786,2.06500464 415.231099,3.10332759 417.074441,4.48000114 C418.917784,5.85667469 420.457768,7.54832444 421.694441,9.55500114 C422.931114,11.5616778 423.712773,13.8716547 424.039441,16.4850011 L419.279441,16.4850011 Z M447.533191,17.8850011 C445.433181,17.8850011 443.589866,18.32833 442.003191,19.2150011 C440.416516,20.1016722 439.098196,21.2683272 438.048191,22.7150011 C436.998186,24.161675 436.20486,25.8066586 435.668191,27.6500011 C435.131522,29.4933437 434.863191,31.3716582 434.863191,33.2850011 C434.863191,35.198344 435.131522,37.0766586 435.668191,38.9200011 C436.20486,40.7633437 436.998186,42.4083272 438.048191,43.8550011 C439.098196,45.301675 440.416516,46.46833 442.003191,47.3550011 C443.589866,48.2416722 445.433181,48.6850011 447.533191,48.6850011 C449.633202,48.6850011 451.476516,48.2416722 453.063191,47.3550011 C454.649866,46.46833 455.968186,45.301675 457.018191,43.8550011 C458.068196,42.4083272 458.861522,40.7633437 459.398191,38.9200011 C459.93486,37.0766586 460.203191,35.198344 460.203191,33.2850011 C460.203191,31.3716582 459.93486,29.4933437 459.398191,27.6500011 C458.861522,25.8066586 458.068196,24.161675 457.018191,22.7150011 C455.968186,21.2683272 454.649866,20.1016722 453.063191,19.2150011 C451.476516,18.32833 449.633202,17.8850011 447.533191,17.8850011 Z M447.533191,14.1750011 C450.286538,14.1750011 452.724847,14.6883293 454.848191,15.7150011 C456.971535,16.7416729 458.756517,18.1183258 460.203191,19.8450011 C461.649865,21.5716764 462.746521,23.5899896 463.493191,25.9000011 C464.239861,28.2100127 464.613191,30.6716547 464.613191,33.2850011 C464.613191,35.8983475 464.239861,38.3599896 463.493191,40.6700011 C462.746521,42.9800127 461.649865,44.9983258 460.203191,46.7250011 C458.756517,48.4516764 456.971535,49.8166628 454.848191,50.8200011 C452.724847,51.8233395 450.286538,52.3250011 447.533191,52.3250011 C444.779844,52.3250011 442.341535,51.8233395 440.218191,50.8200011 C438.094847,49.8166628 436.309865,48.4516764 434.863191,46.7250011 C433.416517,44.9983258 432.319861,42.9800127 431.573191,40.6700011 C430.826521,38.3599896 430.453191,35.8983475 430.453191,33.2850011 C430.453191,30.6716547 430.826521,28.2100127 431.573191,25.9000011 C432.319861,23.5899896 433.416517,21.5716764 434.863191,19.8450011 C436.309865,18.1183258 438.094847,16.7416729 440.218191,15.7150011 C442.341535,14.6883293 444.779844,14.1750011 447.533191,14.1750011 Z M472.286941,15.2250011 L476.346941,15.2250011 L476.346941,21.3150011 L476.556941,21.3150011 C477.723614,19.0749899 479.251932,17.3250074 481.141941,16.0650011 C483.031951,14.8049948 485.446926,14.1750011 488.386941,14.1750011 C490.766953,14.1750011 492.925265,14.7583286 494.861941,15.9250011 C496.798617,17.0916736 498.093604,18.8649892 498.746941,21.2450011 C499.82028,18.8649892 501.406931,17.0916736 503.506941,15.9250011 C505.606952,14.7583286 507.846929,14.1750011 510.226941,14.1750011 C518.206981,14.1750011 522.196941,18.3982922 522.196941,26.8450011 L522.196941,51.3450011 L517.786941,51.3450011 L517.786941,27.0550011 C517.786941,24.0683195 517.156947,21.7933423 515.896941,20.2300011 C514.636935,18.66666 512.42029,17.8850011 509.246941,17.8850011 C507.333598,17.8850011 505.746947,18.2466642 504.486941,18.9700011 C503.226935,19.6933381 502.223611,20.6616617 501.476941,21.8750011 C500.730271,23.0883405 500.205276,24.47666 499.901941,26.0400011 C499.598606,27.6033423 499.446941,29.2249927 499.446941,30.9050011 L499.446941,51.3450011 L495.036941,51.3450011 L495.036941,26.8450011 C495.036941,25.6316617 494.908609,24.4766733 494.651941,23.3800011 C494.395273,22.283329 493.975277,21.3266719 493.391941,20.5100011 C492.808605,19.6933304 492.026946,19.0516701 491.046941,18.5850011 C490.066936,18.1183321 488.876948,17.8850011 487.476941,17.8850011 C485.610265,17.8850011 483.988615,18.2233311 482.611941,18.9000011 C481.235268,19.5766712 480.115279,20.5099952 479.251941,21.7000011 C478.388603,22.8900071 477.746943,24.2899931 477.326941,25.9000011 C476.906939,27.5100092 476.696941,29.2716582 476.696941,31.1850011 L476.696941,51.3450011 L472.286941,51.3450011 L472.286941,15.2250011 Z M531.690691,15.2250011 L535.750691,15.2250011 L535.750691,21.3150011 L535.960691,21.3150011 C537.127364,19.0749899 538.655682,17.3250074 540.545691,16.0650011 C542.435701,14.8049948 544.850676,14.1750011 547.790691,14.1750011 C550.170703,14.1750011 552.329015,14.7583286 554.265691,15.9250011 C556.202367,17.0916736 557.497354,18.8649892 558.150691,21.2450011 C559.22403,18.8649892 560.810681,17.0916736 562.910691,15.9250011 C565.010702,14.7583286 567.250679,14.1750011 569.630691,14.1750011 C577.610731,14.1750011 581.600691,18.3982922 581.600691,26.8450011 L581.600691,51.3450011 L577.190691,51.3450011 L577.190691,27.0550011 C577.190691,24.0683195 576.560697,21.7933423 575.300691,20.2300011 C574.040685,18.66666 571.82404,17.8850011 568.650691,17.8850011 C566.737348,17.8850011 565.150697,18.2466642 563.890691,18.9700011 C562.630685,19.6933381 561.627361,20.6616617 560.880691,21.8750011 C560.134021,23.0883405 559.609026,24.47666 559.305691,26.0400011 C559.002356,27.6033423 558.850691,29.2249927 558.850691,30.9050011 L558.850691,51.3450011 L554.440691,51.3450011 L554.440691,26.8450011 C554.440691,25.6316617 554.312359,24.4766733 554.055691,23.3800011 C553.799023,22.283329 553.379027,21.3266719 552.795691,20.5100011 C552.212355,19.6933304 551.430696,19.0516701 550.450691,18.5850011 C549.470686,18.1183321 548.280698,17.8850011 546.880691,17.8850011 C545.014015,17.8850011 543.392365,18.2233311 542.015691,18.9000011 C540.639018,19.5766712 539.519029,20.5099952 538.655691,21.7000011 C537.792353,22.8900071 537.150693,24.2899931 536.730691,25.9000011 C536.310689,27.5100092 536.100691,29.2716582 536.100691,31.1850011 L536.100691,51.3450011 L531.690691,51.3450011 L531.690691,15.2250011 Z M620.354441,51.3450011 L616.294441,51.3450011 L616.294441,44.8350011 L616.154441,44.8350011 C614.987769,47.2616799 613.296119,49.1166614 611.079441,50.4000011 C608.862763,51.6833409 606.401121,52.3250011 603.694441,52.3250011 C601.407763,52.3250011 599.459449,52.0100043 597.849441,51.3800011 C596.239433,50.749998 594.932779,49.8516736 593.929441,48.6850011 C592.926103,47.5183286 592.19111,46.0950095 591.724441,44.4150011 C591.257772,42.7349927 591.024441,40.8216785 591.024441,38.6750011 L591.024441,15.2250011 L595.434441,15.2250011 L595.434441,38.7450011 C595.527775,42.0116841 596.286101,44.4849927 597.709441,46.1650011 C599.132782,47.8450095 601.594424,48.6850011 605.094441,48.6850011 C607.007784,48.6850011 608.641101,48.2766719 609.994441,47.4600011 C611.347781,46.6433304 612.46777,45.5583412 613.354441,44.2050011 C614.241112,42.851661 614.894439,41.3000099 615.314441,39.5500011 C615.734443,37.7999924 615.944441,36.0150102 615.944441,34.1950011 L615.944441,15.2250011 L620.354441,15.2250011 L620.354441,51.3450011 Z M629.708191,15.2250011 L634.118191,15.2250011 L634.118191,21.4550011 L634.258191,21.4550011 C635.098195,19.2616568 636.591514,17.5000078 638.738191,16.1700011 C640.884868,14.8399945 643.241512,14.1750011 645.808191,14.1750011 C648.328204,14.1750011 650.439849,14.5016645 652.143191,15.1550011 C653.846533,15.8083377 655.211519,16.7299952 656.238191,17.9200011 C657.264863,19.1100071 657.988189,20.5683258 658.408191,22.2950011 C658.828193,24.0216764 659.038191,25.9583237 659.038191,28.1050011 L659.038191,51.3450011 L654.628191,51.3450011 L654.628191,28.8050011 C654.628191,27.2649934 654.488192,25.8300078 654.208191,24.5000011 C653.92819,23.1699945 653.438195,22.015006 652.738191,21.0350011 C652.038188,20.0549962 651.093197,19.2850039 649.903191,18.7250011 C648.713185,18.1649983 647.231533,17.8850011 645.458191,17.8850011 C643.684849,17.8850011 642.109865,18.199998 640.733191,18.8300011 C639.356518,19.4600043 638.189863,20.323329 637.233191,21.4200011 C636.27652,22.5166733 635.52986,23.8233269 634.993191,25.3400011 C634.456522,26.8566754 634.164858,28.5016589 634.118191,30.2750011 L634.118191,51.3450011 L629.708191,51.3450011 L629.708191,15.2250011 Z M668.531941,1.36500114 L672.941941,1.36500114 L672.941941,8.43500114 L668.531941,8.43500114 L668.531941,1.36500114 Z M668.531941,15.2250011 L672.941941,15.2250011 L672.941941,51.3450011 L668.531941,51.3450011 L668.531941,15.2250011 Z M689.505691,15.2250011 L696.855691,15.2250011 L696.855691,18.9350011 L689.505691,18.9350011 L689.505691,43.2950011 C689.505691,44.741675 689.704022,45.8733304 690.100691,46.6900011 C690.49736,47.5066719 691.489016,47.9616673 693.075691,48.0550011 C694.335697,48.0550011 695.595685,47.9850018 696.855691,47.8450011 L696.855691,51.5550011 C696.202354,51.5550011 695.549028,51.5783342 694.895691,51.6250011 C694.242354,51.671668 693.589028,51.6950011 692.935691,51.6950011 C689.995676,51.6950011 687.942364,51.1233402 686.775691,49.9800011 C685.609019,48.8366621 685.049024,46.7250165 685.095691,43.6450011 L685.095691,18.9350011 L678.795691,18.9350011 L678.795691,15.2250011 L685.095691,15.2250011 L685.095691,4.37500114 L689.505691,4.37500114 L689.505691,15.2250011 Z M700.259441,15.2250011 L704.949441,15.2250011 L716.849441,46.0250011 L727.979441,15.2250011 L732.389441,15.2250011 L716.709441,56.8050011 C716.056104,58.3450088 715.449444,59.6166628 714.889441,60.6200011 C714.329438,61.6233395 713.711111,62.4166649 713.034441,63.0000011 C712.357771,63.5833374 711.564446,64.0033332 710.654441,64.2600011 C709.744437,64.5166691 708.589448,64.6450011 707.189441,64.6450011 C706.30277,64.5983342 705.614444,64.5633346 705.124441,64.5400011 C704.634439,64.5166677 704.202776,64.4350018 703.829441,64.2950011 L703.829441,60.5850011 C704.342777,60.6783349 704.844439,60.7600008 705.334441,60.8300011 C705.824444,60.9000015 706.326105,60.9350011 706.839441,60.9350011 C707.819446,60.9350011 708.624438,60.7950025 709.254441,60.5150011 C709.884444,60.2349997 710.432772,59.8500036 710.899441,59.3600011 C711.36611,58.8699987 711.762773,58.2750046 712.089441,57.5750011 C712.416109,56.8749976 712.766106,56.1050053 713.139441,55.2650011 L714.679441,51.2050011 L700.259441,15.2250011 Z M382.739441,65.3650011 L414.449441,65.3650011 L414.449441,69.4250011 L387.499441,69.4250011 L387.499441,87.4850011 L411.439441,87.4850011 L411.439441,91.5450011 L387.499441,91.5450011 L387.499441,115.345001 L382.739441,115.345001 L382.739441,65.3650011 Z M435.843191,81.8850011 C433.743181,81.8850011 431.899866,82.32833 430.313191,83.2150011 C428.726516,84.1016722 427.408196,85.2683272 426.358191,86.7150011 C425.308186,88.161675 424.51486,89.8066586 423.978191,91.6500011 C423.441522,93.4933437 423.173191,95.3716582 423.173191,97.2850011 C423.173191,99.198344 423.441522,101.076659 423.978191,102.920001 C424.51486,104.763344 425.308186,106.408327 426.358191,107.855001 C427.408196,109.301675 428.726516,110.46833 430.313191,111.355001 C431.899866,112.241672 433.743181,112.685001 435.843191,112.685001 C437.943202,112.685001 439.786516,112.241672 441.373191,111.355001 C442.959866,110.46833 444.278186,109.301675 445.328191,107.855001 C446.378196,106.408327 447.171522,104.763344 447.708191,102.920001 C448.24486,101.076659 448.513191,99.198344 448.513191,97.2850011 C448.513191,95.3716582 448.24486,93.4933437 447.708191,91.6500011 C447.171522,89.8066586 446.378196,88.161675 445.328191,86.7150011 C444.278186,85.2683272 442.959866,84.1016722 441.373191,83.2150011 C439.786516,82.32833 437.943202,81.8850011 435.843191,81.8850011 Z M435.843191,78.1750011 C438.596538,78.1750011 441.034847,78.6883293 443.158191,79.7150011 C445.281535,80.7416729 447.066517,82.1183258 448.513191,83.8450011 C449.959865,85.5716764 451.056521,87.5899896 451.803191,89.9000011 C452.549861,92.2100127 452.923191,94.6716547 452.923191,97.2850011 C452.923191,99.8983475 452.549861,102.35999 451.803191,104.670001 C451.056521,106.980013 449.959865,108.998326 448.513191,110.725001 C447.066517,112.451676 445.281535,113.816663 443.158191,114.820001 C441.034847,115.823339 438.596538,116.325001 435.843191,116.325001 C433.089844,116.325001 430.651535,115.823339 428.528191,114.820001 C426.404847,113.816663 424.619865,112.451676 423.173191,110.725001 C421.726517,108.998326 420.629861,106.980013 419.883191,104.670001 C419.136521,102.35999 418.763191,99.8983475 418.763191,97.2850011 C418.763191,94.6716547 419.136521,92.2100127 419.883191,89.9000011 C420.629861,87.5899896 421.726517,85.5716764 423.173191,83.8450011 C424.619865,82.1183258 426.404847,80.7416729 428.528191,79.7150011 C430.651535,78.6883293 433.089844,78.1750011 435.843191,78.1750011 Z M460.596941,79.2250011 L464.656941,79.2250011 L464.656941,87.6950011 L464.796941,87.6950011 C465.916947,84.7549864 467.655263,82.4916757 470.011941,80.9050011 C472.36862,79.3183265 475.180258,78.5950004 478.446941,78.7350011 L478.446941,83.1450011 C476.440264,83.0516673 474.620283,83.319998 472.986941,83.9500011 C471.3536,84.5800043 469.941947,85.4783286 468.751941,86.6450011 C467.561935,87.8116736 466.640278,89.1999931 465.986941,90.8100011 C465.333604,92.4200092 465.006941,94.1816582 465.006941,96.0950011 L465.006941,115.345001 L460.596941,115.345001 L460.596941,79.2250011 Z M513.000691,115.345001 L508.940691,115.345001 L508.940691,108.835001 L508.800691,108.835001 C507.634019,111.26168 505.942369,113.116661 503.725691,114.400001 C501.509013,115.683341 499.047371,116.325001 496.340691,116.325001 C494.054013,116.325001 492.105699,116.010004 490.495691,115.380001 C488.885683,114.749998 487.579029,113.851674 486.575691,112.685001 C485.572353,111.518329 484.83736,110.09501 484.370691,108.415001 C483.904022,106.734993 483.670691,104.821679 483.670691,102.675001 L483.670691,79.2250011 L488.080691,79.2250011 L488.080691,102.745001 C488.174025,106.011684 488.932351,108.484993 490.355691,110.165001 C491.779032,111.84501 494.240674,112.685001 497.740691,112.685001 C499.654034,112.685001 501.287351,112.276672 502.640691,111.460001 C503.994031,110.64333 505.11402,109.558341 506.000691,108.205001 C506.887362,106.851661 507.540689,105.30001 507.960691,103.550001 C508.380693,101.799992 508.590691,100.01501 508.590691,98.1950011 L508.590691,79.2250011 L513.000691,79.2250011 L513.000691,115.345001 Z M522.424441,79.2250011 L526.484441,79.2250011 L526.484441,85.3150011 L526.694441,85.3150011 C527.861114,83.0749899 529.389432,81.3250074 531.279441,80.0650011 C533.169451,78.8049948 535.584426,78.1750011 538.524441,78.1750011 C540.904453,78.1750011 543.062765,78.7583286 544.999441,79.9250011 C546.936117,81.0916736 548.231104,82.8649892 548.884441,85.2450011 C549.95778,82.8649892 551.544431,81.0916736 553.644441,79.9250011 C555.744452,78.7583286 557.984429,78.1750011 560.364441,78.1750011 C568.344481,78.1750011 572.334441,82.3982922 572.334441,90.8450011 L572.334441,115.345001 L567.924441,115.345001 L567.924441,91.0550011 C567.924441,88.0683195 567.294447,85.7933423 566.034441,84.2300011 C564.774435,82.66666 562.55779,81.8850011 559.384441,81.8850011 C557.471098,81.8850011 555.884447,82.2466642 554.624441,82.9700011 C553.364435,83.6933381 552.361111,84.6616617 551.614441,85.8750011 C550.867771,87.0883405 550.342776,88.47666 550.039441,90.0400011 C549.736106,91.6033423 549.584441,93.2249927 549.584441,94.9050011 L549.584441,115.345001 L545.174441,115.345001 L545.174441,90.8450011 C545.174441,89.6316617 545.046109,88.4766733 544.789441,87.3800011 C544.532773,86.283329 544.112777,85.3266719 543.529441,84.5100011 C542.946105,83.6933304 542.164446,83.0516701 541.184441,82.5850011 C540.204436,82.1183321 539.014448,81.8850011 537.614441,81.8850011 C535.747765,81.8850011 534.126115,82.2233311 532.749441,82.9000011 C531.372768,83.5766712 530.252779,84.5099952 529.389441,85.7000011 C528.526103,86.8900071 527.884443,88.2899931 527.464441,89.9000011 C527.044439,91.5100092 526.834441,93.2716582 526.834441,95.1850011 L526.834441,115.345001 L522.424441,115.345001 L522.424441,79.2250011 Z" id="CommunityForum"></path>
            </g>
        </g>
    </g>
</svg>
