<?xml version="1.0" encoding="UTF-8"?>
<svg width="345px" height="388px" viewBox="0 0 345 388" version="1.1" xmlns="http://www.w3.org/2000/svg" xmlns:xlink="http://www.w3.org/1999/xlink">
    <!-- Generator: Sketch 56.3 (81716) - https://sketch.com -->
    <title>Vertical - OPS</title>
    <desc>Created with Sketch.</desc>
    <g id="Final" stroke="none" stroke-width="1" fill="none" fill-rule="evenodd">
        <g id="Artboard" transform="translate(-92.000000, -1690.000000)">
            <g id="Vertical---OPS" transform="translate(95.000000, 1690.000000)">
                <path d="M23.46,251.113954 C6.8,251.113954 -4.54747351e-13,238.737954 -4.54747351e-13,228.401954 C-4.54747351e-13,219.357954 7.004,205.825954 23.8,205.825954 C37.264,205.825954 47.532,213.849954 47.532,227.517954 C47.532,240.505954 37.944,251.113954 23.46,251.113954 Z M25.16,248.801954 C29.716,248.801954 41.14,246.489954 41.14,229.217954 C41.14,215.549954 32.708,207.933954 23.392,207.933954 C13.94,207.933954 6.324,213.781954 6.324,226.633954 C6.324,239.961954 13.736,248.801954 25.16,248.801954 Z M54.9380001,233.569954 L54.9380001,223.369954 C54.9380001,213.985954 54.9380001,212.761954 54.8020001,210.925954 C54.6660001,209.157954 54.1220001,208.069954 52.2180001,207.661954 C51.7420001,207.593954 50.6540001,207.525954 50.1100001,207.525954 C49.9740001,207.525954 49.7020001,207.389954 49.7020001,207.185954 C49.7020001,206.777954 50.0420001,206.641954 50.6540001,206.641954 C53.5780001,206.641954 57.3180001,206.845954 57.7260001,206.845954 C59.1540001,206.845954 62.6220001,206.641954 65.4100001,206.641954 C72.8900001,206.641954 75.6100001,209.089954 76.5620001,209.905954 C77.8540001,211.061954 79.5540001,213.713954 79.5540001,217.521954 C79.5540001,225.069954 73.2980001,230.577954 64.7980001,230.577954 C64.5260001,230.577954 63.8460001,230.577954 63.5060001,230.509954 C63.2340001,230.509954 62.8940001,230.373954 62.8940001,230.101954 C62.8940001,229.557954 63.3020001,229.557954 64.5940001,229.557954 C69.9660001,229.557954 74.4540001,225.885954 74.4540001,219.901954 C74.4540001,219.017954 74.6580001,214.937954 71.5300001,211.673954 C68.1980001,208.137954 64.3220001,208.477954 63.0980001,208.477954 C62.2140001,208.477954 61.1940001,208.613954 60.7860001,208.817954 C60.4460001,208.953954 60.3780001,209.429954 60.3780001,209.905954 L60.3780001,233.433954 C60.3780001,238.669954 60.3780001,243.565954 60.6500001,246.013954 C60.8540001,247.645954 61.1940001,249.005954 63.0300001,249.209954 C63.8460001,249.345954 65.2060001,249.481954 65.7500001,249.481954 C66.0220001,249.481954 66.1580001,249.617954 66.1580001,249.821954 C66.1580001,250.161954 65.8860001,250.365954 65.2060001,250.365954 C61.6700001,250.365954 57.8620001,250.161954 57.5220001,250.161954 C57.4540001,250.161954 53.4420001,250.365954 51.5380001,250.365954 C50.9260001,250.365954 50.5860001,250.229954 50.5860001,249.821954 C50.5860001,249.617954 50.7220001,249.481954 51.0620001,249.481954 C51.5380001,249.481954 52.2860001,249.345954 52.8300001,249.209954 C54.0540001,249.005954 54.3940001,247.645954 54.5980001,246.013954 C54.9380001,243.565954 54.9380001,238.669954 54.9380001,233.569954 Z M88.6880002,233.569954 L88.6880002,223.369954 C88.6880002,214.461954 88.6880002,212.829954 88.5520002,210.993954 C88.4160002,209.089954 87.9400002,208.137954 85.9680002,207.729954 C85.5600002,207.661954 84.8800002,207.593954 84.3360002,207.593954 C83.8600002,207.593954 83.4520002,207.389954 83.4520002,207.185954 C83.4520002,206.777954 83.7920002,206.641954 84.4720002,206.641954 C85.8320002,206.641954 87.6680002,206.777954 91.4760002,206.845954 C91.8160002,206.845954 103.92,206.845954 105.28,206.777954 C106.64,206.709954 107.388,206.641954 107.932,206.437954 C108.34,206.301954 108.408,206.233954 108.68,206.233954 C108.816,206.233954 108.952,206.369954 108.952,206.709954 C108.952,207.117954 108.544,208.069954 108.408,209.769954 C108.34,210.925954 108.272,212.013954 108.204,213.305954 C108.204,213.917954 108.068,214.325954 107.728,214.325954 C107.388,214.325954 107.252,214.053954 107.252,213.577954 C107.184,212.557954 106.98,211.877954 106.776,211.401954 C106.368,210.041954 105.756,209.565954 102.356,209.361954 C101.472,209.293954 94.7400002,209.225954 94.6040002,209.225954 C94.4000002,209.225954 94.2640002,209.361954 94.2640002,209.769954 L94.2640002,225.205954 C94.2640002,225.613954 94.3320002,225.885954 94.6720002,225.885954 C95.4880002,225.885954 102.424,225.817954 103.852,225.681954 C105.416,225.613954 106.436,225.409954 106.98,224.661954 C107.252,224.253954 107.456,224.117954 107.728,224.117954 C107.864,224.117954 108,224.185954 108,224.525954 C108,224.865954 107.728,226.157954 107.524,228.129954 C107.32,230.033954 107.32,231.393954 107.252,232.277954 C107.184,232.821954 107.048,233.025954 106.776,233.025954 C106.436,233.025954 106.368,232.617954 106.368,232.141954 C106.368,231.733954 106.3,231.053954 106.164,230.509954 C105.892,229.625954 105.484,228.673954 102.9,228.469954 C101.336,228.333954 95.8280002,228.197954 94.7400002,228.197954 C94.3320002,228.197954 94.2640002,228.401954 94.2640002,228.673954 L94.2640002,233.637954 C94.2640002,235.745954 94.1960002,241.729954 94.2640002,242.885954 C94.4000002,245.401954 94.7400002,246.693954 96.1680002,247.305954 C97.1880002,247.781954 98.8200002,247.917954 101.132,247.917954 C102.424,247.917954 104.6,247.985954 106.3,247.509954 C108.34,246.897954 108.816,245.537954 109.36,243.021954 C109.496,242.341954 109.7,242.069954 109.972,242.069954 C110.38,242.069954 110.38,242.681954 110.38,243.089954 C110.38,243.565954 109.836,247.849954 109.632,249.005954 C109.36,250.365954 108.884,250.501954 106.64,250.501954 C102.152,250.501954 100.248,250.365954 97.8680002,250.365954 C95.4880002,250.297954 92.3600002,250.161954 89.8440002,250.161954 C88.2800002,250.161954 86.9880002,250.365954 85.3560002,250.365954 C84.7440002,250.365954 84.4040002,250.229954 84.4040002,249.889954 C84.4040002,249.617954 84.6760002,249.413954 85.0160002,249.413954 C85.4240002,249.413954 85.9000002,249.345954 86.3760002,249.209954 C87.6000002,248.937954 88.4160002,248.053954 88.5520002,243.837954 C88.6200002,241.525954 88.6880002,238.737954 88.6880002,233.569954 Z M118.378,241.865954 C118.378,209.429954 118.446,219.901954 118.378,208.613954 C118.378,206.505954 118.582,205.825954 119.126,205.825954 C119.602,205.825954 120.758,207.185954 121.234,207.661954 C121.846,208.341954 131.298,217.997954 140.818,227.721954 C146.122,232.889954 152.922,239.893954 154.69,241.525954 L153.942,213.237954 C153.874,209.565954 153.466,208.341954 151.63,207.865954 C150.474,207.661954 149.454,207.593954 148.978,207.593954 C148.298,207.593954 148.162,207.321954 148.162,207.049954 C148.162,206.709954 148.706,206.641954 149.386,206.641954 C152.31,206.641954 155.166,206.845954 155.778,206.845954 C156.458,206.845954 158.566,206.641954 161.218,206.641954 C161.966,206.641954 162.17,206.709954 162.17,207.049954 C162.17,207.321954 161.966,207.525954 161.558,207.593954 C161.15,207.661954 160.606,207.661954 159.858,207.797954 C158.294,208.137954 157.818,208.817954 157.818,212.897954 L157.682,247.033954 C157.682,250.433954 157.546,250.773954 157.07,250.773954 C156.594,250.773954 155.914,250.297954 152.582,247.169954 C152.31,247.033954 142.858,237.649954 136.942,231.869954 C129.87,224.525954 123.07,217.453954 121.37,215.685954 L122.254,242.273954 C122.39,246.965954 122.798,248.733954 124.498,249.141954 C125.586,249.413954 126.742,249.413954 127.286,249.413954 C127.83,249.413954 128.102,249.617954 128.102,249.889954 C128.102,250.229954 127.762,250.365954 127.014,250.365954 C123.342,250.365954 120.894,250.161954 120.418,250.161954 C119.942,250.161954 117.426,250.365954 114.502,250.365954 C113.89,250.365954 113.482,250.297954 113.482,249.889954 C113.482,249.617954 113.754,249.413954 114.434,249.413954 C114.91,249.413954 115.658,249.413954 116.542,249.141954 C118.038,248.665954 118.378,246.829954 118.378,241.865954 Z M6.868,301.569954 L6.868,291.369954 C6.868,281.985954 6.868,280.761954 6.732,278.925954 C6.596,277.157954 6.052,276.069954 4.148,275.661954 C3.672,275.593954 2.584,275.525954 2.04,275.525954 C1.904,275.525954 1.632,275.389954 1.632,275.185954 C1.632,274.777954 1.972,274.641954 2.584,274.641954 C5.508,274.641954 9.248,274.845954 9.656,274.845954 C11.084,274.845954 14.552,274.641954 17.34,274.641954 C24.82,274.641954 27.54,277.089954 28.492,277.905954 C29.784,279.061954 31.484,281.713954 31.484,285.521954 C31.484,293.069954 25.228,298.577954 16.728,298.577954 C16.456,298.577954 15.776,298.577954 15.436,298.509954 C15.164,298.509954 14.824,298.373954 14.824,298.101954 C14.824,297.557954 15.232,297.557954 16.524,297.557954 C21.896,297.557954 26.384,293.885954 26.384,287.901954 C26.384,287.017954 26.588,282.937954 23.46,279.673954 C20.128,276.137954 16.252,276.477954 15.028,276.477954 C14.144,276.477954 13.124,276.613954 12.716,276.817954 C12.376,276.953954 12.308,277.429954 12.308,277.905954 L12.308,301.433954 C12.308,306.669954 12.308,311.565954 12.58,314.013954 C12.784,315.645954 13.124,317.005954 14.96,317.209954 C15.776,317.345954 17.136,317.481954 17.68,317.481954 C17.952,317.481954 18.088,317.617954 18.088,317.821954 C18.088,318.161954 17.816,318.365954 17.136,318.365954 C13.6,318.365954 9.792,318.161954 9.452,318.161954 C9.384,318.161954 5.372,318.365954 3.468,318.365954 C2.856,318.365954 2.516,318.229954 2.516,317.821954 C2.516,317.617954 2.652,317.481954 2.992,317.481954 C3.468,317.481954 4.216,317.345954 4.76,317.209954 C5.984,317.005954 6.324,315.645954 6.528,314.013954 C6.868,311.565954 6.868,306.669954 6.868,301.569954 Z M37.6860001,301.569954 L37.6860001,291.369954 C37.6860001,282.393954 37.6860001,280.761954 37.5500001,278.925954 C37.4140001,277.089954 36.9380001,276.069954 34.8300001,275.661954 C34.4220001,275.593954 33.7420001,275.525954 33.1980001,275.525954 C32.7220001,275.525954 32.4500001,275.389954 32.4500001,275.117954 C32.4500001,274.845954 32.6540001,274.641954 33.2660001,274.641954 C36.1900001,274.641954 40.3380001,274.845954 40.4740001,274.845954 C41.0860001,274.845954 45.7100001,274.641954 47.6140001,274.641954 C51.4220001,274.641954 55.5700001,274.981954 58.7660001,277.225954 C60.0580001,278.177954 62.8460001,280.897954 62.8460001,285.521954 C62.8460001,289.261954 61.0100001,294.021954 55.6380001,298.373954 C60.6020001,304.493954 64.6820001,309.525954 68.1500001,313.129954 C71.4140001,316.461954 73.4540001,317.005954 75.3580001,317.277954 C75.8340001,317.345954 77.2620001,317.413954 77.4660001,317.413954 C78.0100001,317.413954 78.2140001,317.617954 78.2140001,317.889954 C78.2140001,318.229954 77.9420001,318.365954 76.9900001,318.365954 L72.2300001,318.365954 C69.0340001,318.365954 67.5380001,318.161954 66.0420001,317.549954 C63.1860001,316.325954 61.1460001,313.265954 57.6100001,308.709954 C54.9580001,305.445954 52.2380001,301.773954 51.0820001,300.345954 C50.8100001,300.073954 50.6740001,299.937954 50.2660001,299.937954 L43.2620001,299.869954 C42.9900001,299.869954 42.9220001,299.937954 42.9220001,300.209954 L42.9220001,301.161954 C42.9220001,306.601954 42.9220001,311.565954 43.2620001,314.013954 C43.4660001,315.645954 43.6700001,317.005954 45.9140001,317.277954 C46.5940001,317.345954 47.3420001,317.413954 47.8860001,317.413954 C48.4980001,317.413954 48.7700001,317.617954 48.7700001,317.821954 C48.7700001,318.161954 48.4980001,318.365954 47.8180001,318.365954 C44.2820001,318.365954 40.4740001,318.161954 40.2020001,318.161954 C39.1140001,318.161954 36.1220001,318.365954 34.2860001,318.365954 C33.6060001,318.365954 33.3340001,318.229954 33.3340001,317.821954 C33.3340001,317.617954 33.7420001,317.413954 34.1500001,317.413954 C34.6260001,317.413954 35.1020001,317.413954 35.6460001,317.277954 C36.8020001,317.073954 37.2100001,316.325954 37.4140001,314.693954 C37.7540001,312.245954 37.6860001,306.669954 37.6860001,301.569954 Z M42.9220001,277.701954 L42.9220001,296.197954 C42.9220001,296.537954 42.9900001,296.877954 43.2620001,297.013954 C44.1460001,297.489954 46.8660001,297.897954 49.3140001,297.897954 C50.7420001,297.897954 52.4420001,297.829954 53.8700001,296.877954 C55.9100001,295.585954 57.2700001,292.593954 57.2700001,288.241954 C57.2700001,280.829954 53.3260001,276.749954 47.2740001,276.749954 C45.5740001,276.749954 44.1460001,276.885954 43.3300001,277.089954 C43.1260001,277.157954 42.9220001,277.361954 42.9220001,277.701954 Z M79.4200002,301.569954 L79.4200002,291.369954 C79.4200002,282.461954 79.4200002,280.829954 79.2840002,278.993954 C79.1480002,277.089954 78.6720002,276.137954 76.7000002,275.729954 C76.2920002,275.661954 75.6120002,275.593954 75.0680002,275.593954 C74.5920002,275.593954 74.1840002,275.389954 74.1840002,275.185954 C74.1840002,274.777954 74.5240002,274.641954 75.2040002,274.641954 C76.5640002,274.641954 78.4000002,274.777954 82.2080002,274.845954 C82.5480002,274.845954 94.6520002,274.845954 96.0120002,274.777954 C97.3720002,274.709954 98.1200002,274.641954 98.6640002,274.437954 C99.0720002,274.301954 99.1400002,274.233954 99.4120002,274.233954 C99.5480002,274.233954 99.6840002,274.369954 99.6840002,274.709954 C99.6840002,275.117954 99.2760002,276.069954 99.1400002,277.769954 C99.0720002,278.925954 99.0040002,280.013954 98.9360002,281.305954 C98.9360002,281.917954 98.8000002,282.325954 98.4600002,282.325954 C98.1200002,282.325954 97.9840002,282.053954 97.9840002,281.577954 C97.9160002,280.557954 97.7120002,279.877954 97.5080002,279.401954 C97.1000002,278.041954 96.4880002,277.565954 93.0880002,277.361954 C92.2040002,277.293954 85.4720002,277.225954 85.3360002,277.225954 C85.1320002,277.225954 84.9960002,277.361954 84.9960002,277.769954 L84.9960002,293.205954 C84.9960002,293.613954 85.0640002,293.885954 85.4040002,293.885954 C86.2200002,293.885954 93.1560002,293.817954 94.5840002,293.681954 C96.1480002,293.613954 97.1680002,293.409954 97.7120002,292.661954 C97.9840002,292.253954 98.1880002,292.117954 98.4600002,292.117954 C98.5960002,292.117954 98.7320002,292.185954 98.7320002,292.525954 C98.7320002,292.865954 98.4600002,294.157954 98.2560002,296.129954 C98.0520002,298.033954 98.0520002,299.393954 97.9840002,300.277954 C97.9160002,300.821954 97.7800002,301.025954 97.5080002,301.025954 C97.1680002,301.025954 97.1000002,300.617954 97.1000002,300.141954 C97.1000002,299.733954 97.0320002,299.053954 96.8960002,298.509954 C96.6240002,297.625954 96.2160002,296.673954 93.6320002,296.469954 C92.0680002,296.333954 86.5600002,296.197954 85.4720002,296.197954 C85.0640002,296.197954 84.9960002,296.401954 84.9960002,296.673954 L84.9960002,301.637954 C84.9960002,303.745954 84.9280002,309.729954 84.9960002,310.885954 C85.1320002,313.401954 85.4720002,314.693954 86.9000002,315.305954 C87.9200002,315.781954 89.5520002,315.917954 91.8640002,315.917954 C93.1560002,315.917954 95.3320002,315.985954 97.0320002,315.509954 C99.0720002,314.897954 99.5480002,313.537954 100.092,311.021954 C100.228,310.341954 100.432,310.069954 100.704,310.069954 C101.112,310.069954 101.112,310.681954 101.112,311.089954 C101.112,311.565954 100.568,315.849954 100.364,317.005954 C100.092,318.365954 99.6160002,318.501954 97.3720002,318.501954 C92.8840002,318.501954 90.9800002,318.365954 88.6000002,318.365954 C86.2200002,318.297954 83.0920002,318.161954 80.5760002,318.161954 C79.0120002,318.161954 77.7200002,318.365954 76.0880002,318.365954 C75.4760002,318.365954 75.1360002,318.229954 75.1360002,317.889954 C75.1360002,317.617954 75.4080002,317.413954 75.7480002,317.413954 C76.1560002,317.413954 76.6320002,317.345954 77.1080002,317.209954 C78.3320002,316.937954 79.1480002,316.053954 79.2840002,311.837954 C79.3520002,309.525954 79.4200002,306.737954 79.4200002,301.569954 Z M110.586,301.569954 L110.586,291.369954 C110.586,281.985954 110.586,280.761954 110.45,278.925954 C110.314,277.157954 109.77,276.069954 107.866,275.661954 C107.39,275.593954 106.302,275.525954 105.758,275.525954 C105.622,275.525954 105.35,275.389954 105.35,275.185954 C105.35,274.777954 105.69,274.641954 106.302,274.641954 C109.226,274.641954 112.966,274.845954 113.374,274.845954 C114.802,274.845954 118.27,274.641954 121.058,274.641954 C128.538,274.641954 131.258,277.089954 132.21,277.905954 C133.502,279.061954 135.202,281.713954 135.202,285.521954 C135.202,293.069954 128.946,298.577954 120.446,298.577954 C120.174,298.577954 119.494,298.577954 119.154,298.509954 C118.882,298.509954 118.542,298.373954 118.542,298.101954 C118.542,297.557954 118.95,297.557954 120.242,297.557954 C125.614,297.557954 130.102,293.885954 130.102,287.901954 C130.102,287.017954 130.306,282.937954 127.178,279.673954 C123.846,276.137954 119.97,276.477954 118.746,276.477954 C117.862,276.477954 116.842,276.613954 116.434,276.817954 C116.094,276.953954 116.026,277.429954 116.026,277.905954 L116.026,301.433954 C116.026,306.669954 116.026,311.565954 116.298,314.013954 C116.502,315.645954 116.842,317.005954 118.678,317.209954 C119.494,317.345954 120.854,317.481954 121.398,317.481954 C121.67,317.481954 121.806,317.617954 121.806,317.821954 C121.806,318.161954 121.534,318.365954 120.854,318.365954 C117.318,318.365954 113.51,318.161954 113.17,318.161954 C113.102,318.161954 109.09,318.365954 107.186,318.365954 C106.574,318.365954 106.234,318.229954 106.234,317.821954 C106.234,317.617954 106.37,317.481954 106.71,317.481954 C107.186,317.481954 107.934,317.345954 108.478,317.209954 C109.702,317.005954 110.042,315.645954 110.246,314.013954 C110.586,311.565954 110.586,306.669954 110.586,301.569954 Z M143.404,301.569954 L143.404,291.369954 C143.404,282.393954 143.404,280.761954 143.268,278.925954 C143.132,277.089954 142.656,276.069954 140.548,275.661954 C140.14,275.593954 139.46,275.525954 138.916,275.525954 C138.44,275.525954 138.168,275.389954 138.168,275.117954 C138.168,274.845954 138.372,274.641954 138.984,274.641954 C141.908,274.641954 146.056,274.845954 146.192,274.845954 C146.804,274.845954 151.428,274.641954 153.332,274.641954 C157.14,274.641954 161.288,274.981954 164.484,277.225954 C165.776,278.177954 168.564,280.897954 168.564,285.521954 C168.564,289.261954 166.728,294.021954 161.356,298.373954 C166.32,304.493954 170.4,309.525954 173.868,313.129954 C177.132,316.461954 179.172,317.005954 181.076,317.277954 C181.552,317.345954 182.98,317.413954 183.184,317.413954 C183.728,317.413954 183.932,317.617954 183.932,317.889954 C183.932,318.229954 183.66,318.365954 182.708,318.365954 L177.948,318.365954 C174.752,318.365954 173.256,318.161954 171.76,317.549954 C168.904,316.325954 166.864,313.265954 163.328,308.709954 C160.676,305.445954 157.956,301.773954 156.8,300.345954 C156.528,300.073954 156.392,299.937954 155.984,299.937954 L148.98,299.869954 C148.708,299.869954 148.64,299.937954 148.64,300.209954 L148.64,301.161954 C148.64,306.601954 148.64,311.565954 148.98,314.013954 C149.184,315.645954 149.388,317.005954 151.632,317.277954 C152.312,317.345954 153.06,317.413954 153.604,317.413954 C154.216,317.413954 154.488,317.617954 154.488,317.821954 C154.488,318.161954 154.216,318.365954 153.536,318.365954 C150,318.365954 146.192,318.161954 145.92,318.161954 C144.832,318.161954 141.84,318.365954 140.004,318.365954 C139.324,318.365954 139.052,318.229954 139.052,317.821954 C139.052,317.617954 139.46,317.413954 139.868,317.413954 C140.344,317.413954 140.82,317.413954 141.364,317.277954 C142.52,317.073954 142.928,316.325954 143.132,314.693954 C143.472,312.245954 143.404,306.669954 143.404,301.569954 Z M148.64,277.701954 L148.64,296.197954 C148.64,296.537954 148.708,296.877954 148.98,297.013954 C149.864,297.489954 152.584,297.897954 155.032,297.897954 C156.46,297.897954 158.16,297.829954 159.588,296.877954 C161.628,295.585954 162.988,292.593954 162.988,288.241954 C162.988,280.829954 159.044,276.749954 152.992,276.749954 C151.292,276.749954 149.864,276.885954 149.048,277.089954 C148.844,277.157954 148.64,277.361954 148.64,277.701954 Z M184.138,301.569954 L184.138,291.369954 C184.138,282.393954 184.138,280.761954 184.002,278.925954 C183.866,277.089954 183.458,276.069954 182.03,275.797954 C181.35,275.661954 180.874,275.661954 180.466,275.593954 C179.99,275.525954 179.718,275.389954 179.718,275.117954 C179.718,274.777954 179.99,274.641954 180.738,274.641954 C182.846,274.641954 186.722,274.845954 186.926,274.845954 C187.198,274.845954 191.142,274.641954 193.046,274.641954 C193.726,274.641954 194.066,274.777954 194.066,275.117954 C194.066,275.389954 193.862,275.525954 193.318,275.593954 C192.91,275.661954 192.57,275.661954 192.094,275.729954 C190.122,276.001954 189.918,277.021954 189.782,278.993954 C189.646,280.829954 189.714,282.393954 189.714,291.369954 L189.714,301.569954 C189.714,306.805954 189.646,311.565954 189.986,314.013954 C190.258,315.985954 190.53,316.733954 192.298,317.141954 C193.182,317.345954 194.61,317.413954 194.882,317.413954 C195.494,317.481954 195.63,317.617954 195.63,317.889954 C195.63,318.161954 195.358,318.365954 194.678,318.365954 C191.21,318.365954 187.266,318.161954 186.926,318.161954 C186.722,318.161954 182.71,318.365954 180.806,318.365954 C180.194,318.365954 179.718,318.229954 179.718,317.889954 C179.718,317.617954 179.99,317.413954 180.602,317.413954 C180.942,317.413954 181.69,317.345954 182.234,317.209954 C183.39,316.937954 183.594,315.577954 183.798,313.945954 C184.138,311.497954 184.138,306.669954 184.138,301.569954 Z M202.628,309.865954 C202.628,277.429954 202.696,287.901954 202.628,276.613954 C202.628,274.505954 202.832,273.825954 203.376,273.825954 C203.852,273.825954 205.008,275.185954 205.484,275.661954 C206.096,276.341954 215.548,285.997954 225.068,295.721954 C230.372,300.889954 237.172,307.893954 238.94,309.525954 L238.192,281.237954 C238.124,277.565954 237.716,276.341954 235.88,275.865954 C234.724,275.661954 233.704,275.593954 233.228,275.593954 C232.548,275.593954 232.412,275.321954 232.412,275.049954 C232.412,274.709954 232.956,274.641954 233.636,274.641954 C236.56,274.641954 239.416,274.845954 240.028,274.845954 C240.708,274.845954 242.816,274.641954 245.468,274.641954 C246.216,274.641954 246.42,274.709954 246.42,275.049954 C246.42,275.321954 246.216,275.525954 245.808,275.593954 C245.4,275.661954 244.856,275.661954 244.108,275.797954 C242.544,276.137954 242.068,276.817954 242.068,280.897954 L241.932,315.033954 C241.932,318.433954 241.796,318.773954 241.32,318.773954 C240.844,318.773954 240.164,318.297954 236.832,315.169954 C236.56,315.033954 227.108,305.649954 221.192,299.869954 C214.12,292.525954 207.32,285.453954 205.62,283.685954 L206.504,310.273954 C206.64,314.965954 207.048,316.733954 208.748,317.141954 C209.836,317.413954 210.992,317.413954 211.536,317.413954 C212.08,317.413954 212.352,317.617954 212.352,317.889954 C212.352,318.229954 212.012,318.365954 211.264,318.365954 C207.592,318.365954 205.144,318.161954 204.668,318.161954 C204.192,318.161954 201.676,318.365954 198.752,318.365954 C198.14,318.365954 197.732,318.297954 197.732,317.889954 C197.732,317.617954 198.004,317.413954 198.684,317.413954 C199.16,317.413954 199.908,317.413954 200.792,317.141954 C202.288,316.665954 202.628,314.829954 202.628,309.865954 Z M270.446001,277.293954 L270.446001,301.569954 C270.446001,306.805954 270.514001,311.633954 270.786001,314.149954 C270.990001,315.781954 271.126001,316.733954 272.826001,317.141954 C273.642001,317.345954 274.934001,317.413954 275.478001,317.413954 C276.022001,317.413954 276.294001,317.617954 276.294001,317.821954 C276.294001,318.161954 276.090001,318.365954 275.410001,318.365954 C271.942001,318.365954 267.930001,318.161954 267.658001,318.161954 C267.386001,318.161954 263.374001,318.365954 261.606001,318.365954 C260.858001,318.365954 260.586001,318.229954 260.586001,317.889954 C260.586001,317.685954 260.790001,317.413954 261.334001,317.413954 C261.878001,317.413954 262.286001,317.413954 262.830001,317.345954 C264.122001,317.141954 264.326001,316.325954 264.598001,314.013954 C264.870001,311.565954 264.870001,306.669954 264.870001,301.569954 L264.870001,277.293954 C262.626001,277.293954 259.022001,277.293954 256.302001,277.361954 C251.950001,277.429954 250.998001,278.109954 250.046001,279.537954 C249.434001,280.489954 249.162001,281.305954 249.026001,281.645954 C248.822001,282.121954 248.686001,282.189954 248.414001,282.189954 C248.142001,282.189954 248.074001,281.917954 248.074001,281.577954 C248.006001,281.169954 249.026001,276.681954 249.434001,274.845954 C249.638001,274.029954 249.842001,273.757954 250.046001,273.757954 C250.522001,273.757954 251.814001,274.369954 253.038001,274.505954 C255.418001,274.777954 257.322001,274.845954 257.390001,274.845954 L279.694001,274.845954 C281.598001,274.845954 283.638001,274.709954 284.590001,274.505954 C285.474001,274.301954 285.678001,274.233954 285.882001,274.233954 C286.154001,274.233954 286.290001,274.573954 286.290001,274.845954 C286.290001,276.749954 286.154001,281.237954 286.154001,281.781954 C286.154001,282.393954 285.882001,282.597954 285.678001,282.597954 C285.338001,282.597954 285.202001,282.325954 285.202001,281.781954 C285.202001,281.577954 285.202001,281.509954 285.134001,280.829954 C284.862001,278.109954 283.978001,277.429954 277.110001,277.361954 C274.526001,277.361954 272.418001,277.293954 270.446001,277.293954 Z M11.492,387.113954 C8.636,387.113954 5.984,386.773954 3.4,385.617954 C2.516,385.209954 2.516,384.937954 2.516,383.305954 C2.516,380.177954 2.72,377.865954 2.788,376.913954 C2.856,376.301954 2.992,375.961954 3.332,375.961954 C3.672,375.961954 3.808,376.165954 3.808,376.641954 C3.808,377.049954 3.808,377.865954 4.012,378.681954 C4.896,383.101954 8.908,384.801954 12.852,384.801954 C18.496,384.801954 21.216,380.925954 21.216,377.525954 C21.216,373.649954 19.448,371.269954 14.484,367.257954 L11.764,365.149954 C5.236,359.913954 3.876,356.309954 3.876,352.297954 C3.876,346.041954 8.84,341.825954 16.456,341.825954 C18.836,341.825954 20.468,342.029954 21.964,342.369954 C23.256,342.641954 23.8,342.709954 24.276,342.709954 C24.752,342.709954 24.888,342.845954 24.888,343.117954 C24.888,343.389954 24.616,345.769954 24.616,349.713954 C24.616,350.733954 24.48,351.141954 24.14,351.141954 C23.8,351.141954 23.732,350.869954 23.664,350.393954 C23.596,349.781954 23.46,348.353954 22.848,347.197954 C22.508,346.585954 20.944,344.001954 15.232,344.001954 C11.152,344.001954 8.092,346.449954 8.092,350.529954 C8.092,353.725954 9.724,355.697954 15.368,359.981954 L16.932,361.205954 C24.004,366.645954 25.84,370.249954 25.84,375.077954 C25.84,377.525954 24.82,381.877954 20.672,384.733954 C18.02,386.433954 14.756,387.113954 11.492,387.113954 Z M45.9020001,376.505954 L45.9020001,371.541954 C45.9020001,368.277954 45.4260001,367.053954 44.4060001,365.285954 C43.9980001,364.537954 36.1100001,351.685954 34.0020001,348.761954 C32.1660001,346.177954 31.4860001,345.361954 30.5340001,344.613954 C29.5820001,343.933954 28.6980001,343.661954 27.3380001,343.593954 C26.9300001,343.593954 26.5900001,343.389954 26.5900001,343.049954 C26.5900001,342.845954 26.8620001,342.641954 27.4060001,342.641954 C28.4940001,342.641954 33.6620001,342.845954 33.7980001,342.845954 C34.2060001,342.845954 36.4500001,342.641954 38.9660001,342.641954 C39.6460001,342.641954 39.8500001,342.845954 39.8500001,343.049954 C39.8500001,343.321954 39.6460001,343.457954 39.1020001,343.593954 C38.1500001,343.797954 38.0140001,344.137954 38.0140001,344.681954 C38.0140001,345.361954 38.4220001,346.041954 38.8980001,346.925954 C39.7820001,348.625954 48.7580001,363.041954 49.7780001,364.741954 C50.8660001,362.361954 58.4820001,349.917954 59.4340001,348.217954 C60.7260001,345.973954 60.9980001,345.361954 60.9980001,344.613954 C60.9980001,343.729954 60.1820001,343.729954 59.4340001,343.593954 C58.8900001,343.525954 58.6860001,343.321954 58.6860001,343.049954 C58.6860001,342.845954 58.8220001,342.641954 59.5020001,342.641954 C61.1340001,342.641954 62.5620001,342.845954 63.6500001,342.845954 C64.5340001,342.845954 68.4780001,342.641954 69.6340001,342.641954 C70.2460001,342.641954 70.4500001,342.845954 70.4500001,343.049954 C70.4500001,343.389954 70.1100001,343.593954 69.6340001,343.593954 C68.2060001,343.661954 67.1860001,343.797954 66.2340001,344.477954 C65.2140001,345.157954 64.8060001,345.769954 63.7180001,347.265954 C59.7740001,352.705954 53.1780001,363.789954 52.1580001,366.169954 C51.3420001,368.277954 51.4780001,369.773954 51.4780001,371.541954 L51.4780001,376.505954 C51.4780001,376.981954 51.4780001,379.497954 51.6140001,381.945954 C51.7500001,383.577954 51.8860001,384.733954 53.9940001,385.141954 C54.8780001,385.345954 56.0340001,385.413954 56.5100001,385.413954 C57.0540001,385.413954 57.2580001,385.617954 57.2580001,385.821954 C57.2580001,386.161954 57.0540001,386.365954 56.4420001,386.365954 C53.0420001,386.365954 48.8260001,386.161954 48.6220001,386.161954 C48.4860001,386.161954 44.4060001,386.365954 42.5020001,386.365954 C41.8220001,386.365954 41.5500001,386.161954 41.5500001,385.821954 C41.5500001,385.617954 41.7540001,385.413954 42.2300001,385.413954 C42.7740001,385.413954 43.3860001,385.345954 43.9300001,385.209954 C45.0860001,385.005954 45.5620001,383.577954 45.6980001,381.945954 C45.9020001,379.497954 45.9020001,377.049954 45.9020001,376.505954 Z M79.8360002,387.113954 C76.9800002,387.113954 74.3280002,386.773954 71.7440002,385.617954 C70.8600002,385.209954 70.8600002,384.937954 70.8600002,383.305954 C70.8600002,380.177954 71.0640002,377.865954 71.1320002,376.913954 C71.2000002,376.301954 71.3360002,375.961954 71.6760002,375.961954 C72.0160002,375.961954 72.1520002,376.165954 72.1520002,376.641954 C72.1520002,377.049954 72.1520002,377.865954 72.3560002,378.681954 C73.2400002,383.101954 77.2520002,384.801954 81.1960002,384.801954 C86.8400002,384.801954 89.5600002,380.925954 89.5600002,377.525954 C89.5600002,373.649954 87.7920002,371.269954 82.8280002,367.257954 L80.1080002,365.149954 C73.5800002,359.913954 72.2200002,356.309954 72.2200002,352.297954 C72.2200002,346.041954 77.1840002,341.825954 84.8000002,341.825954 C87.1800002,341.825954 88.8120002,342.029954 90.3080002,342.369954 C91.6000002,342.641954 92.1440002,342.709954 92.6200002,342.709954 C93.0960002,342.709954 93.2320002,342.845954 93.2320002,343.117954 C93.2320002,343.389954 92.9600002,345.769954 92.9600002,349.713954 C92.9600002,350.733954 92.8240002,351.141954 92.4840002,351.141954 C92.1440002,351.141954 92.0760002,350.869954 92.0080002,350.393954 C91.9400002,349.781954 91.8040002,348.353954 91.1920002,347.197954 C90.8520002,346.585954 89.2880002,344.001954 83.5760002,344.001954 C79.4960002,344.001954 76.4360002,346.449954 76.4360002,350.529954 C76.4360002,353.725954 78.0680002,355.697954 83.7120002,359.981954 L85.2760002,361.205954 C92.3480002,366.645954 94.1840002,370.249954 94.1840002,375.077954 C94.1840002,377.525954 93.1640002,381.877954 89.0160002,384.733954 C86.3640002,386.433954 83.1000002,387.113954 79.8360002,387.113954 Z M119.734,345.293954 L119.734,369.569954 C119.734,374.805954 119.802,379.633954 120.074,382.149954 C120.278,383.781954 120.414,384.733954 122.114,385.141954 C122.93,385.345954 124.222,385.413954 124.766,385.413954 C125.31,385.413954 125.582,385.617954 125.582,385.821954 C125.582,386.161954 125.378,386.365954 124.698,386.365954 C121.23,386.365954 117.218,386.161954 116.946,386.161954 C116.674,386.161954 112.662,386.365954 110.894,386.365954 C110.146,386.365954 109.874,386.229954 109.874,385.889954 C109.874,385.685954 110.078,385.413954 110.622,385.413954 C111.166,385.413954 111.574,385.413954 112.118,385.345954 C113.41,385.141954 113.614,384.325954 113.886,382.013954 C114.158,379.565954 114.158,374.669954 114.158,369.569954 L114.158,345.293954 C111.914,345.293954 108.31,345.293954 105.59,345.361954 C101.238,345.429954 100.286,346.109954 99.3340002,347.537954 C98.7220002,348.489954 98.4500002,349.305954 98.3140002,349.645954 C98.1100002,350.121954 97.9740002,350.189954 97.7020002,350.189954 C97.4300002,350.189954 97.3620002,349.917954 97.3620002,349.577954 C97.2940002,349.169954 98.3140002,344.681954 98.7220002,342.845954 C98.9260002,342.029954 99.1300002,341.757954 99.3340002,341.757954 C99.8100002,341.757954 101.102,342.369954 102.326,342.505954 C104.706,342.777954 106.61,342.845954 106.678,342.845954 L128.982,342.845954 C130.886,342.845954 132.926,342.709954 133.878,342.505954 C134.762,342.301954 134.966,342.233954 135.17,342.233954 C135.442,342.233954 135.578,342.573954 135.578,342.845954 C135.578,344.749954 135.442,349.237954 135.442,349.781954 C135.442,350.393954 135.17,350.597954 134.966,350.597954 C134.626,350.597954 134.49,350.325954 134.49,349.781954 C134.49,349.577954 134.49,349.509954 134.422,348.829954 C134.15,346.109954 133.266,345.429954 126.398,345.361954 C123.814,345.361954 121.706,345.293954 119.734,345.293954 Z M144.42,369.569954 L144.42,359.369954 C144.42,350.461954 144.42,348.829954 144.284,346.993954 C144.148,345.089954 143.672,344.137954 141.7,343.729954 C141.292,343.661954 140.612,343.593954 140.068,343.593954 C139.592,343.593954 139.184,343.389954 139.184,343.185954 C139.184,342.777954 139.524,342.641954 140.204,342.641954 C141.564,342.641954 143.4,342.777954 147.208,342.845954 C147.548,342.845954 159.652,342.845954 161.012,342.777954 C162.372,342.709954 163.12,342.641954 163.664,342.437954 C164.072,342.301954 164.14,342.233954 164.412,342.233954 C164.548,342.233954 164.684,342.369954 164.684,342.709954 C164.684,343.117954 164.276,344.069954 164.14,345.769954 C164.072,346.925954 164.004,348.013954 163.936,349.305954 C163.936,349.917954 163.8,350.325954 163.46,350.325954 C163.12,350.325954 162.984,350.053954 162.984,349.577954 C162.916,348.557954 162.712,347.877954 162.508,347.401954 C162.1,346.041954 161.488,345.565954 158.088,345.361954 C157.204,345.293954 150.472,345.225954 150.336,345.225954 C150.132,345.225954 149.996,345.361954 149.996,345.769954 L149.996,361.205954 C149.996,361.613954 150.064,361.885954 150.404,361.885954 C151.22,361.885954 158.156,361.817954 159.584,361.681954 C161.148,361.613954 162.168,361.409954 162.712,360.661954 C162.984,360.253954 163.188,360.117954 163.46,360.117954 C163.596,360.117954 163.732,360.185954 163.732,360.525954 C163.732,360.865954 163.46,362.157954 163.256,364.129954 C163.052,366.033954 163.052,367.393954 162.984,368.277954 C162.916,368.821954 162.78,369.025954 162.508,369.025954 C162.168,369.025954 162.1,368.617954 162.1,368.141954 C162.1,367.733954 162.032,367.053954 161.896,366.509954 C161.624,365.625954 161.216,364.673954 158.632,364.469954 C157.068,364.333954 151.56,364.197954 150.472,364.197954 C150.064,364.197954 149.996,364.401954 149.996,364.673954 L149.996,369.637954 C149.996,371.745954 149.928,377.729954 149.996,378.885954 C150.132,381.401954 150.472,382.693954 151.9,383.305954 C152.92,383.781954 154.552,383.917954 156.864,383.917954 C158.156,383.917954 160.332,383.985954 162.032,383.509954 C164.072,382.897954 164.548,381.537954 165.092,379.021954 C165.228,378.341954 165.432,378.069954 165.704,378.069954 C166.112,378.069954 166.112,378.681954 166.112,379.089954 C166.112,379.565954 165.568,383.849954 165.364,385.005954 C165.092,386.365954 164.616,386.501954 162.372,386.501954 C157.884,386.501954 155.98,386.365954 153.6,386.365954 C151.22,386.297954 148.092,386.161954 145.576,386.161954 C144.012,386.161954 142.72,386.365954 141.088,386.365954 C140.476,386.365954 140.136,386.229954 140.136,385.889954 C140.136,385.617954 140.408,385.413954 140.748,385.413954 C141.156,385.413954 141.632,385.345954 142.108,385.209954 C143.332,384.937954 144.148,384.053954 144.284,379.837954 C144.352,377.525954 144.42,374.737954 144.42,369.569954 Z M218.542,343.525954 L222.826,378.885954 C223.03,380.517954 223.438,384.325954 226.09,384.937954 C227.246,385.209954 228.606,385.345954 229.558,385.413954 C229.83,385.413954 230.442,385.481954 230.442,385.821954 C230.442,386.161954 230.17,386.365954 229.422,386.365954 C228.198,386.365954 220.854,386.093954 218.678,385.957954 C217.182,385.821954 216.638,385.685954 216.638,385.345954 C216.638,385.141954 216.91,384.869954 217.25,384.733954 C217.59,384.597954 217.794,383.781954 217.658,382.829954 L214.666,353.725954 L200.25,382.965954 C198.958,385.617954 198.754,386.229954 198.142,386.229954 C197.734,386.229954 197.394,385.617954 196.102,383.305954 C195.014,381.333954 189.574,370.453954 189.166,369.841954 C188.758,369.025954 182.094,355.833954 181.55,354.405954 L179.034,380.585954 C178.966,381.537954 178.966,382.149954 178.966,383.169954 C178.966,383.917954 179.306,384.937954 180.666,385.209954 C181.414,385.345954 181.89,385.345954 182.57,385.413954 C183.114,385.481954 183.25,385.685954 183.25,385.821954 C183.25,386.297954 182.842,386.365954 182.094,386.365954 C179.918,386.365954 176.994,386.161954 176.45,386.161954 C175.77,386.161954 172.914,386.365954 171.214,386.365954 C170.602,386.365954 170.194,386.297954 170.194,385.821954 C170.194,385.685954 170.466,385.413954 171.078,385.413954 C171.554,385.413954 171.622,385.413954 172.37,385.345954 C174.002,385.209954 174.614,383.577954 174.954,380.857954 L179.51,343.525954 C179.646,342.369954 179.918,341.825954 180.258,341.825954 C180.598,341.825954 180.802,342.029954 181.278,342.913954 L199.502,378.205954 L216.842,342.981954 C217.182,342.233954 217.454,341.825954 217.862,341.825954 C218.27,341.825954 218.474,342.437954 218.542,343.525954 Z M241.14,387.113954 C238.284,387.113954 235.632,386.773954 233.048,385.617954 C232.164,385.209954 232.164,384.937954 232.164,383.305954 C232.164,380.177954 232.368,377.865954 232.436,376.913954 C232.504,376.301954 232.64,375.961954 232.98,375.961954 C233.32,375.961954 233.456,376.165954 233.456,376.641954 C233.456,377.049954 233.456,377.865954 233.66,378.681954 C234.544,383.101954 238.556,384.801954 242.5,384.801954 C248.144,384.801954 250.864,380.925954 250.864,377.525954 C250.864,373.649954 249.096,371.269954 244.132,367.257954 L241.412,365.149954 C234.884,359.913954 233.524,356.309954 233.524,352.297954 C233.524,346.041954 238.488,341.825954 246.104,341.825954 C248.484,341.825954 250.116,342.029954 251.612,342.369954 C252.904,342.641954 253.448,342.709954 253.924,342.709954 C254.4,342.709954 254.536,342.845954 254.536,343.117954 C254.536,343.389954 254.264,345.769954 254.264,349.713954 C254.264,350.733954 254.128,351.141954 253.788,351.141954 C253.448,351.141954 253.38,350.869954 253.312,350.393954 C253.244,349.781954 253.108,348.353954 252.496,347.197954 C252.156,346.585954 250.592,344.001954 244.88,344.001954 C240.8,344.001954 237.74,346.449954 237.74,350.529954 C237.74,353.725954 239.372,355.697954 245.016,359.981954 L246.58,361.205954 C253.652,366.645954 255.488,370.249954 255.488,375.077954 C255.488,377.525954 254.468,381.877954 250.32,384.733954 C247.668,386.433954 244.404,387.113954 241.14,387.113954 Z" id="open-preprint-systems" fill="#000000" fill-rule="nonzero"></path>
                <path d="M75.6254453,152.810178 C22.2198473,152.810178 4.54747351e-13,111.294148 4.54747351e-13,76.2101781 C4.54747351e-13,44.6346056 22.9994911,0 76.7949109,0 C120.649873,0 153.394911,27.6773537 153.394911,73.0916031 C153.394911,116.751654 122.598982,152.810178 75.6254453,152.810178 Z M80.8880407,145.403562 C98.4300254,145.403562 134.683461,135.268193 134.683461,78.5491094 C134.683461,31.7704835 106.226463,6.62697201 75.4305344,6.62697201 C42.8804071,6.62697201 18.5165394,28.0671756 18.5165394,70.7526718 C18.5165394,116.166921 45.8040712,145.403562 80.8880407,145.403562 Z M174.985344,93.480916 L174.985344,59.1765903 C174.985344,28.7704835 174.985344,23.3129771 174.595522,17.075827 C174.2057,10.448855 172.646412,7.3302799 166.214351,5.96590331 C164.655064,5.57608142 161.341578,5.38117048 159.587379,5.38117048 C158.807735,5.38117048 158.028092,4.9913486 158.028092,4.21170483 C158.028092,3.04223919 159.002646,2.6524173 161.146667,2.6524173 C169.917659,2.6524173 181.612316,3.23715013 183.171603,3.23715013 C187.459644,3.23715013 198.764478,2.6524173 207.730382,2.6524173 C232.094249,2.6524173 240.865242,10.8386768 243.983817,13.762341 C248.271858,17.8554707 253.729364,26.6264631 253.729364,39.2956743 C253.729364,64.6340967 233.458626,83.3455471 205.781272,83.3455471 C204.806718,83.3455471 202.662697,83.3455471 201.688142,83.1506361 C200.713588,83.1506361 199.544122,82.7608142 199.544122,81.7862595 C199.544122,80.226972 200.713588,80.0320611 204.806718,80.0320611 C223.713079,80.0320611 238.52631,67.1679389 238.52631,46.7022901 C238.52631,41.8295165 237.941578,28.7704835 227.611298,18.2452926 C217.281018,7.72010178 205.39145,8.49974555 200.908499,8.49974555 C197.595013,8.49974555 194.281527,8.88956743 192.527328,9.6692112 C191.357863,10.0590331 190.968041,11.4234097 190.968041,13.3725191 L190.968041,93.480916 C190.968041,112.192366 190.968041,127.590331 191.942595,135.77659 C192.527328,141.429008 193.696794,145.717048 199.544122,146.496692 C202.272875,146.886514 206.560916,147.276336 208.315115,147.276336 C209.48458,147.276336 209.874402,147.861069 209.874402,148.445802 C209.874402,149.420356 208.899847,150.005089 206.755827,150.005089 C196.035725,150.005089 183.756336,149.420356 182.781781,149.420356 C182.197048,149.420356 169.917659,150.005089 164.070331,150.005089 C161.92631,150.005089 160.951756,149.615267 160.951756,148.445802 C160.951756,147.861069 161.341578,147.276336 162.511043,147.276336 C164.265242,147.276336 166.604173,146.886514 168.358372,146.496692 C172.25659,145.717048 173.231145,141.429008 174.010789,135.77659 C174.985344,127.590331 174.985344,112.192366 174.985344,93.480916 Z M292.499745,153.928753 C283.315561,153.928753 274.326786,152.560896 266.315051,148.652733 C263.579337,147.284876 263.383929,146.503243 263.383929,141.227223 C263.383929,131.456814 264.165561,123.640488 264.360969,120.513957 C264.556378,118.364467 264.947194,117.387427 265.924235,117.387427 C267.096684,117.387427 267.292092,117.973651 267.292092,119.536916 C267.292092,121.29559 267.292092,124.031304 267.878316,126.767018 C270.809439,141.227223 283.706378,146.698651 296.798724,146.698651 C315.557908,146.698651 324.742092,133.215488 324.742092,120.709365 C324.742092,107.226202 319.075255,99.4098756 302.270153,85.535896 L293.476786,78.305794 C272.76352,61.3052838 268.073724,49.1899777 268.073724,35.9022226 C268.073724,14.9935491 283.706378,0.728753181 308.523214,0.728753181 C316.144133,0.728753181 321.810969,1.51038583 326.696173,2.68283481 C330.408929,3.46446747 331.972194,3.65987563 333.535459,3.65987563 C335.098724,3.65987563 335.489541,4.05069196 335.489541,5.02773277 C335.489541,6.00477359 334.707908,12.453243 334.707908,25.7409981 C334.707908,28.8675287 334.317092,30.2353858 333.340051,30.2353858 C332.167602,30.2353858 331.972194,29.258345 331.776786,27.6950797 C331.581378,25.3501818 330.408929,20.0741613 329.23648,17.9246715 C328.064031,15.7751818 322.78801,7.56803889 304.810459,7.56803889 C291.327296,7.56803889 280.775255,15.9705899 280.775255,30.2353858 C280.775255,41.3736511 285.855867,48.408345 304.615051,63.0639573 L310.08648,67.3629369 C333.144643,85.535896 338.616071,97.6512022 338.616071,113.283855 C338.616071,121.29559 335.489541,136.14661 322.006378,145.72161 C313.603827,151.583855 303.051786,153.928753 292.499745,153.928753 Z" id="OPS" fill="#000000" fill-rule="nonzero"></path>
                <path d="M0,176.589313 L338.616071,176.589313" id="Line" stroke="#000000" stroke-width="5" stroke-linecap="square"></path>
            </g>
        </g>
    </g>
</svg>