<?xml version="1.0" encoding="UTF-8"?>
<svg width="441px" height="383px" viewBox="0 0 441 383" version="1.1" xmlns="http://www.w3.org/2000/svg" xmlns:xlink="http://www.w3.org/1999/xlink">
    <title>Vertical - OMP</title>
    <desc>An official PKP logotype.</desc>
    <g id="Final" stroke="none" stroke-width="1" fill="none" fill-rule="evenodd">
        <g id="Artboard" transform="translate(-1117.000000, -1126.000000)">
            <g id="Vertical---OMP" transform="translate(1119.894737, 1126.000000)">
                <path d="M23.7908295,249.961588 C7.55474809,249.961588 0.927776081,237.900499 0.927776081,227.827501 C0.927776081,219.013628 7.75355725,205.825954 24.1221781,205.825954 C37.2435827,205.825954 47.2503104,213.645781 47.2503104,226.965995 C47.2503104,239.623511 37.9062799,249.961588 23.7908295,249.961588 Z M25.4475725,247.708417 C29.8876438,247.708417 41.0209567,245.455247 41.0209567,228.622738 C41.0209567,215.302524 32.8035115,207.880316 23.7245598,207.880316 C14.5130687,207.880316 7.09086005,213.579511 7.09086005,226.104489 C7.09086005,239.093354 14.3142595,247.708417 25.4475725,247.708417 Z M58.3660815,232.864 L58.3660815,222.923542 C58.3660815,213.778321 58.3660815,212.585466 58.2335421,210.796183 C58.1010026,209.07317 57.5708449,208.012855 55.7152927,207.615237 C55.2514047,207.548967 54.1910891,207.482697 53.6609314,207.482697 C53.5283919,207.482697 53.2633131,207.350158 53.2633131,207.151349 C53.2633131,206.75373 53.5946617,206.621191 54.1910891,206.621191 C57.0406871,206.621191 60.6855217,206.82 61.08314,206.82 C62.4748041,206.82 65.8545599,206.621191 68.5716184,206.621191 C75.8612876,206.621191 78.5120764,209.006901 79.4398525,209.802137 C80.6989772,210.928723 82.3557202,213.513242 82.3557202,217.224346 C82.3557202,224.580285 76.2589059,229.948132 67.9751909,229.948132 C67.710112,229.948132 67.0474148,229.948132 66.7160662,229.881863 C66.4509874,229.881863 66.1196388,229.749323 66.1196388,229.484244 C66.1196388,228.954087 66.5172571,228.954087 67.7763818,228.954087 C73.0116896,228.954087 77.3854912,225.375522 77.3854912,219.543786 C77.3854912,218.68228 77.5843003,214.706097 74.5358932,211.52515 C71.2886769,208.079125 67.5113029,208.410473 66.3184479,208.410473 C65.4569416,208.410473 64.4628957,208.543013 64.0652774,208.741822 C63.7339288,208.874361 63.6676591,209.338249 63.6676591,209.802137 L63.6676591,232.731461 C63.6676591,237.834229 63.6676591,242.605649 63.932738,244.991359 C64.1315471,246.581832 64.4628957,247.907226 66.2521782,248.106036 C67.0474148,248.238575 68.3728092,248.371115 68.902967,248.371115 C69.1680459,248.371115 69.3005853,248.503654 69.3005853,248.702463 C69.3005853,249.033812 69.0355064,249.232621 68.3728092,249.232621 C64.9267838,249.232621 61.2156795,249.033812 60.8843309,249.033812 C60.8180611,249.033812 56.9081477,249.232621 55.0525955,249.232621 C54.456168,249.232621 54.1248194,249.100081 54.1248194,248.702463 C54.1248194,248.503654 54.2573589,248.371115 54.5887075,248.371115 C55.0525955,248.371115 55.7815624,248.238575 56.3117202,248.106036 C57.5045751,247.907226 57.8359237,246.581832 58.0347329,244.991359 C58.3660815,242.605649 58.3660815,237.834229 58.3660815,232.864 Z M93.2064124,232.864 L93.2064124,222.923542 C93.2064124,214.242209 93.2064124,212.651735 93.0738729,210.862453 C92.9413335,209.006901 92.4774454,208.079125 90.5556236,207.681506 C90.1580052,207.615237 89.495308,207.548967 88.9651503,207.548967 C88.5012622,207.548967 88.1036439,207.350158 88.1036439,207.151349 C88.1036439,206.75373 88.4349925,206.621191 89.0976897,206.621191 C90.4230841,206.621191 92.2123666,206.75373 95.9234709,206.82 C96.2548195,206.82 108.05083,206.82 109.376224,206.75373 C110.701618,206.687461 111.430585,206.621191 111.960743,206.422382 C112.358361,206.289842 112.424631,206.223573 112.68971,206.223573 C112.82225,206.223573 112.954789,206.356112 112.954789,206.687461 C112.954789,207.085079 112.557171,208.012855 112.424631,209.669598 C112.358361,210.796183 112.292092,211.856499 112.225822,213.115623 C112.225822,213.712051 112.093283,214.109669 111.761934,214.109669 C111.430585,214.109669 111.298046,213.84459 111.298046,213.380702 C111.231776,212.386656 111.032967,211.723959 110.834158,211.260071 C110.43654,209.934677 109.840112,209.470789 106.526626,209.27198 C105.66512,209.20571 99.1044175,209.13944 98.971878,209.13944 C98.7730689,209.13944 98.6405294,209.27198 98.6405294,209.669598 L98.6405294,224.712824 C98.6405294,225.110443 98.7067991,225.375522 99.0381477,225.375522 C99.8333844,225.375522 106.592896,225.309252 107.98456,225.176712 C109.508764,225.110443 110.502809,224.911634 111.032967,224.182667 C111.298046,223.785048 111.496855,223.652509 111.761934,223.652509 C111.894473,223.652509 112.027013,223.718779 112.027013,224.050127 C112.027013,224.381476 111.761934,225.640601 111.563125,227.562422 C111.364316,229.417975 111.364316,230.743369 111.298046,231.604875 C111.231776,232.135033 111.099237,232.333842 110.834158,232.333842 C110.502809,232.333842 110.43654,231.936224 110.43654,231.472336 C110.43654,231.074718 110.37027,230.41202 110.23773,229.881863 C109.972652,229.020356 109.575033,228.09258 107.056784,227.893771 C105.53258,227.761232 100.164733,227.628692 99.1044175,227.628692 C98.7067991,227.628692 98.6405294,227.827501 98.6405294,228.09258 L98.6405294,232.93027 C98.6405294,234.984631 98.5742597,240.816366 98.6405294,241.942952 C98.7730689,244.394931 99.1044175,245.654056 100.496082,246.250483 C101.490127,246.714372 103.080601,246.846911 105.333771,246.846911 C106.592896,246.846911 108.713527,246.913181 110.37027,246.449293 C112.358361,245.852865 112.82225,244.527471 113.352407,242.075491 C113.484947,241.412794 113.683756,241.147715 113.948835,241.147715 C114.346453,241.147715 114.346453,241.744142 114.346453,242.141761 C114.346453,242.605649 113.816295,246.780641 113.617486,247.907226 C113.352407,249.232621 112.888519,249.36516 110.701618,249.36516 C106.327817,249.36516 104.472265,249.232621 102.152825,249.232621 C99.8333844,249.166351 96.7849772,249.033812 94.3329976,249.033812 C92.808794,249.033812 91.5496694,249.232621 89.9591961,249.232621 C89.3627686,249.232621 89.03142,249.100081 89.03142,248.768733 C89.03142,248.503654 89.2964989,248.304845 89.6278475,248.304845 C90.0254658,248.304845 90.4893538,248.238575 90.9532419,248.106036 C92.1460968,247.840957 92.9413335,246.97945 93.0738729,242.870728 C93.1401426,240.617557 93.2064124,237.900499 93.2064124,232.864 Z M125.064606,240.948906 C125.064606,209.338249 125.130876,219.543786 125.064606,208.543013 C125.064606,206.488651 125.263415,205.825954 125.793573,205.825954 C126.257461,205.825954 127.384046,207.151349 127.847934,207.615237 C128.444362,208.277934 137.655853,217.688234 146.933613,227.164804 C152.102652,232.201303 158.729624,239.027084 160.452636,240.617557 L159.723669,213.049354 C159.6574,209.470789 159.259781,208.277934 157.470499,207.814046 C156.343914,207.615237 155.349868,207.548967 154.88598,207.548967 C154.223283,207.548967 154.090743,207.283888 154.090743,207.018809 C154.090743,206.687461 154.620901,206.621191 155.283598,206.621191 C158.133196,206.621191 160.916524,206.82 161.512952,206.82 C162.175649,206.82 164.23001,206.621191 166.814529,206.621191 C167.543496,206.621191 167.742306,206.687461 167.742306,207.018809 C167.742306,207.283888 167.543496,207.482697 167.145878,207.548967 C166.74826,207.615237 166.218102,207.615237 165.489135,207.747776 C163.964932,208.079125 163.501043,208.741822 163.501043,212.718005 L163.368504,245.985405 C163.368504,249.298891 163.235965,249.630239 162.772077,249.630239 C162.308189,249.630239 161.645491,249.166351 158.398275,246.117944 C158.133196,245.985405 148.921705,236.840183 143.156239,231.207257 C136.264189,224.050127 129.637217,217.158076 127.980474,215.435064 L128.84198,241.346524 C128.974519,245.919135 129.372138,247.642148 131.028881,248.039766 C132.089196,248.304845 133.215781,248.304845 133.745939,248.304845 C134.276097,248.304845 134.541176,248.503654 134.541176,248.768733 C134.541176,249.100081 134.209827,249.232621 133.48086,249.232621 C129.902295,249.232621 127.516585,249.033812 127.052697,249.033812 C126.588809,249.033812 124.13683,249.232621 121.287232,249.232621 C120.690804,249.232621 120.293186,249.166351 120.293186,248.768733 C120.293186,248.503654 120.558265,248.304845 121.220962,248.304845 C121.68485,248.304845 122.413817,248.304845 123.275323,248.039766 C124.733257,247.575878 125.064606,245.786595 125.064606,240.948906 Z M47.117771,273.752417 L51.2927634,308.212672 C51.4915725,309.803145 51.8891908,313.514249 54.4737099,314.110677 C55.6002952,314.375756 56.9256896,314.508295 57.8534656,314.574565 C58.1185445,314.574565 58.714972,314.640835 58.714972,314.972183 C58.714972,315.303532 58.4498931,315.502341 57.7209262,315.502341 C56.5280712,315.502341 49.3709415,315.237262 47.2503104,315.104723 C45.7923766,314.972183 45.2622188,314.839644 45.2622188,314.508295 C45.2622188,314.309486 45.5272977,314.044407 45.8586463,313.911868 C46.1899949,313.779328 46.3888041,312.984092 46.2562646,312.056316 L43.3403969,283.692875 L29.2912163,312.188855 C28.0320916,314.773374 27.8332824,315.369802 27.236855,315.369802 C26.8392366,315.369802 26.507888,314.773374 25.2487634,312.520204 C24.1884478,310.598382 18.8868702,299.995226 18.4892519,299.398799 C18.0916336,298.603562 11.597201,285.747237 11.0670433,284.355573 L8.61506361,309.869415 C8.54879389,310.797191 8.54879389,311.393618 8.54879389,312.387664 C8.54879389,313.116631 8.88014249,314.110677 10.2055369,314.375756 C10.9345038,314.508295 11.3983919,314.508295 12.0610891,314.574565 C12.5912468,314.640835 12.7237863,314.839644 12.7237863,314.972183 C12.7237863,315.436071 12.3261679,315.502341 11.597201,315.502341 C9.47656997,315.502341 6.62697201,315.303532 6.09681425,315.303532 C5.43411705,315.303532 2.6507888,315.502341 0.994045802,315.502341 C0.397618321,315.502341 1.98951966e-13,315.436071 1.98951966e-13,314.972183 C1.98951966e-13,314.839644 0.26507888,314.574565 0.861506361,314.574565 C1.3253944,314.574565 1.39166412,314.574565 2.12063104,314.508295 C3.71110433,314.375756 4.30753181,312.785282 4.63888041,310.134494 L9.07895165,273.752417 C9.21149109,272.625832 9.47656997,272.095674 9.80791858,272.095674 C10.1392672,272.095674 10.3380763,272.294483 10.8019644,273.15599 L28.5622494,307.549975 L45.461028,273.22226 C45.7923766,272.493293 46.0574555,272.095674 46.4550738,272.095674 C46.8526921,272.095674 47.0515013,272.692102 47.117771,273.752417 Z M83.349766,316.231308 C67.1136846,316.231308 60.4867125,304.170219 60.4867125,294.097221 C60.4867125,285.283349 67.3124937,272.095674 83.6811146,272.095674 C96.8025192,272.095674 106.809247,279.915501 106.809247,293.235715 C106.809247,305.893232 97.4652164,316.231308 83.349766,316.231308 Z M85.006509,313.978137 C89.4465802,313.978137 100.579893,311.724967 100.579893,294.892458 C100.579893,281.572244 92.3624479,274.150036 83.2834963,274.150036 C74.0720052,274.150036 66.6497965,279.849232 66.6497965,292.374209 C66.6497965,305.363074 73.873196,313.978137 85.006509,313.978137 Z M116.732163,307.218626 C116.732163,275.607969 116.798433,285.813506 116.732163,274.812733 C116.732163,272.758372 116.930972,272.095674 117.46113,272.095674 C117.925018,272.095674 119.051603,273.421069 119.515491,273.884957 C120.111919,274.547654 129.32341,283.957954 138.601171,293.434524 C143.770209,298.471023 150.397181,305.296804 152.120194,306.887277 L151.391227,279.319074 C151.324957,275.740509 150.927339,274.547654 149.138056,274.083766 C148.011471,273.884957 147.017425,273.818687 146.553537,273.818687 C145.89084,273.818687 145.7583,273.553608 145.7583,273.288529 C145.7583,272.957181 146.288458,272.890911 146.951155,272.890911 C149.800753,272.890911 152.584082,273.08972 153.180509,273.08972 C153.843206,273.08972 155.897568,272.890911 158.482087,272.890911 C159.211054,272.890911 159.409863,272.957181 159.409863,273.288529 C159.409863,273.553608 159.211054,273.752417 158.813435,273.818687 C158.415817,273.884957 157.885659,273.884957 157.156692,274.017496 C155.632489,274.348845 155.168601,275.011542 155.168601,278.987725 L155.036061,312.255125 C155.036061,315.568611 154.903522,315.899959 154.439634,315.899959 C153.975746,315.899959 153.313048,315.436071 150.065832,312.387664 C149.800753,312.255125 140.589262,303.109903 134.823797,297.476977 C127.931746,290.319847 121.304774,283.427796 119.648031,281.704784 L120.509537,307.616244 C120.642076,312.188855 121.039695,313.911868 122.696438,314.309486 C123.756753,314.574565 124.883339,314.574565 125.413496,314.574565 C125.943654,314.574565 126.208733,314.773374 126.208733,315.038453 C126.208733,315.369802 125.877384,315.502341 125.148417,315.502341 C121.569853,315.502341 119.184143,315.303532 118.720255,315.303532 C118.256367,315.303532 115.804387,315.502341 112.954789,315.502341 C112.358361,315.502341 111.960743,315.436071 111.960743,315.038453 C111.960743,314.773374 112.225822,314.574565 112.888519,314.574565 C113.352407,314.574565 114.081374,314.574565 114.942881,314.309486 C116.400814,313.845598 116.732163,312.056316 116.732163,307.218626 Z M188.08711,316.231308 C171.851028,316.231308 165.224056,304.170219 165.224056,294.097221 C165.224056,285.283349 172.049837,272.095674 188.418458,272.095674 C201.539863,272.095674 211.546591,279.915501 211.546591,293.235715 C211.546591,305.893232 202.20256,316.231308 188.08711,316.231308 Z M189.743853,313.978137 C194.183924,313.978137 205.317237,311.724967 205.317237,294.892458 C205.317237,281.572244 197.099792,274.150036 188.02084,274.150036 C178.809349,274.150036 171.38714,279.849232 171.38714,292.374209 C171.38714,305.363074 178.61054,313.978137 189.743853,313.978137 Z M257.188886,304.634107 L257.188886,310.598382 C257.188886,313.24917 257.122616,313.31544 256.393649,313.713059 C252.748815,315.568611 247.447237,316.231308 244.200021,316.231308 C239.892489,316.231308 231.542504,315.899959 224.782993,310.267033 C221.204428,307.284896 217.625863,301.718239 217.625863,294.163491 C217.625863,285.150809 222.198474,278.722646 227.632591,275.47543 C232.735359,272.493293 238.368285,272.095674 242.410738,272.095674 C246.652,272.095674 249.501598,272.625832 251.887308,273.02345 C252.947624,273.22226 255.532143,273.553608 256.923807,273.619878 C257.453965,273.619878 257.453965,273.884957 257.453965,274.150036 C257.453965,274.945272 256.990077,276.933364 256.990077,282.765099 C256.990077,283.692875 256.923807,283.957954 256.459919,283.957954 C256.12857,283.957954 256.062301,283.560336 255.996031,283.162718 C255.996031,282.56629 255.730952,280.511929 254.736906,279.053995 C253.212703,276.867094 248.441283,274.415115 241.019074,274.415115 C237.440509,274.415115 233.265517,274.547654 228.825446,277.92741 C225.44569,280.511929 223.258789,285.548427 223.258789,292.10913 C223.258789,299.995226 227.566321,305.826962 229.289334,307.483705 C233.663135,311.724967 238.567094,313.646789 244.33256,313.646789 C246.188112,313.646789 249.10398,313.31544 250.628184,312.520204 C251.290881,312.122585 251.754769,311.459888 251.754769,310.532112 L251.754769,300.989272 C251.754769,296.615471 251.42342,295.753964 249.10398,295.422616 C248.706362,295.356346 248.043664,295.290076 247.513507,295.290076 C246.983349,295.290076 246.71827,295.024997 246.71827,294.826188 C246.71827,294.49484 246.983349,294.3623 247.712316,294.3623 C250.363105,294.3623 254.206748,294.49484 254.471827,294.49484 C254.736906,294.49484 258.64682,294.3623 260.436102,294.3623 C261.098799,294.3623 261.363878,294.49484 261.363878,294.826188 C261.363878,295.024997 261.165069,295.290076 260.568642,295.290076 C260.104753,295.290076 259.972214,295.290076 259.442056,295.356346 C257.851583,295.555155 257.453965,296.74801 257.321425,298.669832 C257.188886,300.591654 257.188886,302.248397 257.188886,304.634107 Z M272.479649,299.13372 L272.479649,289.193262 C272.479649,280.445659 272.479649,278.855186 272.34711,277.065903 C272.21457,275.276621 271.750682,274.282575 269.696321,273.884957 C269.298703,273.818687 268.636005,273.752417 268.105848,273.752417 C267.64196,273.752417 267.376881,273.619878 267.376881,273.354799 C267.376881,273.08972 267.57569,272.890911 268.172117,272.890911 C271.021715,272.890911 275.064168,273.08972 275.196708,273.08972 C275.793135,273.08972 280.299476,272.890911 282.155028,272.890911 C285.866133,272.890911 289.908586,273.22226 293.023262,275.40916 C294.282387,276.336936 296.999446,278.987725 296.999446,283.494066 C296.999446,287.138901 295.210163,291.777781 289.974855,296.019043 C294.812545,301.983318 298.788728,306.887277 302.168484,310.399573 C305.34943,313.646789 307.337522,314.176947 309.193074,314.442025 C309.656962,314.508295 311.048626,314.574565 311.247435,314.574565 C311.777593,314.574565 311.976402,314.773374 311.976402,315.038453 C311.976402,315.369802 311.711324,315.502341 310.783547,315.502341 L306.144667,315.502341 C303.02999,315.502341 301.572056,315.303532 300.114123,314.707104 C297.330794,313.514249 295.342703,310.532112 291.896677,306.092041 C289.312158,302.911094 286.661369,299.332529 285.534784,297.940865 C285.269705,297.675786 285.137166,297.543247 284.739547,297.543247 L277.913766,297.476977 C277.648687,297.476977 277.582418,297.543247 277.582418,297.808326 L277.582418,298.736102 C277.582418,304.037679 277.582418,308.875369 277.913766,311.261079 C278.112575,312.851552 278.311385,314.176947 280.498285,314.442025 C281.160983,314.508295 281.889949,314.574565 282.420107,314.574565 C283.016535,314.574565 283.281614,314.773374 283.281614,314.972183 C283.281614,315.303532 283.016535,315.502341 282.353838,315.502341 C278.907812,315.502341 275.196708,315.303532 274.931629,315.303532 C273.871313,315.303532 270.955446,315.502341 269.166163,315.502341 C268.503466,315.502341 268.238387,315.369802 268.238387,314.972183 C268.238387,314.773374 268.636005,314.574565 269.033624,314.574565 C269.497512,314.574565 269.9614,314.574565 270.491558,314.442025 C271.618143,314.243216 272.015761,313.514249 272.21457,311.923776 C272.545919,309.538066 272.479649,304.103949 272.479649,299.13372 Z M277.582418,275.873048 L277.582418,293.898412 C277.582418,294.229761 277.648687,294.561109 277.913766,294.693649 C278.775273,295.157537 281.426061,295.555155 283.811771,295.555155 C285.203435,295.555155 286.860178,295.488885 288.251843,294.561109 C290.239934,293.301985 291.565329,290.386117 291.565329,286.144855 C291.565329,278.921455 287.721685,274.945272 281.82368,274.945272 C280.166937,274.945272 278.775273,275.077812 277.980036,275.276621 C277.781227,275.342891 277.582418,275.5417 277.582418,275.873048 Z M335.075298,299.332529 L323.014209,299.332529 C322.68286,299.332529 322.484051,299.531338 322.351512,299.862687 L319.435644,308.146402 C318.772947,310.001954 318.309059,311.791237 318.309059,312.851552 C318.309059,314.044407 319.038026,314.574565 320.49596,314.574565 L320.959848,314.574565 C321.556275,314.574565 321.755084,314.773374 321.755084,315.038453 C321.755084,315.369802 321.224927,315.502341 320.761039,315.502341 C319.303105,315.502341 316.254698,315.303532 315.525731,315.303532 C314.863034,315.303532 311.947166,315.502341 309.163838,315.502341 C308.434871,315.502341 308.103522,315.369802 308.103522,315.038453 C308.103522,314.773374 308.368601,314.574565 308.898759,314.574565 C309.230107,314.574565 309.826535,314.574565 310.224153,314.508295 C313.073751,314.243216 314.200336,312.056316 315.326922,309.272987 L328.580866,274.348845 C329.309833,272.427023 329.508642,272.095674 329.97253,272.095674 C330.303878,272.095674 330.568957,272.360753 331.297924,274.216305 C332.2257,276.403206 341.238382,299.531338 344.750677,307.815053 C346.937578,313.050361 348.8594,313.911868 349.787176,314.243216 C350.648682,314.574565 351.576458,314.574565 352.040347,314.574565 C352.504235,314.574565 352.835583,314.707104 352.835583,315.038453 C352.835583,315.369802 352.570504,315.502341 351.841537,315.502341 C351.17884,315.502341 346.208611,315.502341 341.76854,315.369802 C340.509415,315.303532 340.111797,315.237262 340.111797,314.905913 C340.111797,314.707104 340.310606,314.508295 340.575685,314.442025 C340.840764,314.309486 341.238382,313.978137 340.840764,312.984092 L335.605456,299.663878 C335.472916,299.465069 335.340377,299.332529 335.075298,299.332529 Z M323.676906,297.013089 L334.280062,297.013089 C334.54514,297.013089 334.54514,296.81428 334.478871,296.615471 L329.243563,281.969863 C328.912214,281.042087 328.845944,281.042087 328.514596,281.969863 L323.544367,296.615471 C323.411827,296.88055 323.544367,297.013089 323.676906,297.013089 Z M358.716046,299.13372 L358.716046,289.193262 C358.716046,280.048041 358.716046,278.855186 358.583507,277.065903 C358.450967,275.342891 357.92081,274.282575 356.065258,273.884957 C355.601369,273.818687 354.541054,273.752417 354.010896,273.752417 C353.878357,273.752417 353.613278,273.619878 353.613278,273.421069 C353.613278,273.02345 353.944626,272.890911 354.541054,272.890911 C357.390652,272.890911 361.035487,273.08972 361.433105,273.08972 C362.824769,273.08972 366.204525,272.890911 368.921583,272.890911 C376.211252,272.890911 378.862041,275.276621 379.789817,276.071858 C381.048942,277.198443 382.705685,279.782962 382.705685,283.494066 C382.705685,290.850005 376.608871,296.217852 368.325156,296.217852 C368.060077,296.217852 367.39738,296.217852 367.066031,296.151583 C366.800952,296.151583 366.469604,296.019043 366.469604,295.753964 C366.469604,295.223807 366.867222,295.223807 368.126347,295.223807 C373.361654,295.223807 377.735456,291.645242 377.735456,285.813506 C377.735456,284.952 377.934265,280.975817 374.885858,277.79487 C371.638642,274.348845 367.861268,274.680193 366.668413,274.680193 C365.806906,274.680193 364.812861,274.812733 364.415242,275.011542 C364.083894,275.144081 364.017624,275.607969 364.017624,276.071858 L364.017624,299.001181 C364.017624,304.103949 364.017624,308.875369 364.282703,311.261079 C364.481512,312.851552 364.812861,314.176947 366.602143,314.375756 C367.39738,314.508295 368.722774,314.640835 369.252932,314.640835 C369.518011,314.640835 369.65055,314.773374 369.65055,314.972183 C369.65055,315.303532 369.385471,315.502341 368.722774,315.502341 C365.276749,315.502341 361.565644,315.303532 361.234296,315.303532 C361.168026,315.303532 357.258112,315.502341 355.40256,315.502341 C354.806133,315.502341 354.474784,315.369802 354.474784,314.972183 C354.474784,314.773374 354.607324,314.640835 354.938672,314.640835 C355.40256,314.640835 356.131527,314.508295 356.661685,314.375756 C357.85454,314.176947 358.185889,312.851552 358.384698,311.261079 C358.716046,308.875369 358.716046,304.103949 358.716046,299.13372 Z M398.413558,290.651196 L422.403197,290.651196 C422.602006,290.651196 422.800815,290.651196 422.800815,290.319847 L422.800815,289.126992 C422.800815,280.379389 422.800815,278.855186 422.668275,277.065903 C422.535736,275.276621 422.270657,274.348845 420.083756,273.951226 C419.619868,273.884957 418.957171,273.818687 418.427013,273.818687 C417.963125,273.818687 417.631777,273.619878 417.631777,273.354799 C417.631777,272.957181 417.963125,272.890911 418.559553,272.890911 C421.342881,272.890911 425.252794,273.08972 425.517873,273.08972 C425.782952,273.08972 429.494057,272.890911 431.482148,272.890911 C432.144845,272.890911 432.542464,272.957181 432.542464,273.354799 C432.542464,273.553608 432.343655,273.818687 431.813497,273.818687 C431.415878,273.818687 430.885721,273.884957 430.488102,273.951226 C428.69882,274.216305 428.433741,275.276621 428.301202,277.132173 C428.234932,278.921455 428.234932,280.445659 428.234932,289.193262 L428.234932,299.13372 C428.234932,304.567837 428.234932,308.875369 428.500011,311.261079 C428.69882,312.851552 429.030169,314.176947 430.753181,314.375756 C431.614688,314.508295 432.476194,314.574565 433.072621,314.574565 C433.602779,314.574565 433.934128,314.773374 433.934128,315.038453 C433.934128,315.369802 433.602779,315.502341 432.940082,315.502341 C429.626596,315.502341 425.782952,315.303532 425.451604,315.303532 C425.186525,315.303532 421.342881,315.502341 419.553599,315.502341 C418.890901,315.502341 418.559553,315.369802 418.559553,314.972183 C418.559553,314.773374 418.758362,314.574565 419.28852,314.574565 C419.818677,314.574565 420.282565,314.574565 420.812723,314.442025 C421.939308,314.243216 422.270657,312.785282 422.469466,311.261079 C422.800815,308.875369 422.800815,304.700377 422.800815,299.332529 L422.800815,293.434524 C422.800815,293.169445 422.602006,293.036906 422.403197,293.036906 L398.347288,293.036906 C398.148479,293.036906 398.01594,293.103176 398.01594,293.434524 L398.01594,299.332529 C398.01594,304.700377 398.01594,309.007908 398.347288,311.393618 C398.546097,312.851552 398.877446,314.176947 400.600459,314.375756 C401.461965,314.508295 402.456011,314.574565 402.986169,314.574565 C403.450057,314.574565 403.781405,314.773374 403.781405,315.038453 C403.781405,315.303532 403.516326,315.502341 402.919899,315.502341 C399.540143,315.502341 395.63023,315.303532 395.298881,315.303532 C395.100072,315.303532 391.057619,315.502341 389.334606,315.502341 C388.671909,315.502341 388.274291,315.369802 388.274291,315.038453 C388.274291,314.839644 388.40683,314.574565 389.003258,314.574565 C389.533415,314.574565 390.063573,314.508295 390.593731,314.375756 C391.786586,314.110677 392.051665,312.851552 392.250474,311.393618 C392.648092,309.007908 392.581822,304.567837 392.581822,299.13372 L392.581822,289.325802 C392.581822,280.578198 392.581822,278.855186 392.449283,277.065903 C392.316744,275.342891 391.852856,274.083766 389.931034,273.884957 C389.334606,273.818687 388.671909,273.752417 388.141751,273.752417 C387.677863,273.752417 387.412784,273.553608 387.412784,273.354799 C387.412784,272.957181 387.744133,272.890911 388.40683,272.890911 C391.256428,272.890911 394.437375,273.08972 395.298881,273.08972 C395.56396,273.08972 399.407604,272.890911 401.263156,272.890911 C401.925853,272.890911 402.257202,273.02345 402.257202,273.354799 C402.257202,273.619878 401.992123,273.752417 401.594504,273.752417 C401.196886,273.752417 400.998077,273.752417 400.26911,273.884957 C398.612367,274.150036 398.214749,275.276621 398.082209,277.132173 C398.01594,278.921455 398.01594,280.379389 398.01594,289.126992 L398.01594,290.319847 C398.01594,290.651196 398.214749,290.651196 398.413558,290.651196 Z M7.62101781,365.40344 L7.62101781,355.462982 C7.62101781,346.317761 7.62101781,345.124906 7.48847837,343.335623 C7.35593893,341.612611 6.82578117,340.552295 4.97022901,340.154677 C4.50634097,340.088407 3.44602545,340.022137 2.91586768,340.022137 C2.78332824,340.022137 2.51824936,339.889598 2.51824936,339.690789 C2.51824936,339.29317 2.84959796,339.160631 3.44602545,339.160631 C6.29562341,339.160631 9.94045802,339.35944 10.3380763,339.35944 C11.7297405,339.35944 15.1094962,339.160631 17.8265547,339.160631 C25.1162239,339.160631 27.7670127,341.546341 28.6947888,342.341578 C29.9539135,343.468163 31.6106565,346.052682 31.6106565,349.763786 C31.6106565,357.119725 25.5138422,362.487573 17.2301272,362.487573 C16.9650483,362.487573 16.3023511,362.487573 15.9710025,362.421303 C15.7059237,362.421303 15.3745751,362.288763 15.3745751,362.023684 C15.3745751,361.493527 15.7721934,361.493527 17.0313181,361.493527 C22.266626,361.493527 26.6404275,357.914962 26.6404275,352.083226 C26.6404275,351.22172 26.8392366,347.245537 23.7908295,344.06459 C20.5436132,340.618565 16.7662392,340.949913 15.5733842,340.949913 C14.7118779,340.949913 13.7178321,341.082453 13.3202137,341.281262 C12.9888651,341.413802 12.9225954,341.87769 12.9225954,342.341578 L12.9225954,365.270901 C12.9225954,370.373669 12.9225954,375.145089 13.1876743,377.530799 C13.3864835,379.121272 13.7178321,380.446667 15.5071145,380.645476 C16.3023511,380.778015 17.6277455,380.910555 18.1579033,380.910555 C18.4229822,380.910555 18.5555216,381.043094 18.5555216,381.241903 C18.5555216,381.573252 18.2904427,381.772061 17.6277455,381.772061 C14.1817201,381.772061 10.4706158,381.573252 10.1392672,381.573252 C10.0729975,381.573252 6.16308397,381.772061 4.30753181,381.772061 C3.71110433,381.772061 3.37975573,381.639522 3.37975573,381.241903 C3.37975573,381.043094 3.51229517,380.910555 3.84364377,380.910555 C4.30753181,380.910555 5.03649873,380.778015 5.56665649,380.645476 C6.75951145,380.446667 7.09086005,379.121272 7.28966921,377.530799 C7.62101781,375.145089 7.62101781,370.373669 7.62101781,365.40344 Z M42.5276184,365.40344 L42.5276184,355.462982 C42.5276184,346.715379 42.5276184,345.124906 42.395079,343.335623 C42.2625395,341.546341 41.7986515,340.552295 39.7442902,340.154677 C39.3466718,340.088407 38.6839746,340.022137 38.1538169,340.022137 C37.6899288,340.022137 37.4248499,339.889598 37.4248499,339.624519 C37.4248499,339.35944 37.6236591,339.160631 38.2200866,339.160631 C41.0696846,339.160631 45.1121375,339.35944 45.2446769,339.35944 C45.8411044,339.35944 50.3474454,339.160631 52.2029975,339.160631 C55.9141019,339.160631 59.9565548,339.49198 63.0712316,341.67888 C64.3303563,342.606656 67.0474148,345.257445 67.0474148,349.763786 C67.0474148,353.408621 65.2581324,358.047501 60.0228245,362.288763 C64.8605141,368.253038 68.8366973,373.156997 72.216453,376.669293 C75.3973996,379.916509 77.3854912,380.446667 79.2410433,380.711746 C79.7049314,380.778015 81.0965955,380.844285 81.2954047,380.844285 C81.8255624,380.844285 82.0243716,381.043094 82.0243716,381.308173 C82.0243716,381.639522 81.7592927,381.772061 80.8315166,381.772061 L76.1926362,381.772061 C73.0779594,381.772061 71.6200255,381.573252 70.1620917,380.976824 C67.3787634,379.783969 65.3906718,376.801832 61.9446464,372.361761 C59.3601273,369.180814 56.7093385,365.602249 55.5827533,364.210585 C55.3176744,363.945506 55.1851349,363.812967 54.7875166,363.812967 L47.9617354,363.746697 C47.6966566,363.746697 47.6303868,363.812967 47.6303868,364.078046 L47.6303868,365.005822 C47.6303868,370.307399 47.6303868,375.145089 47.9617354,377.530799 C48.1605446,379.121272 48.3593538,380.446667 50.5462545,380.711746 C51.2089517,380.778015 51.9379186,380.844285 52.4680764,380.844285 C53.0645039,380.844285 53.3295828,381.043094 53.3295828,381.241903 C53.3295828,381.573252 53.0645039,381.772061 52.4018067,381.772061 C48.9557812,381.772061 45.2446769,381.573252 44.979598,381.573252 C43.9192825,381.573252 41.0034148,381.772061 39.2141324,381.772061 C38.5514352,381.772061 38.2863563,381.639522 38.2863563,381.241903 C38.2863563,381.043094 38.6839746,380.844285 39.0815929,380.844285 C39.545481,380.844285 40.009369,380.844285 40.5395268,380.711746 C41.666112,380.512936 42.0637304,379.783969 42.2625395,378.193496 C42.5938881,375.807786 42.5276184,370.373669 42.5276184,365.40344 Z M47.6303868,342.142768 L47.6303868,360.168132 C47.6303868,360.499481 47.6966566,360.83083 47.9617354,360.963369 C48.8232418,361.427257 51.4740306,361.824875 53.8597405,361.824875 C55.2514047,361.824875 56.9081477,361.758606 58.2998118,360.83083 C60.2879034,359.571705 61.6132978,356.655837 61.6132978,352.414575 C61.6132978,345.191176 57.769654,341.214992 51.8716489,341.214992 C50.2149059,341.214992 48.8232418,341.347532 48.0280052,341.546341 C47.829196,341.612611 47.6303868,341.81142 47.6303868,342.142768 Z M83.1996846,365.40344 L83.1996846,355.462982 C83.1996846,346.781649 83.1996846,345.191176 83.0671452,343.401893 C82.9346057,341.546341 82.4707177,340.618565 80.5488958,340.220947 C80.1512775,340.154677 79.4885803,340.088407 78.9584225,340.088407 C78.4945345,340.088407 78.0969162,339.889598 78.0969162,339.690789 C78.0969162,339.29317 78.4282648,339.160631 79.090962,339.160631 C80.4163564,339.160631 82.2056388,339.29317 85.9167432,339.35944 C86.2480918,339.35944 98.0441019,339.35944 99.3694963,339.29317 C100.694891,339.226901 101.423858,339.160631 101.954015,338.961822 C102.351634,338.829282 102.417903,338.763013 102.682982,338.763013 C102.815522,338.763013 102.948061,338.895552 102.948061,339.226901 C102.948061,339.624519 102.550443,340.552295 102.417903,342.209038 C102.351634,343.335623 102.285364,344.395939 102.219094,345.655064 C102.219094,346.251491 102.086555,346.649109 101.755206,346.649109 C101.423858,346.649109 101.291318,346.384031 101.291318,345.920142 C101.225048,344.926097 101.026239,344.263399 100.82743,343.799511 C100.429812,342.474117 99.8333844,342.010229 96.5198984,341.81142 C95.658392,341.74515 89.0976897,341.67888 88.9651503,341.67888 C88.7663411,341.67888 88.6338017,341.81142 88.6338017,342.209038 L88.6338017,357.252265 C88.6338017,357.649883 88.7000714,357.914962 89.03142,357.914962 C89.8266566,357.914962 96.5861681,357.848692 97.9778322,357.716153 C99.5020358,357.649883 100.496082,357.451074 101.026239,356.722107 C101.291318,356.324489 101.490127,356.191949 101.755206,356.191949 C101.887746,356.191949 102.020285,356.258219 102.020285,356.589567 C102.020285,356.920916 101.755206,358.180041 101.556397,360.101863 C101.357588,361.957415 101.357588,363.282809 101.291318,364.144316 C101.225048,364.674473 101.092509,364.873282 100.82743,364.873282 C100.496082,364.873282 100.429812,364.475664 100.429812,364.011776 C100.429812,363.614158 100.363542,362.951461 100.231003,362.421303 C99.9659238,361.559796 99.5683055,360.63202 97.0500561,360.433211 C95.5258526,360.300672 90.1580052,360.168132 89.0976897,360.168132 C88.7000714,360.168132 88.6338017,360.366941 88.6338017,360.63202 L88.6338017,365.46971 C88.6338017,367.524071 88.567532,373.355807 88.6338017,374.482392 C88.7663411,376.934372 89.0976897,378.193496 90.4893538,378.789924 C91.4833996,379.253812 93.0738729,379.386351 95.3270434,379.386351 C96.5861681,379.386351 98.7067991,379.452621 100.363542,378.988733 C102.351634,378.392305 102.815522,377.066911 103.34568,374.614931 C103.478219,373.952234 103.677028,373.687155 103.942107,373.687155 C104.339725,373.687155 104.339725,374.283583 104.339725,374.681201 C104.339725,375.145089 103.809568,379.320081 103.610758,380.446667 C103.34568,381.772061 102.881791,381.904601 100.694891,381.904601 C96.3210892,381.904601 94.465537,381.772061 92.1460968,381.772061 C89.8266566,381.705791 86.7782495,381.573252 84.3262699,381.573252 C82.8020663,381.573252 81.5429416,381.772061 79.9524683,381.772061 C79.3560409,381.772061 79.0246923,381.639522 79.0246923,381.308173 C79.0246923,381.043094 79.2897711,380.844285 79.6211197,380.844285 C80.0187381,380.844285 80.4826261,380.778015 80.9465141,380.645476 C82.1393691,380.380397 82.9346057,379.518891 83.0671452,375.410168 C83.1334149,373.156997 83.1996846,370.439939 83.1996846,365.40344 Z M120.757074,382.501028 C117.973746,382.501028 115.389227,382.169679 112.870977,381.043094 C112.009471,380.645476 112.009471,380.380397 112.009471,378.789924 C112.009471,375.741517 112.20828,373.488346 112.27455,372.56057 C112.34082,371.964142 112.473359,371.632794 112.804708,371.632794 C113.136056,371.632794 113.268596,371.831603 113.268596,372.295491 C113.268596,372.693109 113.268596,373.488346 113.467405,374.283583 C114.328911,378.591115 118.238825,380.247858 122.082468,380.247858 C127.582855,380.247858 130.233644,376.470483 130.233644,373.156997 C130.233644,369.379623 128.510631,367.060183 123.672942,363.15027 L121.022153,361.095908 C114.66026,355.99314 113.334865,352.480845 113.334865,348.570931 C113.334865,342.474117 118.172555,338.365394 125.594764,338.365394 C127.914204,338.365394 129.504677,338.564204 130.962611,338.895552 C132.221736,339.160631 132.751893,339.226901 133.215781,339.226901 C133.679669,339.226901 133.812209,339.35944 133.812209,339.624519 C133.812209,339.889598 133.54713,342.209038 133.54713,346.052682 C133.54713,347.046728 133.414591,347.444346 133.083242,347.444346 C132.751893,347.444346 132.685624,347.179267 132.619354,346.715379 C132.553084,346.118952 132.420545,344.727288 131.824117,343.600702 C131.492769,343.004275 129.968565,340.486025 124.401909,340.486025 C120.425725,340.486025 117.443588,342.871735 117.443588,346.847919 C117.443588,349.962595 119.034061,351.884417 124.534448,356.05941 L126.058652,357.252265 C132.950703,362.553842 134.739985,366.066137 134.739985,370.771288 C134.739985,373.156997 133.745939,377.39826 129.703486,380.181588 C127.118967,381.838331 123.938021,382.501028 120.757074,382.501028 Z M152.416458,382.501028 C149.63313,382.501028 147.048611,382.169679 144.530362,381.043094 C143.668855,380.645476 143.668855,380.380397 143.668855,378.789924 C143.668855,375.741517 143.867664,373.488346 143.933934,372.56057 C144.000204,371.964142 144.132743,371.632794 144.464092,371.632794 C144.795441,371.632794 144.92798,371.831603 144.92798,372.295491 C144.92798,372.693109 144.92798,373.488346 145.126789,374.283583 C145.988295,378.591115 149.898209,380.247858 153.741853,380.247858 C159.242239,380.247858 161.893028,376.470483 161.893028,373.156997 C161.893028,369.379623 160.170016,367.060183 155.332326,363.15027 L152.681537,361.095908 C146.319644,355.99314 144.99425,352.480845 144.99425,348.570931 C144.99425,342.474117 149.831939,338.365394 157.254148,338.365394 C159.573588,338.365394 161.164061,338.564204 162.621995,338.895552 C163.88112,339.160631 164.411278,339.226901 164.875166,339.226901 C165.339054,339.226901 165.471593,339.35944 165.471593,339.624519 C165.471593,339.889598 165.206514,342.209038 165.206514,346.052682 C165.206514,347.046728 165.073975,347.444346 164.742626,347.444346 C164.411278,347.444346 164.345008,347.179267 164.278738,346.715379 C164.212468,346.118952 164.079929,344.727288 163.483502,343.600702 C163.152153,343.004275 161.627949,340.486025 156.061293,340.486025 C152.08511,340.486025 149.102972,342.871735 149.102972,346.847919 C149.102972,349.962595 150.693446,351.884417 156.193832,356.05941 L157.718036,357.252265 C164.610087,362.553842 166.399369,366.066137 166.399369,370.771288 C166.399369,373.156997 165.405323,377.39826 161.362871,380.181588 C158.778351,381.838331 155.597405,382.501028 152.416458,382.501028 Z" id="open-monograph-press" fill="#000000" fill-rule="nonzero"></path>
                <path d="M75.6254453,152.810178 C22.2198473,152.810178 2.27373675e-13,111.294148 2.27373675e-13,76.2101781 C2.27373675e-13,44.6346056 22.9994911,8.52651283e-14 76.7949109,8.52651283e-14 C120.649873,8.52651283e-14 153.394911,27.6773537 153.394911,73.0916031 C153.394911,116.751654 122.598982,152.810178 75.6254453,152.810178 Z M80.8880407,145.403562 C98.4300254,145.403562 134.683461,135.268193 134.683461,78.5491094 C134.683461,31.7704835 106.226463,6.62697201 75.4305344,6.62697201 C42.8804071,6.62697201 18.5165394,28.0671756 18.5165394,70.7526718 C18.5165394,116.166921 45.8040712,145.403562 80.8880407,145.403562 Z M306.438982,5.26259542 L319.498015,124.937913 C320.277659,131.954707 321.642036,142.86972 330.023206,145.598473 C335.675623,147.352672 340.158575,147.352672 342.107684,147.352672 C343.082239,147.352672 344.251705,147.547583 344.251705,148.522137 C344.251705,149.691603 343.666972,150.081425 341.328041,150.081425 C337.04,150.081425 314.820153,149.496692 307.608448,148.911959 C303.125496,148.522137 302.150941,147.937405 302.150941,146.96285 C302.150941,146.183206 302.540763,145.988295 303.515318,145.598473 C304.879695,145.01374 304.684784,142.090076 304.294962,138.581679 L294.939237,36.8381679 L246.601323,139.361323 C242.508193,147.937405 241.923461,149.691603 240.169262,149.691603 C238.804885,149.691603 237.830331,147.742494 234.127023,140.7257 C229.059338,131.175064 212.296997,97.4554707 211.322443,95.5063613 C209.568244,91.9979644 187.153486,43.8549618 185.009466,38.5923664 L177.018117,130.39542 C176.823206,133.513995 176.628295,136.242748 176.628295,139.556234 C176.628295,144.429008 178.967226,145.988295 181.890891,146.573028 C185.204377,147.352672 187.738219,147.352672 188.907684,147.352672 C190.07715,147.352672 190.856794,147.742494 190.856794,148.327226 C190.856794,149.691603 189.882239,150.081425 187.93313,150.081425 C180.721425,150.081425 170.780967,149.496692 169.221679,149.496692 C167.467481,149.496692 158.111756,150.081425 152.84916,150.081425 C150.900051,150.081425 149.535674,149.886514 149.535674,148.522137 C149.535674,147.742494 150.510229,147.352672 151.484784,147.352672 C153.044071,147.352672 154.408448,147.352672 157.332112,146.767939 C163.764173,145.598473 164.153995,138.581679 165.12855,130.590331 L179.162137,3.89821883 C179.357048,1.75419847 180.136692,8.52651283e-14 181.306158,8.52651283e-14 C182.475623,8.52651283e-14 183.255267,0.779643766 184.229822,2.92366412 L243.87257,125.522646 L301.176387,3.11857506 C301.956031,1.36437659 302.735674,8.52651283e-14 304.100051,8.52651283e-14 C305.464427,8.52651283e-14 306.04916,1.55928753 306.438982,5.26259542 Z M355.985344,93.5572519 L355.985344,59.2529262 C355.985344,28.8468193 355.985344,23.389313 355.595522,17.1521628 C355.2057,10.5251908 353.646412,7.40661578 347.214351,6.04223919 C345.655064,5.6524173 342.341578,5.45750636 340.587379,5.45750636 C339.807735,5.45750636 339.028092,5.06768448 339.028092,4.28804071 C339.028092,3.11857506 340.002646,2.72875318 342.146667,2.72875318 C350.917659,2.72875318 362.612316,3.31348601 364.171603,3.31348601 C368.459644,3.31348601 379.764478,2.72875318 388.730382,2.72875318 C413.094249,2.72875318 421.865242,10.9150127 424.983817,13.8386768 C429.271858,17.9318066 434.729364,26.702799 434.729364,39.3720102 C434.729364,64.7104326 414.458626,83.421883 386.781272,83.421883 C385.806718,83.421883 383.662697,83.421883 382.688142,83.226972 C381.713588,83.226972 380.544122,82.8371501 380.544122,81.8625954 C380.544122,80.3033079 381.713588,80.1083969 385.806718,80.1083969 C404.713079,80.1083969 419.52631,67.2442748 419.52631,46.778626 C419.52631,41.9058524 418.941578,28.8468193 408.611298,18.3216285 C398.281018,7.79643766 386.39145,8.57608142 381.908499,8.57608142 C378.595013,8.57608142 375.281527,8.96590331 373.527328,9.74554707 C372.357863,10.135369 371.968041,11.4997455 371.968041,13.448855 L371.968041,93.5572519 C371.968041,112.268702 371.968041,127.666667 372.942595,135.852926 C373.527328,141.505344 374.696794,145.793384 380.544122,146.573028 C383.272875,146.96285 387.560916,147.352672 389.315115,147.352672 C390.48458,147.352672 390.874402,147.937405 390.874402,148.522137 C390.874402,149.496692 389.899847,150.081425 387.755827,150.081425 C377.035725,150.081425 364.756336,149.496692 363.781781,149.496692 C363.197048,149.496692 350.917659,150.081425 345.070331,150.081425 C342.92631,150.081425 341.951756,149.691603 341.951756,148.522137 C341.951756,147.937405 342.341578,147.352672 343.511043,147.352672 C345.265242,147.352672 347.604173,146.96285 349.358372,146.573028 C353.25659,145.793384 354.231145,141.505344 355.010789,135.852926 C355.985344,127.666667 355.985344,112.268702 355.985344,93.5572519 Z" id="OMP" fill="#000000" fill-rule="nonzero"></path>
                <path d="M-2.84217094e-14,176.589313 L434.729364,176.589313" id="Line" stroke="#000000" stroke-width="5" stroke-linecap="square"></path>
            </g>
        </g>
    </g>
</svg>
