<?xml version="1.0" encoding="UTF-8"?>
<svg width="339px" height="391px" viewBox="0 0 339 391" version="1.1" xmlns="http://www.w3.org/2000/svg" xmlns:xlink="http://www.w3.org/1999/xlink">
    <title>PKP Vertical</title>
    <desc>An official PKP logotype.</desc>
    <g id="Final" stroke="none" stroke-width="1" fill="none" fill-rule="evenodd">
        <g id="Artboard-Copy" transform="translate(-97.000000, -278.000000)" fill="#000000" fill-rule="nonzero">
            <g id="PKP-Vertical" transform="translate(95.000000, 278.750000)">
                <path d="M20.6523885,93.6892388 L20.6523885,58.3044619 C20.6523885,26.9406824 20.6523885,21.3112861 20.2502887,14.8776903 C19.848189,8.04199475 18.23979,4.82519685 11.6051444,3.41784777 C9.99674541,3.01574803 6.57889764,2.81469816 4.76944882,2.81469816 C3.96524934,2.81469816 3.16104987,2.41259843 3.16104987,1.60839895 C3.16104987,0.402099738 4.16629921,9.09494702e-13 6.37784777,9.09494702e-13 C15.4250919,9.09494702e-13 27.488084,0.603149606 29.0964829,0.603149606 C33.5195801,0.603149606 45.1804724,9.09494702e-13 54.4287664,9.09494702e-13 C79.56,9.09494702e-13 88.6072441,8.44409449 91.824042,11.4598425 C96.2471391,15.6818898 101.876535,24.7291339 101.876535,37.7973753 C101.876535,63.9338583 80.9673491,83.2346457 52.4182677,83.2346457 C51.4130184,83.2346457 49.2014698,83.2346457 48.1962205,83.0335958 C47.1909711,83.0335958 45.9846719,82.6314961 45.9846719,81.6262467 C45.9846719,80.0178478 47.1909711,79.8167979 51.4130184,79.8167979 C70.9148556,79.8167979 86.1946457,66.5475066 86.1946457,45.4372703 C86.1946457,40.4110236 85.5914961,26.9406824 74.935853,16.0839895 C64.28021,5.22729659 52.016168,6.03149606 47.392021,6.03149606 C43.9741732,6.03149606 40.5563255,6.4335958 38.7468766,7.23779528 C37.5405774,7.63989501 37.1384777,9.04724409 37.1384777,11.0577428 L37.1384777,93.6892388 C37.1384777,112.990026 37.1384777,128.872966 38.143727,137.31706 C38.7468766,143.147507 39.9531759,147.570604 45.9846719,148.374803 C48.7993701,148.776903 53.2224672,149.179003 55.031916,149.179003 C56.2382152,149.179003 56.640315,149.782152 56.640315,150.385302 C56.640315,151.390551 55.6350656,151.993701 53.4235171,151.993701 C42.3657743,151.993701 29.6996325,151.390551 28.6943832,151.390551 C28.0912336,151.390551 15.4250919,151.993701 9.3935958,151.993701 C7.18204724,151.993701 6.1767979,151.591601 6.1767979,150.385302 C6.1767979,149.782152 6.57889764,149.179003 7.78519685,149.179003 C9.59464567,149.179003 12.0072441,148.776903 13.8166929,148.374803 C17.8376903,147.570604 18.8429396,143.147507 19.6471391,137.31706 C20.6523885,128.872966 20.6523885,112.990026 20.6523885,93.6892388 Z M135.994698,58.3044619 L135.994698,71.1716535 C142.227244,65.1401575 169.570026,36.3900262 181.834068,23.7238845 C193.89706,11.2587927 194.70126,9.24829396 194.70126,6.83569554 C194.70126,5.22729659 193.69601,3.61889764 192.087612,3.01574803 C190.680262,2.41259843 190.278163,2.01049869 190.278163,1.20629921 C190.278163,0.402099738 191.484462,9.09494702e-13 193.293911,9.09494702e-13 C199.124357,9.09494702e-13 198.521207,0.603149606 205.356903,0.603149606 C211.589449,0.603149606 223.451391,9.09494702e-13 226.668189,9.09494702e-13 C229.482887,9.09494702e-13 230.086037,0.603149606 230.086037,1.40734908 C230.086037,2.21154856 229.683937,2.61364829 227.874488,2.81469816 C224.054541,3.2167979 220.435643,4.02099738 217.620945,5.22729659 C212.594698,7.23779528 208.774751,9.6503937 196.711759,21.3112861 C179.01937,38.4005249 156.099685,61.1191601 150.872388,66.9496063 C163.53853,80.8220472 200.129606,118.016273 209.57895,126.862467 C226.065039,142.343307 233.101785,146.766404 242.752178,148.575853 C244.561627,148.977953 246.572126,149.179003 248.582625,149.179003 C250.191024,149.179003 251.397323,149.581102 251.397323,150.586352 C251.397323,151.591601 250.593123,151.993701 248.381575,151.993701 L233.503885,151.993701 C216.012546,151.993701 211.388399,149.782152 201.939055,142.343307 C189.876063,132.893963 153.687087,94.0913386 135.994698,72.9811024 L135.994698,93.6892388 C135.994698,112.990026 135.994698,128.872966 136.999948,137.31706 C137.603097,143.147507 138.809396,147.570604 144.840892,148.374803 C147.655591,148.776903 151.676588,149.179003 152.882887,149.179003 C154.692336,149.179003 155.295486,149.983202 155.295486,150.586352 C155.295486,151.591601 154.491286,151.993701 152.279738,151.993701 C141.221995,151.993701 128.555853,151.390551 127.550604,151.390551 C126.545354,151.390551 114.683412,151.993701 108.651916,151.993701 C106.440367,151.993701 105.435118,151.792651 105.435118,150.586352 C105.435118,149.983202 105.837218,149.179003 107.646667,149.179003 C108.852966,149.179003 111.064514,148.977953 112.873963,148.575853 C116.894961,147.771654 118.10126,143.147507 118.905459,137.31706 C119.910709,128.872966 119.910709,112.990026 119.910709,93.6892388 L119.910709,58.3044619 C119.910709,26.9406824 119.910709,21.3112861 119.508609,14.8776903 C119.106509,8.04199475 117.09601,4.62414698 112.672913,3.61889764 C110.461365,3.01574803 106.842467,2.81469816 105.435118,2.81469816 C103.826719,2.81469816 103.22357,2.41259843 103.22357,1.60839895 C103.22357,0.402099738 104.228819,9.09494702e-13 106.440367,9.09494702e-13 C113.075013,9.09494702e-13 126.545354,0.603149606 127.550604,0.603149606 C128.555853,0.603149606 141.221995,9.09494702e-13 147.253491,9.09494702e-13 C149.465039,9.09494702e-13 150.470289,0.402099738 150.470289,1.40734908 C150.470289,2.21154856 150.068189,2.61364829 148.25874,2.81469816 C146.047192,3.01574803 145.846142,3.01574803 143.835643,3.2167979 C138.407297,3.81994751 136.798898,7.84094488 136.396798,14.8776903 C135.994698,21.3112861 135.994698,26.9406824 135.994698,58.3044619 Z M258.775853,93.6892388 L258.775853,58.3044619 C258.775853,26.9406824 258.775853,21.3112861 258.373753,14.8776903 C257.971654,8.04199475 256.363255,4.82519685 249.728609,3.41784777 C248.12021,3.01574803 244.702362,2.81469816 242.892913,2.81469816 C242.088714,2.81469816 241.284514,2.41259843 241.284514,1.60839895 C241.284514,0.402099738 242.289764,9.09494702e-13 244.501312,9.09494702e-13 C253.548556,9.09494702e-13 265.611549,0.603149606 267.219948,0.603149606 C271.643045,0.603149606 283.303937,9.09494702e-13 292.552231,9.09494702e-13 C317.683465,9.09494702e-13 326.730709,8.44409449 329.947507,11.4598425 C334.370604,15.6818898 340,24.7291339 340,37.7973753 C340,63.9338583 319.090814,83.2346457 290.541732,83.2346457 C289.536483,83.2346457 287.324934,83.2346457 286.319685,83.0335958 C285.314436,83.0335958 284.108136,82.6314961 284.108136,81.6262467 C284.108136,80.0178478 285.314436,79.8167979 289.536483,79.8167979 C309.03832,79.8167979 324.31811,66.5475066 324.31811,45.4372703 C324.31811,40.4110236 323.714961,26.9406824 313.059318,16.0839895 C302.403675,5.22729659 290.139633,6.03149606 285.515486,6.03149606 C282.097638,6.03149606 278.67979,6.4335958 276.870341,7.23779528 C275.664042,7.63989501 275.261942,9.04724409 275.261942,11.0577428 L275.261942,93.6892388 C275.261942,112.990026 275.261942,128.872966 276.267192,137.31706 C276.870341,143.147507 278.07664,147.570604 284.108136,148.374803 C286.922835,148.776903 291.345932,149.179003 293.155381,149.179003 C294.36168,149.179003 294.76378,149.782152 294.76378,150.385302 C294.76378,151.390551 293.75853,151.993701 291.546982,151.993701 C280.489239,151.993701 267.823097,151.390551 266.817848,151.390551 C266.214698,151.390551 253.548556,151.993701 247.51706,151.993701 C245.305512,151.993701 244.300262,151.591601 244.300262,150.385302 C244.300262,149.782152 244.702362,149.179003 245.908661,149.179003 C247.71811,149.179003 250.130709,148.776903 251.940157,148.374803 C255.961155,147.570604 256.966404,143.147507 257.770604,137.31706 C258.775853,128.872966 258.775853,112.990026 258.775853,93.6892388 Z" id="PKP" stroke="#000000"></path>
                <path d="M12.1534091,220.2781 L22.9346591,220.2781 C25.6299851,220.2781 27.794381,219.812551 29.4279119,218.881438 C31.0614428,217.950326 32.2498187,216.688442 32.9930753,215.09575 C33.7363318,213.503057 34.1079545,211.702116 34.1079545,209.692873 C34.1079545,207.68363 33.7363318,205.886773 32.9930753,204.302248 C32.2498187,202.717723 31.0532753,201.472175 29.4034091,200.565565 C27.7535429,199.658955 25.5646443,199.205657 22.8366477,199.205657 L12.1534091,199.205657 L12.1534091,220.2781 L12.1534091,220.2781 Z M12.1534091,225.668725 L12.1534091,243.99685 L6.07670455,243.99685 L6.07670455,193.815032 L23.0326705,193.815032 C26.9694799,193.815032 30.1915713,194.521524 32.6990412,195.934528 C35.2065111,197.347532 37.0646246,199.254651 38.2734375,201.655941 C39.4822504,204.057232 40.0866477,206.736182 40.0866477,209.692873 C40.0866477,212.649564 39.4863341,215.336682 38.2856889,217.754308 C37.0850437,220.171934 35.2350977,222.095387 32.7357955,223.524727 C30.2364932,224.954066 27.0348207,225.668725 23.1306818,225.668725 L12.1534091,225.668725 Z M70.4581786,228.609066 L70.4581786,206.360487 L76.240849,206.360487 L76.240849,243.99685 L70.4581786,243.99685 L70.4581786,237.626112 L70.0661331,237.626112 C69.1840264,239.537343 67.811881,241.158598 65.9496558,242.489926 C64.0874306,243.821253 61.7351814,244.486907 58.8928376,244.486907 C56.5405532,244.486907 54.449665,243.968269 52.6201104,242.930977 C50.7905558,241.893685 49.3530701,240.325519 48.3076104,238.226431 C47.2621506,236.127344 46.7394286,233.47698 46.7394286,230.275259 L46.7394286,206.360487 L52.522099,206.360487 L52.522099,229.883214 C52.522099,232.627546 53.2939308,234.816444 54.8376175,236.449975 C56.3813042,238.083506 58.3537631,238.900259 60.7550536,238.900259 C62.1925607,238.900259 63.6586327,238.532721 65.1533135,237.797632 C66.6479943,237.062543 67.9057942,235.935423 68.926751,234.41624 C69.9477078,232.897056 70.4581786,230.961351 70.4581786,228.609066 Z M85.2459026,243.99685 L85.2459026,193.815032 L91.028573,193.815032 L91.028573,212.33918 L91.5186298,212.33918 C91.9433479,211.685768 92.5354939,210.848596 93.2950858,209.827639 C94.0546777,208.806682 95.1491269,207.891918 96.5784665,207.083321 C98.007806,206.274723 99.9475949,205.87043 102.397891,205.87043 C105.566941,205.87043 108.360237,206.662681 110.777863,208.247206 C113.195489,209.83173 115.082188,212.077802 116.438019,214.985487 C117.79385,217.893172 118.471755,221.323535 118.471755,225.27668 C118.471755,229.262495 117.79385,232.713278 116.438019,235.62913 C115.082188,238.544983 113.203656,240.799222 110.802366,242.391914 C108.401075,243.984607 105.632282,244.780941 102.495903,244.780941 C100.078277,244.780941 98.1425718,244.376648 96.6887293,243.568051 C95.2348868,242.759453 94.1159349,241.836522 93.3318401,240.79923 C92.5477452,239.761938 91.9433479,238.900263 91.5186298,238.21418 L90.8325503,238.21418 L90.8325503,243.99685 L85.2459026,243.99685 Z M90.9305617,225.178669 C90.9305617,228.021012 91.3471058,230.524361 92.1802065,232.688789 C93.0133073,234.853218 94.2302696,236.543897 95.8311298,237.760877 C97.4319901,238.977858 99.3921978,239.586339 101.711812,239.586339 C104.129437,239.586339 106.150902,238.945188 107.776265,237.662866 C109.401628,236.380544 110.626758,234.649027 111.451691,232.468264 C112.276624,230.2875 112.689084,227.857659 112.689084,225.178669 C112.689084,222.532349 112.284792,220.143345 111.476194,218.011588 C110.667596,215.87983 109.450634,214.189151 107.82527,212.9395 C106.199907,211.689848 104.162108,211.065032 101.711812,211.065032 C99.3595272,211.065032 97.3829844,211.657178 95.7821242,212.841488 C94.1812639,214.025798 92.9724691,215.67564 92.1557037,217.791062 C91.3389383,219.906485 90.9305617,222.368995 90.9305617,225.178669 Z M130.711183,193.815032 L130.711183,243.99685 L124.928513,243.99685 L124.928513,193.815032 L130.711183,193.815032 Z M138.932146,243.99685 L138.932146,206.360487 L144.714816,206.360487 L144.714816,243.99685 L138.932146,243.99685 Z M141.872487,200.087759 C140.745351,200.087759 139.777498,199.703885 138.9689,198.936126 C138.160302,198.168366 137.75601,197.245435 137.75601,196.167305 C137.75601,195.089175 138.160302,194.166243 138.9689,193.398484 C139.777498,192.630724 140.745351,192.24685 141.872487,192.24685 C142.999623,192.24685 143.967476,192.630724 144.776074,193.398484 C145.584671,194.166243 145.988964,195.089175 145.988964,196.167305 C145.988964,197.245435 145.584671,198.168366 144.776074,198.936126 C143.967476,199.703885 142.999623,200.087759 141.872487,200.087759 Z M168.225552,244.780941 C164.697125,244.780941 161.658803,243.947853 159.110495,242.281652 C156.562187,240.61545 154.601979,238.320374 153.229813,235.396353 C151.857647,232.472333 151.171575,229.131812 151.171575,225.374691 C151.171575,221.552229 151.878066,218.174955 153.29107,215.242767 C154.704075,212.310579 156.680617,210.015502 159.220758,208.357468 C161.760898,206.699434 164.729796,205.87043 168.12754,205.87043 C170.773861,205.87043 173.15878,206.360482 175.28237,207.3406 C177.40596,208.320719 179.145645,209.692864 180.501475,211.457078 C181.857306,213.221291 182.698562,215.279509 183.025268,217.631794 L177.242597,217.631794 C176.801544,215.916586 175.825524,214.393341 174.314508,213.062014 C172.803492,211.730686 170.77386,211.065032 168.225552,211.065032 C165.971279,211.065032 163.99882,211.649011 162.308116,212.816985 C160.617411,213.98496 159.302439,215.626634 158.363158,217.742056 C157.423878,219.857479 156.954245,222.336325 156.954245,225.178669 C156.954245,228.086354 157.415711,230.618288 158.338656,232.774549 C159.261601,234.93081 160.568406,236.605154 162.25911,237.797632 C163.949815,238.990109 165.938609,239.586339 168.225552,239.586339 C169.7284,239.586339 171.092378,239.324978 172.317526,238.802248 C173.542674,238.279518 174.579951,237.528105 175.429387,236.547987 C176.278823,235.567868 176.883221,234.391744 177.242597,233.019578 L183.025268,233.019578 C182.698562,235.24118 181.89406,237.238141 180.611738,239.010522 C179.329416,240.782903 177.638737,242.187719 175.53965,243.225011 C173.440563,244.262303 171.002554,244.780941 168.225552,244.780941 Z M6.07670455,309.99685 L6.07670455,259.815032 L12.1534091,259.815032 L12.1534091,284.709919 L12.7414773,284.709919 L35.2840909,259.815032 L43.2230114,259.815032 L22.1505682,282.455657 L43.2230114,309.99685 L35.8721591,309.99685 L18.4261364,286.670146 L12.1534091,293.726964 L12.1534091,309.99685 L6.07670455,309.99685 Z M53.6982354,287.356225 L53.6982354,309.99685 L47.9155649,309.99685 L47.9155649,272.360487 L53.5022126,272.360487 L53.5022126,278.241169 L53.9922695,278.241169 C54.8743761,276.329937 56.2138514,274.790358 58.0107354,273.622383 C59.8076194,272.454408 62.1271984,271.87043 64.9695422,271.87043 C67.5178504,271.87043 69.7475866,272.389068 71.6588178,273.42636 C73.5700489,274.463652 75.0565397,276.031819 76.1183348,278.130906 C77.1801299,280.229993 77.7110195,282.880357 77.7110195,286.082078 L77.7110195,309.99685 L71.928349,309.99685 L71.928349,286.474123 C71.928349,283.517432 71.160601,281.210104 69.625082,279.552071 C68.0895629,277.894037 65.9823397,277.065032 63.303349,277.065032 C61.4574591,277.065032 59.8117014,277.465241 58.3660266,278.265671 C56.9203517,279.066102 55.780981,280.234059 54.9478803,281.769578 C54.1147795,283.305097 53.6982354,285.167294 53.6982354,287.356225 Z M101.221755,310.780941 C97.8240106,310.780941 94.8469452,309.972356 92.2904693,308.35516 C89.7339935,306.737964 87.7411157,304.475558 86.3117761,301.567873 C84.8824366,298.660188 84.1677776,295.262495 84.1677776,291.374691 C84.1677776,287.454217 84.8824366,284.032021 86.3117761,281.108001 C87.7411157,278.183981 89.7339935,275.913407 92.2904693,274.296211 C94.8469452,272.679016 97.8240106,271.87043 101.221755,271.87043 C104.619499,271.87043 107.596564,272.679016 110.15304,274.296211 C112.709516,275.913407 114.702394,278.183981 116.131734,281.108001 C117.561073,284.032021 118.275732,287.454217 118.275732,291.374691 C118.275732,295.262495 117.561073,298.660188 116.131734,301.567873 C114.702394,304.475558 112.709516,306.737964 110.15304,308.35516 C107.596564,309.972356 104.619499,310.780941 101.221755,310.780941 Z M101.221755,305.586339 C103.802734,305.586339 105.926292,304.924769 107.592493,303.601609 C109.258695,302.278449 110.491992,300.538765 111.292422,298.382504 C112.092853,296.226243 112.493062,293.890329 112.493062,291.374691 C112.493062,288.859054 112.092853,286.514972 111.292422,284.342376 C110.491992,282.16978 109.258695,280.413761 107.592493,279.074265 C105.926292,277.73477 103.802734,277.065032 101.221755,277.065032 C98.640776,277.065032 96.5172177,277.73477 94.8510162,279.074265 C93.1848147,280.413761 91.9515174,282.16978 91.1510872,284.342376 C90.3506571,286.514972 89.950448,288.859054 89.950448,291.374691 C89.950448,293.890329 90.3506571,296.226243 91.1510872,298.382504 C91.9515174,300.538765 93.1848147,302.278449 94.8510162,303.601609 C96.5172177,304.924769 98.640776,305.586339 101.221755,305.586339 Z M131.985331,309.99685 L120.518002,272.360487 L126.594706,272.360487 L134.729649,301.175828 L135.121695,301.175828 L143.158627,272.360487 L149.333342,272.360487 L157.272263,301.077816 L157.664308,301.077816 L165.799252,272.360487 L171.875956,272.360487 L160.408627,309.99685 L154.723967,309.99685 L146.491013,281.083498 L145.902945,281.083498 L137.66999,309.99685 L131.985331,309.99685 Z M182.939248,259.815032 L182.939248,309.99685 L177.156578,309.99685 L177.156578,259.815032 L182.939248,259.815032 Z M195.206243,288.140316 L216.643165,288.140316 C216.643165,286.016726 216.222538,284.121859 215.381269,282.455657 C214.540001,280.789456 213.347541,279.474483 211.803854,278.5107 C210.260168,277.546917 208.442892,277.065032 206.351972,277.065032 C204.048694,277.065032 202.0599,277.632676 200.385531,278.76798 C198.711161,279.903284 197.424775,281.377523 196.526333,283.190742 C195.756387,284.744635 195.316359,286.39448 195.206243,288.140316 L195.206243,288.140316 Z M195.191579,293.138896 C195.275175,295.642142 195.765011,297.786123 196.661099,299.570892 C197.649385,301.539296 199.025614,303.033955 200.789827,304.054911 C202.554041,305.075868 204.604091,305.586339 206.94004,305.586339 C208.459224,305.586339 209.835453,305.369899 211.068769,304.937014 C212.302085,304.504128 213.367948,303.850726 214.26639,302.976786 C215.164832,302.102847 215.859072,301.012482 216.349131,299.705657 L221.935779,301.273839 C221.347708,303.168735 220.359437,304.830828 218.970935,306.260167 C217.582434,307.689507 215.867252,308.800291 213.825339,309.592554 C211.783425,310.384816 209.488349,310.780941 206.94004,310.780941 C203.313602,310.780941 200.189521,309.976439 197.567704,308.367411 C194.945887,306.758384 192.928506,304.504145 191.515502,301.604627 C190.102498,298.70511 189.396006,295.327836 189.396006,291.472703 C189.396006,287.61757 190.102498,284.215793 191.515502,281.267269 C192.928506,278.318746 194.905049,276.015502 197.44519,274.357468 C199.98533,272.699434 202.954228,271.87043 206.351972,271.87043 C208.312209,271.87043 210.247914,272.197131 212.159146,272.850544 C214.070377,273.503956 215.810061,274.561651 217.378251,276.023661 C218.94644,277.485672 220.196073,279.417293 221.127185,281.818583 C222.058298,284.219874 222.523847,287.17652 222.523847,290.688612 L222.523847,293.138896 L195.191579,293.138896 L195.191579,293.138896 Z M243.192253,310.780941 C240.055874,310.780941 237.28708,309.984607 234.88579,308.391914 C232.4845,306.799222 230.605967,304.544983 229.250137,301.62913 C227.894306,298.713278 227.216401,295.262495 227.216401,291.27668 C227.216401,287.323535 227.894306,283.893172 229.250137,280.985487 C230.605967,278.077802 232.492667,275.83173 234.910293,274.247206 C237.327919,272.662681 240.121215,271.87043 243.290265,271.87043 C245.740561,271.87043 247.68035,272.274723 249.109689,273.083321 C250.539029,273.891918 251.633478,274.806682 252.39307,275.827639 C253.152662,276.848596 253.744808,277.685768 254.169526,278.33918 L254.659583,278.33918 L254.659583,259.815032 L260.442253,259.815032 L260.442253,309.99685 L254.855605,309.99685 L254.855605,304.21418 L254.169526,304.21418 C253.744808,304.900263 253.14041,305.761938 252.356316,306.79923 C251.572221,307.836522 250.453269,308.759453 248.999426,309.568051 C247.545584,310.376648 245.609879,310.780941 243.192253,310.780941 Z M243.976344,305.586339 C246.295958,305.586339 248.256166,304.977858 249.857026,303.760877 C251.457886,302.543897 252.674848,300.853218 253.507949,298.688789 C254.34105,296.524361 254.757594,294.021012 254.757594,291.178669 C254.757594,288.368995 254.349217,285.906485 253.532452,283.791062 C252.715687,281.67564 251.506892,280.025798 249.906032,278.841488 C248.305171,277.657178 246.328629,277.065032 243.976344,277.065032 C241.526048,277.065032 239.488248,277.689848 237.862885,278.9395 C236.237522,280.189151 235.02056,281.87983 234.211962,284.011588 C233.403364,286.143345 232.999071,288.532349 232.999071,291.178669 C232.999071,293.857659 233.411532,296.2875 234.236465,298.468264 C235.061398,300.649027 236.286528,302.380544 237.911891,303.662866 C239.537254,304.945188 241.558718,305.586339 243.976344,305.586339 Z M284.639068,324.894578 C281.84573,324.894578 279.444476,324.53929 277.435233,323.828704 C275.42599,323.118118 273.75573,322.18702 272.424402,321.03538 C271.093074,319.883741 270.035379,318.654527 269.251284,317.347703 L273.857818,314.113328 C274.380548,314.799411 275.042118,315.587577 275.842548,316.477852 C276.642978,317.368126 277.741511,318.144042 279.13818,318.805622 C280.534849,319.467202 282.36846,319.797987 284.639068,319.797987 C287.677436,319.797987 290.184868,319.062909 292.16144,317.592731 C294.138013,316.122553 295.126284,313.819309 295.126284,310.68293 L295.126284,303.038044 L294.636227,303.038044 C294.211509,303.724127 293.611196,304.569466 292.835268,305.574088 C292.059341,306.578709 290.948557,307.46897 289.502882,308.244897 C288.057207,309.020824 286.109251,309.408782 283.658954,309.408782 C280.620587,309.408782 277.896715,308.690039 275.487257,307.252532 C273.077799,305.815025 271.174764,303.724137 269.778095,300.979805 C268.381426,298.235473 267.683102,294.90312 267.683102,290.982646 C267.683102,287.127513 268.361007,283.766574 269.716838,280.899727 C271.072669,278.03288 272.959368,275.811311 275.376994,274.234954 C277.79462,272.658597 280.587916,271.87043 283.756966,271.87043 C286.207262,271.87043 288.155218,272.274723 289.600893,273.083321 C291.046568,273.891918 292.157353,274.806682 292.93328,275.827639 C293.709207,276.848596 294.30952,277.685768 294.734239,278.33918 L295.322307,278.33918 L295.322307,272.360487 L300.908954,272.360487 L300.908954,311.074975 C300.908954,314.309367 300.17796,316.943396 298.71595,318.977142 C297.25394,321.010888 295.293732,322.505546 292.835268,323.461161 C290.376804,324.416777 287.644765,324.894578 284.639068,324.894578 Z M284.443045,304.21418 C286.762659,304.21418 288.722867,303.68329 290.323727,302.621495 C291.924587,301.5597 293.14155,300.032372 293.97465,298.039464 C294.807751,296.046556 295.224295,293.661637 295.224295,290.884634 C295.224295,288.172973 294.815919,285.779886 293.999153,283.705302 C293.182388,281.630718 291.973593,280.005379 290.372733,278.829237 C288.771873,277.653095 286.79533,277.065032 284.443045,277.065032 C281.992749,277.065032 279.95495,277.685765 278.329587,278.927248 C276.704223,280.168732 275.487261,281.834908 274.678663,283.925828 C273.870065,286.016747 273.465773,288.336326 273.465773,290.884634 C273.465773,293.498284 273.878233,295.805612 274.703166,297.806687 C275.528099,299.807762 276.753229,301.375929 278.378592,302.511232 C280.003955,303.646536 282.02542,304.21418 284.443045,304.21418 Z M313.175949,288.140316 L334.612872,288.140316 C334.612872,286.016726 334.192244,284.121859 333.350975,282.455657 C332.509707,280.789456 331.317247,279.474483 329.773561,278.5107 C328.229874,277.546917 326.412598,277.065032 324.321678,277.065032 C322.0184,277.065032 320.029606,277.632676 318.355237,278.76798 C316.680867,279.903284 315.394481,281.377523 314.496039,283.190742 C313.726093,284.744635 313.286065,286.39448 313.175949,288.140316 L313.175949,288.140316 Z M313.161285,293.138896 C313.244881,295.642142 313.734718,297.786123 314.630805,299.570892 C315.619091,301.539296 316.99532,303.033955 318.759534,304.054911 C320.523747,305.075868 322.573797,305.586339 324.909747,305.586339 C326.42893,305.586339 327.805159,305.369899 329.038475,304.937014 C330.271791,304.504128 331.337654,303.850726 332.236096,302.976786 C333.134538,302.102847 333.828778,301.012482 334.318838,299.705657 L339.905485,301.273839 C339.317414,303.168735 338.329143,304.830828 336.940641,306.260167 C335.55214,307.689507 333.836959,308.800291 331.795045,309.592554 C329.753131,310.384816 327.458055,310.780941 324.909747,310.780941 C321.283308,310.780941 318.159227,309.976439 315.53741,308.367411 C312.915593,306.758384 310.898212,304.504145 309.485208,301.604627 C308.072204,298.70511 307.365713,295.327836 307.365713,291.472703 C307.365713,287.61757 308.072204,284.215793 309.485208,281.267269 C310.898212,278.318746 312.874755,276.015502 315.414896,274.357468 C317.955036,272.699434 320.923934,271.87043 324.321678,271.87043 C326.281916,271.87043 328.217621,272.197131 330.128852,272.850544 C332.040083,273.503956 333.779767,274.561651 335.347957,276.023661 C336.916146,277.485672 338.165779,279.417293 339.096891,281.818583 C340.028004,284.219874 340.493553,287.17652 340.493553,290.688612 L340.493553,293.138896 L313.161285,293.138896 L313.161285,293.138896 Z M12.1534091,352.2781 L22.9346591,352.2781 C25.6299851,352.2781 27.794381,351.812551 29.4279119,350.881438 C31.0614428,349.950326 32.2498187,348.688442 32.9930753,347.09575 C33.7363318,345.503057 34.1079545,343.702116 34.1079545,341.692873 C34.1079545,339.68363 33.7363318,337.886773 32.9930753,336.302248 C32.2498187,334.717723 31.0532753,333.472175 29.4034091,332.565565 C27.7535429,331.658955 25.5646443,331.205657 22.8366477,331.205657 L12.1534091,331.205657 L12.1534091,352.2781 L12.1534091,352.2781 Z M12.1534091,357.668725 L12.1534091,375.99685 L6.07670455,375.99685 L6.07670455,325.815032 L23.0326705,325.815032 C26.9694799,325.815032 30.1915713,326.521524 32.6990412,327.934528 C35.2065111,329.347532 37.0646246,331.254651 38.2734375,333.655941 C39.4822504,336.057232 40.0866477,338.736182 40.0866477,341.692873 C40.0866477,344.649564 39.4863341,347.336682 38.2856889,349.754308 C37.0850437,352.171934 35.2350977,354.095387 32.7357955,355.524727 C30.2364932,356.954066 27.0348207,357.668725 23.1306818,357.668725 L12.1534091,357.668725 L12.1534091,357.668725 Z M46.7394286,375.99685 L46.7394286,338.360487 L52.3260763,338.360487 L52.3260763,344.045146 L52.7181217,344.045146 C53.4042047,342.182921 54.6456696,340.671927 56.4425536,339.51212 C58.2394286,338.352313 60.2649855,337.772419 62.5192581,337.772419 C62.9439761,337.772419 63.4748657,337.780586 64.1119428,337.796921 C64.7490198,337.813257 65.2309042,337.837759 65.5576104,337.87043 L65.5576104,343.751112 C65.3615867,343.702106 64.9164562,343.624514 64.2222055,343.518335 C63.5279549,343.412155 62.7969608,343.359066 62.0292013,343.359066 C60.1996467,343.359066 58.5702241,343.738857 57.1408845,344.498448 C55.711545,345.25804 54.5844256,346.303484 53.7594925,347.634812 C52.9345594,348.96614 52.522099,350.481217 52.522099,352.180089 L52.522099,375.99685 L46.7394286,375.99685 Z M84.1677776,376.780941 C80.7700333,376.780941 77.7929679,375.972356 75.236492,374.35516 C72.6800162,372.737964 70.6871384,370.475558 69.2577989,367.567873 C67.8284593,364.660188 67.1138003,361.262495 67.1138003,357.374691 C67.1138003,353.454217 67.8284593,350.032021 69.2577989,347.108001 C70.6871384,344.183981 72.6800162,341.913407 75.236492,340.296211 C77.7929679,338.679016 80.7700333,337.87043 84.1677776,337.87043 C87.5655218,337.87043 90.5425872,338.679016 93.0990631,340.296211 C95.6555389,341.913407 97.6484167,344.183981 99.0777563,347.108001 C100.507096,350.032021 101.221755,353.454217 101.221755,357.374691 C101.221755,361.262495 100.507096,364.660188 99.0777563,367.567873 C97.6484167,370.475558 95.6555389,372.737964 93.0990631,374.35516 C90.5425872,375.972356 87.5655218,376.780941 84.1677776,376.780941 Z M84.1677776,371.586339 C86.7487564,371.586339 88.8723147,370.924769 90.5385162,369.601609 C92.2047177,368.278449 93.438015,366.538765 94.2384452,364.382504 C95.0388753,362.226243 95.4390844,359.890329 95.4390844,357.374691 C95.4390844,354.859054 95.0388753,352.514972 94.2384452,350.342376 C93.438015,348.16978 92.2047177,346.413761 90.5385162,345.074265 C88.8723147,343.73477 86.7487564,343.065032 84.1677776,343.065032 C81.5867987,343.065032 79.4632404,343.73477 77.7970389,345.074265 C76.1308374,346.413761 74.8975401,348.16978 74.0971099,350.342376 C73.2966798,352.514972 72.8964707,354.859054 72.8964707,357.374691 C72.8964707,359.890329 73.2966798,362.226243 74.0971099,364.382504 C74.8975401,366.538765 76.1308374,368.278449 77.7970389,369.601609 C79.4632404,370.924769 81.5867987,371.586339 84.1677776,371.586339 Z M107.678513,338.360487 L113.461183,338.360487 L113.461183,378.741169 C113.461183,381.060782 113.065058,383.069995 112.272796,384.768867 C111.480533,386.46774 110.288073,387.782712 108.695381,388.713825 C107.102688,389.644937 105.097559,390.110487 102.679933,390.110487 L101.503797,390.110487 L101.503797,384.719862 L102.581922,384.719862 C104.346135,384.719862 105.636605,384.201223 106.453371,383.163931 C107.270136,382.126639 107.678513,380.6524 107.678513,378.741169 L107.678513,338.360487 Z M110.520842,332.087759 C109.393706,332.087759 108.425854,331.703885 107.617256,330.936126 C106.808658,330.168366 106.404365,329.245435 106.404365,328.167305 C106.404365,327.089175 106.808658,326.166243 107.617256,325.398484 C108.425854,324.630724 109.393706,324.24685 110.520842,324.24685 C111.647979,324.24685 112.615831,324.630724 113.424429,325.398484 C114.233027,326.166243 114.63732,327.089175 114.63732,328.167305 C114.63732,329.245435 114.233027,330.168366 113.424429,330.936126 C112.615831,331.703885 111.647979,332.087759 110.520842,332.087759 Z M125.728178,354.140316 L147.165101,354.140316 C147.165101,352.016726 146.744473,350.121859 145.903204,348.455657 C145.061936,346.789456 143.869476,345.474483 142.325789,344.5107 C140.782103,343.546917 138.964827,343.065032 136.873907,343.065032 C134.570629,343.065032 132.581835,343.632676 130.907466,344.76798 C129.233096,345.903284 127.94671,347.377523 127.048268,349.190742 C126.278322,350.744635 125.838294,352.39448 125.728178,354.140316 L125.728178,354.140316 Z M125.713514,359.138896 C125.79711,361.642142 126.286947,363.786123 127.183034,365.570892 C128.17132,367.539296 129.547549,369.033955 131.311763,370.054911 C133.075976,371.075868 135.126026,371.586339 137.461976,371.586339 C138.981159,371.586339 140.357388,371.369899 141.590704,370.937014 C142.82402,370.504128 143.889883,369.850726 144.788325,368.976786 C145.686767,368.102847 146.381007,367.012482 146.871066,365.705657 L152.457714,367.273839 C151.869643,369.168735 150.881372,370.830828 149.49287,372.260167 C148.104369,373.689507 146.389187,374.800291 144.347274,375.592554 C142.30536,376.384816 140.010284,376.780941 137.461976,376.780941 C133.835537,376.780941 130.711456,375.976439 128.089639,374.367411 C125.467822,372.758384 123.450441,370.504145 122.037437,367.604627 C120.624433,364.70511 119.917941,361.327836 119.917941,357.472703 C119.917941,353.61757 120.624433,350.215793 122.037437,347.267269 C123.450441,344.318746 125.426984,342.015502 127.967125,340.357468 C130.507265,338.699434 133.476163,337.87043 136.873907,337.87043 C138.834144,337.87043 140.76985,338.197131 142.681081,338.850544 C144.592312,339.503956 146.331996,340.561651 147.900186,342.023661 C149.468375,343.485672 150.718008,345.417293 151.64912,347.818583 C152.580233,350.219874 153.045782,353.17652 153.045782,356.688612 L153.045782,359.138896 L125.713514,359.138896 L125.713514,359.138896 Z M174.792313,376.780941 C171.263886,376.780941 168.225565,375.947853 165.677256,374.281652 C163.128948,372.61545 161.168741,370.320374 159.796575,367.396353 C158.424409,364.472333 157.738336,361.131812 157.738336,357.374691 C157.738336,353.552229 158.444827,350.174955 159.857832,347.242767 C161.270836,344.310579 163.247379,342.015502 165.787519,340.357468 C168.32766,338.699434 171.296558,337.87043 174.694302,337.87043 C177.340622,337.87043 179.725541,338.360482 181.849131,339.3406 C183.972722,340.320719 185.712406,341.692864 187.068237,343.457078 C188.424067,345.221291 189.265323,347.279509 189.592029,349.631794 L183.809359,349.631794 C183.368305,347.916586 182.392285,346.393341 180.881269,345.062014 C179.370253,343.730686 177.340621,343.065032 174.792313,343.065032 C172.538041,343.065032 170.565582,343.649011 168.874877,344.816985 C167.184173,345.98496 165.8692,347.626634 164.92992,349.742056 C163.990639,351.857479 163.521006,354.336325 163.521006,357.178669 C163.521006,360.086354 163.982472,362.618288 164.905417,364.774549 C165.828362,366.93081 167.135167,368.605154 168.825871,369.797632 C170.516576,370.990109 172.50537,371.586339 174.792313,371.586339 C176.295162,371.586339 177.659139,371.324978 178.884288,370.802248 C180.109436,370.279518 181.146712,369.528105 181.996148,368.547987 C182.845585,367.567868 183.449982,366.391744 183.809359,365.019578 L189.592029,365.019578 C189.265323,367.24118 188.460821,369.238141 187.178499,371.010522 C185.896178,372.782903 184.205498,374.187719 182.106411,375.225011 C180.007324,376.262303 177.569316,376.780941 174.792313,376.780941 Z M212.02464,338.360487 L212.02464,343.261055 L192.520378,343.261055 L192.520378,338.360487 L212.02464,338.360487 Z M198.205037,329.343441 L203.987708,329.343441 L203.987708,365.2156 C203.987708,366.849131 204.22865,368.070177 204.710541,368.878775 C205.192433,369.687373 205.813166,370.22643 206.572757,370.495963 C207.332349,370.765495 208.136851,370.900259 208.986287,370.900259 C209.623364,370.900259 210.146086,370.863506 210.554469,370.789997 C210.962852,370.716488 211.289553,370.655231 211.534583,370.606225 L212.710719,375.800828 C212.318672,375.947845 211.771447,376.098945 211.069029,376.25413 C210.36661,376.409316 209.476349,376.486907 208.398219,376.486907 C206.764688,376.486907 205.167936,376.135703 203.607914,375.433285 C202.047892,374.730867 200.757422,373.66092 199.736465,372.223413 C198.715508,370.785906 198.205037,368.972714 198.205037,366.783782 L198.205037,329.343441 Z" id="PublicKnowledgeProject"></path>
            </g>
        </g>
    </g>
</svg>
